<svg width="107" height="106" viewBox="0 0 107 106" fill="none" xmlns="http://www.w3.org/2000/svg">
<path d="M89.7407 75.5608C90.0052 76.2593 90.7848 76.616 91.4865 76.3542L101.645 72.5753C102.346 72.3108 102.702 71.527 102.438 70.8258L92.3488 44.1906C92.086 43.4921 91.3058 43.1349 90.6046 43.3962L80.5002 47.157C79.773 47.4051 79.3797 48.2001 79.6522 48.9267C83.015 57.8042 86.3763 66.6833 89.7407 75.5608ZM27.6274 48.9267C27.8902 48.2234 27.5362 47.4401 26.8324 47.1761L16.6744 43.3962C15.9737 43.1349 15.1941 43.4921 14.9296 44.1906L4.84108 70.8263C4.57714 71.5275 4.93277 72.3114 5.63502 72.5758L15.793 76.3547C16.4947 76.6165 17.2738 76.2599 17.5372 75.5613C20.9011 66.6822 24.0679 57.7289 27.6274 48.9267Z" fill="white"/>
<path d="M50.8607 97.7747L53.0909 94.9064C55.8734 91.3183 50.9534 86.8212 47.6261 89.8703C49.6226 86.1375 44.7519 82.472 41.7251 85.4501C43.8345 81.8048 39.162 78.0084 36.0228 80.7909C38.5371 76.8297 32.8168 72.7958 29.9326 76.5042L28.5408 78.2972L26.8708 80.448L26.3413 81.1269C23.5747 84.689 28.4072 89.1649 31.7584 86.2075C29.4058 89.9238 34.3973 93.9338 37.5254 90.8572C35.3942 94.5248 40.1494 98.3312 43.269 95.4777C41.1378 99.4538 46.715 103.116 49.4986 99.5274L50.8607 97.7747ZM81.2557 77.5897L88.9073 73.3592L80.7447 51.81L80.2492 50.5019C78.1345 51.4294 75.5359 52.8975 73.5786 52.8583C66.6049 52.7157 59.5426 48.1567 52.8344 50.0731C50.7006 50.6816 48.3882 51.8762 46.697 53.1079C43.9283 55.5783 39.5568 60.2115 36.5327 62.7009C35.4303 63.5134 35.3751 64.3747 35.9163 64.8925C38.0077 67.3554 40.275 67.6956 42.6881 67.2817C45.7075 66.7634 48.8954 65.2529 51.414 62.861C56.2275 67.0644 63.7768 70.9573 70.3165 68.7185C73.4684 71.2737 78.1006 75.0356 81.2557 77.5897Z" fill="white"/>
<path d="M31.248 51.728C29.8021 51.5685 28.493 50.6813 27.1908 50.0781L27.1643 50.0808C23.9043 58.2311 20.9564 66.5034 17.8564 74.7168C19.2837 75.5356 25.6989 79.6701 26.8707 80.4498L29.9325 76.5066C32.8168 72.7982 38.537 76.832 36.0227 80.7932C39.1619 78.0107 43.8344 81.8071 41.725 85.4524C44.7518 82.4744 49.622 86.1398 47.626 89.8726C50.9528 86.8235 55.8733 91.3206 53.0908 94.9087L50.8606 97.7771L55.3635 100.886C58.624 103.274 63.4338 101.235 63.9532 97.3027C67.3176 98.7841 71.4538 96.2417 71.3986 92.5465C74.4901 93.0627 77.5186 90.727 77.6744 87.6122C83.0973 88.7936 86.3987 82.2459 82.3087 78.4458C78.3151 75.2012 74.3142 71.9608 70.3169 68.7188C68.666 69.2832 67.1634 69.4221 65.8729 69.3224C60.7366 68.9223 56.1654 67.0116 51.4145 62.8617C48.8959 65.2536 45.7079 66.7641 42.6885 67.2825C40.2749 67.6964 38.0081 67.3567 35.9167 64.8932C35.3756 64.3754 35.4307 63.5142 36.5331 62.7017C39.5573 60.2128 44.2303 55.2636 46.9996 52.7933C42.5274 50.4857 34.9415 52.1435 31.248 51.728Z" fill="white"/>
<path fill-rule="evenodd" clip-rule="evenodd" d="M38.9464 10.2208H47.5531L53.6401 4.13477L59.7267 10.2208H68.3344V18.8274L74.4204 24.9145L68.3344 31.001V39.6082H59.7267L53.6401 45.6952L47.5531 39.6082H38.9464V31.001L32.8594 24.9145L38.9464 18.8274V10.2208Z" fill="#FF5859"/>
<path d="M103.765 70.3324L93.6727 43.6899C93.2694 42.6214 92.2332 41.9043 91.0927 41.9043C90.7641 41.9043 90.4418 41.9621 90.1318 42.0781L80.0618 45.8268C79.3542 46.0669 78.7649 46.5916 78.4447 47.2663C78.123 47.9447 78.0912 48.7063 78.3562 49.4139L78.4914 49.7695C78.4304 49.7981 78.3684 49.9778 78.3064 50.0069C76.7074 50.7574 74.8943 51.7591 73.6154 51.7591C70.9447 51.7591 68.255 50.8078 65.4078 50.0181C62.4525 49.1987 59.396 48.2765 56.3496 48.2765C54.9578 48.2765 53.6831 48.4095 52.4509 48.7614C50.6643 49.2713 48.6884 50.1622 46.9654 51.2524C43.6884 49.8755 39.3562 50.0976 35.8312 50.2878C34.1177 50.3801 32.4975 50.4622 31.3924 50.3377C30.5863 50.2486 29.7786 49.8421 28.9279 49.4027C29.1834 48.7164 29.1569 47.9707 28.8553 47.3039C28.5516 46.633 28.0041 46.1204 27.3098 45.8597L17.1465 42.0776C15.7272 41.5487 14.1414 42.2732 13.6083 43.6872L3.51493 70.3351C3.25576 71.0241 3.28014 71.773 3.58436 72.444C3.88805 73.1149 4.43501 73.6264 5.12931 73.8877L15.2905 77.6698C16.4591 78.1054 17.7497 77.6878 18.4625 76.7311C20.2486 77.8452 23.1318 79.6949 24.8586 80.8164C23.9645 82.2929 23.8675 84.0276 24.6227 85.5699C25.5677 87.4997 27.7116 88.7356 29.7505 88.5581C29.8003 89.2529 30.0033 89.9387 30.36 90.5869C31.3966 92.4684 33.5818 93.5904 35.6213 93.3164C35.6981 93.9688 35.9091 94.6091 36.2567 95.2138C37.2977 97.0232 39.4352 98.1028 41.4264 97.8469C41.5048 98.52 41.7263 99.386 42.092 99.9955C43.0423 101.584 44.8348 102.821 46.658 102.821C46.658 102.821 46.658 102.821 46.6591 102.821C48.1982 102.821 49.5984 101.899 50.6001 100.609L51.1524 99.7925L54.5396 102.078C55.712 102.936 57.0926 103.349 58.5035 103.349C59.431 103.349 60.3707 103.146 61.2727 102.76C62.9931 102.026 64.2884 100.693 64.9393 99.0606C66.603 99.3388 68.3546 98.9636 69.8471 97.9746C71.2919 97.0169 72.2787 95.5975 72.645 94.016C74.0611 93.9376 75.4444 93.4097 76.5866 92.4907C77.6768 91.6135 78.4553 90.4433 78.8316 89.1564C81.3793 89.2158 83.5826 87.9009 84.7761 85.6176C86.1149 83.0556 85.6697 80.0055 83.6939 77.8515L88.1872 75.3664L88.449 76.0586C88.8523 77.127 89.889 77.8441 91.0285 77.8441C91.3577 77.8441 91.6804 77.7853 91.9894 77.6703L102.156 73.8871C102.846 73.628 103.393 73.116 103.697 72.4445C104.001 71.7735 104.024 71.0241 103.765 70.3324ZM16.5392 74.2195C16.5386 74.221 16.5381 74.2226 16.537 74.2242L16.2646 75.0505L6.12889 71.323L16.1729 44.6974L26.2943 48.463L25.8555 49.5554C25.8518 49.5639 25.8497 49.5713 25.8465 49.5792L16.5392 74.2195ZM30.7442 85.2339C30.3059 85.5959 29.831 85.7819 29.3307 85.7819C28.4525 85.7819 27.5478 85.1889 27.1323 84.3403C26.8641 83.7918 26.6987 82.938 27.4344 81.9903L31.0256 77.3671C31.5042 76.7518 32.0872 76.4402 32.7577 76.4402C33.6295 76.4402 34.5433 76.9945 34.9794 77.7879C35.2492 78.2782 35.4421 79.0583 34.8618 80.007L30.7442 85.2339ZM36.4846 89.9212C36.0304 90.3463 35.5227 90.5647 34.971 90.5647C34.1145 90.5647 33.2448 90.0325 32.808 89.2381C32.5324 88.7383 32.3316 87.947 32.905 87.0068L37.0237 81.7783C37.4583 81.42 37.9353 81.2361 38.4414 81.2361C39.2693 81.2361 40.1194 81.7455 40.5561 82.5034C40.8354 82.9888 41.0559 83.7589 40.5487 84.6901L36.4846 89.9212ZM42.2489 94.5211C41.8096 94.899 41.3241 95.0914 40.8041 95.0914C39.971 95.0914 39.1161 94.5799 38.6772 93.8189C38.3995 93.3344 38.1817 92.5665 38.691 91.6363L42.7556 86.4057C43.2077 85.9817 43.7165 85.7644 44.2693 85.7644C45.0892 85.7644 45.9367 86.2611 46.3797 86.9999C46.6596 87.4679 46.8896 88.213 46.4343 89.1342L42.2489 94.5211ZM51.9861 94.0627L48.3937 98.9673C47.9189 99.5789 47.3348 100.17 46.6596 100.17C46.6596 100.17 46.6596 100.17 46.6585 100.17C45.8116 100.17 44.9403 99.3844 44.4898 98.6328C44.2168 98.1755 43.9958 97.3015 44.4532 96.3793L48.6413 90.9192C49.0875 90.536 49.5709 90.3034 50.0844 90.3034C50.9653 90.3034 51.8705 90.88 52.2871 91.7301C52.5558 92.2787 52.7217 93.115 51.9861 94.0627ZM60.1741 100.178C58.8167 100.758 57.3285 100.604 56.1582 99.7474L52.8701 97.478L54.193 95.7751C55.0537 94.6669 55.4189 93.363 55.2694 92.0852C56.1174 92.771 56.9808 93.468 57.8442 94.166C59.3997 95.4237 60.9521 96.6771 62.4016 97.8516C62.0487 98.8751 61.2537 99.7172 60.1741 100.178ZM82.2984 84.3228C81.6777 85.5106 80.304 86.6204 78.2815 86.3077L67.814 77.8595C67.2135 77.374 66.3337 77.4694 65.8493 78.0694C65.3649 78.6693 65.4592 79.5491 66.0597 80.0341L76.1869 88.2077C75.9914 89.0144 75.5207 89.7585 74.8333 90.3124C74.0049 90.9786 72.9725 91.2982 71.9586 91.2166C71.5298 90.8747 70.8159 90.2843 70.3469 89.8979L61.312 82.5606C60.7131 82.0751 59.8327 82.1647 59.3457 82.7657C58.8602 83.3646 58.9513 84.2439 59.5502 84.7309L64.8089 88.9974L68.5682 92.0534C69.0844 92.4795 69.5757 92.8839 69.9605 93.1956C69.7962 94.1671 69.2148 95.0373 68.3016 95.6415C67.1849 96.3835 65.8419 96.5494 64.6748 96.0984C63.08 94.8047 61.3422 93.4012 59.5995 91.993C57.7053 90.4618 55.8063 88.928 54.0828 87.5299C53.4833 87.0433 52.6035 87.135 52.1175 87.7339C52.0778 87.7837 52.0428 87.8352 52.0115 87.8882C51.198 87.5447 50.3134 87.4006 49.4537 87.515C49.3727 86.8403 49.1463 86.1794 48.7785 85.5636C47.7169 83.7944 45.5789 82.7514 43.6163 83.0137C43.5389 82.3576 43.3264 81.7126 42.9761 81.1068C41.9712 79.3636 39.9572 78.2925 38.0269 78.4589C37.9814 77.7673 37.7816 77.0857 37.428 76.4417C36.4942 74.7436 34.6609 73.6465 32.7572 73.6465C31.2244 73.6465 29.8268 74.3588 28.8198 75.6526L26.545 78.5798C24.7409 77.4074 21.4152 75.2699 19.5607 74.1241L27.9108 52.0199C28.8473 52.4969 29.892 52.9786 31.0829 53.1101C32.4148 53.2595 34.0663 53.171 35.9801 53.0682C38.6592 52.9246 41.8451 52.7566 44.3827 53.3396C43.5241 54.1552 42.5865 55.0737 41.614 56.0283C39.5189 58.0847 37.3517 60.2121 35.6976 61.5758C34.5173 62.445 34.2221 63.3666 34.1834 63.9873C34.1389 64.6816 34.3869 65.3372 34.8835 65.8439C36.6081 67.852 38.629 68.8288 41.0607 68.8288C41.6463 68.8288 42.2553 68.7737 42.9204 68.6598C45.9934 68.1324 48.9762 66.7417 51.4386 64.7038C54.281 66.9966 59.9265 70.7713 66.2669 70.7713C67.567 70.7713 68.8268 70.6049 70.022 70.2741L72.8289 72.551C74.9451 74.2687 77.2268 76.1195 79.1634 77.6883C79.9091 78.2941 80.6548 78.8978 81.4011 79.5036C83.0886 81.0973 82.9407 83.0927 82.2984 84.3228ZM81.4159 75.9165C81.1345 75.6881 80.8425 75.4512 80.5451 75.2106C78.4135 73.4812 76.2818 71.7518 74.1491 70.0229L72.9714 69.0673C73.5157 68.6693 73.7076 67.9252 73.3907 67.3056C73.0387 66.6182 72.196 66.3028 71.5102 66.6542C70.9654 66.9335 70.4142 67.3104 69.8709 67.3104C69.8704 67.3104 69.8699 67.3104 69.8693 67.3104C68.7468 67.8404 67.5347 67.9326 66.2664 67.9326C61.9644 67.9326 56.7561 65.6488 52.3322 61.7857C51.7889 61.3097 50.9754 61.3389 50.4512 61.8349C48.2575 63.9189 45.3404 65.4029 42.4471 65.8995C41.9399 65.9864 41.4863 66.031 41.0601 66.031C39.4749 66.031 38.2363 65.431 37.0592 64.0859C37.1281 64.0101 37.2399 63.9067 37.4137 63.7785C39.221 62.2907 41.4322 60.1209 43.5713 58.0221C45.0489 56.571 46.4471 55.1999 47.5717 54.1934C49.2274 52.9972 51.3835 51.9335 53.2167 51.4109C54.1962 51.1311 55.2201 50.9949 56.3485 50.9949C59.0149 50.9949 61.7572 51.7554 64.6616 52.5605C67.5495 53.3613 70.5355 54.1886 73.5581 54.2506C73.5671 54.2506 73.653 54.2517 73.6625 54.2517C75.5117 54.2517 77.6211 53.2643 79.4819 52.3903L87.1844 72.7249L81.4159 75.9165ZM91.0624 75.069L90.2282 72.868L81.5659 50.0016L80.9983 48.4599L91.0577 44.6773L101.176 71.2684L91.0624 75.069Z" fill="#1E1E1E"/>
<path d="M37.2096 31.5657V39.5968C37.2096 40.3685 38.1684 41.3399 38.9401 41.3399H46.9717L52.6522 46.8472C52.9135 47.109 53.2691 47.1699 53.6396 47.1699C54.0095 47.1699 54.3657 47.1525 54.627 46.8906L60.307 41.3399H68.3386C69.1098 41.3399 69.5396 40.3685 69.5396 39.5968V31.5657L75.3171 25.8857C75.8625 25.3398 75.8137 24.4552 75.2678 23.9093L69.5396 18.2298V10.1977C69.5396 9.42599 69.1098 8.47994 68.3386 8.47994H60.307L54.627 2.95999C54.3657 2.69817 54.0095 2.63086 53.6396 2.63086C53.2691 2.63086 52.9135 2.65789 52.6522 2.91971L46.9717 8.47994H38.9401C38.1684 8.47994 37.2096 9.42599 37.2096 10.1977V18.2293L31.696 23.9093C31.1517 24.4547 31.0669 25.3392 31.6128 25.8857L37.2096 31.5657ZM39.6884 19.7965C39.9508 19.5342 39.8596 19.1791 39.8596 18.8081V11.6599H47.5499C47.9209 11.6599 48.2765 11.4803 48.5384 11.2179L53.6396 6.10077L58.7403 11.2264C59.0021 11.4882 59.3572 11.6599 59.7272 11.6599H66.8896V18.8081C66.8896 19.1785 67.0619 19.5336 67.3247 19.796L72.4376 24.8972L67.3173 29.9979C67.0555 30.2603 66.8891 30.6159 66.8891 30.9864V38.1599H59.7267C59.3567 38.1599 59.0016 38.3274 58.7398 38.5892L53.6396 43.6995L48.5384 38.5839C48.2765 38.3221 47.9209 38.1599 47.5499 38.1599H39.8596V30.9869C39.8596 30.6165 39.9508 30.2603 39.6884 29.9985L34.5888 24.8978L39.6884 19.7965Z" fill="#1E1E1E"/>
<path d="M53.6006 34.24C52.3846 34.24 51.3206 34 50.4086 33.52C49.5126 33.04 48.7126 32.344 48.0086 31.432L49.5206 29.92C50.0326 30.64 50.6246 31.208 51.2966 31.624C51.9686 32.04 52.7606 32.248 53.6726 32.248C54.6486 32.248 55.4326 32.024 56.0246 31.576C56.6326 31.128 56.9366 30.504 56.9366 29.704C56.9366 29.08 56.7926 28.576 56.5046 28.192C56.2166 27.808 55.8326 27.496 55.3526 27.256C54.8726 27 54.3446 26.776 53.7686 26.584C53.1926 26.376 52.6166 26.16 52.0406 25.936C51.4806 25.696 50.9606 25.408 50.4806 25.072C50.0006 24.72 49.6166 24.264 49.3286 23.704C49.0406 23.144 48.8966 22.44 48.8966 21.592C48.8966 20.648 49.1206 19.848 49.5686 19.192C50.0326 18.52 50.6566 18.008 51.4406 17.656C52.2246 17.288 53.1046 17.104 54.0806 17.104C55.0886 17.104 56.0086 17.32 56.8406 17.752C57.6726 18.168 58.3606 18.72 58.9046 19.408L57.3926 20.92C56.8966 20.344 56.3766 19.896 55.8326 19.576C55.2886 19.256 54.6886 19.096 54.0326 19.096C53.1046 19.096 52.3766 19.296 51.8486 19.696C51.3206 20.096 51.0566 20.68 51.0566 21.448C51.0566 22.008 51.2006 22.464 51.4886 22.816C51.7926 23.152 52.1846 23.44 52.6646 23.68C53.1606 23.92 53.6886 24.144 54.2486 24.352C54.8246 24.544 55.4006 24.76 55.9766 25C56.5686 25.24 57.1046 25.544 57.5846 25.912C58.0646 26.28 58.4486 26.76 58.7366 27.352C59.0406 27.928 59.1926 28.656 59.1926 29.536C59.1926 31.008 58.6886 32.16 57.6806 32.992C56.6726 33.824 55.3126 34.24 53.6006 34.24ZM53.2646 36.4V14.944H54.8486V36.4H53.2646Z" fill="white"/>
</svg>
