<svg width="107" height="106" viewBox="0 0 107 106" fill="none" xmlns="http://www.w3.org/2000/svg">
<path d="M53.6408 105.036C80.2509 105.036 101.823 83.4638 101.823 56.8537C101.823 30.2436 80.2509 8.67188 53.6408 8.67188C27.0307 8.67188 5.45898 30.2436 5.45898 56.8537C5.45898 83.4638 27.0307 105.036 53.6408 105.036Z" fill="#E7EFFF"/>
<path d="M53.6408 105.036C80.2509 105.036 101.823 83.4638 101.823 56.8537C101.823 30.2436 80.2509 8.67188 53.6408 8.67188C27.0307 8.67188 5.45898 30.2436 5.45898 56.8537C5.45898 83.4638 27.0307 105.036 53.6408 105.036Z" fill="#FFE6E6"/>
<path d="M24.7319 22.1626C24.7314 22.3406 24.6816 22.5149 24.588 22.6663C24.4945 22.8177 24.3608 22.9402 24.2019 23.0203C23.0904 23.5734 22.0993 24.3409 21.2856 25.2786C20.472 26.2163 19.8518 27.3057 19.4608 28.4841L18.9501 30.1801C18.8867 30.3729 18.7641 30.5407 18.5997 30.6597C18.4353 30.7787 18.2376 30.8428 18.0346 30.8428C17.8317 30.8428 17.6339 30.7787 17.4695 30.6597C17.3052 30.5407 17.1825 30.3729 17.1192 30.1801L16.5603 28.4841C16.1693 27.3057 15.5491 26.2163 14.7354 25.2786C13.9218 24.3409 12.9307 23.5734 11.8192 23.0203C11.6613 22.9394 11.5289 22.8165 11.4364 22.6652C11.3439 22.5139 11.2949 22.34 11.2949 22.1626C11.2949 21.9853 11.3439 21.8114 11.4364 21.66C11.5289 21.5087 11.6613 21.3858 11.8192 21.305C12.9307 20.7518 13.9218 19.9843 14.7354 19.0466C15.5491 18.1089 16.1693 17.0195 16.5603 15.8412L17.1192 14.1452C17.1825 13.9524 17.3052 13.7845 17.4695 13.6655C17.6339 13.5465 17.8317 13.4824 18.0346 13.4824C18.2376 13.4824 18.4353 13.5465 18.5997 13.6655C18.7641 13.7845 18.8867 13.9524 18.9501 14.1452L19.509 15.8412C19.9 17.0195 20.5201 18.1089 21.3338 19.0466C22.1475 19.9843 23.1386 20.7518 24.2501 21.305C24.4 21.3915 24.5239 21.5168 24.6087 21.6677C24.6935 21.8186 24.736 21.9896 24.7319 22.1626ZM92.1864 47.2172C92.1859 47.3951 92.1361 47.5694 92.0426 47.7208C91.949 47.8722 91.8154 47.9947 91.6564 48.0748C90.545 48.6279 89.5539 49.3955 88.7402 50.3332C87.9265 51.2709 87.3063 52.3603 86.9154 53.5386L86.4046 55.2346C86.3413 55.4274 86.2186 55.5953 86.0543 55.7143C85.8899 55.8333 85.6921 55.8974 85.4892 55.8974C85.2862 55.8974 85.0885 55.8333 84.9241 55.7143C84.7597 55.5953 84.6371 55.4274 84.5737 55.2346L84.0148 53.5386C83.6238 52.3603 83.0037 51.2709 82.19 50.3332C81.3763 49.3955 80.3852 48.6279 79.2737 48.0748C79.1159 47.9939 78.9834 47.8711 78.8909 47.7198C78.7984 47.5684 78.7495 47.3945 78.7495 47.2172C78.7495 47.0398 78.7984 46.8659 78.8909 46.7146C78.9834 46.5633 79.1159 46.4404 79.2737 46.3595C80.3852 45.8064 81.3763 45.0389 82.19 44.1012C83.0037 43.1634 83.6238 42.0741 84.0148 40.8957L84.5737 39.1997C84.6371 39.0069 84.7597 38.8391 84.9241 38.72C85.0885 38.601 85.2862 38.537 85.4892 38.537C85.6921 38.537 85.8899 38.601 86.0543 38.72C86.2186 38.8391 86.3413 39.0069 86.4046 39.1997L86.9635 40.8957C87.3545 42.0741 87.9747 43.1634 88.7884 44.1012C89.602 45.0389 90.5931 45.8064 91.7046 46.3595C91.8546 46.446 91.9784 46.5713 92.0632 46.7222C92.148 46.8731 92.1906 47.0441 92.1864 47.2172Z" fill="#FF5859"/>
<path d="M5.45927 6.74471C7.05587 6.74471 8.35018 5.45041 8.35018 3.8538C8.35018 2.25719 7.05587 0.962891 5.45927 0.962891C3.86266 0.962891 2.56836 2.25719 2.56836 3.8538C2.56836 5.45041 3.86266 6.74471 5.45927 6.74471Z" fill="#FF4D69"/>
<path d="M94.1136 11.5631C95.7102 11.5631 97.0045 10.2688 97.0045 8.67216C97.0045 7.07555 95.7102 5.78125 94.1136 5.78125C92.517 5.78125 91.2227 7.07555 91.2227 8.67216C91.2227 10.2688 92.517 11.5631 94.1136 11.5631Z" fill="#1E1E1E"/>
<path d="M102.786 101.18C104.383 101.18 105.677 99.886 105.677 98.2893C105.677 96.6927 104.383 95.3984 102.786 95.3984C101.19 95.3984 99.8955 96.6927 99.8955 98.2893C99.8955 99.886 101.19 101.18 102.786 101.18Z" fill="#FF5859"/>
<path d="M4.4954 97.3267C6.09201 97.3267 7.38631 96.0324 7.38631 94.4358C7.38631 92.8392 6.09201 91.5449 4.4954 91.5449C2.8988 91.5449 1.60449 92.8392 1.60449 94.4358C1.60449 96.0324 2.8988 97.3267 4.4954 97.3267Z" fill="#1E1E1E"/>
<path d="M92.1861 83.8354C92.1881 84.5176 92.156 85.1994 92.0898 85.8783C85.2065 95.0072 75.3013 101.391 64.1443 103.889C60.4556 102.631 57.1849 100.381 54.6918 97.3852C52.1986 94.3898 50.5793 90.765 50.012 86.9093C49.4446 83.0535 49.9511 79.116 51.4758 75.5293C53.0004 71.9427 55.4843 68.8457 58.6544 66.5787C61.8245 64.3117 65.5581 62.9624 69.4451 62.6791C73.332 62.3958 77.2219 63.1895 80.6872 64.9729C84.1525 66.7562 87.0591 69.4603 89.0877 72.788C91.1163 76.1157 92.1884 79.9381 92.1861 83.8354Z" fill="#1E1E1E"/>
<path d="M87.3681 83.8361C87.3761 88.0993 85.7119 92.1957 82.733 95.2455C80.7697 96.7478 78.6879 98.0884 76.5079 99.2543C73.2312 100.427 69.6659 100.526 66.3291 99.5369C62.9922 98.5474 60.0572 96.5209 57.9496 93.7512C55.842 90.9814 54.6713 87.6124 54.6073 84.1325C54.5432 80.6527 55.5891 77.2428 57.5934 74.3974C59.5976 71.552 62.4561 69.4188 65.7542 68.3072C69.0524 67.1956 72.6189 67.1633 75.9366 68.2151C79.2544 69.2668 82.1509 71.3479 84.2063 74.1566C86.2617 76.9653 87.3692 80.3556 87.3681 83.8361Z" fill="#404040"/>
<path d="M61.3497 44.8952V100.218C61.3506 101.264 61.0107 102.283 60.3813 103.119C59.7519 103.955 58.8674 104.564 57.8614 104.853C57.4283 104.973 56.981 105.034 56.5316 105.036H53.6406C46.6783 105.043 39.7975 103.537 33.4748 100.622C27.152 97.7065 21.5384 93.452 17.0225 88.1529V44.8952C17.0219 43.6667 17.4907 42.4843 18.333 41.5899L31.5637 27.5305C32.0144 27.0525 32.558 26.6717 33.1612 26.4116C33.7644 26.1514 34.4144 26.0173 35.0714 26.0176H43.3008C43.9577 26.0173 44.6078 26.1514 45.211 26.4116C45.8142 26.6717 46.3578 27.0525 46.8085 27.5305L60.0392 41.5899C60.8815 42.4843 61.3503 43.6667 61.3497 44.8952Z" fill="#FF5859"/>
<path d="M39.1863 44.3258C41.8474 44.3258 44.0045 42.1686 44.0045 39.5076C44.0045 36.8466 41.8474 34.6895 39.1863 34.6895C36.5253 34.6895 34.3682 36.8466 34.3682 39.5076C34.3682 42.1686 36.5253 44.3258 39.1863 44.3258Z" fill="#1E1E1E"/>
<path d="M41.1135 8.67141V39.3921C41.1344 39.8675 40.9846 40.3346 40.6913 40.7092C40.3979 41.0838 39.9804 41.3413 39.5139 41.4351C39.2348 41.4832 38.9485 41.4693 38.6755 41.3943C38.4024 41.3192 38.1492 41.1849 37.9339 41.0009C37.7186 40.8169 37.5465 40.5877 37.4298 40.3296C37.3132 40.0716 37.2549 39.791 37.259 39.5078V8.67141C37.259 8.16027 37.462 7.67006 37.8235 7.30863C38.1849 6.94719 38.6751 6.74414 39.1863 6.74414C39.6974 6.74414 40.1876 6.94719 40.5491 7.30863C40.9105 7.67006 41.1135 8.16027 41.1135 8.67141Z" fill="#1E1E1E"/>
<path d="M71.468 82.8722H70.5044C69.6099 82.8722 68.752 82.5169 68.1195 81.8844C67.487 81.2519 67.1317 80.394 67.1317 79.4995C67.1317 78.605 67.487 77.7471 68.1195 77.1146C68.752 76.4821 69.6099 76.1268 70.5044 76.1268H75.8044C76.06 76.1268 76.3051 76.0253 76.4858 75.8445C76.6665 75.6638 76.768 75.4187 76.768 75.1631C76.768 74.9076 76.6665 74.6625 76.4858 74.4817C76.3051 74.301 76.06 74.1995 75.8044 74.1995H71.9498V72.2722C71.9498 72.0167 71.8483 71.7716 71.6676 71.5908C71.4869 71.4101 71.2418 71.3086 70.9862 71.3086C70.7306 71.3086 70.4855 71.4101 70.3048 71.5908C70.1241 71.7716 70.0226 72.0167 70.0226 72.2722V74.1995C68.6169 74.2634 67.2942 74.8831 66.3455 75.9222C65.3967 76.9613 64.8996 78.3348 64.9635 79.7404C65.0274 81.1461 65.647 82.4688 66.6862 83.4175C67.7253 84.3663 69.0987 84.8634 70.5044 84.7995H71.468C72.3625 84.7995 73.2204 85.1548 73.8529 85.7873C74.4854 86.4199 74.8408 87.2777 74.8408 88.1722C74.8408 89.0667 74.4854 89.9246 73.8529 90.5571C73.2204 91.1896 72.3625 91.545 71.468 91.545H66.168C65.9125 91.545 65.6674 91.6465 65.4866 91.8272C65.3059 92.0079 65.2044 92.253 65.2044 92.5086C65.2044 92.7642 65.3059 93.0093 65.4866 93.19C65.6674 93.3707 65.9125 93.4722 66.168 93.4722H70.0226V95.3995C70.0226 95.6551 70.1241 95.9002 70.3048 96.0809C70.4855 96.2616 70.7306 96.3631 70.9862 96.3631C71.2418 96.3631 71.4869 96.2616 71.6676 96.0809C71.8483 95.9002 71.9498 95.6551 71.9498 95.3995V93.4722C73.3555 93.4083 74.6782 92.7887 75.627 91.7495C76.5757 90.7104 77.0728 89.337 77.0089 87.9313C76.945 86.5257 76.3254 85.203 75.2863 84.2542C74.2471 83.3055 72.8737 82.8083 71.468 82.8722Z" fill="white"/>
<path d="M50.7504 50.1074H27.6231C25.4943 50.1074 23.7686 51.8332 23.7686 53.962V79.0165C23.7686 81.1453 25.4943 82.8711 27.6231 82.8711H50.7504C52.8792 82.8711 54.6049 81.1453 54.6049 79.0165V53.962C54.6049 51.8332 52.8792 50.1074 50.7504 50.1074Z" fill="#1E1E1E"/>
<path d="M39.6682 65.5265H38.7046C37.8101 65.5265 36.9522 65.1712 36.3197 64.5387C35.6872 63.9062 35.3319 63.0483 35.3319 62.1538C35.3319 61.2593 35.6872 60.4014 36.3197 59.7689C36.9522 59.1364 37.8101 58.7811 38.7046 58.7811H44.0046C44.2602 58.7811 44.5053 58.6795 44.686 58.4988C44.8667 58.3181 44.9682 58.073 44.9682 57.8174C44.9682 57.5619 44.8667 57.3168 44.686 57.136C44.5053 56.9553 44.2602 56.8538 44.0046 56.8538H40.15V54.9265C40.15 54.671 40.0485 54.4258 39.8678 54.2451C39.6871 54.0644 39.442 53.9629 39.1864 53.9629C38.9308 53.9629 38.6857 54.0644 38.505 54.2451C38.3243 54.4258 38.2228 54.671 38.2228 54.9265V56.8538C36.8171 56.9177 35.4944 57.5374 34.5457 58.5765C33.5969 59.6156 33.0998 60.9891 33.1637 62.3947C33.2276 63.8004 33.8472 65.1231 34.8864 66.0718C35.9255 67.0206 37.2989 67.5177 38.7046 67.4538H39.6682C40.5627 67.4538 41.4206 67.8091 42.0531 68.4416C42.6856 69.0742 43.041 69.932 43.041 70.8265C43.041 71.721 42.6856 72.5789 42.0531 73.2114C41.4206 73.8439 40.5627 74.1993 39.6682 74.1993H34.3682C34.1127 74.1993 33.8675 74.3008 33.6868 74.4815C33.5061 74.6622 33.4046 74.9073 33.4046 75.1629C33.4046 75.4185 33.5061 75.6636 33.6868 75.8443C33.8675 76.025 34.1127 76.1265 34.3682 76.1265H38.2228V78.0538C38.2228 78.3094 38.3243 78.5545 38.505 78.7352C38.6857 78.9159 38.9308 79.0174 39.1864 79.0174C39.442 79.0174 39.6871 78.9159 39.8678 78.7352C40.0485 78.5545 40.15 78.3094 40.15 78.0538V76.1265C41.5557 76.0626 42.8784 75.443 43.8272 74.4038C44.7759 73.3647 45.273 71.9913 45.2091 70.5856C45.1452 69.18 44.5256 67.8573 43.4865 66.9085C42.4473 65.9597 41.0739 65.4626 39.6682 65.5265Z" fill="white"/>
<path d="M34.3686 85.7637H24.7322C24.2 85.7637 23.7686 86.1951 23.7686 86.7273C23.7686 87.2595 24.2 87.6909 24.7322 87.6909H34.3686C34.9008 87.6909 35.3322 87.2595 35.3322 86.7273C35.3322 86.1951 34.9008 85.7637 34.3686 85.7637Z" fill="white"/>
<path d="M34.3686 90.582H24.7322C24.2 90.582 23.7686 91.0135 23.7686 91.5457C23.7686 92.0779 24.2 92.5093 24.7322 92.5093H34.3686C34.9008 92.5093 35.3322 92.0779 35.3322 91.5457C35.3322 91.0135 34.9008 90.582 34.3686 90.582Z" fill="white"/>
</svg>
