<svg width="107" height="107" viewBox="0 0 151 107" fill="none" xmlns="http://www.w3.org/2000/svg">
<path d="M138.573 46.6171H94.4629C87.7978 46.6171 82.3949 52.5547 82.3949 59.8792C82.3949 67.2036 87.7978 73.1416 94.4629 73.1416H138.573C145.238 73.1416 150.641 67.2037 150.641 59.8793C150.641 52.5549 145.238 46.6171 138.573 46.6171ZM47.2936 38.5245H62.486C69.151 38.5245 74.554 32.5868 74.554 25.2623C74.554 17.9377 69.151 12 62.486 12H47.2936C40.6285 12 35.2256 17.9377 35.2256 25.2623C35.2256 32.5868 40.6285 38.5245 47.2936 38.5245ZM67.0709 80.4755H42.7089C36.0436 80.4755 30.6406 86.4132 30.6406 93.7377C30.6406 101.062 36.0436 107 42.7089 107H67.0709C73.7357 107 79.139 101.062 79.139 93.7377C79.139 86.4132 73.7357 80.4755 67.0709 80.4755Z" fill="#FF5859" fill-opacity="0.2"/>
<path d="M86.8559 4.37982C87.8329 4.37982 88.6249 3.5878 88.6249 2.61081C88.6249 1.63381 87.8329 0.841797 86.8559 0.841797C85.8789 0.841797 85.0869 1.63381 85.0869 2.61081C85.0869 3.5878 85.8789 4.37982 86.8559 4.37982Z" fill="#FEF2D8"/>
<path d="M122.254 20.1602H54.2516C52.2939 20.1602 50.707 21.7471 50.707 23.7046V92.2022C50.707 99.215 56.3921 104.9 63.4049 104.9H113.101C120.114 104.9 125.799 99.215 125.799 92.2022V23.7046C125.799 21.7471 124.212 20.1602 122.254 20.1602Z" fill="white"/>
<path d="M125.799 37.9055V23.7048C125.799 21.7471 124.212 20.1602 122.254 20.1602H54.2516C52.294 20.1602 50.707 21.7471 50.707 23.7048V37.9055H125.799Z" fill="#FF5859"/>
<path d="M65.6984 10.6016C63.6877 10.6016 62.0576 12.2316 62.0576 14.2421V26.8917C62.0576 28.9022 63.6877 30.5322 65.6984 30.5322C67.7089 30.5322 69.3388 28.9022 69.3388 26.8917V14.2421C69.3388 12.2316 67.7089 10.6016 65.6984 10.6016ZM80.7348 10.6016C78.7242 10.6016 77.0945 12.2316 77.0945 14.2421V26.8917C77.0945 28.9022 78.7242 30.5322 80.7348 30.5322C82.7454 30.5322 84.3752 28.9022 84.3752 26.8917V14.2421C84.3752 12.2316 82.7454 10.6016 80.7348 10.6016ZM95.7713 10.6016C93.761 10.6016 92.1309 12.2316 92.1309 14.2421V26.8917C92.1309 28.9022 93.761 30.5322 95.7713 30.5322C97.7823 30.5322 99.4119 28.9022 99.4119 26.8917V14.2421C99.4119 12.2316 97.7823 10.6016 95.7713 10.6016ZM110.808 10.6016C108.797 10.6016 107.167 12.2316 107.167 14.2421V26.8917C107.167 28.9022 108.797 30.5322 110.808 30.5322C112.819 30.5322 114.448 28.9022 114.448 26.8917V14.2421C114.448 12.2316 112.819 10.6016 110.808 10.6016Z" fill="white"/>
<path d="M137.212 94.8592C133.928 94.8592 131.266 92.1969 131.266 88.913V40.2712L137.212 27.1133L143.158 40.2712V88.913C143.158 92.1969 140.496 94.8592 137.212 94.8592Z" fill="white"/>
<path d="M131.266 80.0781V88.9129C131.266 92.1969 133.928 94.8592 137.212 94.8592C140.496 94.8592 143.158 92.1969 143.158 88.9129V80.0781H131.266Z" fill="#FF5859"/>
<path d="M122.254 18.6957H115.178V14.2366C115.178 11.8243 113.219 9.86523 110.806 9.86523C108.394 9.86523 106.435 11.8243 106.435 14.2366V18.6957H100.148V14.2366C100.148 11.8243 98.175 9.86523 95.7772 9.86523C93.3649 9.86523 91.4059 11.8243 91.4059 14.2366V18.6957H85.1045V14.2366C85.1045 11.8243 83.1458 9.86523 80.7336 9.86523C78.321 9.86523 76.3618 11.8243 76.3618 14.2366V18.6957H70.0756V14.2366C70.0756 11.8243 68.1017 9.86523 65.7039 9.86523C63.2918 9.86523 61.3329 11.8243 61.3329 14.2366V18.6957H54.2567C51.4938 18.6957 49.2422 20.9471 49.2422 23.7103V37.9062V92.2046C49.2422 100.012 55.6017 106.357 63.4089 106.357H113.102C120.909 106.357 127.254 100.012 127.254 92.2046V37.9062V23.7103C127.254 20.9471 125.017 18.6957 122.254 18.6957ZM107.897 14.2366C107.897 12.643 109.198 11.3272 110.806 11.3272C112.415 11.3272 113.716 12.643 113.716 14.2366C113.716 18.9596 113.716 22.4548 113.716 26.8974C113.716 28.491 112.415 29.8068 110.806 29.8068C109.198 29.8068 107.897 28.491 107.897 26.8974C107.897 21.0226 107.897 18.0299 107.897 14.2366ZM92.8679 14.2366C92.8679 12.643 94.1692 11.3272 95.7772 11.3272C97.3708 11.3272 98.6864 12.643 98.6864 14.2366C98.6864 14.5648 98.6864 27.1488 98.6864 26.8974C98.6864 28.491 97.3708 29.8068 95.7772 29.8068C94.1692 29.8068 92.8679 28.491 92.8679 26.8974C92.8679 21.0226 92.8679 18.0299 92.8679 14.2366ZM77.8238 14.2366C77.8238 12.643 79.1253 11.3272 80.7336 11.3272C82.3415 11.3272 83.6426 12.643 83.6426 14.2366C83.6426 14.5648 83.6426 27.1488 83.6426 26.8974C83.6426 28.491 82.3415 29.8068 80.7336 29.8068C79.1253 29.8068 77.8238 28.491 77.8238 26.8974C77.8238 21.0226 77.8238 18.0299 77.8238 14.2366ZM62.7948 14.2366C62.7948 12.643 64.0959 11.3272 65.7039 11.3272C67.2976 11.3272 68.6136 12.643 68.6136 14.2366C68.6136 14.5648 68.6136 27.1488 68.6136 26.8974C68.6136 28.491 67.2976 29.8068 65.7039 29.8068C64.0959 29.8068 62.7948 28.491 62.7948 26.8974C62.7948 21.0226 62.7948 18.0299 62.7948 14.2366ZM52.1662 23.7103C52.1662 22.5553 53.1017 21.6196 54.2567 21.6196H61.3329V26.8974C61.3329 29.2951 63.2918 31.2688 65.7039 31.2688C68.1017 31.2688 70.0756 29.2951 70.0756 26.8974V21.6196H76.3618V26.8974C76.3618 29.2951 78.321 31.2688 80.7336 31.2688C83.1458 31.2688 85.1045 29.2951 85.1045 26.8974V21.6196H91.4059V26.8974C91.4059 29.2951 93.3649 31.2688 95.7772 31.2688C98.175 31.2688 100.148 29.2951 100.148 26.8974V21.6196H106.435V26.8974C106.435 29.2951 108.394 31.2688 110.806 31.2688C113.219 31.2688 115.178 29.2951 115.178 26.8974V21.6196H122.254C123.409 21.6196 124.33 22.5553 124.33 23.7103V36.4442H52.1662V23.7103ZM113.102 103.433H63.4089C57.21 103.433 52.1662 98.4034 52.1662 92.2046V39.3682H124.33V92.2046C124.33 98.4034 119.301 103.433 113.102 103.433ZM138.072 26.722C137.765 26.0349 136.655 26.0349 136.347 26.722C130.205 40.3152 130.31 39.9939 130.31 40.2747C130.31 57.0436 130.31 79.3436 130.31 88.9151C130.31 92.7163 133.409 95.8157 137.21 95.8157C141.011 95.8157 144.111 92.7163 144.111 88.9151C144.111 77.6952 144.111 57.3863 144.111 40.2747C144.111 39.9522 144.129 40.1475 138.072 26.722ZM132.21 41.2204H136.261V58.4231C136.261 58.9477 136.687 59.3733 137.212 59.3733C137.736 59.3733 138.162 58.9477 138.162 58.4231V41.2204H142.21V79.1344H132.21V41.2204ZM137.21 29.4267L141.682 39.3202H132.738L137.21 29.4267ZM142.21 88.9151C142.21 90.2894 141.655 91.5467 140.748 92.4531C139.842 93.3596 138.584 93.9151 137.21 93.9151C134.462 93.9151 132.21 91.6637 132.21 88.9151V81.0204H142.21V88.9151Z" fill="#010101"/>
<path d="M30.7018 62.4767H48.2457C49.1229 62.4767 49.7077 61.8919 49.7077 61.0147C49.7077 60.1375 49.1229 59.5527 48.2457 59.5527H30.7018C29.8246 59.5527 29.2398 60.1375 29.2398 61.0147C29.2398 61.8919 29.8246 62.4767 30.7018 62.4767ZM16.0819 62.4767H24.8539C25.731 62.4767 26.3158 61.8919 26.3158 61.0147C26.3158 60.1375 25.731 59.5527 24.8539 59.5527H16.0819C15.2047 59.5527 14.6199 60.1375 14.6199 61.0147C14.6199 61.8919 15.2047 62.4767 16.0819 62.4767ZM16.0819 74.1726H39.4738C40.351 74.1726 40.9358 73.5879 40.9358 72.7107C40.9358 71.8335 40.351 71.2487 39.4738 71.2487H16.0819C15.2047 71.2487 14.6199 71.8335 14.6199 72.7107C14.6199 73.5879 15.2047 74.1726 16.0819 74.1726ZM11.6959 72.7107C11.6959 71.8335 11.1111 71.2487 10.2339 71.2487H1.46199C0.584796 71.2487 0 71.8335 0 72.7107C0 73.5879 0.584796 74.1726 1.46199 74.1726H10.2339C11.1111 74.1726 11.6959 73.5879 11.6959 72.7107ZM38.0118 84.4066C38.0118 83.5294 37.427 82.9446 36.5498 82.9446H10.2339C9.35674 82.9446 8.77195 83.5294 8.77195 84.4066C8.77195 85.2838 9.35674 85.8686 10.2339 85.8686H36.5498C37.427 85.8686 38.0118 85.2838 38.0118 84.4066ZM39.4738 94.6405H30.7018C29.8246 94.6405 29.2398 95.2253 29.2398 96.1025C29.2398 96.9797 29.8246 97.5645 30.7018 97.5645H39.4738C40.351 97.5645 40.9358 96.9797 40.9358 96.1025C40.9358 95.2253 40.351 94.6405 39.4738 94.6405ZM26.3158 96.1025C26.3158 95.2253 25.731 94.6405 24.8539 94.6405H19.0059C18.1287 94.6405 17.5439 95.2253 17.5439 96.1025C17.5439 96.9797 18.1287 97.5645 19.0059 97.5645H24.8539C25.731 97.5645 26.3158 96.9797 26.3158 96.1025Z" fill="#FF5859"/>
<path d="M113.304 55.168L83.5771 84.8931L68.7139 70.0312" stroke="#FF5859" stroke-width="2.92398" stroke-linecap="round" stroke-linejoin="round"/>
</svg>
