<svg width="158" height="115" viewBox="0 0 158 115" fill="none" xmlns="http://www.w3.org/2000/svg">
<path d="M79 94.52C105.014 94.52 126.103 73.361 126.103 47.26C126.103 21.159 105.014 0 79 0C52.9857 0 31.897 21.159 31.897 47.26C31.897 73.361 52.9857 94.52 79 94.52Z" fill="#0057FF"/>
<path d="M118.173 15.4707H40.3394C38.8942 15.4707 37.7227 16.6461 37.7227 18.0961V85.9799C37.7227 87.4299 38.8942 88.6054 40.3394 88.6054H118.173C119.618 88.6054 120.79 87.4299 120.79 85.9799V18.0961C120.79 16.6461 119.618 15.4707 118.173 15.4707Z" fill="white"/>
<path d="M114.326 20.0547H44.2758C43.0928 20.0547 42.1338 21.0169 42.1338 22.2038V43.1152C42.1338 44.3021 43.0928 45.2643 44.2758 45.2643H114.326C115.509 45.2643 116.468 44.3021 116.468 43.1152V22.2038C116.468 21.0169 115.509 20.0547 114.326 20.0547Z" fill="#EDF1F1"/>
<path d="M82.1443 75.8717C82.0159 75.6439 81.9333 75.4069 81.9609 75.14C81.9012 74.5026 81.4219 74.5878 81.0022 74.5878C78.3832 74.5855 75.7665 74.5786 73.1475 74.5924C72.6545 74.5947 72.1798 74.5441 71.7119 74.4014C71.9802 74.0977 72.3403 74.2242 72.6591 74.2242C75.3698 74.215 78.0805 74.2196 80.7936 74.2173C81.1811 74.2173 81.6421 74.314 81.5939 73.6697C81.8393 72.9265 81.5343 72.3259 80.8968 72.4248C78.9084 72.7355 76.9132 72.4893 74.9226 72.5606C73.8401 72.5997 72.7439 72.655 71.7119 72.1994C71.9802 71.8956 72.338 72.0222 72.6568 72.0199C75.3308 72.0084 78.0071 72.013 80.6812 72.0107C81.0619 72.0015 81.4357 71.99 81.0504 71.463C81.0504 71.279 81.0504 71.0972 81.0504 70.9131C81.6283 70.6071 81.6306 70.301 81.0504 69.995C81.0481 69.5624 81.0458 69.1298 81.0412 68.6972C80.9862 65.2987 81.821 62.1164 83.2841 59.0699C84.3092 56.9369 85.7059 55.08 87.2333 53.3013C88.2721 52.5121 89.1253 51.5135 90.2054 50.7518C93.29 48.5797 96.6176 47.0956 100.392 46.663C103.069 46.3546 105.695 46.5042 108.35 46.9828C111.96 47.634 115.006 49.3298 117.87 51.5227C118.884 52.2981 119.567 53.4417 120.739 54.0169C120.89 54.9419 121.633 55.4942 122.136 56.1868C122.954 57.312 123.372 58.6695 124.257 59.7487C124.773 61.6079 125.546 63.3981 125.745 65.3424C125.764 65.5173 125.927 65.5656 126.083 65.5886V72.3834C125.75 72.411 125.757 72.6503 125.711 72.9058C124.963 77.0475 123.202 80.6808 120.432 83.8654C117.723 86.9786 114.412 89.1254 110.545 90.4531C107.685 91.4333 104.725 91.6082 101.734 91.4816C101.601 90.9616 101.321 91.0468 101 91.3045C100.757 91.3045 100.514 91.2999 100.271 91.2976C100.195 90.9041 100.021 90.8167 99.7205 91.1181C97.4593 91.0191 95.4457 90.1563 93.4964 89.0978C93.3863 88.709 93.2166 88.4328 92.7648 88.7297C92.2236 88.5111 91.6824 88.2879 91.2994 87.8116C91.2833 87.4365 91.0173 87.4388 90.749 87.4434C89.0221 86.385 87.497 85.1033 86.3549 83.4052C86.3733 83.0071 86.2838 82.6919 85.8045 82.6689C85.8481 82.2593 85.6646 82.0752 85.2587 82.1166C85.1968 81.9947 85.1349 81.8727 85.0752 81.7508C85.05 81.3504 85.05 80.9316 84.5248 80.8327C84.5294 80.5634 84.534 80.2965 84.1579 80.2804C83.3185 79.2565 82.8644 78.0485 82.509 76.7921C82.6924 76.3641 82.6145 76.0397 82.1466 75.8717H82.1443Z" fill="#ECF0F1"/>
<path d="M117.573 83.2483C118.22 82.9676 118.516 82.3302 118.938 81.8378C123.089 76.9919 124.281 71.2786 123.24 65.158C122.261 59.4101 119.087 54.9784 114.147 51.8375C109.765 49.0533 104.969 48.2917 99.9559 49.1086C95.0436 49.9093 90.9981 52.3829 87.8493 56.2853C85.3817 59.3434 83.8475 62.8409 83.4668 66.7249C83.0952 70.5308 83.664 74.2354 85.4069 77.7398C87.8654 82.6777 91.6609 86.0532 96.7727 87.9907C98.612 88.6879 100.518 89.0008 102.49 89.1228C103.999 89.2148 105.453 89.2056 106.889 88.7155C107.022 88.7661 107.125 88.8213 107.301 88.7891C109.719 88.3427 111.968 87.4476 114.044 86.1499C115.337 85.3422 116.672 84.5461 117.576 83.246L117.573 83.2483Z" fill="#ECF0F1"/>
<path d="M51.849 68.7423C48.9204 68.7423 45.9895 68.7239 43.0609 68.7561C42.4073 68.763 42.1688 68.6273 42.1734 67.9094C42.2078 63.3189 42.2055 58.7261 42.1734 54.1356C42.1688 53.4384 42.3684 53.2751 43.0449 53.2774C48.9342 53.305 54.8235 53.3027 60.7105 53.2774C61.3572 53.2751 61.6095 53.3878 61.6049 54.1172C61.5705 58.7077 61.5728 63.3005 61.6049 67.891C61.6095 68.5882 61.4077 68.7653 60.7289 68.7561C57.7705 68.7193 54.8097 68.74 51.849 68.74V68.7423Z" fill="#0057FF"/>
<path d="M87.2304 53.3092C85.703 55.0856 84.3041 56.9448 83.2812 59.0778C81.8181 62.1266 80.9833 65.3089 81.0383 68.7052C77.4103 68.7167 73.7845 68.7167 70.1564 68.7466C69.6106 68.7512 69.5005 68.5349 69.5028 68.0448C69.5166 63.3646 69.5189 58.6866 69.5005 54.0064C69.4982 53.4473 69.6542 53.277 70.2206 53.2793C75.8898 53.3046 81.5612 53.3023 87.2327 53.3069L87.2304 53.3092Z" fill="#FAD24D"/>
<path d="M51.9356 72.9295C49.711 72.9295 47.4865 72.9364 45.2643 72.9226C44.9386 72.9226 44.4662 73.0929 44.4409 72.4946C44.4157 71.8964 44.8721 72.016 45.2161 72.0137C49.695 72.0091 54.1739 72.0091 58.6505 72.0137C58.9922 72.0137 59.4486 71.8941 59.4279 72.49C59.4073 73.0883 58.9349 72.9203 58.6069 72.9203C56.3824 72.9318 54.1601 72.9272 51.9356 72.9272V72.9295Z" fill="#EDF1F1"/>
<path d="M59.0724 74.2152C59.4623 74.2635 59.4646 74.5442 59.4141 74.8273C59.3407 75.2207 59.0105 75.131 58.7559 75.131C54.1967 75.1356 49.6353 75.131 45.0761 75.1356C44.2918 75.1356 44.2895 74.7628 44.6106 74.2129C49.4312 74.2129 54.2518 74.2129 59.0724 74.2129V74.2152Z" fill="#EDF1F1"/>
<path d="M82.1425 75.8675C82.6104 76.0378 82.6883 76.3599 82.5049 76.7879C82.2939 77.1929 82.0049 77.3586 81.5073 77.3517C78.5282 77.3195 75.5492 77.3402 72.5724 77.3287C72.2215 77.3287 71.6964 77.5104 71.7216 76.8432C71.7445 76.2472 72.2261 76.4267 72.5495 76.4244C75.5583 76.4129 78.5672 76.4152 81.5761 76.4198C81.9682 76.4198 82.3421 76.452 82.1425 75.8652V75.8675Z" fill="#EDF1F1"/>
<path d="M49.6724 77.3301C48.1818 77.3301 46.6934 77.3347 45.2027 77.3278C44.8564 77.3278 44.4138 77.4336 44.439 76.8377C44.4597 76.3061 44.8679 76.4166 45.1798 76.4166C47.9777 76.4097 50.7732 76.4143 53.5711 76.412C53.8738 76.412 54.1834 76.4281 54.4793 76.3775C54.7797 76.3268 55.1444 76.1451 55.1466 76.6375C55.1466 76.9826 55.0297 77.3485 54.5068 77.3393C53.2615 77.314 52.0139 77.3324 50.7664 77.3324C50.4017 77.3324 50.0371 77.3324 49.6724 77.3324V77.3301Z" fill="#ECF0F1"/>
<path d="M71.7078 74.4004C72.1757 74.5408 72.6504 74.5937 73.1435 74.5914C75.7625 74.5776 78.3792 74.5845 80.9982 74.5868C81.4178 74.5868 81.8971 74.5016 81.9568 75.139C78.8057 75.139 75.6547 75.1275 72.5036 75.1459C71.9509 75.1482 71.6092 75.0447 71.7078 74.4027V74.4004Z" fill="#EDF1F1"/>
<path d="M59.0702 74.2146C54.2496 74.2146 49.429 74.2146 44.6084 74.2146C44.6749 73.7613 45.0281 73.8534 45.317 73.8534C49.6652 73.8488 54.0157 73.8488 58.3639 73.8534C58.6528 73.8534 59.006 73.7613 59.0725 74.2146H59.0702Z" fill="#FDFEFE"/>
<path d="M71.7078 72.1953C72.7398 72.6509 73.836 72.5957 74.9185 72.5566C76.9091 72.4852 78.9043 72.7314 80.8927 72.4208C81.5302 72.3219 81.8352 72.9224 81.5898 73.6656C81.411 73.0697 81.0326 72.9017 80.4042 72.9109C77.7714 72.9523 75.1364 72.9178 72.5036 72.9385C71.9509 72.9431 71.6092 72.8373 71.7078 72.1953Z" fill="#EDF1F1"/>
<path d="M44.4155 78.8126C44.3941 78.7989 44.3726 78.7872 44.3511 78.7734C44.3745 78.7852 44.396 78.795 44.4194 78.8068L44.4136 78.8126H44.4155Z" fill="#FDFEFE"/>
<path d="M106.887 88.7155C105.451 89.2056 104 89.2148 102.488 89.1228C100.516 89.0031 98.6125 88.6902 96.771 87.9907C91.6591 86.0532 87.8659 82.6777 85.4052 77.7398C83.6599 74.2354 83.0935 70.5308 83.465 66.7249C83.8434 62.8409 85.38 59.3411 87.8476 56.2853C90.9963 52.3829 95.0418 49.9093 99.9542 49.1086C104.965 48.2917 109.763 49.0533 114.145 51.8375C119.088 54.9761 122.262 59.4078 123.238 65.158C124.28 71.2809 123.089 76.9919 118.936 81.8378C118.514 82.3302 118.218 82.9676 117.572 83.2483C117.186 82.7697 117.406 81.8885 116.563 81.7113C116.361 81.3247 116.248 80.9105 116.164 80.4825C116.095 80.1328 115.939 79.8015 115.471 79.8682C115.386 79.6427 115.299 79.4172 115.214 79.1917C114.882 78.3196 114.535 77.5097 115.051 76.5133C115.326 75.9818 115.437 75.234 115.251 74.5621C114.194 70.7517 113.26 66.9044 111.953 63.1653C111.733 62.5348 111.182 62.1874 110.582 62.146C110.047 62.1068 109.593 62.4221 109.258 62.9352C108.903 63.4759 109.249 63.92 109.3 64.4009C109.316 64.5597 109.54 64.7277 109.249 64.8289C109.04 64.9026 108.928 64.7898 108.848 64.585C108.683 64.1708 108.495 63.7659 108.302 63.3632C107.965 62.6568 106.986 62.2633 106.281 62.6844C105.697 63.0364 105.38 63.6048 105.685 64.3986C105.843 64.8128 106.254 65.1994 106.045 65.816C105.401 65.273 105.371 64.4953 105.052 63.8786C104.639 63.0779 103.848 62.6062 103.158 62.8455C102.438 63.094 102.108 63.92 102.383 64.8381C102.479 65.1557 102.651 65.4525 102.736 65.7723C102.809 66.0461 103.089 66.3154 102.858 66.6881C102.507 66.4097 102.406 66.053 102.296 65.7263C101.521 63.4529 100.773 61.1703 100 58.897C99.867 58.5058 99.8028 58.0502 99.3464 57.8546L99.3533 57.8592C98.8121 57.3415 98.2135 57.3231 97.6287 57.7327C97.0508 58.1353 96.8765 58.6646 97.131 59.3871C98.1883 62.3899 99.2203 65.4019 100.227 68.4231C100.624 69.6173 100.865 70.8483 100.796 72.1806C100.495 72.1023 100.255 72.0747 100.044 71.9781C98.7845 71.4074 97.5415 70.8 96.2091 70.418C95.2413 70.1419 94.5441 70.4019 94.2965 71.1106C94.0603 71.7825 94.3492 72.3117 94.8515 72.7121C96.6059 74.1111 98.3373 75.5423 100.154 76.8562C101.752 78.0136 103.247 79.3712 105.227 79.9142C105.559 80.0062 105.722 80.3031 105.784 80.6781C105.908 81.4444 106.034 82.2152 106.369 82.9285C106.038 83.0574 105.607 83.1678 105.791 83.6395C105.99 84.1526 105.976 84.7394 106.332 85.1927C105.96 85.478 106.144 85.8277 106.229 86.1614C106.444 87.0128 106.797 87.8273 106.885 88.7109L106.887 88.7155ZM103.589 59.1202C105.089 58.4966 106.625 57.8707 108.148 57.2149C108.412 57.1022 108.375 56.7778 108.277 56.5592C108.169 56.3176 107.917 56.3751 107.715 56.4533C107.151 56.6719 106.591 56.902 106.032 57.1321C105.169 57.4888 104.305 57.8477 103.447 58.2159C103.181 58.3286 102.952 58.5081 103.048 58.8417C103.114 59.0718 103.316 59.157 103.591 59.1202H103.589ZM98.069 56.1657C97.6975 54.4814 97.0301 52.9213 96.5417 51.3014C96.4706 51.0667 96.2366 51 96.0096 51.0828C95.7436 51.1818 95.6289 51.4072 95.7115 51.6742C96.1908 53.1974 96.677 54.7184 97.1746 56.2347C97.2778 56.5477 97.5507 56.6029 97.8489 56.5638C98.1218 56.5269 98.0438 56.3038 98.0667 56.1657H98.069ZM94.8308 61.3682C93.48 61.9044 91.9091 62.4957 90.4115 63.2619C90.2006 63.3701 90.1226 63.6255 90.2579 63.8142C90.3863 63.9914 90.6569 63.9983 90.8519 63.9269C92.3471 63.3747 93.8263 62.7879 95.2436 62.0516C95.411 61.9642 95.6656 61.8192 95.6014 61.5822C95.5395 61.3498 95.2849 61.336 94.8285 61.3705L94.8308 61.3682ZM101.644 56.5592C101.94 56.4993 102.048 56.3153 102.117 56.0529C102.369 55.0658 102.617 54.0741 102.922 53.1008C103.036 52.7372 103.013 52.4749 102.667 52.3691C102.33 52.2655 102.19 52.5485 102.105 52.827C101.8 53.8325 101.484 54.8334 101.209 55.8482C101.115 56.1933 101.19 56.5293 101.647 56.5592H101.644ZM91.9894 56.3544C91.6385 56.4303 91.377 56.3199 91.3151 56.6259C91.2738 56.8353 91.3908 56.9894 91.5513 57.0792C92.5489 57.6452 93.5443 58.2113 94.5579 58.7474C94.762 58.8556 95.0303 58.844 95.2161 58.607C95.3308 58.4598 95.3399 58.3286 95.2023 58.2136C94.2024 57.3737 93.0282 56.8606 91.9871 56.3544H91.9894Z" fill="#0057FF"/>
<path d="M106.887 88.7347C106.8 87.8511 106.447 87.0365 106.231 86.1852C106.146 85.8515 105.963 85.5041 106.334 85.2165C109.77 84.1281 113.205 83.0397 116.565 81.7305C117.409 81.9076 117.186 82.7866 117.574 83.2675C116.67 84.5676 115.336 85.3614 114.042 86.1714C111.967 87.4691 109.717 88.3619 107.3 88.8106C107.123 88.8428 107.02 88.7853 106.887 88.737V88.7347Z" fill="#FE5C63"/>
<path d="M95.15 15.6505C88.8983 15.6505 82.6444 15.6505 76.3927 15.6505C76.09 15.6505 75.7529 15.5953 75.4891 15.7057C74.9961 15.9128 74.5695 15.8484 74.276 15.4526C73.9434 15.0086 74.0352 14.4655 74.1751 13.9593C74.2347 13.7407 74.3929 13.6049 74.6452 13.6119C74.8585 13.6188 75.0718 13.598 75.285 13.598C88.1874 13.598 101.087 13.598 113.99 13.5957C114.63 13.5957 115.237 13.575 115.281 14.4747C115.329 15.4987 115.217 15.6459 114.182 15.6482C107.839 15.6505 101.493 15.6482 95.15 15.6482V15.6505Z" fill="white"/>
<path d="M106.367 82.9336C106.032 82.2203 105.906 81.4495 105.782 80.6832C105.721 80.3082 105.558 80.0113 105.225 79.9193C103.246 79.374 101.751 78.0187 100.152 76.8613C98.3359 75.5474 96.6045 74.1162 94.8501 72.7172C94.3478 72.3168 94.0589 71.7876 94.2951 71.1157C94.545 70.407 95.2399 70.147 96.2077 70.4231C97.5401 70.8051 98.7831 71.4125 100.042 71.9832C100.253 72.0798 100.494 72.1074 100.794 72.1857C100.863 70.8534 100.622 69.6201 100.226 68.4282C99.2189 65.407 98.1869 62.395 97.1296 59.3922C96.8751 58.6697 97.0494 58.1404 97.6273 57.7378C98.2121 57.3282 98.813 57.3466 99.3519 57.8643C99.1707 57.8643 98.9873 57.8643 98.8061 57.8643C98.2832 57.8735 97.8222 58.0254 97.6433 58.5684C97.4851 59.047 97.7305 59.4934 97.9874 59.8455C98.3405 60.331 98.7579 59.8455 99.1386 59.7718C99.7762 59.6545 99.8954 59.2863 99.5904 58.7203C99.4505 58.4603 99.2808 58.1842 99.3473 57.8551C99.8037 58.0507 99.8679 58.5086 100.001 58.8975C100.774 61.1708 101.521 63.4534 102.297 65.7268C102.407 66.0512 102.508 66.4102 102.858 66.6886C103.088 66.3159 102.81 66.0466 102.737 65.7728C102.652 65.453 102.478 65.1562 102.384 64.8386C102.108 63.9205 102.439 63.0945 103.159 62.846C103.851 62.6067 104.643 63.0784 105.053 63.8791C105.372 64.4981 105.402 65.2735 106.046 65.8165C106.255 65.1999 105.844 64.811 105.686 64.3991C105.381 63.6053 105.698 63.0369 106.282 62.6849C106.986 62.2615 107.963 62.6573 108.303 63.3637C108.495 63.7664 108.683 64.1713 108.849 64.5855C108.929 64.7903 109.041 64.903 109.25 64.8294C109.541 64.7282 109.316 64.5579 109.3 64.4014C109.25 63.9182 108.904 63.4764 109.259 62.9357C109.594 62.4226 110.048 62.1096 110.582 62.1465C111.183 62.1902 111.734 62.5353 111.954 63.1658C113.261 66.9026 114.194 70.7499 115.252 74.5626C115.437 75.2345 115.327 75.9823 115.052 76.5138C114.536 77.5102 114.885 78.3201 115.215 79.1922C115.3 79.4177 115.387 79.6432 115.472 79.8687C112.438 80.8903 109.404 81.9097 106.37 82.9313L106.367 82.9336ZM97.148 71.6081C97.1365 71.2722 96.0128 70.5152 95.6137 70.5796C94.9693 70.6831 94.7698 71.2354 94.6482 71.7646C94.5634 72.1328 95.772 73.0255 96.2421 72.9105C96.9118 72.7471 96.843 72.0062 97.148 71.6081Z" fill="#FED198"/>
<path d="M106.368 82.9501C109.402 81.9285 112.436 80.9092 115.47 79.8875C115.938 79.8208 116.094 80.1522 116.163 80.5019C116.248 80.9299 116.36 81.3441 116.562 81.7306C113.202 83.0399 109.764 84.1283 106.331 85.2166C105.976 84.761 105.989 84.1743 105.79 83.6635C105.606 83.1918 106.038 83.0813 106.368 82.9525V82.9501Z" fill="#FDFEFE"/>
<path d="M103.586 59.1185C103.311 59.1554 103.109 59.0702 103.043 58.8401C102.946 58.5065 103.178 58.3293 103.442 58.2143C104.302 57.8461 105.164 57.4871 106.026 57.1305C106.586 56.8981 107.146 56.6703 107.71 56.4517C107.912 56.3735 108.164 56.3182 108.272 56.5575C108.37 56.7738 108.407 57.1006 108.143 57.2133C106.62 57.8714 105.086 58.495 103.584 59.1185H103.586Z" fill="#E7EFF0"/>
<path d="M98.0657 56.1853C98.0405 56.3233 98.1184 56.5465 97.8478 56.5833C97.552 56.6225 97.2768 56.5695 97.1736 56.2543C96.6759 54.738 96.1897 53.217 95.7104 51.6937C95.6279 51.4291 95.7425 51.2013 96.0086 51.1024C96.2356 51.0196 96.4695 51.0863 96.5406 51.321C97.0291 52.9409 97.6965 54.501 98.068 56.1853H98.0657Z" fill="#E7EFF0"/>
<path d="M94.8283 61.3693C95.2846 61.3348 95.5392 61.3509 95.6011 61.581C95.6653 61.818 95.4108 61.963 95.2434 62.0504C93.8261 62.7867 92.3469 63.3735 90.8516 63.9257C90.6567 63.997 90.3861 63.9924 90.2576 63.813C90.1223 63.6243 90.2003 63.3689 90.4113 63.2607C91.9088 62.4945 93.4798 61.9031 94.8306 61.367L94.8283 61.3693Z" fill="#E7EFF0"/>
<path d="M101.643 56.5791C101.187 56.5492 101.111 56.211 101.205 55.8681C101.48 54.8557 101.799 53.8525 102.102 52.8469C102.186 52.5685 102.326 52.2855 102.663 52.389C103.01 52.4972 103.033 52.7595 102.918 53.1208C102.613 54.0918 102.365 55.0835 102.113 56.0729C102.047 56.3352 101.939 56.5216 101.641 56.5791H101.643Z" fill="#E7EFF0"/>
<path d="M91.9857 56.3555C93.0246 56.8617 94.2011 57.3748 95.201 58.2147C95.3386 58.3297 95.3294 58.4609 95.2147 58.6081C95.029 58.8474 94.7584 58.8566 94.5565 58.7485C93.5429 58.2124 92.5476 57.6463 91.55 57.0803C91.3894 56.9882 91.2702 56.8341 91.3137 56.627C91.3757 56.321 91.6371 56.4314 91.988 56.3555H91.9857Z" fill="#E7EFF0"/>
<path d="M97.1539 71.6105C96.8512 72.0109 96.9177 72.7495 96.248 72.9129C95.7779 73.0279 94.5693 72.1352 94.6542 71.767C94.7734 71.2378 94.9752 70.6855 95.6196 70.582C96.021 70.5176 97.1424 71.2746 97.1539 71.6105Z" fill="#FDFEFE"/>
<path d="M99.3521 57.8574C99.2856 58.1865 99.4553 58.4603 99.5952 58.7226C99.8979 59.2886 99.7787 59.6545 99.1434 59.7741C98.7627 59.8455 98.3453 60.3333 97.9922 59.8478C97.7353 59.4957 97.4899 59.0493 97.6482 58.5707C97.827 58.03 98.288 57.8758 98.8109 57.8666C98.9921 57.8643 99.1755 57.8666 99.3567 57.8666L99.3498 57.862L99.3521 57.8574Z" fill="#FDFEFE"/>
<path d="M40.0556 11.6191H118.46C119.726 11.6191 120.754 12.65 120.754 13.9201V17.7329H37.7622V13.9201C37.7622 12.65 38.7896 11.6191 40.0556 11.6191Z" fill="#828282"/>
<path d="M43.589 15.6817C44.1437 15.6817 44.5934 15.2305 44.5934 14.6738C44.5934 14.1172 44.1437 13.666 43.589 13.666C43.0342 13.666 42.5845 14.1172 42.5845 14.6738C42.5845 15.2305 43.0342 15.6817 43.589 15.6817Z" fill="#21D0C3"/>
<path d="M46.8717 15.6817C47.4264 15.6817 47.8762 15.2305 47.8762 14.6738C47.8762 14.1172 47.4264 13.666 46.8717 13.666C46.3169 13.666 45.8672 14.1172 45.8672 14.6738C45.8672 15.2305 46.3169 15.6817 46.8717 15.6817Z" fill="#FAD24D"/>
<path d="M50.1573 15.6817C50.7121 15.6817 51.1618 15.2305 51.1618 14.6738C51.1618 14.1172 50.7121 13.666 50.1573 13.666C49.6026 13.666 49.1528 14.1172 49.1528 14.6738C49.1528 15.2305 49.6026 15.6817 50.1573 15.6817Z" fill="#FE5C63"/>
<path d="M114.031 13.5508H75.1975C74.5858 13.5508 74.0898 14.0484 74.0898 14.6622V14.6645C74.0898 15.2783 74.5858 15.7758 75.1975 15.7758H114.031C114.642 15.7758 115.138 15.2783 115.138 14.6645V14.6622C115.138 14.0484 114.642 13.5508 114.031 13.5508Z" fill="#21D0C3"/>
<path d="M7.95 101.02H9V111.52H8.1L2.25 102.97V111.52H1.2V101.02H2.1L7.95 109.57V101.02ZM17.5303 110.575C16.7703 111.325 15.8403 111.7 14.7403 111.7C13.6403 111.7 12.7053 111.325 11.9353 110.575C11.1753 109.815 10.7953 108.88 10.7953 107.77C10.7953 106.66 11.1753 105.73 11.9353 104.98C12.7053 104.22 13.6403 103.84 14.7403 103.84C15.8403 103.84 16.7703 104.22 17.5303 104.98C18.3003 105.73 18.6853 106.66 18.6853 107.77C18.6853 108.88 18.3003 109.815 17.5303 110.575ZM12.6403 109.885C13.2103 110.455 13.9103 110.74 14.7403 110.74C15.5703 110.74 16.2703 110.455 16.8403 109.885C17.4103 109.305 17.6953 108.6 17.6953 107.77C17.6953 106.94 17.4103 106.24 16.8403 105.67C16.2703 105.09 15.5703 104.8 14.7403 104.8C13.9103 104.8 13.2103 105.09 12.6403 105.67C12.0703 106.24 11.7853 106.94 11.7853 107.77C11.7853 108.6 12.0703 109.305 12.6403 109.885ZM30.542 104.02H31.532V111.52H30.542V110.05C29.852 111.15 28.842 111.7 27.512 111.7C26.442 111.7 25.527 111.32 24.767 110.56C24.017 109.8 23.642 108.87 23.642 107.77C23.642 106.67 24.017 105.74 24.767 104.98C25.527 104.22 26.442 103.84 27.512 103.84C28.842 103.84 29.852 104.39 30.542 105.49V104.02ZM25.487 109.885C26.057 110.455 26.757 110.74 27.587 110.74C28.417 110.74 29.117 110.455 29.687 109.885C30.257 109.305 30.542 108.6 30.542 107.77C30.542 106.94 30.257 106.24 29.687 105.67C29.117 105.09 28.417 104.8 27.587 104.8C26.757 104.8 26.057 105.09 25.487 105.67C24.917 106.24 24.632 106.94 24.632 107.77C24.632 108.6 24.917 109.305 25.487 109.885ZM37.1231 111.7C35.9931 111.7 35.0531 111.325 34.3031 110.575C33.5531 109.815 33.1781 108.88 33.1781 107.77C33.1781 106.66 33.5531 105.73 34.3031 104.98C35.0531 104.22 35.9931 103.84 37.1231 103.84C37.8631 103.84 38.5281 104.02 39.1181 104.38C39.7081 104.73 40.1381 105.205 40.4081 105.805L39.5981 106.27C39.3981 105.82 39.0731 105.465 38.6231 105.205C38.1831 104.935 37.6831 104.8 37.1231 104.8C36.2931 104.8 35.5931 105.09 35.0231 105.67C34.4531 106.24 34.1681 106.94 34.1681 107.77C34.1681 108.6 34.4531 109.305 35.0231 109.885C35.5931 110.455 36.2931 110.74 37.1231 110.74C37.6831 110.74 38.1831 110.61 38.6231 110.35C39.0631 110.08 39.4081 109.72 39.6581 109.27L40.4831 109.75C40.1731 110.35 39.7181 110.825 39.1181 111.175C38.5181 111.525 37.8531 111.7 37.1231 111.7ZM45.8795 104.98H43.7195V109.525C43.7195 109.935 43.7995 110.23 43.9595 110.41C44.1195 110.58 44.3595 110.67 44.6795 110.68C44.9995 110.68 45.3995 110.67 45.8795 110.65V111.52C44.8295 111.68 44.0395 111.605 43.5095 111.295C42.9895 110.985 42.7295 110.395 42.7295 109.525V104.98H41.1545V104.02H42.7295V102.22L43.7195 101.92V104.02H45.8795V104.98ZM48.5345 102.22C48.3945 102.36 48.2245 102.43 48.0245 102.43C47.8245 102.43 47.6545 102.36 47.5145 102.22C47.3745 102.08 47.3045 101.91 47.3045 101.71C47.3045 101.51 47.3745 101.34 47.5145 101.2C47.6545 101.06 47.8245 100.99 48.0245 100.99C48.2245 100.99 48.3945 101.06 48.5345 101.2C48.6745 101.34 48.7445 101.51 48.7445 101.71C48.7445 101.91 48.6745 102.08 48.5345 102.22ZM47.5295 111.52V104.02H48.5195V111.52H47.5295ZM56.0203 104.02H57.0703L53.9953 111.52H52.7953L49.7203 104.02H50.7703L53.3953 110.485L56.0203 104.02ZM61.4388 103.84C62.5488 103.84 63.4438 104.235 64.1238 105.025C64.8138 105.805 65.1588 106.73 65.1588 107.8C65.1588 107.91 65.1488 108.065 65.1288 108.265H58.5438C58.6438 109.025 58.9638 109.63 59.5038 110.08C60.0538 110.52 60.7288 110.74 61.5288 110.74C62.0988 110.74 62.5888 110.625 62.9988 110.395C63.4188 110.155 63.7338 109.845 63.9438 109.465L64.8138 109.975C64.4838 110.505 64.0338 110.925 63.4638 111.235C62.8938 111.545 62.2438 111.7 61.5138 111.7C60.3338 111.7 59.3738 111.33 58.6338 110.59C57.8938 109.85 57.5238 108.91 57.5238 107.77C57.5238 106.65 57.8888 105.715 58.6188 104.965C59.3488 104.215 60.2888 103.84 61.4388 103.84ZM61.4388 104.8C60.6588 104.8 60.0038 105.035 59.4738 105.505C58.9538 105.965 58.6438 106.565 58.5438 107.305H64.1388C64.0388 106.515 63.7338 105.9 63.2238 105.46C62.7138 105.02 62.1188 104.8 61.4388 104.8ZM76.9336 104.02H77.9236V111.52H76.9336V110.05C76.2436 111.15 75.2336 111.7 73.9036 111.7C72.8336 111.7 71.9186 111.32 71.1586 110.56C70.4086 109.8 70.0336 108.87 70.0336 107.77C70.0336 106.67 70.4086 105.74 71.1586 104.98C71.9186 104.22 72.8336 103.84 73.9036 103.84C75.2336 103.84 76.2436 104.39 76.9336 105.49V104.02ZM71.8786 109.885C72.4486 110.455 73.1486 110.74 73.9786 110.74C74.8086 110.74 75.5086 110.455 76.0786 109.885C76.6486 109.305 76.9336 108.6 76.9336 107.77C76.9336 106.94 76.6486 106.24 76.0786 105.67C75.5086 105.09 74.8086 104.8 73.9786 104.8C73.1486 104.8 72.4486 105.09 71.8786 105.67C71.3086 106.24 71.0236 106.94 71.0236 107.77C71.0236 108.6 71.3086 109.305 71.8786 109.885ZM86.4697 101.02H87.4597V111.52H86.4697V110.05C85.7797 111.15 84.7697 111.7 83.4397 111.7C82.3697 111.7 81.4547 111.32 80.6947 110.56C79.9447 109.8 79.5697 108.87 79.5697 107.77C79.5697 106.67 79.9447 105.74 80.6947 104.98C81.4547 104.22 82.3697 103.84 83.4397 103.84C84.7697 103.84 85.7797 104.39 86.4697 105.49V101.02ZM81.4147 109.885C81.9847 110.455 82.6847 110.74 83.5147 110.74C84.3447 110.74 85.0447 110.455 85.6147 109.885C86.1847 109.305 86.4697 108.6 86.4697 107.77C86.4697 106.94 86.1847 106.24 85.6147 105.67C85.0447 105.09 84.3447 104.8 83.5147 104.8C82.6847 104.8 81.9847 105.09 81.4147 105.67C80.8447 106.24 80.5597 106.94 80.5597 107.77C80.5597 108.6 80.8447 109.305 81.4147 109.885ZM96.0059 101.02H96.9959V111.52H96.0059V110.05C95.3159 111.15 94.3059 111.7 92.9759 111.7C91.9059 111.7 90.9909 111.32 90.2309 110.56C89.4809 109.8 89.1059 108.87 89.1059 107.77C89.1059 106.67 89.4809 105.74 90.2309 104.98C90.9909 104.22 91.9059 103.84 92.9759 103.84C94.3059 103.84 95.3159 104.39 96.0059 105.49V101.02ZM90.9509 109.885C91.5209 110.455 92.2209 110.74 93.0509 110.74C93.8809 110.74 94.5809 110.455 95.1509 109.885C95.7209 109.305 96.0059 108.6 96.0059 107.77C96.0059 106.94 95.7209 106.24 95.1509 105.67C94.5809 105.09 93.8809 104.8 93.0509 104.8C92.2209 104.8 91.5209 105.09 90.9509 105.67C90.3809 106.24 90.0959 106.94 90.0959 107.77C90.0959 108.6 90.3809 109.305 90.9509 109.885ZM99.242 107.365V106.405H104.642V107.365H99.242ZM113.17 110.575C112.41 111.325 111.48 111.7 110.38 111.7C109.28 111.7 108.345 111.325 107.575 110.575C106.815 109.815 106.435 108.88 106.435 107.77C106.435 106.66 106.815 105.73 107.575 104.98C108.345 104.22 109.28 103.84 110.38 103.84C111.48 103.84 112.41 104.22 113.17 104.98C113.94 105.73 114.325 106.66 114.325 107.77C114.325 108.88 113.94 109.815 113.17 110.575ZM108.28 109.885C108.85 110.455 109.55 110.74 110.38 110.74C111.21 110.74 111.91 110.455 112.48 109.885C113.05 109.305 113.335 108.6 113.335 107.77C113.335 106.94 113.05 106.24 112.48 105.67C111.91 105.09 111.21 104.8 110.38 104.8C109.55 104.8 108.85 105.09 108.28 105.67C107.71 106.24 107.425 106.94 107.425 107.77C107.425 108.6 107.71 109.305 108.28 109.885ZM119.492 103.84C120.402 103.84 121.117 104.12 121.637 104.68C122.167 105.23 122.432 105.975 122.432 106.915V111.52H121.442V106.915C121.442 106.245 121.262 105.725 120.902 105.355C120.552 104.985 120.052 104.8 119.402 104.8C118.682 104.8 118.097 105.03 117.647 105.49C117.197 105.94 116.972 106.64 116.972 107.59V111.52H115.982V104.02H116.972V105.19C117.532 104.29 118.372 103.84 119.492 103.84ZM132.116 103.84C133.186 103.84 134.096 104.22 134.846 104.98C135.606 105.74 135.986 106.67 135.986 107.77C135.986 108.87 135.606 109.8 134.846 110.56C134.096 111.32 133.186 111.7 132.116 111.7C130.786 111.7 129.776 111.15 129.086 110.05V114.52H128.096V104.02H129.086V105.49C129.776 104.39 130.786 103.84 132.116 103.84ZM129.941 109.885C130.511 110.455 131.211 110.74 132.041 110.74C132.871 110.74 133.571 110.455 134.141 109.885C134.711 109.305 134.996 108.6 134.996 107.77C134.996 106.94 134.711 106.24 134.141 105.67C133.571 105.09 132.871 104.8 132.041 104.8C131.211 104.8 130.511 105.09 129.941 105.67C129.371 106.24 129.086 106.94 129.086 107.77C129.086 108.6 129.371 109.305 129.941 109.885ZM137.632 111.52V100.57H138.622V111.52H137.632ZM147.173 104.02H148.163V111.52H147.173V110.05C146.483 111.15 145.473 111.7 144.143 111.7C143.073 111.7 142.158 111.32 141.398 110.56C140.648 109.8 140.273 108.87 140.273 107.77C140.273 106.67 140.648 105.74 141.398 104.98C142.158 104.22 143.073 103.84 144.143 103.84C145.473 103.84 146.483 104.39 147.173 105.49V104.02ZM142.118 109.885C142.688 110.455 143.388 110.74 144.218 110.74C145.048 110.74 145.748 110.455 146.318 109.885C146.888 109.305 147.173 108.6 147.173 107.77C147.173 106.94 146.888 106.24 146.318 105.67C145.748 105.09 145.048 104.8 144.218 104.8C143.388 104.8 142.688 105.09 142.118 105.67C141.548 106.24 141.263 106.94 141.263 107.77C141.263 108.6 141.548 109.305 142.118 109.885ZM153.769 103.84C154.679 103.84 155.394 104.12 155.914 104.68C156.444 105.23 156.709 105.975 156.709 106.915V111.52H155.719V106.915C155.719 106.245 155.539 105.725 155.179 105.355C154.829 104.985 154.329 104.8 153.679 104.8C152.959 104.8 152.374 105.03 151.924 105.49C151.474 105.94 151.249 106.64 151.249 107.59V111.52H150.259V104.02H151.249V105.19C151.809 104.29 152.649 103.84 153.769 103.84Z" fill="#4F4F4F"/>
</svg>
