<svg width="82" height="85" viewBox="0 0 82 85" fill="none" xmlns="http://www.w3.org/2000/svg">
<path d="M77.08 81.715C77.08 83.532 75.6143 85 73.8 85H44.485V46.401H77.08V81.715ZM37.515 85H8.2C6.38576 85 4.92001 83.532 4.92001 81.715V46.401H37.515V85ZM3.28001 21.7633H18.409C17.015 19.5664 16.195 16.9589 16.195 14.1667C16.195 6.35447 22.5398 0 30.34 0C34.5835 0 38.4067 1.88889 41 4.86594C43.5933 1.88889 47.4165 0 51.66 0C59.4603 0 65.805 6.35447 65.805 14.1667C65.805 16.9589 64.9952 19.5664 63.591 21.7633H78.72C80.5343 21.7633 82 23.2313 82 25.0483V39.4203H44.485V21.7633H37.515V39.4203H0V25.0483C0 23.2313 1.46576 21.7633 3.28001 21.7633ZM44.485 21.3527H51.66C55.6165 21.3527 58.835 18.1292 58.835 14.1667C58.835 10.2041 55.6165 6.98068 51.66 6.98068C47.7035 6.98068 44.485 10.2041 44.485 14.1667V21.3527ZM30.34 21.3527H37.515V14.1667C37.515 10.2041 34.2965 6.98068 30.34 6.98068C26.3835 6.98068 23.165 10.2041 23.165 14.1667C23.165 18.1292 26.3835 21.3527 30.34 21.3527Z" fill="white"/>
</svg>
