<svg width="35" height="35" viewBox="0 0 35 35" fill="none" xmlns="http://www.w3.org/2000/svg">
<g clip-path="url(#clip0_5128_3536)">
<path d="M17.5002 -0.0390625C7.83035 -0.0390625 -0.0380859 7.82719 -0.0380859 17.4981C-0.0380859 27.1691 7.83035 35.0353 17.5002 35.0353C27.17 35.0353 35.0385 27.1691 35.0385 17.4981C35.0385 7.82719 27.17 -0.0390625 17.5002 -0.0390625ZM17.5002 33.8672C8.47457 33.8672 1.13223 26.5237 1.13223 17.4981C1.13223 8.4725 8.47457 1.12906 17.5002 1.12906C26.5258 1.12906 33.8682 8.4725 33.8682 17.4981C33.8682 26.5237 26.5258 33.8672 17.5002 33.8672Z" fill="white"/>
<path d="M21.3285 7.65275H18.4104C14.6938 7.61557 14.2191 9.91572 14.2191 12.4051V14.2153H12.5785C12.5044 14.2053 12.4289 14.2127 12.358 14.2367C12.2872 14.2606 12.2228 14.3006 12.1699 14.3535C12.117 14.4064 12.077 14.4708 12.053 14.5417C12.029 14.6125 12.0217 14.688 12.0316 14.7621V18.0434C12.0217 18.1175 12.029 18.193 12.053 18.2638C12.077 18.3347 12.117 18.3991 12.1699 18.452C12.2228 18.5049 12.2872 18.5449 12.358 18.5689C12.4289 18.5928 12.5044 18.6002 12.5785 18.5903H14.2191V26.7934C14.21 26.8677 14.218 26.9431 14.2425 27.0138C14.267 27.0845 14.3073 27.1487 14.3604 27.2015C14.4134 27.2542 14.4779 27.2942 14.5487 27.3182C14.6196 27.3423 14.6951 27.3498 14.7693 27.3403H18.1107C18.4333 27.3774 18.6948 27.116 18.5919 26.7934L18.5941 18.5903H21.3285C21.4027 18.6002 21.4781 18.5928 21.549 18.5689C21.6198 18.5449 21.6842 18.5049 21.7371 18.452C21.79 18.3991 21.83 18.3347 21.854 18.2638C21.878 18.193 21.8853 18.1175 21.8754 18.0434V14.7621C21.8853 14.688 21.878 14.6125 21.854 14.5417C21.83 14.4708 21.79 14.4064 21.7371 14.3535C21.6842 14.3006 21.6198 14.2606 21.549 14.2367C21.4781 14.2127 21.4027 14.2053 21.3285 14.2153H18.5908L18.5941 12.5746C18.7002 11.8757 18.7002 11.9895 19.3488 12.0278H21.3055C21.4576 11.9938 21.6194 12.0124 21.7332 11.902C21.8469 11.7915 21.9126 11.6406 21.8743 11.4809V8.19963C21.8844 8.12554 21.8772 8.05011 21.8534 7.97924C21.8295 7.90836 21.7897 7.84395 21.7368 7.79102C21.684 7.73809 21.6197 7.69807 21.5489 7.67409C21.478 7.65011 21.4026 7.64281 21.3285 7.65275ZM20.7433 10.8728L19.3718 10.8203C17.6732 10.8203 17.531 11.7423 17.531 12.6862L17.5266 14.7599C17.5265 14.8367 17.5415 14.9128 17.5708 14.9838C17.6001 15.0548 17.6431 15.1193 17.6973 15.1736C17.7516 15.228 17.816 15.2711 17.8869 15.3005C17.9579 15.33 18.0339 15.3451 18.1107 15.3451H20.7816V17.4582H18.1129C17.9579 17.4582 17.8092 17.5197 17.6995 17.6292C17.5898 17.7387 17.528 17.8873 17.5277 18.0423L17.5266 26.2465H15.3129V18.0434C15.3129 17.7207 15.093 17.4593 14.7693 17.4593H13.1254V15.3462H14.7693C14.846 15.3463 14.922 15.3313 14.993 15.302C15.0639 15.2727 15.1284 15.2298 15.1827 15.1756C15.2921 15.0651 15.3118 14.9163 15.3118 14.761V12.404C15.3118 9.95182 15.8073 8.78369 18.4093 8.78369H20.7423V10.8728H20.7433Z" fill="white"/>
</g>
<defs>
<clipPath id="clip0_5128_3536">
<rect width="35" height="35" fill="white"/>
</clipPath>
</defs>
</svg>
