<svg width="36" height="36" viewBox="0 0 36 36" fill="none" xmlns="http://www.w3.org/2000/svg">
<path d="M17.5 14.0408C16.6181 14.0408 15.7559 14.3023 15.0226 14.7923C14.2893 15.2823 13.7178 15.9787 13.3803 16.7935C13.0427 17.6084 12.9544 18.5049 13.1265 19.3699C13.2986 20.2349 13.7233 21.0295 14.3469 21.6531C14.9705 22.2767 15.7651 22.7014 16.6301 22.8735C17.4951 23.0456 18.3916 22.9573 19.2065 22.6197C20.0213 22.2822 20.7177 21.7107 21.2077 20.9774C21.6977 20.2441 21.9592 19.3819 21.9592 18.5C21.9592 17.3174 21.4894 16.1831 20.6531 15.3469C19.8169 14.5106 18.6826 14.0408 17.5 14.0408ZM17.5 21.7959C16.8481 21.7959 16.2109 21.6026 15.6689 21.2405C15.1269 20.8783 14.7044 20.3635 14.455 19.7613C14.2055 19.159 14.1402 18.4963 14.2674 17.857C14.3946 17.2177 14.7085 16.6304 15.1694 16.1694C15.6304 15.7085 16.2177 15.3946 16.857 15.2674C17.4963 15.1402 18.159 15.2055 18.7613 15.455C19.3635 15.7044 19.8783 16.1269 20.2405 16.6689C20.6026 17.2109 20.7959 17.8481 20.7959 18.5C20.7934 19.3733 20.4453 20.2102 19.8277 20.8277C19.2102 21.4453 18.3733 21.7934 17.5 21.7959ZM21.7653 9H13.2347C11.8464 9 10.5149 9.55151 9.53321 10.5332C8.55151 11.5149 8 12.8464 8 14.2347V22.7653C8 24.1536 8.55151 25.4851 9.53321 26.4668C10.5149 27.4485 11.8464 28 13.2347 28H21.7653C23.1536 28 24.4851 27.4485 25.4668 26.4668C26.4485 25.4851 27 24.1536 27 22.7653V14.2347C27 12.8464 26.4485 11.5149 25.4668 10.5332C24.4851 9.55151 23.1536 9 21.7653 9ZM25.8367 22.7653C25.8367 23.8451 25.4078 24.8807 24.6442 25.6442C23.8807 26.4078 22.8451 26.8367 21.7653 26.8367H13.2347C12.1549 26.8367 11.1193 26.4078 10.3558 25.6442C9.59222 24.8807 9.16327 23.8451 9.16327 22.7653V14.2347C9.16327 13.1549 9.59222 12.1193 10.3558 11.3558C11.1193 10.5922 12.1549 10.1633 13.2347 10.1633H21.7653C22.8451 10.1633 23.8807 10.5922 24.6442 11.3558C25.4078 12.1193 25.8367 13.1549 25.8367 14.2347V22.7653ZM23.5102 13.4592C23.5102 13.6509 23.4534 13.8383 23.3468 13.9977C23.2403 14.1572 23.0889 14.2814 22.9118 14.3548C22.7347 14.4282 22.5397 14.4473 22.3517 14.4099C22.1637 14.3725 21.9909 14.2802 21.8554 14.1446C21.7198 14.0091 21.6275 13.8363 21.5901 13.6483C21.5527 13.4603 21.5718 13.2653 21.6452 13.0882C21.7186 12.9111 21.8428 12.7597 22.0023 12.6532C22.1617 12.5466 22.3491 12.4898 22.5408 12.4898C22.7979 12.4898 23.0445 12.5919 23.2263 12.7737C23.4081 12.9555 23.5102 13.2021 23.5102 13.4592Z" fill="white"/>
<path d="M17.5372 0C7.86625 0 0 7.86625 0 17.5372C0 27.2081 7.86625 35.0744 17.5372 35.0744C27.2081 35.0744 35.0744 27.2081 35.0744 17.5372C35.0744 7.86625 27.2081 0 17.5372 0ZM17.5372 33.9062C8.51156 33.9062 1.16812 26.5628 1.16812 17.5372C1.16812 8.51156 8.51156 1.16812 17.5372 1.16812C26.5628 1.16812 33.9062 8.51156 33.9062 17.5372C33.9062 26.5628 26.5628 33.9062 17.5372 33.9062Z" fill="white"/>
</svg>
