<svg width="35" height="35" viewBox="0 0 35 35" fill="none" xmlns="http://www.w3.org/2000/svg">
<g clip-path="url(#clip0_5128_3540)">
<path d="M21.3446 13.0706C20.603 13.0706 20.054 13.2577 19.6241 13.4939C19.5552 13.2489 19.3288 13.0695 19.0619 13.1231H15.7982C15.4755 13.0695 15.2141 13.3309 15.3137 13.67V25.7013C15.2141 26.0075 15.4755 26.27 15.7982 26.2481H19.0619C19.3846 26.27 19.646 26.0075 19.646 25.6848L19.6449 18.4136C19.6438 18.4103 19.6318 18.0625 19.8516 17.823C20.0277 17.6327 20.3307 17.5353 20.7496 17.5353C21.4474 17.5353 21.758 17.8208 21.874 18.4595V25.6848C21.7591 26.0075 22.0205 26.27 22.3432 26.2481H25.783C26.1057 26.27 26.3671 26.0075 26.2512 25.6848V18.2167C26.366 14.4192 23.6612 13.0706 21.3446 13.0706ZM25.1979 25.1544H22.9273V18.4595C22.9273 17.1678 22.0927 16.3672 20.7507 16.3672C19.9916 16.3672 19.401 16.5903 18.9941 17.03C18.4287 17.6425 18.4724 18.4191 18.5938 18.5919V25.1544H16.3823V14.2388H18.4779V14.6062C18.477 14.7157 18.5071 14.8232 18.5646 14.9164C18.6221 15.0096 18.7047 15.0846 18.8029 15.1329C18.9012 15.1813 19.011 15.2009 19.1199 15.1896C19.2288 15.1782 19.3323 15.1364 19.4185 15.0689L19.5716 14.9508C20.0146 14.6019 20.4729 14.2398 21.3457 14.2398C22.2491 14.2398 25.199 14.5275 25.199 18.2178V25.1544H25.1979ZM12.0313 7.61719C10.8041 7.61719 9.80664 8.61469 9.80664 9.84187C9.80664 11.0691 10.8041 12.0666 12.0313 12.0666C13.2585 12.0666 14.256 11.0691 14.256 9.84187C14.256 8.61469 13.2585 7.61719 12.0313 7.61719ZM12.0313 10.8984C11.4495 10.8984 10.9748 10.4237 10.9748 9.84187C10.9748 9.26 11.4495 8.78531 12.0313 8.78531C12.6132 8.78531 13.0879 9.26 13.0879 9.84187C13.0879 10.4237 12.6132 10.8984 12.0313 10.8984ZM13.5932 13.0695H10.347C10.0243 13.0695 9.76289 13.3309 9.84383 13.67V25.7013C9.76289 26.0075 10.0243 26.27 10.347 26.2481H13.5932C13.9159 26.27 14.1773 26.0075 14.1773 25.6848V13.6536C14.1773 13.4987 14.1157 13.3501 14.0062 13.2406C13.8967 13.1311 13.7481 13.0695 13.5932 13.0695ZM13.1251 25.1544H10.931V14.2388H13.1251V25.1544Z" fill="white"/>
<path d="M17.5001 -0.0390625C7.82914 -0.0390625 -0.0371094 7.82719 -0.0371094 17.4981C-0.0371094 27.1691 7.82914 35.0353 17.5001 35.0353C27.171 35.0353 35.0373 27.1691 35.0373 17.4981C35.0373 7.82719 27.171 -0.0390625 17.5001 -0.0390625ZM17.5001 33.8672C8.47445 33.8672 1.13102 26.5237 1.13102 17.4981C1.13102 8.4725 8.47445 1.12906 17.5001 1.12906C26.5257 1.12906 33.8691 8.4725 33.8691 17.4981C33.8691 26.5237 26.5257 33.8672 17.5001 33.8672Z" fill="white"/>
</g>
<defs>
<clipPath id="clip0_5128_3540">
<rect width="35" height="35" fill="white"/>
</clipPath>
</defs>
</svg>
