<svg width="35" height="35" viewBox="0 0 35 35" fill="none" xmlns="http://www.w3.org/2000/svg">
<g clip-path="url(#clip0_5128_3544)">
<path d="M17.5002 -0.0390625C7.83035 -0.0390625 -0.0380859 7.82719 -0.0380859 17.4981C-0.0380859 27.1691 7.83035 35.0353 17.5002 35.0353C27.17 35.0353 35.0385 27.1691 35.0385 17.4981C35.0385 7.82719 27.17 -0.0390625 17.5002 -0.0390625ZM17.5002 33.8672C8.47457 33.8672 1.13223 26.5238 1.13223 17.4981C1.13223 8.4725 8.47457 1.12906 17.5002 1.12906C26.5258 1.12906 33.8682 8.4725 33.8682 17.4981C33.8682 26.5238 26.5258 33.8672 17.5002 33.8672Z" fill="white"/>
<path d="M27.1189 12.0797C27.2402 11.8551 27.3402 11.6197 27.4175 11.3764C27.4533 11.2636 27.454 11.1425 27.4195 11.0293C27.3851 10.916 27.3171 10.8159 27.2246 10.7421C27.1321 10.6682 27.0193 10.6242 26.9012 10.6158C26.7832 10.6074 26.6653 10.635 26.5632 10.695C26.0028 11.0279 25.3961 11.276 24.7629 11.4311C23.9943 10.7374 22.9961 10.3528 21.9607 10.3516C21.3983 10.352 20.8416 10.466 20.3243 10.6868C19.8069 10.9075 19.3394 11.2305 18.9499 11.6362C18.5603 12.042 18.2567 12.5223 18.0573 13.0482C17.8578 13.5742 17.7667 14.135 17.7892 14.697C15.3294 14.3874 13.0831 13.1426 11.5165 11.2211C11.4565 11.1483 11.3798 11.0911 11.2929 11.0543C11.206 11.0174 11.1116 11.0021 11.0175 11.0097C10.9235 11.0172 10.8326 11.0473 10.7527 11.0974C10.6728 11.1476 10.6061 11.2163 10.5584 11.2977C10.1997 11.9134 10.0047 12.6107 9.99206 13.3232C9.97942 14.0356 10.1496 14.7395 10.4862 15.3675C10.4036 15.3814 10.3243 15.4103 10.2522 15.4528C10.1637 15.5092 10.0909 15.587 10.0404 15.6789C9.98998 15.7708 9.96349 15.874 9.9634 15.9789C9.9634 17.2203 10.5157 18.36 11.4061 19.1344L11.3678 19.1727C11.3006 19.2487 11.2543 19.3409 11.2336 19.4403C11.2129 19.5396 11.2184 19.6427 11.2497 19.7392C11.4353 20.3184 11.7453 20.85 12.1579 21.2968C12.5705 21.7436 13.0758 22.0949 13.6384 22.3259C12.483 22.8896 11.1899 23.1094 9.91309 22.9592C9.78185 22.9458 9.64987 22.9764 9.53785 23.046C9.42582 23.1157 9.34007 23.2206 9.29403 23.3442C9.24982 23.4688 9.24899 23.6046 9.29167 23.7297C9.33436 23.8548 9.41806 23.9617 9.52919 24.0333C11.265 25.1473 13.2843 25.7392 15.3468 25.7384C22.1062 25.7384 26.1465 20.2478 26.1465 14.9398L26.1454 14.7605C26.8005 14.249 27.3695 13.6361 27.8309 12.9448C27.9008 12.8403 27.9351 12.7161 27.9289 12.5906C27.9227 12.465 27.8762 12.3448 27.7963 12.2478C27.7164 12.1507 27.6074 12.082 27.4854 12.0517C27.3634 12.0214 27.2349 12.0312 27.1189 12.0797ZM25.2103 13.9992C25.1309 14.0563 25.0671 14.1323 25.0247 14.2204C24.9823 14.3085 24.9626 14.4058 24.9675 14.5034C24.974 14.6478 24.9773 14.7944 24.9773 14.9387C24.9773 19.6725 21.3756 24.5692 15.3479 24.5692C14.2729 24.5697 13.2054 24.3893 12.1903 24.0355C13.4061 23.8025 14.5482 23.2811 15.5207 22.5152C15.6154 22.4405 15.6847 22.3384 15.7192 22.2229C15.7536 22.1074 15.7516 21.984 15.7133 21.8697C15.675 21.7554 15.6023 21.6557 15.5052 21.5843C15.4081 21.5129 15.2913 21.4732 15.1707 21.4706C14.6992 21.4616 14.2363 21.3419 13.8194 21.1211C13.4026 20.9004 13.0435 20.5847 12.7711 20.1997C13.0478 20.1811 13.319 20.1352 13.5826 20.0641C13.7102 20.0299 13.8224 19.9535 13.901 19.8474C13.9796 19.7413 14.0199 19.6116 14.0153 19.4796C14.0108 19.3477 13.9616 19.2211 13.8759 19.1207C13.7901 19.0202 13.6729 18.9518 13.5432 18.9266C13.0106 18.8182 12.5175 18.5671 12.1165 18.2001C11.7156 17.8331 11.422 17.364 11.2672 16.843C11.5581 16.9162 11.8567 16.9589 12.1553 16.9687C12.4123 16.9677 12.6507 16.8102 12.7306 16.563C12.8104 16.3158 12.7164 16.0434 12.4987 15.8991C11.9841 15.5562 11.5878 15.0628 11.3641 14.4863C11.1403 13.9098 11.1 13.2783 11.2486 12.678C13.1484 14.6274 15.7139 15.7882 18.4323 15.9286C18.6248 15.9297 18.7932 15.8608 18.9103 15.7197C19.0273 15.5786 19.0722 15.3916 19.0306 15.2122C18.881 14.568 18.9479 13.8924 19.221 13.29C19.494 12.6877 19.958 12.1921 20.5411 11.88C21.1242 11.5679 21.7939 11.4567 22.4465 11.5636C23.0992 11.6705 23.6984 11.9895 24.1515 12.4712C24.2194 12.5437 24.3047 12.5977 24.3992 12.6281C24.4937 12.6585 24.5944 12.6644 24.6918 12.6452C24.8723 12.6091 25.0506 12.5675 25.2267 12.5194C25.1473 12.5788 25.0648 12.6339 24.9795 12.6845C24.8661 12.754 24.7797 12.86 24.7346 12.9852C24.6896 13.1103 24.6884 13.2471 24.7315 13.3729C24.7745 13.4988 24.8592 13.6062 24.9715 13.6775C25.0838 13.7488 25.217 13.7797 25.3492 13.7652L25.5482 13.74C25.4386 13.8303 25.3259 13.9168 25.2103 13.9992Z" fill="white"/>
</g>
<defs>
<clipPath id="clip0_5128_3544">
<rect width="35" height="35" fill="white"/>
</clipPath>
</defs>
</svg>
