<svg width="675" height="614" viewBox="0 0 675 614" fill="none" xmlns="http://www.w3.org/2000/svg">
<path d="M12.43 487.322C16.6658 487.011 24.8831 482.423 24.8972 482.423C24.9113 482.423 20.2238 477.904 19.8849 477.65C16.0304 474.826 6.90944 471.508 2.53251 474.629C1.81887 475.166 1.22652 475.848 0.794108 476.629C0.361698 477.411 0.0989486 478.275 0.0230057 479.165C-0.0529372 480.055 0.0596329 480.951 0.353371 481.794C0.647108 482.638 1.11541 483.41 1.72772 484.06C4.22681 486.927 8.85788 487.576 12.43 487.322Z" fill="#1E1E1E"/>
<path d="M28.0599 509.983C31.8721 508.642 38.1834 502.556 38.6775 502.062C42.1515 505.685 45.8637 509.072 49.7893 512.2C52.0625 514.021 54.4062 515.8 56.8488 517.551C55.6346 516.916 54.5615 516.351 54.4062 516.294C49.9305 514.544 40.2871 513.795 36.8562 517.96C36.2962 518.665 35.8925 519.481 35.6718 520.354C35.4511 521.227 35.4184 522.137 35.576 523.024C35.7335 523.91 36.0776 524.753 36.5856 525.496C37.0935 526.24 37.7536 526.867 38.5222 527.336C41.6849 529.439 46.3301 528.846 49.7046 527.646C53.079 526.446 58.6278 521.363 60.068 519.994C60.9857 520.657 61.8894 521.335 62.8071 521.984C67.2264 525.147 71.6598 528.282 75.9097 531.487C77.4063 532.616 78.8323 533.788 80.2725 534.946C79.1994 534.381 78.2958 533.915 78.1546 533.859C73.6788 532.108 64.0355 531.359 60.6045 535.525C60.059 536.233 59.6687 537.048 59.459 537.917C59.2493 538.786 59.2248 539.689 59.3873 540.568C59.5498 541.447 59.8955 542.282 60.402 543.019C60.9085 543.755 61.5644 544.377 62.3271 544.843C65.4897 546.933 70.1349 546.34 73.5094 545.154C76.8839 543.968 81.8962 539.351 83.6046 537.741C85.0165 538.97 86.4284 540.198 87.8403 541.469C88.7298 542.344 89.6476 543.135 90.4947 544.067L93.0503 546.778C94.6034 548.542 96.2271 550.364 97.6955 552.143C98.7403 553.371 99.7004 554.543 100.675 555.743C99.2627 554.6 96.2553 552.425 96.0012 552.27C91.7654 549.87 82.4044 547.653 78.4087 551.267C77.7617 551.883 77.2517 552.628 76.912 553.454C76.5723 554.28 76.4105 555.168 76.4371 556.06C76.4638 556.953 76.6783 557.83 77.0667 558.634C77.455 559.438 78.0085 560.151 78.6911 560.727C81.5149 563.269 86.1884 563.396 89.704 562.732C93.5868 561.984 100.491 557.155 101.352 556.548C102.948 558.525 104.501 560.473 105.927 562.323C109.781 567.293 112.986 571.712 115.457 575.284L118.62 573.618C115.994 570.004 112.577 565.457 108.426 560.346C106.802 558.327 105.023 556.209 103.188 554.049C104.946 551.989 106.577 549.825 108.073 547.568C111.899 548.98 119.764 548.712 120.78 548.684C121.034 551.225 121.246 553.682 121.416 556.026C121.867 562.111 122.093 567.448 122.22 571.726L125.651 569.905C125.44 565.895 125.115 561.123 124.592 555.786C124.352 553.202 124.042 550.463 123.689 547.639C124.677 547.356 132.796 544.984 135.789 542.415C138.528 540.085 141.352 536.358 141.126 532.531C141.102 531.638 140.891 530.76 140.505 529.953C140.12 529.147 139.569 528.431 138.888 527.852C138.208 527.272 137.413 526.843 136.555 526.591C135.698 526.339 134.797 526.27 133.911 526.39C128.616 527.251 124.423 535.991 123.703 540.735C123.703 541.017 123.533 544.109 123.491 546.058C123.35 544.914 123.209 543.798 123.053 542.612C122.729 540.269 122.347 537.939 121.952 535.44C121.717 534.244 121.477 533.03 121.232 531.797C121.02 530.569 120.639 529.312 120.343 528.056C119.608 525.147 118.705 522.253 117.745 519.344C119.792 519.076 127.049 517.932 130.113 516.083C133.177 514.233 136.523 510.929 136.876 507.159C136.987 506.273 136.91 505.372 136.651 504.517C136.392 503.662 135.956 502.871 135.372 502.194C134.788 501.518 134.068 500.972 133.259 500.592C132.451 500.212 131.571 500.006 130.678 499.987C125.312 499.987 119.848 508.049 118.408 512.694C118.324 512.991 117.66 516.393 117.335 518.271C116.742 516.52 116.163 514.784 115.5 513.047C113.608 508.021 111.518 502.994 109.471 497.968L107.621 493.351C108.355 493.252 117.01 492.137 120.441 490.019C123.491 488.127 126.851 484.865 127.19 481.095C127.323 480.201 127.263 479.289 127.016 478.419C126.768 477.549 126.338 476.742 125.755 476.052C125.171 475.361 124.447 474.803 123.63 474.414C122.814 474.025 121.924 473.814 121.02 473.796C115.641 473.796 110.177 481.858 108.751 486.432C108.638 486.785 107.706 491.685 107.522 492.941C106.11 489.553 104.854 486.15 103.696 482.761C102.112 478.18 100.825 473.502 99.8416 468.755C100.18 468.755 109.231 467.583 112.746 465.409C115.782 463.517 119.142 460.256 119.495 456.486C119.608 455.6 119.534 454.7 119.277 453.845C119.019 452.989 118.585 452.198 118.002 451.522C117.418 450.845 116.699 450.299 115.891 449.918C115.083 449.538 114.204 449.332 113.311 449.313C107.932 449.313 102.468 457.375 101.042 461.95C100.929 462.317 99.9122 467.598 99.7992 468.558C99.7992 468.275 99.658 468.007 99.6015 467.725C98.7469 462.934 98.3169 458.077 98.3167 453.21C98.3167 450.528 98.4014 447.958 98.5708 445.459C100.279 445.459 108.073 445.176 111.462 443.567C114.85 441.957 118.38 439.148 119.157 435.434C119.364 434.566 119.387 433.663 119.223 432.786C119.06 431.908 118.715 431.074 118.209 430.338C117.703 429.602 117.049 428.981 116.288 428.513C115.527 428.046 114.676 427.744 113.791 427.626C108.44 427.09 102.129 434.446 100.195 438.851C100.096 439.091 99.2909 441.675 98.7826 443.496C98.8815 442.381 98.9521 441.209 99.065 440.136C99.4745 436.084 100.11 432.413 100.689 429.151C101.028 427.302 101.381 425.65 101.719 424.097C103.385 423.179 110.007 419.437 112.224 416.5C114.441 413.564 116.347 409.441 115.302 405.742C115.088 404.87 114.691 404.054 114.139 403.346C113.587 402.638 112.891 402.055 112.098 401.635C111.305 401.216 110.432 400.968 109.536 400.909C108.64 400.85 107.743 400.982 106.901 401.294C101.903 403.271 99.7004 412.716 100.011 417.503C100.011 417.926 101.211 424.351 101.296 424.294H101.395C101.042 425.777 100.675 427.372 100.308 429.137C99.658 432.384 98.8956 436.055 98.4438 440.108C97.8534 444.466 97.5186 448.855 97.4413 453.253C97.3328 458.181 97.6636 463.109 98.4297 467.979C98.4297 467.979 98.4297 468.092 98.4297 468.148C97.7237 466.736 95.6058 462.868 95.4082 462.599C92.5843 458.674 85.0024 452.716 79.8771 454.311C79.0333 454.602 78.26 455.066 77.6073 455.675C76.9545 456.283 76.437 457.022 76.0882 457.844C75.7394 458.665 75.5671 459.551 75.5826 460.443C75.5981 461.335 75.8009 462.214 76.1779 463.023C77.6604 466.51 81.8256 468.586 85.3412 469.461C89.2663 470.435 97.879 468.84 98.5708 468.713C99.4662 473.647 100.693 478.515 102.242 483.284C103.131 486.108 104.106 488.847 105.066 491.614C104.416 490.414 103.823 489.355 103.724 489.214C100.9 485.289 93.3185 479.331 88.1933 480.926C87.3495 481.216 86.5761 481.681 85.9234 482.289C85.2707 482.898 84.7531 483.637 84.4044 484.458C84.0556 485.28 83.8833 486.165 83.8988 487.057C83.9142 487.95 84.117 488.829 84.4941 489.637C85.9766 493.139 90.1417 495.2 93.6433 496.076C97.1448 496.951 104.557 495.751 106.506 495.398C106.915 496.457 107.296 497.516 107.706 498.575C109.64 503.658 111.603 508.712 113.354 513.725C113.975 515.49 114.525 517.254 115.09 519.019C114.511 517.96 114.003 517.071 113.918 516.944C111.095 513.019 103.498 507.06 98.3873 508.656C97.5423 508.945 96.7674 509.408 96.1132 510.016C95.4589 510.624 94.9398 511.363 94.5896 512.184C94.2394 513.006 94.066 513.892 94.0805 514.785C94.095 515.678 94.2972 516.558 94.674 517.367C96.1706 520.855 100.322 522.93 103.837 523.806C107.353 524.681 114.031 523.58 116.347 523.185C116.869 525.006 117.392 526.827 117.759 528.62C118.013 529.849 118.352 531.021 118.549 532.263C118.747 533.506 118.973 534.72 119.185 535.92C119.495 538.264 119.848 540.678 120.103 542.98C120.286 544.575 120.441 546.1 120.597 547.625C119.99 545.86 118.747 542.429 118.606 542.146C116.598 538.447 113.683 535.318 110.134 533.054C109.925 532.633 109.68 532.231 109.4 531.854C108.888 531.122 108.227 530.506 107.461 530.047C106.695 529.587 105.84 529.294 104.953 529.186C104.067 529.078 103.167 529.158 102.313 529.421C101.459 529.683 100.67 530.122 99.9969 530.71C96.0435 534.353 97.3848 543.954 99.3898 548.317C99.5168 548.571 101.112 551.211 102.214 552.863C101.451 551.988 100.802 551.126 99.9404 550.237C98.3873 548.458 96.7777 546.721 95.0693 544.857L92.4573 542.203C91.6101 541.313 90.5935 540.466 89.6334 539.577C87.4167 537.572 85.073 535.638 82.6727 533.76C84.2258 532.348 89.7323 527.477 91.1442 524.201C92.5561 520.925 93.6433 516.379 91.8501 513.033C91.4637 512.225 90.911 511.509 90.2282 510.93C89.5454 510.351 88.7479 509.922 87.8881 509.673C87.0282 509.424 86.1254 509.359 85.2388 509.483C84.3522 509.607 83.5018 509.917 82.7433 510.393C78.2817 513.4 78.1405 523.1 79.4677 527.717C79.5524 527.999 80.8796 531.204 81.642 532.941C80.2301 531.825 78.8182 530.696 77.2368 529.609C72.8882 526.46 68.37 523.41 63.8943 520.361L59.7997 517.537C60.3645 517.057 66.9581 511.353 68.6524 507.653C70.1491 504.392 71.1515 499.831 69.3584 496.485C68.9624 495.694 68.4051 494.994 67.7222 494.43C67.0393 493.867 66.2461 493.453 65.3935 493.215C64.541 492.977 63.648 492.92 62.7721 493.048C61.8962 493.176 61.0569 493.486 60.308 493.958C55.8464 496.951 55.7052 506.665 57.0465 511.268C57.1453 511.607 59.0655 516.224 59.6021 517.367C56.6088 515.278 53.6438 513.132 50.7917 510.986C46.9381 508.043 43.2783 504.855 39.8353 501.441C40.0894 501.215 47.0219 495.285 48.7445 491.558C50.2411 488.31 51.2577 483.736 49.4645 480.389C49.0688 479.589 48.5089 478.88 47.8214 478.309C47.1338 477.739 46.3339 477.32 45.4737 477.079C44.6134 476.838 43.7121 476.78 42.8283 476.91C41.9444 477.041 41.0979 477.355 40.3436 477.834C35.8819 480.841 35.7407 490.541 37.0821 495.144C37.1809 495.511 39.2564 500.467 39.6941 501.328L39.0729 500.749C35.7117 497.231 32.6732 493.417 29.9943 489.355C28.4835 487.124 27.1704 484.922 25.928 482.747C27.3399 481.773 33.6935 477.255 35.6278 474.05C37.5621 470.845 38.974 466.553 37.5621 463.037C37.2583 462.196 36.781 461.429 36.1612 460.785C35.5413 460.141 34.7929 459.635 33.9645 459.3C33.1362 458.964 32.2464 458.806 31.3532 458.837C30.4599 458.868 29.5832 459.087 28.78 459.479C24.0219 461.978 22.8218 471.607 23.6407 476.337C23.6407 476.591 24.4172 479.161 25.0526 481.011C24.516 480.022 23.9372 479.006 23.443 478.046C21.551 474.445 20.0403 470.986 18.7272 468.007C18.0071 466.27 17.3153 464.689 16.807 463.206C17.6824 461.54 21.1416 454.735 21.3675 451.092C21.5934 447.45 20.7745 442.861 17.9507 440.39C17.2937 439.784 16.5167 439.324 15.67 439.038C14.8234 438.752 13.9261 438.648 13.0366 438.732C12.147 438.816 11.285 439.086 10.5067 439.525C9.72843 439.964 9.0512 440.562 8.51908 441.279C5.44111 445.685 8.81558 454.777 11.7241 458.604C11.9783 458.943 16.4964 463.644 16.5387 463.559V463.461C17.0611 464.873 17.64 466.44 18.2895 468.106C19.5461 471.17 20.9863 474.629 22.7935 478.286C24.7166 482.249 26.8711 486.096 29.246 489.807C31.8723 493.974 34.8632 497.901 38.1834 501.54L38.3104 501.667C36.8985 500.876 33.044 498.843 32.6628 498.702C28.187 496.951 18.5437 496.203 15.1268 500.368C14.5809 501.074 14.1899 501.887 13.9793 502.755C13.7686 503.622 13.743 504.524 13.9042 505.402C14.0654 506.279 14.4097 507.113 14.9147 507.849C15.4197 508.585 16.0741 509.206 16.8352 509.673C20.0403 511.804 24.6714 511.183 28.0599 509.983Z" fill="#1E1E1E"/>
<path d="M97.8648 444.682C97.9637 444.682 96.4529 438.329 96.3117 437.933C94.688 433.415 88.8851 425.65 83.5057 425.833C82.6154 425.892 81.7472 426.137 80.9574 426.552C80.1675 426.967 79.4734 427.543 78.92 428.242C78.3665 428.942 77.9659 429.75 77.7441 430.615C77.5223 431.479 77.4841 432.38 77.6321 433.26C78.1545 437.03 81.642 440.136 84.7764 441.887C88.4474 443.948 97.8507 444.682 97.8648 444.682Z" fill="#1E1E1E"/>
<path d="M662.107 487.322C657.872 487.011 649.654 482.423 649.654 482.423C649.654 482.423 654.328 477.904 654.652 477.65C658.507 474.826 667.642 471.508 672.019 474.629C672.732 475.167 673.323 475.849 673.754 476.632C674.185 477.414 674.446 478.278 674.521 479.168C674.596 480.058 674.482 480.954 674.187 481.797C673.892 482.64 673.423 483.411 672.81 484.06C670.254 486.927 665.68 487.576 662.107 487.322Z" fill="#1E1E1E"/>
<path d="M646.492 509.983C642.679 508.642 636.368 502.557 635.86 502.062C632.389 505.689 628.677 509.076 624.748 512.2C622.475 514.021 620.131 515.8 617.759 517.551C618.959 516.916 620.047 516.351 620.202 516.294C624.678 514.544 634.321 513.795 637.738 517.96C638.283 518.667 638.673 519.481 638.883 520.349C639.092 521.217 639.117 522.119 638.954 522.997C638.792 523.875 638.446 524.709 637.94 525.444C637.433 526.18 636.777 526.8 636.015 527.265C632.853 529.369 628.221 528.776 624.833 527.576C621.444 526.376 615.91 521.293 614.484 519.923L611.73 521.914C607.311 525.077 602.892 528.211 598.642 531.416C597.145 532.546 595.705 533.717 594.265 534.875C595.338 534.31 596.242 533.845 596.397 533.788C600.859 532.037 610.516 531.289 613.933 535.454C614.478 536.162 614.869 536.977 615.079 537.846C615.288 538.715 615.313 539.619 615.15 540.498C614.988 541.377 614.642 542.212 614.135 542.948C613.629 543.685 612.973 544.306 612.21 544.773C609.048 546.862 604.403 546.269 601.028 545.083C597.654 543.897 592.641 539.28 590.933 537.671C589.521 538.899 588.109 540.128 586.697 541.398C585.794 542.274 584.876 543.064 584.029 543.996C583.181 544.928 582.32 545.803 581.487 546.707C579.92 548.472 578.31 550.293 576.828 552.072C575.797 553.301 574.823 554.473 573.849 555.673C575.331 554.529 578.268 552.355 578.536 552.199C582.687 549.799 592.133 547.582 596.115 551.197C596.762 551.812 597.272 552.557 597.611 553.383C597.951 554.209 598.113 555.097 598.086 555.99C598.06 556.883 597.845 557.759 597.457 558.564C597.068 559.368 596.515 560.081 595.832 560.657C593.008 563.198 588.349 563.325 584.819 562.662C580.951 561.913 574.046 557.085 573.185 556.477C571.576 558.454 570.037 560.403 568.596 562.252C564.756 567.222 561.537 571.641 559.066 575.214L555.889 573.548C558.515 569.933 561.946 565.387 566.083 560.275C567.707 558.256 569.486 556.139 571.336 553.978C569.576 551.917 567.94 549.753 566.436 547.498C562.61 548.91 554.746 548.641 553.729 548.613C553.489 551.155 553.263 553.611 553.094 555.955C552.642 562.04 552.416 567.377 552.303 571.656L548.858 569.834C549.07 565.824 549.409 561.052 549.917 555.715C550.171 553.131 550.482 550.392 550.82 547.568C549.832 547.286 541.728 544.914 538.72 542.344C535.995 540.015 533.172 536.287 533.397 532.461C533.419 531.568 533.629 530.69 534.013 529.884C534.397 529.077 534.947 528.361 535.626 527.782C536.305 527.202 537.099 526.772 537.956 526.52C538.813 526.268 539.713 526.2 540.598 526.319C545.907 527.18 550.086 535.92 550.806 540.664C550.806 540.946 550.976 544.039 551.018 545.987C551.173 544.843 551.301 543.728 551.47 542.542C551.781 540.198 552.162 537.868 552.571 535.369C552.797 534.169 553.037 532.955 553.277 531.727C553.517 530.498 553.87 529.242 554.167 527.985C554.915 525.077 555.805 522.182 556.765 519.274C554.717 519.005 547.46 517.862 544.396 516.012C541.332 514.162 537.986 510.859 537.647 507.089C537.534 506.203 537.609 505.303 537.866 504.448C538.124 503.592 538.558 502.801 539.141 502.125C539.724 501.448 540.443 500.902 541.251 500.521C542.059 500.141 542.939 499.935 543.831 499.916C549.211 499.916 554.675 507.978 556.101 512.623C556.2 512.92 556.849 516.323 557.174 518.201C557.767 516.45 558.36 514.713 559.01 512.976C560.916 507.95 562.991 502.924 565.038 497.897C565.674 496.358 566.281 494.819 566.888 493.28C566.168 493.181 557.499 492.066 554.068 489.948C551.032 488.056 547.672 484.795 547.319 481.025C547.206 480.139 547.28 479.239 547.538 478.384C547.795 477.529 548.23 476.737 548.813 476.061C549.396 475.384 550.115 474.838 550.923 474.458C551.731 474.077 552.61 473.871 553.503 473.852C558.882 473.852 564.347 481.914 565.787 486.489C565.886 486.842 566.832 491.741 567.001 492.998C568.413 489.609 569.669 486.207 570.841 482.818C572.431 478.237 573.723 473.559 574.71 468.812C574.371 468.812 565.335 467.64 561.819 465.466C558.77 463.574 555.409 460.312 555.056 456.542C554.945 455.656 555.022 454.755 555.281 453.9C555.54 453.045 555.976 452.254 556.56 451.577C557.144 450.901 557.864 450.355 558.673 449.975C559.482 449.595 560.361 449.389 561.254 449.37C566.634 449.37 572.084 457.432 573.524 462.006C573.637 462.374 574.639 467.654 574.752 468.614C574.752 468.332 574.908 468.064 574.95 467.781C575.812 462.991 576.242 458.134 576.235 453.267C576.235 450.584 576.15 448.014 575.981 445.515C574.272 445.515 566.479 445.233 563.104 443.623C559.73 442.014 556.172 439.204 555.409 435.491C555.2 434.622 555.175 433.719 555.337 432.84C555.5 431.962 555.845 431.127 556.351 430.391C556.857 429.654 557.513 429.032 558.275 428.566C559.037 428.099 559.888 427.799 560.774 427.683C566.126 427.146 572.437 434.502 574.357 438.908C574.47 439.148 575.261 441.731 575.769 443.553C575.67 442.437 575.6 441.265 575.487 440.192C575.077 436.14 574.456 432.469 573.863 429.208C573.524 427.358 573.171 425.706 572.832 424.153C571.18 423.235 564.558 419.494 562.342 416.557C560.125 413.62 558.219 409.497 559.25 405.798C559.465 404.932 559.86 404.12 560.409 403.416C560.959 402.712 561.65 402.132 562.438 401.713C563.226 401.293 564.094 401.044 564.985 400.982C565.875 400.92 566.769 401.045 567.608 401.351C572.606 403.327 574.809 412.773 574.498 417.559C574.498 417.983 573.298 424.407 573.213 424.351H573.115C573.468 425.833 573.849 427.429 574.216 429.194C574.865 432.441 575.628 436.112 576.08 440.164C576.665 444.523 576.995 448.912 577.068 453.309C577.181 458.237 576.855 463.165 576.094 468.035V468.205C576.8 466.793 578.918 462.924 579.115 462.656C581.939 458.731 589.521 452.773 594.646 454.368C595.491 454.657 596.266 455.12 596.92 455.728C597.574 456.336 598.093 457.075 598.442 457.897C598.791 458.719 598.962 459.606 598.946 460.499C598.929 461.392 598.725 462.271 598.345 463.079C596.863 466.567 592.698 468.642 589.196 469.518C585.271 470.492 576.644 468.897 575.952 468.769C575.057 473.703 573.831 478.571 572.282 483.34C571.392 486.164 570.418 488.903 569.458 491.671C570.107 490.471 570.7 489.412 570.799 489.27C573.623 485.345 581.219 479.387 586.33 480.983C587.175 481.271 587.95 481.735 588.604 482.343C589.258 482.951 589.778 483.689 590.128 484.511C590.478 485.332 590.651 486.218 590.637 487.111C590.622 488.004 590.42 488.884 590.043 489.694C588.547 493.196 584.396 495.257 580.88 496.132C577.364 497.008 569.966 495.808 568.018 495.455L566.832 498.631C564.883 503.714 562.921 508.769 561.184 513.781C560.563 515.546 560.012 517.311 559.461 519.076C560.04 518.017 560.534 517.127 560.619 517C563.443 513.075 571.039 507.117 576.15 508.712C576.994 509.003 577.767 509.467 578.42 510.076C579.073 510.684 579.59 511.423 579.939 512.245C580.288 513.066 580.46 513.952 580.445 514.844C580.429 515.736 580.226 516.615 579.849 517.424C578.353 520.911 574.202 522.987 570.686 523.862C567.17 524.738 560.492 523.636 558.177 523.241C557.668 525.062 557.146 526.884 556.765 528.677C556.51 529.905 556.172 531.077 555.988 532.32C555.805 533.562 555.564 534.776 555.353 535.976C555.028 538.32 554.689 540.735 554.435 543.036C554.237 544.632 554.082 546.156 553.927 547.681C554.534 545.916 555.79 542.485 555.917 542.203C557.897 538.458 560.804 535.284 564.361 532.983C564.559 532.557 564.806 532.154 565.095 531.783C565.606 531.052 566.266 530.436 567.031 529.977C567.795 529.517 568.649 529.224 569.534 529.116C570.42 529.008 571.319 529.088 572.171 529.351C573.024 529.613 573.812 530.052 574.484 530.639C578.437 534.282 577.11 543.883 575.091 548.246C574.964 548.5 573.369 551.14 572.267 552.792C573.03 551.917 573.764 551.056 574.555 550.166C576.108 548.387 577.703 546.651 579.426 544.787L582.024 542.132C582.885 541.243 583.902 540.396 584.848 539.506C587.064 537.501 589.408 535.567 591.822 533.689C590.269 532.277 584.763 527.406 583.351 524.131C581.939 520.855 580.838 516.309 582.631 512.962C583.025 512.16 583.584 511.45 584.271 510.878C584.958 510.306 585.758 509.886 586.618 509.643C587.479 509.401 588.38 509.342 589.265 509.471C590.149 509.601 590.997 509.914 591.752 510.393C596.213 513.4 596.341 523.1 595.013 527.717C594.929 527.999 593.601 531.204 592.839 532.941C594.251 531.825 595.733 530.696 597.244 529.609C601.607 526.46 606.111 523.41 610.601 520.361L614.681 517.537C614.131 517.057 607.523 511.353 605.829 507.654C604.332 504.392 603.329 499.832 605.123 496.485C605.517 495.683 606.076 494.973 606.763 494.401C607.45 493.829 608.251 493.409 609.112 493.168C609.972 492.927 610.875 492.87 611.759 493.001C612.643 493.132 613.49 493.449 614.244 493.93C618.691 496.923 618.832 506.637 617.505 511.24C617.406 511.579 615.486 516.196 614.935 517.339C617.943 515.25 620.908 513.104 623.746 510.957C627.602 508.019 631.262 504.83 634.702 501.413C634.448 501.187 627.53 495.257 625.793 491.53C624.296 488.282 623.294 483.708 625.087 480.361C625.481 479.561 626.04 478.852 626.726 478.282C627.412 477.712 628.211 477.292 629.07 477.051C629.929 476.81 630.83 476.753 631.712 476.883C632.595 477.013 633.441 477.327 634.194 477.806C638.656 480.813 638.797 490.513 637.455 495.116C637.357 495.483 635.295 500.439 634.857 501.3L635.479 500.721C638.831 497.199 641.865 493.386 644.543 489.327C646.054 487.096 647.367 484.894 648.61 482.719C647.198 481.745 640.844 477.227 638.924 474.022C637.004 470.817 635.578 466.525 636.989 463.009C637.293 462.168 637.771 461.401 638.39 460.757C639.01 460.113 639.759 459.607 640.587 459.271C641.415 458.936 642.305 458.778 643.198 458.809C644.092 458.84 644.968 459.059 645.772 459.451C650.53 461.95 651.73 471.579 650.911 476.309C650.911 476.563 650.12 479.133 649.499 480.983C650.036 479.994 650.614 478.978 651.123 478.018C653.015 474.417 654.511 470.958 655.824 467.979C656.559 466.242 657.236 464.661 657.759 463.178C656.869 461.512 653.424 454.707 653.184 451.064C652.944 447.421 653.678 442.861 656.544 440.39C657.201 439.784 657.978 439.324 658.825 439.038C659.672 438.753 660.569 438.648 661.459 438.732C662.348 438.816 663.21 439.086 663.988 439.525C664.767 439.964 665.444 440.562 665.976 441.28C669.054 445.685 665.68 454.777 662.785 458.604C662.531 458.943 657.999 463.644 657.956 463.559V463.461C657.448 464.873 656.869 466.44 656.206 468.106C654.963 471.17 653.523 474.629 651.702 478.286C649.788 482.249 647.643 486.096 645.277 489.807C642.66 493.981 639.669 497.908 636.34 501.54L636.213 501.667C637.625 500.876 641.479 498.843 641.861 498.702C646.322 496.951 655.98 496.203 659.397 500.368C659.942 501.075 660.332 501.889 660.542 502.757C660.751 503.625 660.775 504.527 660.613 505.405C660.45 506.283 660.105 507.117 659.598 507.852C659.092 508.587 658.436 509.208 657.674 509.673C654.511 511.805 649.866 511.183 646.492 509.983Z" fill="#1E1E1E"/>
<path d="M576.687 444.682C576.588 444.682 578.099 438.329 578.226 437.933C579.849 433.415 585.666 425.65 591.032 425.833C591.923 425.89 592.792 426.133 593.583 426.547C594.374 426.962 595.069 427.538 595.623 428.238C596.177 428.938 596.577 429.747 596.798 430.613C597.019 431.478 597.055 432.38 596.905 433.26C596.397 437.03 592.895 440.136 589.775 441.887C586.104 443.948 576.687 444.682 576.687 444.682Z" fill="#1E1E1E"/>
<path d="M115.697 241.564L116.869 242.341" stroke="#1E1E1E" stroke-width="0.776451" stroke-miterlimit="10"/>
<path d="M119.241 243.88L335.588 384.549" stroke="#1E1E1E" stroke-width="0.776451" stroke-miterlimit="10" stroke-dasharray="1.55 1.55"/>
<path d="M336.774 385.325L337.946 386.088L337.184 384.916" stroke="#1E1E1E" stroke-width="0.776451" stroke-miterlimit="10"/>
<path d="M335.659 382.558L150.077 97.2106" stroke="#1E1E1E" stroke-width="0.776451" stroke-miterlimit="10" stroke-dasharray="1.54 1.54"/>
<path d="M149.301 96.0387L148.538 94.8527" stroke="#1E1E1E" stroke-width="0.776451" stroke-miterlimit="10"/>
<path d="M560.21 241.564L559.038 242.341" stroke="#1E1E1E" stroke-width="0.776451" stroke-miterlimit="10"/>
<path d="M556.666 243.88L340.318 384.549" stroke="#1E1E1E" stroke-width="0.776451" stroke-miterlimit="10" stroke-dasharray="1.55 1.55"/>
<path d="M339.132 385.325L337.946 386.088L338.723 384.916" stroke="#1E1E1E" stroke-width="0.776451" stroke-miterlimit="10"/>
<path d="M340.248 382.558L525.83 97.2106" stroke="#1E1E1E" stroke-width="0.776451" stroke-miterlimit="10" stroke-dasharray="1.54 1.54"/>
<path d="M526.592 96.0387L527.369 94.8527" stroke="#1E1E1E" stroke-width="0.776451" stroke-miterlimit="10"/>
<path d="M337.946 51.0552V52.4671" stroke="#1E1E1E" stroke-width="0.776451" stroke-miterlimit="10"/>
<path d="M337.946 55.3051V383.264" stroke="#1E1E1E" stroke-width="0.776451" stroke-miterlimit="10" stroke-dasharray="1.56 1.56"/>
<path d="M337.946 384.676V386.088" stroke="#1E1E1E" stroke-width="0.776451" stroke-miterlimit="10"/>
<path d="M340.587 88.0896C364.565 88.0896 384.003 68.6514 384.003 44.6733C384.003 20.6951 364.565 1.25696 340.587 1.25696C316.608 1.25696 297.17 20.6951 297.17 44.6733C297.17 68.6514 316.608 88.0896 340.587 88.0896Z" fill="#1E1E1E" stroke="#1E1E1E" stroke-width="1.5529" stroke-miterlimit="10"/>
<path d="M340.587 44.6733L377.127 21.2356C371.728 12.8306 363.602 6.539 354.113 3.41724L340.587 44.6733Z" fill="#FFF4F4" stroke="#1E1E1E" stroke-width="0.776451" stroke-miterlimit="10"/>
<path d="M340.587 44.6733L361.045 82.9503C366.323 80.1209 370.958 76.2303 374.66 71.5231C378.362 66.8158 381.05 61.3937 382.555 55.5976C384.06 49.8015 384.349 43.7566 383.406 37.8431C382.462 31.9296 380.305 26.2753 377.071 21.2356L340.587 44.6733Z" fill="white" stroke="#1E1E1E" stroke-width="0.776451" stroke-miterlimit="10"/>
<path d="M550.824 125.268C567.773 108.319 567.773 80.838 550.824 63.8884C533.874 46.9388 506.393 46.9388 489.444 63.8884C472.494 80.838 472.494 108.319 489.444 125.268C506.393 142.218 533.874 142.218 550.824 125.268Z" stroke="#1E1E1E" stroke-width="0.776451" stroke-miterlimit="10"/>
<path d="M520.125 132.212C540.906 132.212 557.753 115.366 557.753 94.5845C557.753 73.8034 540.906 56.957 520.125 56.957C499.344 56.957 482.498 73.8034 482.498 94.5845C482.498 115.366 499.344 132.212 520.125 132.212Z" fill="#1E1E1E"/>
<path d="M541.77 94.5843L505.329 73.5327V115.622L541.77 94.5843Z" fill="white"/>
<path d="M626.373 246.718C632.2 222.391 617.203 197.947 592.876 192.12C568.549 186.293 544.104 201.29 538.277 225.617C532.45 249.944 547.447 274.389 571.774 280.216C596.102 286.043 620.546 271.046 626.373 246.718Z" fill="#1E1E1E"/>
<path d="M613.819 243.713C617.965 226.337 607.239 208.889 589.862 204.742C572.485 200.596 555.038 211.322 550.891 228.699C546.745 246.076 557.471 263.524 574.848 267.67C592.225 271.816 609.673 261.09 613.819 243.713Z" fill="white"/>
<path d="M601.183 240.645C603.66 230.214 597.212 219.749 586.78 217.271C576.349 214.794 565.883 221.242 563.406 231.674C560.928 242.105 567.377 252.57 577.808 255.048C588.24 257.525 598.705 251.077 601.183 240.645Z" fill="#1E1E1E"/>
<path d="M592.529 238.623C593.86 233.008 590.386 227.378 584.772 226.048C579.157 224.717 573.526 228.19 572.196 233.805C570.866 239.42 574.339 245.05 579.954 246.381C585.569 247.711 591.199 244.238 592.529 238.623Z" fill="white"/>
<path d="M640.039 214.456L634.279 212.211L636.792 210.982C636.937 210.916 637.068 210.821 637.177 210.704C637.285 210.586 637.369 210.448 637.423 210.298C637.477 210.147 637.501 209.988 637.493 209.828C637.484 209.668 637.444 209.512 637.375 209.368C637.305 209.224 637.207 209.095 637.087 208.99C636.967 208.884 636.827 208.803 636.676 208.753C636.524 208.702 636.364 208.682 636.204 208.694C636.045 208.706 635.889 208.749 635.747 208.822L633.926 209.712L636.82 203.443L626.075 208.243L624.508 214.272L581.798 235.07C581.656 235.139 581.529 235.236 581.424 235.354C581.32 235.473 581.239 235.611 581.188 235.76C581.137 235.91 581.116 236.068 581.126 236.226C581.136 236.383 581.177 236.538 581.247 236.679C581.314 236.822 581.408 236.95 581.525 237.056C581.642 237.161 581.779 237.242 581.928 237.294C582.077 237.345 582.235 237.366 582.392 237.355C582.549 237.344 582.702 237.302 582.843 237.23L625.694 216.362L630.368 219.002L640.039 214.456Z" fill="#1E1E1E"/>
<path d="M152.322 137.973C177.33 137.973 197.602 117.7 197.602 92.6925C197.602 67.685 177.33 47.4125 152.322 47.4125C127.315 47.4125 107.042 67.685 107.042 92.6925C107.042 117.7 127.315 137.973 152.322 137.973Z" fill="white" stroke="#1E1E1E" stroke-width="1.5529" stroke-miterlimit="10"/>
<path d="M152.322 137.973C170.46 137.973 185.163 117.7 185.163 92.6925C185.163 67.685 170.46 47.4125 152.322 47.4125C134.185 47.4125 119.481 67.685 119.481 92.6925C119.481 117.7 134.185 137.973 152.322 137.973Z" fill="white" stroke="#1E1E1E" stroke-width="0.776451" stroke-miterlimit="10"/>
<path d="M152.322 137.973C160.042 137.973 166.3 117.7 166.3 92.6925C166.3 67.685 160.042 47.4125 152.322 47.4125C144.602 47.4125 138.344 67.685 138.344 92.6925C138.344 117.7 144.602 137.973 152.322 137.973Z" fill="white" stroke="#1E1E1E" stroke-width="0.776451" stroke-miterlimit="10"/>
<path d="M128.334 54.4437H177.115" stroke="#1E1E1E" stroke-width="0.776451" stroke-miterlimit="10"/>
<path d="M111.927 72.1915H192.647" stroke="#1E1E1E" stroke-width="0.776451" stroke-miterlimit="10"/>
<path d="M107.268 89.925H197.518" stroke="#1E1E1E" stroke-width="0.776451" stroke-miterlimit="10"/>
<path d="M109.259 107.673H194.863" stroke="#1E1E1E" stroke-width="0.776451" stroke-miterlimit="10"/>
<path d="M121.458 125.406H183.991" stroke="#1E1E1E" stroke-width="0.776451" stroke-miterlimit="10"/>
<path d="M93.0502 281.465C118.058 281.465 138.33 261.193 138.33 236.185C138.33 211.178 118.058 190.905 93.0502 190.905C68.0427 190.905 47.7701 211.178 47.7701 236.185C47.7701 261.193 68.0427 281.465 93.0502 281.465Z" fill="#1E1E1E" stroke="#1E1E1E" stroke-width="1.5529" stroke-miterlimit="10"/>
<path d="M121.74 214.781H61.6917V262.828H121.74V214.781Z" fill="white" stroke="#1E1E1E" stroke-width="1.5529" stroke-miterlimit="10"/>
<path d="M125.496 214.781H57.9359V234.293H125.496V214.781Z" fill="white" stroke="#1E1E1E" stroke-width="1.5529" stroke-miterlimit="10"/>
<path d="M91.6523 214.3C91.6523 214.3 77.5332 197.767 75.1188 198.558C72.7045 199.348 66.4638 210.361 70.0077 211.547C73.5516 212.733 91.6523 214.3 91.6523 214.3Z" fill="#FFF4F4"/>
<path d="M91.7794 214.3C91.7794 214.3 105.899 197.767 108.313 198.558C110.727 199.348 116.982 210.361 113.438 211.547C109.894 212.733 91.7794 214.3 91.7794 214.3Z" fill="#FFF4F4"/>
<path d="M95.9869 248.553L91.7371 241.169L87.3319 248.553V215.486H95.9869V248.553Z" fill="#FFF4F4"/>
<path d="M113.099 360.928L337.791 234.463L567.989 360.928V544.264H115.867L113.099 360.928Z" fill="#1E1E1E" stroke="#1E1E1E" stroke-width="0.776451" stroke-linecap="round" stroke-linejoin="round"/>
<path d="M508.731 268.574H172.386V567.702H508.731V268.574Z" fill="white" stroke="#1E1E1E" stroke-width="0.776451" stroke-miterlimit="10"/>
<path d="M210.973 320.956H465.993" stroke="#1E1E1E" stroke-width="0.776451" stroke-miterlimit="10"/>
<path d="M210.973 347.147H465.993" stroke="#1E1E1E" stroke-width="0.776451" stroke-miterlimit="10"/>
<path d="M210.973 373.338H465.993" stroke="#1E1E1E" stroke-width="0.776451" stroke-miterlimit="10"/>
<path d="M210.973 399.529H465.993" stroke="#1E1E1E" stroke-width="0.776451" stroke-miterlimit="10"/>
<path d="M210.973 425.72H465.993" stroke="#1E1E1E" stroke-width="0.776451" stroke-miterlimit="10"/>
<path d="M210.973 451.911H465.993" stroke="#1E1E1E" stroke-width="0.776451" stroke-miterlimit="10"/>
<path d="M567.989 613.194H113.099V360.928L340.558 515.32L567.989 360.928V613.194Z" fill="#FFF4F4" stroke="#1E1E1E" stroke-width="0.776451" stroke-miterlimit="10"/>
<path d="M113.099 613.194L278.491 473.118" stroke="#1E1E1E" stroke-width="0.776451" stroke-miterlimit="10"/>
<path d="M567.269 613.194L403.106 472.892" stroke="#1E1E1E" stroke-width="0.776451" stroke-miterlimit="10"/>
<path d="M389.749 185.187C389.749 185.187 388.041 193.178 390.328 195.748C392.616 198.318 401.172 207.453 401.172 208.879C401.172 210.305 398.348 251.42 398.348 251.42L385.217 242.002L377.226 266.555C377.226 266.555 397.204 275.126 406.636 276.834C416.068 278.543 417.762 275.973 417.762 268.56C417.762 261.148 410.335 204.318 410.335 204.318C410.335 204.318 412.622 191.188 412.622 188.9C412.622 186.613 413.484 185.469 411.479 184.326C409.474 183.182 393.209 181.502 393.209 181.502C393.209 181.502 389.749 182.9 389.749 185.187Z" fill="white" stroke="#1E1E1E" stroke-width="0.776451" stroke-linecap="round" stroke-linejoin="round"/>
<path d="M385.514 245.461L381.179 267.459L377.198 266.555L385.514 245.461Z" fill="#1E1E1E" stroke="#1E1E1E" stroke-width="0.776451" stroke-linecap="round" stroke-linejoin="round"/>
<path d="M417.522 191.597L385.175 187.248V179.186C385.175 178.812 385.324 178.453 385.588 178.188C385.853 177.923 386.212 177.774 386.587 177.774C386.961 177.774 387.32 177.923 387.585 178.188C387.85 178.453 387.999 178.812 387.999 179.186V184.834L415.037 188.477L415.503 181.954C415.473 181.745 415.491 181.532 415.554 181.331C415.617 181.13 415.725 180.946 415.868 180.792C416.012 180.638 416.189 180.518 416.385 180.441C416.581 180.364 416.792 180.332 417.002 180.347C417.212 180.362 417.416 180.424 417.599 180.528C417.782 180.633 417.94 180.776 418.06 180.949C418.18 181.122 418.26 181.32 418.294 181.528C418.328 181.736 418.315 181.949 418.256 182.151L417.522 191.597Z" fill="#1E1E1E"/>
<path d="M392.616 188.9L410.307 190.609L411.451 184.326L393.181 181.474L392.616 188.9Z" fill="white" stroke="#1E1E1E" stroke-width="0.776451" stroke-linecap="round" stroke-linejoin="round"/>
<path d="M389.467 189.762C389.467 189.762 389.467 182.617 390.328 182.053C391.19 181.488 403.459 182.335 403.459 184.043C403.459 185.752 403.459 186.613 402.047 186.613C400.635 186.613 397.812 186.895 397.812 186.895C397.812 186.895 404.377 192.896 402.372 198.318" fill="white"/>
<path d="M389.467 189.762C389.467 189.762 389.467 182.617 390.328 182.053C391.19 181.488 403.459 182.335 403.459 184.043C403.459 185.752 403.459 186.613 402.047 186.613C400.635 186.613 397.812 186.895 397.812 186.895C397.812 186.895 404.377 192.896 402.372 198.318" stroke="#1E1E1E" stroke-width="0.776451" stroke-linecap="round" stroke-linejoin="round"/>
<path d="M398.32 251.42L397.176 263.986" stroke="#1E1E1E" stroke-width="0.776451" stroke-linecap="round" stroke-linejoin="round"/>
<path d="M253.331 245.941C253.331 245.941 212.978 277.427 214.023 280.83C215.068 284.232 245 312.852 254.898 319.869C264.795 326.886 270.259 330.035 270.259 330.035L276.5 333.932C276.5 333.932 273.902 338.168 275.469 338.888C277.037 339.608 282.755 342.53 283.531 340.963C284.308 339.396 288.487 327.691 287.965 324.825C287.442 321.959 272.335 319.615 271.304 318.57C270.273 317.525 245.523 279.037 245.523 279.037L264.795 263.943L253.331 245.941Z" fill="white" stroke="#1E1E1E" stroke-width="0.776451" stroke-linecap="round" stroke-linejoin="round"/>
<path d="M252.639 246.986L259.967 266.852L264.795 263.901L252.639 246.986Z" fill="#1E1E1E" stroke="#1E1E1E" stroke-width="0.776451" stroke-linecap="round" stroke-linejoin="round"/>
<path d="M276.5 333.904C276.5 333.904 278.335 337.815 281.456 338.139" stroke="#1E1E1E" stroke-width="0.776451" stroke-linecap="round" stroke-linejoin="round"/>
<path d="M245.523 278.994L240.313 269.887" stroke="#1E1E1E" stroke-width="0.776451" stroke-linecap="round" stroke-linejoin="round"/>
<path d="M280.157 564.074L279.733 587.215L298.695 587.624L300.375 562.407L280.157 564.074Z" fill="white" stroke="#1E1E1E" stroke-width="0.776451" stroke-linecap="round" stroke-linejoin="round"/>
<path d="M280.227 562.817V568.535L299.895 569.453L300.347 563.509L280.227 562.817Z" fill="#1E1E1E" stroke="#1E1E1E" stroke-width="0.776451" stroke-linecap="round" stroke-linejoin="round"/>
<path d="M289.108 581.172C289.108 581.172 286.609 571.373 282.854 571.161C279.098 570.949 277.206 573.872 275.794 576.583C274.382 579.294 265.162 588.457 262.028 590.702C258.893 592.947 252.032 595.912 250.987 602.576C249.942 609.241 253.895 611.966 256.634 612.587C259.374 613.208 271.643 613.42 278.943 612.587C286.242 611.754 306.136 613.73 307.294 612.587C308.452 611.443 310.005 607.786 308.96 605.287C308.141 603.468 307.163 601.724 306.037 600.077C306.037 600.077 308.127 594.034 306.87 590.702C305.614 587.37 303.115 583.191 303.538 581.313C303.962 579.435 308.536 575.482 305.416 575.27C302.296 575.058 297.283 578.814 294.121 579.859C292.495 580.454 290.817 580.893 289.108 581.172Z" fill="#1E1E1E" stroke="#1E1E1E" stroke-width="0.776451" stroke-linecap="round" stroke-linejoin="round"/>
<path d="M302.451 600.967C299.528 601.391 288.332 606.798 281.188 608.478C274.043 610.159 267.859 610.342 264.513 608.676C261.167 607.01 258.258 602.012 255.759 598.877C253.26 595.743 251.184 603.678 251.184 603.678L250.831 603.833C250.408 609.636 254.051 612.051 256.592 612.644C259.134 613.237 271.601 613.477 278.9 612.644C286.2 611.81 306.094 613.787 307.251 612.644C308.409 611.5 309.962 607.843 308.918 605.344C308.099 603.525 307.121 601.781 305.995 600.134C304.752 599.922 305.374 600.558 302.451 600.967Z" fill="white" stroke="#1E1E1E" stroke-width="0.776451" stroke-linecap="round" stroke-linejoin="round"/>
<path d="M272.095 582.4C272.095 582.4 277.742 581.158 284.802 588.048L281.06 591.168C281.06 591.168 273.761 585.521 269.172 585.521L272.095 582.4Z" fill="white" stroke="#1E1E1E" stroke-width="0.776451" stroke-linecap="round" stroke-linejoin="round"/>
<path d="M266.814 586.636C266.814 586.636 272.462 585.379 279.521 592.284L275.78 595.418C275.78 595.418 268.48 589.77 263.892 589.77L266.814 586.636Z" fill="white" stroke="#1E1E1E" stroke-width="0.776451" stroke-linecap="round" stroke-linejoin="round"/>
<path d="M283.277 585.958L289.108 581.172" stroke="#1E1E1E" stroke-width="0.776451" stroke-linecap="round" stroke-linejoin="round"/>
<path d="M275.78 595.347C275.78 595.347 277.192 598.468 274.735 600.346C272.278 602.223 255.759 599.089 255.971 596.802C256.183 594.514 263.892 589.742 263.892 589.742C268.201 590.765 272.249 592.674 275.78 595.347Z" fill="white" stroke="#1E1E1E" stroke-width="0.776451" stroke-linecap="round" stroke-linejoin="round"/>
<path d="M399.76 564.074L400.169 587.215L381.207 587.624L379.541 562.407L399.76 564.074Z" fill="white" stroke="#1E1E1E" stroke-width="0.776451" stroke-linecap="round" stroke-linejoin="round"/>
<path d="M379.908 566.7V570.131L400.028 569.905L399.802 564.878L379.457 564.652L379.908 566.7Z" fill="#1E1E1E" stroke="#1E1E1E" stroke-width="0.776451" stroke-linecap="round" stroke-linejoin="round"/>
<path d="M390.794 581.172C390.794 581.172 393.293 571.373 397.049 571.161C400.805 570.949 402.697 573.872 404.109 576.583C405.521 579.294 414.74 588.457 417.861 590.702C420.981 592.947 427.871 595.912 428.902 602.576C429.932 609.241 425.993 611.966 423.254 612.587C420.515 613.208 408.246 613.42 400.946 612.587C393.646 611.754 373.753 613.73 372.609 612.587C371.465 611.443 369.898 607.786 370.929 605.287C371.748 603.468 372.726 601.724 373.851 600.077C373.851 600.077 371.762 594.034 373.018 590.702C374.275 587.37 376.774 583.191 376.35 581.313C375.927 579.435 371.352 575.482 374.473 575.27C377.593 575.058 382.605 578.814 385.768 579.859C387.398 580.456 389.081 580.896 390.794 581.172Z" fill="#1E1E1E" stroke="#1E1E1E" stroke-width="0.776451" stroke-linecap="round" stroke-linejoin="round"/>
<path d="M377.452 600.967C380.374 601.391 391.571 606.798 398.715 608.478C405.859 610.159 412.058 610.342 415.39 608.676C418.722 607.01 421.645 602.012 424.144 598.877C426.643 595.743 428.732 603.678 428.732 603.678L429.071 603.833C429.495 609.636 425.852 612.051 423.311 612.644C420.769 613.237 408.302 613.477 401.002 612.644C393.703 611.81 373.809 613.787 372.665 612.644C371.522 611.5 369.955 607.843 370.985 605.344C371.804 603.525 372.782 601.781 373.908 600.134C375.164 599.922 374.529 600.558 377.452 600.967Z" fill="white" stroke="#1E1E1E" stroke-width="0.776451" stroke-linecap="round" stroke-linejoin="round"/>
<path d="M407.878 582.4C407.878 582.4 402.231 581.158 395.171 588.048L398.927 591.168C398.927 591.168 406.212 585.521 410.801 585.521L407.878 582.4Z" fill="white" stroke="#1E1E1E" stroke-width="0.776451" stroke-linecap="round" stroke-linejoin="round"/>
<path d="M413.088 586.636C413.088 586.636 407.441 585.379 400.381 592.284L404.137 595.418C404.137 595.418 411.422 589.77 416.011 589.77L413.088 586.636Z" fill="white" stroke="#1E1E1E" stroke-width="0.776451" stroke-linecap="round" stroke-linejoin="round"/>
<path d="M396.626 585.958L390.794 581.172" stroke="#1E1E1E" stroke-width="0.776451" stroke-linecap="round" stroke-linejoin="round"/>
<path d="M404.137 595.347C404.137 595.347 402.725 598.468 405.168 600.346C407.61 602.223 424.144 599.089 423.932 596.802C423.72 594.514 416.011 589.742 416.011 589.742C411.706 590.764 407.662 592.673 404.137 595.347Z" fill="white" stroke="#1E1E1E" stroke-width="0.776451" stroke-linecap="round" stroke-linejoin="round"/>
<path d="M288.868 319.785C288.868 319.785 277.841 364.81 273.704 402.96C269.567 441.11 263.129 566.079 263.129 566.079H313.676C313.676 566.079 328.84 439.246 331.141 416.741C333.442 394.235 333.428 380.031 333.428 380.031L361.921 566.135H422.11C422.11 566.135 399.139 448.043 389.947 393.882C380.756 339.721 367.893 318.528 367.893 318.528L288.868 319.785Z" fill="#B0B0B0" stroke="#1E1E1E" stroke-width="0.776451" stroke-linecap="round" stroke-linejoin="round"/>
<path d="M332.059 323.046C331.621 324.359 319.648 342.347 323.319 343.716C326.99 345.086 333.894 345.128 333.894 341.429V326.717C333.894 326.717 334.812 347.402 338.949 346.484C343.086 345.566 348.592 346.484 347.223 341.881C345.853 337.278 335.278 322.608 335.278 322.608C335.278 322.608 333.428 318.909 332.059 323.046Z" fill="#B0B0B0" stroke="#1E1E1E" stroke-width="0.776451" stroke-linecap="round" stroke-linejoin="round"/>
<path d="M333.951 324.557C333.951 324.557 344.371 339.354 343.368 340.695C342.366 342.036 341.01 343.378 340.008 341.373C339.005 339.368 333.951 324.557 333.951 324.557Z" stroke="#1E1E1E" stroke-width="0.776451" stroke-miterlimit="10"/>
<path d="M333.612 322.877C333.612 322.877 325.875 339.354 326.891 340.017C327.254 340.241 327.665 340.376 328.089 340.409C328.514 340.443 328.941 340.375 329.335 340.21C329.728 340.046 330.076 339.791 330.351 339.465C330.626 339.139 330.819 338.752 330.915 338.337C331.593 335.993 333.612 322.877 333.612 322.877Z" stroke="#1E1E1E" stroke-width="0.776451" stroke-miterlimit="10"/>
<path d="M365.013 369.837C365.436 372.166 365.803 374.369 366.058 376.346" stroke="#1E1E1E" stroke-width="0.776451" stroke-linecap="round" stroke-linejoin="round"/>
<path d="M354.113 324.43C354.113 324.43 359.845 344.902 363.53 362.283" stroke="#1E1E1E" stroke-width="0.776451" stroke-linecap="round" stroke-linejoin="round"/>
<path d="M349.976 324.43C349.976 324.43 353.647 350.155 355.482 357.045" stroke="#1E1E1E" stroke-width="0.776451" stroke-linecap="round" stroke-linejoin="round"/>
<path d="M299.966 360.052C299.768 361.831 299.599 363.455 299.429 364.853" stroke="#1E1E1E" stroke-width="0.776451" stroke-linecap="round" stroke-linejoin="round"/>
<path d="M303.566 324.43C303.566 324.43 302.042 340.144 300.743 353.134" stroke="#1E1E1E" stroke-width="0.776451" stroke-linecap="round" stroke-linejoin="round"/>
<path d="M299.895 325.347L298.046 347.401" stroke="#1E1E1E" stroke-width="0.776451" stroke-linecap="round" stroke-linejoin="round"/>
<path d="M332.087 136.942C332.087 136.942 349.213 138.65 345.218 147.503C341.222 156.356 337.226 158.064 336.365 158.064C335.504 158.064 328.656 147.503 328.656 147.503L332.087 136.942Z" fill="#1E1E1E" stroke="#1E1E1E" stroke-width="0.776451" stroke-linecap="round" stroke-linejoin="round"/>
<path d="M330.082 145.216C330.082 145.216 336.648 148.929 338.652 155.777C340.657 162.625 345.783 164.629 347.223 164.347C348.663 164.065 350.64 168.343 348.931 171.195L347.223 174.019C347.223 174.019 348.635 193.432 346.926 196.002C345.218 198.572 334.657 197.146 334.657 197.146C334.657 197.146 332.369 206.281 334.374 211.999C336.379 217.717 342.366 220.555 344.653 220.555C346.94 220.555 351.783 217.731 358.349 221.134C364.914 224.537 386.897 241.113 386.897 241.113L375.165 273.191L362.598 266.626L371.451 321.154L285.805 323.159C285.805 323.159 286.666 284.331 284.393 277.187C282.804 272.452 280.796 267.869 278.392 263.492L267.549 272.048L252.413 245.786C252.413 245.786 274.679 223.52 283.475 221.515C292.271 219.51 302.889 222.094 306.32 217.802C309.751 213.51 306.884 193.249 306.884 193.249C306.884 193.249 298.611 190.425 293.754 175.84C288.897 161.255 305.458 146.19 305.458 146.19C305.458 146.19 312.956 138.368 330.082 145.216Z" fill="white" stroke="#1E1E1E" stroke-width="0.776451" stroke-linecap="round" stroke-linejoin="round"/>
<path d="M334.657 197.174L326.933 195.875L333.132 203.005L334.657 197.174Z" fill="#1E1E1E" stroke="#1E1E1E" stroke-width="0.776451" stroke-linecap="round" stroke-linejoin="round"/>
<path d="M331.028 160.676C331.028 160.676 331.028 155.254 335.885 155.254" stroke="#1E1E1E" stroke-width="1.5529" stroke-linecap="round" stroke-linejoin="round"/>
<path d="M343.792 180.33L333.795 175.473C333.795 175.473 332.948 185.752 336.619 185.469C340.29 185.187 343.792 180.33 343.792 180.33Z" fill="#1E1E1E" stroke="#1E1E1E" stroke-width="0.776451" stroke-linecap="round" stroke-linejoin="round"/>
<path d="M334.007 165.971C334.007 165.971 337.226 162.483 339.909 165.434" stroke="#1E1E1E" stroke-width="0.776451" stroke-linecap="round" stroke-linejoin="round"/>
<path d="M333.725 178.734L342.705 181.657C343.091 181.235 343.454 180.792 343.792 180.33L333.795 175.487C333.795 175.487 333.682 176.941 333.725 178.734Z" fill="white" stroke="#1E1E1E" stroke-width="0.776451" stroke-linecap="round" stroke-linejoin="round"/>
<path d="M277.841 157.499C277.841 157.499 271.558 144.651 262.706 146.077C253.853 147.503 247.005 157.203 249.857 170.912C249.857 170.912 251.269 174.626 252.427 177.76C252.427 177.76 241.301 174.343 235.3 181.756C229.3 189.168 233.888 196.892 240.722 200.605C247.556 204.318 251.58 204.036 251.58 204.036C251.58 204.036 236.444 208.596 241.866 214.315C247.287 220.033 263.849 216.305 260.418 211.491C256.987 206.676 254.432 207.255 254.432 207.255C254.432 207.255 268.127 202.116 266.701 198.402C265.275 194.689 258.427 191.837 258.427 191.837C258.427 191.837 271.558 196.412 278.703 192.119C285.847 187.827 279.55 169.529 279.55 169.529L277.841 157.499Z" fill="#1E1E1E" stroke="#1E1E1E" stroke-width="0.776451" stroke-linecap="round" stroke-linejoin="round"/>
<path d="M335.221 130.659C335.221 130.659 337.509 138.65 333.513 145.498C329.517 152.346 320.947 164.065 319.803 177.195C318.66 190.326 322.373 206.606 324.66 212.027C326.948 217.449 321.837 218.593 318.095 218.31C314.353 218.028 312.956 215.741 312.956 210.601C312.956 205.462 311.812 196.327 311.812 196.327C311.812 196.327 297.255 194.915 290.407 190.891C283.56 186.867 273.563 173.2 277.841 157.499C282.119 141.799 293.542 137.224 300.432 134.372C307.322 131.52 316.711 131.802 323.277 130.376C329.842 128.95 334.939 127.228 335.221 130.659Z" fill="#1E1E1E" stroke="#1E1E1E" stroke-width="0.776451" stroke-linecap="round" stroke-linejoin="round"/>
<path d="M314.452 170.63L311.883 180.909C311.883 180.909 306.461 178.339 305.6 173.764C304.738 169.19 311.247 166.917 315.878 170.941" fill="white"/>
<path d="M314.452 170.63L311.883 180.909C311.883 180.909 306.461 178.339 305.6 173.764C304.738 169.19 311.247 166.917 315.878 170.941" stroke="#1E1E1E" stroke-width="0.776451" stroke-linecap="round" stroke-linejoin="round"/>
<path d="M397.755 186.895L394.042 187.192" stroke="#1E1E1E" stroke-width="0.776451" stroke-linecap="round" stroke-linejoin="round"/>
<path d="M371.042 178.65L466.205 191.964L453.271 121.566L368.105 162.582L371.042 178.65Z" fill="#FFF4F4" stroke="#1E1E1E" stroke-width="0.776451" stroke-linecap="round" stroke-linejoin="round"/>
<path d="M368.099 162.585L353.96 165.17L356.885 181.17L371.024 178.585L368.099 162.585Z" fill="#FFF4F4" stroke="#1E1E1E" stroke-width="0.776451" stroke-linecap="round" stroke-linejoin="round"/>
<path d="M386.897 241.141C386.897 241.141 364.914 224.579 358.349 221.162C351.783 217.746 347.053 220.513 344.752 220.584C341.691 224.991 337.57 228.558 332.768 230.953C327.966 233.349 322.638 234.498 317.276 234.293C298.498 234.053 293.274 223.605 292.144 220.555C289.27 220.583 286.406 220.881 283.588 221.445C274.735 223.45 252.526 245.716 252.526 245.716L267.661 271.977L278.505 263.421C280.909 267.798 282.917 272.382 284.506 277.116C286.793 284.261 285.917 323.088 285.917 323.088L371.564 321.083L362.711 266.555L375.164 273.191L386.897 241.141Z" fill="#1E1E1E" stroke="#1E1E1E" stroke-width="0.776451" stroke-linecap="round" stroke-linejoin="round"/>
<path d="M332.71 295.518C346.865 292.148 355.608 277.942 352.239 263.787C348.869 249.632 334.663 240.888 320.507 244.258C306.352 247.628 297.609 261.834 300.979 275.989C304.348 290.144 318.555 298.888 332.71 295.518Z" stroke="white" stroke-width="0.776451" stroke-miterlimit="10"/>
<path d="M342.705 257.943H311.459L326.863 272.782L342.705 257.943Z" fill="#FFF4F4"/>
<path d="M333.118 269.506L343.989 279.107V259.312L333.118 269.506Z" fill="#FFF4F4"/>
<path d="M320.721 269.478L309.708 258.86V278.655L320.721 269.478Z" fill="#FFF4F4"/>
<path d="M331.734 270.791L326.849 275.38L322.091 270.791L310.626 280.35H342.549L331.734 270.791Z" fill="#FFF4F4"/>
</svg>
