<svg width="92" height="136" viewBox="0 0 92 136" fill="none" xmlns="http://www.w3.org/2000/svg">
<path d="M58.4593 86.4023C67.603 67.6805 60.3215 44.1743 42.1957 33.8998C24.0698 23.6253 1.96349 30.4732 -7.18021 49.195C-16.3239 67.9168 -9.04242 91.4229 9.08343 101.697C27.2093 111.972 49.3156 105.124 58.4593 86.4023Z" fill="url(#paint0_linear_1734_6279)"/>
<path d="M21.5697 110.231C0.251965 105.943 -14.3755 84.306 -11.0316 62.0126C-7.68773 39.7193 12.3782 25.072 33.7027 29.3745C55.0271 33.677 69.6479 55.2995 66.3033 77.5907C62.9587 99.8819 42.8915 114.525 21.5697 110.231ZM32.9635 34.2916C14.2365 30.5175 -3.38983 43.3791 -6.32672 62.9608C-9.26362 82.5425 3.57991 101.541 22.3089 105.314C41.0378 109.087 58.6615 96.2243 61.5984 76.6425C64.5353 57.0608 51.6918 38.0629 32.9635 34.2916Z" fill="#894D05"/>
<path d="M19.5721 108.222C-1.74766 103.935 -16.3751 82.2979 -13.0313 60.0044C-9.68744 37.711 10.3859 23.0803 31.7036 27.3683C53.0213 31.6564 67.6495 53.2886 64.2996 75.5839C60.9496 97.8793 40.8919 112.517 19.5721 108.222ZM30.9658 32.2826C12.2368 28.5091 -5.38752 41.3702 -8.32642 60.9526C-11.2653 80.535 1.5803 99.5325 20.3093 103.306C39.0383 107.079 56.6619 94.2163 59.6008 74.6338C62.5397 55.0514 49.6921 36.0546 30.9658 32.2826Z" fill="url(#paint1_linear_1734_6279)"/>
<path d="M40.2666 82.9385C41.2867 76.168 37.6057 71.5523 29.7208 66.8655C23.2896 63.033 20.6109 60.3088 21.2534 55.9923C21.7261 52.846 24.8411 49.6033 31.577 50.9547C34.8168 51.5871 37.9038 52.9784 40.6066 55.024L43.0913 50.5228C41.0711 48.9181 37.5742 47.0891 32.5339 46.0719L32.448 46.082L33.4987 39.0795L29.5801 38.2902L28.4761 45.6383C20.9853 45.4442 15.6378 49.279 14.7172 55.4007C13.7433 61.8964 18.1318 66.7973 25.7744 71.0832C32.0679 74.8162 34.3337 77.8104 33.6892 82.1275C32.9922 86.7782 28.7068 89.2257 22.1994 87.9148C18.2216 87.085 14.4621 85.2559 11.2452 82.5853L8.88785 87.2531C11.2755 89.4258 16.2727 91.7704 21.0249 92.7276C21.1554 92.7535 21.2778 92.7676 21.4056 92.792L20.523 98.6769L24.4437 99.4655L25.3718 93.2752C34.2819 93.695 39.3411 89.109 40.2666 82.9385Z" fill="#894D05"/>
<path d="M38.9818 81.2985C40.0013 74.5258 36.3189 69.9129 28.4354 65.2233C22.0049 61.393 19.3242 58.6695 19.968 54.3502C20.4394 51.2066 23.5557 47.9611 30.2903 49.3153C33.5305 49.9477 36.6182 51.3387 39.3219 53.384L41.8045 48.8834C39.7864 47.2781 36.2874 45.4497 31.2465 44.4304L31.16 44.4169L32.2106 37.4144L28.2893 36.6236L27.1881 43.9733C19.6973 43.7792 14.347 47.6125 13.4292 53.7356C12.4533 60.232 16.8411 65.1307 24.4844 69.4188C30.7799 73.1512 33.0436 76.146 32.4012 80.4625C31.7015 85.1117 27.4167 87.5613 20.9094 86.2504C16.9331 85.4264 13.1732 83.605 9.95304 80.9428L7.59572 85.6106C9.98065 87.7818 14.9785 90.1286 19.7327 91.0851C19.8632 91.111 19.9829 91.1237 20.1134 91.1495L19.2309 97.0345L23.1495 97.8237L24.0797 91.6328C32.9932 92.0563 38.0544 87.4696 38.9818 81.2985Z" fill="url(#paint2_linear_1734_6279)"/>
<defs>
<linearGradient id="paint0_linear_1734_6279" x1="96132.4" y1="47100.2" x2="103920" y2="79024.5" gradientUnits="userSpaceOnUse">
<stop stop-color="#FADD10"/>
<stop offset="0.09" stop-color="#F4CE0F"/>
<stop offset="0.26" stop-color="#E5A70B"/>
<stop offset="0.35" stop-color="#DB8F09"/>
<stop offset="0.53" stop-color="#FACC0D"/>
<stop offset="0.58" stop-color="#F0BD0C"/>
<stop offset="0.68" stop-color="#D5960A"/>
<stop offset="0.7" stop-color="#CE8C0A"/>
<stop offset="1" stop-color="#FAE841"/>
</linearGradient>
<linearGradient id="paint1_linear_1734_6279" x1="204164" y1="-27484.3" x2="178438" y2="-46620.3" gradientUnits="userSpaceOnUse">
<stop offset="0.06" stop-color="#FDF910"/>
<stop offset="0.11" stop-color="#FAEA10"/>
<stop offset="0.21" stop-color="#F4C311"/>
<stop offset="0.26" stop-color="#F0AD12"/>
<stop offset="0.3" stop-color="#F5C92F"/>
<stop offset="0.34" stop-color="#F8DF47"/>
<stop offset="0.38" stop-color="#FBEE57"/>
<stop offset="0.42" stop-color="#FDF761"/>
<stop offset="0.48" stop-color="#FDFA64"/>
<stop offset="0.52" stop-color="#FDF660"/>
<stop offset="0.56" stop-color="#FCE954"/>
<stop offset="0.61" stop-color="#FAD33F"/>
<stop offset="0.65" stop-color="#F7B523"/>
<stop offset="0.69" stop-color="#F59909"/>
<stop offset="0.89" stop-color="#FDFA6D"/>
</linearGradient>
<linearGradient id="paint2_linear_1734_6279" x1="60134.9" y1="45415.3" x2="54394.5" y2="32409.9" gradientUnits="userSpaceOnUse">
<stop stop-color="#FDFA6D"/>
<stop offset="0.06" stop-color="#FBF25E"/>
<stop offset="0.16" stop-color="#F6DD37"/>
<stop offset="0.26" stop-color="#F0C70E"/>
<stop offset="0.53" stop-color="#FDFA64"/>
<stop offset="0.58" stop-color="#FCF255"/>
<stop offset="0.67" stop-color="#F9DC2E"/>
<stop offset="0.75" stop-color="#F6C80A"/>
<stop offset="1" stop-color="#FDFB8E"/>
</linearGradient>
</defs>
</svg>
