<svg width="62" height="108" viewBox="0 0 62 108" fill="none" xmlns="http://www.w3.org/2000/svg">
<path d="M39.9865 80.6279C52.1343 65.7847 52.1343 41.7192 39.9865 26.876C27.8388 12.0329 8.14329 12.0329 -4.00449 26.876C-16.1523 41.7192 -16.1523 65.7847 -4.00449 80.6279C8.1433 95.471 27.8387 95.471 39.9865 80.6279Z" fill="url(#paint0_linear_1501_5728)"/>
<path d="M3.99691 92.2142C-12.2532 82.0397 -18.6957 57.5944 -10.3634 37.7365C-2.03105 17.8786 17.9698 10.0022 34.2218 20.1922C50.4737 30.3821 56.9144 54.8119 48.582 74.6676C40.2497 94.5233 20.2489 102.395 3.99691 92.2142ZM32.3826 24.5716C18.1092 15.627 0.541238 22.5412 -6.77739 39.9837C-14.096 57.4263 -8.43916 78.89 5.83605 87.8347C20.1113 96.7794 37.6774 89.863 44.9961 72.4204C52.3147 54.9778 46.6578 33.5141 32.3826 24.5716Z" fill="#894D05"/>
<path d="M2.87851 89.7642C-13.3734 79.5897 -19.8159 55.1445 -11.4836 35.2866C-3.15124 15.4286 16.8514 7.56997 33.1015 17.7444C49.3516 27.9189 55.7959 52.3598 47.4581 72.2177C39.1204 92.0756 19.1286 99.9453 2.87851 89.7642ZM31.2642 22.1217C16.989 13.177 -0.577156 20.0912 -7.89758 37.5338C-15.218 54.9764 -9.55932 76.4401 4.71586 85.3848C18.991 94.3295 36.5571 87.413 43.8776 69.9704C51.198 52.5279 45.5375 31.0642 31.2642 22.1217Z" fill="url(#paint1_linear_1501_5728)"/>
<path d="M26.0689 72.1309C28.6032 66.1014 26.7731 60.7245 21.5434 54.0646C17.2805 48.6235 15.7889 45.3035 17.3981 41.4571C18.5747 38.6547 21.9236 36.5269 27.0591 39.7385C29.5335 41.2668 31.6927 43.4597 33.3748 46.1528L36.5282 42.667C35.29 40.5834 32.9078 37.8629 29.0666 35.4542L28.9942 35.4387L31.6117 29.2013L28.6249 27.3301L25.8771 33.8749C19.8365 31.5259 14.5235 33.5608 12.2337 39.013C9.80619 44.7992 12.1395 50.6473 17.2732 56.8626C21.4493 62.171 22.5373 65.6237 20.9262 69.4701C19.1884 73.6129 15.0883 74.6591 10.1284 71.5514C7.10369 69.6253 4.50802 66.8287 2.56543 63.403L-0.526367 67.0813C0.867479 69.8018 4.33942 73.4381 7.96161 75.7075C8.06117 75.7694 8.15711 75.8181 8.25486 75.8778L6.05548 81.1198L9.0441 82.9911L11.3575 77.4769C18.4951 80.4474 23.7627 77.6273 26.0689 72.1309Z" fill="#894D05"/>
<path d="M25.4367 70.2259C27.971 64.1942 26.139 58.8194 20.9112 52.1573C16.6482 46.7184 15.1548 43.3984 16.7659 39.5498C17.9407 36.7496 21.2914 34.6196 26.4251 37.8334C28.9 39.3619 31.0597 41.5547 32.7426 44.2478L35.8942 40.7619C34.6578 38.6783 32.2738 35.9578 28.4326 33.5469L28.3656 33.5093L30.9831 27.2719L27.9945 25.3984L25.2484 31.9455C19.2078 29.5965 13.8931 31.6292 11.605 37.0836C9.17573 42.8698 11.5091 48.7157 16.6428 54.9332C20.8207 60.2416 21.9068 63.6943 20.2976 67.5407C18.558 71.6812 14.4579 72.7297 9.49797 69.622C6.47303 67.7016 3.87513 64.9122 1.92774 61.4935L-1.16406 65.1718C0.227975 67.8901 3.69992 71.5286 7.32393 73.798C7.42349 73.8599 7.51762 73.9064 7.61718 73.9683L5.41779 79.2104L8.4046 81.0816L10.7198 75.5675C17.8592 78.5424 23.1287 75.7223 25.4367 70.2259Z" fill="url(#paint2_linear_1501_5728)"/>
<defs>
<linearGradient id="paint0_linear_1501_5728" x1="66302.7" y1="71800.2" x2="64049.2" y2="103838" gradientUnits="userSpaceOnUse">
<stop stop-color="#FADD10"/>
<stop offset="0.09" stop-color="#F4CE0F"/>
<stop offset="0.26" stop-color="#E5A70B"/>
<stop offset="0.35" stop-color="#DB8F09"/>
<stop offset="0.53" stop-color="#FACC0D"/>
<stop offset="0.58" stop-color="#F0BD0C"/>
<stop offset="0.68" stop-color="#D5960A"/>
<stop offset="0.7" stop-color="#CE8C0A"/>
<stop offset="1" stop-color="#FAE841"/>
</linearGradient>
<linearGradient id="paint1_linear_1501_5728" x1="172907" y1="33387.7" x2="153787" y2="10607.2" gradientUnits="userSpaceOnUse">
<stop offset="0.06" stop-color="#FDF910"/>
<stop offset="0.11" stop-color="#FAEA10"/>
<stop offset="0.21" stop-color="#F4C311"/>
<stop offset="0.26" stop-color="#F0AD12"/>
<stop offset="0.3" stop-color="#F5C92F"/>
<stop offset="0.34" stop-color="#F8DF47"/>
<stop offset="0.38" stop-color="#FBEE57"/>
<stop offset="0.42" stop-color="#FDF761"/>
<stop offset="0.48" stop-color="#FDFA64"/>
<stop offset="0.52" stop-color="#FDF660"/>
<stop offset="0.56" stop-color="#FCE954"/>
<stop offset="0.61" stop-color="#FAD33F"/>
<stop offset="0.65" stop-color="#F7B523"/>
<stop offset="0.69" stop-color="#F59909"/>
<stop offset="0.89" stop-color="#FDFA6D"/>
</linearGradient>
<linearGradient id="paint2_linear_1501_5728" x1="37463.3" y1="59809.5" x2="35633.7" y2="46057.5" gradientUnits="userSpaceOnUse">
<stop stop-color="#FDFA6D"/>
<stop offset="0.06" stop-color="#FBF25E"/>
<stop offset="0.16" stop-color="#F6DD37"/>
<stop offset="0.26" stop-color="#F0C70E"/>
<stop offset="0.53" stop-color="#FDFA64"/>
<stop offset="0.58" stop-color="#FCF255"/>
<stop offset="0.67" stop-color="#F9DC2E"/>
<stop offset="0.75" stop-color="#F6C80A"/>
<stop offset="1" stop-color="#FDFB8E"/>
</linearGradient>
</defs>
</svg>
