<svg width="80" height="77" viewBox="0 0 80 77" fill="none" xmlns="http://www.w3.org/2000/svg">
<path d="M109.155 8.34766C113.933 18.9692 94.4424 39.4623 65.625 54.1156C36.8076 68.769 9.59388 72.0407 4.79259 61.4192C-0.00869131 50.7977 19.5056 30.3046 48.323 15.6512C77.1403 0.997858 104.378 -2.27384 109.155 8.34766Z" fill="url(#paint0_linear_1501_5779)"/>
<path d="M70.7456 63.976C40.1072 79.5539 10.1886 81.1255 4.04929 67.4737C-2.08998 53.8219 17.8397 30.0468 48.4878 14.4689C79.1358 -1.10895 109.045 -2.68061 115.184 10.9661C121.323 24.6127 101.379 48.3981 70.7456 63.976ZM53.8107 16.2101C26.9013 29.8978 8.63804 49.0812 13.1012 59.0145C17.5644 68.9478 43.0827 65.8712 69.9921 52.1886C96.9015 38.506 115.165 19.3174 110.702 9.38414C106.238 -0.549126 80.7201 2.54797 53.8107 16.2306V16.2101Z" fill="url(#paint1_linear_1501_5779)"/>
<path d="M66.1856 55.3583C35.5471 70.9412 6.48818 74.4287 1.41156 63.1343C-3.66506 51.84 17.1244 29.9807 47.7822 14.4028C78.4399 -1.17502 107.475 -4.66245 112.556 6.62674C117.638 17.9159 96.8192 39.7804 66.1856 55.3583ZM48.8835 16.8938C21.974 30.5765 3.71083 49.765 8.16917 59.6983C12.6275 69.6315 38.1555 66.555 65.0649 52.8672C91.9744 39.1795 110.238 19.9961 105.774 10.0628C101.311 0.129549 75.7929 3.21122 48.8835 16.8938Z" fill="url(#paint2_linear_1501_5779)"/>
<path d="M83.241 28.8921C81.7001 25.4612 74.7494 26.6579 62.0845 31.2239C51.7526 34.9476 46.9609 36.0621 45.9804 33.8793C45.2655 32.2871 48.0863 28.512 57.7517 23.607C62.2445 21.2892 66.9104 19.372 71.7015 17.8751L73.1168 14.1309C69.6969 15.1581 64.1953 17.2639 56.9451 20.9516L56.8195 21.0184L55.2255 17.4693L49.5934 20.3353L51.2647 24.0538C41.068 30.0374 35.4939 35.8361 36.8898 38.9486C38.3679 42.2409 46.4006 40.5819 58.568 36.0519C68.6729 32.4052 73.0201 31.7272 74.0007 33.9101C75.0585 36.2676 70.3297 40.6744 60.959 45.4253C55.4687 48.2352 49.7525 50.5162 43.8792 52.2409L42.7055 55.9441C46.8643 54.8501 54.6169 51.7171 61.4517 48.2399L61.9927 47.9574L63.3307 50.9415L68.9628 48.0755L67.5523 44.9374C79.7873 37.8752 84.6466 32.0149 83.241 28.8921Z" fill="#894D05"/>
<path d="M80.8014 29.2971C79.2557 25.8713 72.3049 27.0628 59.6448 31.6289C49.308 35.3525 44.5212 36.4671 43.5358 34.2842C42.821 32.6921 45.6418 28.917 55.3072 24.012C59.8 21.6942 64.4659 19.777 69.257 18.2801L70.6723 14.541C67.2524 15.5682 61.7508 17.6689 54.5005 21.3566L54.3749 21.4234L52.781 17.8744L47.144 20.73L48.8153 24.4537C38.6186 30.4322 33.0493 36.236 34.4404 39.3484C35.9233 42.6407 43.956 40.9817 56.1187 36.4568C66.2284 32.805 70.5708 32.1271 71.5755 34.3099C72.6382 36.6674 67.9045 41.0742 58.5338 45.8302C53.0425 48.6365 47.3266 50.9157 41.454 52.6407L40.2802 56.3439C44.4391 55.255 52.1965 52.1168 59.0265 48.6397L59.5675 48.3572L60.9103 51.3362L66.5424 48.4702L65.1319 45.3371C77.3477 38.2801 82.207 32.4455 80.8014 29.2971Z" fill="url(#paint3_linear_1501_5779)"/>
<path d="M12.4005 74.7476L11.1736 74.2288L8.72461 68.6973L9.85006 68.9797L12.4005 74.7476Z" fill="#B6591D"/>
<path d="M15.0814 75.5219L13.9801 75.2907L11.3281 69.2969L12.3908 69.4458L15.0814 75.5219Z" fill="#B6591D"/>
<path d="M18.182 76.2574L17.1 76.0674L14.2646 69.6523L15.2887 69.7191L18.182 76.2574Z" fill="#B6591D"/>
<path d="M21.3607 76.5901L20.3367 76.5387L17.3418 69.7642L18.3369 69.7539L21.3607 76.5901Z" fill="#B6591D"/>
<path d="M24.4131 76.7654L23.4132 76.7551L20.2832 69.6776L21.254 69.6211L24.4131 76.7654Z" fill="#B6591D"/>
<path d="M24.6592 69.4898L23.8418 69.8984L26.8175 76.6288L27.6349 76.2202L24.6592 69.4898Z" fill="#B6591D"/>
<path d="M31.3296 76.4464L30.3683 76.5388L27.0645 69.0657L27.9388 68.7832L31.3296 76.4464Z" fill="#B6591D"/>
<path d="M34.5128 76.0626L33.5709 76.191L30.127 68.4047L31.035 68.1992L34.5128 76.0626Z" fill="#B6591D"/>
<path d="M37.8851 75.5115L36.9577 75.6759L33.4316 67.6994L34.3156 67.4375L37.8851 75.5115Z" fill="#B6591D"/>
<path d="M41.8406 74.6955L40.9325 74.9009L37.3242 66.7447L38.1937 66.457L41.8406 74.6955Z" fill="#B6591D"/>
<path d="M48.1686 73.0318L47.2798 73.2783L43.5459 64.8345L44.4154 64.5469L48.1686 73.0318Z" fill="#B6591D"/>
<path d="M54.9791 70.8177L54.1145 71.1156L50.2793 62.4459L51.1294 62.1172L54.9791 70.8177Z" fill="#B6591D"/>
<path d="M70.7695 7.7468C70.7695 7.7468 97.6934 -1.37494 105.774 10.0632C105.774 10.0632 108.673 15.5075 101.91 24.4443C101.905 24.4187 118.299 -1.20032 70.7695 7.7468Z" fill="#FCE4C2"/>
<defs>
<linearGradient id="paint0_linear_1501_5779" x1="-232419" y1="213601" x2="-228459" y2="220307" gradientUnits="userSpaceOnUse">
<stop stop-color="#FADD10"/>
<stop offset="0.09" stop-color="#F4CE0F"/>
<stop offset="0.26" stop-color="#E5A70B"/>
<stop offset="0.35" stop-color="#DB8F09"/>
<stop offset="0.53" stop-color="#FACC0D"/>
<stop offset="0.58" stop-color="#F0BD0C"/>
<stop offset="0.68" stop-color="#D5960A"/>
<stop offset="0.7" stop-color="#CE8C0A"/>
<stop offset="1" stop-color="#FAE841"/>
</linearGradient>
<linearGradient id="paint1_linear_1501_5779" x1="138596" y1="-201354" x2="147530" y2="-223389" gradientUnits="userSpaceOnUse">
<stop offset="0.01" stop-color="#420F10"/>
<stop offset="0.08" stop-color="#AD4E11"/>
<stop offset="0.38" stop-color="#D78025"/>
<stop offset="0.56" stop-color="#FFEBCF"/>
<stop offset="0.7" stop-color="#F2B574"/>
<stop offset="0.8" stop-color="#E88829"/>
<stop offset="0.95" stop-color="#8C440E"/>
<stop offset="0.96" stop-color="#88410D"/>
</linearGradient>
<linearGradient id="paint2_linear_1501_5779" x1="147015" y1="-217239" x2="128637" y2="-218617" gradientUnits="userSpaceOnUse">
<stop offset="0.06" stop-color="#FDF910"/>
<stop offset="0.11" stop-color="#FAEA10"/>
<stop offset="0.21" stop-color="#F4C311"/>
<stop offset="0.26" stop-color="#F0AD12"/>
<stop offset="0.3" stop-color="#F5C92F"/>
<stop offset="0.34" stop-color="#F8DF47"/>
<stop offset="0.38" stop-color="#FBEE57"/>
<stop offset="0.42" stop-color="#FDF761"/>
<stop offset="0.48" stop-color="#FDFA64"/>
<stop offset="0.52" stop-color="#FDF660"/>
<stop offset="0.56" stop-color="#FCE954"/>
<stop offset="0.61" stop-color="#FAD33F"/>
<stop offset="0.65" stop-color="#F7B523"/>
<stop offset="0.69" stop-color="#F59909"/>
<stop offset="0.89" stop-color="#FDFA6D"/>
</linearGradient>
<linearGradient id="paint3_linear_1501_5779" x1="-102666" y1="121189" x2="-104511" y2="118600" gradientUnits="userSpaceOnUse">
<stop stop-color="#FDFA6D"/>
<stop offset="0.06" stop-color="#FBF25E"/>
<stop offset="0.16" stop-color="#F6DD37"/>
<stop offset="0.26" stop-color="#F0C70E"/>
<stop offset="0.53" stop-color="#FDFA64"/>
<stop offset="0.58" stop-color="#FCF255"/>
<stop offset="0.67" stop-color="#F9DC2E"/>
<stop offset="0.75" stop-color="#F6C80A"/>
<stop offset="1" stop-color="#FDFB8E"/>
</linearGradient>
</defs>
</svg>
