<svg width="327" height="263" viewBox="0 0 327 263" fill="none" xmlns="http://www.w3.org/2000/svg">
<path d="M163.5 262.324C253.799 262.324 327 226.096 327 181.407C327 136.717 253.799 100.489 163.5 100.489C73.2014 100.489 0 136.717 0 181.407C0 226.096 73.2014 262.324 163.5 262.324Z" fill="#F0F0F0"/>
<path d="M129.667 242.723C160.806 242.723 186.048 230.231 186.048 214.822C186.048 199.413 160.806 186.922 129.667 186.922C98.5291 186.922 73.2866 199.413 73.2866 214.822C73.2866 230.231 98.5291 242.723 129.667 242.723Z" fill="#E0E0E0"/>
<path d="M290.002 179.913L283.389 176.641C283.389 176.641 281.772 164.505 282.847 155.106C284.36 141.899 294.312 126.004 306.18 129.74C318.047 133.476 300.739 146.92 296.887 158.122C293.035 169.324 290.002 179.913 290.002 179.913Z" fill="currentColor"/>
<path opacity="0.15" d="M290.002 179.913L283.389 176.641C283.389 176.641 281.772 164.505 282.847 155.106C284.36 141.899 294.312 126.004 306.18 129.74C318.047 133.476 300.739 146.92 296.887 158.122C293.035 169.324 290.002 179.913 290.002 179.913Z" fill="black"/>
<path d="M286.525 178.539C286.631 178.535 286.73 178.495 286.801 178.428C286.873 178.361 286.911 178.273 286.907 178.182C285.748 148.836 302.793 134.071 302.959 133.928C303.035 133.863 303.077 133.776 303.077 133.684C303.077 133.593 303.035 133.505 302.959 133.44C302.923 133.408 302.879 133.383 302.831 133.366C302.782 133.349 302.731 133.34 302.678 133.34C302.626 133.34 302.574 133.349 302.526 133.366C302.478 133.383 302.434 133.408 302.397 133.44C302.217 133.583 284.929 148.563 286.102 178.206C286.104 178.252 286.116 178.297 286.139 178.339C286.161 178.38 286.193 178.418 286.232 178.449C286.272 178.48 286.318 178.504 286.368 178.519C286.418 178.535 286.472 178.542 286.525 178.539Z" fill="white"/>
<path d="M294.159 181.954L289.454 179.628C289.454 179.628 288.649 171.299 293.417 161.186C297.581 152.382 307.852 145.07 313.029 146.605C318.207 148.14 318.075 151.287 315.549 154.589C313.022 157.89 297.678 165.749 294.159 181.954Z" fill="currentColor"/>
<path d="M291.675 181.073C291.781 181.071 291.882 181.034 291.957 180.97C292.033 180.906 292.076 180.819 292.077 180.728C291.98 162.167 312.307 149.627 312.516 149.502C312.559 149.476 312.596 149.444 312.624 149.405C312.652 149.367 312.671 149.325 312.68 149.28C312.688 149.236 312.686 149.19 312.673 149.147C312.661 149.103 312.638 149.062 312.606 149.026C312.545 148.952 312.452 148.903 312.348 148.887C312.244 148.871 312.138 148.891 312.051 148.943C311.842 149.067 291.182 161.822 291.272 180.728C291.272 180.819 291.315 180.907 291.39 180.972C291.466 181.036 291.568 181.073 291.675 181.073Z" fill="white"/>
<path d="M45.2836 172.626L51.3908 169.092C51.3908 169.092 54.0766 155.41 51.5782 143.339C48.0666 126.409 34.4155 120.781 29.5575 122.566C24.6995 124.35 23.6585 129.389 32.7291 139.05C38.1076 144.731 45.0962 156.861 45.2836 172.626Z" fill="currentColor"/>
<g opacity="0.15">
<path d="M45.2836 172.626L51.3908 169.092C51.3908 169.092 54.0766 155.41 51.5782 143.339C48.0666 126.409 34.4155 120.781 29.5575 122.566C24.6995 124.35 23.6585 129.389 32.7291 139.05C38.1076 144.731 45.0962 156.861 45.2836 172.626Z" fill="black"/>
</g>
<path d="M47.3799 165.845H47.3174C47.2551 165.841 47.1942 165.827 47.1389 165.802C47.0835 165.777 47.0349 165.742 46.9963 165.7C46.9576 165.658 46.9298 165.609 46.9146 165.557C46.8994 165.505 46.8971 165.451 46.908 165.398C49.1149 149.461 41.2657 132.162 32.7226 125.279C32.6404 125.207 32.5942 125.111 32.5942 125.011C32.5942 124.911 32.6404 124.815 32.7226 124.743C32.7633 124.708 32.8119 124.679 32.8655 124.66C32.9191 124.641 32.9767 124.631 33.0349 124.631C33.093 124.631 33.1506 124.641 33.2042 124.66C33.2579 124.679 33.3065 124.708 33.3472 124.743C42.05 131.751 50.0449 149.336 47.8102 165.505C47.7971 165.597 47.7466 165.681 47.6678 165.743C47.5889 165.805 47.4869 165.841 47.3799 165.845Z" fill="white"/>
<path d="M29.2939 181.871C28.3223 182.371 25.4907 180.568 24.7065 180.134C23.3625 179.382 22.2677 178.345 21.528 177.124C20.6981 175.739 20.3902 174.168 20.6466 172.626C20.7887 171.822 20.9951 171.027 21.2643 170.247C21.5072 169.467 21.7501 168.688 21.9583 167.903C22.266 167.139 22.3842 166.329 22.3053 165.523C22.0346 163.935 20.3621 162.846 18.8352 161.912C17.1558 160.871 15.3652 159.497 15.3652 157.581C15.4508 156.076 16.1228 154.639 17.2737 153.501C18.3147 152.311 19.5639 151.276 20.5009 150.032C21.2335 149.171 21.6074 148.123 21.5627 147.058C21.442 146.401 21.1682 145.772 20.7576 145.208C19.9387 143.97 18.8769 142.828 18.3009 141.513C17.7248 140.199 17.7665 138.509 18.9949 137.528C19.9734 136.725 21.4655 136.594 22.8188 136.647C24.094 136.756 25.3259 137.103 26.4276 137.664C30.0156 139.3 32.1254 142.87 35.9216 144.113C37.3859 144.589 38.9821 144.672 40.502 144.994C42.0219 145.315 43.5903 145.951 44.319 147.135C45.7556 149.485 43.2502 152.448 44.2774 154.94C45.1934 157.153 47.7474 157.962 49.1909 159.943C49.7768 160.823 50.0199 161.84 49.8849 162.846C49.8035 164.545 49.3589 166.217 48.5732 167.778C47.6697 169.397 46.6498 170.967 45.5196 172.478C45.5196 172.478 29.4396 181.794 29.2939 181.871Z" fill="currentColor"/>
<path d="M38.6765 176.939C38.6182 176.938 38.5606 176.928 38.507 176.908C38.4535 176.888 38.405 176.859 38.3644 176.824C38.3238 176.788 38.2919 176.745 38.2704 176.699C38.2489 176.652 38.2383 176.603 38.2393 176.553C38.6279 161.49 29.9806 145.023 23.8595 140.264C23.7725 140.197 23.7201 140.103 23.7136 140.003C23.7071 139.902 23.7471 139.804 23.8248 139.729C23.8655 139.693 23.9141 139.665 23.9678 139.645C24.0214 139.626 24.079 139.616 24.1371 139.616C24.1953 139.616 24.2529 139.626 24.3065 139.645C24.3601 139.665 24.4087 139.693 24.4494 139.729C30.6955 144.547 39.5162 161.3 39.1206 176.57C39.1197 176.62 39.1075 176.668 39.0847 176.713C39.0619 176.759 39.0289 176.799 38.9877 176.834C38.9465 176.868 38.8977 176.895 38.8443 176.913C38.7909 176.931 38.7339 176.94 38.6765 176.939Z" fill="white"/>
<path d="M35.4361 158.587C35.3951 158.596 35.3522 158.596 35.3112 158.587C29.6343 157.183 22.5971 157.041 22.5277 157.035C22.4697 157.034 22.4124 157.023 22.3592 157.003C22.3061 156.983 22.2581 156.955 22.218 156.919C22.178 156.883 22.1467 156.84 22.126 156.794C22.1053 156.747 22.0955 156.698 22.0974 156.648C22.0963 156.598 22.1074 156.548 22.13 156.501C22.1525 156.455 22.1861 156.413 22.2285 156.379C22.2709 156.344 22.3212 156.317 22.3763 156.3C22.4314 156.283 22.49 156.276 22.5485 156.279C22.6179 156.279 29.7661 156.428 35.5541 157.856C35.6659 157.885 35.76 157.95 35.8159 158.038C35.8717 158.126 35.8849 158.229 35.8525 158.326C35.8255 158.402 35.7703 158.469 35.6952 158.516C35.6201 158.563 35.5292 158.588 35.4361 158.587Z" fill="white"/>
<path d="M199.005 162.27L196.375 160.967C195.937 160.723 195.572 160.394 195.31 160.006C195.049 159.618 194.897 159.183 194.869 158.736V65.0285C194.898 64.582 195.048 64.1475 195.309 63.76C195.569 63.3726 195.932 63.0429 196.368 62.7976L269.481 26.6163C269.947 26.414 270.462 26.3086 270.984 26.3086C271.506 26.3086 272.021 26.414 272.486 26.6163L275.117 27.9191C275.555 28.163 275.92 28.4922 276.181 28.8798C276.443 29.2675 276.594 29.7027 276.623 30.1499V123.857C276.594 124.304 276.443 124.738 276.183 125.126C275.923 125.513 275.56 125.843 275.124 126.088L202.01 162.276C201.545 162.478 201.029 162.584 200.507 162.582C199.985 162.581 199.47 162.474 199.005 162.27Z" fill="#1E1E1E"/>
<path d="M276.622 29.9417C276.518 29.2754 275.887 29.0315 275.13 29.4063L202.01 65.5936C201.568 65.8314 201.203 66.1608 200.948 66.5514L195.306 63.7614C195.559 63.3678 195.924 63.0361 196.368 62.7976L269.481 26.6163C269.947 26.414 270.462 26.3086 270.984 26.3086C271.506 26.3086 272.02 26.414 272.486 26.6163L275.116 27.9191C275.523 28.1433 275.868 28.4401 276.127 28.7892C276.387 29.1383 276.556 29.5315 276.622 29.9417Z" fill="#1E1E1E"/>
<path d="M201.754 162.376C201.31 162.53 200.832 162.601 200.353 162.584C199.874 162.566 199.405 162.461 198.978 162.275L196.341 160.966C195.905 160.721 195.542 160.391 195.281 160.004C195.021 159.616 194.87 159.182 194.842 158.735V65.0279C194.86 64.5805 195.01 64.1444 195.279 63.7607L200.921 66.5508C200.647 66.935 200.494 67.3737 200.477 67.8239V161.531C200.505 162.269 201.046 162.608 201.754 162.376Z" fill="#1E1E1E"/>
<path d="M200.504 67.8363V161.532C200.504 162.353 201.198 162.686 202.01 162.276L275.124 126.088C275.56 125.843 275.923 125.513 276.183 125.126C276.443 124.738 276.594 124.304 276.623 123.857V30.1498C276.623 29.3289 275.929 28.9957 275.124 29.4062L202.01 65.5935C201.57 65.8386 201.204 66.1697 200.943 66.5596C200.681 66.9494 200.531 67.387 200.504 67.8363Z" fill="#1E1E1E"/>
<path d="M183.432 103.53C182.488 103.048 178.109 100.912 177.88 100.799C177.701 100.708 177.549 100.583 177.434 100.435C177.32 100.287 177.245 100.118 177.216 99.9414C177.188 99.765 177.206 99.5853 177.269 99.4156C177.332 99.2459 177.439 99.0905 177.582 98.961L194.869 83.0654L200.504 85.8376L183.224 101.745C183.088 101.869 182.985 102.016 182.921 102.177C182.857 102.338 182.835 102.509 182.854 102.678C182.874 102.847 182.936 103.011 183.035 103.158C183.135 103.304 183.27 103.431 183.432 103.53Z" fill="#1E1E1E"/>
<path d="M200.504 85.8555L183.224 101.745C183.032 101.921 182.906 102.142 182.864 102.38C182.822 102.618 182.865 102.861 182.988 103.078C183.11 103.294 183.307 103.474 183.551 103.593C183.795 103.712 184.075 103.764 184.355 103.744L200.504 102.602V85.8555Z" fill="#1E1E1E"/>
<path d="M238.563 57.2467C247.086 53.0289 253.991 56.4496 253.991 64.8851C253.991 73.3207 247.086 83.5707 238.563 87.7885C230.041 92.0063 223.136 88.5857 223.136 80.1561C223.136 71.7264 230.041 61.4645 238.563 57.2467Z" fill="currentColor"/>
<path d="M238.452 63.8864C241.228 62.5182 243.456 63.6247 243.456 66.3612C243.361 67.8487 242.859 69.2962 241.99 70.5861C241.12 71.8761 239.908 72.9722 238.452 73.7854C235.676 75.1537 233.441 74.0472 233.441 71.3107C233.537 69.8226 234.04 68.3748 234.911 67.0848C235.781 65.7948 236.995 64.699 238.452 63.8864Z" fill="white"/>
<path d="M248.321 78.4731C248.321 73.9817 244.636 72.1553 240.097 74.404L237.259 75.808C232.72 78.0567 229.035 83.5416 229.035 88.0211V89.2526C229.892 89.4873 230.786 89.6058 231.686 89.6035C234.121 89.5326 236.491 88.9174 238.563 87.8189C242.508 85.7359 245.846 82.9075 248.321 79.5499V78.4731Z" fill="white"/>
<path d="M228.792 129.544L248.335 119.871C249.168 119.461 249.841 119.794 249.841 120.615V126.01C249.813 126.458 249.662 126.893 249.4 127.28C249.138 127.668 248.773 127.997 248.335 128.241L228.792 137.914C227.959 138.325 227.286 137.991 227.286 137.171V131.775C227.314 131.328 227.466 130.892 227.727 130.505C227.989 130.117 228.354 129.788 228.792 129.544Z" fill="currentColor"/>
<path d="M219.222 117.491L257.884 98.3476C258.877 97.8538 259.689 98.2524 259.689 99.2399V101.245C259.655 101.781 259.474 102.303 259.16 102.768C258.847 103.233 258.41 103.629 257.884 103.922L219.201 123.065C218.208 123.559 217.403 123.161 217.403 122.173V120.186C217.435 119.645 217.616 119.119 217.933 118.65C218.249 118.182 218.691 117.784 219.222 117.491Z" fill="#FAFAFA"/>
<path d="M223.746 103.637C224.273 103.375 224.683 103.333 224.974 103.518C225.266 103.702 225.412 104.112 225.412 104.743C225.426 105.319 225.276 105.888 224.974 106.403C224.702 106.868 224.274 107.253 223.746 107.509L222.705 108.027V109.948C222.703 110.015 222.684 110.079 222.649 110.139C222.625 110.193 222.581 110.238 222.524 110.27L221.997 110.531C221.979 110.543 221.957 110.549 221.935 110.549C221.912 110.549 221.89 110.543 221.872 110.531C221.835 110.491 221.817 110.44 221.824 110.389V104.826C221.823 104.761 221.84 104.695 221.872 104.636C221.898 104.583 221.942 104.538 221.997 104.505L223.746 103.637ZM222.705 106.95L223.711 106.45C223.954 106.333 224.159 106.165 224.308 105.963C224.466 105.724 224.543 105.452 224.53 105.177C224.53 104.856 224.454 104.672 224.308 104.618C224.205 104.597 224.098 104.596 223.994 104.615C223.891 104.635 223.794 104.674 223.711 104.731L222.705 105.231V106.95Z" fill="#FAFAFA"/>
<path d="M228.321 101.371C228.39 101.335 228.446 101.335 228.48 101.371C228.525 101.424 228.555 101.485 228.57 101.549L230.174 106.201C230.174 106.201 230.174 106.237 230.174 106.255C230.173 106.321 230.153 106.386 230.118 106.445C230.094 106.499 230.05 106.545 229.993 106.576L229.521 106.808C229.438 106.849 229.375 106.855 229.341 106.808C229.307 106.778 229.283 106.741 229.271 106.701L228.987 105.886L226.905 106.909L226.627 108.004C226.608 108.063 226.582 108.121 226.551 108.176C226.516 108.249 226.452 108.308 226.37 108.343L225.899 108.575C225.881 108.587 225.859 108.594 225.836 108.594C225.813 108.594 225.791 108.587 225.774 108.575C225.737 108.536 225.72 108.487 225.725 108.438C225.721 108.416 225.721 108.394 225.725 108.372L227.321 102.138C227.34 102.046 227.371 101.957 227.411 101.87C227.445 101.808 227.501 101.756 227.571 101.722L228.321 101.371ZM228.681 104.976L227.987 102.876L227.293 105.683L228.681 104.976Z" fill="#FAFAFA"/>
<path d="M232.602 99.1628C232.834 99.0371 233.099 98.9616 233.372 98.9427C233.566 98.9277 233.76 98.9652 233.928 99.0497C234.08 99.1345 234.198 99.2569 234.268 99.4007C234.344 99.5471 234.386 99.7047 234.393 99.8647C234.397 99.9308 234.381 99.9967 234.344 100.055C234.32 100.109 234.276 100.155 234.219 100.186L233.761 100.412C233.685 100.448 233.629 100.454 233.595 100.412C233.552 100.388 233.516 100.355 233.49 100.317C233.463 100.263 233.422 100.215 233.372 100.175C233.322 100.135 233.263 100.105 233.199 100.085C232.988 100.059 232.773 100.106 232.602 100.216C232.49 100.278 232.383 100.348 232.283 100.424C232.18 100.505 232.089 100.597 232.012 100.698C231.938 100.794 231.878 100.898 231.832 101.007C231.791 101.11 231.77 101.219 231.769 101.328C231.761 101.428 231.783 101.529 231.832 101.62C231.853 101.652 231.883 101.679 231.919 101.698C231.956 101.718 231.997 101.73 232.04 101.733C232.169 101.752 232.3 101.752 232.429 101.733L233.032 101.62C233.257 101.563 233.492 101.538 233.726 101.548C233.894 101.548 234.057 101.594 234.191 101.679C234.318 101.771 234.41 101.893 234.455 102.03C234.523 102.223 234.554 102.424 234.545 102.625C234.545 102.891 234.5 103.155 234.413 103.41C234.329 103.673 234.205 103.925 234.046 104.16C233.878 104.401 233.677 104.625 233.449 104.826C233.215 105.034 232.949 105.212 232.658 105.356C232.444 105.467 232.209 105.546 231.964 105.588C231.764 105.621 231.558 105.606 231.367 105.546C231.193 105.477 231.05 105.362 230.957 105.219C230.844 105.035 230.782 104.832 230.777 104.624C230.776 104.556 230.793 104.489 230.825 104.428C230.856 104.377 230.902 104.334 230.957 104.303L231.415 104.077C231.485 104.041 231.54 104.029 231.582 104.047C231.624 104.065 231.651 104.094 231.679 104.148C231.708 104.209 231.745 104.267 231.79 104.32C231.833 104.372 231.894 104.412 231.964 104.434C232.055 104.452 232.15 104.452 232.241 104.434C232.389 104.404 232.529 104.354 232.658 104.285C232.792 104.219 232.92 104.143 233.039 104.059C233.273 103.9 233.458 103.696 233.581 103.464C233.636 103.345 233.665 103.217 233.664 103.089C233.67 103.042 233.666 102.995 233.65 102.95C233.635 102.905 233.609 102.863 233.574 102.827C233.536 102.799 233.492 102.778 233.444 102.766C233.396 102.753 233.346 102.75 233.296 102.756C233.139 102.761 232.982 102.783 232.831 102.821C232.651 102.857 232.442 102.899 232.2 102.934C232.014 102.974 231.821 102.986 231.631 102.97C231.48 102.962 231.338 102.909 231.228 102.821C231.108 102.721 231.024 102.593 230.985 102.453C230.929 102.246 230.904 102.034 230.909 101.822C230.908 101.56 230.953 101.299 231.041 101.049C231.123 100.79 231.245 100.542 231.401 100.311C231.552 100.081 231.733 99.8672 231.943 99.6744C232.133 99.4779 232.355 99.3057 232.602 99.1628Z" fill="#FAFAFA"/>
<path d="M237.162 96.9145C237.392 96.785 237.657 96.7073 237.932 96.6885C238.125 96.6743 238.319 96.7117 238.487 96.7955C238.635 96.8825 238.751 97.0044 238.82 97.1465C238.896 97.293 238.938 97.4505 238.945 97.6105C238.953 97.6768 238.936 97.7436 238.897 97.8009C238.872 97.8547 238.828 97.9006 238.772 97.9318L238.314 98.1578C238.244 98.1935 238.189 98.2054 238.147 98.1578C238.103 98.134 238.069 98.0985 238.05 98.0567C237.986 97.9523 237.88 97.8718 237.751 97.8307C237.648 97.8176 237.542 97.8225 237.441 97.845C237.34 97.8674 237.245 97.9071 237.162 97.9615C237.046 98.0222 236.936 98.0919 236.835 98.1697C236.735 98.2512 236.646 98.3431 236.572 98.4434C236.495 98.5389 236.434 98.643 236.391 98.7527C236.348 98.8559 236.325 98.9644 236.322 99.074C236.314 99.1741 236.335 99.2744 236.384 99.3655C236.406 99.3974 236.436 99.4244 236.472 99.4441C236.508 99.4638 236.55 99.4756 236.593 99.4785C236.721 99.4977 236.853 99.4977 236.981 99.4785L237.585 99.3655C237.811 99.3116 238.045 99.2875 238.279 99.2941C238.446 99.2928 238.61 99.3388 238.744 99.425C238.871 99.5179 238.965 99.6395 239.015 99.776C239.076 99.9697 239.104 100.17 239.098 100.371C239.097 100.637 239.053 100.901 238.966 101.156C238.881 101.418 238.758 101.67 238.598 101.906C238.431 102.149 238.231 102.375 238.001 102.578C237.767 102.78 237.503 102.956 237.217 103.101C237.003 103.213 236.768 103.291 236.523 103.333C236.326 103.366 236.122 103.351 235.933 103.292C235.756 103.225 235.61 103.11 235.517 102.965C235.403 102.782 235.343 102.577 235.343 102.37C235.335 102.303 235.352 102.237 235.392 102.179C235.416 102.125 235.46 102.08 235.517 102.048L235.975 101.822C236.044 101.787 236.107 101.775 236.141 101.793C236.166 101.802 236.187 101.816 236.204 101.834C236.221 101.851 236.232 101.872 236.239 101.894C236.27 101.954 236.307 102.012 236.35 102.066C236.395 102.119 236.458 102.158 236.53 102.179C236.621 102.197 236.716 102.197 236.808 102.179C236.955 102.15 237.096 102.099 237.224 102.031C237.355 101.963 237.481 101.888 237.599 101.805C237.721 101.723 237.828 101.627 237.918 101.519C238.008 101.416 238.082 101.304 238.14 101.186C238.196 101.067 238.224 100.939 238.223 100.811C238.23 100.764 238.225 100.717 238.21 100.672C238.194 100.627 238.168 100.585 238.133 100.549C238.096 100.521 238.051 100.5 238.003 100.488C237.956 100.475 237.905 100.472 237.856 100.478C237.701 100.486 237.547 100.508 237.398 100.543C237.217 100.579 237.002 100.621 236.766 100.656C236.578 100.696 236.383 100.708 236.19 100.692C236.039 100.685 235.897 100.633 235.787 100.543C235.67 100.442 235.588 100.314 235.552 100.175C235.49 99.9707 235.462 99.7604 235.468 99.5499C235.471 99.2862 235.515 99.024 235.6 98.7706C235.686 98.5133 235.807 98.2657 235.961 98.0329C236.111 97.8015 236.295 97.5875 236.509 97.3964C236.696 97.2077 236.916 97.0451 237.162 96.9145Z" fill="#FAFAFA"/>
<path d="M242.221 97.6581L241.659 100.508C241.642 100.593 241.614 100.677 241.575 100.758C241.548 100.822 241.497 100.876 241.43 100.912L240.902 101.174C240.833 101.21 240.784 101.21 240.749 101.174C240.703 101.125 240.676 101.065 240.673 101.001L239.84 95.9746C239.84 95.9746 239.84 95.927 239.84 95.9092C239.842 95.843 239.861 95.778 239.896 95.7188C239.922 95.6659 239.966 95.6205 240.021 95.5879L240.5 95.35C240.54 95.3361 240.584 95.3361 240.625 95.35C240.666 95.35 240.694 95.3975 240.708 95.4927L241.256 98.8777L241.735 96.3375C241.747 96.2741 241.768 96.2123 241.797 96.1531C241.825 96.0778 241.884 96.0141 241.964 95.9746L242.498 95.7069C242.575 95.6712 242.63 95.6771 242.665 95.7069C242.695 95.7447 242.716 95.7871 242.727 95.8318L243.213 97.8961L243.761 93.9698C243.768 93.8926 243.794 93.8175 243.838 93.7497C243.87 93.7052 243.913 93.6668 243.963 93.6367L244.442 93.3987C244.46 93.3871 244.482 93.3809 244.504 93.3809C244.527 93.3809 244.548 93.3871 244.566 93.3987C244.586 93.4182 244.601 93.4409 244.611 93.4654C244.62 93.4899 244.624 93.5157 244.622 93.5415C244.625 93.5652 244.625 93.5891 244.622 93.6129L243.789 99.4607C243.775 99.5462 243.75 99.6301 243.713 99.7105C243.681 99.774 243.628 99.8279 243.56 99.8652L243.026 100.127C242.963 100.157 242.915 100.157 242.88 100.127C242.845 100.072 242.817 100.014 242.797 99.9544L242.221 97.6581Z" fill="#FAFAFA"/>
<path d="M245.469 95.1359C245.484 94.8061 245.531 94.4778 245.608 94.1544C245.687 93.8382 245.808 93.5309 245.969 93.2382C246.122 92.9537 246.318 92.6877 246.552 92.447C246.789 92.2083 247.073 92.0069 247.391 91.8521C247.636 91.7099 247.922 91.6295 248.217 91.6201C248.438 91.6222 248.649 91.6967 248.807 91.8283C248.975 91.9903 249.096 92.1839 249.161 92.3935C249.251 92.6667 249.3 92.9485 249.307 93.2323C249.307 93.3394 249.307 93.4583 249.307 93.5892C249.307 93.7201 249.307 93.8569 249.307 93.9997C249.307 94.1425 249.307 94.2793 249.307 94.4102C249.307 94.541 249.307 94.666 249.307 94.779C249.292 95.1069 249.245 95.4332 249.168 95.7546C249.088 96.0698 248.969 96.3769 248.814 96.6708C248.656 96.9544 248.458 97.2201 248.224 97.462C247.987 97.6985 247.705 97.8995 247.391 98.0569C247.141 98.198 246.851 98.2782 246.552 98.2889C246.443 98.2908 246.336 98.2738 246.236 98.239C246.136 98.2043 246.045 98.1524 245.969 98.0866C245.788 97.92 245.663 97.7144 245.608 97.4917C245.525 97.2174 245.479 96.9361 245.469 96.6529C245.469 96.5458 245.469 96.4269 245.469 96.296C245.469 96.1651 245.469 96.0283 245.469 95.8855C245.469 95.7427 245.469 95.6119 245.469 95.475C245.469 95.3382 245.462 95.243 245.469 95.1359ZM248.425 93.7141C248.441 93.5686 248.422 93.4219 248.369 93.2828C248.317 93.1438 248.232 93.0153 248.12 92.9051C247.94 92.7683 247.69 92.7742 247.391 92.9051C247.067 93.0683 246.81 93.3135 246.656 93.6071C246.459 93.9539 246.355 94.3339 246.35 94.7195C246.35 94.9396 246.35 95.1835 246.35 95.4512C246.35 95.7189 246.35 95.9569 246.35 96.1711C246.335 96.3166 246.354 96.4633 246.406 96.6024C246.459 96.7414 246.544 96.8699 246.656 96.9801C246.836 97.111 247.086 97.0991 247.391 96.9504C247.71 96.786 247.964 96.5436 248.12 96.2543C248.317 95.9097 248.421 95.5316 248.425 95.1478C248.425 94.9218 248.425 94.6779 248.425 94.4102C248.425 94.1425 248.432 93.9283 248.425 93.7141Z" fill="#FAFAFA"/>
<path d="M252.333 89.4785C252.881 89.2108 253.291 89.1692 253.575 89.3655C253.744 89.5247 253.869 89.714 253.942 89.9197C254.016 90.1254 254.035 90.3425 253.999 90.5553C254.004 90.9593 253.932 91.3614 253.783 91.7451C253.642 92.1024 253.423 92.4335 253.138 92.7207L254.04 94.4042C254.043 94.4319 254.043 94.4598 254.04 94.4875C254.041 94.5411 254.026 94.5941 253.999 94.6422C253.979 94.6854 253.946 94.7227 253.901 94.7493L253.346 95.0229C253.256 95.0646 253.194 95.0705 253.152 95.0229C253.115 94.9917 253.085 94.9555 253.062 94.9158L252.208 93.3275L251.341 93.7558V95.7665C251.341 95.8323 251.325 95.8973 251.292 95.9569C251.263 96.0086 251.221 96.0535 251.167 96.0878L250.64 96.3495C250.622 96.3621 250.6 96.369 250.577 96.369C250.554 96.369 250.532 96.3621 250.515 96.3495C250.495 96.3313 250.48 96.3097 250.47 96.2862C250.46 96.2626 250.457 96.2376 250.459 96.2127V90.6505C250.461 90.5843 250.48 90.5193 250.515 90.4601C250.539 90.4062 250.583 90.3604 250.64 90.3292L252.333 89.4785ZM251.354 92.679L252.333 92.2269C252.572 92.1125 252.777 91.9515 252.93 91.757C253.091 91.5277 253.168 91.2626 253.152 90.9955C253.152 90.6742 253.076 90.4958 252.93 90.4601C252.719 90.4355 252.505 90.4824 252.333 90.591L251.389 91.055L251.354 92.679Z" fill="#FAFAFA"/>
<path d="M256.982 87.1878C257.234 87.0469 257.522 86.9612 257.822 86.938C258.039 86.9311 258.251 86.9973 258.412 87.1224C258.595 87.2881 258.723 87.4939 258.779 87.7173C258.873 88.0123 258.924 88.3159 258.932 88.6215C258.932 89.038 258.932 89.4663 258.932 89.9005C258.918 90.2547 258.867 90.6071 258.779 90.9535C258.7 91.2754 258.579 91.5887 258.419 91.8875C258.264 92.1619 258.068 92.4179 257.836 92.649C257.604 92.8855 257.327 93.0866 257.017 93.2439L255.372 94.0113C255.354 94.0238 255.332 94.0307 255.309 94.0307C255.287 94.0307 255.264 94.0238 255.247 94.0113C255.227 93.9933 255.211 93.9717 255.202 93.9481C255.192 93.9245 255.189 93.8993 255.191 93.8744V88.3122C255.193 88.246 255.212 88.181 255.247 88.1218C255.271 88.068 255.315 88.0222 255.372 87.9909L256.982 87.1878ZM258.051 89.038C258.048 88.8769 258.02 88.7168 257.967 88.562C257.935 88.4449 257.865 88.3378 257.766 88.2527C257.723 88.2154 257.671 88.1861 257.613 88.1666C257.556 88.1472 257.495 88.138 257.433 88.1397C257.259 88.1496 257.092 88.1989 256.947 88.2824L256.073 88.7108V92.5895L256.982 92.1433C257.158 92.0555 257.315 91.9429 257.447 91.8102C257.576 91.6797 257.686 91.5358 257.773 91.3818C257.86 91.2179 257.925 91.0464 257.967 90.8702C258.016 90.6865 258.044 90.4993 258.051 90.311C258.072 89.8768 258.072 89.4544 258.051 89.038Z" fill="#FAFAFA"/>
<path d="M161.682 0.8452C162.88 1.07369 164.034 1.44621 165.111 1.9517C166.141 2.42659 167.065 3.05511 167.838 3.80777C168.578 4.53179 169.127 5.38398 169.448 6.30632C169.776 7.29362 169.8 8.33676 169.518 9.33432C169.331 10.1252 168.966 10.8771 168.442 11.5473C167.963 12.1204 167.393 12.6331 166.748 13.0702C166.115 13.4917 165.439 13.864 164.729 14.1827L162.73 15.0929C162.128 15.3621 161.557 15.6787 161.023 16.0388C160.54 16.3562 160.17 16.7826 159.954 17.2702C159.848 17.493 159.673 17.6864 159.448 17.8294C159.341 17.9005 159.217 17.9497 159.084 17.9735C158.952 17.9972 158.815 17.9947 158.684 17.9662L155.742 17.407C155.6 17.3816 155.466 17.3321 155.346 17.2617C155.227 17.1912 155.126 17.1011 155.048 16.9965C154.964 16.8994 154.909 16.7868 154.886 16.668C154.863 16.5491 154.874 16.4273 154.916 16.3124C155.153 15.5312 155.57 14.7989 156.144 14.1589C156.668 13.5928 157.274 13.0869 157.948 12.6538C158.606 12.2415 159.302 11.8773 160.03 11.5652C160.725 11.2618 161.418 10.9703 162.022 10.6788C162.584 10.42 163.112 10.1109 163.598 9.75669C164.024 9.45091 164.319 9.03236 164.437 8.56691C164.548 8.16273 164.542 7.74165 164.421 7.33968C164.301 6.93771 164.068 6.56681 163.743 6.25873C162.932 5.49923 161.847 4.9945 160.662 4.82503C158.469 4.40861 156.618 5.04118 155.11 6.72274C154.964 6.90629 154.781 7.06555 154.569 7.19271C154.329 7.2945 154.052 7.31158 153.798 7.2403L150.668 6.6454C150.445 6.60843 150.248 6.49721 150.12 6.33606C150.052 6.24996 150.006 6.15227 149.986 6.04962C149.965 5.94698 149.971 5.84178 150.002 5.74117C150.268 4.91453 150.763 4.15529 151.446 3.52817C152.215 2.80088 153.129 2.1966 154.145 1.74349C155.256 1.24521 156.454 0.903718 157.692 0.732171C159.018 0.547273 160.373 0.585664 161.682 0.8452ZM158.358 19.9889C158.633 20.0443 158.872 20.1898 159.024 20.3944C159.176 20.5989 159.228 20.8462 159.17 21.0835L158.42 23.9984C158.395 24.1205 158.34 24.2366 158.259 24.3391C158.177 24.4416 158.072 24.5282 157.948 24.5933C157.832 24.662 157.701 24.7091 157.562 24.7316C157.423 24.7542 157.281 24.7516 157.143 24.7242L153.784 24.0639C153.642 24.0432 153.506 23.9964 153.386 23.9266C153.266 23.8568 153.165 23.7656 153.09 23.6593C153.013 23.5589 152.96 23.4458 152.935 23.3272C152.91 23.2085 152.913 23.0867 152.945 22.9693L153.701 20.0543C153.766 19.818 153.935 19.6126 154.174 19.4815C154.412 19.3505 154.701 19.3041 154.978 19.3523L158.358 19.9889Z" fill="currentColor"/>
<path d="M165.388 28.7514C166.223 28.6365 167.074 28.6225 167.914 28.7098C168.716 28.7915 169.496 28.9929 170.218 29.3047C170.905 29.6103 171.51 30.0359 171.995 30.5539C172.43 31.061 172.736 31.6406 172.894 32.2554C173.052 32.8702 173.057 33.5065 172.911 34.1233C172.778 34.5975 172.566 35.0525 172.279 35.4737C172.003 35.8834 171.682 36.2698 171.321 36.6278C170.967 36.9847 170.627 37.3238 170.315 37.651C170.009 37.9558 169.738 38.2844 169.503 38.6326C169.283 38.9377 169.172 39.2913 169.184 39.6498C169.178 39.8174 169.123 39.981 169.024 40.1258C168.974 40.1925 168.908 40.2492 168.83 40.2923C168.752 40.3354 168.665 40.3638 168.573 40.3756L166.491 40.6612C166.394 40.6763 166.294 40.6746 166.197 40.6562C166.101 40.6378 166.01 40.6031 165.929 40.5541C165.847 40.5099 165.778 40.4496 165.729 40.3783C165.68 40.3069 165.651 40.2265 165.644 40.1436C165.557 39.59 165.604 39.027 165.783 38.4898C165.946 38.0142 166.18 37.5585 166.477 37.1334C166.769 36.7256 167.104 36.3413 167.477 35.9853C167.844 35.6284 168.171 35.2952 168.49 34.974C168.775 34.6871 169.022 34.3738 169.226 34.04C169.406 33.7527 169.472 33.4225 169.413 33.1001C169.361 32.8163 169.229 32.5475 169.03 32.3165C168.831 32.0855 168.569 31.8992 168.268 31.7735C167.522 31.4645 166.677 31.3766 165.867 31.5236C165.133 31.6156 164.45 31.9 163.912 32.3377C163.374 32.7754 163.007 33.3451 162.862 33.9686C162.821 34.1186 162.75 34.2615 162.653 34.391C162.53 34.5039 162.362 34.5738 162.181 34.5873L159.988 34.8907C159.834 34.916 159.675 34.8882 159.544 34.8134C159.477 34.774 159.421 34.7229 159.379 34.6633C159.337 34.6038 159.311 34.5373 159.301 34.4683C159.236 33.878 159.343 33.283 159.614 32.7372C159.888 32.102 160.292 31.5138 160.807 31.0001C161.372 30.4376 162.037 29.9557 162.778 29.5724C163.578 29.1566 164.464 28.8778 165.388 28.7514ZM168.969 41.7498C169.064 41.7368 169.162 41.7401 169.256 41.7595C169.35 41.7789 169.439 41.814 169.517 41.8628C169.599 41.9089 169.668 41.9693 169.721 42.0401C169.774 42.1108 169.808 42.1903 169.822 42.2733L170.211 44.3138C170.241 44.4793 170.194 44.6483 170.08 44.7842C169.965 44.9201 169.793 45.0118 169.6 45.0396L167.275 45.3668C167.082 45.3923 166.885 45.3517 166.727 45.2537C166.647 45.207 166.578 45.1464 166.527 45.0757C166.476 45.0049 166.442 44.9258 166.429 44.8433L166.04 42.8028C166.022 42.7209 166.025 42.6367 166.048 42.5558C166.071 42.4748 166.113 42.3989 166.172 42.3328C166.226 42.2638 166.297 42.2054 166.38 42.1613C166.462 42.1172 166.555 42.0885 166.651 42.077L168.969 41.7498Z" fill="currentColor"/>
<g opacity="0.2">
<path d="M165.388 28.7514C166.223 28.6365 167.074 28.6225 167.914 28.7098C168.716 28.7915 169.496 28.9929 170.218 29.3047C170.905 29.6103 171.51 30.0359 171.995 30.5539C172.43 31.061 172.736 31.6406 172.894 32.2554C173.052 32.8702 173.057 33.5065 172.911 34.1233C172.778 34.5975 172.566 35.0525 172.279 35.4737C172.003 35.8834 171.682 36.2698 171.321 36.6278C170.967 36.9847 170.627 37.3238 170.315 37.651C170.009 37.9558 169.738 38.2844 169.503 38.6326C169.283 38.9377 169.172 39.2913 169.184 39.6498C169.178 39.8174 169.123 39.981 169.024 40.1258C168.974 40.1925 168.908 40.2492 168.83 40.2923C168.752 40.3354 168.665 40.3638 168.573 40.3756L166.491 40.6612C166.394 40.6763 166.294 40.6746 166.197 40.6562C166.101 40.6378 166.01 40.6031 165.929 40.5541C165.847 40.5099 165.778 40.4496 165.729 40.3783C165.68 40.3069 165.651 40.2265 165.644 40.1436C165.557 39.59 165.604 39.027 165.783 38.4898C165.946 38.0142 166.18 37.5585 166.477 37.1334C166.769 36.7256 167.104 36.3413 167.477 35.9853C167.844 35.6284 168.171 35.2952 168.49 34.974C168.775 34.6871 169.022 34.3738 169.226 34.04C169.406 33.7527 169.472 33.4225 169.413 33.1001C169.361 32.8163 169.229 32.5475 169.03 32.3165C168.831 32.0855 168.569 31.8992 168.268 31.7735C167.522 31.4645 166.677 31.3766 165.867 31.5236C165.133 31.6156 164.45 31.9 163.912 32.3377C163.374 32.7754 163.007 33.3451 162.862 33.9686C162.821 34.1186 162.75 34.2615 162.653 34.391C162.53 34.5039 162.362 34.5738 162.181 34.5873L159.988 34.8907C159.834 34.916 159.675 34.8882 159.544 34.8134C159.477 34.774 159.421 34.7229 159.379 34.6633C159.337 34.6038 159.311 34.5373 159.301 34.4683C159.236 33.878 159.343 33.283 159.614 32.7372C159.888 32.102 160.292 31.5138 160.807 31.0001C161.372 30.4376 162.037 29.9557 162.778 29.5724C163.578 29.1566 164.464 28.8778 165.388 28.7514ZM168.969 41.7498C169.064 41.7368 169.162 41.7401 169.256 41.7595C169.35 41.7789 169.439 41.814 169.517 41.8628C169.599 41.9089 169.668 41.9693 169.721 42.0401C169.774 42.1108 169.808 42.1903 169.822 42.2733L170.211 44.3138C170.241 44.4793 170.194 44.6483 170.08 44.7842C169.965 44.9201 169.793 45.0118 169.6 45.0396L167.275 45.3668C167.082 45.3923 166.885 45.3517 166.727 45.2537C166.647 45.207 166.578 45.1464 166.527 45.0757C166.476 45.0049 166.442 44.9258 166.429 44.8433L166.04 42.8028C166.022 42.7209 166.025 42.6367 166.048 42.5558C166.071 42.4748 166.113 42.3989 166.172 42.3328C166.226 42.2638 166.297 42.2054 166.38 42.1613C166.462 42.1172 166.555 42.0885 166.651 42.077L168.969 41.7498Z" fill="black"/>
</g>
<path d="M185.014 31.9575C185.108 32.0139 185.189 32.0862 185.249 32.1701C185.31 32.254 185.351 32.3476 185.368 32.4453C185.39 32.5421 185.388 32.6417 185.363 32.738C185.338 32.8342 185.29 32.9249 185.222 33.0045L183.57 34.9974C183.504 35.0785 183.42 35.1472 183.322 35.1994C183.224 35.2516 183.115 35.286 183.001 35.3008C182.888 35.3197 182.772 35.3184 182.66 35.2969C182.547 35.2754 182.442 35.2342 182.349 35.1758L180.072 33.7897C179.978 33.7341 179.898 33.6618 179.838 33.5778C179.778 33.4937 179.74 33.3996 179.725 33.3019C179.703 33.2051 179.705 33.1055 179.73 33.0092C179.755 32.913 179.803 32.8222 179.871 32.7427L181.544 30.7498C181.679 30.5883 181.883 30.479 182.112 30.4456C182.34 30.4122 182.575 30.4574 182.765 30.5714L185.014 31.9575ZM194.619 18.4593C195.449 18.958 196.188 19.5594 196.812 20.244C197.42 20.8809 197.891 21.6063 198.2 22.3856C198.488 23.1325 198.585 23.9238 198.484 24.7057C198.367 25.5395 197.998 26.3329 197.416 27.008C196.983 27.5538 196.425 28.0192 195.778 28.3762C195.208 28.6826 194.588 28.9151 193.939 29.0663C193.306 29.208 192.661 29.3035 192.009 29.3518L190.163 29.4946C189.61 29.5325 189.061 29.6142 188.525 29.7385C188.031 29.8347 187.579 30.0493 187.221 30.3572C187.059 30.4979 186.855 30.5969 186.631 30.6428C186.524 30.6689 186.412 30.6729 186.303 30.6543C186.195 30.6356 186.093 30.595 186.006 30.5357L183.994 29.3102C183.801 29.1924 183.669 29.0155 183.626 28.8164C183.6 28.7199 183.601 28.6196 183.628 28.5235C183.656 28.4273 183.71 28.3382 183.785 28.2632C184.256 27.7402 184.843 27.3033 185.513 26.9782C186.117 26.6957 186.761 26.4817 187.429 26.3417C188.074 26.2076 188.731 26.122 189.393 26.0859C190.045 26.0502 190.656 26.0085 191.225 25.9609C191.746 25.9215 192.26 25.8338 192.759 25.6992C193.195 25.5747 193.571 25.3299 193.828 25.0032C194.06 24.7272 194.21 24.4074 194.267 24.0707C194.324 23.7341 194.285 23.3907 194.154 23.0698C193.825 22.2769 193.198 21.6006 192.37 21.1483C190.871 20.2321 189.236 20.2024 187.464 21.059C187.285 21.1563 187.088 21.2249 186.881 21.2613C186.773 21.2677 186.665 21.2558 186.562 21.2262C186.46 21.1966 186.365 21.1499 186.284 21.0888L184.146 19.786C184.069 19.7419 184.003 19.685 183.951 19.6186C183.9 19.5521 183.865 19.4776 183.848 19.3993C183.831 19.3183 183.834 19.2353 183.857 19.1554C183.88 19.0756 183.921 19.0006 183.98 18.9353C184.484 18.3814 185.139 17.9421 185.888 17.6562C186.739 17.3259 187.65 17.1246 188.581 17.0613C189.605 16.988 190.637 17.0583 191.635 17.2696C192.712 17.492 193.726 17.8965 194.619 18.4593Z" fill="currentColor"/>
<g opacity="0.6">
<path d="M185.014 31.9584C185.109 32.0148 185.189 32.0872 185.25 32.1711C185.311 32.2549 185.351 32.3486 185.368 32.4463C185.39 32.543 185.389 32.6427 185.364 32.7389C185.339 32.8352 185.29 32.9259 185.222 33.0055L183.571 34.9983C183.505 35.0795 183.421 35.1482 183.323 35.2004C183.225 35.2525 183.116 35.287 183.002 35.3017C182.889 35.3207 182.772 35.3193 182.66 35.2978C182.548 35.2763 182.442 35.2351 182.349 35.1768L180.073 33.7907C179.978 33.7351 179.898 33.6628 179.838 33.5787C179.779 33.4946 179.74 33.4006 179.726 33.3029C179.704 33.2061 179.705 33.1065 179.73 33.0102C179.756 32.914 179.804 32.8232 179.872 32.7437L181.544 30.7508C181.679 30.5893 181.884 30.48 182.112 30.4465C182.341 30.4131 182.576 30.4583 182.766 30.5723L185.014 31.9584ZM194.619 18.4603C195.449 18.9589 196.188 19.5604 196.812 20.245C197.421 20.8818 197.891 21.6072 198.2 22.3866C198.488 23.1335 198.585 23.9248 198.485 24.7067C198.367 25.5405 197.999 26.3338 197.416 27.0089C196.983 27.5548 196.426 28.0202 195.778 28.3772C195.208 28.6835 194.588 28.9161 193.939 29.0673C193.307 29.209 192.661 29.3045 192.01 29.3528L190.164 29.4956C189.61 29.5335 189.062 29.6152 188.526 29.7395C188.031 29.8357 187.579 30.0503 187.221 30.3582C187.06 30.4989 186.855 30.5978 186.631 30.6437C186.525 30.6699 186.412 30.6739 186.304 30.6552C186.195 30.6366 186.093 30.5959 186.007 30.5366L183.994 29.3112C183.802 29.1934 183.67 29.0165 183.626 28.8174C183.6 28.7209 183.601 28.6206 183.629 28.5244C183.657 28.4283 183.71 28.3392 183.786 28.2642C184.256 27.7412 184.844 27.3043 185.514 26.9792C186.117 26.6967 186.761 26.4827 187.429 26.3427C188.074 26.2086 188.731 26.123 189.393 26.0868C190.046 26.0512 190.656 26.0095 191.226 25.9619C191.746 25.9225 192.261 25.8347 192.759 25.7002C193.195 25.5757 193.571 25.3309 193.828 25.0041C194.06 24.7282 194.211 24.4083 194.268 24.0717C194.324 23.7351 194.286 23.3917 194.154 23.0707C193.826 22.2779 193.198 21.6016 192.371 21.1492C190.872 20.2331 189.236 20.2034 187.464 21.06C187.286 21.1573 187.088 21.2259 186.881 21.2623C186.773 21.2687 186.665 21.2568 186.563 21.2272C186.46 21.1976 186.366 21.1508 186.284 21.0897L184.147 19.7869C184.069 19.7429 184.003 19.686 183.952 19.6195C183.901 19.5531 183.865 19.4785 183.848 19.4003C183.832 19.3193 183.835 19.2363 183.858 19.1564C183.88 19.0765 183.922 19.0016 183.98 18.9362C184.485 18.3823 185.14 17.9431 185.889 17.6572C186.739 17.3269 187.65 17.1256 188.581 17.0623C189.606 16.9889 190.637 17.0593 191.635 17.2705C192.712 17.493 193.727 17.8975 194.619 18.4603Z" fill="white"/>
</g>
<path d="M133.331 84.6181H108.673V33.4097C108.673 28.962 110.735 24.6965 114.403 21.5515C118.072 18.4065 123.049 16.6396 128.237 16.6396H130.514C135.702 16.6396 140.678 18.4065 144.347 21.5515C148.016 24.6965 150.078 28.962 150.078 33.4097V70.293C150.068 74.095 148.3 77.7386 145.16 80.4242C142.021 83.1098 137.767 84.6181 133.331 84.6181Z" fill="#1E1E1E"/>
<path d="M106.273 207.897C105.837 210.019 105.604 212.168 105.579 214.322C105.488 218.225 104.656 219.611 104.545 222.811C104.413 226.47 105.155 227.838 106.883 229.897C108.612 231.955 113.129 233.817 115.087 230.343C117.044 226.869 116.759 224.59 116.141 221.003C115.51 217.291 115.447 215.238 115.059 212.413C114.74 209.92 114.365 208.022 114.365 208.022L106.273 207.897Z" fill="#1E1E1E"/>
<path d="M119.195 181.978L104.204 181.746C104.426 190.324 106.015 199.849 106.286 207.921C106.342 209.438 106.244 219.694 106.911 222.794C107.917 227.481 114.399 226.845 114.746 224.043C115.093 221.241 114.33 209.266 114.35 208.028C114.288 202.865 117.126 194.15 118.591 184.881C118.653 184.435 119.125 182.424 119.195 181.978Z" fill="#FFA8A7"/>
<path d="M138.453 201.222C138.453 201.222 137.863 200.949 137.759 201.49C137.613 202.133 137.391 203.459 137.065 204.518C136.635 205.988 136.274 208.409 136.531 209.61C136.787 210.812 140.049 212.347 142.166 212.906C144.775 213.596 147.154 214.81 149.106 216.446C151.188 218.135 155.72 219.73 158.822 219.712C162.466 219.712 165.006 218.671 166.206 216.999C167.407 215.327 165.11 215.125 160.946 212.835L157.719 211.05C151.119 207.356 148.697 205.381 146.844 201.686L138.453 201.222Z" fill="#1E1E1E"/>
<path d="M146.899 198.932C146.788 196.279 148.926 173.727 148.926 173.727L134.692 179.289C137.739 194.887 138.391 198.569 138.44 201.121C138.377 201.335 138.351 201.556 138.363 201.776C138.363 204.804 142.368 206.44 145.477 208.462C148.12 210.237 150.936 211.813 153.895 213.174C156.157 214.144 160.752 214.233 161.321 212.989C157.532 210.509 152.021 206.797 149.009 203.965C147.538 202.632 147.01 201.591 146.899 198.932Z" fill="#FFA8A7"/>
<path d="M110.347 98.2705C104.878 108.556 104.878 116.516 105.787 129.645C106.592 141.692 107.932 152.311 107.932 152.311C107.723 154.446 104.26 158.616 103.809 168.063C103.393 176.892 104.503 188.117 104.503 188.117C104.503 188.117 112.283 191.811 118.036 188.081C118.036 188.081 123.588 165.363 125.212 154.309C126.6 144.666 129.099 132.346 129.099 132.346L134.352 154.244C133.218 157.351 132.396 160.535 131.896 163.762C131.16 170.264 135.407 183.031 135.407 183.031C135.407 183.031 143.444 185.083 148.35 181.353C148.35 181.353 150.182 160.597 150.87 152.769C151.786 142.281 149.856 113.892 148.35 98.8594L110.347 98.2705Z" fill="#1E1E1E"/>
<path d="M129.112 132.328L131.271 115.826C131.271 115.826 140.945 114.719 145.331 111.186C144.076 112.869 142.403 114.295 140.433 115.362C138.462 116.43 136.242 117.112 133.929 117.361L130.806 132.715L134.352 154.244L129.112 132.328Z" fill="#1E1E1E"/>
<path d="M168.288 94.214C168.688 91.2026 168.864 88.1724 168.816 85.1419C168.601 82.5244 168.052 82.096 163.784 77.4618C158.024 71.1976 153.104 65.564 147.899 59.966C144.179 55.9683 140.265 55.3556 136.461 55.5341C133.796 55.659 139.002 66.6467 141.618 73.1488L156.56 86.9385C157.023 87.4827 157.235 88.1541 157.157 88.8243L156.254 100.556L160.731 105.695C160.731 105.695 167.511 100.686 168.288 94.214Z" fill="#FFA8A7"/>
<path d="M122.054 55.8909C119.16 56.0634 113.899 56.4858 113.899 56.4858C110.867 57.9373 110.096 59.1331 109.534 62.5835C109.291 64.0588 110.693 67.9791 111.894 73.5533L114.17 83.8866L113.92 89.0145C112.74 92.1437 110.069 96.0283 107.709 101.757C119.299 107.302 129.015 107.51 137.829 106.516C144.547 105.773 148.107 104.381 149.294 103C149.044 97.343 148.6 93.8451 148.461 87.9318C148.412 85.4511 148.586 82.9407 148.704 80.0852C153.208 76.9085 153.263 71.6258 150.786 68.1873C145.074 60.2574 139.515 55.2663 135.837 55.5221L122.054 55.8909Z" fill="currentColor"/>
<path opacity="0.6" d="M122.054 55.8909C119.16 56.0634 113.899 56.4858 113.899 56.4858C110.867 57.9373 110.096 59.1331 109.534 62.5835C109.291 64.0588 110.693 67.9791 111.894 73.5533L114.17 83.8866L113.92 89.0145C112.74 92.1437 110.069 96.0283 107.709 101.757C119.299 107.302 129.015 107.51 137.829 106.516C144.547 105.773 148.107 104.381 149.294 103C149.044 97.343 148.6 93.8451 148.461 87.9318C148.412 85.4511 148.586 82.9407 148.704 80.0852C153.208 76.9085 153.263 71.6258 150.786 68.1873C145.074 60.2574 139.515 55.2663 135.837 55.5221L122.054 55.8909Z" fill="white"/>
<path opacity="0.1" d="M139.73 80.1622C139.73 80.1622 134.441 83.684 128.397 81.8457C126.699 81.3873 125.168 80.561 123.953 79.4469C122.737 78.3329 121.877 76.9687 121.457 75.4863C121.457 75.4863 120.818 81.4055 128.431 83.4222C135.809 85.3675 139.73 80.1622 139.73 80.1622Z" fill="black"/>
<path d="M146.907 39.6433C146.678 48.2336 143.437 50.3514 141.799 50.9463C140.161 51.5412 137.024 51.1842 133.97 50.75V55.9374C133.97 55.9374 137.496 59.1023 137.232 61.464C136.969 63.8257 131.68 64.0934 127.738 61.7793C125.563 60.4986 123.596 58.9763 121.888 57.2522C121.56 56.9195 121.38 56.4979 121.381 56.0624V43.9265C121.381 43.9265 119.709 45.4435 116.752 43.7064C116.114 43.3575 115.568 42.8985 115.148 42.3588C114.728 41.8191 114.444 41.2104 114.314 40.5715C114.183 39.9325 114.209 39.2773 114.39 38.6474C114.571 38.0175 114.903 37.4268 115.364 36.9128C116.655 35.6099 119.931 35.5207 121.499 37.5076C122.388 38.9889 122.505 40.4821 123.498 39.8872C126.135 38.2572 124.719 34.5332 127.905 32.7485C128.95 32.2808 130.036 31.8831 131.153 31.5587C136.837 29.8752 141.764 28.4593 142.951 25.1279C145.185 26.2225 147.184 29.5123 146.907 39.6433Z" fill="#FFA8A7"/>
<path d="M135.698 47.3182C136.427 47.3182 137.017 46.8122 137.017 46.1879C137.017 45.5637 136.427 45.0576 135.698 45.0576C134.97 45.0576 134.38 45.5637 134.38 46.1879C134.38 46.8122 134.97 47.3182 135.698 47.3182Z" fill="#B16668"/>
<path d="M134.824 38.3407C134.824 38.5734 134.744 38.8009 134.594 38.9951C134.444 39.1893 134.231 39.3415 133.982 39.4331C133.732 39.5246 133.457 39.5514 133.19 39.5101C132.922 39.4688 132.675 39.3613 132.479 39.2008C132.282 39.0403 132.145 38.8339 132.084 38.6071C132.022 38.3804 132.04 38.1433 132.135 37.9251C132.229 37.7069 132.396 37.5173 132.615 37.3797C132.834 37.2421 133.095 37.1625 133.366 37.1509C133.554 37.1428 133.742 37.1676 133.919 37.2238C134.095 37.28 134.257 37.3663 134.393 37.4776C134.529 37.5889 134.638 37.7228 134.712 37.8712C134.786 38.0196 134.824 38.1793 134.824 38.3407Z" fill="#1E1E1E"/>
<path d="M145.338 38.4603C145.352 38.6058 145.333 38.7523 145.28 38.8913C145.227 39.0302 145.143 39.1588 145.032 39.2696C144.921 39.3803 144.785 39.471 144.633 39.5363C144.48 39.6016 144.314 39.6403 144.144 39.6501C143.973 39.6636 143.8 39.6458 143.637 39.5977C143.474 39.5496 143.325 39.4723 143.2 39.371C143.074 39.2698 142.976 39.1468 142.91 39.0103C142.844 38.8738 142.813 38.7268 142.819 38.5792C142.801 38.4326 142.818 38.2844 142.869 38.1437C142.921 38.003 143.005 37.8727 143.117 37.7609C143.229 37.6491 143.367 37.5581 143.521 37.4934C143.676 37.4288 143.844 37.3919 144.016 37.385C144.188 37.3781 144.359 37.4013 144.52 37.4533C144.681 37.5053 144.828 37.5849 144.952 37.6872C145.076 37.7896 145.174 37.9125 145.24 38.0485C145.307 38.1845 145.34 38.3307 145.338 38.4781V38.4603Z" fill="#1E1E1E"/>
<path d="M133.04 41.3995C131.843 41.3996 130.695 40.9923 129.848 40.2674C129.001 39.5424 128.524 38.5588 128.522 37.5327C128.522 34.9033 131.687 34.9033 133.04 34.9033C134.394 34.9033 137.551 34.9033 137.551 37.5327C137.55 38.5578 137.074 39.5404 136.228 40.2653C135.383 40.9901 134.236 41.398 133.04 41.3995ZM133.04 35.5101C130.264 35.5101 129.237 36.105 129.237 37.5327C129.237 38.4005 129.639 39.2327 130.355 39.8463C131.071 40.4599 132.042 40.8047 133.054 40.8047C134.067 40.8047 135.037 40.4599 135.753 39.8463C136.469 39.2327 136.871 38.4005 136.871 37.5327C136.844 36.0753 135.775 35.5101 133.04 35.5101Z" fill="#1E1E1E"/>
<path d="M144.498 41.3995C143.301 41.3996 142.153 40.9923 141.306 40.2674C140.459 39.5424 139.982 38.5588 139.98 37.5327C139.98 34.9033 143.145 34.9033 144.498 34.9033C145.852 34.9033 149.009 34.9033 149.009 37.5327C149.008 38.5578 148.532 39.5404 147.686 40.2653C146.841 40.9901 145.694 41.398 144.498 41.3995ZM144.498 35.5101C141.764 35.5101 140.695 36.105 140.695 37.5327C140.695 38.4005 141.097 39.2327 141.813 39.8463C142.529 40.4599 143.5 40.8047 144.512 40.8047C145.525 40.8047 146.496 40.4599 147.211 39.8463C147.927 39.2327 148.329 38.4005 148.329 37.5327C148.302 36.0753 147.233 35.5101 144.498 35.5101Z" fill="#1E1E1E"/>
<path d="M138.252 36.2822L138.474 43.5102L142.909 42.3323L138.252 36.2822Z" fill="#F28F8F"/>
<path d="M133.964 50.7689C130.743 50.406 124.116 48.776 123.082 46.5273C123.498 47.6638 124.309 48.6642 125.406 49.3947C127.384 50.8522 133.964 52.4882 133.964 52.4882V50.7689Z" fill="#F28F8F"/>
<path d="M134.123 32.7727L131.18 34.3135C130.949 33.9672 130.881 33.5577 130.992 33.1699C131.103 32.7822 131.385 32.4461 131.777 32.2314C131.971 32.1304 132.187 32.0642 132.412 32.0368C132.637 32.0094 132.866 32.0214 133.085 32.072C133.304 32.1226 133.509 32.2108 133.688 32.3312C133.866 32.4516 134.014 32.6018 134.123 32.7727Z" fill="#1E1E1E"/>
<path d="M146.095 34.4862L142.819 33.5046C142.882 33.3185 142.989 33.1455 143.134 32.9962C143.278 32.8469 143.456 32.7245 143.658 32.6365C143.859 32.5485 144.08 32.4967 144.305 32.4843C144.531 32.472 144.757 32.4993 144.97 32.5647C145.41 32.7 145.771 32.975 145.981 33.3327C146.19 33.6904 146.231 34.1034 146.095 34.4862Z" fill="#1E1E1E"/>
<path d="M137.197 37.8411C137.15 37.8412 137.104 37.8331 137.06 37.8175C137.017 37.8019 136.977 37.779 136.945 37.7502C136.912 37.7214 136.886 37.6872 136.868 37.6497C136.851 37.6122 136.842 37.5721 136.843 37.5318C136.843 37.038 137.982 36.7168 139.009 36.7168C140.036 36.7168 140.695 37.038 140.695 37.5318C140.674 37.5964 140.628 37.6533 140.565 37.6938C140.503 37.7343 140.426 37.7562 140.348 37.7562C140.27 37.7562 140.193 37.7343 140.131 37.6938C140.068 37.6533 140.023 37.5964 140.001 37.5318C140.001 37.4723 139.647 37.3236 139.029 37.3236C138.532 37.3145 138.037 37.3872 137.572 37.5377C137.572 37.5791 137.562 37.6201 137.543 37.6581C137.524 37.6961 137.496 37.7304 137.461 37.7588C137.426 37.7873 137.385 37.8092 137.339 37.8234C137.294 37.8375 137.245 37.8436 137.197 37.8411Z" fill="#1E1E1E"/>
<path d="M128.89 37.5795H128.848L120.916 36.9846C120.545 36.6696 120.104 36.4227 119.618 36.2588L128.932 36.9965C129.025 37.0069 129.11 37.0482 129.168 37.1115C129.227 37.1749 129.254 37.2553 129.244 37.3355C129.228 37.4053 129.183 37.468 129.119 37.5126C129.054 37.5572 128.973 37.5808 128.89 37.5795Z" fill="#1E1E1E"/>
<path d="M96.3208 44.6707C98.9164 41.6963 100.686 39.4535 103.053 36.9371C104.399 35.4915 105.26 34.4564 106.523 32.9751C107.411 31.9519 107.911 31.0893 108.924 30.774C110.019 30.3895 111.005 29.8095 111.818 29.0726C112.317 28.5989 112.781 28.0981 113.206 27.5735C114.693 25.8573 116.46 24.3327 118.453 23.0464C120.535 21.7019 122.859 20.6668 125.004 19.3878C126.281 18.6204 127.648 17.3473 126.093 16.1575C125.617 15.8133 125.046 15.578 124.435 15.4734C120.653 14.7714 117.363 15.8839 113.664 16.6929C112.057 17.0367 110.486 17.4923 108.966 18.0552C108.218 18.3087 107.516 18.6533 106.883 19.0784C105.998 19.8433 105.273 20.7327 104.739 21.7079C103.122 24.1826 99.652 26.3956 97.223 28.3528C94.3845 30.6432 91.8445 32.7431 88.6035 35.2655C85.6887 37.5439 82.8363 39.6379 80.1644 42.1246C77.9505 44.177 78.7764 45.7832 79.0679 46.3424C80.8723 49.5191 82.8918 50.6613 85.3139 52.6304C89.4779 56.0391 103.878 65.8489 108.646 69.0911C109.671 69.7808 110.475 70.6811 110.985 71.7086L111.901 73.523C117.342 74.3797 120.972 67.3778 116.468 58.9482C115.722 57.585 114.582 56.4077 113.157 55.5275C107.466 51.976 96.3208 44.6707 96.3208 44.6707Z" fill="#FFA8A7"/>
<path d="M96.3204 44.6709C94.5886 46.4971 92.2807 47.8579 89.6719 48.5912C89.6719 48.5912 93.1419 49.3527 97.8958 45.6941L96.3204 44.6709Z" fill="#F28F8F"/>
<path d="M166.872 88.0086L165.984 87.3542C165.851 87.2792 165.7 87.2321 165.542 87.2166C165.384 87.2011 165.224 87.2176 165.075 87.2649L155.435 89.5136C154.95 89.6524 154.505 89.8795 154.131 90.1793C153.757 90.4791 153.464 90.8446 153.27 91.2507L146.33 108.401C146.246 108.541 146.214 108.699 146.236 108.855C146.258 109.011 146.334 109.158 146.455 109.276L147.371 109.954C147.504 110.033 147.658 110.083 147.819 110.099C147.979 110.116 148.143 110.099 148.294 110.049L157.947 107.801C158.433 107.662 158.878 107.435 159.252 107.135C159.625 106.835 159.919 106.47 160.113 106.064C161.501 102.691 165.665 92.2858 167.053 88.9128C167.219 88.4904 167.136 88.1692 166.872 88.0086Z" fill="#1E1E1E"/>
<path d="M147.239 109.062L154.179 91.9114C154.372 91.5055 154.666 91.1404 155.039 90.8415C155.413 90.5426 155.859 90.3169 156.344 90.1802L165.977 87.9315C166.872 87.7233 167.365 88.1635 167.046 88.9131C165.658 92.2861 161.494 102.691 160.106 106.064C159.912 106.47 159.619 106.835 159.245 107.135C158.871 107.435 158.426 107.662 157.941 107.801L148.308 110.073C147.42 110.252 146.941 109.812 147.239 109.062Z" fill="currentColor"/>
<path d="M155.297 90.6562C154.795 90.9816 154.407 91.4175 154.172 91.9174L147.232 109.062C147.153 109.198 147.12 109.351 147.137 109.503C147.154 109.654 147.221 109.798 147.329 109.919L146.469 109.288C146.346 109.171 146.267 109.025 146.243 108.869C146.22 108.712 146.252 108.554 146.337 108.414L153.277 91.263C153.496 90.7968 153.853 90.3869 154.311 90.0732L155.297 90.6562Z" fill="#1E1E1E"/>
<path d="M164.229 95.8259C163.535 97.5689 161.127 98.7349 157.144 99.5439C153.16 100.353 150.96 103.976 151.592 105.076C152.223 106.177 158.663 107.206 161.238 106.891C163.813 106.576 166.395 103.387 167.179 102.399C167.963 101.412 168.865 94.523 168.039 93.5772C167.214 92.6313 165.472 92.78 165.472 92.78L164.229 95.8259Z" fill="#F28F8F"/>
</svg>
