<svg width="101" height="54" viewBox="0 0 101 54" fill="none" xmlns="http://www.w3.org/2000/svg">
<g filter="url(#filter0_d_270_9061)">
<path d="M53.9064 28.5611C53.9064 26.6882 54.6001 25.0177 55.9873 23.5495C57.6752 21.7692 59.6925 20.879 62.0393 20.879C64.3861 20.879 66.3976 21.7692 68.0739 23.5495C69.4612 25.0293 70.1548 26.7056 70.1548 28.5784C70.1548 30.4281 69.4959 32.0755 68.178 33.5205C66.5595 35.3009 64.5133 36.191 62.0393 36.191C59.5653 36.191 57.5133 35.3009 55.8833 33.5205C55.2475 32.8269 54.7561 32.0524 54.4093 31.1969C54.0741 30.3414 53.9064 29.4628 53.9064 28.5611ZM57.0625 28.3703C57.0625 30.3818 57.5133 32.087 58.4151 33.4859C59.4324 35.0465 60.6751 35.8269 62.1433 35.8269C62.7676 35.8269 63.3745 35.6535 63.9641 35.3067C64.5537 34.9598 65.0624 34.4743 65.4901 33.85C65.941 33.2026 66.3052 32.3934 66.5826 31.4223C66.8601 30.4397 66.9988 29.4917 66.9988 28.5784C66.9988 27.6304 66.8485 26.6767 66.5479 25.7172C66.2589 24.7461 65.8659 23.9137 65.3687 23.2201C64.4208 21.9137 63.2589 21.2605 61.8832 21.2605C60.5769 21.2605 59.4497 21.9484 58.5018 23.3241C57.5422 24.6998 57.0625 26.3819 57.0625 28.3703Z" fill="#FF5859"/>
</g>
<g filter="url(#filter1_d_270_9061)">
<path d="M76.8615 23.5495C77.2777 22.8212 77.7459 22.2721 78.2661 21.9022C79.2257 21.2201 80.3181 20.879 81.5436 20.879C82.295 20.879 82.8673 21.0467 83.2603 21.3819C83.6187 21.6825 83.7979 22.0524 83.7979 22.4917C83.7979 22.8154 83.6881 23.0813 83.4684 23.2894C83.2603 23.4975 82.9886 23.6016 82.6534 23.6016C82.2603 23.6016 81.9193 23.4397 81.6303 23.116L81.0927 22.5264C80.665 22.0756 80.1621 21.8501 79.584 21.8501C78.7979 21.8501 78.1852 22.3588 77.7459 23.3761C77.3066 24.3935 77.087 25.8096 77.087 27.6246V30.8674L77.1043 32.1853C77.1043 32.9714 77.1505 33.5494 77.243 33.9194C77.3355 34.2778 77.5147 34.5783 77.7806 34.8211C78.1043 35.1332 78.6997 35.3702 79.5667 35.5321V35.8789H71.9194V35.5321C72.613 35.4396 73.1101 35.3124 73.4107 35.1506C73.7113 34.9772 73.954 34.6882 74.139 34.2835C74.2662 34.0177 74.3529 33.6188 74.3991 33.087C74.4569 32.5437 74.4858 31.7633 74.4858 30.746V26.4628C74.4858 25.2721 74.4569 24.4397 74.3991 23.9657C74.3413 23.4802 74.2142 23.0871 74.0176 22.7865C73.8211 22.4628 73.5841 22.2316 73.3066 22.0929C73.0292 21.9426 72.6304 21.8501 72.1101 21.8155V21.4686L76.5667 20.8444C76.7633 21.8964 76.8615 22.7981 76.8615 23.5495Z" fill="#FF5859"/>
</g>
<g filter="url(#filter2_d_270_9061)">
<path d="M87.839 26.0226C87.7928 26.5891 87.7697 26.9995 87.7697 27.2538C87.7697 28.2596 87.9142 29.2422 88.2032 30.2018C88.5038 31.1613 88.9084 31.959 89.4171 32.5948C89.9373 33.2422 90.5789 33.7509 91.3419 34.1208C92.1165 34.4907 92.9257 34.6757 93.7696 34.6757C94.3939 34.6757 94.9835 34.5717 95.5384 34.3636C96.1049 34.1555 96.5731 33.8665 96.943 33.4965C97.3592 33.0919 97.7176 32.4445 98.0181 31.5544L98.365 31.6757C98.0644 33.0283 97.417 34.0514 96.4228 34.7451C95.4401 35.4272 94.128 35.7682 92.4864 35.7682C91.0644 35.7682 89.8448 35.5428 88.8275 35.0919C87.8101 34.641 86.9489 33.9474 86.2437 33.011C85.261 31.7046 84.7697 30.0977 84.7697 28.1902C84.7697 25.5891 85.7003 23.5487 87.5616 22.0689C88.9142 20.9938 90.4575 20.4562 92.1916 20.4562C93.1165 20.4562 93.9719 20.6238 94.7581 20.9591C95.5442 21.2828 96.2089 21.7568 96.7523 22.381C97.5962 23.3521 98.0181 24.566 98.0181 26.0226H87.839ZM95.4343 25.3463C95.3534 24.1903 95.1396 23.3001 94.7927 22.6758C94.4806 22.1094 94.0644 21.6643 93.5442 21.3406C93.024 21.0053 92.4691 20.8377 91.8795 20.8377C90.8853 20.8377 90.0124 21.2654 89.261 22.1209C88.5211 22.9764 88.0818 24.0515 87.9431 25.3463H95.4343Z" fill="#FF5859"/>
</g>
<g filter="url(#filter3_d_270_9061)">
<path d="M24.2991 1.70867C25.7449 0.873938 27.5262 0.873939 28.972 1.70867L47.0547 12.1487C48.5005 12.9834 49.3912 14.5261 49.3912 16.1956V37.0756C49.3912 38.7451 48.5005 40.2878 47.0547 41.1225L28.972 51.5625C27.5262 52.3973 25.7449 52.3972 24.2991 51.5625L6.21647 41.1225C4.77067 40.2877 3.88002 38.7451 3.88002 37.0756V16.1956C3.88002 14.5261 4.77067 12.9834 6.21648 12.1487L24.2991 1.70867Z" stroke="#FF5859" stroke-width="0.623055" shape-rendering="crispEdges"/>
</g>
<path d="M30.2481 35.803C31.0033 36.2894 31.8481 36.667 32.7824 36.9358C33.7295 37.2174 34.6767 37.3582 35.6238 37.3582C36.4302 37.3582 37.1917 37.2622 37.9085 37.0702C38.638 36.891 39.2204 36.6414 39.6556 36.3214C40.0396 36.0398 40.3403 35.7135 40.5579 35.3423C40.7883 34.9583 40.9931 34.4335 41.1723 33.768L41.4795 33.8064C41.4283 34.7407 41.2683 35.5279 40.9995 36.1678C40.7435 36.8206 40.3275 37.4477 39.7516 38.0493C38.2285 39.6364 36.027 40.43 33.1472 40.43C31.4705 40.43 30.0626 40.1292 28.9234 39.5276C27.8995 38.9773 26.8052 37.9853 25.6404 36.5518L25.5252 36.4174C24.3989 36.4174 23.2278 36.2382 22.0119 35.8798C20.8087 35.5343 19.676 35.0415 18.6137 34.4015C16.5146 33.1472 14.8827 31.5025 13.718 29.4674C12.566 27.4324 11.9901 25.2181 11.9901 22.8246C11.9901 20.6872 12.4508 18.7033 13.3724 16.873C14.2939 15.0299 15.6378 13.4236 17.4041 12.0541C18.6969 11.043 20.1112 10.2686 21.6471 9.73103C23.183 9.18067 24.7253 8.90548 26.274 8.90548C28.0915 8.90548 29.8578 9.27026 31.5729 9.99982C32.8784 10.5758 34.0943 11.3501 35.2206 12.3229C36.3598 13.2828 37.3197 14.3708 38.1005 15.5867C39.4828 17.7369 40.1739 20.0792 40.1739 22.6134C40.1739 24.239 39.8796 25.8133 39.2908 27.3364C38.7148 28.8467 37.8765 30.2354 36.7758 31.5025C35.867 32.552 34.9071 33.4096 33.8959 34.0752C32.8848 34.7407 31.6689 35.3167 30.2481 35.803ZM19.5352 32.4624C20.4695 32.1937 21.3975 32.0593 22.319 32.0593C23.4582 32.0593 24.5525 32.2833 25.602 32.7312C26.05 32.9232 26.5108 33.1728 26.9843 33.48C27.4579 33.7872 28.2259 34.3247 29.2882 35.0927L29.461 35.2271C30.2929 34.7791 31.0097 34.2543 31.6113 33.6528C32.2256 33.0512 32.8208 32.2641 33.3968 31.2913C34.8175 28.9491 35.5278 26.21 35.5278 23.0742C35.5278 21.0263 35.2462 19.0745 34.6831 17.2186C34.1327 15.3627 33.352 13.8012 32.3408 12.5341C31.5217 11.4973 30.6065 10.7358 29.5954 10.2494C28.597 9.76303 27.4259 9.51985 26.082 9.51985C24.7253 9.51985 23.5414 9.76303 22.5302 10.2494C21.5319 10.723 20.6231 11.4845 19.804 12.5341C18.8056 13.8012 18.0249 15.3627 17.4617 17.2186C16.9114 19.0617 16.6362 21.0071 16.6362 23.055C16.6362 24.9493 16.8666 26.6452 17.3273 28.1427C17.7881 29.6274 18.5241 31.0673 19.5352 32.4624ZM25.0837 35.8798L24.9493 35.7263C24.0533 34.6511 23.2918 33.896 22.6646 33.4608C22.0374 33.0256 21.3975 32.808 20.7447 32.808C20.5015 32.808 20.2328 32.8592 19.9384 32.9616C20.7447 33.896 21.5319 34.5807 22.2998 35.0159C23.0806 35.4511 24.0085 35.739 25.0837 35.8798Z" fill="#1E1E1E"/>
<path d="M30.4549 35.8026C31.2019 36.2838 32.0376 36.6573 32.9619 36.9232C33.8988 37.2017 34.8358 37.341 35.7727 37.341C36.5704 37.341 37.3238 37.2461 38.0328 37.0561C38.7545 36.8789 39.3306 36.632 39.7611 36.3154C40.141 36.0369 40.4385 35.714 40.6538 35.3468C40.8817 34.967 41.0843 34.4478 41.2615 33.7894L41.5654 33.8274C41.5148 34.7517 41.3565 35.5304 41.0906 36.1635C40.8374 36.8092 40.4259 37.4296 39.8561 38.0247C38.3494 39.5948 36.1716 40.3798 33.3227 40.3798C31.664 40.3798 30.2713 40.0823 29.1444 39.4872C28.1315 38.9427 27.0489 37.9614 25.8967 36.5433L25.7827 36.4104C24.6685 36.4104 23.51 36.2331 22.3071 35.8786C21.1169 35.5367 19.9964 35.0493 18.9455 34.4162C16.869 33.1754 15.2546 31.5483 14.1024 29.5351C12.9629 27.522 12.3931 25.3315 12.3931 22.9638C12.3931 20.8493 12.8489 18.8867 13.7605 17.0761C14.6722 15.2529 16.0016 13.6638 17.7489 12.309C19.0278 11.3088 20.4269 10.5428 21.9463 10.011C23.4657 9.46652 24.9914 9.19429 26.5234 9.19429C28.3214 9.19429 30.0687 9.55515 31.7653 10.2769C33.0568 10.8466 34.2597 11.6127 35.3739 12.5749C36.5008 13.5246 37.4504 14.6008 38.2227 15.8036C39.5902 17.9308 40.2739 20.2479 40.2739 22.7549C40.2739 24.3629 39.9827 25.9203 39.4003 27.427C38.8305 28.9211 38.0012 30.2948 36.9123 31.5483C36.0133 32.5866 35.0637 33.4349 34.0634 34.0933C33.0631 34.7517 31.8603 35.3215 30.4549 35.8026ZM19.8571 32.498C20.7814 32.2321 21.6994 32.0991 22.611 32.0991C23.7379 32.0991 24.8204 32.3207 25.8587 32.7639C26.3019 32.9538 26.7577 33.2007 27.2262 33.5046C27.6946 33.8084 28.4543 34.3402 29.5052 35.0999L29.6762 35.2329C30.4992 34.7897 31.2082 34.2706 31.8033 33.6755C32.4111 33.0804 32.9998 32.3017 33.5696 31.3394C34.975 29.0223 35.6778 26.3128 35.6778 23.2107C35.6778 21.1848 35.3992 19.2539 34.8421 17.418C34.2977 15.5821 33.5253 14.0374 32.525 12.7839C31.7147 11.7583 30.8094 11.0049 29.8091 10.5238C28.8215 10.0426 27.663 9.80205 26.3335 9.80205C24.9914 9.80205 23.8202 10.0426 22.8199 10.5238C21.8323 10.9922 20.9333 11.7456 20.123 12.7839C19.1354 14.0374 18.363 15.5821 17.8059 17.418C17.2615 19.2413 16.9893 21.1658 16.9893 23.1917C16.9893 25.0656 17.2172 26.7433 17.673 28.2247C18.1288 29.6934 18.8568 31.1178 19.8571 32.498ZM25.3459 35.8786L25.213 35.7267C24.3266 34.6631 23.5733 33.9161 22.9529 33.4856C22.3324 33.0551 21.6994 32.8398 21.0536 32.8398C20.8131 32.8398 20.5472 32.8905 20.2559 32.9918C21.0536 33.9161 21.8323 34.5935 22.592 35.0239C23.3644 35.4544 24.2823 35.7393 25.3459 35.8786Z" fill="#FF5859"/>
<defs>
<filter id="filter0_d_270_9061" x="53.4835" y="20.8789" width="16.6713" height="15.7353" filterUnits="userSpaceOnUse" color-interpolation-filters="sRGB">
<feFlood flood-opacity="0" result="BackgroundImageFix"/>
<feColorMatrix in="SourceAlpha" type="matrix" values="0 0 0 0 0 0 0 0 0 0 0 0 0 0 0 0 0 0 127 0" result="hardAlpha"/>
<feOffset dx="-0.422787" dy="0.422787"/>
<feComposite in2="hardAlpha" operator="out"/>
<feColorMatrix type="matrix" values="0 0 0 0 0 0 0 0 0 0 0 0 0 0 0 0 0 0 1 0"/>
<feBlend mode="normal" in2="BackgroundImageFix" result="effect1_dropShadow_270_9061"/>
<feBlend mode="normal" in="SourceGraphic" in2="effect1_dropShadow_270_9061" result="shape"/>
</filter>
<filter id="filter1_d_270_9061" x="71.4966" y="20.8447" width="12.3012" height="15.0342" filterUnits="userSpaceOnUse" color-interpolation-filters="sRGB">
<feFlood flood-opacity="0" result="BackgroundImageFix"/>
<feColorMatrix in="SourceAlpha" type="matrix" values="0 0 0 0 0 0 0 0 0 0 0 0 0 0 0 0 0 0 127 0" result="hardAlpha"/>
<feOffset dx="-0.422787"/>
<feComposite in2="hardAlpha" operator="out"/>
<feColorMatrix type="matrix" values="0 0 0 0 0 0 0 0 0 0 0 0 0 0 0 0 0 0 1 0"/>
<feBlend mode="normal" in2="BackgroundImageFix" result="effect1_dropShadow_270_9061"/>
<feBlend mode="normal" in="SourceGraphic" in2="effect1_dropShadow_270_9061" result="shape"/>
</filter>
<filter id="filter2_d_270_9061" x="84.3467" y="20.4561" width="14.018" height="15.7353" filterUnits="userSpaceOnUse" color-interpolation-filters="sRGB">
<feFlood flood-opacity="0" result="BackgroundImageFix"/>
<feColorMatrix in="SourceAlpha" type="matrix" values="0 0 0 0 0 0 0 0 0 0 0 0 0 0 0 0 0 0 127 0" result="hardAlpha"/>
<feOffset dx="-0.422787" dy="0.422787"/>
<feComposite in2="hardAlpha" operator="out"/>
<feColorMatrix type="matrix" values="0 0 0 0 0 0 0 0 0 0 0 0 0 0 0 0 0 0 1 0"/>
<feBlend mode="normal" in2="BackgroundImageFix" result="effect1_dropShadow_270_9061"/>
<feBlend mode="normal" in="SourceGraphic" in2="effect1_dropShadow_270_9061" result="shape"/>
</filter>
<filter id="filter3_d_270_9061" x="3.14557" y="0.771484" width="46.5571" height="52.1513" filterUnits="userSpaceOnUse" color-interpolation-filters="sRGB">
<feFlood flood-opacity="0" result="BackgroundImageFix"/>
<feColorMatrix in="SourceAlpha" type="matrix" values="0 0 0 0 0 0 0 0 0 0 0 0 0 0 0 0 0 0 127 0" result="hardAlpha"/>
<feOffset dx="-0.422787" dy="0.422787"/>
<feComposite in2="hardAlpha" operator="out"/>
<feColorMatrix type="matrix" values="0 0 0 0 0 0 0 0 0 0 0 0 0 0 0 0 0 0 1 0"/>
<feBlend mode="normal" in2="BackgroundImageFix" result="effect1_dropShadow_270_9061"/>
<feBlend mode="normal" in="SourceGraphic" in2="effect1_dropShadow_270_9061" result="shape"/>
</filter>
</defs>
</svg>
