<svg width="318" height="322" viewBox="0 0 318 322" fill="none" xmlns="http://www.w3.org/2000/svg">
<path d="M79.7099 1.86133H18.1252V66.0571H79.7099V1.86133Z" fill="#E0E0E0"/>
<path d="M75.5393 1.86133H13.9546V66.0571H75.5393V1.86133Z" fill="#EBEBEB"/>
<path d="M67.2639 10.4902H22.2377V57.424H67.2639V10.4902Z" fill="#FAFAFA"/>
<path d="M22.2375 57.7363C21.9063 58.2093 21.5297 58.649 21.1133 59.0491C20.388 59.7744 19.3726 60.8261 18.2122 61.9503C17.0517 63.0745 16.0363 64.0681 15.311 64.7717C14.9187 65.1787 14.4889 65.5478 14.0272 65.8741C14.3455 65.3995 14.7126 64.9596 15.1224 64.5613C15.8477 63.836 16.8631 62.7771 18.0236 61.6602C19.1841 60.5432 20.1995 59.5423 20.961 58.8315C21.3452 58.4209 21.7733 58.0536 22.2375 57.7363Z" fill="#E0E0E0"/>
<path d="M67.2639 57.5977C67.7243 57.9308 68.1518 58.3073 68.5404 58.7219C69.2657 59.4472 70.3174 60.4626 71.4416 61.623C72.5658 62.7835 73.5522 63.7989 74.263 64.5242C74.6721 64.9145 75.0414 65.3446 75.3654 65.808C74.9015 65.4821 74.4735 65.1076 74.0889 64.691C73.3636 63.9657 72.312 62.9503 71.1878 61.7899C70.0636 60.6294 69.0772 59.614 68.3664 58.8887C67.9544 58.4984 67.5849 58.0656 67.2639 57.5977Z" fill="#E0E0E0"/>
<path d="M67.1404 10.6132C67.4708 10.1506 67.8474 9.72292 68.2646 9.33673C68.9899 8.61144 69.998 7.55976 71.1295 6.43556C72.261 5.31135 73.3054 4.3177 74.0669 3.61417C74.4606 3.20576 74.8929 2.83654 75.358 2.51172C75.0261 2.97095 74.6495 3.39612 74.2338 3.78098C73.5085 4.50628 72.5003 5.5652 71.3326 6.68216C70.1649 7.79911 69.1567 8.80001 68.3879 9.5108C68.0103 9.91946 67.5924 10.2888 67.1404 10.6132Z" fill="#E0E0E0"/>
<path d="M22.1141 10.7299C21.6537 10.3967 21.2262 10.0203 20.8376 9.60565C20.1123 8.88036 19.0534 7.86494 17.9364 6.70448C16.8195 5.54401 15.8186 4.52859 15.1078 3.8033C14.6994 3.41434 14.3323 2.98412 14.0126 2.51953C14.4712 2.84938 14.8964 3.22349 15.2818 3.63648C16.0071 4.36177 17.0661 5.37719 18.183 6.53766C19.3 7.69812 20.3009 8.71354 21.0117 9.43883C21.4236 9.82911 21.7931 10.2619 22.1141 10.7299Z" fill="#E0E0E0"/>
<path d="M67.1406 57.4225C67.1406 57.4225 67.1406 57.3427 67.1406 57.1977C67.1406 57.0526 67.1406 56.8205 67.1406 56.5449C67.1406 55.9574 67.1406 55.0943 67.1406 54.0136C67.1406 51.7942 67.1406 48.5594 67.1406 44.447C67.1406 36.2294 67.0971 24.516 67.0608 10.4888L67.2132 10.6338H22.3102L22.477 10.467C22.477 27.6927 22.477 43.8305 22.477 57.4008L22.332 57.2557L54.8541 57.3282L63.9783 57.3718H66.3936H64.0146H54.9122L22.274 57.4443H22.1289V57.2992C22.1289 43.7072 22.1289 27.5622 22.1289 10.3655V10.1914H22.303H67.2059H67.351V10.3437C67.351 24.4072 67.2929 36.1569 67.2784 44.4325C67.2784 48.5304 67.2784 51.7507 67.2349 53.9629C67.2349 55.0508 67.2349 55.8922 67.2349 56.4651C67.2349 56.7407 67.2349 56.9511 67.2349 57.1034C67.2349 57.2557 67.1406 57.4225 67.1406 57.4225Z" fill="#E0E0E0"/>
<path d="M34.1179 30.0957C34.1179 30.0957 33.1533 41.7004 45.7226 41.7004C45.7371 35.5136 40.6238 30.6179 34.1179 30.0957Z" fill="#EBEBEB"/>
<path d="M57.1458 30.1011C57.1458 30.1011 45.5411 29.1364 45.5411 41.7058C51.7279 41.7275 56.6236 36.6069 57.1458 30.1011Z" fill="#EBEBEB"/>
<path d="M45.1785 23.7402C45.1785 23.7402 35.6844 32.2624 45.7007 41.713C50.3571 36.781 49.9364 29.0421 45.1785 23.7402Z" fill="#E0E0E0"/>
<path d="M238.266 236.935C234.434 234.54 230.105 233.051 225.61 232.584C223.543 232.373 221.258 232.431 219.619 233.686C219.429 233.798 219.272 233.959 219.164 234.151C219.055 234.343 219 234.561 219.002 234.781C219.106 235.085 219.314 235.342 219.59 235.507C224.739 239.43 232.529 239.931 238.266 236.921" fill="#E0E0E0"/>
<path d="M237.94 236.571C235.009 234.421 232.273 232.016 229.766 229.383C227.248 226.733 225.479 223.462 224.638 219.904C224.42 218.823 224.355 217.59 225.044 216.734C231.572 221.811 236.649 228.404 237.94 236.571Z" fill="#E0E0E0"/>
<path d="M238.201 236.883C237.596 233.326 237.645 229.688 238.346 226.149C239.165 222.646 241.073 219.295 244.068 217.293C245.193 219.926 244.707 222.958 243.916 225.706C242.687 229.968 240.771 234 238.244 237.645" fill="#E0E0E0"/>
<path d="M244.584 248.35C240.71 248.821 237.331 250.866 234.429 253.485C231.523 256.136 229.498 259.614 228.627 263.45C232.435 263.218 235.662 260.549 237.998 257.532C240.333 254.515 241.965 251.222 244.526 248.408" fill="#E0E0E0"/>
<path d="M245.976 250.156C244.451 246.28 243.917 242.085 244.424 237.951C244.93 233.817 246.461 229.875 248.877 226.482C251.089 234.337 250.277 243.215 245.976 250.156Z" fill="#E0E0E0"/>
<path d="M254.411 260.209C250.867 259.988 247.336 260.815 244.259 262.587C241.181 264.359 238.694 266.998 237.106 270.174C236.888 270.602 236.7 271.146 236.99 271.531C237.139 271.675 237.322 271.782 237.521 271.84C237.721 271.898 237.932 271.906 238.136 271.864C241.545 271.647 244.569 269.594 247.064 267.259C249.559 264.923 251.735 262.218 254.491 260.202" fill="#E0E0E0"/>
<path d="M254.143 259.665C252.327 253.814 252.216 247.567 253.824 241.656C254.455 239.335 255.521 236.898 257.668 235.81C257.753 235.752 257.849 235.714 257.951 235.696C258.052 235.679 258.156 235.683 258.255 235.709C258.428 235.8 258.56 235.952 258.625 236.136C259.344 237.758 259.655 239.531 259.532 241.301C259.403 243.063 259.131 244.812 258.72 246.53C258.045 249.728 257.69 253.166 255.934 255.922C255.518 256.584 255.145 257.272 254.817 257.982C254.484 258.708 254.484 258.932 254.179 259.491" fill="#E0E0E0"/>
<path d="M276.482 262.994C274.828 256.691 276.584 249.061 280.551 243.897C280.848 243.52 281.233 243.114 281.711 243.172C282.437 243.237 282.632 244.216 282.596 244.949C282.299 251.424 280.18 257.684 276.482 263.008" fill="#E0E0E0"/>
<path d="M278.498 264.367C286.15 266.361 294.926 264.425 301.287 259.732C297.474 257.821 293.118 257.288 288.957 258.223C284.837 259.166 281.073 261.008 278.506 264.367" fill="#E0E0E0"/>
<path d="M280.195 260.174C284.482 253.189 292.692 248.634 300.881 248.221C299.938 251.55 297.196 254.132 294.114 255.698C291.031 257.265 287.586 257.94 284.184 258.6C282.864 258.854 281.051 259.136 280.195 260.174Z" fill="#E0E0E0"/>
<path d="M276.91 239.834C278.07 235.86 279.238 231.856 279.557 227.722C279.876 223.588 279.282 219.287 277.142 215.74C273.138 223.486 272.74 232.531 276.787 240.248" fill="#E0E0E0"/>
<path d="M290.386 233.025C295.064 224.518 304.609 217.729 314.27 216.771C310.542 226.055 300.38 233.221 290.386 233.025Z" fill="#E0E0E0"/>
<path d="M287.441 234.694C294.418 235.753 300.366 240.213 306.886 242.911C308.252 243.574 309.768 243.864 311.281 243.753C311.987 243.749 312.675 243.528 313.251 243.12C313.827 242.712 314.264 242.137 314.501 241.472C314.739 240.808 314.766 240.086 314.579 239.405C314.393 238.725 314.001 238.118 313.457 237.667C312.533 236.816 311.448 236.157 310.266 235.731C303.158 232.772 295.543 232.699 288.058 234.491" fill="#E0E0E0"/>
<path d="M283.401 239.588C284.982 240.038 285.519 240.857 286.774 241.924C291.04 245.549 296.086 248.141 301.519 249.496C302.085 249.633 302.817 249.691 303.1 249.184C303.383 248.676 303.035 248.197 302.716 247.806C300.347 245.026 297.273 242.936 293.816 241.757C290.408 240.495 287.463 238.964 283.401 239.291" fill="#E0E0E0"/>
<path d="M278.839 210.018C281.703 212.653 285.087 214.66 288.773 215.909C292.46 217.158 296.366 217.622 300.243 217.271C300.598 217.278 300.944 217.154 301.214 216.922C301.751 216.335 301.106 215.428 300.489 214.942C294.194 210.039 286.578 208.001 278.846 209.989" fill="#E0E0E0"/>
<path d="M284.242 208.046C288.031 205.257 292.425 203.403 297.066 202.637C301.707 201.87 306.464 202.213 310.948 203.636C307.582 206.95 302.919 208.713 298.219 209.221C293.527 209.65 288.797 209.253 284.242 208.046Z" fill="#E0E0E0"/>
<path d="M282.096 194.46C281.479 188.179 281.878 183.225 281.443 176.915C281.443 176.407 281.305 175.805 280.834 175.624C280.174 175.37 279.63 176.175 279.383 176.843C278.468 179.768 278.234 182.863 278.698 185.892C279.162 188.922 280.312 191.805 282.059 194.322" fill="#E0E0E0"/>
<path d="M281.646 195.149C285.903 192.516 289.095 189.085 292.047 185.046C294.099 182.231 295.833 178.866 295.369 175.414C292.467 175.356 289.74 176.944 287.862 179.142C286.072 181.416 284.77 184.036 284.039 186.837C283.205 189.6 282.625 192.436 281.646 195.149Z" fill="#E0E0E0"/>
<path d="M291.865 192.314C301.228 188.846 309.896 183.735 317.461 177.22C314.408 175.987 310.933 176.727 307.851 177.946C300.866 180.767 295.158 185.525 291.735 192.227" fill="#E0E0E0"/>
<path d="M284.518 198.587C289.247 199.102 294.048 199.443 298.734 198.66C303.419 197.876 307.698 196.063 311.999 194.25C312.383 194.133 312.707 193.873 312.906 193.525C312.973 193.325 312.977 193.11 312.919 192.908C312.861 192.706 312.742 192.526 312.58 192.393C312.25 192.13 311.862 191.948 311.448 191.864C306.77 190.551 301.715 191.138 297.109 192.72C292.721 194.208 288.501 196.153 284.518 198.522" fill="#E0E0E0"/>
<path d="M257.537 210.236C254.317 203.709 254.527 196.137 257.305 189.428C259.271 192.416 259.481 196.216 259.148 199.778C258.814 203.339 257.697 206.987 257.639 210.563" fill="#E0E0E0"/>
<path d="M244.656 203.739C240.62 203.686 236.618 204.477 232.905 206.059C229.192 207.641 225.85 209.981 223.093 212.928C227.111 213.559 231.245 212.522 234.901 210.752C238.556 208.983 241.806 206.466 245.055 203.978" fill="#E0E0E0"/>
<path d="M236.003 200.843C232.065 200.524 228.272 200.038 224.486 201.198C220.7 202.359 217.233 204.992 215.717 208.64C219.432 208.938 223.159 208.235 226.509 206.602C229.839 204.969 233.016 203.042 236.003 200.843Z" fill="#E0E0E0"/>
<path d="M248.819 200.973C245.28 198.652 241.639 196.295 237.519 195.33C233.399 194.366 228.612 195.077 225.733 198.188C229.077 200.146 233.124 200.364 236.997 200.364C240.87 200.364 245.613 200.313 249.262 201.604" fill="#E0E0E0"/>
<path d="M248.841 201.162C242.785 195.215 240.493 184.531 242.93 176.408C247.709 183.726 249.798 192.475 248.841 201.162Z" fill="#E0E0E0"/>
<path d="M265.494 184.313C266.64 181.658 267.437 178.873 268.467 176.168C269.4 173.425 270.834 170.88 272.696 168.661C274.592 166.432 277.288 165.036 280.203 164.773C279.269 168.87 277.493 172.726 274.987 176.098C272.481 179.47 269.299 182.282 265.646 184.356" fill="#E0E0E0"/>
<path d="M262.484 187.824C260.591 185.227 258.408 181.695 255.847 179.751C253.287 177.807 249.944 176.632 246.818 177.379C248.438 180.218 250.697 182.639 253.417 184.452C256.136 186.265 259.241 187.42 262.484 187.824Z" fill="#E0E0E0"/>
<path d="M263.086 184.522C261.846 181.374 260.598 178.19 260.098 174.847C259.597 171.503 259.902 167.927 261.613 165.012C264.935 171.293 266.009 178.067 263.253 184.595" fill="#E0E0E0"/>
<path d="M265.523 165.022C267.408 158.792 273.109 154.2 279.267 152.097C280.032 151.787 280.86 151.663 281.682 151.734C282.091 151.782 282.477 151.948 282.793 152.212C283.109 152.476 283.34 152.827 283.459 153.221C283.684 154.28 282.806 155.23 282.009 155.934C277.193 160.043 271.595 163.135 265.552 165.022" fill="#E0E0E0"/>
<path d="M265.595 159.922C265.835 155.911 266.081 151.835 267.387 148.027C268.692 144.22 271.216 140.651 274.879 138.99C275.503 143.045 273.711 147.077 271.55 150.595C269.388 154.113 266.792 157.376 265.494 161.271" fill="#E0E0E0"/>
<path d="M265.494 162.692C263.942 158.152 263.775 152.386 261.062 148.426C259.162 145.662 256.116 143.776 254.477 140.854C253.488 143.66 253.626 146.741 254.861 149.448C256.096 152.128 257.798 154.567 259.887 156.65C261.904 158.826 263.622 160.415 265.494 162.692Z" fill="#E0E0E0"/>
<path d="M265.523 296.387C265.407 296.387 265.298 266.099 265.291 228.754C265.283 191.408 265.37 161.105 265.494 161.105C265.617 161.105 265.719 191.386 265.726 228.754C265.733 266.121 265.646 296.387 265.523 296.387Z" fill="#E0E0E0"/>
<path d="M291.989 205.666C291.623 205.844 291.242 205.987 290.85 206.094L287.717 207.153C285.077 208.052 281.443 209.329 277.505 210.968C273.566 212.607 269.925 214 267.829 215.813C266.995 216.513 266.33 217.393 265.885 218.388C265.588 219.113 265.537 219.534 265.494 219.526C265.476 219.421 265.476 219.313 265.494 219.207C265.541 218.906 265.616 218.61 265.718 218.322C266.114 217.266 266.764 216.324 267.612 215.581C268.877 214.512 270.291 213.635 271.811 212.977C273.486 212.194 275.35 211.374 277.323 210.562C281.276 208.944 284.939 207.661 287.608 206.856C288.942 206.442 290.03 206.13 290.792 205.927C291.182 205.802 291.582 205.715 291.989 205.666Z" fill="#E0E0E0"/>
<path d="M300.663 184.357C300.663 184.357 300.569 184.488 300.344 184.698L299.372 185.612L295.746 188.905L283.67 199.661C278.955 203.853 274.886 207.864 272.065 210.881C270.651 212.39 269.534 213.638 268.772 214.508C268.424 214.914 268.134 215.233 267.895 215.509C267.655 215.784 267.583 215.857 267.568 215.842C267.643 215.707 267.731 215.578 267.829 215.458C268.011 215.211 268.279 214.849 268.642 214.399C269.367 213.492 270.448 212.223 271.833 210.671C275.477 206.69 279.332 202.905 283.38 199.335C288.108 195.143 292.417 191.357 295.543 188.673L299.263 185.482L300.286 184.633C300.401 184.527 300.527 184.435 300.663 184.357Z" fill="#E0E0E0"/>
<path d="M278.585 203.927C278.462 203.869 279.441 201.599 280.428 198.72C281.414 195.84 281.878 193.418 282.009 193.44C282.139 193.461 281.842 195.949 280.841 198.865C280.423 200.099 279.938 201.309 279.39 202.491C279.192 203.006 278.921 203.49 278.585 203.927Z" fill="#E0E0E0"/>
<path d="M265.552 222.24C265.281 221.986 265.038 221.704 264.826 221.399L262.962 219.013C261.403 216.989 259.242 214.204 256.819 211.151C254.397 208.097 252.17 205.348 250.56 203.383L248.667 201.04C248.418 200.764 248.199 200.463 248.014 200.141C248.301 200.377 248.564 200.642 248.797 200.931C249.283 201.453 249.972 202.229 250.806 203.194C252.482 205.131 254.752 207.836 257.174 210.897C259.597 213.957 261.729 216.772 263.231 218.839C263.956 219.876 264.572 220.717 264.979 221.312C265.196 221.604 265.388 221.915 265.552 222.24Z" fill="#E0E0E0"/>
<path d="M259.749 214.806C259.677 214.886 258.132 213.044 257.32 210.259C256.862 208.774 256.676 207.219 256.768 205.668H256.957C256.877 206.016 256.812 206.204 256.776 206.197C256.739 206.19 256.739 205.994 256.776 205.639H256.971C257.062 207.15 257.322 208.646 257.748 210.099C258.524 212.812 259.865 214.734 259.749 214.806Z" fill="#E0E0E0"/>
<path d="M252.293 205.385C251.772 204.985 251.201 204.654 250.596 204.399C249.069 203.942 247.462 203.813 245.882 204.021C244.282 204.145 242.695 204.402 241.138 204.79C240.501 204.995 239.848 205.15 239.187 205.254C239.77 204.909 240.401 204.653 241.059 204.493C242.617 204.009 244.225 203.704 245.853 203.586C247.491 203.368 249.158 203.547 250.712 204.108C251.373 204.335 251.933 204.787 252.293 205.385Z" fill="#E0E0E0"/>
<path d="M250.48 203.101C250.48 203.166 249.494 202.702 247.884 202.151C243.671 200.707 239.16 200.365 234.778 201.157C233.102 201.454 232.087 201.766 232.065 201.694C232.277 201.56 232.51 201.462 232.754 201.404C233.397 201.178 234.053 200.994 234.72 200.852C239.145 199.88 243.758 200.231 247.985 201.861C248.62 202.104 249.24 202.385 249.842 202.702C250.27 202.934 250.495 203.072 250.48 203.101Z" fill="#E0E0E0"/>
<path d="M265.494 193.439C265.378 193.439 264.529 190.537 263.601 186.853C262.672 183.168 262.005 180.187 262.15 180.158C262.295 180.129 263.115 183.06 264.043 186.744C264.971 190.429 265.61 193.41 265.494 193.439Z" fill="#E0E0E0"/>
<path d="M265.617 193.438C265.486 193.481 264.935 191.508 263.514 189.492C262.622 188.3 261.581 187.228 260.417 186.301C260.858 186.411 261.268 186.622 261.613 186.917C262.491 187.56 263.254 188.348 263.869 189.245C264.807 190.466 265.41 191.912 265.617 193.438Z" fill="#E0E0E0"/>
<path d="M265.523 280.262C265.479 280.262 265.385 279.537 265.044 278.246C264.545 276.436 263.867 274.679 263.02 273.002C260.932 268.73 257.124 263.305 252.286 257.88C249.885 255.138 247.564 252.556 245.592 250.083C243.82 247.904 242.217 245.594 240.797 243.171C239.848 241.536 239.04 239.823 238.382 238.05C238.157 237.412 237.998 236.926 237.904 236.6C237.841 236.412 237.802 236.217 237.787 236.02C237.831 236.02 238.049 236.745 238.549 237.949C239.266 239.686 240.109 241.369 241.073 242.982C242.519 245.366 244.136 247.643 245.911 249.793C247.891 252.237 250.219 254.812 252.62 257.553C257.472 263 261.272 268.484 263.311 272.835C264.137 274.541 264.777 276.33 265.218 278.174C265.339 278.673 265.429 279.179 265.486 279.689C265.521 279.878 265.533 280.071 265.523 280.262Z" fill="#E0E0E0"/>
<path d="M289.443 253.232C289.039 253.499 288.62 253.741 288.188 253.958C287.054 254.603 285.968 255.331 284.939 256.134C283.415 257.318 281.986 258.62 280.667 260.028C279.165 261.61 277.621 263.452 276.047 265.417C272.899 269.37 269.954 272.866 268.192 275.658C267.292 277.044 266.64 278.212 266.212 279.031C266.014 279.469 265.784 279.89 265.523 280.293C265.543 280.17 265.582 280.05 265.639 279.938C265.733 279.713 265.864 279.372 266.059 278.959C266.613 277.768 267.235 276.61 267.923 275.492C269.642 272.634 272.565 269.087 275.706 265.142C277.287 263.169 278.846 261.327 280.377 259.746C281.718 258.341 283.174 257.051 284.728 255.887C285.785 255.106 286.909 254.419 288.087 253.834C288.5 253.624 288.812 253.494 289.066 253.399C289.179 253.318 289.307 253.261 289.443 253.232Z" fill="#E0E0E0"/>
<path d="M289.907 261.994C289.036 262.19 288.151 262.318 287.26 262.378C285.133 262.599 283.031 263.012 280.979 263.611C278.951 264.273 277.048 265.271 275.35 266.563C274.052 267.572 273.443 268.398 273.385 268.348C273.476 268.122 273.609 267.915 273.777 267.738C274.188 267.212 274.65 266.726 275.155 266.288C276.832 264.891 278.763 263.83 280.841 263.162C282.921 262.545 285.065 262.166 287.231 262.03C288.12 261.936 289.016 261.924 289.907 261.994Z" fill="#E0E0E0"/>
<path d="M274.154 267.39C274.016 267.31 275.213 265.482 276.134 263.038C277.055 260.594 277.207 258.396 277.367 258.418C277.435 258.901 277.42 259.391 277.323 259.869C277.191 261.011 276.93 262.135 276.547 263.22C276.146 264.295 275.631 265.323 275.01 266.288C274.786 266.699 274.497 267.072 274.154 267.39Z" fill="#E0E0E0"/>
<path d="M297.189 229.703C297.053 229.791 296.91 229.866 296.761 229.928L295.514 230.494C294.97 230.726 294.31 231.023 293.562 231.415C292.815 231.806 291.945 232.198 291.031 232.749L289.581 233.569C289.08 233.859 288.58 234.2 288.058 234.526C286.991 235.179 285.925 235.977 284.786 236.782C279.908 240.425 275.651 244.834 272.181 249.837C271.412 251.005 270.65 252.1 270.041 253.188C269.729 253.725 269.403 254.233 269.135 254.74L268.359 256.191C267.844 257.119 267.481 258.004 267.118 258.766C266.756 259.527 266.473 260.216 266.262 260.753L265.74 262.015C265.687 262.168 265.616 262.314 265.53 262.45C265.552 262.291 265.593 262.135 265.653 261.986C265.777 261.645 265.922 261.217 266.103 260.688C266.333 260.003 266.596 259.33 266.893 258.671C267.234 257.895 267.582 256.996 268.083 256.053L268.808 254.559C269.069 254.044 269.388 253.529 269.7 252.978C270.295 251.875 271.049 250.802 271.818 249.591C275.273 244.524 279.566 240.082 284.511 236.456C285.671 235.643 286.752 234.853 287.833 234.214C288.369 233.888 288.87 233.554 289.378 233.272L290.828 232.466C291.749 231.937 292.641 231.553 293.403 231.19C294.05 230.868 294.713 230.58 295.39 230.327L296.674 229.841C296.838 229.77 297.012 229.724 297.189 229.703Z" fill="#E0E0E0"/>
<path d="M278.259 242.382C278.436 241.772 278.799 241.232 279.296 240.837C280.461 239.82 281.949 239.249 283.495 239.227C285.008 239.217 286.508 239.51 287.905 240.09C288.497 240.277 289.059 240.548 289.573 240.895C288.978 240.777 288.395 240.602 287.833 240.373C286.448 239.899 284.995 239.654 283.532 239.647C282.081 239.678 280.679 240.171 279.528 241.055C279.074 241.467 278.65 241.91 278.259 242.382Z" fill="#E0E0E0"/>
<path d="M275.43 245.305C275.307 245.24 276.373 243.673 276.62 241.432C276.866 239.191 276.221 237.421 276.351 237.385C276.482 237.349 276.641 237.777 276.845 238.516C277.361 240.466 277.12 242.539 276.17 244.319C275.8 244.986 275.503 245.334 275.43 245.305Z" fill="#E0E0E0"/>
<path d="M244.605 284.617C245.258 296.222 248.747 307.964 254.114 319.866H277.439C282.56 308.044 285.802 296.294 286.382 284.617H244.605Z" fill="#E0E0E0"/>
<path d="M282.603 303.305C282.603 303.429 274.922 303.53 265.443 303.53C255.963 303.53 248.29 303.429 248.29 303.305C248.29 303.182 255.971 303.088 265.443 303.088C274.915 303.088 282.603 303.189 282.603 303.305Z" fill="#FAFAFA"/>
<path d="M282.081 307.497C282.081 307.62 274.879 307.722 266.001 307.722C257.124 307.722 249.914 307.62 249.914 307.497C249.914 307.374 257.117 307.279 266.001 307.279C274.886 307.279 282.081 307.381 282.081 307.497Z" fill="#FAFAFA"/>
<path d="M254.469 292.18C254.759 295.757 254.759 299.351 254.469 302.929C254.346 302.929 254.252 300.521 254.252 297.554C254.252 294.588 254.368 292.18 254.469 292.18Z" fill="#FAFAFA"/>
<path d="M266.988 292.18C267.111 292.18 267.205 294.667 267.205 297.743C267.205 300.818 267.111 303.306 266.988 303.306C266.865 303.306 266.77 300.818 266.77 297.743C266.77 294.667 266.865 292.18 266.988 292.18Z" fill="#FAFAFA"/>
<path d="M278.723 292.086C278.846 292.086 278.941 294.624 278.941 297.758C278.941 300.891 278.846 303.437 278.723 303.437C278.6 303.437 278.505 300.898 278.505 297.758C278.505 294.617 278.6 292.086 278.723 292.086Z" fill="#FAFAFA"/>
<path d="M285.657 292.18C285.657 292.304 276.649 292.398 265.537 292.398C254.426 292.398 245.418 292.304 245.418 292.18C245.418 292.057 254.419 291.963 265.537 291.963C276.656 291.963 285.657 292.057 285.657 292.18Z" fill="#FAFAFA"/>
<path d="M273.124 176.713H8.7688V184.858H273.124V176.713Z" fill="#EBEBEB"/>
<path d="M31.6372 183.857L11.8295 319.828H16.0797L40.5076 184.858L31.6372 183.857Z" fill="#EBEBEB"/>
<path d="M254.455 182.994L275.35 319.828H271.107L245.577 184.242L254.455 182.994Z" fill="#EBEBEB"/>
<path d="M18.8068 143.906V162.242H15.7461V164.214H18.8068V176.486H76.047V165.317H71.8113V162.88H76.047V159.253H77.9328V157.6H75.6843V143.906H18.8068Z" fill="#F5F5F5"/>
<path d="M60.8378 143.936V176.276H76.0327V165.114H71.797V162.887L76.0327 162.96V159.312H77.9547L77.9184 157.426L75.6845 157.375V143.885L60.8378 143.936Z" fill="#E0E0E0"/>
<path d="M61.9182 163.947C61.9182 164.063 51.5683 164.15 38.7959 164.15C26.0235 164.15 15.6663 164.063 15.6663 163.947C15.6663 163.831 26.0235 163.744 38.7959 163.744C51.5683 163.744 61.9182 163.838 61.9182 163.947Z" fill="#E0E0E0"/>
<path d="M61.9182 162.082C61.9182 162.198 51.5683 162.285 38.7959 162.285C26.0235 162.285 15.6663 162.198 15.6663 162.082C15.6663 161.966 26.0235 161.879 38.7959 161.879C51.5683 161.879 61.9182 161.973 61.9182 162.082Z" fill="#E0E0E0"/>
<path d="M64.8919 157.072C64.8919 157.188 54.5347 157.275 41.7695 157.275C29.0043 157.275 18.6399 157.188 18.6399 157.072C18.6399 156.956 28.9898 156.869 41.7695 156.869C54.5492 156.869 64.8919 156.963 64.8919 157.072Z" fill="#E0E0E0"/>
<path d="M65.1675 170.744C65.1675 170.86 54.8176 170.954 42.0451 170.954C29.2727 170.954 18.9155 170.86 18.9155 170.744C18.9155 170.628 29.2655 170.541 42.0451 170.541C54.8248 170.541 65.1675 170.621 65.1675 170.744Z" fill="#E0E0E0"/>
<path d="M80.2756 131.607H70.2955V143.473H80.2756V131.607Z" fill="#F5F5F5"/>
<path d="M70.6365 130.83H25.5377V144.212H70.6365V130.83Z" fill="#E0E0E0"/>
<path d="M80.5729 131.963H69.4252V130.854H80.5729C80.723 130.854 80.8669 130.913 80.973 131.019C81.0791 131.125 81.1387 131.269 81.1387 131.419C81.133 131.565 81.071 131.704 80.9655 131.805C80.86 131.907 80.7193 131.963 80.5729 131.963Z" fill="#E0E0E0"/>
<path d="M80.5729 144.221H69.4252V143.09H80.5729C80.723 143.09 80.8669 143.149 80.973 143.256C81.0791 143.362 81.1387 143.506 81.1387 143.656C81.1387 143.806 81.0791 143.95 80.973 144.056C80.8669 144.162 80.723 144.221 80.5729 144.221Z" fill="#E0E0E0"/>
<path d="M67.097 130.83H61.7661V144.212H67.097V130.83Z" fill="#EBEBEB"/>
<path d="M35.1622 130.982H29.8313V144.364H35.1622V130.982Z" fill="#EBEBEB"/>
<path d="M80.2756 133.575C80.2756 133.575 78.0997 133.633 75.4524 133.633C72.8051 133.633 70.6219 133.633 70.6219 133.575C70.6219 133.517 72.7978 133.51 75.4524 133.51C78.107 133.51 80.2756 133.539 80.2756 133.575Z" fill="#E0E0E0"/>
<path d="M80.2756 135.349C80.2756 135.349 78.0997 135.407 75.4524 135.407C72.8051 135.407 70.6219 135.407 70.6219 135.349C70.6219 135.291 72.7978 135.291 75.4524 135.291C78.107 135.291 80.2756 135.313 80.2756 135.349Z" fill="#E0E0E0"/>
<path d="M80.2756 137.54C80.2756 137.54 78.0997 137.598 75.4524 137.598C72.8051 137.598 70.6219 137.598 70.6219 137.54C70.6219 137.482 72.7978 137.482 75.4524 137.482C78.107 137.482 80.2756 137.504 80.2756 137.54Z" fill="#E0E0E0"/>
<path d="M80.2756 139.73C80.2756 139.73 78.0997 139.788 75.4524 139.788C72.8051 139.788 70.6219 139.788 70.6219 139.73C70.6219 139.672 72.7978 139.672 75.4524 139.672C78.107 139.672 80.2756 139.694 80.2756 139.73Z" fill="#E0E0E0"/>
<path d="M80.2756 141.921C80.2756 141.921 78.0997 141.979 75.4524 141.979C72.8051 141.979 70.6219 141.979 70.6219 141.921C70.6219 141.863 72.7978 141.863 75.4524 141.863C78.107 141.863 80.2756 141.885 80.2756 141.921Z" fill="#E0E0E0"/>
<path d="M58.8938 136.336H38.6073V138.744H58.8938V136.336Z" fill="#EBEBEB"/>
<path d="M61.1639 117.842L66.7776 131.028H63.1657L60.6707 123.985L61.1639 117.842Z" fill="#E0E0E0"/>
<path d="M43.931 105.916L41.7623 131.026H60.105L62.1213 105.916H43.931Z" fill="#EBEBEB"/>
<path d="M45.7225 107.905L43.8223 128.938L57.5956 129.119L59.4523 107.781L45.7225 107.905Z" fill="#FAFAFA"/>
<path d="M48.6454 110.82L47.5647 125.29H54.9119L56.2029 110.82H48.6454Z" fill="#E0E0E0"/>
<path d="M259.431 12.5824L252.65 12.6191L252.833 46.3666L259.614 46.3299L259.431 12.5824Z" fill="#E0E0E0"/>
<path d="M211.455 12.6686L193.888 12.7637L193.989 31.3962L211.555 31.3011L211.455 12.6686Z" fill="#EBEBEB"/>
<path d="M228.934 12.5827L211.367 12.6777L211.468 31.3102L229.034 31.2152L228.934 12.5827Z" fill="#F5F5F5"/>
<path d="M193.915 17.9255C205.585 18.027 217.291 17.9255 228.961 17.7659C229.004 17.7574 229.042 17.7343 229.07 17.7006C229.097 17.6669 229.113 17.6246 229.113 17.581C229.113 17.5374 229.097 17.4951 229.07 17.4614C229.042 17.4276 229.004 17.4045 228.961 17.396C217.293 17.3283 205.614 17.3985 193.922 17.6064C193.88 17.6064 193.839 17.6232 193.809 17.6531C193.779 17.683 193.762 17.7236 193.762 17.7659C193.762 17.8083 193.779 17.8488 193.809 17.8788C193.839 17.9087 193.88 17.9255 193.922 17.9255H193.915Z" fill="#E0E0E0"/>
<path d="M214.854 31.0012L182.942 31.1738L183.024 46.354L214.936 46.1813L214.854 31.0012Z" fill="#EBEBEB"/>
<path d="M246.613 30.8215L214.701 30.9941L214.783 46.1743L246.695 46.0016L246.613 30.8215Z" fill="#F5F5F5"/>
<path d="M182.955 35.4027C204.156 35.642 225.429 35.4027 246.629 35.0908C246.679 35.0908 246.727 35.0709 246.762 35.0356C246.798 35.0002 246.817 34.9522 246.817 34.9022C246.817 34.8522 246.798 34.8042 246.762 34.7689C246.727 34.7335 246.679 34.7136 246.629 34.7136C225.429 34.6048 204.148 34.6121 182.955 35.0835C182.913 35.0835 182.872 35.1004 182.843 35.1303C182.813 35.1602 182.796 35.2008 182.796 35.2431C182.796 35.2854 182.813 35.326 182.843 35.3559C182.872 35.3859 182.913 35.4027 182.955 35.4027Z" fill="#E0E0E0"/>
<path d="M294.658 46.3633H171.024V51.803H294.658V46.3633Z" fill="#E0E0E0"/>
<path d="M196.286 48.9805H191.267V67.5407H196.286V48.9805Z" fill="#E0E0E0"/>
<path d="M271.209 48.9805H266.19V67.5407H271.209V48.9805Z" fill="#E0E0E0"/>
<path d="M266.043 0.000418114L259.262 0.0371094L259.513 46.4552L266.294 46.4185L266.043 0.000418114Z" fill="#EBEBEB"/>
<path d="M276.643 8.64806L266.104 8.70508L266.308 46.3182L276.846 46.2612L276.643 8.64806Z" fill="#F5F5F5"/>
<path d="M276.576 15.902C274.825 16.0837 273.063 16.1443 271.303 16.0833C269.546 16.1444 267.787 16.0838 266.038 15.902C269.546 15.6603 273.068 15.6603 276.576 15.902Z" fill="#E0E0E0"/>
<path d="M276.576 14.32C274.825 14.5016 273.063 14.5622 271.303 14.5013C269.546 14.5624 267.787 14.5018 266.038 14.32C269.546 14.0782 273.068 14.0782 276.576 14.32Z" fill="#E0E0E0"/>
<path d="M276.576 40.613C273.068 40.8547 269.546 40.8547 266.038 40.613C269.546 40.3712 273.068 40.3712 276.576 40.613Z" fill="#E0E0E0"/>
<path d="M276.576 39.029C273.068 39.2707 269.546 39.2707 266.038 39.029C269.546 38.7872 273.068 38.7872 276.576 39.029Z" fill="#E0E0E0"/>
<path d="M271.477 35.5829C271.376 35.5829 271.289 31.7896 271.289 27.1042C271.289 22.4188 271.376 18.6328 271.477 18.6328C271.579 18.6328 271.659 22.4261 271.659 27.1042C271.659 31.7824 271.572 35.5829 271.477 35.5829Z" fill="#E0E0E0"/>
<path d="M288.159 17.8945H276.685V46.2898H288.159V17.8945Z" fill="#EBEBEB"/>
<path d="M264.507 7.93597C264.509 8.32216 264.396 8.70008 264.182 9.02188C263.968 9.34368 263.664 9.59488 263.308 9.74366C262.952 9.89245 262.559 9.93212 262.18 9.85766C261.801 9.7832 261.453 9.59795 261.179 9.32539C260.906 9.05282 260.719 8.70519 260.643 8.32653C260.567 7.94787 260.606 7.55521 260.753 7.19828C260.9 6.84135 261.151 6.53621 261.472 6.32151C261.793 6.1068 262.17 5.99219 262.556 5.99219C263.072 5.99218 263.568 6.19674 263.933 6.56107C264.299 6.92539 264.505 7.41978 264.507 7.93597Z" fill="#E0E0E0"/>
<path d="M263.158 13.3047H261.954V40.9166H263.158V13.3047Z" fill="#E0E0E0"/>
<path d="M304.406 319.827C304.406 319.929 236.228 320.016 152.21 320.016C68.1921 320.016 0 319.929 0 319.827C0 319.726 68.1341 319.639 152.21 319.639C236.286 319.639 304.406 319.718 304.406 319.827Z" fill="#263238"/>
<path d="M150.963 227.947L180.866 319.827H175.419L140.388 227.947H150.963Z" fill="#E0E0E0"/>
<path d="M150.962 227.949H150.237H148.206L140.359 227.992L140.431 227.884C146.437 243.528 159.383 277.363 174.382 316.529C174.788 317.602 175.194 318.705 175.601 319.728L175.427 319.612H180.866L180.685 319.858C172.337 294.103 164.888 271.147 159.528 254.625C156.859 246.35 154.712 239.691 153.233 235.086C152.507 232.787 151.927 231.002 151.535 229.784L151.1 228.399C151.006 228.087 150.962 227.92 150.962 227.92C150.962 227.92 151.02 228.065 151.122 228.37L151.579 229.726C151.978 230.937 152.565 232.7 153.32 234.977C154.828 239.568 157.004 246.205 159.717 254.444C165.12 270.988 172.627 293.965 181.04 319.72L181.12 319.967H175.318L175.267 319.844C174.868 318.785 174.455 317.719 174.048 316.645C159.144 277.421 146.27 243.55 140.33 227.927V227.818H140.446L148.337 227.862H150.346C150.752 227.934 150.962 227.949 150.962 227.949Z" fill="#1E1E1E"/>
<path d="M92.1122 227.947L62.2084 319.827H67.6481L102.687 227.947H92.1122Z" fill="#E0E0E0"/>
<path d="M92.1121 227.948C92.1121 227.948 92.337 227.948 92.7867 227.948H94.7957L102.687 227.904H102.803L102.759 228.013C96.8266 243.636 83.9526 277.507 69.0478 316.731L67.8221 319.93L67.7786 320.053H61.9762L62.056 319.806L83.3869 254.53L89.784 235.063C90.5092 232.786 91.1257 231.023 91.5247 229.812L91.9816 228.456C92.0831 228.151 92.1412 228.006 92.1412 228.006C92.1412 228.006 92.0976 228.173 92.0034 228.485L91.5682 229.87C91.1765 231.088 90.6035 232.873 89.871 235.172C88.3841 239.777 86.2445 246.436 83.5754 254.711C78.2083 271.233 70.7668 294.189 62.4186 319.944L62.2373 319.697H67.677L67.5029 319.814L68.7214 316.615C83.7205 277.449 96.667 243.585 102.636 227.977L102.716 228.086L94.861 228.042H92.8374L92.1121 227.948Z" fill="#1E1E1E"/>
<path d="M141.156 229.965C140.993 230.104 140.818 230.23 140.634 230.342L139.097 231.357L133.432 235.071C128.652 238.219 122.059 242.585 114.814 247.444L96.2608 259.956L90.6325 263.735L89.1021 264.706C88.9293 264.835 88.7448 264.946 88.5509 265.04C88.7106 264.898 88.8803 264.767 89.0586 264.648L90.5527 263.582L96.1157 259.709C100.823 256.46 107.358 251.999 114.611 247.14C121.864 242.28 128.471 237.943 133.294 234.853C135.702 233.316 137.646 232.075 139.024 231.227L140.598 230.269C140.776 230.154 140.963 230.052 141.156 229.965Z" fill="#1E1E1E"/>
<path d="M83.7857 129.998C83.7857 129.998 74.4149 130.963 73.0514 136.606C71.6878 142.248 67.249 212.036 73.0514 221.922C78.8537 231.808 153.559 230.429 158.745 229.073C163.931 227.717 166.375 224.352 165.845 220.239C165.316 216.127 114.444 211.028 114.444 211.028L117.548 138.194C117.548 138.194 99.2562 128.983 83.7857 129.998Z" fill="#1E1E1E"/>
<path d="M165.889 222.002H165.664H164.997L162.437 222.068C160.21 222.126 156.99 222.155 153.008 222.147C145.029 222.147 134.041 221.872 121.922 221.001C115.865 220.559 110.099 220 104.87 219.406C99.6406 218.811 94.9407 218.158 91.0096 217.542C89.0368 217.252 87.2671 216.94 85.7077 216.679C84.1483 216.417 82.8065 216.178 81.7113 215.953L79.1946 215.467L78.5418 215.337L78.3242 215.279C78.3989 215.269 78.4744 215.269 78.5491 215.279L79.2091 215.373L81.7404 215.786C82.8355 215.975 84.1773 216.2 85.744 216.432C87.3106 216.664 89.0803 216.969 91.0459 217.237C94.9842 217.825 99.6841 218.427 104.906 219.021C110.128 219.616 115.894 220.146 121.951 220.588C134.063 221.458 145.051 221.756 153.008 221.843C156.982 221.886 160.203 221.893 162.437 221.886H165.671L165.889 222.002Z" fill="#FF5859"/>
<path d="M154.923 266.072C154.865 266.159 143.028 257.84 128.493 247.504C113.958 237.169 102.216 228.705 102.274 228.647C102.332 228.589 114.168 236.879 128.71 247.222C143.253 257.564 154.981 265.985 154.923 266.072Z" fill="#1E1E1E"/>
<path d="M90.4078 67.3361L84.4241 56.7976C88.1198 50.7971 89.4374 43.6314 88.1179 36.7088C86.7984 29.7862 82.9373 23.6075 77.2936 19.3873C71.6498 15.167 64.6315 13.2103 57.6183 13.902C50.6052 14.5936 44.1043 17.8834 39.3936 23.1248C34.6829 28.3663 32.1031 35.1801 32.1612 42.2271C32.2194 49.274 34.9113 56.0444 39.7079 61.2073C44.5045 66.3703 51.0588 69.5524 58.0824 70.1282C65.106 70.7039 72.091 68.6317 77.6644 64.3189L90.4078 67.3361Z" fill="white"/>
<path d="M90.4078 67.3367L77.6281 64.4355H77.4541L77.5629 64.2905L77.7224 64.45C73.7938 67.5195 69.1211 69.4917 64.1812 70.1653C62.7018 70.3756 61.2066 70.4533 59.7134 70.3974C58.9446 70.3539 58.1613 70.3322 57.3707 70.2669L54.9845 69.9115C47.8738 68.5163 41.5614 64.4654 37.3308 58.5824C34.9814 55.3375 33.3518 51.6283 32.5511 47.703C31.7386 43.5395 31.8525 39.2482 32.8848 35.1337C33.9532 30.8393 36.0292 26.8613 38.941 23.529C41.8972 20.1085 45.6269 17.443 49.8204 15.7538C53.8427 14.1655 58.1705 13.5012 62.484 13.81C66.5576 14.091 70.5194 15.2647 74.0887 17.2479C80.5035 20.7963 85.3116 26.6715 87.5211 33.6613C88.3918 36.6449 88.805 39.7433 88.7469 42.8508C88.5931 47.8075 87.1345 52.636 84.5184 56.849V56.7329L90.4078 67.3294C90.0162 66.6622 88.1739 63.4781 84.3298 56.8417V56.7909V56.7329C86.8896 52.5397 88.3028 47.7475 88.4278 42.8363C88.4751 39.7684 88.0544 36.7112 87.1803 33.7701C84.9969 26.8603 80.2498 21.0491 73.9146 17.5308C70.393 15.5823 66.4854 14.4333 62.4695 14.1654C58.2221 13.8639 53.9611 14.5208 50.0017 16.0875C45.875 17.7529 42.205 20.3786 39.2964 23.7466C36.428 27.0282 34.3841 30.9469 33.3345 35.1772C32.3109 39.2262 32.1945 43.4514 32.9936 47.5507C33.769 51.4341 35.3665 55.1065 37.679 58.3213C41.8431 64.1392 48.0678 68.1515 55.086 69.5416L57.4432 69.9042C58.2265 69.9695 58.9953 69.9913 59.7569 70.042C61.2326 70.1013 62.7106 70.0309 64.1739 69.8317C69.0683 69.1858 73.7062 67.2621 77.6209 64.2542L78.3462 63.7102L77.8022 64.4355L77.7369 64.2615L90.4078 67.3367Z" fill="#263238"/>
<path d="M55.5721 38.2528H57.3563L61.2438 32.8276V29.2664C61.2438 29.2664 64 29.0995 63.6808 33.7559C63.3617 38.4123 63.6808 37.2301 63.6808 37.2301C63.6808 37.2301 69.534 37.2301 70.0199 37.7668C70.3753 38.1295 70.5349 43.9463 70.5929 47.0941C70.6334 47.8548 70.4174 48.6071 69.9795 49.2305C69.5415 49.8538 68.9071 50.3121 68.1777 50.532C67.9722 50.5893 67.7599 50.6186 67.5466 50.619C66.0961 50.619 58.6328 49.4295 58.6328 49.4295H55.5503L55.5721 38.2528Z" fill="#FF725E"/>
<path d="M50.4661 37.2734L51.5685 49.4656H54.622V37.52L50.4661 37.2734Z" fill="#FF725E"/>
<path d="M203.242 191.779C203.242 191.779 220.025 191.779 220.714 207.417C221.403 223.054 171.858 305.549 171.858 305.549L156.17 298.1L189.809 218.049L116.816 210.869L118.883 192.505L203.242 191.779Z" fill="#FFBE9D"/>
<path d="M175.173 300.789L174.687 301.898C174.687 301.898 190.063 317.71 188.685 321.351L151.615 304.669L157.671 292.557C162.03 297.597 167.673 300.484 175.173 300.789Z" fill="#1E1E1E"/>
<g opacity="0.6">
<path d="M159.651 298.2C159.246 298.149 158.836 298.249 158.499 298.48C158.162 298.711 157.922 299.058 157.824 299.455C157.757 299.858 157.847 300.273 158.077 300.611C158.306 300.95 158.657 301.188 159.057 301.275C159.486 301.328 159.92 301.22 160.275 300.972C160.629 300.725 160.88 300.355 160.979 299.934C161.007 299.506 160.868 299.084 160.59 298.758C160.312 298.431 159.918 298.226 159.492 298.186" fill="white"/>
</g>
<g opacity="0.6">
<path d="M151.615 304.677L153.066 301.775L188.061 318.827C188.061 318.827 189.388 320.278 188.678 321.366L151.615 304.677Z" fill="white"/>
</g>
<path d="M174.767 302.06C174.68 302.234 173.737 301.915 172.591 302.097C171.445 302.278 170.618 302.822 170.48 302.677C170.342 302.532 171.089 301.603 172.489 301.407C173.889 301.212 174.883 301.908 174.767 302.06Z" fill="#263238"/>
<path d="M177.936 305.416C177.9 305.604 176.971 305.561 176.014 306.054C175.057 306.547 174.513 307.272 174.338 307.185C174.164 307.098 174.505 306.018 175.709 305.43C176.913 304.843 178.008 305.242 177.936 305.416Z" fill="#263238"/>
<path d="M178.052 311.057C177.871 311.057 178.052 310.005 178.93 309.222C179.807 308.438 180.866 308.431 180.873 308.613C180.881 308.794 180.148 309.091 179.423 309.744C178.698 310.397 178.241 311.122 178.052 311.057Z" fill="#263238"/>
<path d="M171.488 132.816L174.469 141.933L158.215 143.203L156.322 138.321L171.488 132.816Z" fill="#FFBE9D"/>
<path d="M217.639 144.779C217.95 145.403 218.763 145.505 219.387 145.831C219.968 146.164 220.444 146.653 220.76 147.243C221.077 147.832 221.222 148.499 221.178 149.167C221.074 150.503 220.632 151.791 219.894 152.91C219.668 153.365 219.337 153.76 218.93 154.063C218.723 154.207 218.478 154.283 218.226 154.283C217.975 154.283 217.729 154.207 217.523 154.063C217.044 153.664 217.102 152.924 217.203 152.308C217.588 149.994 217.087 147.071 217.631 144.787" fill="#FFBE9D"/>
<path d="M109.541 30.4632C109.403 29.4461 109.651 28.4143 110.237 27.5712C110.822 26.7281 111.702 26.1348 112.703 25.9084L130.647 14.4923C137.486 12.9546 146.103 24.378 147.329 31.2683C148.567 38.8415 149.053 46.5187 148.779 54.1876C148.286 65.9809 140.554 67.2429 140.554 67.2429L146.357 106.459L118.397 89.2193L109.541 30.4632Z" fill="#FFBE9D"/>
<path d="M143.601 41.0538C143.649 41.4395 143.544 41.8287 143.31 42.1388C143.076 42.4489 142.73 42.6555 142.346 42.7148C141.968 42.7847 141.578 42.7018 141.261 42.4842C140.944 42.2666 140.726 41.9321 140.656 41.5543C140.608 41.1686 140.712 40.7794 140.946 40.4694C141.181 40.1593 141.527 39.9526 141.911 39.8934C142.289 39.8234 142.679 39.9064 142.996 40.1239C143.313 40.3415 143.53 40.676 143.601 41.0538Z" fill="#263238"/>
<path d="M145.907 36.8192C145.762 36.9788 144.573 36.957 143.071 37.5445C141.57 38.132 140.576 38.9153 140.388 38.8718C140.199 38.8283 140.388 38.6179 140.845 38.2553C141.475 37.7406 142.189 37.3382 142.955 37.0658C143.687 36.7843 144.463 36.6393 145.247 36.6379C145.769 36.6234 145.98 36.7467 145.907 36.8192Z" fill="#263238"/>
<path d="M128.747 41.7706C128.793 42.157 128.687 42.5462 128.451 42.856C128.216 43.1659 127.869 43.3722 127.485 43.4315C127.108 43.4994 126.719 43.4154 126.404 43.198C126.089 42.9806 125.872 42.6474 125.802 42.2711C125.752 41.8851 125.856 41.4949 126.09 41.1844C126.325 40.8739 126.672 40.6677 127.057 40.6102C127.435 40.5402 127.825 40.6231 128.142 40.8407C128.459 41.0583 128.676 41.3928 128.747 41.7706Z" fill="#263238"/>
<path d="M130.306 39.8578C130.088 39.9448 128.971 39.2775 127.238 39.0237C125.505 38.7698 124.148 39.0237 123.981 38.9076C123.815 38.7916 124.148 38.6683 124.707 38.5305C125.577 38.3577 126.471 38.3405 127.347 38.4797C128.196 38.596 129.015 38.8716 129.762 39.292C130.277 39.5894 130.444 39.8215 130.306 39.8578Z" fill="#263238"/>
<path d="M137.385 49.7212C138.194 49.3549 139.047 49.0941 139.923 48.9452C140.322 48.8581 140.699 48.7348 140.736 48.4447C140.723 48.0197 140.578 47.6091 140.322 47.2698C139.839 46.3027 139.317 45.3139 138.756 44.3033C136.58 40.0748 134.926 36.5789 135.129 36.4919C135.332 36.4049 137.218 39.763 139.408 43.9914L140.924 46.9796C141.239 47.4432 141.381 48.0032 141.323 48.5608C141.28 48.7114 141.204 48.8503 141.1 48.9671C140.995 49.0839 140.866 49.1756 140.721 49.2353C140.502 49.3212 140.273 49.3796 140.039 49.4094C139.171 49.6237 138.279 49.7284 137.385 49.7212Z" fill="#263238"/>
<path d="M140.547 67.2735C135.13 68.0746 129.596 67.32 124.591 65.0977C124.591 65.0977 129.356 73.25 140.816 70.813L140.547 67.2735Z" fill="#EB996E"/>
<path d="M137.566 53.6305C137.176 53.1224 136.677 52.7082 136.106 52.4183C135.535 52.1283 134.906 51.9701 134.266 51.9551C133.896 51.9628 133.537 52.0827 133.236 52.299C132.936 52.5153 132.708 52.8178 132.583 53.1663C132.458 53.6166 132.444 54.0904 132.541 54.5476C132.638 55.0047 132.844 55.4316 133.142 55.7919C133.434 56.1731 133.832 56.4606 134.285 56.6191C134.739 56.7776 135.229 56.8002 135.695 56.684C136.452 56.3719 137.096 55.8384 137.544 55.1536C137.707 54.9793 137.824 54.7675 137.885 54.5371C137.912 54.3918 137.906 54.2424 137.869 54.0995C137.831 53.9566 137.762 53.8237 137.668 53.7103" fill="#EB996E"/>
<path d="M132.808 51.3741C133.069 51.3234 133.272 53.0568 134.897 54.1157C136.522 55.1747 138.349 54.7685 138.393 55.0079C138.393 55.1167 138.023 55.3923 137.24 55.5083C136.227 55.6403 135.2 55.4118 134.339 54.8628C133.512 54.3313 132.924 53.499 132.699 52.5419C132.547 51.7948 132.692 51.3741 132.808 51.3741Z" fill="#263238"/>
<path d="M130.814 32.7275C130.661 33.1626 129.051 32.9813 127.187 33.2424C125.323 33.5035 123.786 34.033 123.525 33.6486C123.409 33.46 123.67 33.0466 124.25 32.6114C125.061 32.0758 125.984 31.7321 126.948 31.6064C127.912 31.4807 128.891 31.5764 129.813 31.8861C130.524 32.2125 130.879 32.5171 130.814 32.7275Z" fill="#263238"/>
<path d="M145.994 33.2434C145.682 33.6423 144.275 33.4247 142.629 33.5915C140.982 33.7583 139.619 34.179 139.256 33.8309C139.089 33.6641 139.256 33.2724 139.844 32.8662C140.642 32.3545 141.553 32.0436 142.497 31.9602C143.442 31.8769 144.393 32.0235 145.269 32.3875C145.893 32.6994 146.125 33.0476 145.994 33.2434Z" fill="#263238"/>
<path d="M101.671 60.6078C101.962 55.3494 102.803 38.5154 106.197 29.3331C109.592 20.1509 114.371 16.0385 119.289 14.102C121.146 13.3084 123.177 13.0076 125.184 13.2287C127.192 13.4498 129.108 14.1853 130.748 15.364C133.273 17.1482 134.738 23.0231 134.738 23.0231C134.738 23.0231 122.807 27.1428 119.506 34.6278C115.684 43.1863 115.002 47.3494 115.002 47.3494L113.972 51.9115C113.972 51.9115 116.214 71.7411 117.222 75.8462L101.048 91.4835C101.577 86.3195 101.381 65.8589 101.671 60.6078Z" fill="#1E1E1E"/>
<path d="M135.093 23.0537C135.093 23.0537 142.005 21.4944 145.494 29.1027C147.075 32.5478 148.642 42.9775 148.642 42.9775C148.642 42.9775 149.229 34.4554 148.315 29.8207C147.401 25.1861 144.391 19.5288 140.431 16.6639C136.471 13.799 133.468 12.7183 127.274 13.8062C129.14 14.2726 130.833 15.2614 132.156 16.6566C133.091 17.7518 133.555 18.7237 135.093 23.0537Z" fill="#1E1E1E"/>
<path d="M115.133 47.9142C114.712 45.3612 111.724 43.9686 109.65 45.5135C108.511 46.3548 107.742 47.8779 108.163 50.5905C109.294 57.8435 116.308 55.1889 116.286 54.9858C116.264 54.7827 115.626 50.8952 115.133 47.9142Z" fill="#FFBE9D"/>
<path d="M113.653 52.5859C113.653 52.5859 113.545 52.6947 113.349 52.8253C113.066 52.9969 112.73 53.0565 112.406 52.9921C111.601 52.8325 110.774 51.7156 110.535 50.4246C110.419 49.8081 110.443 49.1734 110.607 48.5678C110.637 48.331 110.725 48.1051 110.862 47.9103C111 47.7154 111.184 47.5576 111.398 47.4509C111.537 47.3923 111.692 47.3834 111.838 47.4256C111.983 47.4679 112.109 47.5587 112.196 47.683C112.326 47.8715 112.297 48.0166 112.341 48.0239C112.384 48.0311 112.478 47.8788 112.341 47.5887C112.273 47.4161 112.147 47.2725 111.985 47.1825C111.762 47.0644 111.502 47.0384 111.26 47.11C110.972 47.2157 110.716 47.393 110.515 47.6252C110.315 47.8574 110.176 48.1369 110.114 48.4373C109.906 49.1087 109.866 49.8211 109.998 50.5116C110.266 51.9622 111.224 53.2097 112.319 53.3475C112.521 53.3731 112.726 53.3532 112.919 53.2892C113.113 53.2252 113.289 53.1187 113.436 52.9776C113.668 52.76 113.682 52.5932 113.653 52.5859Z" fill="#EB996E"/>
<path d="M122.139 13.3043C122.139 13.3623 123.14 13.2173 124.736 13.2463C125.669 13.2646 126.594 13.4286 127.477 13.7322C128.55 14.1288 129.535 14.7299 130.378 15.502C131.939 16.897 133.156 18.6348 133.932 20.579C134.527 22.0296 134.658 23.0595 134.745 23.045C134.734 22.8125 134.7 22.5816 134.643 22.356C134.065 19.6387 132.631 17.1781 130.553 15.3351C129.683 14.5293 128.659 13.9076 127.543 13.5074C126.636 13.204 125.685 13.0545 124.728 13.065C124.088 13.0647 123.449 13.1059 122.814 13.1883C122.586 13.2082 122.36 13.247 122.139 13.3043Z" fill="#455A64"/>
<path d="M109.019 53.9301C109.021 53.889 109.021 53.8478 109.019 53.8068L108.917 53.4804C108.866 53.3281 108.815 53.1468 108.75 52.9437L108.554 52.2184C108.159 50.6329 107.993 48.9988 108.061 47.3662C108.153 44.9443 108.749 42.5682 109.809 40.3889C111.165 37.7503 113.098 35.452 115.466 33.6654C116.682 32.7275 117.953 31.8652 119.274 31.0833C120.551 30.3145 121.834 29.6763 123.024 28.9655C125.104 27.6964 127.083 26.2682 128.942 24.6935C130.531 23.3517 131.756 22.1985 132.569 21.3862C132.982 20.98 133.294 20.6609 133.504 20.436L133.744 20.1822C133.795 20.1242 133.824 20.0951 133.816 20.0879L133.729 20.1604L133.468 20.3998L132.511 21.3354C131.662 22.126 130.422 23.2574 128.819 24.5702C126.953 26.1188 124.975 27.5273 122.901 28.7842C121.726 29.5095 120.427 30.1114 119.144 30.8875C117.81 31.6691 116.528 32.5364 115.307 33.4841C112.899 35.2878 110.934 37.6171 109.563 40.2946C108.499 42.5043 107.915 44.9145 107.851 47.3662C107.801 49.0126 107.994 50.6573 108.424 52.2474L108.641 52.9727C108.721 53.1758 108.786 53.3499 108.837 53.5022L108.968 53.8286C108.997 53.8938 109.011 53.9301 109.019 53.9301Z" fill="#1E1E1E"/>
<path d="M107.024 51.3737C107.024 51.3737 107.024 51.3301 107.024 51.2576L106.981 50.9095C106.981 50.6048 106.865 50.1842 106.807 49.5822C106.636 47.9485 106.609 46.303 106.727 44.6647C106.904 42.2383 107.391 39.8447 108.177 37.5423C109.159 34.7303 110.592 32.0968 112.42 29.7454C114.303 27.4215 116.5 25.371 118.948 23.6529C121.124 22.0283 123.3 20.7518 125.033 19.6058C126.767 18.4598 128.21 17.5822 129.175 16.915C129.661 16.5958 130.023 16.3275 130.27 16.1461L130.553 15.9431L130.647 15.8633C130.647 15.8633 130.603 15.8633 130.538 15.9213L130.241 16.1026L129.117 16.8279C128.145 17.4589 126.709 18.351 124.932 19.439C123.155 20.5269 121.037 21.8324 118.803 23.4571C116.35 25.1772 114.152 27.2356 112.275 29.5713C110.411 31.9453 108.952 34.6118 107.96 37.4625C107.165 39.7873 106.677 42.2061 106.509 44.6574C106.408 46.303 106.464 47.9544 106.676 49.5894C106.749 50.1697 106.85 50.6121 106.901 50.9167C106.901 51.0545 106.952 51.1706 106.973 51.2576C106.995 51.3446 107.017 51.3737 107.024 51.3737Z" fill="#455A64"/>
<path d="M145.748 79.3066C145.748 79.3066 155.097 83.1072 156.888 87.9739C158.68 92.8406 172.272 133.029 172.272 133.029L156.496 139.078L149.301 106.005L145.748 79.3066Z" fill="#FF5859"/>
<path d="M97.4139 193.431C97.4139 193.431 193.878 188.999 199.934 190.595C205.99 192.19 209.61 195.244 210.814 202.504C212.017 209.764 230.614 305.953 230.614 305.953L213.7 310.928C213.7 310.928 189.969 256.749 188.96 247.682C187.952 238.616 184.609 220.034 184.609 220.034C184.609 220.034 147.938 220.636 120.935 220.034C93.9325 219.432 97.5589 194.439 97.5589 194.439L97.4139 193.431Z" fill="#FFBE9D"/>
<path d="M213.49 311.364L213.367 311.074C212.395 308.854 189.606 256.742 188.605 247.719C187.677 239.4 184.754 222.842 184.319 220.397C180.692 220.455 146.335 220.963 120.942 220.397C112.551 220.209 106.233 217.663 102.15 212.84C95.9706 205.536 97.073 195.31 97.2108 194.446L96.986 193.09H97.3921C101.338 192.909 193.994 188.673 200.028 190.269C206.803 192.06 210.03 195.592 211.176 202.461C212.366 209.627 230.759 304.945 230.977 305.91L231.035 306.229L213.49 311.364ZM184.921 219.665L184.979 219.97C185.015 220.151 188.329 238.668 189.33 247.639C190.28 256.205 212.025 306.178 213.911 310.486L230.208 305.699C229.018 299.541 211.626 209.525 210.465 202.562C209.377 196.035 206.302 192.655 199.847 190.958C194.132 189.442 104.681 193.475 97.8418 193.786L97.9506 194.446V194.497C97.9506 194.606 96.5 205.043 102.723 212.383C106.669 217.039 112.805 219.491 120.971 219.679C147.655 220.274 184.261 219.679 184.63 219.679L184.921 219.665Z" fill="#EB996E"/>
<path d="M103.927 141.405L106.357 156.433C106.357 156.433 95.8038 176.43 94.6143 193.619C94.0486 201.786 98.734 218.511 98.734 218.511C98.734 218.511 135.898 222.595 155.945 222.072L177.334 221.137L181.106 187.722L157.098 184.256L157.461 138.722C157.461 138.722 161.813 126.732 162.146 123.186C162.915 115.701 162.596 108.129 155.118 98.4243L145.747 79.3055L142.621 77.8549L144.108 101.014L117.171 75.418L103.528 80.3137L99.6623 98.5548L103.927 141.405Z" fill="#FF5859"/>
<g opacity="0.3">
<path d="M150.622 189.792C148.874 190.097 136.261 190.278 134.513 190.583C134.215 190.674 133.902 190.703 133.593 190.67C133.284 190.636 132.985 190.54 132.714 190.387C132.496 190.18 132.344 189.913 132.28 189.619C132.215 189.326 132.24 189.02 132.351 188.74C132.583 188.179 132.946 187.681 133.41 187.29C136.464 184.389 140.431 182.713 144.29 181.074C145.523 180.559 146.857 180.03 148.148 180.349C148.781 180.558 149.354 180.918 149.816 181.399C150.279 181.879 150.617 182.464 150.803 183.105C151.171 184.384 151.323 185.715 151.253 187.043" fill="black"/>
</g>
<g opacity="0.3">
<path d="M104.921 151.887C109.425 150.836 112.253 146.397 114.081 142.147C115.909 137.896 117.417 133.204 121 130.273C123.626 128.098 127.144 127.14 129.414 124.616C130.493 123.38 131.208 121.869 131.481 120.25C131.754 118.632 131.573 116.97 130.959 115.448C130.306 113.896 128.993 112.431 127.332 112.344C125.374 112.243 123.851 113.94 122.654 115.499C117.181 122.67 112.019 130.068 107.169 137.693C104.565 141.791 101.969 146.767 103.782 151.271" fill="black"/>
</g>
<path d="M104.95 82.709C104.95 82.709 97.3269 85.1315 94.5708 89.9112C91.8146 94.6908 87.2453 117.9 86.1429 124.152C85.0404 130.404 79.7095 156.13 86.1429 160.178C92.5762 164.225 101.033 158.002 103.238 154.295C105.443 150.589 114.444 131.318 114.444 131.318L106.357 124.522C106.357 124.522 107.807 106.143 107.278 102.277C106.748 98.4116 104.95 82.709 104.95 82.709Z" fill="#FFBE9D"/>
<path d="M81.0441 130.423L98.734 131.576L106.814 122.089L109.048 107.148L108.453 78.5645C108.453 78.5645 92.6633 82.4158 89.2471 94.4194C86.7159 103.29 81.0441 130.423 81.0441 130.423Z" fill="#FF5859"/>
<path d="M112.348 96.618C111.332 96.4802 110.034 97.677 110.897 100.564C111.623 102.972 112.986 105.314 112.885 106.656C112.783 107.998 112.261 110.79 112.261 112.241C112.198 113.659 112.06 115.073 111.847 116.477L99.8075 130.982L110.23 140.179L118.477 127.225C118.477 127.225 120.964 127.639 122.408 125.985L124.584 123.497C124.584 123.497 130.168 121.43 129.03 118.42C129.03 118.42 130.683 116.846 129.182 114.322C129.182 114.322 129.965 111.697 128.826 110.152C128.826 110.152 128.725 106.634 127.789 106.011C126.854 105.387 117.178 105.285 117.178 105.285C116.651 103.677 116.044 102.096 115.358 100.549C114.299 98.8012 113.762 96.8066 112.348 96.618Z" fill="#FFBE9D"/>
<path d="M116.467 110.886C116.467 110.922 116.213 110.784 115.989 110.443C115.696 109.984 115.568 109.439 115.626 108.897C115.684 108.355 115.924 107.849 116.308 107.463C116.598 107.18 116.844 107.093 116.866 107.129C116.435 107.651 116.139 108.271 116.003 108.935C116.004 109.612 116.163 110.281 116.467 110.886Z" fill="#EB996E"/>
<path d="M128.42 109.893C126.962 110.318 125.461 110.583 123.945 110.683C122.442 110.902 120.919 110.953 119.405 110.835C120.895 110.576 122.399 110.399 123.909 110.306C125.403 110.082 126.91 109.944 128.42 109.893Z" fill="#EB996E"/>
<path d="M129.276 114.038C128.074 114.526 126.805 114.83 125.512 114.938C124.237 115.173 122.934 115.217 121.646 115.068C121.646 114.959 123.358 114.85 125.461 114.56C127.564 114.27 129.254 113.937 129.276 114.038Z" fill="#EB996E"/>
<path d="M129.066 118.297C127.189 118.873 125.216 119.068 123.263 118.87C124.218 118.662 125.189 118.538 126.165 118.5C127.124 118.349 128.095 118.281 129.066 118.297Z" fill="#EB996E"/>
<path d="M119.927 119.604C119.927 119.648 119.724 119.604 119.477 119.467C119.152 119.245 118.924 118.908 118.839 118.524C118.746 118.144 118.798 117.743 118.984 117.4C119.129 117.146 119.289 117.044 119.325 117.073C119.361 117.102 119.028 117.704 119.202 118.437C119.376 119.169 119.978 119.51 119.927 119.604Z" fill="#EB996E"/>
<path d="M117.548 116.15C117.548 116.186 117.309 116.063 117.084 115.751C116.795 115.339 116.629 114.854 116.605 114.351C116.575 113.847 116.686 113.345 116.924 112.901C117.12 112.567 117.309 112.422 117.345 112.451C117.123 113.051 117.001 113.683 116.982 114.322C117.075 114.957 117.266 115.574 117.548 116.15Z" fill="#EB996E"/>
<path d="M126.092 122.875C125.566 123.154 124.988 123.322 124.395 123.368C123.82 123.534 123.217 123.576 122.625 123.492C123.15 123.21 123.728 123.042 124.322 122.998C124.896 122.829 125.5 122.787 126.092 122.875Z" fill="#EB996E"/>
<path d="M121.429 105.352C121.429 105.461 119.978 105.461 118.143 105.642C116.308 105.823 114.894 106.106 114.865 106.005C115.893 105.569 116.991 105.324 118.107 105.279C119.21 105.107 120.334 105.131 121.429 105.352Z" fill="#EB996E"/>
<path d="M153.276 140.217H213.229C214.287 140.217 215.301 140.637 216.049 141.385C216.798 142.133 217.218 143.148 217.218 144.206V186.701H149.301V144.199C149.303 143.144 149.722 142.134 150.467 141.388C151.212 140.642 152.222 140.221 153.276 140.217Z" fill="#E0E0E0"/>
<path d="M217.218 189.789H137.436C137.436 188.977 137.758 188.199 138.332 187.625C138.906 187.051 139.685 186.729 140.496 186.729H217.218V189.789Z" fill="#E0E0E0"/>
<path d="M214.708 143.205H151.361V186.73H214.708V143.205Z" fill="white"/>
<path d="M214.701 186.7C214.701 186.7 214.701 186.425 214.701 185.902C214.701 185.38 214.701 184.597 214.701 183.596C214.701 181.572 214.701 178.613 214.658 174.827C214.658 167.255 214.614 156.398 214.578 143.175L214.73 143.328H151.39L151.579 143.139C151.579 158.682 151.579 173.442 151.579 186.657L151.412 186.483L197.04 186.57L210.095 186.621H213.57H214.462H214.774H214.483H213.606H210.168L197.178 186.664L151.434 186.751H151.26V186.7C151.26 173.478 151.26 158.719 151.26 143.183V142.994H151.448H214.788H214.94V143.183C214.94 156.441 214.882 167.335 214.861 174.929C214.861 178.7 214.861 181.645 214.861 183.632C214.861 184.626 214.861 185.388 214.861 185.91C214.861 186.432 214.701 186.7 214.701 186.7Z" fill="#263238"/>
<path d="M216.884 186.7C216.884 186.809 199.76 186.889 178.64 186.889C157.519 186.889 140.388 186.809 140.388 186.7C140.388 186.592 157.512 186.512 178.64 186.512C199.767 186.512 216.884 186.628 216.884 186.7Z" fill="#263238"/>
<path d="M183.028 181.617C192.221 181.617 199.673 174.165 199.673 164.972C199.673 155.779 192.221 148.326 183.028 148.326C173.835 148.326 166.382 155.779 166.382 164.972C166.382 174.165 173.835 181.617 183.028 181.617Z" fill="#FF725E"/>
<path d="M172.685 165.375L176.21 162.039L181.076 166.521L190.658 157.506L194.139 160.799L181.026 173.245L172.685 165.375Z" fill="white"/>
<path d="M111.862 116.477C111.942 116.542 106.944 122.577 100.7 129.946C94.4548 137.315 89.3269 143.233 89.2472 143.182C89.1674 143.132 94.1646 137.09 100.409 129.714C106.654 122.337 111.782 116.412 111.862 116.477Z" fill="#EB996E"/>
<path d="M110.999 107.127C110.836 109.231 110.548 111.324 110.136 113.393C109.85 115.486 109.438 117.559 108.903 119.602C109.065 117.495 109.354 115.4 109.766 113.328C110.056 111.239 110.468 109.168 110.999 107.127Z" fill="#263238"/>
<path d="M157.461 138.72C157.487 138.571 157.526 138.426 157.577 138.284L157.969 137.066C158.317 136.014 158.832 134.491 159.419 132.598C160.121 130.386 160.707 128.14 161.175 125.867C161.759 123.093 162.019 120.26 161.951 117.425C161.689 112.264 160.239 107.233 157.715 102.723C156.965 101.35 156.142 100.018 155.249 98.7341C154.944 98.2771 154.683 97.9363 154.524 97.6969C154.43 97.5777 154.35 97.4488 154.284 97.3125C154.395 97.4128 154.495 97.5246 154.582 97.6461C154.77 97.8782 155.053 98.2046 155.38 98.6543C156.322 99.9114 157.185 101.227 157.962 102.593C159.116 104.626 160.066 106.769 160.797 108.99C161.707 111.71 162.232 114.545 162.357 117.41C162.43 120.276 162.157 123.14 161.544 125.94C161.056 128.218 160.441 130.468 159.702 132.678C159.078 134.564 158.527 136.079 158.136 137.117C157.947 137.6 157.795 137.999 157.679 138.313C157.623 138.457 157.55 138.593 157.461 138.72Z" fill="#263238"/>
<path d="M142.048 116.139C142.078 116.476 142.078 116.816 142.048 117.154C142.047 117.552 142.018 117.95 141.961 118.344C141.909 118.87 141.829 119.393 141.722 119.91C141.606 120.538 141.451 121.158 141.258 121.767C141.054 122.473 140.811 123.168 140.533 123.849C139.863 125.383 139.032 126.842 138.052 128.2C137.048 129.556 135.898 130.796 134.621 131.899C134.062 132.377 133.476 132.823 132.866 133.234C132.344 133.604 131.799 133.941 131.234 134.242C130.766 134.513 130.281 134.755 129.784 134.967C129.427 135.141 129.059 135.289 128.681 135.41C128.367 135.539 128.042 135.639 127.709 135.707C127.673 135.627 129.066 135.199 131.068 134.032C131.615 133.717 132.145 133.373 132.656 133.002C133.222 132.625 133.766 132.146 134.36 131.66C136.859 129.461 138.841 126.737 140.163 123.682C140.439 123.018 140.681 122.34 140.888 121.651C141.088 121.051 141.256 120.441 141.388 119.823C141.99 117.589 141.976 116.139 142.048 116.139Z" fill="#263238"/>
<path d="M161.987 122.729C161.946 122.69 161.911 122.643 161.885 122.592L161.631 122.149C161.392 121.75 161.066 121.206 160.652 120.532C160.239 119.857 159.593 119.03 158.919 118.088C158.244 117.145 157.388 116.115 156.482 114.962C152.754 110.407 147.249 104.423 140.939 98.0333C134.629 91.6434 128.703 86.0732 124.359 82.0768L121.399 79.4295C120.529 78.6607 119.775 77.9789 119.144 77.4567L117.693 76.2309L117.323 75.9045C117.276 75.8706 117.234 75.829 117.2 75.7812C117.252 75.8068 117.301 75.8384 117.345 75.8755C117.454 75.9553 117.584 76.0496 117.737 76.1729L119.231 77.3406L121.53 79.2699C122.422 80.0387 123.423 80.9163 124.525 81.881C128.928 85.7975 134.868 91.3606 141.207 97.7431C147.546 104.126 153.008 110.16 156.685 114.766C157.584 115.934 158.397 116.985 159.093 117.928L160.776 120.423C161.16 121.148 161.501 121.671 161.697 122.084L161.929 122.519C161.977 122.659 161.996 122.729 161.987 122.729Z" fill="#263238"/>
<path d="M147.902 156.282C147.768 156.329 147.629 156.355 147.488 156.362L146.306 156.529C145.276 156.666 143.775 156.826 141.954 156.993C138.248 157.326 133.106 157.595 127.448 157.53C121.791 157.464 116.627 157.051 112.942 156.63C111.093 156.42 109.599 156.217 108.591 156.05L107.408 155.861C107.27 155.846 107.133 155.815 107.002 155.767C107.142 155.75 107.283 155.75 107.423 155.767L108.612 155.89C109.642 156.014 111.144 156.173 112.964 156.347C116.656 156.703 121.784 157.073 127.47 157.138C133.156 157.203 138.27 156.971 141.976 156.71C143.825 156.579 145.327 156.463 146.328 156.369L147.517 156.275C147.645 156.264 147.774 156.266 147.902 156.282Z" fill="#263238"/>
<path d="M179.314 140.165C179.314 140.165 191.194 135.531 192.319 135.161C193.443 134.791 203.829 133.979 203.829 133.979L217.218 138.787C217.218 138.787 217.341 141.536 214.215 141.166C211.459 140.701 208.742 140.032 206.085 139.164L204.206 140.281L179.314 140.165Z" fill="#FFBE9D"/>
<path d="M216.572 141.929C216.884 142.56 217.697 142.654 218.32 142.988C218.897 143.325 219.37 143.815 219.686 144.404C220.002 144.993 220.15 145.657 220.112 146.324C220.007 147.658 219.566 148.944 218.828 150.06C218.602 150.51 218.274 150.903 217.871 151.206C217.664 151.349 217.419 151.426 217.167 151.426C216.916 151.426 216.67 151.349 216.464 151.206C216.265 150.964 216.132 150.677 216.076 150.369C216.021 150.062 216.044 149.746 216.144 149.45C216.529 147.137 216.028 144.207 216.572 141.922" fill="#FFBE9D"/>
<path d="M230.034 302.363L230.44 303.495C230.44 303.495 252.489 304.358 253.998 307.941L215.644 321.417L211.677 308.47C218.313 309.109 224.384 307.31 230.034 302.363Z" fill="#1E1E1E"/>
<g opacity="0.6">
<path d="M217 311.185C216.67 311.428 216.441 311.784 216.357 312.185C216.272 312.587 216.339 313.005 216.543 313.36C216.774 313.706 217.13 313.948 217.536 314.036C217.942 314.123 218.366 314.05 218.719 313.832C219.069 313.575 219.311 313.198 219.398 312.773C219.485 312.348 219.411 311.906 219.191 311.533C218.914 311.206 218.522 310.999 218.096 310.954C217.671 310.91 217.244 311.031 216.906 311.293" fill="white"/>
</g>
<g opacity="0.6">
<path d="M215.644 321.418L214.694 318.306L251.8 306.527C251.8 306.527 253.765 306.672 253.976 307.978L215.644 321.418Z" fill="white"/>
</g>
<path d="M230.614 303.558C230.672 303.747 229.765 304.16 229.055 305.089C228.344 306.017 228.134 306.974 227.938 306.96C227.742 306.945 227.633 305.763 228.511 304.661C229.388 303.558 230.592 303.37 230.614 303.558Z" fill="#263238"/>
<path d="M235.22 303.807C235.329 303.974 234.625 304.576 234.27 305.591C233.914 306.606 234.023 307.513 233.834 307.571C233.646 307.629 233.153 306.606 233.624 305.352C234.096 304.097 235.154 303.633 235.22 303.807Z" fill="#263238"/>
<path d="M239.194 307.825C239.042 307.926 238.469 307.099 238.571 305.888C238.672 304.677 239.427 303.981 239.557 304.104C239.688 304.227 239.347 304.974 239.26 305.953C239.173 306.933 239.376 307.738 239.194 307.825Z" fill="#263238"/>
</svg>
