<svg width="32" height="32" viewBox="0 0 32 32" fill="none" xmlns="http://www.w3.org/2000/svg">
<g clip-path="url(#clip0_65_5973)">
<path d="M3 2.84035H3.48V3.32035C3.48 3.45296 3.53268 3.58014 3.62645 3.6739C3.72021 3.76767 3.84739 3.82035 3.98 3.82035C4.11261 3.82035 4.23979 3.76767 4.33355 3.6739C4.42732 3.58014 4.48 3.45296 4.48 3.32035V2.84035H5C5.13261 2.84035 5.25979 2.78767 5.35355 2.6939C5.44732 2.60014 5.5 2.47296 5.5 2.34035C5.5 2.20774 5.44732 2.08057 5.35355 1.9868C5.25979 1.89303 5.13261 1.84035 5 1.84035H4.52V1.36035C4.52 1.22774 4.46732 1.10057 4.37355 1.0068C4.27979 0.91303 4.15261 0.860352 4.02 0.860352C3.88739 0.860352 3.76021 0.91303 3.66645 1.0068C3.57268 1.10057 3.52 1.22774 3.52 1.36035V1.84035H3C2.86739 1.84035 2.74021 1.89303 2.64645 1.9868C2.55268 2.08057 2.5 2.20774 2.5 2.34035C2.5 2.47296 2.55268 2.60014 2.64645 2.6939C2.74021 2.78767 2.86739 2.84035 3 2.84035ZM28.68 29.1604H28.2V28.6804C28.2 28.5477 28.1473 28.4206 28.0536 28.3268C27.9598 28.233 27.8326 28.1804 27.7 28.1804C27.5674 28.1804 27.4402 28.233 27.3464 28.3268C27.2527 28.4206 27.2 28.5477 27.2 28.6804V29.1604H26.72C26.5874 29.1604 26.4602 29.213 26.3664 29.3068C26.2727 29.4006 26.22 29.5277 26.22 29.6604C26.22 29.793 26.2727 29.9201 26.3664 30.0139C26.4602 30.1077 26.5874 30.1604 26.72 30.1604H27.2V30.6404C27.2 30.773 27.2527 30.9001 27.3464 30.9939C27.4402 31.0877 27.5674 31.1404 27.7 31.1404C27.8326 31.1404 27.9598 31.0877 28.0536 30.9939C28.1473 30.9001 28.2 30.773 28.2 30.6404V30.1604H28.68C28.8126 30.1604 28.9398 30.1077 29.0336 30.0139C29.1273 29.9201 29.18 29.793 29.18 29.6604C29.18 29.5277 29.1273 29.4006 29.0336 29.3068C28.9398 29.213 28.8126 29.1604 28.68 29.1604ZM29.44 23.3804H29.26C29.6058 22.9411 29.7958 22.3994 29.8 21.8404V7.42035C29.8 6.7467 29.5324 6.10064 29.0561 5.6243C28.5797 5.14796 27.9337 4.88035 27.26 4.88035H4.75C4.07635 4.88035 3.43029 5.14796 2.95395 5.6243C2.47761 6.10064 2.21 6.7467 2.21 7.42035V21.8304C2.2142 22.3894 2.40417 22.9311 2.75 23.3704H2.56C2.08638 23.405 1.6434 23.6175 1.32007 23.9654C0.996741 24.3132 0.817022 24.7705 0.817022 25.2454C0.817022 25.7202 0.996741 26.1775 1.32007 26.5254C1.6434 26.8732 2.08638 27.0857 2.56 27.1204H29.44C29.9136 27.0857 30.3566 26.8732 30.6799 26.5254C31.0033 26.1775 31.183 25.7202 31.183 25.2454C31.183 24.7705 31.0033 24.3132 30.6799 23.9654C30.3566 23.6175 29.9136 23.405 29.44 23.3704V23.3804ZM3.21 21.8304V7.42035C3.21 7.01192 3.37225 6.62021 3.66106 6.33141C3.94986 6.0426 4.34157 5.88035 4.75 5.88035H27.25C27.6584 5.88035 28.0501 6.0426 28.3389 6.33141C28.6278 6.62021 28.79 7.01192 28.79 7.42035V21.8304C28.79 22.2388 28.6278 22.6305 28.3389 22.9193C28.0501 23.2081 27.6584 23.3704 27.25 23.3704H4.75C4.34157 23.3704 3.94986 23.2081 3.66106 22.9193C3.37225 22.6305 3.21 22.2388 3.21 21.8304ZM29.44 26.1204H2.56C2.44487 26.1178 2.33141 26.0924 2.22617 26.0456C2.12094 25.9988 2.02604 25.9317 1.94697 25.8479C1.86791 25.7642 1.80624 25.6656 1.76557 25.5579C1.72489 25.4502 1.706 25.3354 1.71 25.2204C1.7126 24.9957 1.80298 24.781 1.96183 24.6222C2.12068 24.4633 2.33537 24.3729 2.56 24.3704H29.44C29.5551 24.3729 29.6686 24.3983 29.7738 24.4451C29.8791 24.4919 29.974 24.5591 30.053 24.6428C30.1321 24.7265 30.1938 24.8251 30.2344 24.9328C30.2751 25.0405 30.294 25.1553 30.29 25.2704C30.29 25.4967 30.2008 25.714 30.0417 25.875C29.8825 26.036 29.6663 26.1277 29.44 26.1304V26.1204Z" fill="#FF5859"/>
<path d="M16 10C15.0111 10 14.0444 10.2932 13.2221 10.8427C12.3999 11.3921 11.759 12.173 11.3806 13.0866C11.0022 14.0002 10.9031 15.0055 11.0961 15.9755C11.289 16.9454 11.7652 17.8363 12.4645 18.5355C13.1637 19.2348 14.0546 19.711 15.0245 19.9039C15.9945 20.0969 16.9998 19.9978 17.9134 19.6194C18.827 19.241 19.6079 18.6001 20.1573 17.7779C20.7068 16.9556 21 15.9889 21 15C21 13.6739 20.4732 12.4021 19.5355 11.4645C18.5979 10.5268 17.3261 10 16 10ZM19.9 14.45H18.79C18.7532 13.4643 18.5114 12.4971 18.08 11.61C18.5808 11.9243 19.0044 12.3473 19.3194 12.8475C19.6345 13.3478 19.8329 13.9126 19.9 14.5V14.45ZM15.5 11.19V14.5H14.2C14.1826 13.8966 14.289 13.2961 14.5126 12.7354C14.7361 12.1748 15.0722 11.6658 15.5 11.24V11.19ZM15.5 15.45V18.71C15.0722 18.2842 14.7361 17.7752 14.5126 17.2146C14.289 16.6539 14.1826 16.0534 14.2 15.45H15.5ZM16.5 18.71V15.5H17.8C17.8174 16.1034 17.711 16.7039 17.4874 17.2646C17.2639 17.8252 16.9278 18.3342 16.5 18.76V18.71ZM16.5 14.45V11.24C16.9278 11.6658 17.2639 12.1748 17.4874 12.7354C17.711 13.2961 17.8174 13.8966 17.8 14.5L16.5 14.45ZM13.91 11.61C13.4786 12.4971 13.2368 13.4643 13.2 14.45H12.1C12.18 13.8811 12.3835 13.3366 12.6962 12.8547C13.0089 12.3727 13.4231 11.965 13.91 11.66V11.61ZM12.1 15.5H13.21C13.2468 16.4857 13.4886 17.4529 13.92 18.34C13.4253 18.0309 13.0054 17.6157 12.6907 17.1246C12.376 16.6335 12.1742 16.0786 12.1 15.5ZM18.1 18.34C18.5314 17.4529 18.7732 16.4857 18.81 15.5H19.9C19.8269 16.0777 19.6267 16.6321 19.3137 17.1231C19.0008 17.6142 18.5828 18.0298 18.09 18.34H18.1Z" fill="#FF5859"/>
</g>
<defs>
<clipPath id="clip0_65_5973">
<rect width="32" height="32" fill="white"/>
</clipPath>
</defs>
</svg>
