<svg width="427" height="419" viewBox="0 0 427 419" fill="none" xmlns="http://www.w3.org/2000/svg">
<path d="M373.877 66.2248L387.082 65.9626L393.781 65.8596C396.013 65.8596 398.266 65.8596 400.509 65.8035H400.961V66.2248V76.702V77.1701H400.459L387.163 77.1046C382.728 77.1046 378.292 77.0016 373.847 76.9548H373.576V76.702C373.576 74.923 373.666 73.1534 373.706 71.4025L373.877 66.2248ZM373.877 66.2248L374.018 71.5149C374.068 73.2564 374.139 74.9885 374.159 76.702L373.877 76.4398C378.323 76.393 382.758 76.2993 387.193 76.29L400.509 76.2338L400.006 76.702L400.066 66.2248L400.509 66.6368C398.316 66.6368 396.134 66.6368 393.931 66.59L387.314 66.4963L373.877 66.2248Z" fill="#EBEBEB"/>
<path d="M388.732 53.0137L401.937 52.7516L408.635 52.6486C410.878 52.6018 413.121 52.6486 415.363 52.5924H415.816V53.0137L415.866 63.4909V63.959H415.323L402.007 63.8935C397.572 63.8935 393.137 63.7905 388.692 63.7437H388.42V63.4909C388.42 61.7119 388.511 59.9423 388.551 58.1915L388.732 53.0137ZM388.732 53.0137L388.883 58.3038C388.883 60.0453 388.993 61.7775 389.013 63.4909L388.732 63.2287C393.177 63.1819 397.612 63.0883 402.048 63.0789L415.323 63.0227L414.83 63.4909L414.881 53.0137L415.323 53.3883C413.131 53.3883 410.948 53.3883 408.746 53.3883L402.128 53.2853L388.732 53.0137Z" fill="#EBEBEB"/>
<path d="M359.003 53.0137L372.208 52.7516L378.906 52.6486C381.139 52.6018 383.391 52.6486 385.634 52.5924H386.077V53.0137L386.157 63.4909V63.959H385.654L372.339 63.8935C367.903 63.8935 363.458 63.7905 359.023 63.7437H358.751V63.4909C358.751 61.7119 358.832 59.9423 358.882 58.1915L359.003 53.0137ZM359.003 53.0137L359.143 58.3038C359.143 60.0453 359.254 61.7775 359.274 63.4909L359.003 63.2287C363.438 63.1819 367.883 63.0883 372.318 63.0789L385.634 63.0227L385.131 63.4909L385.192 53.0137L385.634 53.4257C383.442 53.4257 381.249 53.4257 379.057 53.4257L372.439 53.3227L359.003 53.0137Z" fill="#EBEBEB"/>
<path d="M255.866 348.762L269.061 348.5L275.759 348.397C278.002 348.35 280.255 348.397 282.498 348.34H282.94V348.762L283 359.239V359.707H282.498L269.182 359.641C264.747 359.641 260.301 359.538 255.866 359.492H255.584V359.239C255.584 357.46 255.665 355.69 255.715 353.939L255.866 348.762ZM255.866 348.762L256.007 354.052C256.057 355.803 256.117 357.525 256.138 359.239L255.866 358.986C260.301 358.93 264.747 358.836 269.182 358.827L282.498 358.771L281.995 359.239L282.045 348.762L282.498 349.174C280.305 349.174 278.113 349.174 275.91 349.127L269.292 349.024L255.866 348.762Z" fill="#EBEBEB"/>
<path d="M270.72 335.55L283.915 335.288L290.614 335.213C292.846 335.167 295.099 335.213 297.342 335.157H297.784V335.579L297.835 346.056V346.524H297.332L284.036 346.449C279.601 346.449 275.156 346.337 270.72 346.29H270.439V346.037C270.439 344.258 270.519 342.488 270.569 340.738L270.72 335.55ZM270.72 335.55L270.861 340.841C270.911 342.591 270.972 344.314 270.992 346.028L270.72 345.775C275.156 345.719 279.601 345.625 284.036 345.616L297.352 345.559L296.849 346.028L296.899 335.55L297.352 335.962C295.159 335.962 292.967 335.962 290.764 335.916L284.157 335.813L270.72 335.55Z" fill="#EBEBEB"/>
<path d="M241.011 335.55L254.206 335.288L260.904 335.185C263.147 335.139 265.4 335.185 267.643 335.129H268.085V335.55L268.146 346.028V346.496H267.643L254.327 346.449C249.882 346.449 245.446 346.337 241.011 346.29H240.73V346.037C240.73 344.258 240.82 342.488 240.86 340.738L241.011 335.55ZM241.011 335.55L241.152 340.841C241.152 342.591 241.263 344.314 241.283 346.028L241.011 345.775C245.446 345.719 249.882 345.625 254.327 345.616L267.643 345.559L267.14 346.028V335.55L267.592 335.962C265.4 335.962 263.208 335.962 261.005 335.916L254.387 335.813L241.011 335.55Z" fill="#EBEBEB"/>
<path d="M25.8373 53.0137L39.0324 52.7516L45.7305 52.6486C47.9733 52.6018 50.2261 52.6486 52.4688 52.5924H52.9114V53.0137L52.9717 63.4909V63.959H52.4688L39.1832 63.8935C34.738 63.8935 30.3027 63.7905 25.8675 63.7437H25.5859V63.4909C25.5859 61.7119 25.6764 59.9423 25.7166 58.1915L25.8373 53.0137ZM25.8373 53.0137L25.9781 58.3038C25.9781 60.0453 26.0887 61.7775 26.1089 63.4909L25.8373 63.2287C30.2725 63.1819 34.7078 63.0883 39.1531 63.0789L52.4688 63.0227L51.966 63.4909L52.0163 53.0137L52.4688 53.4257C50.2764 53.4257 48.0839 53.4257 45.8814 53.4257L39.2637 53.3227L25.8373 53.0137Z" fill="#EBEBEB"/>
<path d="M93.4919 255.76L106.697 255.497L113.395 255.394C115.628 255.348 117.881 255.394 120.123 255.348H120.576V255.769L120.626 266.246V266.714H120.113L106.798 266.658C102.362 266.658 97.9272 266.555 93.4819 266.499H93.2103V266.246C93.2103 264.467 93.3008 262.698 93.3411 260.956L93.4919 255.76ZM93.4919 255.76L93.6428 261.059C93.6428 262.801 93.7534 264.523 93.7735 266.237L93.4919 265.984C97.9372 265.937 102.372 265.834 106.808 265.825L120.123 265.769L119.621 266.237L119.681 255.76L120.123 256.181C117.931 256.181 115.749 256.181 113.546 256.125L106.928 256.022L93.4919 255.76Z" fill="#EBEBEB"/>
<path d="M25.8373 335.728L39.0324 335.466L45.7305 335.363C47.9733 335.316 50.2261 335.363 52.4688 335.316H52.9114V335.738L52.9717 346.215V346.683H52.4688L39.1832 346.618C34.738 346.618 30.3027 346.515 25.8675 346.458H25.5859V346.206C25.5859 344.427 25.6764 342.666 25.7166 340.915L25.8373 335.728ZM25.8373 335.728L25.9781 341.028C25.9781 342.769 26.0887 344.492 26.1089 346.206L25.8373 345.953C30.2725 345.906 34.7078 345.803 39.1531 345.803L52.4688 345.737L51.966 346.206L52.0163 335.728L52.4688 336.15C50.2764 336.15 48.0839 336.15 45.8814 336.094L39.2637 335.991L25.8373 335.728Z" fill="#EBEBEB"/>
<path d="M11.0228 322.517L24.2179 322.255L30.916 322.152C33.1588 322.105 35.4015 322.152 37.6543 322.105H38.0969V322.527L38.1572 333.004V333.472H37.6543L24.3386 333.416C19.8933 333.416 15.458 333.313 11.0228 333.266H10.7412V333.013C10.7412 331.234 10.8317 329.474 10.872 327.723L11.0228 322.517ZM11.0228 322.517L11.1636 327.817C11.1636 329.558 11.2742 331.281 11.2944 332.995L11.0228 332.742C15.458 332.695 19.8933 332.592 24.3386 332.592L37.6543 332.526L37.1515 332.995V322.517L37.6041 322.939C35.4015 322.939 33.2191 322.939 31.0166 322.883L24.3989 322.78L11.0228 322.517Z" fill="#EBEBEB"/>
<path d="M388.732 335.719L401.937 335.457L408.635 335.354C410.878 335.354 413.121 335.354 415.363 335.298H415.816V335.719L415.866 346.196V346.665H415.323L402.007 346.608C397.572 346.608 393.137 346.496 388.692 346.449H388.42V346.196C388.42 344.417 388.511 342.648 388.551 340.906L388.732 335.719ZM388.732 335.719L388.883 341.009C388.883 342.76 388.993 344.483 389.013 346.196L388.732 345.944C393.177 345.944 397.612 345.794 402.048 345.784L415.363 345.728L414.871 346.196L414.921 335.719L415.363 336.141C413.171 336.141 410.989 336.141 408.786 336.084L402.168 335.981L388.732 335.719Z" fill="#EBEBEB"/>
<path d="M289.92 128.638L276.725 128.9L270.027 129.003C267.784 129.05 265.541 129.003 263.288 129.06H262.846V128.638L262.785 118.161V117.693H263.288L276.604 117.749C281.049 117.749 285.484 117.861 289.92 117.908H290.201V118.161C290.201 119.94 290.111 121.71 290.071 123.451L289.92 128.638ZM289.92 128.638L289.779 123.348C289.779 121.597 289.668 119.874 289.648 118.161L289.92 118.414C285.484 118.414 281.049 118.564 276.604 118.573L263.288 118.629L263.791 118.161L263.741 128.638L263.288 128.217C265.491 128.217 267.673 128.217 269.876 128.273L276.493 128.376L289.92 128.638Z" fill="#EBEBEB"/>
<path d="M275.065 141.85L261.87 142.112L255.172 142.215C252.929 142.215 250.676 142.215 248.434 142.271H247.991V141.85L247.931 131.372V130.904H248.434L261.749 130.96C266.195 130.96 270.63 131.073 275.065 131.12H275.347V131.372C275.347 133.151 275.256 134.921 275.206 136.663L275.065 141.85ZM275.065 141.85L274.924 136.56C274.924 134.809 274.814 133.086 274.794 131.372L275.065 131.625C270.63 131.672 266.195 131.775 261.749 131.784L248.434 131.841L248.936 131.372L248.886 141.85L248.434 141.428C250.626 141.428 252.819 141.428 255.021 141.484L261.639 141.587L275.065 141.85Z" fill="#EBEBEB"/>
<path d="M39.344 406.812H137.885V308.042H39.344L39.344 406.812Z" fill="#EBEBEB"/>
<path d="M34.5668 308.052H142.662V303.342H34.5668V308.052Z" fill="#DBDBDB"/>
<path d="M0.573654 308.052H34.5671V303.342H0.573654V308.052Z" fill="#EBEBEB"/>
<path d="M5.95388 406.812H39.3439L39.3439 308.042H5.95388L5.95388 406.812Z" fill="#DBDBDB"/>
<path d="M50.0749 366.692H127.154V326.234H50.0749V366.692Z" stroke="#C7C7C7" stroke-width="0.211602" stroke-miterlimit="10"/>
<path d="M84.3602 346.074H99.4158V338.022H84.3602V346.074Z" fill="#C7C7C7"/>
<path d="M79.9048 345.466H94.9605V338.621H79.9048V345.466Z" stroke="#C7C7C7" stroke-width="0.211602" stroke-miterlimit="10"/>
<path d="M397.773 311.141C380.807 326.609 377.961 350.531 381.541 371.486C381.631 371.963 382.416 371.832 382.416 371.383C382.416 366.617 382.265 361.889 382.275 357.179C382.376 356.964 382.446 356.758 382.547 356.542C386.972 353.546 391.045 350.157 393.61 345.513C396.436 340.326 397.552 334.474 399.724 329.053C399.925 328.538 399.332 328.688 398.94 328.959C388.621 336.047 385.332 343.668 382.366 353.865C382.422 348.544 383.018 343.239 384.146 338.023C386.368 328.351 390.783 318.763 398.226 311.591C398.507 311.282 398.065 310.87 397.773 311.141Z" fill="#1E1E1E"/>
<path d="M400.962 312.948C403.888 313.033 405.709 317.377 408.002 318.65C408.24 318.832 408.517 318.964 408.814 319.038C409.111 319.113 409.422 319.128 409.726 319.083C410.03 319.038 410.32 318.934 410.577 318.777C410.835 318.62 411.054 318.414 411.22 318.173C413.473 315.252 410.385 311.619 407.469 309.615C409.55 310.411 411.28 311.806 413.503 312.209C413.79 312.294 414.093 312.322 414.392 312.29C414.691 312.258 414.98 312.166 415.238 312.022C415.496 311.877 415.718 311.683 415.889 311.452C416.06 311.221 416.175 310.959 416.228 310.682C417.234 306.684 411.843 304.915 408.183 304.831C409.973 303.67 415.102 300.524 412.376 298.969C409.651 297.415 403.597 301.919 401.635 303.407C398.749 305.58 395.309 308.838 395.179 312.246C394.977 316.225 398.719 313.782 400.962 312.948Z" fill="#FF5859"/>
<path opacity="0.1" d="M400.962 312.948C403.888 313.033 405.709 317.377 408.002 318.65C408.24 318.832 408.517 318.964 408.814 319.038C409.111 319.113 409.422 319.128 409.726 319.083C410.03 319.038 410.32 318.934 410.577 318.777C410.835 318.62 411.054 318.414 411.22 318.173C413.473 315.252 410.385 311.619 407.469 309.615C409.55 310.411 411.28 311.806 413.503 312.209C413.79 312.294 414.093 312.322 414.392 312.29C414.691 312.258 414.98 312.166 415.238 312.022C415.496 311.877 415.718 311.683 415.889 311.452C416.06 311.221 416.175 310.959 416.228 310.682C417.234 306.684 411.843 304.915 408.183 304.831C409.973 303.67 415.102 300.524 412.376 298.969C409.651 297.415 403.597 301.919 401.635 303.407C398.749 305.58 395.309 308.838 395.179 312.246C394.977 316.225 398.719 313.782 400.962 312.948Z" fill="black"/>
<path d="M400.117 313.613C403.848 312.04 411.019 314.306 411.632 312.995C412.869 310.317 407.137 308.482 404.049 308.126C406.895 307.405 412.346 306.254 412.185 303.707C411.974 300.58 403.818 303.267 399.684 306.216C394.475 309.962 394.505 313.519 395.37 314.24C396.546 315.224 399.503 313.875 400.117 313.613Z" fill="#FF5859"/>
<path d="M359.133 309.615C376.724 324.465 380.545 348.275 377.83 369.341C377.749 369.819 376.955 369.716 376.945 369.267C376.744 364.501 376.703 359.773 376.502 355.063L376.211 354.436C371.665 351.627 367.461 348.359 364.745 343.809C361.728 338.725 360.35 332.92 357.967 327.583C357.746 327.068 358.339 327.199 358.741 327.452C369.342 334.165 372.942 341.674 376.321 351.795C376.039 346.474 375.22 341.189 373.877 336.009C371.252 326.422 366.455 317.003 358.701 310.093C358.409 309.784 358.832 309.344 359.133 309.615Z" fill="#1E1E1E"/>
<path d="M355.986 311.525C353.069 311.722 351.42 316.123 349.197 317.471C348.967 317.661 348.696 317.804 348.402 317.89C348.108 317.976 347.798 318.003 347.492 317.969C347.186 317.936 346.891 317.842 346.627 317.695C346.363 317.548 346.135 317.35 345.958 317.115C343.585 314.306 346.532 310.561 349.348 308.426C347.336 309.297 345.637 310.758 343.414 311.235C343.131 311.333 342.83 311.372 342.529 311.352C342.228 311.331 341.936 311.251 341.672 311.116C341.408 310.981 341.178 310.795 340.998 310.57C340.818 310.345 340.692 310.086 340.628 309.812C339.472 305.861 344.782 303.895 348.463 303.679C346.622 302.584 341.372 299.616 344.027 297.977C346.683 296.339 352.968 300.571 354.98 302.013C357.947 304.091 361.527 307.218 361.789 310.626C362.13 314.615 358.299 312.284 355.986 311.525Z" fill="#FF5859"/>
<path opacity="0.1" d="M355.986 311.525C353.069 311.722 351.42 316.123 349.197 317.471C348.967 317.661 348.696 317.804 348.402 317.89C348.108 317.976 347.798 318.003 347.492 317.969C347.186 317.936 346.891 317.842 346.627 317.695C346.363 317.548 346.135 317.35 345.958 317.115C343.585 314.306 346.532 310.561 349.348 308.426C347.336 309.297 345.637 310.758 343.414 311.235C343.131 311.333 342.83 311.372 342.529 311.352C342.228 311.331 341.936 311.251 341.672 311.116C341.408 310.981 341.178 310.795 340.998 310.57C340.818 310.345 340.692 310.086 340.628 309.812C339.472 305.861 344.782 303.895 348.463 303.679C346.622 302.584 341.372 299.616 344.027 297.977C346.683 296.339 352.968 300.571 354.98 302.013C357.947 304.091 361.527 307.218 361.789 310.626C362.13 314.615 358.299 312.284 355.986 311.525Z" fill="black"/>
<path d="M356.891 312.162C353.099 310.72 346.029 313.248 345.365 311.956C344.018 309.325 349.67 307.275 352.747 306.816C349.871 306.198 344.37 305.252 344.43 302.687C344.51 299.56 352.777 301.956 357.032 304.756C362.382 308.286 362.503 311.872 361.668 312.621C360.532 313.679 357.514 312.406 356.891 312.162Z" fill="#FF5859"/>
<path d="M377.106 348.836C378.294 356.779 380.119 364.629 382.567 372.318C382.599 372.47 382.694 372.603 382.832 372.689C382.969 372.775 383.138 372.807 383.301 372.777C383.464 372.747 383.607 372.659 383.699 372.531C383.792 372.402 383.826 372.245 383.794 372.094C382.647 364.856 380.535 357.75 379.379 350.512C378.121 343.19 377.669 335.767 378.031 328.359C378.775 316.187 382.325 303.192 390.874 293.651C391.065 293.426 390.663 293.108 390.472 293.314C373.374 311.89 376.08 334.67 376.1 336.711C373.676 329.015 371.182 320.204 362.02 312.367C361.628 312.03 361.316 312.199 361.386 312.77C363.025 327.03 367.28 334.483 376.17 342.104C376.425 344.376 376.737 346.62 377.106 348.836Z" fill="#1E1E1E"/>
<path d="M391.045 295.786C394.123 294.513 398.367 298.164 401.414 298.417C403.023 298.548 404.22 297.958 404.502 296.413C405.256 292.322 400.097 290.018 395.983 289.288C398.568 289.138 401.112 289.784 403.657 289.138C404.001 289.094 404.331 288.982 404.625 288.809C404.919 288.636 405.169 288.407 405.36 288.136C405.55 287.866 405.677 287.56 405.73 287.24C405.783 286.921 405.762 286.594 405.668 286.283C404.532 281.676 397.995 282.35 394.113 283.998C395.35 281.957 398.96 276.283 395.299 275.955C391.638 275.628 387.787 283.127 386.55 285.59C384.729 289.204 382.929 294.194 384.629 297.762C386.61 302.003 389.174 297.705 391.045 295.786Z" fill="#FF5859"/>
<path opacity="0.1" d="M391.045 295.786C394.123 294.513 398.367 298.164 401.414 298.417C403.023 298.548 404.22 297.958 404.502 296.413C405.256 292.322 400.097 290.018 395.983 289.288C398.568 289.138 401.112 289.784 403.657 289.138C404.001 289.094 404.331 288.982 404.625 288.809C404.919 288.636 405.169 288.407 405.36 288.136C405.55 287.866 405.677 287.56 405.73 287.24C405.783 286.921 405.762 286.594 405.668 286.283C404.532 281.676 397.995 282.35 394.113 283.998C395.35 281.957 398.96 276.283 395.299 275.955C391.638 275.628 387.787 283.127 386.55 285.59C384.729 289.204 382.929 294.194 384.629 297.762C386.61 302.003 389.174 297.705 391.045 295.786Z" fill="black"/>
<path d="M390.532 296.881C393.549 293.492 402.209 292.49 402.138 290.842C401.967 287.481 395.028 288.267 391.628 289.344C394.203 287.265 399.242 283.52 397.663 280.917C395.762 277.771 388.742 284.382 386.047 289.344C382.657 295.645 384.629 299.344 385.916 299.69C387.696 300.224 390.029 297.443 390.532 296.881Z" fill="#FF5859"/>
<path d="M365.862 353.134L358.309 406.812H404.26C403.315 402.056 394.766 353.069 394.766 353.069L365.862 353.134Z" fill="#FF5859"/>
<path d="M6.10352e-05 406.821L53.2933 406.587L106.587 406.503L213.173 406.353L319.76 406.503L373.053 406.587L426.346 406.821L373.053 407.046L319.76 407.13L213.173 407.28L106.587 407.13L53.2933 407.046L6.10352e-05 406.821Z" fill="#1E1E1E"/>
<path d="M152.498 63.3785H24.9218V218.176H152.498V63.3785Z" fill="#1E1E1E"/>
<path d="M141.103 162.701H36.3065L88.7046 77.2075L141.103 162.701Z" fill="#FF5859"/>
<path d="M133.56 158.656H43.8597L88.7049 85.4751L133.56 158.656ZM47.3194 156.783H130.09L88.7049 89.2577L47.3194 156.783Z" fill="#1E1E1E"/>
<path d="M84.3802 134.556V107.487H93.0395V134.556H84.3802ZM84.3802 150.613V141.531H93.0395V150.613H84.3802Z" fill="#1E1E1E"/>
<path d="M41.4459 174.695H43.7189L48.7475 186.998H46.1024L44.8755 183.936H40.2592L39.0423 186.998H36.3972L41.4459 174.695ZM44.4631 182.251L42.6327 177.41L40.7319 182.251H44.4631Z" fill="white"/>
<path d="M58.7845 176.792H54.5605V186.998H52.006V176.792H47.7819V174.695H58.7845V176.792Z" fill="white"/>
<path d="M70.36 176.792H66.136V186.998H63.5814V176.792H59.2971V174.695H70.36V176.792Z" fill="white"/>
<path d="M81.1316 184.9V186.998H71.9493V174.695H81.0008V176.792H74.5542V179.788H80.1259V181.661H74.5542V184.863L81.1316 184.9Z" fill="white"/>
<path d="M85.7076 179.114V186.998H83.143V174.695H85.1545L92.0436 182.775V174.714H94.6082V186.998H92.4862L85.7076 179.114Z" fill="white"/>
<path d="M107.23 176.792H103.006V186.998H100.462V176.792H96.2276V174.695H107.23V176.792Z" fill="white"/>
<path d="M108.869 186.998V174.695H111.444V186.998H108.869Z" fill="white"/>
<path d="M119.842 187.091C118.931 187.103 118.03 186.921 117.207 186.558C116.445 186.216 115.761 185.739 115.196 185.153C114.626 184.567 114.179 183.888 113.878 183.15C113.576 182.414 113.42 181.634 113.415 180.846C113.416 180.038 113.583 179.237 113.908 178.487C114.23 177.752 114.69 177.077 115.266 176.492C115.854 175.917 116.554 175.45 117.328 175.116C118.139 174.773 119.021 174.597 119.912 174.601C120.818 174.592 121.714 174.781 122.527 175.154C123.293 175.502 123.977 175.989 124.539 176.586C125.103 177.174 125.546 177.853 125.846 178.59C126.309 179.701 126.427 180.91 126.187 182.081C125.947 183.251 125.358 184.335 124.488 185.209C123.92 185.783 123.237 186.247 122.477 186.576C121.65 186.926 120.75 187.102 119.842 187.091ZM116 180.846C116 181.371 116.088 181.892 116.262 182.391C116.431 182.868 116.686 183.314 117.016 183.711C117.349 184.098 117.763 184.416 118.233 184.648C118.744 184.879 119.304 184.999 119.872 184.999C120.44 184.999 121.001 184.879 121.511 184.648C121.977 184.414 122.388 184.096 122.718 183.711C123.05 183.313 123.302 182.863 123.463 182.382C123.811 181.393 123.811 180.327 123.463 179.339C123.296 178.862 123.037 178.418 122.698 178.028C122.373 177.639 121.961 177.32 121.491 177.092C120.981 176.863 120.423 176.745 119.857 176.745C119.291 176.745 118.733 176.863 118.223 177.092C117.753 177.319 117.341 177.638 117.016 178.028C116.684 178.422 116.432 178.87 116.272 179.348C116.101 179.832 116.01 180.337 116 180.846Z" fill="white"/>
<path d="M130.844 179.114V186.998H128.28V174.695H130.291L137.18 182.775V174.714H139.755V186.998H137.643L130.844 179.114Z" fill="white"/>
<path d="M55.7974 204.357V192.054H61.3993C61.9848 192.046 62.564 192.168 63.0889 192.41C63.5938 192.637 64.0451 192.955 64.4165 193.346C64.7886 193.732 65.0848 194.175 65.2914 194.657C65.4962 195.13 65.602 195.635 65.6032 196.145C65.6061 196.663 65.5072 197.177 65.3116 197.662C65.1176 198.138 64.835 198.579 64.4768 198.964C64.1128 199.354 63.6682 199.673 63.1694 199.9C62.6444 200.131 62.0705 200.249 61.4898 200.246H58.362V204.366L55.7974 204.357ZM58.362 198.14H61.3792C61.607 198.14 61.8317 198.091 62.0359 197.997C62.24 197.902 62.4179 197.766 62.5559 197.597C62.8948 197.181 63.0625 196.666 63.0286 196.145C63.0342 195.858 62.9831 195.573 62.8777 195.303C62.7964 195.069 62.6665 194.853 62.4955 194.666C62.3388 194.499 62.1426 194.367 61.9223 194.282C61.7145 194.192 61.4875 194.148 61.2585 194.151H58.362V198.14Z" fill="white"/>
<path d="M67.3935 204.357V192.054H69.9681V202.259H76.7065V204.357H67.3935Z" fill="white"/>
<path d="M87.4575 202.259V204.357H78.2752V192.054H87.3267V194.151H80.88V197.11H86.4517V199.057H80.88V202.259H87.4575Z" fill="white"/>
<path d="M93.2204 192.054H95.5033L100.532 204.357H97.8869L96.6499 201.323H92.0336L90.8167 204.385H88.1716L93.2204 192.054ZM96.2375 199.61L94.3568 194.769L92.4862 199.61H96.2375Z" fill="white"/>
<path d="M109.644 195.275C109.5 195.149 109.341 195.04 109.171 194.947C108.903 194.792 108.624 194.655 108.336 194.535C107.987 194.399 107.627 194.286 107.26 194.198C106.879 194.108 106.487 194.064 106.094 194.067C105.537 194.026 104.981 194.151 104.505 194.423C104.335 194.543 104.199 194.699 104.108 194.878C104.017 195.057 103.974 195.254 103.982 195.452C103.974 195.676 104.045 195.896 104.183 196.08C104.333 196.264 104.525 196.414 104.746 196.52C105.046 196.668 105.363 196.784 105.691 196.866C106.064 196.979 106.506 197.082 106.999 197.203C107.595 197.346 108.182 197.518 108.759 197.718C109.244 197.883 109.698 198.117 110.107 198.411C110.464 198.683 110.752 199.025 110.951 199.413C111.162 199.861 111.262 200.347 111.243 200.836C111.261 201.422 111.127 202.004 110.851 202.531C110.592 202.984 110.219 203.373 109.765 203.664C109.291 203.963 108.763 204.179 108.206 204.3C107.596 204.433 106.971 204.499 106.345 204.497C105.35 204.495 104.36 204.356 103.408 204.085C102.479 203.822 101.6 203.424 100.804 202.905L101.94 200.836C102.123 200.996 102.325 201.134 102.543 201.248C102.867 201.437 103.203 201.606 103.549 201.754C103.973 201.932 104.414 202.073 104.867 202.175C105.354 202.288 105.853 202.344 106.355 202.344C107.773 202.344 108.477 201.922 108.477 201.08C108.484 200.836 108.398 200.597 108.236 200.405C108.047 200.201 107.814 200.035 107.552 199.919C107.203 199.763 106.839 199.638 106.466 199.544L105.058 199.16C104.493 199.024 103.942 198.846 103.408 198.627C102.982 198.464 102.587 198.236 102.242 197.952C101.936 197.694 101.699 197.374 101.548 197.016C101.378 196.627 101.295 196.21 101.306 195.79C101.298 195.218 101.425 194.653 101.679 194.132C101.91 193.661 102.254 193.245 102.684 192.915C103.143 192.581 103.665 192.33 104.223 192.175C104.833 192.003 105.467 191.918 106.104 191.923C106.982 191.915 107.854 192.055 108.678 192.335C109.387 192.571 110.062 192.885 110.69 193.271L109.644 195.275Z" fill="white"/>
<path d="M122.366 202.259V204.357H113.184V192.054H122.235V194.151H115.789V197.11H121.36V199.057H115.789V202.259H122.366Z" fill="white"/>
<path d="M30.6041 73.0598C31.8594 73.0598 32.877 72.1124 32.877 70.9438C32.877 69.7751 31.8594 68.8278 30.6041 68.8278C29.3488 68.8278 28.3312 69.7751 28.3312 70.9438C28.3312 72.1124 29.3488 73.0598 30.6041 73.0598Z" fill="white"/>
<path d="M149.088 68.1161C149.088 68.5443 148.952 68.9628 148.696 69.3187C148.44 69.6746 148.077 69.9518 147.652 70.1152C147.227 70.2786 146.759 70.3209 146.308 70.2367C145.857 70.1525 145.443 69.9456 145.119 69.6421C144.794 69.3387 144.574 68.9525 144.485 68.5323C144.397 68.1121 144.444 67.677 144.621 67.2819C144.799 66.8869 145.098 66.5497 145.482 66.3132C145.865 66.0767 146.315 65.9514 146.775 65.9533C147.08 65.9533 147.381 66.0093 147.663 66.1181C147.944 66.2269 148.199 66.3864 148.414 66.5873C148.629 66.7883 148.799 67.0268 148.915 67.2891C149.031 67.5515 149.089 67.8325 149.088 68.1161Z" fill="white"/>
<path d="M30.6041 215.592C31.8594 215.592 32.877 214.645 32.877 213.476C32.877 212.307 31.8594 211.36 30.6041 211.36C29.3488 211.36 28.3312 212.307 28.3312 213.476C28.3312 214.645 29.3488 215.592 30.6041 215.592Z" fill="white"/>
<path d="M144.502 215.592C145.757 215.592 146.775 214.645 146.775 213.476C146.775 212.307 145.757 211.36 144.502 211.36C143.247 211.36 142.229 212.307 142.229 213.476C142.229 214.645 143.247 215.592 144.502 215.592Z" fill="white"/>
<path d="M297.754 68.9868C299.977 70.0636 302.149 71.2339 304.302 72.423C306.454 73.6121 308.566 74.8574 310.678 76.1027C312.79 77.3479 314.872 78.6494 316.923 79.9883L319.941 82.0013C320.946 82.7036 321.952 83.3777 322.958 84.108C321.831 83.5837 320.745 82.9938 319.649 82.4414L316.41 80.6718C314.248 79.4921 312.136 78.2468 310.024 76.9921C307.912 75.7375 305.83 74.4454 303.789 73.1065C301.747 71.7676 299.725 70.4287 297.754 68.9868Z" fill="#1E1E1E"/>
<path d="M325.291 133.47C322.736 134.603 320.132 135.633 317.527 136.634C314.922 137.636 312.297 138.601 309.662 139.546C307.027 140.492 304.372 141.419 301.697 142.215L297.674 143.479C296.326 143.853 294.988 144.275 293.651 144.63C294.928 144.05 296.226 143.535 297.513 142.992L301.415 141.456C304.01 140.436 306.645 139.499 309.28 138.554C311.915 137.608 314.57 136.681 317.245 135.885C319.92 135.09 322.575 134.2 325.291 133.47Z" fill="#1E1E1E"/>
<path d="M272.4 133.62C276.423 132.59 280.446 131.672 284.469 130.811C288.492 129.949 292.514 129.069 296.608 128.245C300.701 127.421 304.714 126.644 308.797 125.923L314.912 124.846C316.923 124.528 318.995 124.172 321.047 123.91C319.035 124.434 317.024 124.893 315.013 125.38L308.978 126.747C304.955 127.683 300.932 128.479 296.839 129.303C292.746 130.127 288.733 130.904 284.65 131.625C280.567 132.346 276.534 133.02 272.4 133.62Z" fill="#1E1E1E"/>
<path d="M275.166 73.8182C279.078 75.2695 282.93 76.8331 286.782 78.4155C290.634 79.9978 294.456 81.6176 298.277 83.2655C302.099 84.9134 305.891 86.5987 309.652 88.3402L315.304 90.9525C317.175 91.8888 319.056 92.7408 320.906 93.6771C318.945 92.9561 317.014 92.1697 315.073 91.4206L309.29 89.0799C305.428 87.5069 301.616 85.8684 297.795 84.2205C293.973 82.5726 290.181 80.8873 286.42 79.1458C282.658 77.4043 278.877 75.6627 275.166 73.8182Z" fill="#1E1E1E"/>
<path d="M319.659 108.939C314.801 109.182 309.944 109.304 305.096 109.416C300.248 109.529 295.381 109.538 290.523 109.613C285.666 109.688 280.808 109.613 275.95 109.557L268.669 109.444C266.235 109.369 263.811 109.332 261.377 109.22C263.801 109.088 266.235 109.023 268.659 108.929L275.95 108.742C280.808 108.639 285.655 108.62 290.513 108.555C295.371 108.489 300.228 108.555 305.086 108.555C309.944 108.555 314.801 108.742 319.659 108.939Z" fill="#1E1E1E"/>
<path d="M426.346 0.955566H405.749V134.893H426.346V0.955566Z" fill="#FF5859"/>
<path d="M419.698 89.7351V127.037L390.904 130.249L346.673 153.169V63.5938L390.904 86.533L419.698 89.7351Z" fill="#FF5859"/>
<path d="M345.114 153.394C353.695 153.394 360.652 133.243 360.652 108.386C360.652 83.5292 353.695 63.3785 345.114 63.3785C336.532 63.3785 329.575 83.5292 329.575 108.386C329.575 133.243 336.532 153.394 345.114 153.394Z" fill="#FF5859"/>
<path opacity="0.2" d="M344.309 147.561C351.336 147.561 357.032 129.674 357.032 107.609C357.032 85.5445 351.336 67.6575 344.309 67.6575C337.283 67.6575 331.587 85.5445 331.587 107.609C331.587 129.674 337.283 147.561 344.309 147.561Z" fill="black"/>
<path d="M354.98 107.618C354.98 110.558 354.879 113.414 354.678 116.167C352.977 117.466 350.844 118.174 348.644 118.17C346.098 118.168 343.658 117.225 341.859 115.548C340.06 113.872 339.049 111.599 339.049 109.229V105.006C339.047 103.323 339.555 101.674 340.515 100.249C341.475 98.8234 342.848 97.6793 344.476 96.9485C346.104 96.2176 347.921 95.9296 349.717 96.1178C351.513 96.3059 353.215 96.9625 354.628 98.0119C354.839 101.139 354.98 104.304 354.98 107.618Z" fill="#FF5859"/>
<path d="M422.735 83.3123H402.048V132.187H422.735V83.3123Z" fill="#FF5859"/>
<path opacity="0.2" d="M422.735 83.3123H402.048V132.187H422.735V83.3123Z" fill="black"/>
<path opacity="0.2" d="M351.178 69.7361C353.444 72.4005 355.169 75.4275 356.267 78.6684C357.451 81.8489 358.366 85.1109 359.003 88.4246C359.365 90.0818 359.566 91.7578 359.827 93.4337C360.089 95.1097 360.22 96.7951 360.34 98.471C360.461 100.147 360.592 101.842 360.632 103.527C360.672 105.212 360.733 106.907 360.723 108.592C360.75 115.349 360.111 122.094 358.812 128.741C358.143 132.069 357.156 135.334 355.865 138.498C354.487 141.597 352.848 144.724 350.173 147.037C352.526 144.492 354.301 141.53 355.392 138.329C356.561 135.166 357.433 131.914 357.997 128.61C359.168 122.007 359.729 115.322 359.677 108.63C359.786 101.925 359.295 95.2224 358.208 88.5931C357.678 85.2804 356.868 82.0119 355.784 78.8182C354.828 75.5646 353.269 72.4913 351.178 69.7361Z" fill="black"/>
<path d="M255.222 407.552H174.251C172.632 391.26 171.104 375.605 169.796 362.123L169.585 360.035C167.262 336.094 165.683 319.559 165.683 319.559H243.123C243.129 319.63 243.129 319.702 243.123 319.774C243.586 323.042 249.077 362.825 255.222 407.552Z" fill="#37474F"/>
<path d="M186.018 407.552H184.812C182.7 388.882 180.785 370.178 179.069 351.44C178.918 349.764 178.757 348.078 178.596 346.393C178.063 340.616 177.54 334.811 177.027 329.034C177.027 328.856 177.299 328.856 177.329 329.034C177.902 334.156 178.465 339.258 179.009 344.38C179.196 346.253 179.394 348.125 179.602 349.998C181.674 369.201 183.725 388.386 186.018 407.552Z" fill="#1E1E1E"/>
<path d="M231.929 319.54L221.51 383.451L221.148 385.605V385.652L220.213 391.391L220.132 391.794L219.891 393.339L217.578 407.514H163.571C160.865 393.329 158.26 379.622 155.947 367.413C155.857 366.954 155.776 366.476 155.686 366.074C150.526 338.921 146.835 319.512 146.835 319.512L231.929 319.54Z" fill="#1E1E1E"/>
<path d="M243.183 319.474C243.183 319.474 243.183 319.558 243.183 319.755C242.57 323.5 235.902 363.452 224.829 389.678C224.759 389.893 224.668 390.099 224.567 390.324C224.567 390.324 223.009 390.773 220.193 391.812C219.096 392.215 217.799 392.749 216.321 393.31L214.732 393.975C211.634 395.267 207.923 396.934 203.669 399.059C203.557 399.102 203.45 399.152 203.347 399.209L203.025 399.368L201.748 400.024C201.748 400.071 201.748 400.23 201.748 400.483C201.667 401.484 201.466 403.928 201.174 407.523H124.639C129.607 360.709 134.153 319.446 134.153 319.446L243.183 319.474Z" fill="#37474F"/>
<path d="M142.712 330.597C140.61 356.261 138.578 381.925 136.376 407.552H135.37C137.697 381.91 139.943 356.264 142.108 330.616C142.098 330.223 142.772 330.223 142.712 330.597Z" fill="#1E1E1E"/>
<path d="M228.42 388.451C219.169 391.585 210.228 395.46 201.698 400.033C201.366 400.211 201.587 400.698 201.949 400.548C210.95 396.953 220.133 393.507 228.902 389.453C229.028 389.384 229.122 389.274 229.166 389.145C229.211 389.015 229.202 388.875 229.142 388.751C229.083 388.627 228.976 388.528 228.843 388.473C228.709 388.417 228.559 388.41 228.42 388.451Z" fill="#1E1E1E"/>
<path d="M231.276 330.953C231.276 330.663 230.713 330.598 230.713 330.907C230.783 340.859 230.099 349.633 229.204 358.911C228.782 363.228 225.05 387.075 217.015 385.343C215.667 385.053 215.003 383.817 214.772 381.925C214.521 379.65 215.436 376.869 215.838 374.613C216.733 369.613 217.447 364.604 217.91 359.557C218.84 350.168 218.729 340.715 217.578 331.347C217.566 331.291 217.534 331.242 217.487 331.206C217.441 331.17 217.382 331.151 217.321 331.151C217.261 331.151 217.202 331.17 217.156 331.206C217.109 331.242 217.077 331.291 217.065 331.347C217.065 344.389 216.703 357.394 214.611 370.306C213.605 376.514 210.246 385.849 217.226 386.804C224.206 387.759 228.912 372.132 229.777 367.853C232.201 355.924 232.282 343.032 231.276 330.953Z" fill="#1E1E1E"/>
<path d="M217.196 385.979C216.482 387.59 215.877 389.241 215.385 390.923C214.87 392.223 214.618 393.601 214.641 394.987C214.641 395.258 215.044 395.277 215.194 395.099C216.028 393.877 216.658 392.545 217.065 391.148C217.679 389.622 218.322 388.095 218.885 386.551C218.967 386.342 218.956 386.112 218.855 385.911C218.754 385.71 218.571 385.554 218.347 385.478C218.123 385.403 217.876 385.413 217.66 385.507C217.444 385.601 217.277 385.771 217.196 385.979Z" fill="#1E1E1E"/>
<path d="M180.849 338.753C180.862 337.711 180.747 336.671 180.507 335.653C180.495 335.623 180.473 335.596 180.445 335.577C180.416 335.558 180.381 335.548 180.346 335.548C180.311 335.548 180.277 335.558 180.248 335.577C180.219 335.596 180.197 335.623 180.185 335.653C179.952 336.53 179.823 337.428 179.803 338.331C179.692 339.352 179.542 340.382 179.431 341.412C179.19 343.509 178.797 345.59 178.254 347.638C177.239 351.524 175.116 355.082 172.109 357.937C169.129 360.67 165.603 362.833 161.73 364.304C157.416 366.008 152.87 366.645 148.404 367.862C148.367 367.874 148.335 367.899 148.315 367.93C148.295 367.962 148.287 367.999 148.293 368.036C148.299 368.072 148.318 368.106 148.348 368.131C148.377 368.155 148.415 368.17 148.455 368.171C153.405 368.154 158.305 367.248 162.887 365.503C166.943 364.091 170.633 361.899 173.718 359.07C176.805 356.149 178.972 352.496 179.984 348.509C180.499 346.457 180.789 344.361 180.849 342.254C180.929 341.088 180.929 339.919 180.849 338.753Z" fill="#1E1E1E"/>
<path d="M208.144 229.787C222.486 244.955 266.014 284.504 300.027 298.483C313.263 303.923 329.344 301.039 335.861 294.915C358.892 273.296 264.596 233.654 264.596 233.654C263.69 234.253 248.102 223.195 220.454 214.441C193.954 206.051 199.214 220.377 208.144 229.787Z" fill="#D3766A"/>
<path d="M274.029 235.629L264.746 282.781C264.746 282.781 222.707 248.85 208.064 231.762C192.807 213.973 196.287 204.469 226.388 215.649C256.037 226.603 274.029 235.629 274.029 235.629Z" fill="#FF5859"/>
<path d="M258.139 273.596C258.239 272.397 258.521 271.19 258.742 270.001C258.963 268.811 259.185 267.547 259.396 266.321C259.838 263.84 260.331 261.359 260.834 258.887C261.84 253.934 262.846 248.99 263.922 244.056C264.223 242.708 264.535 241.35 264.867 240.002C265.199 238.653 265.692 237.193 266.044 235.779C266.044 235.685 266.205 235.732 266.185 235.779C265.973 237.005 265.883 238.26 265.672 239.524C265.46 240.788 265.239 242.052 264.998 243.316C264.515 245.788 263.992 248.269 263.499 250.741C262.494 255.6 261.488 260.469 260.321 265.31C259.999 266.667 259.668 268.016 259.316 269.364C258.964 270.712 258.732 272.238 258.259 273.615C258.251 273.622 258.24 273.627 258.229 273.63C258.218 273.632 258.206 273.633 258.195 273.631C258.183 273.629 258.172 273.625 258.162 273.619C258.153 273.613 258.145 273.605 258.139 273.596Z" fill="#1E1E1E"/>
<path d="M267.221 270.188L264.746 282.781C264.746 282.781 222.697 248.849 208.064 231.771C203.156 226.032 200.189 221.163 199.425 217.577C211.232 226.669 248.886 255.834 267.221 270.188Z" fill="#1E1E1E"/>
<path d="M287.073 173.234C284.629 170.669 267.633 149.658 253.261 142.814C245.648 139.19 223.502 131.428 220.555 135.464C217.87 139.153 223.371 142.664 223.371 142.664C223.371 142.664 213.444 139.34 209.774 144.537C206.103 149.733 215.717 155.192 215.717 155.192C215.717 155.192 205.248 152.467 201.979 157.86C198.711 163.253 209.371 167.223 209.371 167.223C209.371 167.223 199.938 164.311 199.244 169.817C198.419 176.427 216.472 179.957 224.015 185.294C225.724 186.501 256.831 212.146 256.831 212.146L287.073 173.234Z" fill="#D3766A"/>
<path d="M209.422 167.616C222.687 170.238 228.007 173.524 237.582 182.195C237.763 182.372 238.085 182.148 237.904 181.951C229.365 172.663 223.331 167.644 209.532 166.97C208.848 166.942 208.788 167.448 209.422 167.616Z" fill="#1E1E1E"/>
<path d="M215.707 155.519C229.234 159.358 235.037 162.879 245.768 171.277C245.919 171.399 246.151 171.174 246.01 171.043C236.224 161.98 230.079 157.102 216.019 154.911C215.385 154.808 215.094 155.341 215.707 155.519Z" fill="#1E1E1E"/>
<path d="M223.874 143.085C236.687 147.692 243.224 151.287 252.517 160.688C252.56 160.73 252.619 160.756 252.682 160.76C252.745 160.765 252.807 160.747 252.856 160.71C252.905 160.674 252.938 160.621 252.948 160.563C252.958 160.505 252.944 160.446 252.909 160.397C244.431 149.948 236.305 145.417 224.065 142.739C223.23 142.561 223.069 142.795 223.874 143.085Z" fill="#1E1E1E"/>
<path d="M258.43 222.221C258.43 222.221 242.419 216.903 235.942 213.13C229.466 209.356 210.87 186.998 215.828 182.981C222.234 177.803 235.691 188.739 241.534 194.9C241.534 194.9 256.328 182.906 267.814 188.814C279.299 194.722 258.43 222.221 258.43 222.221Z" fill="#D3766A"/>
<path d="M218.121 182.101C227.615 181.296 234.726 189.844 240.871 195.424C240.957 195.511 241.066 195.576 241.185 195.615C241.305 195.654 241.434 195.665 241.559 195.648C241.685 195.63 241.804 195.585 241.907 195.515C242.009 195.445 242.092 195.353 242.148 195.247C248.705 190.565 259.416 185.884 267.693 188.327C267.738 188.335 267.784 188.327 267.824 188.307C267.864 188.286 267.896 188.254 267.913 188.215C267.931 188.176 267.933 188.132 267.921 188.091C267.908 188.051 267.881 188.015 267.844 187.99C259.356 184.245 248.434 188.084 241.595 193.608C235.389 187.794 227.857 179.517 218.111 182.035L218.121 182.101Z" fill="#1E1E1E"/>
<path d="M318.633 293.914C326.096 297.659 332.945 298.323 339.462 292.209C362.483 270.609 294.375 176.287 283.574 169.807C277.71 166.306 243.486 210.237 251.149 219.029C254.297 222.633 264.606 233.653 264.606 233.653C263.66 234.253 297.845 283.371 318.633 293.914Z" fill="#D3766A"/>
<path d="M309.441 288.314C307.852 286.62 306.424 284.822 304.915 283.052C303.406 281.283 301.898 279.551 300.379 277.781C297.432 274.27 294.345 270.806 291.428 267.295C285.521 260.266 279.752 253.138 274.12 245.91C272.541 243.878 270.962 241.846 269.403 239.805C267.844 237.764 266.114 235.741 264.565 233.653C264.394 233.429 264.032 233.653 264.193 233.916C265.471 235.788 266.657 237.801 267.955 239.702C269.252 241.603 270.59 243.447 271.978 245.32C274.659 249.009 277.435 252.651 280.305 256.246C285.987 263.437 291.931 270.45 298.217 277.219C299.987 279.092 301.837 280.965 303.648 282.837C305.458 284.71 307.49 286.507 309.34 288.399C309.38 288.474 309.511 288.399 309.441 288.314Z" fill="#1E1E1E"/>
<path d="M252.134 358.565L125.021 366.055C125.021 366.055 138.397 253.297 182.639 211.931C188.1 206.819 204.172 206.248 211.926 211.407C232.332 224.955 252.446 358.143 252.134 358.565Z" fill="#FF5859"/>
<path d="M231.97 257.276C229.257 258.634 226.67 260.2 224.236 261.958C222.818 262.969 221.45 264.046 220.123 265.169C219.771 265.46 219.429 265.759 219.117 266.059C217.528 267.435 215.989 268.868 214.47 270.328C211.333 273.306 208.195 276.414 204.323 278.821C202.398 280.043 200.276 280.972 198.037 281.573C195.8 282.154 193.478 282.403 191.158 282.313L187.728 281.995C186.612 281.77 185.496 281.498 184.389 281.255C183.283 281.011 182.247 280.515 181.181 280.131C180.115 279.748 179.17 279.195 178.164 278.699C174.656 276.712 171.296 274.507 168.107 272.098L167.161 271.433L166.487 270.965C163.202 268.565 159.612 266.553 155.797 264.973C154.175 264.321 152.492 263.813 150.768 263.456L151.311 262.136C153.039 262.592 154.722 263.187 156.34 263.915C160.097 265.707 163.638 267.87 166.9 270.366L167.634 270.899L168.479 271.508C171.652 273.948 175.036 276.14 178.596 278.062C182.454 280.108 186.819 281.18 191.258 281.171C193.434 281.176 195.596 280.86 197.665 280.234C199.714 279.58 201.649 278.65 203.407 277.472C206.958 275.122 209.935 272.014 213.032 268.989C214.239 267.8 215.466 266.611 216.723 265.45C217.005 265.188 217.286 264.926 217.568 264.682C219.267 263.126 221.049 261.651 222.908 260.263C225.583 258.29 228.452 256.556 231.477 255.085L231.97 257.276ZM242.922 305.028C240.812 304.808 238.689 304.724 236.566 304.775C231.974 304.871 227.416 305.529 223.009 306.732C218.663 307.968 214.421 309.502 210.317 311.319C206.213 313.014 202.201 314.849 197.956 315.767C196.86 316.001 195.748 316.167 194.627 316.263C194.336 316.263 194.044 316.263 193.752 316.319C190.824 316.448 187.901 315.972 185.194 314.924C181.085 313.368 177.486 310.837 174.754 307.584C173.287 305.89 171.944 304.107 170.731 302.247C170.43 301.797 170.138 301.348 169.857 300.898C169.052 299.634 168.267 298.352 167.483 297.078C165.353 293.358 162.801 289.862 159.87 286.648L159.467 286.255C158.942 285.717 158.388 285.205 157.808 284.719C155.134 282.43 152.05 280.596 148.696 279.298C147.541 278.859 146.359 278.484 145.156 278.174C144.965 278.755 144.764 279.326 144.573 279.907C145.743 280.177 146.895 280.511 148.022 280.908C151.297 282.028 154.333 283.676 156.993 285.777C157.599 286.24 158.18 286.73 158.733 287.247L158.965 287.463C162.052 290.466 164.722 293.819 166.91 297.443C167.644 298.586 168.358 299.737 169.092 300.889L169.957 302.247C171.225 304.266 172.629 306.208 174.161 308.061C174.875 308.876 175.649 309.653 176.394 310.449C177.138 311.244 178.053 311.909 178.898 312.621C179.743 313.332 180.748 313.885 181.694 314.493L184.711 316.001C186.823 316.9 189.073 317.487 191.379 317.742C192.601 317.875 193.833 317.9 195.06 317.817C195.362 317.817 195.663 317.817 195.965 317.752C196.759 317.677 197.547 317.565 198.329 317.415C202.884 316.553 207.058 314.784 211.162 313.136C215.205 311.427 219.376 309.994 223.643 308.848C227.875 307.751 232.235 307.138 236.626 307.022C238.876 306.935 241.129 307.013 243.365 307.256C243.214 306.516 243.073 305.786 242.922 305.046V305.028ZM233.871 264.42C229.959 265.497 225.851 265.815 221.802 265.357C221.239 265.3 220.676 265.226 220.112 265.132C219.217 264.991 218.332 264.823 217.447 264.626C214.561 263.952 211.725 263.101 208.959 262.08C204.803 260.454 200.54 259.075 196.196 257.951C195.09 257.716 193.964 257.557 192.847 257.361C191.731 257.164 190.574 257.173 189.438 257.108C188.301 257.042 187.145 257.183 186.008 257.267L182.619 257.838C178.053 258.84 173.97 261.216 171.003 264.598C169.415 266.388 168.002 268.305 166.779 270.328C166.648 270.525 166.518 270.722 166.397 270.928C165.492 272.407 164.637 273.896 163.792 275.375C161.999 278.583 160.012 281.694 157.838 284.691L157.023 285.74L156.873 285.936C154.28 289.243 151.268 292.245 147.902 294.878C145.027 297.233 141.781 299.163 138.277 300.599C138.056 301.395 137.834 302.181 137.633 302.977C141.963 301.555 145.965 299.385 149.43 296.582C152.961 293.848 156.098 290.701 158.763 287.219L159.498 286.236C161.768 283.04 163.824 279.716 165.653 276.283C166.447 274.869 167.211 273.474 168.016 272.06L168.358 271.471C169.515 269.424 170.861 267.476 172.381 265.647C173.725 264.068 175.303 262.674 177.068 261.508C178.874 260.374 180.859 259.509 182.951 258.943C187.208 257.789 191.716 257.692 196.025 258.662C200.361 259.689 204.599 261.045 208.698 262.716C211.282 263.653 213.907 264.636 216.603 265.394C217.417 265.619 218.242 265.834 219.077 266.021C219.911 266.209 220.766 266.377 221.621 266.508C225.826 267.172 230.132 267.025 234.273 266.078C234.132 265.535 233.995 264.988 233.861 264.439L233.871 264.42ZM246.945 326.057L242.842 327.377C238.661 328.785 234.352 329.841 229.969 330.532C225.636 331.188 221.214 331.154 216.894 330.429C212.577 329.687 208.487 328.069 204.916 325.692C201.592 323.381 198.58 320.706 195.945 317.724L195.342 317.078L194.607 316.263C192.041 313.252 189.258 310.405 186.28 307.743C185.425 307.05 184.52 306.404 183.645 305.73C182.77 305.056 181.744 304.55 180.789 303.979C179.833 303.408 178.777 303.043 177.691 302.584L174.422 301.573C172.931 301.211 171.405 300.985 169.867 300.898H169.052C168.549 300.898 168.046 300.898 167.543 300.898C165.214 301.032 162.923 301.509 160.755 302.312C156.41 303.876 152.618 306.273 148.867 308.539C145.194 310.855 141.346 312.92 137.352 314.718C136.346 315.149 135.34 315.551 134.334 315.935C134.123 316.806 133.922 317.667 133.731 318.529C135.3 317.976 136.849 317.359 138.357 316.656C142.42 314.74 146.325 312.55 150.044 310.102C153.775 307.79 157.406 305.355 161.418 303.782C163.411 302.995 165.514 302.478 167.664 302.247C168.415 302.172 169.171 302.144 169.927 302.162H170.752C171.895 302.23 173.031 302.377 174.151 302.603C178.485 303.494 182.491 305.432 185.767 308.22C188.656 310.692 191.323 313.379 193.742 316.254L194.798 317.443L195.05 317.724C197.744 320.964 200.805 323.924 204.182 326.553C207.805 329.224 212.025 331.105 216.532 332.058C221.046 332.989 225.709 333.107 230.27 332.405C234.74 331.654 239.12 330.494 243.345 328.94C244.622 328.5 245.879 328.051 247.136 327.592L246.945 326.057Z" fill="white"/>
<path d="M210.629 230.788C203.186 231.949 191.339 220.751 186.964 211.997C186.672 211.397 188.05 205.349 189.368 197.952C190.142 193.449 190.886 188.411 191.218 183.767C191.278 182.831 221.993 192.756 221.993 192.756C221.993 192.756 218.202 202.259 217.709 210.358C217.677 210.983 217.704 211.61 217.789 212.231C217.8 212.337 217.8 212.443 217.789 212.549C218.202 216.304 217.819 229.655 210.629 230.788Z" fill="#D3766A"/>
<path d="M214.591 212.559C215.662 212.642 216.739 212.642 217.809 212.559C217.815 212.453 217.815 212.346 217.809 212.24C217.723 211.62 217.699 210.993 217.739 210.368C218.252 202.278 222.003 192.737 222.003 192.737C222.003 192.737 197.081 184.657 192.053 183.749C192.666 189.151 196.176 211.051 214.591 212.559Z" fill="#1E1E1E"/>
<path d="M179.451 157.177C178.546 167.954 191.218 195.958 200.481 200.864C213.907 207.999 232.442 205.125 238.064 190.827C243.525 176.97 226.318 140.754 216.29 136.625C201.526 130.53 180.799 141.241 179.451 157.177Z" fill="#D3766A"/>
<path d="M214.511 169.105C214.46 169.04 214.39 169.255 214.43 169.33C215.335 171.203 216.039 173.478 214.48 174.807C214.48 174.807 214.48 174.948 214.551 174.91C216.663 173.749 215.697 170.734 214.511 169.105Z" fill="#1E1E1E"/>
<path d="M211.815 167.832C208.456 168.862 210.92 175.06 214.038 174.105C217.156 173.15 214.641 166.97 211.815 167.832Z" fill="#1E1E1E"/>
<path d="M225.835 164.489C225.835 164.405 226.036 164.489 226.066 164.601C226.76 166.54 227.907 168.656 230.029 168.646C230.099 168.646 230.13 168.749 230.029 168.759C227.666 169.245 226.167 166.427 225.835 164.489Z" fill="#1E1E1E"/>
<path d="M226.881 161.849C230.099 160.472 232.825 166.53 229.838 167.841C226.851 169.152 224.176 163 226.881 161.849Z" fill="#1E1E1E"/>
<path d="M209.009 166.98C209.876 166.573 210.718 166.122 211.533 165.632C212.499 165.26 213.305 164.601 213.827 163.759C213.937 163.468 213.94 163.151 213.837 162.858C213.733 162.565 213.528 162.312 213.253 162.139C212.658 161.87 211.996 161.755 211.336 161.804C210.677 161.853 210.044 162.066 209.502 162.42C208.283 162.978 207.333 163.94 206.837 165.117C206.728 165.393 206.71 165.693 206.784 165.979C206.859 166.265 207.022 166.524 207.255 166.723C207.487 166.923 207.778 167.053 208.09 167.099C208.402 167.145 208.722 167.103 209.009 166.98Z" fill="#1E1E1E"/>
<path d="M227.253 155.913C226.293 156.053 225.327 156.147 224.357 156.194C223.349 156.425 222.287 156.336 221.339 155.941C221.067 155.767 220.863 155.513 220.762 155.22C220.66 154.927 220.665 154.611 220.776 154.321C221.095 153.778 221.563 153.324 222.132 153.005C222.701 152.686 223.35 152.513 224.015 152.505C225.354 152.3 226.727 152.567 227.867 153.254C228.116 153.423 228.308 153.657 228.418 153.926C228.528 154.194 228.552 154.487 228.487 154.769C228.422 155.05 228.271 155.308 228.052 155.511C227.833 155.714 227.555 155.853 227.253 155.913Z" fill="#1E1E1E"/>
<path d="M218.383 186.885C219.022 187.293 219.793 187.481 220.565 187.419C221.32 187.137 222.005 186.713 222.576 186.174C222.637 186.174 222.727 186.174 222.707 186.239C222.563 186.72 222.284 187.157 221.899 187.504C221.514 187.851 221.036 188.097 220.515 188.215C220.054 188.255 219.591 188.168 219.183 187.965C218.775 187.762 218.441 187.452 218.222 187.072C218.141 186.941 218.282 186.848 218.383 186.885Z" fill="#1E1E1E"/>
<path d="M218.262 180.397C219.088 180.975 220.033 181.388 221.039 181.61C222.044 181.833 223.088 181.859 224.105 181.689C224.995 181.549 225.859 181.29 226.67 180.921C226.832 180.867 226.988 180.794 227.132 180.706L227.555 180.491C227.658 180.432 227.738 180.344 227.784 180.239C227.829 180.135 227.837 180.019 227.806 179.91C227.781 179.844 227.747 179.781 227.706 179.723L227.635 179.554C227.092 178.066 226.036 175.875 226.036 175.875C226.73 175.94 230.18 176.165 229.818 175.407C226.871 169.152 223.582 162.205 219.227 156.568C219.199 156.53 219.157 156.502 219.108 156.491C219.06 156.48 219.008 156.486 218.964 156.508C218.92 156.53 218.887 156.567 218.87 156.611C218.854 156.655 218.856 156.703 218.875 156.746C221.46 162.86 225.171 168.506 227.927 174.601C226.692 174.508 225.45 174.578 224.236 174.807C224.035 174.948 226.348 179.021 226.529 179.704C226.536 179.729 226.536 179.755 226.529 179.779C223.984 181.015 221.681 180.959 218.423 180.182C218.202 180.097 218.081 180.285 218.262 180.397Z" fill="#1E1E1E"/>
<path d="M225.443 180.5C224.991 181.857 224.17 183.083 223.059 184.058C222.44 184.576 221.664 184.904 220.837 184.994C219.036 185.153 218.433 183.758 218.252 182.457C218.16 181.76 218.16 181.056 218.252 180.359C220.571 181.119 223.091 181.168 225.443 180.5Z" fill="#1E1E1E"/>
<path d="M223.059 184.058C222.44 184.576 221.664 184.904 220.837 184.994C219.036 185.153 218.433 183.758 218.252 182.457C220.082 181.998 222.275 182.513 223.059 184.058Z" fill="#FF97B8"/>
<path d="M213.636 144.34C213.12 146.174 212.11 147.855 210.702 149.224C209.295 150.594 207.535 151.607 205.59 152.167C201.708 153.254 196.941 152.542 193.964 149.883C193.873 149.808 193.742 149.939 193.833 150.014C197.011 152.823 201.517 154.358 205.902 153.038C207.937 152.383 209.751 151.241 211.163 149.728C212.575 148.215 213.535 146.382 213.947 144.415C213.958 144.376 213.952 144.336 213.93 144.301C213.908 144.267 213.873 144.242 213.832 144.232C213.79 144.222 213.746 144.228 213.71 144.248C213.673 144.269 213.646 144.301 213.636 144.34Z" fill="#1E1E1E"/>
<path d="M192.123 127.355C187.095 128.161 183.072 132.318 182.147 136.915C181.643 139.663 181.896 142.485 182.881 145.117C182.887 145.139 182.903 145.158 182.925 145.17C182.947 145.181 182.972 145.184 182.996 145.178C183.02 145.172 183.041 145.157 183.053 145.137C183.065 145.116 183.068 145.093 183.062 145.07C181.865 140.773 182.539 135.614 185.606 132.112C186.963 130.44 188.847 129.205 190.995 128.581C193.143 127.956 195.447 127.973 197.584 128.629C199.954 129.366 201.983 130.832 203.337 132.786C203.366 132.831 203.414 132.863 203.468 132.875C203.523 132.887 203.581 132.879 203.629 132.852C203.677 132.824 203.711 132.78 203.724 132.729C203.738 132.678 203.729 132.625 203.699 132.58C202.582 130.706 200.871 129.198 198.799 128.263C196.727 127.328 194.396 127.011 192.123 127.355Z" fill="#1E1E1E"/>
<path d="M230.884 122.459C228.508 120.184 225.344 118.764 221.953 118.452C217.256 118.002 213.324 120.156 209.462 122.365C209.451 122.371 209.442 122.379 209.435 122.389C209.428 122.398 209.422 122.409 209.42 122.42C209.417 122.432 209.416 122.443 209.419 122.455C209.421 122.466 209.425 122.477 209.432 122.487C209.438 122.497 209.447 122.505 209.457 122.512C209.467 122.519 209.479 122.524 209.491 122.526C209.503 122.529 209.515 122.529 209.528 122.527C209.54 122.525 209.552 122.521 209.562 122.515C212.851 120.642 216.311 118.92 220.273 119.004C223.547 119.055 226.701 120.156 229.204 122.122C231.688 124.186 233.291 127.014 233.72 130.088C234.148 133.162 233.374 136.277 231.537 138.863C230.438 140.324 229.03 141.561 227.399 142.498C225.768 143.435 223.949 144.052 222.053 144.312C221.903 144.312 221.893 144.546 222.053 144.527C224.665 144.266 227.146 143.333 229.22 141.833C231.294 140.333 232.878 138.325 233.794 136.034C234.711 133.743 234.924 131.259 234.41 128.861C233.896 126.464 232.675 124.247 230.884 122.459Z" fill="#1E1E1E"/>
<path d="M179.411 159.911C179.411 159.911 175.861 151.55 176.896 148.076C177.932 144.602 182.649 141.868 182.649 141.868C182.649 141.868 182.146 133.713 188.985 130.211C195.12 127.065 201.999 130.427 201.999 130.427C201.999 130.427 206.736 118.536 219.097 118.826C230.793 119.088 236.294 133.105 229.224 141.391C224.266 147.205 212.73 145.791 212.73 145.791C211.946 146.278 205.781 154.995 195.543 150.716C195.543 150.716 191.761 157.589 186.833 156.044C186.793 156.044 183.233 160.032 179.411 159.911Z" fill="#1E1E1E"/>
<path opacity="0.2" d="M182.197 148.647C183.937 152.945 188.794 165.257 188.452 168.553C188.11 171.848 187.607 180.331 186.27 181.483C181.996 172.448 178.988 162.617 179.451 157.139C179.72 154.161 180.655 151.269 182.197 148.647Z" fill="#1E1E1E"/>
<path d="M190.313 179.564C190.313 179.564 180.819 171.764 176.846 175.144C172.874 178.524 181.734 190.94 187.587 191.586C188.333 191.717 189.1 191.706 189.841 191.555C190.582 191.403 191.283 191.113 191.901 190.703C192.52 190.293 193.042 189.771 193.438 189.168C193.834 188.565 194.095 187.894 194.205 187.194L190.313 179.564Z" fill="#D3766A"/>
<path d="M179.481 178.646C179.391 178.646 179.401 178.777 179.481 178.787C183.615 179.358 186.451 182.157 188.714 185.219C187.255 184.17 185.546 183.805 183.997 185.472C183.916 185.556 184.047 185.678 184.148 185.631C184.764 185.279 185.483 185.115 186.204 185.162C186.926 185.209 187.613 185.465 188.171 185.893C189.091 186.604 189.928 187.404 190.665 188.281C190.926 188.552 191.49 188.281 191.268 187.915L191.208 187.841C190.122 183.346 184.751 177.916 179.481 178.646Z" fill="#1E1E1E"/>
<path d="M224.316 144.527C227.907 149.01 230.865 153.903 233.116 159.087C235.427 164.259 237.208 169.623 238.437 175.107C239.12 177.848 239.507 180.646 239.593 183.459C239.724 186.294 239.28 189.127 238.286 191.81C237.252 194.492 235.504 196.885 233.207 198.767C230.902 200.572 228.274 201.986 225.443 202.943C228.171 201.827 230.682 200.299 232.875 198.421C235.032 196.545 236.641 194.19 237.552 191.576C238.429 188.958 238.81 186.217 238.678 183.477C238.56 180.722 238.149 177.984 237.451 175.303C236.275 169.872 234.592 164.546 232.422 159.386C231.355 156.797 230.146 154.259 228.802 151.784C227.488 149.272 225.989 146.847 224.316 144.527Z" fill="#1E1E1E"/>
<path d="M162.092 230.517C134.726 264.738 89.0364 353.939 82.3282 367.047C77.7723 375.952 127.737 399.406 129.859 392.936C132.574 384.64 177.258 275.225 183.514 235.31C186.943 213.42 171.566 218.672 162.092 230.517Z" fill="#D3766A"/>
<path d="M131.207 388.451C130.05 396.522 124.167 412.795 119.782 415.239C115.397 417.682 92.3957 417.186 80.8098 417.186C69.2239 417.186 66.9308 414.18 67.1219 410.463C67.313 406.746 91.6414 406.035 91.6414 406.035C91.6414 406.035 59.1566 414.705 50.9801 416.128C42.8036 417.551 23.9865 421.961 21.261 415.65C20.034 412.842 25.1933 409.93 25.1933 409.93C25.1933 409.93 17.2884 412.083 16.0312 408.422C14.6031 404.265 20.8788 401.971 20.8788 401.971C20.8788 401.971 15.9508 402.907 15.8502 399.509C15.5988 391.925 46.4946 388.198 46.4946 388.198C46.4946 388.198 22.8198 398.928 22.0857 392.739C21.0799 384.182 69.5155 374.791 74.5643 371.064C78.2369 368.21 81.6729 365.102 84.8428 361.767L131.207 388.451Z" fill="#D3766A"/>
<path d="M67.3432 412.346C67.262 411.818 67.3193 411.28 67.5102 410.778C67.7011 410.276 68.02 409.824 68.4395 409.462C69.268 408.743 70.2242 408.163 71.2655 407.748C73.409 406.896 75.6305 406.226 77.9033 405.745C82.4793 404.668 87.156 403.872 91.8225 402.777C87.0031 402.708 82.1939 403.212 77.5111 404.275C75.1212 404.787 72.8196 405.606 70.6722 406.709C69.5669 407.283 68.5985 408.06 67.826 408.994C67.4419 409.466 67.1956 410.023 67.111 410.61C67.0264 411.198 67.1064 411.796 67.3432 412.346Z" fill="#1E1E1E"/>
<path d="M25.1934 409.93C28.5324 409.172 31.8211 408.291 35.1199 407.411C38.4187 406.531 41.6772 405.586 44.9458 404.668L54.7315 401.812C57.99 400.876 61.2586 399.94 64.5473 399.003C61.1282 399.354 57.738 399.917 54.3996 400.689C51.0505 401.4 47.7518 402.29 44.4631 403.217C41.1744 404.144 37.9359 405.174 34.7277 406.307C31.5194 407.439 28.3112 408.582 25.1934 409.93Z" fill="#1E1E1E"/>
<path d="M56.7027 391.448C53.5506 391.634 50.4176 392.038 47.3294 392.655C44.2384 393.235 41.1832 393.969 38.1773 394.856C35.1554 395.725 32.1902 396.756 29.2968 397.945C26.3924 399.105 23.5794 400.453 20.8789 401.981C23.8961 401.045 26.7825 399.949 29.7494 399.032C32.7163 398.114 35.663 397.159 38.65 396.307C41.637 395.455 44.624 394.612 47.6311 393.788C50.6382 392.964 53.6655 392.215 56.7027 391.448Z" fill="#1E1E1E"/>
<path d="M51.9256 384.229C46.8375 384.593 41.823 385.578 37.0107 387.159C32.1599 388.646 27.5433 390.727 23.2826 393.348C28.0899 391.756 32.7565 390.071 37.5337 388.592C42.3109 387.112 47.078 385.68 51.9256 384.229Z" fill="#1E1E1E"/>
<path d="M172.159 288.052L120.707 287.809C120.707 287.809 149.209 243.326 164.707 226.95C180.859 209.834 191.499 211.36 184.972 240.91C178.536 269.973 172.159 288.052 172.159 288.052Z" fill="#FF5859"/>
<path d="M129.215 280.15C130.503 280.038 131.82 280.084 133.118 280.075L137.14 280.028C139.846 280.028 142.551 280.028 145.257 280.028C150.657 280.084 156.068 280.122 161.469 280.262C162.957 280.262 164.486 280.337 165.934 280.412C167.383 280.487 169.042 280.674 170.601 280.749C170.701 280.749 170.681 280.88 170.601 280.89C169.263 280.89 167.926 281.04 166.578 281.068C165.23 281.096 163.832 281.114 162.454 281.114C159.759 281.114 157.054 281.114 154.348 281.04C149.028 280.946 143.698 280.88 138.377 280.684L133.922 280.506C132.373 280.45 130.774 280.506 129.235 280.281C129.222 280.277 129.21 280.269 129.2 280.258C129.191 280.247 129.185 280.235 129.183 280.221C129.181 280.208 129.183 280.194 129.189 280.181C129.194 280.169 129.204 280.158 129.215 280.15Z" fill="#1E1E1E"/>
<path d="M179.22 265.928C180.342 264.383 181.131 262.65 181.543 260.825C181.543 260.825 181.493 260.778 181.483 260.825C180.913 262.397 180.203 263.922 179.361 265.385C179.532 264.72 179.692 264.064 179.863 263.4C180.447 261.012 181.05 258.625 181.513 256.218C181.513 256.218 181.463 256.162 181.442 256.218C180.115 260.31 178.988 264.458 177.751 268.577C176.514 272.697 175.287 276.939 174.07 281.124C173.397 283.408 172.723 285.693 172.119 287.987C171.275 288.043 169.645 288.071 168.901 288.127C168.7 288.127 168.68 288.464 168.901 288.474C170.158 288.54 171.419 288.515 172.673 288.399C175.307 280.974 177.329 273.418 179.22 265.928Z" fill="#1E1E1E"/>
<path d="M182.871 213.898C185.957 220.488 190.859 226.202 197.081 230.461C200.132 232.648 203.702 234.121 207.491 234.758C209.482 235.115 211.541 234.919 213.414 234.196C215.158 233.31 216.627 232.02 217.679 230.451C218.905 228.721 219.841 226.826 220.454 224.833C221.174 222.614 221.719 220.348 222.084 218.055C222.084 218.037 222.091 218.021 222.104 218.008C222.118 217.996 222.135 217.989 222.154 217.989C222.173 217.989 222.191 217.996 222.204 218.008C222.217 218.021 222.225 218.037 222.225 218.055C221.883 220.227 221.742 222.418 221.219 224.562C220.792 226.469 220.092 228.315 219.137 230.049C218.211 231.713 216.915 233.175 215.335 234.337C213.638 235.495 211.565 236.077 209.462 235.985C205.389 235.826 201.447 234.603 198.087 232.455C194.74 230.405 191.76 227.877 189.257 224.965C186.41 221.668 184.18 217.949 182.659 213.963C182.589 213.823 182.81 213.766 182.871 213.898Z" fill="#1E1E1E"/>
</svg>
