<svg width="451" height="432" viewBox="0 0 451 432" fill="none" xmlns="http://www.w3.org/2000/svg">
<path d="M233.226 168.227L173.304 116.994L173.927 116.276L233.082 166.848L304.749 75.1881L332.952 95.6027L390.537 19.7017L391.303 20.2764L333.144 96.9247L304.931 76.5101L233.226 168.227Z" fill="#FF5859"/>
<path d="M25.3533 250.537C25.3533 251.18 25.1629 251.808 24.806 252.342C24.4492 252.876 23.942 253.292 23.3486 253.538C22.7552 253.784 22.1022 253.848 21.4722 253.723C20.8422 253.597 20.2636 253.288 19.8094 252.834C19.3552 252.38 19.0459 251.801 18.9206 251.171C18.7953 250.541 18.8596 249.888 19.1054 249.295C19.3512 248.701 19.7675 248.194 20.3015 247.837C20.8356 247.48 21.4635 247.29 22.1058 247.29C22.9671 247.29 23.7931 247.632 24.4022 248.241C25.0112 248.85 25.3533 249.676 25.3533 250.537Z" fill="#EBEBEB"/>
<path d="M391.217 25.5456C395.83 25.5456 399.57 21.8056 399.57 17.192C399.57 12.5784 395.83 8.83838 391.217 8.83838C386.603 8.83838 382.863 12.5784 382.863 17.192C382.863 21.8056 386.603 25.5456 391.217 25.5456Z" fill="#FF5859"/>
<path d="M395.298 14.3372C394.215 15.903 392.993 17.3682 391.648 18.7151L390.268 20.2096L390.125 20.3629L389.962 20.2383C388.938 19.5566 387.99 18.7665 387.136 17.8817C388.232 18.4354 389.269 19.0999 390.23 19.8647H389.923L391.274 18.3511C392.499 16.9009 393.845 15.5581 395.298 14.3372Z" fill="white"/>
<path d="M121.056 102.031C121.87 96.053 113.45 91.1481 107.117 90.6308C104.1 90.3913 100.967 90.8512 98.1027 89.8549C91.9045 87.6994 89.4808 79.6907 83.3881 77.1424C78.8664 75.2265 73.6549 76.9317 69.277 79.135C64.899 81.3384 60.5593 84.1165 55.664 84.4327C51.4106 84.7009 46.7835 83.1202 43.057 85.2086C40.2788 86.751 38.8227 89.9986 36.2649 91.8379C33.707 93.6772 30.517 94.0796 27.3939 94.252C24.2709 94.4244 21.0712 94.4532 18.2356 95.7465C15.4 97.0397 13.0721 100.029 13.6565 103.085L121.056 102.031Z" fill="#FFF4F4"/>
<path d="M343.1 38.9983C343.608 35.2718 338.358 32.2062 334.411 31.8901C332.495 31.7368 330.579 32.0242 328.788 31.4015C324.956 30.0603 323.375 25.0692 319.601 23.4694C316.784 22.2815 313.537 23.3449 310.807 24.7148C308.076 26.0847 305.365 27.8282 302.319 28.0198C299.656 28.1923 296.772 27.2055 294.444 28.5084C292.72 29.4664 291.81 31.4686 290.21 32.6469C288.549 33.6739 286.625 34.1933 284.673 34.1413C282.714 34.1041 280.766 34.4289 278.925 35.0993C277.162 35.904 275.706 37.7721 276.051 39.6785L343.1 38.9983Z" fill="#FBB8B8"/>
<path d="M417.293 86.2627C417.571 84.2605 414.745 82.6223 412.618 82.4308C411.602 82.4678 410.585 82.3777 409.591 82.1625C407.512 81.444 406.717 78.7521 404.657 77.8995C403.144 77.2576 401.391 77.8324 399.925 78.5701C398.459 79.3077 397.003 80.237 395.355 80.3423C393.928 80.4381 392.376 79.9113 391.131 80.6106C390.173 81.1279 389.713 82.2008 388.851 82.8331C387.957 83.3858 386.922 83.6655 385.871 83.6378C384.827 83.612 383.786 83.7843 382.806 84.1455C382.318 84.3345 381.905 84.6767 381.628 85.1207C381.352 85.5647 381.227 86.0865 381.273 86.6076L417.293 86.2627Z" fill="#F5F5F5"/>
<path d="M98.8689 34.6753C99.1372 32.6731 96.3111 31.0254 94.194 30.8433C93.1777 30.8804 92.1607 30.7903 91.1668 30.5751C89.0879 29.8566 88.2928 27.1647 86.2331 26.3121C84.71 25.6702 82.9664 26.245 81.5007 26.9827C80.035 27.7203 78.6268 28.6496 76.9311 28.7549C75.5037 28.8507 73.9518 28.3239 72.7064 29.0136C71.7484 29.5405 71.2886 30.6134 70.4264 31.2457C69.5322 31.7969 68.4972 32.0764 67.4471 32.0504C66.4023 32.0239 65.362 32.1962 64.3815 32.5581C63.8905 32.749 63.4747 33.0941 63.1966 33.5415C62.9184 33.9889 62.793 34.5145 62.8392 35.0393L98.8689 34.6753Z" fill="#FF5859"/>
<path d="M117.875 238.87L136.882 196.642L156.406 184.916L168.534 158.523L203.366 166.676L229.346 246.371L189.13 266.134L156.406 286.088L117.875 238.87Z" fill="#F5F5F5"/>
<path d="M450.257 361.252L415.875 292.622L399.963 268.806L381.206 182.061L358.617 163.275L335.922 194.888L304.922 202.61L276.336 229.951L333.872 291.003L367.785 326.764L394.273 376.235L445.113 424.297C444.596 423.827 450.257 361.252 450.257 361.252Z" fill="#FFF4F4"/>
<path d="M0.742737 430.274L4.24896 383.697L22.9775 354.584L35.2397 299.174L57.532 286.088L85.074 239.77L111.304 222.018L165.727 275.838L201.651 237.145L229.346 246.37L217.937 260.558L189.13 266.133L132.389 315.613L88.2641 339.936L76.5001 361.185L50.9698 364.921L0.742737 430.274Z" fill="#FFF4F4"/>
<path d="M131.986 282.745C130.444 284.939 127.446 284.211 126.057 282.87C124.667 281.529 124.083 279.584 123.547 277.725C122.33 273.482 121.094 269.037 122.004 264.716C122.222 263.403 122.799 262.176 123.671 261.172C124.11 260.677 124.671 260.307 125.299 260.099C125.926 259.89 126.597 259.851 127.244 259.984C128.758 260.386 129.697 261.9 130.377 263.27C132.372 267.423 133.42 271.968 133.443 276.576C133.581 278.731 133.074 280.879 131.986 282.745Z" fill="#FF5859"/>
<g opacity="0.2">
<path d="M131.986 282.745C130.444 284.939 127.446 284.211 126.057 282.87C124.667 281.529 124.083 279.584 123.547 277.725C122.33 273.482 121.094 269.037 122.004 264.716C122.222 263.403 122.799 262.176 123.671 261.172C124.11 260.677 124.671 260.307 125.299 260.099C125.926 259.89 126.597 259.851 127.244 259.984C128.758 260.386 129.697 261.9 130.377 263.27C132.372 267.423 133.42 271.968 133.443 276.576C133.581 278.731 133.074 280.879 131.986 282.745Z" fill="black"/>
</g>
<path d="M126.21 293.886C123.626 292.674 120.722 292.322 117.923 292.881C116.394 293.017 114.954 293.661 113.833 294.71C112.808 295.841 112.616 297.824 113.833 298.791C114.589 299.305 115.5 299.538 116.41 299.452C118.603 299.452 121.027 299.04 122.78 300.353C123.738 301.11 124.438 302.355 125.654 302.729C126.252 302.857 126.875 302.792 127.434 302.542C127.992 302.293 128.456 301.871 128.758 301.34C129.33 300.245 129.457 298.972 129.112 297.785C128.964 296.955 128.624 296.17 128.121 295.494C127.617 294.817 126.963 294.267 126.21 293.886Z" fill="#FF5859"/>
<path d="M136.211 285.897C135.423 284.861 134.897 283.65 134.68 282.367C134.464 281.083 134.561 279.767 134.966 278.53C135.815 276.059 137.326 273.869 139.334 272.197C141.615 270.167 144.271 268.602 147.151 267.59C148.266 267.137 149.466 266.934 150.667 266.996C151.267 267.029 151.85 267.209 152.364 267.52C152.878 267.83 153.309 268.262 153.618 268.777C154.432 270.349 153.618 272.245 152.794 273.797C151.293 276.535 149.576 279.149 147.659 281.614C146.126 283.597 144.364 285.561 142.017 286.452C139.67 287.343 137.227 287.247 135.991 285.619" fill="#FF5859"/>
<path d="M132.092 315.939C132.012 315.625 131.964 315.304 131.948 314.981C131.881 314.253 131.785 313.333 131.68 312.251C131.545 310.906 131.34 309.57 131.067 308.246C130.711 306.635 130.224 305.056 129.611 303.524C129.016 301.991 128.203 300.552 127.197 299.251C126.387 298.185 125.345 297.316 124.15 296.712C123.342 296.31 122.476 296.039 121.583 295.908C121.259 295.892 120.939 295.843 120.625 295.764C120.962 295.728 121.303 295.728 121.64 295.764C122.566 295.829 123.472 296.062 124.313 296.454C125.57 297.045 126.672 297.921 127.532 299.011C128.581 300.333 129.423 301.806 130.032 303.38C130.651 304.932 131.135 306.535 131.479 308.17C131.738 309.509 131.917 310.862 132.015 312.222C132.101 313.381 132.13 314.32 132.149 314.971C132.155 315.295 132.136 315.618 132.092 315.939Z" fill="#263238"/>
<path d="M131.9 313.841C131.876 313.685 131.876 313.527 131.9 313.372V312.049C131.9 310.9 131.9 309.233 131.843 307.173C131.747 303.054 131.393 297.373 130.703 291.127C130.013 284.881 129.103 279.267 128.27 275.234C128.068 274.276 127.877 273.318 127.685 272.523C127.494 271.728 127.36 271.029 127.206 270.473C127.053 269.917 126.986 269.515 126.9 269.189C126.851 269.041 126.825 268.886 126.823 268.729C126.889 268.868 126.94 269.012 126.976 269.161C127.082 269.496 127.206 269.917 127.369 270.435C127.532 270.952 127.714 271.671 127.915 272.466C128.116 273.261 128.337 274.161 128.557 275.177C129.695 280.431 130.549 285.743 131.115 291.089C131.805 297.344 132.073 303.044 132.14 307.164C132.14 309.233 132.14 310.9 132.063 312.049C132.063 312.596 132.006 313.007 131.987 313.381C131.969 313.536 131.941 313.69 131.9 313.841Z" fill="#263238"/>
<path d="M131.872 302.853C131.838 302.39 131.838 301.926 131.872 301.464C131.872 300.573 132.044 299.289 132.293 297.709C132.6 295.864 133.009 294.038 133.519 292.238C134.126 290.027 134.891 287.863 135.809 285.762C137.392 281.898 139.665 278.354 142.515 275.301C143.009 274.779 143.537 274.289 144.095 273.836C144.335 273.625 144.555 273.424 144.776 273.261L145.389 272.839C145.754 272.559 146.142 272.309 146.548 272.092C145.202 273.149 143.922 274.288 142.716 275.502C139.956 278.58 137.74 282.104 136.163 285.925C135.26 288.013 134.492 290.157 133.864 292.344C133.261 294.356 132.906 296.176 132.561 297.756C132.216 299.337 132.111 300.63 132.015 301.473C132.002 301.936 131.954 302.397 131.872 302.853Z" fill="#263238"/>
<path d="M408.25 343.874C407.362 343.887 406.485 344.079 405.674 344.44C404.862 344.8 404.132 345.321 403.527 345.972C402.323 347.28 401.435 348.846 400.931 350.551C399.867 353.808 400.203 357.745 400.931 361.089C404.581 360.006 406.995 356.299 408.106 354.383C409.85 351.298 411.143 344.659 408.221 343.903" fill="#FF5859"/>
<path d="M395.231 365.027C395.865 364.265 396.288 363.349 396.456 362.372C396.624 361.395 396.532 360.391 396.189 359.461C395.828 358.536 395.288 357.693 394.599 356.979C393.91 356.265 393.086 355.696 392.175 355.303C391.777 355.075 391.333 354.938 390.876 354.902C390.419 354.865 389.96 354.93 389.531 355.092C389.16 355.306 388.852 355.615 388.64 355.987C388.428 356.359 388.319 356.781 388.324 357.209C388.352 358.071 388.606 358.91 389.061 359.643C390.489 362.2 392.338 364.433 395.211 365.027" fill="#FF5859"/>
<path d="M394.493 375.736C394.601 375.522 394.675 375.293 394.713 375.056C394.828 374.606 394.982 373.955 395.154 373.14C395.631 371.026 395.825 368.858 395.729 366.693C395.613 364.506 394.908 362.391 393.688 360.572C393.309 360.031 392.865 359.539 392.366 359.106C392.197 358.929 391.995 358.786 391.772 358.684C392.388 359.318 392.952 360.001 393.458 360.725C394.592 362.531 395.251 364.593 395.374 366.722C395.465 368.856 395.31 370.993 394.915 373.092C394.72 373.964 394.58 374.847 394.493 375.736Z" fill="#263238"/>
<path d="M406.688 348.817C406.458 349.139 406.259 349.482 406.094 349.842C405.73 350.522 405.223 351.499 404.609 352.716C403.383 355.149 401.735 358.55 400.03 362.344C398.325 366.137 396.85 369.615 395.834 372.153C395.317 373.418 394.876 374.443 394.656 375.161C394.497 375.523 394.368 375.898 394.273 376.282C394.48 375.946 394.653 375.59 394.79 375.219L396.083 372.259C397.166 369.749 398.67 366.3 400.385 362.506C402.1 358.713 403.699 355.302 404.859 352.831L406.228 349.899C406.408 349.55 406.562 349.189 406.688 348.817Z" fill="#263238"/>
<path d="M399.283 368.887C400.419 367.128 401.958 365.666 403.772 364.621C405.587 363.577 407.624 362.98 409.716 362.88C410.769 362.88 412.043 363.062 412.484 364.02C412.925 364.978 412.254 366.099 411.526 366.894C409.937 368.448 407.925 369.497 405.741 369.91C403.557 370.322 401.301 370.08 399.254 369.213" fill="#FF5859"/>
<path d="M408.135 365.678C407.906 365.644 407.674 365.644 407.445 365.678C407.173 365.676 406.9 365.695 406.631 365.735C406.274 365.765 405.919 365.813 405.567 365.879C404.651 366.05 403.756 366.317 402.895 366.674C401.835 367.111 400.826 367.664 399.887 368.322C398.961 368.996 398.11 369.767 397.348 370.621C396.732 371.324 396.19 372.088 395.729 372.901C395.545 373.209 395.382 373.529 395.24 373.859C395.117 374.099 395.015 374.349 394.934 374.606C394.839 374.817 394.771 375.039 394.733 375.267C394.809 375.267 395.135 374.367 395.959 373.045C396.442 372.266 396.997 371.535 397.616 370.86C399.126 369.211 400.971 367.904 403.029 367.028C403.866 366.665 404.735 366.379 405.625 366.176C407.148 365.764 408.135 365.754 408.135 365.678Z" fill="#263238"/>
<path d="M325.566 386.543C325.381 386.559 325.195 386.559 325.01 386.543L323.411 386.59L317.462 386.667L297.344 386.744L297.535 386.657L294.01 390.949L278.778 409.381L274.113 414.928L272.829 416.422C272.688 416.605 272.527 416.772 272.35 416.92C272.469 416.721 272.603 416.532 272.752 416.355L273.969 414.803L278.5 409.16L293.627 390.633C294.834 389.167 296.022 387.759 297.152 386.341L297.229 386.255H297.344L317.462 386.341L323.411 386.418H325.01C325.2 386.439 325.386 386.48 325.566 386.543Z" fill="#263238"/>
<path d="M224.001 344.18L164.462 342.226L147.965 363.589L121.832 375.219L107.644 405.328L124.16 386.159L155.946 380.833L178.583 357.238L224.001 344.18Z" fill="#F5F5F5"/>
<path d="M0.742737 430.274C0.742737 430.274 1.02055 429.881 1.59534 429.125L4.14358 425.772L14.0204 412.839C22.6422 401.583 35.1822 385.23 50.8357 364.825V364.767H50.9027L76.433 361.012L76.2989 361.098C79.9871 354.392 83.9628 347.275 88.0438 339.841H88.1012L132.168 315.498L189.006 265.951H189.054H189.121L217.918 260.376L217.774 260.462L232.45 242.193L246.341 224.95L246.437 224.835H246.59L277.945 231.809H278.021L278.069 231.866L367.938 326.707C377.901 345.368 386.762 361.941 394.378 376.196L431.739 411.641L441.664 421.078L444.212 423.52C444.787 424.067 445.065 424.354 445.065 424.354L444.184 423.549L441.607 421.145L431.625 411.756L394.11 376.407L367.593 326.946L277.667 232.202L277.792 232.278L246.485 225.266L246.734 225.18L232.843 242.423L218.128 260.711L218.071 260.788H217.985L189.178 266.354L189.293 266.296L132.533 315.766L88.3982 340.061L88.4844 339.984L76.7012 361.232V361.309H76.6054L51.0656 365.036L51.171 364.969C35.4792 385.345 22.9009 401.659 14.2407 412.868L4.22022 425.829L1.63366 429.153C1.04929 429.901 0.742737 430.274 0.742737 430.274Z" fill="#263238"/>
<path d="M229.346 343.443L229.107 343.529L228.379 343.749L225.572 344.554L215.034 347.495L178.631 357.467L178.745 357.41C174.262 362.075 169.415 367.134 164.376 372.364L156.089 380.986L156.032 381.043H155.955L124.198 386.332L124.313 386.264L110.384 402.292L106.552 406.689L105.527 407.829C105.297 408.078 105.163 408.202 105.163 408.202C105.163 408.202 105.268 408.059 105.488 407.79C105.709 407.522 106.044 407.11 106.446 406.612C107.328 405.558 108.602 404.064 110.221 402.148L124.025 386.006L124.073 385.948H124.14L155.907 380.584L155.773 380.651C158.465 377.844 161.234 374.96 164.05 372.029L178.42 357.084H178.468H178.525L214.929 347.275L225.466 344.477L228.34 343.749L229.068 343.567L229.346 343.443Z" fill="#263238"/>
<path d="M301.262 323.105C301.262 323.239 288.31 323.354 272.331 323.354C256.352 323.354 243.39 323.239 243.39 323.105C243.39 322.97 256.342 322.855 272.331 322.855C288.32 322.855 301.262 322.999 301.262 323.105Z" fill="#263238"/>
<path d="M306.09 336.447C306.09 336.447 306.023 330.996 305.793 330.958L294.595 333.449C294.48 334.158 293.071 343.096 293.311 343.987L305.88 347.464C305.88 347.464 306.09 336.763 306.09 336.447Z" fill="#FFBE9D"/>
<path d="M306.1 346.63C306.1 346.63 306.1 346.535 306.157 346.391C306.292 345.165 306.157 339.838 305.563 339.618C304.97 339.398 303.015 339.771 302.881 340.48C302.747 341.189 303.188 347.186 303.188 347.186C303.188 347.186 303.312 348.144 304.902 348.355C305.88 348.489 306.1 346.63 306.1 346.63Z" fill="#FFBE9D"/>
<path d="M302.91 348.546C302.91 348.546 302.91 348.451 302.967 348.307C303.092 347.081 303.015 341.754 302.364 341.534C301.712 341.314 299.816 341.687 299.691 342.396C299.567 343.105 299.988 349.102 299.988 349.102C299.988 349.102 300.122 350.06 301.712 350.271C302.69 350.405 302.91 348.546 302.91 348.546Z" fill="#FFBE9D"/>
<path d="M299.787 349.505C299.787 349.505 299.787 349.409 299.835 349.255C299.969 348.039 299.892 342.712 299.241 342.483C298.589 342.253 296.693 342.645 296.568 343.345C296.443 344.044 296.865 350.051 296.865 350.051C296.865 350.051 296.999 351.009 298.58 351.229C299.566 351.363 299.787 349.505 299.787 349.505Z" fill="#FFBE9D"/>
<path d="M296.673 350.405C296.673 350.405 296.673 350.309 296.731 350.156C296.855 348.939 296.779 343.613 296.127 343.383C295.476 343.153 293.579 343.546 293.455 344.245C293.33 344.945 293.761 350.951 293.761 350.951C293.761 350.951 293.886 351.909 295.476 352.13C296.453 352.254 296.673 350.405 296.673 350.405Z" fill="#FFBE9D"/>
<path d="M302.862 342.032C303.048 342.885 303.132 343.756 303.111 344.628C303.198 345.484 303.169 346.348 303.025 347.196C302.839 346.343 302.755 345.472 302.776 344.6C302.688 343.744 302.717 342.88 302.862 342.032Z" fill="#EB996E"/>
<path d="M299.72 342.013C300.029 344.462 300.116 346.934 299.979 349.399C299.776 348.18 299.676 346.947 299.682 345.711C299.584 344.48 299.597 343.242 299.72 342.013Z" fill="#EB996E"/>
<g opacity="0.78">
<path d="M296.53 342.281C296.839 344.73 296.926 347.203 296.788 349.667C296.586 348.448 296.486 347.215 296.491 345.979C296.393 344.748 296.406 343.51 296.53 342.281Z" fill="#EB996E"/>
</g>
<path d="M294.528 333.745C294.528 333.745 290.092 343.814 290.744 344.436C291.579 345.059 292.479 345.592 293.426 346.027L294.528 333.745Z" fill="#FFBE9D"/>
<path d="M270.013 198.67L266.765 236.329L247.902 234.825C247.788 232.621 247.902 224.105 247.902 224.105C247.902 224.105 240.057 222.879 239.961 215.033C239.913 211.201 240.459 203.345 241.034 196.247C241.338 192.462 243.113 188.947 245.978 186.456C248.844 183.965 252.571 182.696 256.361 182.921C258.302 183.029 260.202 183.526 261.947 184.383C263.692 185.239 265.248 186.437 266.521 187.906C267.794 189.375 268.759 191.085 269.359 192.934C269.959 194.783 270.181 196.734 270.013 198.67Z" fill="#FFBE9D"/>
<path d="M247.931 223.99C251.552 224.071 255.114 223.07 258.162 221.116C258.162 221.116 255.748 226.768 247.912 226.059L247.931 223.99Z" fill="#EB996E"/>
<path d="M244.109 201.745C244.109 202.038 244.221 202.319 244.422 202.532C244.624 202.744 244.899 202.87 245.191 202.885C245.48 202.904 245.763 202.807 245.981 202.617C246.198 202.426 246.331 202.158 246.351 201.87C246.353 201.577 246.242 201.295 246.039 201.084C245.837 200.873 245.56 200.749 245.268 200.739C245.126 200.727 244.982 200.744 244.846 200.789C244.71 200.833 244.585 200.904 244.477 200.998C244.369 201.092 244.281 201.206 244.217 201.335C244.154 201.463 244.117 201.602 244.109 201.745Z" fill="#263238"/>
<path d="M242.749 200.203C242.883 200.356 243.707 199.724 244.942 199.724C246.178 199.724 247.031 200.337 247.165 200.184C247.299 200.03 247.088 199.858 246.695 199.58C246.182 199.215 245.567 199.02 244.938 199.02C244.308 199.02 243.693 199.215 243.18 199.58C242.806 199.877 242.653 200.136 242.749 200.203Z" fill="#263238"/>
<path d="M255.691 201.755C255.691 202.046 255.803 202.327 256.005 202.537C256.207 202.748 256.482 202.873 256.773 202.885C256.916 202.895 257.059 202.877 257.194 202.832C257.33 202.786 257.455 202.714 257.562 202.619C257.669 202.525 257.756 202.409 257.818 202.281C257.88 202.152 257.916 202.012 257.923 201.87C257.928 201.578 257.819 201.296 257.618 201.085C257.417 200.873 257.141 200.749 256.85 200.739C256.707 200.727 256.563 200.745 256.426 200.79C256.29 200.835 256.164 200.907 256.055 201.001C255.947 201.096 255.859 201.212 255.797 201.341C255.734 201.47 255.698 201.611 255.691 201.755Z" fill="#263238"/>
<path d="M254.599 200.413C254.742 200.557 255.557 199.925 256.793 199.934C258.028 199.944 258.881 200.538 259.015 200.394C259.149 200.251 258.938 200.059 258.555 199.781C258.031 199.422 257.409 199.231 256.773 199.235C256.146 199.228 255.534 199.427 255.03 199.8C254.656 200.097 254.532 200.413 254.599 200.413Z" fill="#263238"/>
<path d="M250.221 209.371C249.598 209.178 248.955 209.059 248.305 209.016C247.998 209.016 247.701 208.93 247.653 208.719C247.616 208.386 247.687 208.051 247.855 207.761C248.152 207.014 248.449 206.228 248.813 205.414C249.656 203.428 250.338 201.378 250.853 199.283C249.847 201.194 248.998 203.183 248.314 205.232C248.017 206.056 247.72 206.841 247.443 207.589C247.25 207.96 247.196 208.388 247.289 208.796C247.332 208.906 247.4 209.004 247.488 209.083C247.577 209.161 247.683 209.217 247.797 209.246C247.965 209.297 248.139 209.323 248.314 209.323C248.945 209.418 249.586 209.434 250.221 209.371Z" fill="#263238"/>
<path d="M253.775 210.204C253.574 210.204 253.574 211.507 252.453 212.436C251.332 213.365 249.943 213.222 249.933 213.394C249.924 213.567 250.24 213.643 250.834 213.662C251.602 213.673 252.348 213.412 252.941 212.925C253.511 212.463 253.876 211.795 253.957 211.066C254.005 210.52 253.861 210.204 253.775 210.204Z" fill="#263238"/>
<path d="M254.292 195.7C254.407 196.036 255.614 195.873 257.032 196.045C258.45 196.218 259.59 196.601 259.772 196.313C259.954 196.026 259.657 195.863 259.197 195.547C258.586 195.151 257.89 194.905 257.166 194.829C256.441 194.747 255.707 194.832 255.02 195.078C254.503 195.288 254.235 195.547 254.292 195.7Z" fill="#263238"/>
<path d="M243.189 196.716C243.4 196.994 244.233 196.716 245.23 196.716C246.226 196.716 247.079 196.898 247.27 196.61C247.462 196.323 247.222 196.198 246.858 195.94C246.361 195.63 245.782 195.473 245.196 195.49C244.61 195.507 244.042 195.697 243.563 196.036C243.218 196.304 243.093 196.582 243.189 196.716Z" fill="#263238"/>
<path d="M275.559 188.621C275.608 187.888 275.383 187.163 274.928 186.586C274.474 186.01 273.821 185.622 273.097 185.498C273.407 184.794 273.484 184.01 273.318 183.259C273.153 182.508 272.752 181.829 272.175 181.321C271.597 180.813 270.873 180.502 270.107 180.433C269.341 180.364 268.573 180.541 267.915 180.938C267.693 180.085 267.236 179.311 266.596 178.706C265.956 178.1 265.159 177.686 264.295 177.511C263.431 177.336 262.536 177.408 261.711 177.717C260.886 178.027 260.164 178.562 259.628 179.261C259.075 178.606 258.363 178.104 257.559 177.805C256.756 177.506 255.889 177.419 255.042 177.553C254.196 177.687 253.398 178.037 252.726 178.57C252.054 179.102 251.531 179.799 251.207 180.593C250.618 180.095 249.931 179.728 249.19 179.514C248.448 179.301 247.671 179.247 246.907 179.356C246.144 179.464 245.412 179.733 244.759 180.144C244.107 180.556 243.549 181.1 243.122 181.742C242.262 181.434 241.353 181.287 240.44 181.311C239.851 181.326 239.277 181.501 238.779 181.816C238.281 182.132 237.879 182.577 237.614 183.103C237.443 183.553 237.43 184.048 237.576 184.507C237.722 184.967 238.019 185.363 238.418 185.632C238.075 185.521 237.713 185.483 237.355 185.52C236.996 185.556 236.649 185.667 236.336 185.845C236.022 186.022 235.749 186.263 235.533 186.551C235.317 186.84 235.163 187.17 235.082 187.521C235 187.872 234.992 188.236 235.058 188.59C235.124 188.944 235.263 189.281 235.466 189.579C235.669 189.877 235.931 190.129 236.236 190.32C236.542 190.512 236.884 190.638 237.24 190.69C236.989 190.818 236.779 191.015 236.635 191.257C236.491 191.5 236.418 191.778 236.426 192.06C236.532 192.528 236.758 192.96 237.08 193.316C237.402 193.672 237.81 193.939 238.265 194.091C240.584 194.929 243.13 194.888 245.421 193.976C247.74 193.2 249.885 191.983 252.185 191.102C254.484 190.221 258.325 188.755 260.634 189.569C260.973 189.691 261.295 189.855 261.592 190.058C262.833 191.047 263.648 192.472 263.872 194.043C263.877 194.094 263.877 194.145 263.872 194.196C264.179 196.438 264.131 198.708 264.456 200.902C264.669 203.168 265.638 205.297 267.206 206.947C267.886 207.579 269.122 208.02 269.649 207.273C269.843 206.967 269.94 206.61 269.926 206.248C270.233 202.349 271.076 198.766 271.526 194.953C272.103 193.99 272.82 193.118 273.653 192.367C274.713 191.384 275.389 190.056 275.559 188.621Z" fill="#263238"/>
<path d="M252.166 184.674C252.029 184.344 251.993 183.981 252.06 183.63C252.144 182.645 252.592 181.726 253.315 181.053C253.864 180.557 254.537 180.22 255.262 180.077C255.988 179.933 256.738 179.989 257.435 180.238C257.857 180.377 258.247 180.603 258.577 180.902C258.907 181.201 259.17 181.565 259.35 181.972C259.532 182.434 259.552 182.944 259.408 183.419C259.338 183.673 259.209 183.907 259.033 184.104C258.857 184.3 258.638 184.452 258.393 184.549C258.144 184.648 257.875 184.684 257.609 184.654C257.344 184.623 257.09 184.528 256.869 184.377C256.664 184.213 256.505 183.999 256.408 183.756C256.31 183.512 256.278 183.248 256.314 182.988C256.36 182.508 256.586 182.063 256.946 181.742C257.277 181.449 257.67 181.233 258.096 181.11C258.797 180.896 259.539 180.846 260.263 180.964C260.987 181.082 261.675 181.365 262.272 181.79C262.737 182.126 263.091 182.593 263.288 183.132C263.427 183.539 263.45 183.976 263.355 184.396C263.173 185.086 262.78 185.297 262.78 185.277C262.969 184.986 263.1 184.661 263.163 184.319C263.218 183.937 263.172 183.548 263.029 183.189C262.824 182.723 262.492 182.325 262.071 182.039C261.512 181.672 260.878 181.433 260.215 181.341C259.553 181.248 258.878 181.303 258.239 181.503C257.882 181.588 257.556 181.774 257.301 182.039C257.046 182.304 256.873 182.637 256.802 182.997C256.775 183.176 256.795 183.358 256.86 183.527C256.926 183.695 257.035 183.843 257.176 183.955C257.328 184.058 257.503 184.121 257.685 184.139C257.867 184.158 258.051 184.131 258.22 184.061C258.559 183.891 258.82 183.598 258.949 183.241C259.077 182.884 259.063 182.492 258.91 182.145C258.753 181.798 258.527 181.488 258.245 181.232C257.963 180.977 257.632 180.782 257.272 180.66C256.647 180.434 255.974 180.374 255.319 180.486C254.664 180.599 254.049 180.88 253.536 181.302C252.847 181.913 252.388 182.741 252.233 183.649C252.146 184.3 252.233 184.674 252.166 184.674Z" fill="#455A64"/>
<path d="M261.697 179.664C261.924 179.577 262.164 179.532 262.406 179.53C263.064 179.466 263.727 179.486 264.38 179.587C265.386 179.729 266.316 180.2 267.024 180.928C267.474 181.393 267.758 181.993 267.832 182.635C267.907 183.278 267.768 183.927 267.436 184.482C267.319 184.664 267.177 184.829 267.014 184.971L266.756 184.549C267.064 184.439 267.395 184.404 267.72 184.448C268.045 184.491 268.355 184.611 268.624 184.798C269.13 185.119 269.49 185.624 269.63 186.207C269.726 186.678 269.721 187.164 269.616 187.633C269.51 188.102 269.306 188.543 269.016 188.927C268.648 189.423 268.194 189.848 267.675 190.182C267.311 190.422 267.101 190.518 267.081 190.489C267.062 190.46 267.244 190.316 267.56 190.039C268.012 189.661 268.409 189.223 268.739 188.736C268.973 188.385 269.134 187.99 269.211 187.575C269.288 187.16 269.281 186.734 269.189 186.322C269.071 185.855 268.775 185.453 268.365 185.201C268.158 185.06 267.922 184.97 267.674 184.936C267.426 184.903 267.174 184.928 266.938 185.009L265.654 185.527L266.689 184.569C266.817 184.456 266.93 184.327 267.024 184.185C267.313 183.712 267.425 183.152 267.34 182.605C267.264 182.086 267.034 181.602 266.679 181.216C266.046 180.545 265.218 180.089 264.313 179.913C262.77 179.625 261.697 179.769 261.697 179.664Z" fill="#455A64"/>
<path d="M273.059 187.96C273.117 187.96 273.26 188.228 273.26 188.707C273.251 189.353 273.009 189.974 272.577 190.455C272.146 190.935 271.554 191.244 270.913 191.322C270.434 191.322 270.147 191.265 270.156 191.198C270.917 191.013 271.621 190.645 272.207 190.125C272.667 189.486 272.96 188.741 273.059 187.96Z" fill="#455A64"/>
<path d="M239.539 183.879C239.737 183.625 239.989 183.419 240.277 183.275C241.239 182.742 242.347 182.532 243.437 182.677C244.527 182.822 245.542 183.314 246.331 184.08C246.63 184.357 246.869 184.691 247.034 185.064C247.199 185.436 247.286 185.838 247.289 186.245C247.262 186.719 247.051 187.164 246.7 187.485C246.349 187.805 245.887 187.976 245.412 187.96C245.166 187.931 244.932 187.837 244.734 187.687C244.537 187.537 244.384 187.337 244.291 187.107C244.108 186.694 244.078 186.229 244.205 185.795C244.328 185.398 244.547 185.039 244.843 184.748C245.139 184.457 245.502 184.244 245.9 184.128C246.586 183.888 247.332 183.888 248.017 184.128C248.594 184.34 249.122 184.665 249.569 185.086C250.199 185.684 250.724 186.383 251.121 187.155C251.29 187.421 251.416 187.712 251.495 188.017C251.29 187.779 251.107 187.523 250.949 187.251C250.51 186.536 249.968 185.89 249.34 185.335C248.908 184.928 248.379 184.64 247.803 184.497C247.228 184.354 246.625 184.362 246.054 184.521C245.733 184.618 245.441 184.79 245.201 185.024C244.961 185.257 244.78 185.544 244.674 185.862C244.492 186.494 244.789 187.356 245.46 187.404C245.794 187.398 246.115 187.267 246.358 187.036C246.6 186.806 246.748 186.493 246.772 186.159C246.769 185.821 246.699 185.486 246.566 185.175C246.433 184.865 246.239 184.583 245.996 184.348C245.138 183.486 243.984 182.982 242.768 182.94C241.941 182.901 241.117 183.059 240.363 183.4C240.098 183.576 239.823 183.736 239.539 183.879Z" fill="#455A64"/>
<path d="M267.369 202.215C267.503 202.157 272.762 200.625 272.59 205.989C272.417 211.354 267.072 210.07 267.062 209.917C267.053 209.764 267.369 202.215 267.369 202.215Z" fill="#FFBE9D"/>
<path d="M268.767 207.943C268.767 207.943 268.863 208.01 269.016 208.087C269.241 208.175 269.491 208.175 269.716 208.087C270.068 207.877 270.358 207.578 270.556 207.219C270.755 206.861 270.855 206.456 270.846 206.047C270.873 205.586 270.801 205.126 270.635 204.696C270.589 204.528 270.502 204.373 270.384 204.245C270.266 204.117 270.119 204.018 269.955 203.958C269.848 203.924 269.732 203.929 269.628 203.973C269.524 204.017 269.44 204.097 269.39 204.198C269.313 204.341 269.342 204.447 269.313 204.456C269.285 204.466 269.208 204.37 269.256 204.15C269.29 204.017 269.368 203.899 269.476 203.814C269.628 203.712 269.813 203.671 269.994 203.699C270.214 203.75 270.417 203.855 270.585 204.006C270.752 204.157 270.879 204.348 270.952 204.562C271.161 205.034 271.253 205.55 271.22 206.066C271.232 206.544 271.102 207.015 270.846 207.419C270.591 207.824 270.22 208.143 269.783 208.336C269.639 208.372 269.489 208.376 269.343 208.348C269.198 208.32 269.06 208.26 268.94 208.173C268.777 208.077 268.748 207.953 268.767 207.943Z" fill="#EB996E"/>
<path d="M232.374 476.744C232.374 476.744 216.088 396.608 216.03 394.999L245.211 379.556L256.515 473.602L232.374 476.744Z" fill="#263238"/>
<path d="M269.131 479.436L246.561 340.528V310.582L277.389 313.455C277.782 314.624 287.869 479.637 287.869 479.637L284.689 479.455H269.131" fill="#263238"/>
<path d="M228.819 308.455L216.03 394.999L244.626 388.063L256.285 311.271L228.819 308.455Z" fill="#263238"/>
<path d="M255.279 315.793C255.279 315.793 255.279 315.937 255.279 316.214L255.413 317.46C255.538 318.562 255.72 320.171 255.959 322.25C256.448 326.388 257.185 332.376 258.143 339.771C260.059 354.553 262.933 374.939 266.056 397.471C267.608 408.746 269.036 419.504 270.252 429.266C270.568 431.709 270.818 434.104 271.21 436.413C271.603 438.721 271.91 440.963 272.235 443.119C272.896 447.449 273.509 451.491 274.065 455.17C275.176 462.546 276.048 468.515 276.623 472.644C276.91 474.703 277.121 476.303 277.246 477.434C277.313 477.98 277.351 478.391 277.37 478.679C277.38 478.784 277.38 478.89 277.37 478.995C277.37 479.081 277.322 478.995 277.322 478.995C277.322 478.995 277.389 478.995 277.38 478.995C277.392 478.887 277.392 478.778 277.38 478.669C277.38 478.391 277.38 477.97 277.294 477.424C277.198 476.332 277.006 474.722 276.747 472.634C276.221 468.505 275.387 462.527 274.314 455.151C273.768 451.463 273.174 447.42 272.532 443.09C272.207 440.925 271.868 438.689 271.517 436.384C271.182 434.075 270.942 431.68 270.626 429.237C269.438 419.456 268.02 408.708 266.468 397.442C263.355 374.91 260.414 354.524 258.44 339.752C257.482 332.376 256.678 326.398 256.132 322.25L255.509 317.46C255.442 316.923 255.384 316.502 255.346 316.224C255.308 315.946 255.279 315.793 255.279 315.793Z" fill="#455A64"/>
<path d="M238.073 476.006C238.073 476.006 238.073 475.862 238.026 475.594L237.863 474.397C237.681 473.333 237.422 471.781 237.077 469.789C236.378 465.775 235.362 459.989 234.107 452.852L224.164 396.982C223.87 395.653 223.789 394.285 223.924 392.93C224.097 391.589 224.317 390.238 224.518 388.906C224.933 386.243 225.339 383.618 225.735 381.032C226.549 375.868 227.344 370.896 228.139 366.164C229.71 356.689 231.233 348.182 232.594 341.046C233.954 333.909 235.142 328.161 236.052 324.204C236.483 322.221 236.876 320.688 237.116 319.654C237.23 319.146 237.317 318.696 237.384 318.466C237.451 318.236 237.47 318.063 237.47 318.063C237.47 318.063 237.422 318.188 237.345 318.456C237.269 318.724 237.173 319.127 237.039 319.635C236.771 320.669 236.359 322.192 235.908 324.166C234.95 328.122 233.715 333.87 232.316 340.998C230.917 348.125 229.375 356.632 227.785 366.097C226.98 370.839 226.175 375.811 225.351 380.974C224.949 383.551 224.547 386.186 224.125 388.849C223.934 390.19 223.713 391.512 223.531 392.892C223.399 394.285 223.483 395.691 223.78 397.059C227.708 418.853 231.262 438.597 233.839 452.9C235.142 460.027 236.196 465.804 236.924 469.818L237.786 474.416C237.891 474.924 237.968 475.326 238.026 475.604C238.083 475.882 238.073 476.006 238.073 476.006Z" fill="#455A64"/>
<path d="M246.561 339.551C246.456 339.551 247.788 348.547 249.541 359.592C251.294 370.638 252.798 379.556 252.903 379.556C253.009 379.556 251.677 370.561 249.924 359.515C248.171 348.47 246.667 339.532 246.561 339.551Z" fill="#455A64"/>
<path d="M87.4594 173.992C87.4594 173.992 100.124 169.049 108.775 171.521C117.425 173.992 120.031 179.338 126.516 178.907C131.67 178.543 135.32 176.311 137.179 170.831C139.037 165.351 139.037 158.511 156.635 159.163C170.105 159.661 171.465 161.634 171.465 161.634L172.912 197.473C165.248 196.266 157.488 195.394 149.125 196.572C147.082 197.014 145.229 198.082 143.822 199.628C142.416 201.173 141.527 203.119 141.279 205.194C140.321 212.858 132.437 215.828 127.723 215.828C121.018 215.828 117.569 211.268 111.85 209.946C102.873 207.867 87.4594 214.151 87.4594 214.151V173.992Z" fill="#FF5859"/>
<path d="M178.391 248.916L170.651 248.37L170.852 260.518L179.158 266.582L180.001 266.275L180.48 252.461L178.391 248.916Z" fill="#EB996E"/>
<path d="M135.847 201.611C135.713 201.611 135.483 195.672 135.339 188.343C135.196 181.015 135.196 175.065 135.339 175.065C135.483 175.065 135.703 180.995 135.847 188.333C135.991 195.672 135.981 201.602 135.847 201.611Z" fill="#263238"/>
<path d="M121.669 186.044C121.813 186.044 121.918 192.184 121.918 199.743C121.918 207.301 121.813 213.452 121.669 213.452C121.525 213.452 121.42 207.311 121.42 199.743C121.42 192.175 121.535 186.044 121.669 186.044Z" fill="#263238"/>
<g opacity="0.2">
<path d="M121.669 207.407C121.573 210.156 121.669 213.806 121.669 213.806C123.681 215.147 127.829 215.962 130.137 215.243H130.205C131.731 214.754 133.106 213.881 134.197 212.706C135.287 211.532 136.057 210.096 136.431 208.537C136.715 207.499 136.838 206.423 136.795 205.347C136.029 196.237 135.042 184.885 135.33 175.746C133.422 177.359 131.146 178.478 128.704 179.004C126.261 179.53 123.727 179.448 121.324 178.763L121.669 207.407Z" fill="black"/>
</g>
<g opacity="0.6">
<path d="M120.404 180.028C119.99 179.844 119.596 179.619 119.226 179.357L116.094 177.441C112.713 175.237 108.966 173.654 105.029 172.766C101.061 172.037 96.9747 172.28 93.1211 173.475C91.5408 174.034 89.9901 174.674 88.4749 175.391C88.8357 175.115 89.2204 174.871 89.6244 174.663C90.7113 174.071 91.8457 173.571 93.0157 173.168C96.9115 171.848 101.081 171.552 105.125 172.306C109.121 173.198 112.909 174.847 116.285 177.163C117.598 178.006 118.623 178.734 119.332 179.242C119.713 179.469 120.073 179.732 120.404 180.028Z" fill="white"/>
</g>
<g opacity="0.6">
<path d="M151.529 161.73C151.529 161.816 150.571 161.73 149.077 161.883C147.13 162.112 145.269 162.817 143.66 163.937C142.051 165.056 140.743 166.556 139.851 168.302C139.162 169.643 138.951 170.572 138.893 170.544C138.948 169.707 139.176 168.892 139.564 168.149C140.401 166.287 141.728 164.688 143.404 163.522C145.079 162.356 147.04 161.667 149.077 161.529C149.9 161.428 150.734 161.497 151.529 161.73Z" fill="white"/>
</g>
<path d="M172.145 157.956L182.367 441.94L180.604 442.362L170.105 158.09L172.145 157.956Z" fill="#263238"/>
<path d="M191.046 264.991L187.214 251.206L173.592 241.626C173.592 241.626 172.001 242.584 174.435 246.177L177.491 250.392C177.491 250.392 177.395 255.881 180.01 259.1L179.167 266.534L191.046 264.991Z" fill="#FFBE9D"/>
<path d="M170.622 250.88C172.104 251.843 173.401 253.063 174.454 254.482C174.658 254.885 174.757 255.333 174.741 255.785C174.752 255.979 174.707 256.172 174.612 256.342C174.517 256.511 174.376 256.651 174.205 256.743C174.062 256.801 173.907 256.823 173.753 256.808C173.6 256.793 173.452 256.741 173.323 256.657C173.058 256.497 172.819 256.296 172.614 256.063L169.99 253.352C169.546 252.954 169.229 252.434 169.079 251.857C169.076 251.678 169.119 251.501 169.203 251.343C169.288 251.186 169.411 251.052 169.563 250.956C169.714 250.86 169.887 250.804 170.066 250.794C170.244 250.784 170.423 250.82 170.584 250.899" fill="#FFBE9D"/>
<path d="M170.603 254.396C172.08 255.364 173.377 256.583 174.435 257.998C174.637 258.402 174.736 258.849 174.722 259.301C174.733 259.495 174.688 259.688 174.593 259.858C174.498 260.027 174.357 260.166 174.186 260.259C174.04 260.311 173.885 260.33 173.731 260.315C173.577 260.3 173.428 260.251 173.295 260.173C173.032 260.012 172.796 259.812 172.595 259.579L169.999 256.935C169.561 256.534 169.248 256.015 169.099 255.44C169.098 255.262 169.142 255.087 169.227 254.93C169.313 254.774 169.436 254.642 169.586 254.546C169.737 254.45 169.909 254.394 170.086 254.383C170.264 254.372 170.442 254.406 170.603 254.482" fill="#FFBE9D"/>
<path d="M171.168 258.228C172.65 259.19 173.948 260.41 175 261.83C175.209 262.231 175.308 262.68 175.287 263.132C175.298 263.325 175.254 263.517 175.161 263.687C175.068 263.856 174.929 263.996 174.761 264.09C174.615 264.145 174.46 264.166 174.305 264.151C174.151 264.136 174.002 264.086 173.87 264.004C173.606 263.842 173.367 263.641 173.161 263.41L170.536 260.699C170.098 260.296 169.783 259.778 169.626 259.205C169.622 259.026 169.665 258.849 169.749 258.691C169.834 258.533 169.958 258.4 170.109 258.303C170.26 258.207 170.433 258.151 170.612 258.141C170.791 258.132 170.969 258.168 171.13 258.247" fill="#FFBE9D"/>
<path d="M171.245 248.456C171.845 248.728 172.385 249.115 172.835 249.596C173.065 249.852 173.217 250.168 173.275 250.507C173.333 250.846 173.293 251.195 173.161 251.512C173.106 251.636 173.021 251.743 172.914 251.825C172.807 251.907 172.681 251.961 172.548 251.982C172.359 251.991 172.173 251.944 172.011 251.848C171.638 251.676 171.288 251.461 170.967 251.206C170.65 250.911 170.359 250.591 170.095 250.248C169.913 250.107 169.788 249.906 169.743 249.681C169.697 249.456 169.734 249.222 169.846 249.021C170.047 248.562 170.248 248.293 171.245 248.408" fill="#FFBE9D"/>
<path d="M190.251 258.104L210.934 276.679L204.209 291.508L180.48 266.189L190.251 258.104Z" fill="#FFBE9D"/>
<path d="M189.427 257.299L207.83 271.305C207.83 271.305 224.949 242.105 226.463 240.295C227.976 238.484 231.818 236.539 231.818 236.539L229.691 273.968C229.691 273.968 220.437 297.601 207.725 296.317C197.992 295.359 181.179 269.666 181.179 269.666L189.427 257.299Z" fill="#FF5859"/>
<g opacity="0.2">
<path d="M207.485 270.845C206.224 272.813 205.404 275.031 205.084 277.347C204.763 279.662 204.948 282.02 205.627 284.256C205.722 284.731 205.988 285.153 206.374 285.444C206.702 285.588 207.072 285.605 207.411 285.492C207.751 285.378 208.037 285.143 208.213 284.831C208.542 284.192 208.707 283.481 208.692 282.762C208.996 283.454 209.458 284.065 210.043 284.544C210.346 284.77 210.718 284.886 211.096 284.872C211.474 284.858 211.836 284.715 212.122 284.467C212.735 283.797 212.39 282.733 212.026 281.9C210.455 278.349 208.887 274.798 207.322 271.247" fill="black"/>
</g>
<path d="M194.054 261.485C192.793 263.922 191.386 266.279 189.839 268.545C188.433 270.9 186.888 273.168 185.212 275.338C186.468 272.899 187.876 270.54 189.427 268.277C190.832 265.922 192.377 263.654 194.054 261.485Z" fill="#263238"/>
<path d="M189.37 260.977C189.37 260.929 189.561 260.69 189.983 260.843C190.105 260.891 190.214 260.968 190.3 261.069C190.385 261.169 190.444 261.289 190.471 261.418C190.494 261.588 190.463 261.762 190.384 261.915C190.305 262.068 190.181 262.193 190.029 262.273C189.876 262.354 189.703 262.385 189.532 262.364C189.361 262.343 189.201 262.27 189.073 262.155C188.983 262.059 188.919 261.942 188.885 261.815C188.852 261.688 188.85 261.555 188.881 261.427C188.986 260.987 189.322 260.929 189.331 260.996C189.341 261.063 189.216 261.197 189.236 261.465C189.255 261.734 189.465 262.002 189.791 261.83C189.854 261.799 189.907 261.751 189.943 261.692C189.98 261.632 190 261.564 190 261.494C190 261.424 189.98 261.356 189.943 261.297C189.907 261.237 189.854 261.19 189.791 261.159C189.609 260.996 189.408 261.034 189.37 260.977Z" fill="#263238"/>
<path d="M207.849 280.156C206.784 277.31 206.736 274.182 207.715 271.304C207.859 271.304 207.466 273.297 207.514 275.74C207.562 278.183 207.993 280.118 207.849 280.156Z" fill="#263238"/>
<path d="M211.413 280.032C209.536 277.449 208.256 274.481 207.667 271.343C208.357 272.763 208.974 274.218 209.516 275.702C210.541 278.087 211.537 279.926 211.413 280.032Z" fill="#263238"/>
<path d="M270.319 232.985L267.56 227.458H247.443L244.281 233.704L231.828 236.52L226.472 316.684C226.445 317.688 226.69 318.681 227.181 319.558L276.038 321.474L278.021 322.288C279.775 321.206 278.682 316.742 278.702 314.624L279.334 274.926L289 243.197L270.319 232.985Z" fill="#FF5859"/>
<g opacity="0.2">
<path d="M249.464 235.734L253.018 232.18L257.023 241.818C261.62 239.116 265.996 236.054 270.109 232.659L256.572 236.999C255.423 233.972 254.28 230.938 253.143 227.898C252.333 230.656 251.188 233.304 249.732 235.782" fill="black"/>
</g>
<path d="M306.177 333.478L293.004 334.158V296.356L279.382 274.935L289.048 243.207C291.04 243.992 306.052 281.679 309.874 291.92C310.429 293.393 310.67 294.966 310.583 296.538L306.177 333.478Z" fill="#FF5859"/>
<path d="M231.818 253.103C231.962 253.103 231.301 260.872 230.362 270.413C229.423 279.955 228.542 287.657 228.446 287.657C228.35 287.657 228.963 279.888 229.902 270.337C230.841 260.786 231.684 253.045 231.818 253.103Z" fill="#263238"/>
<path d="M253.123 227.917C252.48 230.121 251.679 232.275 250.728 234.365L250.46 235.016C250.37 235.269 250.218 235.496 250.02 235.677C249.897 235.773 249.748 235.83 249.592 235.84C249.437 235.85 249.282 235.814 249.148 235.735C248.918 235.62 248.755 235.495 248.583 235.39L246.772 234.164C246.193 233.819 245.658 233.404 245.182 232.928C245.811 233.176 246.409 233.498 246.964 233.886L248.832 235.016C249.186 235.246 249.55 235.505 249.713 235.313C249.958 234.972 250.146 234.594 250.269 234.192C251.064 232.033 252.018 229.936 253.123 227.917Z" fill="#263238"/>
<path d="M269.122 232.832C268.131 233.324 267.103 233.738 266.047 234.067C264.131 234.776 261.468 235.715 258.517 236.721L256.908 237.267L256.687 237.344L256.601 237.133C255.566 234.623 254.685 232.4 254.043 230.791C253.666 229.95 253.361 229.078 253.133 228.185C253.601 228.98 254.008 229.81 254.35 230.666C255.049 232.238 255.997 234.441 257.061 236.941L256.745 236.807L258.354 236.252C261.305 235.294 263.987 234.336 265.932 233.732C266.971 233.353 268.038 233.052 269.122 232.832Z" fill="#263238"/>
<path d="M286.95 244.347C286.95 244.49 284.162 245.305 280.876 246.722C277.59 248.14 275.128 249.769 275.032 249.596C275.481 249.131 275.998 248.737 276.565 248.428C279.193 246.758 282.053 245.487 285.053 244.653C285.666 244.454 286.305 244.35 286.95 244.347Z" fill="#263238"/>
<path d="M253.124 227.917C253.135 227.997 253.135 228.078 253.124 228.157C253.124 228.349 253.124 228.578 253.124 228.866C253.124 229.489 253.181 230.399 253.191 231.577C253.191 233.924 253.191 237.325 253.037 241.53C252.74 249.942 251.687 261.533 250.01 274.246C249.196 280.616 248.295 286.699 247.692 292.179C247.115 297.062 246.846 301.977 246.887 306.894C246.927 310.206 247.19 313.512 247.673 316.79C247.816 317.958 247.998 318.849 248.094 319.462C248.094 319.74 248.171 319.97 248.2 320.162C248.21 320.241 248.21 320.322 248.2 320.401C248.168 320.328 248.145 320.25 248.132 320.171C248.085 319.98 248.037 319.759 247.97 319.482C247.855 318.878 247.634 317.987 247.462 316.818C246.897 313.538 246.577 310.221 246.504 306.894C246.405 301.963 246.635 297.031 247.194 292.131C247.778 286.594 248.659 280.549 249.474 274.188C251.15 261.476 252.252 249.913 252.645 241.521C252.855 237.325 252.922 233.924 252.961 231.577C252.961 230.427 252.961 229.527 252.961 228.866C252.961 228.578 252.961 228.349 252.961 228.167C253 228.075 253.055 227.99 253.124 227.917Z" fill="#263238"/>
<path d="M306.895 327.691C304.568 327.824 302.234 327.792 299.911 327.596C297.582 327.567 295.258 327.371 292.956 327.011C295.28 326.872 297.611 326.901 299.931 327.097C302.263 327.133 304.59 327.332 306.895 327.691Z" fill="#263238"/>
<path d="M295.208 329.166C295.208 329.166 295.208 329.348 295.208 329.521C295.208 329.693 295.418 329.798 295.591 329.655C295.763 329.511 295.706 329.367 295.543 329.252C295.38 329.137 295.246 329.185 295.198 329.137C295.15 329.09 295.284 328.86 295.648 328.917C295.754 328.933 295.853 328.976 295.937 329.042C296.02 329.107 296.086 329.193 296.127 329.291C296.173 329.424 296.176 329.569 296.137 329.704C296.098 329.839 296.018 329.96 295.908 330.048C295.799 330.137 295.664 330.19 295.524 330.2C295.383 330.21 295.243 330.177 295.121 330.105C295.036 330.041 294.966 329.957 294.92 329.86C294.873 329.763 294.85 329.657 294.853 329.549C294.92 329.185 295.179 329.099 295.208 329.166Z" fill="#263238"/>
<g opacity="0.2">
<path d="M279.545 274.83C278.108 272.243 276.677 269.657 275.253 267.07C273.558 280.76 274.534 294.648 278.127 307.966C278.574 296.975 279.018 285.987 279.458 275.002" fill="black"/>
</g>
<g opacity="0.2">
<path d="M219.584 251.417C220.879 253.261 222.744 254.628 224.893 255.307C227.042 255.986 229.354 255.938 231.473 255.172C231.786 255.651 232.211 256.047 232.712 256.324C233.213 256.601 233.775 256.752 234.347 256.762C235.481 256.778 236.606 256.56 237.652 256.12C241.666 254.592 245.234 252.086 248.033 248.828C250.832 245.571 252.773 241.666 253.679 237.468C247.481 239.643 243.304 245.649 237.221 248.14C234.829 249.14 232.225 249.524 229.646 249.258C227.067 248.992 224.596 248.084 222.458 246.617L219.584 251.417Z" fill="black"/>
</g>
<path d="M257.741 260.584C257.997 260.538 258.257 260.519 258.517 260.527L260.807 260.469C262.799 260.469 265.664 260.383 269.122 260.364H269.352V260.594C269.122 263.621 268.873 267.127 268.595 270.864V270.998L268.47 271.065L267.963 271.333L262.397 274.264L262.253 274.331L262.129 274.236L256.965 270.011L256.888 269.944V269.838C257.137 267.06 257.339 264.752 257.482 263.037C257.559 262.299 257.616 261.686 257.674 261.197C257.68 260.991 257.709 260.785 257.76 260.584C257.778 260.817 257.778 261.051 257.76 261.284C257.76 261.782 257.703 262.414 257.674 263.2C257.578 264.886 257.454 267.166 257.3 269.906L257.224 269.733L262.435 273.9H262.176L267.723 270.959L268.24 270.691L268.106 270.892L268.921 260.632L269.141 260.862C265.778 260.862 262.962 260.795 260.96 260.757L258.622 260.699C258.326 260.681 258.032 260.642 257.741 260.584Z" fill="#263238"/>
<path d="M268.815 265.183C265.02 265.445 261.208 265.374 257.425 264.972C259.317 264.755 261.224 264.707 263.125 264.828C265.028 264.782 266.932 264.9 268.815 265.183Z" fill="#FF5859"/>
<path d="M268.729 267.156C266.821 267.376 264.897 267.424 262.981 267.3C261.074 267.351 259.167 267.233 257.281 266.946C259.189 266.733 261.112 266.685 263.029 266.802C264.936 266.756 266.843 266.874 268.729 267.156Z" fill="#FF5859"/>
<path d="M233.571 319.989C233.571 320.123 232.546 319.989 231.885 318.945C231.224 317.901 231.425 316.943 231.559 317.029C231.693 317.115 231.732 317.891 232.297 318.705C232.862 319.52 233.619 319.855 233.571 319.989Z" fill="#263238"/>
<path d="M234.845 319.453C234.104 318.911 233.608 318.098 233.466 317.192C233.312 316.762 233.245 316.306 233.27 315.85C233.295 315.395 233.41 314.949 233.609 314.538C233.753 314.538 233.609 315.716 233.954 317.067C234.299 318.418 234.989 319.366 234.845 319.453Z" fill="#263238"/>
<path d="M271.737 313.944C271.832 315.332 271.571 316.721 270.979 317.98C270.387 319.239 269.484 320.326 268.355 321.139C269.162 320.069 269.888 318.942 270.53 317.766C271.025 316.524 271.429 315.246 271.737 313.944Z" fill="#263238"/>
<path d="M251.648 232.008H254.292L255.423 233.972L254.311 237.037L251.677 236.74L250.642 234.527L251.648 232.008Z" fill="#455A64"/>
<path d="M251.677 236.74C251.677 236.74 235.774 246.981 227.651 242.89C219.527 238.8 209.449 233.789 200.377 234.987C195.07 235.634 189.928 237.258 185.212 239.777L182.338 246.684L189.686 249.328C189.686 249.328 200.396 244.155 208.184 245.544C213.626 246.502 224.077 252.058 231.119 251.531C238.16 251.004 247.883 245.994 254.283 236.999L251.677 236.74Z" fill="#455A64"/>
<path d="M253.602 237.88C253.233 237.784 252.883 237.626 252.568 237.411C252.214 237.248 251.891 237.028 251.61 236.759C251.984 236.855 252.337 237.017 252.654 237.238C253.005 237.395 253.326 237.612 253.602 237.88Z" fill="#263238"/>
<path d="M255.174 233.627C254.633 234.209 254.043 234.745 253.411 235.227C252.814 235.762 252.173 236.246 251.495 236.673C252.036 236.09 252.625 235.555 253.258 235.073C253.854 234.538 254.495 234.054 255.174 233.627Z" fill="#263238"/>
<path d="M254.053 234.633C253.009 233.967 252.144 233.056 251.533 231.979C251.581 231.979 252.079 232.592 252.769 233.32C253.459 234.048 254.081 234.585 254.053 234.633Z" fill="#263238"/>
<path d="M240.919 248.485C240.767 248.226 240.648 247.949 240.564 247.661C240.363 247.144 240.105 246.425 239.836 245.63C239.568 244.835 239.329 244.107 239.166 243.58C239.068 243.296 238.994 243.005 238.945 242.708C239.095 242.969 239.214 243.245 239.3 243.532C239.501 244.05 239.76 244.768 240.028 245.563C240.296 246.358 240.536 247.086 240.689 247.613C240.792 247.896 240.869 248.188 240.919 248.485Z" fill="#FF5859"/>
<path d="M244.894 246.1C244.353 245.408 243.866 244.674 243.438 243.906C242.956 243.171 242.526 242.403 242.155 241.607C243.182 243.032 244.098 244.534 244.894 246.1Z" fill="#FF5859"/>
<path d="M248.496 243.302C247.907 242.868 247.362 242.377 246.868 241.837C246.325 241.346 245.831 240.804 245.393 240.218C246.514 241.154 247.553 242.186 248.496 243.302Z" fill="#FF5859"/>
<path d="M251.476 240.371C251.033 240.121 250.621 239.818 250.25 239.471C249.841 239.166 249.471 238.812 249.148 238.417C249.598 238.656 250.011 238.96 250.374 239.317C250.791 239.613 251.162 239.968 251.476 240.371Z" fill="#FF5859"/>
<path d="M235.257 250.947C235.101 249.797 235.008 248.639 234.979 247.479C234.881 246.323 234.852 245.162 234.893 244.002C235.056 245.151 235.152 246.309 235.18 247.47C235.273 248.626 235.298 249.787 235.257 250.947Z" fill="#FF5859"/>
<path d="M229.806 251.8C229.806 251.8 229.95 250.018 230.247 247.834C230.544 245.649 230.831 243.877 230.879 243.887C230.806 245.215 230.662 246.539 230.448 247.853C230.304 249.179 230.09 250.496 229.806 251.8Z" fill="#FF5859"/>
<path d="M226.587 242.268C226.635 242.268 226.127 244.184 225.438 246.54C224.748 248.897 224.164 250.765 224.106 250.756C224.049 250.746 224.566 248.84 225.246 246.483C225.926 244.126 226.53 242.258 226.587 242.268Z" fill="#FF5859"/>
<path d="M222.88 240.524C222.937 240.524 222.324 242.507 221.529 244.902C220.734 247.297 220.035 249.242 219.977 249.223C219.92 249.204 220.533 247.249 221.338 244.845C222.142 242.44 222.832 240.505 222.88 240.524Z" fill="#FF5859"/>
<path d="M217.525 238.014C217.525 238.014 217.036 240.16 216.327 242.804C215.618 245.448 214.996 247.518 214.948 247.508C214.9 247.498 215.427 245.362 216.136 242.718C216.845 240.074 217.467 238.005 217.525 238.014Z" fill="#FF5859"/>
<path d="M211.786 236.453C211.844 236.453 211.422 238.57 210.828 241.157C210.235 243.743 209.756 245.832 209.698 245.812C209.641 245.793 210.062 243.695 210.656 241.118C211.25 238.541 211.739 236.443 211.786 236.453Z" fill="#FF5859"/>
<path d="M206 235.457C206.058 235.457 206.125 237.689 206.144 240.448C206.163 243.207 206.144 245.458 206.087 245.458C206.029 245.458 205.972 243.216 205.952 240.457C205.933 237.698 205.952 235.457 206 235.457Z" fill="#FF5859"/>
<path d="M201.354 245.649C201.306 245.518 201.268 245.384 201.239 245.247C201.163 244.873 201.086 244.5 201 244.116C200.808 243.158 200.578 241.846 200.368 240.38C200.157 238.915 199.994 237.583 199.908 236.615C199.908 236.232 199.841 235.859 199.812 235.475C199.787 235.336 199.787 235.193 199.812 235.054C199.851 235.188 199.876 235.326 199.889 235.466C199.889 235.839 199.994 236.223 200.042 236.606C200.214 237.803 200.377 239.02 200.559 240.352C200.741 241.683 200.952 242.9 201.143 244.097L201.316 245.228C201.35 245.365 201.363 245.508 201.354 245.649Z" fill="#FF5859"/>
<path d="M196.21 246.713C196.162 246.713 195.376 244.5 194.457 241.751C193.537 239.001 192.847 236.74 192.895 236.721C192.943 236.702 193.738 238.925 194.648 241.684C195.558 244.443 196.267 246.694 196.21 246.713Z" fill="#FF5859"/>
<path d="M191.544 248.361C191.496 248.361 190.471 246.33 189.255 243.762C188.038 241.195 187.09 239.106 187.138 239.078C187.186 239.049 188.22 241.118 189.437 243.676C190.653 246.234 191.592 248.313 191.544 248.361Z" fill="#FF5859"/>
<path d="M185.49 247.824C185.019 247.295 184.637 246.693 184.359 246.042C184.016 245.424 183.786 244.749 183.679 244.05C183.737 244.05 184.034 244.921 184.532 245.966C185.03 247.01 185.538 247.786 185.49 247.824Z" fill="#FF5859"/>
</svg>
