<svg width="418" height="322" viewBox="0 0 418 322" fill="none" xmlns="http://www.w3.org/2000/svg">
<path d="M340.745 186.199V288.091H226.215L226.988 186.199L227.46 185.211L248.44 141.103L258.466 120.02L260.511 115.733L283.871 66.6086L284.352 67.6224L316.01 134.187L340.745 186.199Z" fill="#FBB8B8"/>
<path d="M343.408 283.718L340.745 284.208L319.799 288.091H268.294L230.914 209.069L227.46 185.211L248.44 141.103L258.466 120.02L260.511 115.733L283.87 66.6086L284.352 67.6224L269.282 179.635L282.427 149.669L281.903 208.021L299.773 185.417V218.012L293.467 206.973L287.685 256.381L319.223 181.74L340.745 272.49L343.408 283.718Z" fill="#FBB8B8"/>
<path d="M258.466 120.02L256.67 123.792L277.169 99.7279L284.008 128.113L291.895 103.938L300.305 114.934L303.433 107.744L284.351 67.6224L283.87 66.6086L260.511 115.733L258.466 120.02Z" fill="white" stroke="#1E1E1E" stroke-width="0.133111" stroke-linecap="round" stroke-linejoin="round"/>
<path d="M340.745 186.199V288.091H226.215L226.988 186.199L227.46 185.211L248.44 141.103L258.466 120.02L260.511 115.733L283.871 66.6086L284.352 67.6224L316.01 134.187L340.745 186.199Z" stroke="#1E1E1E" stroke-width="0.133111" stroke-linecap="round" stroke-linejoin="round"/>
<path d="M397.722 305.059L376.098 290.531L373.056 317.559L352.446 309.449L347.386 339.175L312.247 316.21H282.522L284.206 286.141L317.282 215.022L318.777 211.818L338.262 169.927L353.803 199.661L356.467 206.053L360.204 215.022L397.722 305.059Z" fill="#FBB8B8"/>
<path d="M374.182 274.732L376.373 290.711L384.328 296.064L374.182 274.732Z" fill="#FBB8B8"/>
<path d="M352.446 309.449L368.752 315.867L366.811 309.647L360.908 299.81L365.333 293.418L364.491 268.769L348.614 290.961L347.635 243.752L331.896 275.221L340.246 173.724L338.262 169.927L318.777 211.818L317.282 215.022L284.206 286.141L282.522 316.21H312.247L347.386 339.175L352.446 309.449Z" fill="#FBB8B8"/>
<path d="M399.973 309.647L340.1 165.064L272.401 310.961" stroke="#1E1E1E" stroke-width="0.133111" stroke-linecap="round" stroke-linejoin="round"/>
<path d="M346.054 219.129L350.479 215.1L361.346 227.171L362.249 218.554L340.1 165.064L314.301 220.676L314.266 221.14L337.205 196.998L346.054 219.129Z" fill="white" stroke="#1E1E1E" stroke-width="0.133111" stroke-linecap="round" stroke-linejoin="round"/>
<path d="M299.386 341.039L301.397 364.777L285.142 356.761L263.853 346.263L243.457 336.211L232.589 344.665L202.821 332.19L176.265 357.938L155.337 339.836L130.396 345.06L132.003 320.919L174.873 225.014L180.44 212.548L218.508 127.392L230.983 155.958L242.65 171.25L293.957 295.566L303.639 283.254L335.195 357.131L299.386 341.039Z" fill="#FBB8B8"/>
<path d="M224.599 275.308L214.616 262.696L220.922 199.61L192.013 256.914L217.245 149.145L218.843 128.148L218.508 127.392L180.44 212.548L174.873 225.014L132.003 320.918L130.396 345.06L155.337 339.836L176.265 357.938L202.821 332.19L211.781 335.945L214.092 299.492L231.962 312.637L229.857 262.696L224.599 275.308Z" fill="#FBB8B8"/>
<path d="M339.267 366.83L303.639 283.254L293.957 295.565L221.197 119.891L134.718 315.36" stroke="#1E1E1E" stroke-width="0.133111" stroke-linecap="round" stroke-linejoin="round"/>
<path d="M246.962 182.109L221.197 119.891L191.042 188.054L214.505 161.928L228.878 171.877L231.086 164.695L246.962 182.109Z" fill="white" stroke="#1E1E1E" stroke-width="0.133111" stroke-linecap="round" stroke-linejoin="round"/>
<path d="M285.142 356.761L263.853 346.263L249.213 280.926L285.142 356.761Z" fill="#FBB8B8"/>
<path d="M302.385 120.02H258.466L260.511 115.725H260.64C262.684 115.519 262.891 114.092 265.751 113.68C268.612 113.268 270.666 114.909 272.917 113.886C275.167 112.864 276.602 108.972 281.104 109.591C285.606 110.209 291.946 116.747 291.946 116.747C294.403 116.747 295.426 116.137 298.089 117.16C299.709 117.794 301.174 118.77 302.385 120.02Z" fill="#1E1E1E" stroke="#1E1E1E" stroke-width="0.133111" stroke-linecap="round" stroke-linejoin="round"/>
<path d="M294.171 114.53C294.171 114.53 287.822 107.975 283.321 107.365C278.819 106.755 277.384 110.638 275.133 111.661C272.882 112.683 270.837 111.051 267.977 111.455C265.116 111.858 264.901 113.302 262.822 113.508C260.743 113.714 259.342 112.279 257.091 112.649C254.841 113.018 253.655 115.518 252.383 115.518C251.112 115.518 249.11 114.084 246.859 114.084C244.608 114.084 241.129 116.128 241.129 116.128L227.211 117.769H304.61C303.401 116.514 301.936 115.535 300.314 114.9C297.651 113.912 296.628 114.53 294.171 114.53Z" fill="white" stroke="#1E1E1E" stroke-width="0.133111" stroke-linecap="round" stroke-linejoin="round"/>
<path d="M373.185 97.9494C373.185 97.9494 366.845 91.4028 362.343 90.7842C357.841 90.1657 356.406 94.0575 354.156 95.0799C351.905 96.1022 349.86 94.4613 346.99 94.8737C344.121 95.2861 343.923 96.7122 341.879 96.9184C339.834 97.1246 338.399 95.6898 336.148 96.1022C333.897 96.5146 332.669 98.9631 331.44 98.9631C330.212 98.9631 328.167 97.5284 325.916 97.5284C323.665 97.5284 320.186 99.5817 320.186 99.5817L306.268 101.214H383.589C382.379 99.9635 380.914 98.9878 379.294 98.3531C376.665 97.3394 375.642 97.9494 373.185 97.9494Z" fill="white" stroke="#1E1E1E" stroke-width="0.133111" stroke-linecap="round" stroke-linejoin="round"/>
<path d="M334.086 238.382C334.086 238.382 322.72 226.655 314.644 225.547C306.568 224.438 304.017 231.414 299.979 233.279C295.941 235.143 292.247 232.179 287.144 232.909C282.04 233.64 281.645 236.217 277.977 236.578C274.308 236.939 271.74 234.378 267.71 235.117C263.681 235.856 261.473 240.272 259.274 240.272C257.074 240.272 253.406 237.695 249.376 237.695C245.347 237.695 239.067 241.363 239.067 241.363L214.152 244.301H352.789C350.616 242.043 347.978 240.284 345.057 239.147C340.315 237.282 338.485 238.382 334.086 238.382Z" fill="#1E1E1E" stroke="#1E1E1E" stroke-width="0.133111" stroke-linecap="round" stroke-linejoin="round"/>
<path d="M338.416 236.217C338.416 236.217 327.05 224.481 318.974 223.382C310.899 222.282 308.347 229.249 304.309 231.114C300.271 232.978 296.577 230.014 291.474 230.744C286.371 231.475 285.975 234.052 282.307 234.413C278.638 234.774 276.07 232.213 272.04 232.952C268.011 233.691 265.803 238.107 263.604 238.107C261.404 238.107 257.736 235.53 253.707 235.53C249.677 235.53 243.397 239.198 243.397 239.198L218.482 242.136H357.12C354.946 239.878 352.308 238.119 349.387 236.982C344.645 235.117 342.815 236.217 338.416 236.217Z" fill="white" stroke="#1E1E1E" stroke-width="0.133111" stroke-linecap="round" stroke-linejoin="round"/>
<path d="M360.204 215.022H317.247L318.742 211.818C319.714 212.257 320.735 212.577 321.784 212.771C323.012 212.771 324.241 210.314 326.492 209.91C328.742 209.507 330.177 210.933 332.222 210.727C334.267 210.52 334.473 209.086 337.377 208.682C340.281 208.278 342.282 209.91 344.533 208.879C346.784 207.848 348.219 203.974 352.721 204.584C354.051 204.833 355.322 205.331 356.466 206.053L360.204 215.022Z" fill="#1E1E1E" stroke="#1E1E1E" stroke-width="0.133111" stroke-linecap="round" stroke-linejoin="round"/>
<path d="M365.496 209.052C365.496 209.052 359.156 202.496 354.654 201.886C350.152 201.276 348.717 205.16 346.466 206.182C344.215 207.204 342.171 205.572 339.301 205.976C336.432 206.38 336.234 207.823 334.189 208.021C332.145 208.218 330.71 206.801 328.459 207.204C326.208 207.608 324.98 210.074 323.751 210.074C322.522 210.074 320.478 208.639 318.227 208.639C315.976 208.639 312.497 210.684 312.497 210.684L298.579 212.325H375.9C374.691 211.07 373.226 210.091 371.604 209.455C368.975 208.433 367.953 209.052 365.496 209.052Z" fill="white" stroke="#1E1E1E" stroke-width="0.133111" stroke-linecap="round" stroke-linejoin="round"/>
<path d="M248.139 225.014H174.873L180.44 212.548C182.032 212.765 183.653 212.536 185.123 211.887C189.942 209.704 193.001 201.388 202.632 202.703C212.262 204.017 225.828 218.012 225.828 218.012C231.077 218.012 233.268 216.706 238.955 218.871C242.423 220.235 245.555 222.33 248.139 225.014Z" fill="#1E1E1E" stroke="#1E1E1E" stroke-width="0.133111" stroke-linecap="round" stroke-linejoin="round"/>
<path d="M228.929 215.349C228.929 215.349 215.364 201.345 205.733 200.03C196.102 198.716 193.044 207.032 188.224 209.223C183.404 211.414 179.04 207.909 172.914 208.785C166.789 209.661 166.351 212.72 161.969 213.158C157.588 213.596 154.529 210.538 149.718 211.44C144.907 212.342 142.278 217.565 139.658 217.565C137.037 217.565 132.656 214.498 127.836 214.498C123.016 214.498 115.585 218.88 115.585 218.88L85.8419 222.359H251.249C248.663 219.678 245.527 217.588 242.057 216.234C236.369 214.034 234.187 215.349 228.929 215.349Z" fill="white" stroke="#1E1E1E" stroke-width="0.133111" stroke-linecap="round" stroke-linejoin="round"/>
<path d="M189.813 64.6497C189.813 64.6497 176.248 50.6459 166.617 49.3314C156.986 48.017 153.928 56.3333 149.108 58.5241C144.288 60.7149 139.924 57.2096 133.79 58.0859C127.656 58.9622 127.226 62.0207 122.853 62.4589C118.48 62.897 115.413 59.8815 110.602 60.7406C105.791 61.5998 103.171 66.8576 100.542 66.8576C97.9127 66.8576 93.5397 63.7905 88.7286 63.7905C83.9175 63.7905 76.4775 68.1721 76.4775 68.1721L46.7174 71.6687H212.133C209.545 68.9902 206.409 66.901 202.941 65.5431C197.253 63.3352 195.063 64.6497 189.813 64.6497Z" fill="white" stroke="#1E1E1E" stroke-width="0.133111" stroke-linecap="round" stroke-linejoin="round"/>
<path d="M371.398 341.675C371.398 341.675 351.887 321.537 338.038 319.647C324.189 317.757 319.79 329.716 312.866 332.869C305.941 336.022 299.644 330.979 290.838 332.233C282.032 333.487 281.388 337.903 275.099 338.53C268.81 339.157 264.403 334.75 257.478 336.013C250.554 337.276 246.773 344.828 243.002 344.828C239.23 344.828 232.933 340.42 226.008 340.42C219.084 340.42 208.379 346.709 208.379 346.709L165.603 351.744H403.495C399.777 347.89 395.269 344.886 390.282 342.938C382.103 339.785 378.95 341.675 371.398 341.675Z" fill="white" stroke="#1E1E1E" stroke-width="0.133111" stroke-linecap="round" stroke-linejoin="round"/>
<path d="M283.871 66.6083V31.3669" stroke="#1E1E1E" stroke-width="0.133111" stroke-linecap="round" stroke-linejoin="round"/>
<path d="M306.328 60.6375V54.1167C307.682 54.8502 308.831 55.9104 309.67 57.201C309.815 57.4744 309.93 57.7624 310.014 58.0601C309.186 57.9375 308.344 58.1363 307.658 58.6156C306.973 59.0949 306.497 59.8183 306.328 60.6375Z" fill="#1E1E1E" stroke="#1E1E1E" stroke-width="0.133111" stroke-linecap="round" stroke-linejoin="round"/>
<path d="M292.238 35.2762C287.161 35.4652 284.506 33.4806 283.836 32.9565V42.6647L284.008 53.9192C285.52 56.299 296.139 56.299 302.213 56.299C308.287 56.299 310.014 58.0172 310.014 58.0172V36.7882C306.766 33.7641 298.089 35.07 292.238 35.2762Z" fill="#FF5859" stroke="#1E1E1E" stroke-width="0.133111" stroke-miterlimit="10"/>
<path d="M310.014 37.7246C309.133 37.0706 308.069 36.71 306.972 36.6936C303.218 36.6936 300.168 40.9892 300.168 46.3674C300.168 51.7455 303.218 56.0325 306.972 56.0325C308.069 56.0162 309.133 55.6555 310.014 55.0016V37.7246Z" fill="white" stroke="#1E1E1E" stroke-width="0.133111" stroke-linecap="round" stroke-linejoin="round"/>
<path d="M310.014 58.0343C310.014 58.0343 306.225 57.7508 306.328 60.6117C306.38 61.9777 308.046 62.9915 314.129 62.5619C320.212 62.1323 329.542 63.4983 329.542 63.4983L323.682 53.1115L332.351 49.675C329.212 47.3373 325.7 45.5479 321.964 44.3828C318.083 43.2136 314.039 42.6798 309.988 42.802L310.014 58.0343Z" fill="#FF5859" stroke="#1E1E1E" stroke-width="0.133111" stroke-miterlimit="10"/>
<path d="M307.161 54.7353V53.5841C306.72 53.5542 306.292 53.4174 305.915 53.1854C305.537 52.9534 305.222 52.6333 304.996 52.2525C304.494 51.3851 304.225 50.4025 304.215 49.4002L305.632 49.0651C305.662 49.5362 305.728 50.0044 305.83 50.4655C305.907 50.871 306.071 51.2549 306.311 51.5909C306.422 51.7407 306.566 51.8638 306.731 51.9515C306.896 52.0391 307.078 52.0891 307.264 52.0978C307.437 52.1256 307.613 52.1104 307.778 52.0534C307.943 51.9965 308.091 51.8996 308.209 51.7714C308.442 51.4375 308.554 51.0346 308.527 50.6287C308.549 50.1038 308.424 49.5831 308.167 49.1253C307.915 48.7004 307.628 48.298 307.307 47.9225L305.374 45.7661C305.143 45.5008 304.938 45.213 304.764 44.9069C304.591 44.5986 304.467 44.2653 304.395 43.919C304.309 43.5269 304.268 43.1262 304.275 42.7248C304.218 41.9312 304.464 41.1456 304.962 40.5254C305.204 40.2743 305.5 40.0812 305.827 39.9607C306.155 39.8402 306.505 39.7953 306.852 39.8295V38.7126H307.35V39.8295C307.718 39.8858 308.072 40.0143 308.39 40.2075C308.69 40.3968 308.945 40.6489 309.137 40.9464C309.358 41.2802 309.521 41.6491 309.618 42.0375C309.746 42.5211 309.827 43.016 309.859 43.5152L308.493 43.833C308.469 43.4111 308.411 42.9916 308.321 42.5787C308.252 42.2265 308.099 41.8963 307.874 41.6165C307.76 41.49 307.619 41.3904 307.462 41.3251C307.304 41.2597 307.134 41.2301 306.964 41.2385C306.623 41.2203 306.29 41.3377 306.036 41.5649C305.913 41.7082 305.819 41.8749 305.762 42.055C305.704 42.235 305.684 42.4248 305.701 42.6131C305.689 42.9627 305.751 43.311 305.881 43.6354C306.03 43.9484 306.224 44.2378 306.457 44.4946L308.399 46.651C308.692 46.9879 308.959 47.3469 309.198 47.7249C309.452 48.1283 309.657 48.561 309.807 49.0136C309.967 49.5163 310.045 50.0412 310.039 50.5686C310.051 51.1107 309.948 51.6493 309.739 52.1494C309.571 52.561 309.285 52.9133 308.916 53.1613C308.547 53.4092 308.113 53.5415 307.668 53.5412V54.7096L307.161 54.7353Z" fill="#1E1E1E"/>
<path d="M300.993 7.18286V18.2398" stroke="#1E1E1E" stroke-width="0.133111" stroke-linecap="round" stroke-linejoin="round"/>
<path d="M300.993 72.4502V83.5071" stroke="#1E1E1E" stroke-width="0.133111" stroke-linecap="round" stroke-linejoin="round"/>
<path d="M259.935 22.4492L272.564 32.4494" stroke="#1E1E1E" stroke-width="0.133111" stroke-linecap="round" stroke-linejoin="round"/>
<path d="M339.946 22.4492L327.308 32.4494" stroke="#1E1E1E" stroke-width="0.133111" stroke-linecap="round" stroke-linejoin="round"/>
<path d="M339.946 79.6413L327.308 69.6411" stroke="#1E1E1E" stroke-width="0.133111" stroke-linecap="round" stroke-linejoin="round"/>
<path d="M259.411 79.6413L272.04 69.6411" stroke="#1E1E1E" stroke-width="0.133111" stroke-linecap="round" stroke-linejoin="round"/>
<path d="M267.307 50.8691H250.459" stroke="#1E1E1E" stroke-width="0.133111" stroke-linecap="round" stroke-linejoin="round"/>
<path d="M353.623 50.8691H336.784" stroke="#1E1E1E" stroke-width="0.133111" stroke-linecap="round" stroke-linejoin="round"/>
<path d="M125.078 372.955L131.29 358.548C131.29 358.548 133.773 352.087 135.268 350.102C136.56 348.193 137.723 346.198 138.747 344.132L146.702 332.207L154.658 307.842L132.587 315.205L115.619 328.255L92.4229 339.673L12.1634 355.996" fill="white"/>
<path d="M125.078 372.955L131.29 358.548C131.29 358.548 133.773 352.087 135.268 350.102C136.56 348.193 137.723 346.198 138.747 344.132L146.702 332.207L154.658 307.842L132.587 315.205L115.619 328.255L92.4229 339.673L12.1634 355.996" stroke="#1E1E1E" stroke-width="0.133111" stroke-linecap="round" stroke-linejoin="round"/>
<path d="M12.9796 294.921H110.911L154.658 307.842L150.182 314.801L141.23 317.791L131.29 320.274L123.334 331.709L116.874 337.173L95.4986 340.652L10.4881 359.544" fill="white"/>
<path d="M12.9796 294.921H110.911L154.658 307.842L150.182 314.801L141.23 317.791L131.29 320.274L123.334 331.709L116.874 337.173L95.4986 340.652L10.4881 359.544" stroke="#1E1E1E" stroke-width="0.133111" stroke-linecap="round" stroke-linejoin="round"/>
<path d="M131.29 320.274L132.286 338.668L126.814 349.106L122.836 355.567L112.028 372.956" fill="white"/>
<path d="M131.29 320.274L132.286 338.668L126.814 349.106L122.836 355.567L112.028 372.956" stroke="#1E1E1E" stroke-width="0.133111" stroke-linecap="round" stroke-linejoin="round"/>
<path opacity="0.21" d="M104.356 315.695C104.356 318.693 88.2218 321.116 68.3158 321.116C48.4099 321.116 32.2325 318.693 32.2325 315.695C32.2325 312.696 48.3755 310.273 68.3158 310.273C88.2561 310.273 104.356 312.705 104.356 315.695Z" fill="#FF5859"/>
<path d="M124.443 115.613C124.443 115.613 126.728 113.74 128.077 112.812C129.425 111.884 131.822 109.273 132.029 108.233C132.235 107.193 133.377 100.956 133.377 100.956C132.576 100.91 131.771 100.98 130.989 101.162C129.434 101.48 128.077 101.893 128.077 101.893L123.918 106.884L124.443 115.613Z" fill="white" stroke="#1E1E1E" stroke-width="0.133111" stroke-miterlimit="10"/>
<path d="M130.053 101.377C130.053 101.377 129.743 103.095 130.362 103.662C130.98 104.229 134.52 104.281 135.044 103.241C135.568 102.202 135.671 100.441 135.044 100.441C134.417 100.441 130.053 101.377 130.053 101.377Z" fill="white" stroke="#1E1E1E" stroke-width="0.133111" stroke-miterlimit="10"/>
<path d="M132.656 104.496C132.656 104.496 127.767 104.702 127.561 105.355C127.355 106.008 127.037 107.228 127.355 107.434C127.673 107.64 132.759 107.649 133.274 107.022C133.79 106.394 134.52 103.869 132.656 104.496Z" fill="white" stroke="#1E1E1E" stroke-width="0.133111" stroke-miterlimit="10"/>
<path d="M132.338 107.296C132.338 107.296 127.458 107.503 127.243 108.156C127.029 108.809 126.728 110.028 127.037 110.235C127.346 110.441 132.441 110.441 132.965 109.822C133.489 109.204 134.211 106.678 132.338 107.296Z" fill="white" stroke="#1E1E1E" stroke-width="0.133111" stroke-miterlimit="10"/>
<path d="M130.912 109.977C130.912 109.977 127.218 110.132 127.063 110.604C126.908 111.077 126.668 112.022 126.9 112.176C127.132 112.331 130.989 112.331 131.376 111.859C131.762 111.386 132.321 109.505 130.912 109.977Z" fill="white" stroke="#1E1E1E" stroke-width="0.133111" stroke-miterlimit="10"/>
<path d="M152.605 97.4683L119.099 102.529H118.686H118.351C117.681 102.449 117.061 102.129 116.608 101.628C116.155 101.127 115.899 100.479 115.888 99.8034C115.876 99.128 116.11 98.4713 116.546 97.9551C116.981 97.4388 117.589 97.098 118.257 96.9957L150.397 92.1588L151.763 91.9527C152.128 91.8854 152.504 91.8921 152.867 91.9723C153.23 92.0526 153.573 92.2048 153.877 92.4199C154.18 92.635 154.437 92.9087 154.633 93.2249C154.829 93.541 154.959 93.8932 155.017 94.2606C155.074 94.628 155.057 95.0031 154.967 95.3639C154.877 95.7247 154.716 96.0638 154.493 96.3612C154.269 96.6586 153.989 96.9083 153.668 97.0955C153.346 97.2827 152.991 97.4036 152.622 97.4511L152.605 97.4683Z" fill="white" stroke="#1E1E1E" stroke-width="0.133111" stroke-miterlimit="10"/>
<path d="M150.225 97.7346L118.351 102.546C117.681 102.466 117.061 102.146 116.608 101.645C116.155 101.144 115.899 100.496 115.888 99.8206C115.876 99.1452 116.11 98.4885 116.546 97.9723C116.981 97.456 117.589 97.1152 118.257 97.0129L150.397 92.176C151.044 92.3166 151.621 92.6796 152.027 93.2019C152.434 93.7242 152.644 94.3727 152.622 95.0342C152.599 95.6957 152.345 96.3283 151.904 96.8218C151.463 97.3153 150.863 97.6383 150.208 97.7346H150.225Z" fill="#FF5859" stroke="#1E1E1E" stroke-width="0.133111" stroke-miterlimit="10"/>
<path d="M95.6446 105.235C95.1378 105.243 94.647 105.058 94.2727 104.716C93.8984 104.374 93.6691 103.902 93.6317 103.397C93.5944 102.891 93.7518 102.391 94.0718 101.998C94.3918 101.605 94.85 101.349 95.3525 101.283L118.351 97.7862C118.617 97.7297 118.892 97.7282 119.158 97.7817C119.425 97.8353 119.677 97.9427 119.901 98.0975C120.124 98.2523 120.314 98.4512 120.457 98.6818C120.601 98.9125 120.696 99.1701 120.737 99.4389C120.777 99.7077 120.762 99.9819 120.693 100.245C120.623 100.507 120.501 100.753 120.333 100.967C120.165 101.181 119.955 101.358 119.717 101.488C119.478 101.617 119.215 101.697 118.944 101.721L95.9109 105.158L95.6446 105.235Z" fill="#FF5859" stroke="#1E1E1E" stroke-width="0.133111" stroke-miterlimit="10"/>
<path d="M118.618 117.073C118.618 117.073 121.324 107.924 121.53 106.257C121.736 104.59 123.609 103.138 123.609 103.138C123.609 103.138 127.046 100.338 127.905 98.8427C128.764 97.3478 129.468 99.152 129.468 100.406C129.468 101.661 125.413 105.501 125.413 105.501C125.78 107.199 126.021 108.922 126.135 110.656C125.971 112.119 125.513 113.533 124.786 114.814L122.81 120.527L118.618 117.073Z" fill="white" stroke="#1E1E1E" stroke-width="0.133111" stroke-miterlimit="10"/>
<path d="M117.578 115.716L125.379 121.438L122.57 126.215L115.396 120.192L117.578 115.716Z" fill="white" stroke="#1E1E1E" stroke-width="0.133111" stroke-miterlimit="10"/>
<path d="M115.602 119.153L125.276 126.945C125.276 126.945 105.001 156.885 103.755 157.719C102.611 158.339 101.384 158.794 100.112 159.068L95.3354 144.308L115.602 119.153Z" fill="#FF5859" stroke="#1E1E1E" stroke-width="0.133111" stroke-miterlimit="10"/>
<path d="M87.7492 122.787L92.526 125.802H90.0345L88.7888 126.945L86.4949 126.739L85.6702 124.032L87.7492 122.787Z" fill="white" stroke="#1E1E1E" stroke-width="0.133111" stroke-linecap="round" stroke-linejoin="round"/>
<path d="M93.7718 91.6003C93.7718 91.6003 96.6842 98.8771 96.2718 99.6073C95.8595 100.338 95.2323 101.48 95.4127 102.185C95.5931 102.889 98.5313 106.48 98.222 107.073C97.5093 108.117 96.7437 109.123 95.9282 110.089C95.9282 110.089 94.8886 114.762 95.0691 115.183C95.2495 115.604 96.2117 116.738 95.5845 117.881C94.9574 119.024 93.3594 119.264 92.3199 119.264C91.5202 119.245 90.7225 119.176 89.9315 119.058L86.916 124.771L69.974 118.328L72.5514 112.606C71.3995 109.587 71.2163 106.284 72.0273 103.156C73.3847 97.8547 83.574 91.7205 87.8352 91.1277C92.0965 90.5349 93.7718 91.6003 93.7718 91.6003Z" fill="white" stroke="#1E1E1E" stroke-width="0.133111" stroke-linecap="round" stroke-linejoin="round"/>
<path d="M89.8283 92.949C89.8283 92.949 92.526 96.4886 92.0105 97.5281C91.0877 98.8034 90.0433 99.9859 88.8919 101.059C88.8919 101.059 89.751 104.702 89.3043 105.114C89.0339 105.342 88.7165 105.507 88.3749 105.597C88.0333 105.688 87.6759 105.702 87.3283 105.638C86.9159 105.424 84.3127 100.484 82.6546 101.583C80.9965 102.683 80.6786 105.424 81.4003 106.987C81.7776 107.824 82.232 108.623 82.7577 109.375C82.7577 109.375 78.5995 113.224 76.3143 113.671C74.029 114.118 72.2592 114.298 71.632 113.362C71.0049 112.425 67.1646 104.006 67.0615 98.078C66.9584 92.15 70.9018 87.1671 73.2987 86.0502C75.6957 84.9334 80.2577 84.8045 80.2577 84.8045C80.2577 84.8045 80.5755 82.0982 83.7973 82.2271C87.019 82.356 90.3438 84.9334 90.3438 84.9334C90.3438 84.9334 89.3042 81.1876 91.7957 83.3698C94.2872 85.5519 96.0913 86.8063 95.5415 90.2428C94.9917 93.6793 89.8283 92.949 89.8283 92.949Z" fill="#1E1E1E" stroke="#1E1E1E" stroke-width="0.133111" stroke-linecap="round" stroke-linejoin="round"/>
<path d="M82.7578 109.376L85.043 110.003L85.9795 111.876" stroke="#1E1E1E" stroke-width="0.133111" stroke-linecap="round" stroke-linejoin="round"/>
<path d="M92.3198 119.264C91.5983 118.898 90.9035 118.482 90.2407 118.018C89.3815 117.391 87.5344 116.042 87.5344 116.042L88.574 121.025L89.9314 119.058L92.3198 119.264Z" fill="#1E1E1E" stroke="#1E1E1E" stroke-width="0.133111" stroke-linecap="round" stroke-linejoin="round"/>
<path d="M65.9189 116.755L64.9824 121.12L85.5585 126.842L95.5415 135.467L87.5345 125.905L86.2887 122.89L65.9189 116.755Z" fill="white" stroke="#1E1E1E" stroke-width="0.133111" stroke-linecap="round" stroke-linejoin="round"/>
<path d="M88.7887 126.945C88.7887 126.945 94.5534 128.938 98.9522 140.854C103.351 152.77 115.697 200.22 115.697 200.22L108.884 201.938C106.804 190.474 104.009 179.152 100.516 168.037C95.1548 151.49 88.7887 126.945 88.7887 126.945Z" fill="#FF5859" stroke="#1E1E1E" stroke-width="0.133111" stroke-linecap="round" stroke-linejoin="round"/>
<path d="M109.872 197.728C109.872 197.728 107.544 222.935 106.564 235.014C105.585 247.093 95.9539 279.749 94.8113 284.156C93.6686 288.563 93.1789 302.112 93.1789 302.112L94.8113 303.255V304.56L100.361 308.152C100.361 308.152 108.523 311.098 106.727 312.894C104.932 314.689 101.667 314.037 97.0965 314.037C92.526 314.037 87.6462 312.404 86.1599 312.404C84.9604 312.453 83.7589 312.398 82.5687 312.241C81.9158 312.078 80.4467 312.731 80.4467 311.262C80.186 308.901 79.8046 306.555 79.3041 304.234C79.3041 304.234 77.9724 302.258 77.9724 300.969C77.9724 299.681 78.2989 295.256 78.9518 293.624C79.6047 291.991 80.5842 285.462 80.5842 285.462L81.5636 268.322L75.8504 280.728L70.9534 301.296C70.9534 301.296 73.4019 302.112 73.4019 302.765C73.4019 303.418 72.9122 306.356 72.9122 306.356C72.9122 306.356 76.0136 309.457 77.4827 310.652C80.3808 312.501 83.3779 314.19 86.4606 315.712C86.9503 315.875 89.0379 317.671 87.7664 318.487C86.4949 319.303 79.9312 319.793 74.7077 319.793C69.4842 319.793 62.7831 317.507 62.7831 317.507L61.314 318.487L55.9272 317.181C55.2743 317.018 54.9478 314.079 55.0681 312.937C55.1509 311.902 55.1509 310.862 55.0681 309.827C55.0681 309.174 54.5784 305.746 54.9049 304.603C55.2314 303.461 56.374 300.359 56.374 300.359C56.374 300.359 58.8225 273.915 59.4754 269.835C60.1284 265.754 64.6044 256.724 64.6044 256.724C64.6044 256.724 66.8983 240.719 67.1818 237.617C67.4653 234.516 67.6715 222.763 67.6715 222.763C66.1028 218.786 64.8447 214.692 63.9085 210.52C62.9291 205.297 63.7453 204.154 63.7453 204.154L65.9447 195.993L109.872 197.728Z" fill="#1E1E1E" stroke="#1E1E1E" stroke-width="0.133111" stroke-linecap="round" stroke-linejoin="round"/>
<path d="M84.7681 264.035C84.7681 264.035 89.7425 247.463 90.5672 242.489C91.392 237.514 96.9248 218.725 96.9248 218.725L102.174 215.134" stroke="#FBB8B8" stroke-width="0.133111" stroke-linecap="round" stroke-linejoin="round"/>
<path d="M65.7042 261.553C65.7042 261.553 77.5859 254.371 84.4933 241.939" stroke="#FBB8B8" stroke-width="0.133111" stroke-linecap="round" stroke-linejoin="round"/>
<path d="M86.1427 234.473C86.1427 234.473 78.9604 245.53 73.9861 249.937" stroke="#FBB8B8" stroke-width="0.133111" stroke-linecap="round" stroke-linejoin="round"/>
<path d="M98.7633 143.474C98.7633 143.474 107.183 183.544 108.317 188.93C109.451 194.317 109.872 197.728 109.872 197.728C108.141 198.07 106.391 198.306 104.631 198.432C103.068 198.432 99.6654 198.295 99.6654 198.295L94.5106 141.275L98.7633 143.474Z" fill="white" stroke="#1E1E1E" stroke-width="0.133111" stroke-linecap="round" stroke-linejoin="round"/>
<path d="M62.5081 119.565V123.929C62.5081 123.929 57.7314 143.062 58.35 149.084C58.9685 155.107 64.9051 174.454 64.9051 174.454C64.9051 174.454 63.4446 176.843 63.3415 177.152C63.436 178.068 63.6113 178.974 63.8655 179.858L58.539 206.036C58.539 206.036 78.8057 210.332 92.1136 209.155C105.421 207.978 106.324 207.299 106.324 207.299C106.324 207.299 104.605 182.565 104.691 176.74C104.777 170.915 99.9059 146.284 98.7632 143.474C97.6206 140.665 95.5415 135.467 95.5415 135.467L85.5585 126.876L62.5081 119.565Z" fill="#FF5859" stroke="#1E1E1E" stroke-width="0.133111" stroke-linecap="round" stroke-linejoin="round"/>
<path d="M77.8693 150.751C77.8693 150.751 66.8553 160.734 65.2917 161.361" stroke="#1E1E1E" stroke-width="0.133111" stroke-linecap="round" stroke-linejoin="round"/>
<path d="M81.091 150.442C81.091 150.442 77.9724 155.537 76.6235 157.822" stroke="#1E1E1E" stroke-width="0.133111" stroke-linecap="round" stroke-linejoin="round"/>
<path d="M79.7422 158.337L76.4174 164.678" stroke="#1E1E1E" stroke-width="0.133111" stroke-linecap="round" stroke-linejoin="round"/>
<path d="M99.9059 112.391C99.9059 112.391 100.224 105.011 100.533 103.8C101.427 101.568 102.433 99.3829 103.549 97.2532C103.549 97.2532 105.207 95.8958 105.937 96.3941C106.667 96.8924 106.564 98.1124 106.564 98.1124C106.564 98.1124 107.81 96.3941 108.54 96.5573C109.27 96.7206 109.992 98.224 109.992 98.224C110.733 97.9995 111.518 97.9611 112.277 98.1124C113.136 98.4302 113.738 98.224 113.523 99.1519C113.308 100.08 111.238 105.166 111.238 105.166C111.238 105.166 115.602 103.508 115.602 104.307C115.602 105.106 114.881 105.458 113.944 106.076C113.008 106.695 109.58 108.465 109.58 108.465L107.002 111.042L106.59 113.431L99.9059 112.391Z" fill="white" stroke="#1E1E1E" stroke-width="0.133111" stroke-linecap="round" stroke-linejoin="round"/>
<path d="M100.31 116.24L99.8887 112.391C100.864 112.086 101.883 111.947 102.904 111.979C104.493 112.233 106.059 112.615 107.586 113.122L107.793 117.074L100.31 116.24Z" fill="white" stroke="#1E1E1E" stroke-width="0.133111" stroke-linecap="round" stroke-linejoin="round"/>
<path d="M64.9825 132.039C64.9825 132.039 69.1406 130.897 70.3864 130.794C71.6321 130.691 98.454 133.182 98.454 133.182L99.8028 114.891C100.804 114.712 101.832 114.747 102.818 114.994L110.404 117.177C110.404 117.177 110.825 136.077 110.825 140.373V147.341C110.012 147.645 109.176 147.886 108.325 148.062C107.183 148.277 78.8058 150.64 73.6081 150.64C68.4104 150.64 62.9034 151.052 61.649 145.76" fill="#FF5859"/>
<path d="M64.9825 132.039C64.9825 132.039 69.1406 130.897 70.3864 130.794C71.6321 130.691 98.454 133.182 98.454 133.182L99.8028 114.891C100.804 114.712 101.832 114.747 102.818 114.994L110.404 117.177C110.404 117.177 110.825 136.077 110.825 140.373V147.341C110.012 147.645 109.176 147.886 108.325 148.062C107.183 148.277 78.8058 150.64 73.6081 150.64C68.4104 150.64 62.9034 151.052 61.649 145.76" stroke="#1E1E1E" stroke-width="0.133111" stroke-linecap="round" stroke-linejoin="round"/>
</svg>
