<?xml version="1.0" encoding="UTF-8"?><svg xmlns="http://www.w3.org/2000/svg" viewBox="0 0 1989.81 488.39"><g id="a"/><g id="b"><g id="c"><g><path d="M330.41,256.61c-8.28-9.16-20.36-17.88-36.23-26.16-15.88-8.27-28.96-14.19-39.25-17.78-10.29-3.58-24.82-8.27-43.61-14.09-34.44-10.28-57.14-19.68-68.09-28.18-10.97-8.49-16.44-18.55-16.44-30.19,0-9.83,4.36-18.22,13.08-25.16,8.72-6.93,21.13-10.4,37.23-10.4,20.57,0,37.12,4.59,49.65,13.75,12.52,9.17,23.03,22.7,31.53,40.59l90.57-53c-17-34.43-40.25-60.71-69.77-78.83C249.56,9.06,215.57,0,177.11,0c-42.94,0-79.95,12.98-111.03,38.91-31.09,25.94-46.63,60.61-46.63,103.99,0,21.47,3.69,40.48,11.07,57.02,7.38,16.55,18.11,30.31,32.2,41.26,14.09,10.96,28.51,19.79,43.27,26.5,14.76,6.71,31.97,12.75,51.66,18.11,37.57,10.29,63.17,19.35,76.81,27.17,13.64,7.83,20.46,18.68,20.46,32.54,0,25.49-21.25,38.24-63.73,38.24-46.96,0-79.83-21.69-98.62-65.07L0,372.33c13.42,35.79,36.11,64.07,68.09,84.86,31.97,20.8,71.89,31.19,119.75,31.19,51.88,0,93.92-12.85,126.12-38.58,32.2-25.71,48.3-60.93,48.3-105.66,0-19.22-3.25-36.33-9.73-51.32-6.49-14.98-13.87-27.05-22.14-36.23Z"/><path d="M707.1,56.35c-31.76-31.3-70.67-46.95-116.73-46.95h-177.78V479h107.33v-147.59h70.44c46.06,0,84.97-15.65,116.73-46.97,31.75-31.3,47.64-69.32,47.64-114.04s-15.89-82.74-47.64-114.06Zm-75.81,156.99c-10.74,11.64-24.38,17.45-40.92,17.45h-70.44V110.03h70.44c16.54,0,30.19,5.81,40.92,17.43,10.74,11.64,16.1,25.94,16.1,42.94s-5.36,31.3-16.1,42.93Z"/><path d="M1824.75,238.14L1983.11,9.41h-122.1l-143.57,203.88V9.41h-107.34V358.75c4.72,1.35,51.81,5.8,107.34-31.04v-65.66l150.28,216.96h122.1l-165.07-240.88Z"/><path d="M1594.8,376.64c-50.79-10.29-90.59-47.17-112.69-72.43l3.44-.66c23.35-13.15,42.4-31.06,57.12-53.64,15.87-24.39,23.82-50.89,23.82-79.5,0-44.75-15.66-82.75-46.96-114.05-31.33-31.33-69.34-46.96-114.05-46.96h-187.84V479.02h107.34v-154.3h47.5c.23,.36,5.89,9.47,6.45,10.31,9.83,14.91,80.37,116.35,194.95,140.04,16.23,3.35,32.47,5.03,48.71,5.03,53.09,0,106.11-17.9,158.19-53.5l-56.79-83.08c-45.02,30.77-87.26,41.61-129.18,33.11ZM1324.98,110.04h80.5c14.76,0,27.37,5.8,37.9,17.44,10.5,11.61,15.77,25.93,15.77,42.94s-5.27,31.3-15.77,42.94c-10.53,11.61-23.14,17.44-37.9,17.44h-80.5V110.04Z"/><polygon points="882.37 6.42 720.69 481.95 839.58 481.95 863.35 407.22 952.02 130.73 1046.29 407.22 1071.77 481.95 1182.99 481.95 1020.96 6.42 882.37 6.42"/></g></g></g></svg>