<svg width="105" height="26" viewBox="0 0 105 26" fill="none" xmlns="http://www.w3.org/2000/svg">
<path d="M9.81652 25.5697C7.35098 25.5697 5.29778 25.0341 3.65267 23.9628C2.00756 22.8916 0.838553 21.4378 0.149902 19.5929L4.9152 16.8298C5.88016 19.0615 7.57203 20.1795 9.99081 20.1795C12.1758 20.1795 13.2725 19.5249 13.2725 18.2113C13.2725 17.4972 12.9197 16.9403 12.2183 16.5365C11.5169 16.1326 10.1991 15.6693 8.26493 15.1379C7.25321 14.8616 6.36476 14.5513 5.6081 14.207C4.85143 13.8626 4.10752 13.4078 3.38061 12.8424C2.6537 12.277 2.10108 11.5714 1.72275 10.7169C1.34441 9.86675 1.15312 8.88479 1.15312 7.7838C1.15312 5.55206 1.9523 3.76667 3.5549 2.43188C5.149 1.09708 7.05767 0.429688 9.2639 0.429688C11.2448 0.429688 12.992 0.89729 14.5138 1.82824C16.0314 2.7592 17.2301 4.11524 18.1058 5.88363L13.4426 8.61273C13.0047 7.69028 12.4648 6.99737 11.8187 6.52552C11.1726 6.05367 10.3224 5.81562 9.2639 5.81562C8.43497 5.81562 7.79733 5.99415 7.34673 6.35123C6.89613 6.70831 6.67508 7.14191 6.67508 7.64777C6.67508 8.24715 6.95564 8.76576 7.52102 9.20361C8.08639 9.64145 9.25115 10.1261 11.0238 10.6532C11.9887 10.9507 12.7369 11.193 13.2683 11.3801C13.7996 11.5629 14.4713 11.8689 15.2875 12.294C16.1036 12.7191 16.7243 13.1697 17.1536 13.6416C17.5787 14.1134 17.9571 14.7341 18.2929 15.5077C18.6244 16.2772 18.7945 17.1613 18.7945 18.1476C18.7945 20.4516 17.9656 22.2625 16.3077 23.5845C14.6498 24.9065 12.4861 25.5697 9.81652 25.5697Z" fill="#1227E2"/>
<path d="M36.5465 3.32894C34.9099 1.71783 32.9077 0.910156 30.5399 0.910156H21.3877V6.08779H30.5399C31.3901 6.08779 32.0958 6.38535 32.6484 6.98474C33.201 7.58412 33.4773 8.31953 33.4773 9.19522C33.4773 10.0709 33.201 10.8063 32.6484 11.4057C32.0958 12.0051 31.3944 12.3026 30.5399 12.3026H21.3877V25.0767H26.9139V17.4803H30.5399C32.912 17.4803 34.9142 16.6726 36.5465 15.0615C38.1789 13.4504 38.9993 11.495 38.9993 9.19097C38.9993 6.88696 38.1831 4.93154 36.5465 3.32043V3.32894Z" fill="#1227E2"/>
<path d="M78.3628 3.32894C76.7517 1.71783 74.792 0.910156 72.4923 0.910156H62.8257V25.0809H68.3519V17.1402H70.9705L76.62 16.052C77.823 15.3761 78.8007 14.4536 79.5616 13.2931C80.3778 12.0391 80.7859 10.6745 80.7859 9.19947C80.7859 6.89547 79.9782 4.94004 78.3671 3.32894H78.3628ZM74.4435 11.41C73.8994 12.0093 73.2532 12.3069 72.4923 12.3069H68.3476V6.09204H72.4923C73.2532 6.09204 73.8994 6.38961 74.4435 6.98899C74.9833 7.58837 75.2554 8.32378 75.2554 9.19947C75.2554 10.0752 74.9833 10.8106 74.4435 11.41Z" fill="#1227E2"/>
<path d="M94.0698 12.6849L102.223 0.914062H95.9402L88.5521 11.4096V0.914062H83.0259V18.8955C83.2682 18.9635 85.6912 19.1931 88.5521 17.2971V13.9177L96.2888 25.0849H102.572L94.074 12.6849H94.0698Z" fill="#1227E2"/>
<path d="M83.6638 25.1403C82.8264 25.1403 81.9932 25.0553 81.1558 24.881C75.2597 23.661 71.6294 18.4408 71.1236 17.6714C71.0938 17.6289 70.8005 17.1528 70.792 17.1401L73.2575 16.2006L75.4425 14.8105C75.468 14.8531 78.1716 18.9892 82.2355 19.8139C84.395 20.2517 86.5672 19.6949 88.884 18.1093L91.8086 22.3857C89.1263 24.2179 86.3972 25.1403 83.6681 25.1403H83.6638Z" fill="#1227E2"/>
<path d="M61.0404 25.2343L52.7 0.761719H45.567L37.2437 25.2343H43.365L44.5893 21.3915L49.1505 7.15937L54.0051 21.3915L55.3144 25.2343H61.0404Z" fill="#1227E2"/>
<path d="M26.9139 4.1875H21.3877V20.8256H26.9139V4.1875Z" fill="#1227E2"/>
<path d="M104.166 2.55561L103.898 2.09651H103.579V2.55561H103.464V1.41211H103.923C104.017 1.41211 104.098 1.44612 104.166 1.51413C104.234 1.58215 104.268 1.66291 104.268 1.75643C104.268 1.83295 104.247 1.90097 104.2 1.96473C104.153 2.02424 104.093 2.06675 104.021 2.08801L104.302 2.55986H104.17L104.166 2.55561ZM103.575 1.51838V1.99024H103.919C103.983 1.99024 104.038 1.96898 104.081 1.92222C104.128 1.87546 104.149 1.8202 104.149 1.75643C104.149 1.69267 104.128 1.63741 104.081 1.59065C104.034 1.54389 103.983 1.52263 103.919 1.52263H103.575V1.51838Z" fill="#1227E2"/>
<path d="M103.83 3.08215C103.265 3.08215 102.806 2.62305 102.806 2.05768C102.806 1.4923 103.265 1.0332 103.83 1.0332C104.396 1.0332 104.855 1.4923 104.855 2.05768C104.855 2.62305 104.396 3.08215 103.83 3.08215ZM103.83 1.11822C103.312 1.11822 102.891 1.53906 102.891 2.05768C102.891 2.57629 103.312 2.99713 103.83 2.99713C104.349 2.99713 104.77 2.57629 104.77 2.05768C104.77 1.53906 104.349 1.11822 103.83 1.11822Z" fill="#1227E2"/>
</svg>
