<svg width="125" height="46" viewBox="0 0 125 46" fill="none" xmlns="http://www.w3.org/2000/svg">
<g clip-path="url(#clip0_7018_13916)">
<path d="M19.6666 35.14C17.2011 35.14 15.1479 34.6044 13.5028 33.5331C11.8577 32.4619 10.6887 31.0081 10 29.1632L14.7653 26.4001C15.7303 28.6318 17.4221 29.7498 19.8409 29.7498C22.0259 29.7498 23.1226 29.0952 23.1226 27.7816C23.1226 27.0675 22.7698 26.5106 22.0684 26.1068C21.367 25.7029 20.0492 25.2396 18.115 24.7082C17.1033 24.4319 16.2149 24.1216 15.4582 23.7773C14.7015 23.4329 13.9576 22.9781 13.2307 22.4127C12.5038 21.8473 11.9512 21.1417 11.5728 20.2873C11.1945 19.4371 11.0032 18.4551 11.0032 17.3541C11.0032 15.1224 11.8024 13.337 13.405 12.0022C14.9991 10.6674 16.9078 10 19.114 10C21.0949 10 22.8421 10.4676 24.3639 11.3986C25.8815 12.3295 27.0802 13.6856 27.9559 15.4539L23.2927 18.183C22.8548 17.2606 22.3149 16.5677 21.6688 16.0958C21.0227 15.624 20.1725 15.3859 19.114 15.3859C18.2851 15.3859 17.6474 15.5645 17.1968 15.9215C16.7462 16.2786 16.5252 16.7122 16.5252 17.2181C16.5252 17.8175 16.8057 18.3361 17.3711 18.7739C17.9365 19.2118 19.1012 19.6964 20.8739 20.2235C21.8388 20.5211 22.587 20.7634 23.1184 20.9504C23.6497 21.1332 24.3214 21.4393 25.1376 21.8643C25.9537 22.2894 26.5744 22.74 27.0037 23.2119C27.4288 23.6837 27.8071 24.3044 28.143 25.078C28.4745 25.8475 28.6446 26.7317 28.6446 27.7179C28.6446 30.0219 27.8157 31.8328 26.1578 33.1548C24.4999 34.4769 22.3362 35.14 19.6666 35.14Z" fill="#1227E2"/>
<path d="M46.3965 12.8992C44.7599 11.2881 42.7577 10.4805 40.3899 10.4805H31.2377V15.6581H40.3899C41.2401 15.6581 41.9458 15.9557 42.4984 16.555C43.051 17.1544 43.3273 17.8898 43.3273 18.7655C43.3273 19.6412 43.051 20.3766 42.4984 20.976C41.9458 21.5754 41.2444 21.873 40.3899 21.873H31.2377V34.647H36.7639V27.0506H40.3899C42.7619 27.0506 44.7641 26.2429 46.3965 24.6318C48.0288 23.0207 48.8493 21.0653 48.8493 18.7613C48.8493 16.4573 48.0331 14.5018 46.3965 12.8907V12.8992Z" fill="#1227E2"/>
<path d="M88.2129 12.8992C86.6018 11.2881 84.6421 10.4805 82.3423 10.4805H72.6757V34.6513H78.2019V26.7105H80.8205L86.47 25.6223C87.673 24.9464 88.6507 24.0239 89.4116 22.8634C90.2278 21.6094 90.6359 20.2449 90.6359 18.7698C90.6359 16.4658 89.8282 14.5104 88.2171 12.8992H88.2129ZM84.2935 20.9803C83.7494 21.5796 83.1032 21.8772 82.3423 21.8772H78.1977V15.6624H82.3423C83.1032 15.6624 83.7494 15.9599 84.2935 16.5593C84.8334 17.1587 85.1054 17.8941 85.1054 18.7698C85.1054 19.6455 84.8334 20.3809 84.2935 20.9803Z" fill="#1227E2"/>
<path d="M103.92 22.2552L112.073 10.4844H105.79L98.4024 20.9799V10.4844H92.8762V28.4658C93.1185 28.5338 95.5415 28.7634 98.4024 26.8675V23.488L106.139 34.6552H112.422L103.924 22.2552H103.92Z" fill="#1227E2"/>
<path d="M93.5138 34.7106C92.6764 34.7106 91.8432 34.6256 91.0057 34.4513C85.1097 33.2313 81.4794 28.0112 80.9735 27.2417C80.9438 27.1992 80.6505 26.7231 80.642 26.7104L83.1075 25.7709L85.2925 24.3809C85.318 24.4234 88.0216 28.5595 92.0855 29.3842C94.245 29.822 96.4172 29.2652 98.7339 27.6796L101.659 31.956C98.9762 33.7882 96.2471 34.7106 93.518 34.7106H93.5138Z" fill="#1227E2"/>
<path d="M70.8903 34.8046L62.55 10.332H55.417L47.0936 34.8046H53.215L54.4392 30.9618L59.0005 16.7297L63.8551 30.9618L65.1643 34.8046H70.8903Z" fill="#1227E2"/>
<path d="M36.7639 13.7578H31.2377V30.396H36.7639V13.7578Z" fill="#1227E2"/>
<path d="M114.016 12.1259L113.748 11.6668H113.429V12.1259H113.315V10.9824H113.774C113.867 10.9824 113.948 11.0164 114.016 11.0844C114.084 11.1525 114.118 11.2332 114.118 11.3267C114.118 11.4033 114.097 11.4713 114.05 11.535C114.003 11.5946 113.944 11.6371 113.872 11.6583L114.152 12.1302H114.02L114.016 12.1259ZM113.425 11.0887V11.5605H113.769C113.833 11.5605 113.889 11.5393 113.931 11.4925C113.978 11.4458 113.999 11.3905 113.999 11.3267C113.999 11.263 113.978 11.2077 113.931 11.161C113.884 11.1142 113.833 11.0929 113.769 11.0929H113.425V11.0887Z" fill="#1227E2"/>
<path d="M113.68 12.6525C113.115 12.6525 112.656 12.1934 112.656 11.628C112.656 11.0626 113.115 10.6035 113.68 10.6035C114.246 10.6035 114.705 11.0626 114.705 11.628C114.705 12.1934 114.246 12.6525 113.68 12.6525ZM113.68 10.6885C113.162 10.6885 112.741 11.1094 112.741 11.628C112.741 12.1466 113.162 12.5674 113.68 12.5674C114.199 12.5674 114.62 12.1466 114.62 11.628C114.62 11.1094 114.199 10.6885 113.68 10.6885Z" fill="#1227E2"/>
</g>
<defs>
<clipPath id="clip0_7018_13916">
<rect width="104.7" height="25.14" fill="white" transform="translate(10 10)"/>
</clipPath>
</defs>
</svg>
