<?xml version="1.0" standalone="no"?>
<!DOCTYPE svg PUBLIC "-//W3C//DTD SVG 20010904//EN"
 "http://www.w3.org/TR/2001/REC-SVG-20010904/DTD/svg10.dtd">
<svg version="1.0" xmlns="http://www.w3.org/2000/svg"
 width="225.000000pt" height="225.000000pt" viewBox="0 0 225.000000 225.000000"
 preserveAspectRatio="xMidYMid meet">

<g transform="translate(0.000000,225.000000) scale(0.100000,-0.100000)"
fill="#000000" stroke="none">
<path d="M714 1350 c-77 -31 -69 -174 10 -194 29 -7 74 8 92 32 8 9 14 40 14
68 0 40 -5 55 -22 72 -28 25 -66 34 -94 22z m75 -36 c12 -15 21 -41 21 -59 0
-41 -34 -85 -65 -85 -59 0 -86 100 -40 145 31 32 58 32 84 -1z"/>
<path d="M1513 1353 c-61 -12 -85 -116 -39 -170 20 -23 32 -28 70 -27 60 1 73
13 68 63 -4 38 -7 41 -33 41 -16 0 -29 -4 -29 -10 0 -5 9 -10 21 -10 17 0 20
-5 17 -32 -2 -28 -8 -34 -31 -36 -39 -5 -75 22 -82 61 -14 71 36 122 98 99 32
-12 48 -8 31 7 -12 12 -63 20 -91 14z"/>
<path d="M470 1255 c0 -57 4 -95 10 -95 6 0 10 35 11 83 l0 82 42 -82 c28 -57
47 -83 59 -83 16 0 18 11 18 95 0 116 -18 128 -22 14 l-3 -81 -43 81 c-59 110
-72 107 -72 -14z"/>
<path d="M970 1255 c0 -57 4 -95 10 -95 6 0 10 38 10 95 0 57 -4 95 -10 95 -6
0 -10 -38 -10 -95z"/>
<path d="M1050 1255 c0 -57 4 -95 10 -95 6 0 10 35 11 83 l0 82 24 -60 c31
-81 46 -81 76 -3 l24 63 3 -82 c4 -115 22 -105 22 12 0 85 -2 95 -18 95 -14 0
-24 -18 -42 -66 -22 -64 -24 -65 -35 -43 -7 13 -19 43 -26 67 -8 30 -18 42
-31 42 -16 0 -18 -9 -18 -95z"/>
<path d="M1326 1341 c-6 -10 -66 -170 -66 -177 0 -15 22 0 30 21 8 22 16 25
55 25 39 0 45 -3 51 -25 3 -14 12 -25 20 -25 10 0 7 17 -13 68 -14 37 -30 79
-35 95 -10 26 -31 36 -42 18z m37 -66 l16 -45 -35 0 c-19 0 -34 4 -34 9 0 12
29 81 34 81 2 0 11 -20 19 -45z"/>
<path d="M1670 1255 l0 -95 60 0 c33 0 60 4 60 10 0 6 -22 10 -50 10 l-50 0 0
35 c0 35 0 35 45 35 25 0 45 5 45 10 0 6 -20 10 -45 10 -43 0 -45 1 -45 30 0
29 1 30 50 30 28 0 50 5 50 10 0 6 -27 10 -60 10 l-60 0 0 -95z"/>
<path d="M450 938 c-18 -46 -35 -89 -37 -95 -3 -7 0 -13 6 -13 6 0 16 11 21
25 8 22 16 25 55 25 39 0 45 -3 51 -25 3 -14 12 -25 20 -25 12 0 -3 52 -51
173 -14 35 -34 15 -65 -65z m79 -35 c1 -8 -12 -13 -35 -13 -33 0 -36 2 -30 25
3 13 11 37 17 52 l11 28 18 -40 c10 -22 19 -46 19 -52z"/>
<path d="M580 1013 c0 -5 14 -47 32 -95 35 -94 58 -112 76 -60 5 15 21 57 35
95 18 47 22 67 14 67 -7 0 -26 -36 -42 -79 -16 -44 -32 -78 -35 -76 -4 3 -19
38 -35 80 -15 41 -31 75 -36 75 -5 0 -9 -3 -9 -7z"/>
<path d="M778 925 c-27 -70 -33 -95 -22 -95 7 0 16 11 20 25 5 22 12 25 50 25
38 0 46 -4 56 -25 10 -23 29 -35 27 -17 -1 29 -67 177 -79 180 -11 2 -26 -26
-52 -93z m68 30 c22 -55 19 -65 -22 -65 -25 0 -35 4 -31 13 2 6 10 29 18 50 7
20 15 37 17 37 1 0 10 -16 18 -35z"/>
<path d="M950 925 c0 -57 4 -95 10 -95 6 0 10 38 10 95 0 57 -4 95 -10 95 -6
0 -10 -38 -10 -95z"/>
<path d="M1030 925 l0 -95 63 2 62 2 -52 3 -53 4 0 90 c0 53 -4 89 -10 89 -6
0 -10 -38 -10 -95z"/>
<path d="M1203 931 c-18 -48 -33 -91 -33 -95 0 -15 18 -4 28 19 10 21 19 25
52 25 33 0 42 -4 52 -25 10 -23 28 -34 28 -17 0 4 -14 46 -32 94 -21 57 -38
88 -48 88 -10 0 -26 -31 -47 -89z m68 14 c18 -50 16 -55 -21 -55 -15 0 -29 2
-32 5 -6 6 24 95 32 95 3 0 12 -20 21 -45z"/>
<path d="M1370 925 l0 -95 54 0 c80 0 113 43 66 85 -18 16 -19 20 -5 27 8 5
15 17 15 28 0 33 -28 50 -81 50 l-49 0 0 -95z m100 60 c19 -22 -5 -45 -46 -45
-31 0 -34 3 -34 30 0 27 3 30 34 30 18 0 39 -7 46 -15z m5 -100 c0 -23 -6 -32
-26 -39 -41 -14 -59 -2 -59 39 l0 36 43 -3 c39 -3 42 -5 42 -33z"/>
<path d="M1560 925 l0 -95 58 2 c56 2 56 2 10 5 l-48 4 0 90 c0 53 -4 89 -10
89 -6 0 -10 -38 -10 -95z"/>
<path d="M1710 925 l0 -95 63 2 62 2 -52 3 -53 4 0 40 0 39 45 0 c25 0 45 5
45 10 0 6 -20 10 -45 10 -43 0 -45 1 -45 30 0 29 1 30 50 30 28 0 50 5 50 10
0 6 -27 10 -60 10 l-60 0 0 -95z"/>
</g>
</svg>
