<svg width="181" height="143" viewBox="0 0 181 143" fill="none" xmlns="http://www.w3.org/2000/svg">
<g clip-path="url(#clip0_2025_6941)">
<path d="M108.785 141.404C148.226 141.404 180.198 109.75 180.198 70.7022C180.198 31.6545 148.226 0 108.785 0C69.3448 0 37.3721 31.6545 37.3721 70.7022C37.3721 109.75 69.3448 141.404 108.785 141.404Z" fill="#D1E2FA"/>
<path d="M100.887 40.3471C100.887 40.3471 102.606 39.5494 101.659 29.4876C101.74 18.809 100.934 12.9915 109.87 11.875C117.758 12.1937 120.334 16.0186 120.496 18.1715L120.658 20.3225C120.658 20.3225 119.88 30.6303 119.988 30.949C120.095 31.2677 120.202 35.8363 120.202 35.8363C120.202 35.8363 120.364 39.4487 119.718 40.5112C119.074 41.5736 118.109 42.9548 117.41 43.2736C116.712 43.5923 115.8 44.0713 115.8 44.0713C115.8 44.0713 117.248 48.6865 116.619 51.0295C116.19 52.6288 100.353 51.242 100.889 40.3453L100.887 40.3471Z" fill="#FADED6"/>
<path d="M77.3418 134.371C80.4746 135.873 84.3041 137.422 88.7793 138.671C94.4989 140.265 99.6143 140.969 103.749 141.195C102.231 110.937 100.738 80.6194 99.2208 50.3616L99.185 49.6477C99.185 49.6477 97.8972 47.5209 98.0403 45.396C98.1834 43.2692 97.7541 41.7109 97.7541 41.7109C97.7541 41.7109 78.9986 54.4679 78.5693 55.1763C78.1401 55.8846 78.2003 132.671 77.3418 134.371Z" fill="#1227E2"/>
<path d="M23.0936 116.194C23.0936 116.194 23.0616 116.487 21.4839 117.896C20.7026 118.593 19.9834 119.348 18.048 120.181C17.2365 120.53 14.7683 122.503 14.3974 122.997C13.5784 124.092 13.1266 124.518 11.193 127.07C9.80546 128.902 6.25466 130.295 8.43672 126.984C9.08438 126.002 9.85629 125.093 10.632 124.207C11.161 123.601 11.707 123.009 12.2662 122.429C12.5636 122.119 12.8667 121.814 13.1736 121.514C13.473 121.221 13.9116 120.919 14.13 120.571C13.3638 120.653 12.6088 121.586 12.0496 122.062C11.0763 122.891 10.1387 123.758 9.20111 124.625C8.32565 125.436 7.53491 126.33 6.63121 127.109C6.18877 127.491 4.98195 128.653 4.30418 128.207C3.33835 127.57 7.79472 121.085 11.2307 119.916C10.1425 120.287 9.20111 121.02 8.24092 121.629C7.03034 122.399 5.87059 123.26 4.85393 124.271C4.14415 124.977 3.07665 126.582 1.9056 125.751C1.29749 125.318 0.986841 124.216 1.56672 123.637C2.42711 122.785 3.31199 121.957 4.20251 121.137C5.21164 120.207 6.22642 119.249 7.33722 118.436C7.49914 118.319 7.69117 118.151 7.88697 118.099C7.80978 118.537 6.88349 118.839 6.56155 119.044C5.10433 119.978 3.61134 120.955 2.02045 121.693C1.32761 122.015 0.495454 122.449 -0.272692 122.533C-1.05213 122.617 -1.59812 121.872 -1.23852 121.18C-0.850684 120.434 0.113263 119.929 0.856934 119.622C2.50619 118.94 4.25899 118.634 5.83482 117.767C7.29769 116.964 8.69277 115.842 9.67367 114.49C9.05237 115.031 8.41413 115.555 7.77401 116.073C6.93244 116.753 6.02497 117.624 5.02337 118.069C4.93488 118.108 4.78427 118.205 4.68072 118.16C4.19686 117.948 1.4594 116.619 9.08249 110.24C9.08249 110.24 13.1096 106.572 19.8196 108.168C28.2466 110.17 23.0936 116.194 23.0936 116.194Z" fill="#FADED6"/>
<path d="M86.4848 79.0351C86.4848 79.0351 80.7576 110.501 62.147 115.038C43.5364 119.573 24.0654 117.873 24.0654 117.873C24.0654 117.873 17.7658 111.069 18.9105 105.682C20.0552 100.296 50.4064 98.3123 53.5562 92.6421C56.7059 86.9719 79.0405 54.6562 79.0405 54.6562C79.0405 54.6562 89.6345 65.4281 86.4848 79.0351Z" fill="#1227E2"/>
<path d="M120.264 24.6209C125.111 24.3357 174.065 18.3281 174.065 18.3281C174.065 18.3281 175.234 32.8689 173.982 32.7739C172.728 32.6788 120.264 26.7663 120.264 26.7663C119.558 26.5184 119.146 26.0711 119.199 25.6107C119.272 24.9788 120.178 24.6526 120.264 24.6209Z" fill="#246A84"/>
<path d="M170.694 25.4446C170.694 29.5342 172.519 32.8502 174.769 32.8502C177.018 32.8502 178.843 29.5342 178.843 25.4446C178.843 21.3551 177.018 18.0391 174.769 18.0391C174.488 18.0391 174.213 18.0913 173.948 18.19C172.091 18.8797 170.694 21.8658 170.694 25.4446Z" fill="#246A84"/>
<path d="M174.758 31.2359C176.472 31.2359 177.861 28.6105 177.861 25.3719C177.861 22.1332 176.472 19.5078 174.758 19.5078C173.044 19.5078 171.655 22.1332 171.655 25.3719C171.655 28.6105 173.044 31.2359 174.758 31.2359Z" fill="#0B1C46"/>
<path d="M153.765 33.4018C153.765 33.4018 154.055 31.0998 155.115 24.8108C156.414 17.1051 152.919 14.9671 145.857 21.2879C138.795 27.6086 148.604 36.0151 148.604 36.0151L153.765 33.4018Z" fill="#FADED6"/>
<path d="M132.114 76.8589C132.114 76.8589 142.75 97.0252 156.166 96.7027C185.659 95.9944 156.738 37.1712 154.735 32.6362C154.449 33.4862 150.584 31.0071 145.715 32.4237C140.848 33.8403 148.486 63.058 146.788 61.127C133.675 46.2133 132.615 46.67 132.615 46.67L132.114 76.8607V76.8589Z" fill="#1227E2"/>
<path d="M101.691 44.1174C101.691 44.1174 104.054 50.7084 115.864 51.1334C116.508 47.0942 115.503 44.2665 115.503 44.2665L117.314 42.2031C117.314 42.2031 124.562 43.2656 124.884 56.9788C125.206 70.692 129.053 138.259 129.053 138.259C124.502 139.651 117.854 141.158 111.039 141.295C109.264 141.331 107.563 141.344 105.914 141.284C104.15 108.773 102.384 76.2001 100.618 43.6906L101.691 44.1156V44.1174Z" fill="#0B1C46"/>
<path d="M103.052 50.7788L99.2227 50.3594L103.751 141.192C104.225 141.22 104.709 141.245 105.198 141.265C105.88 141.293 106.546 141.31 107.2 141.319C105.818 111.14 104.436 80.9583 103.054 50.7788H103.052Z" fill="#E0B707"/>
<path d="M129.062 138.269C128.751 138.377 128.426 138.452 128.094 138.555C127.486 138.741 126.899 138.897 126.338 139.03C124.421 109.089 122.504 79.148 120.588 49.207L124.63 49.4531L129.064 138.269H129.062Z" fill="#E0B707"/>
<path d="M114.075 39.7266C114.075 39.7266 136.696 44.2616 136.982 52.2002C137.268 60.137 140.674 133.631 140.674 133.631C139.177 134.314 137.541 135.143 135.303 136.032C133.273 136.839 131.874 137.447 129.062 138.275C129.062 138.275 124.805 52.875 124.671 51.0651C124.426 47.7752 122.881 45.1824 114.077 39.7266H114.075Z" fill="#1227E2"/>
<path d="M100.833 40.293L103.053 50.7815C103.053 50.7815 99.9576 50.9791 99.2233 50.3621C98.1238 49.4357 97.2917 44.4123 97.7567 41.7114C97.977 40.4272 100.835 40.2948 100.835 40.2948L100.833 40.293Z" fill="#FFCD05"/>
<path d="M124.41 49.4532C122.445 41.3058 118.837 41.576 117.047 41.0355C115.449 40.5527 112.538 40.2918 114.899 42.2042C117.262 44.1185 120.59 49.2202 120.59 49.2202" fill="#FFCD05"/>
<path d="M101.52 29.7173C101.52 29.7173 103.291 29.8776 103.506 29.8236C103.72 29.7695 102.163 26.3175 103.399 26.2112C104.634 26.105 105.492 26.53 105.277 29.1339C105.063 31.7379 105.439 37.9263 106.484 39.3615C107.531 40.7968 108.804 45.1696 115.504 44.2693C117.082 44.0569 117.408 43.5238 117.878 43.054C120.313 40.6234 121.375 41.5666 119.927 31.9504C119.498 31.4713 116.116 28.5505 111.664 34.1294C110.054 35.5646 107.102 35.723 106.995 32.9606C106.887 30.1982 106.78 24.0341 106.78 24.0341C106.78 24.0341 108.766 19.4655 107.264 18.0843C105.761 16.7031 102.542 16.1719 102.542 16.1719C102.542 16.1719 101.964 16.7068 101.668 21.2661C101.544 23.1879 101.506 26.5523 101.523 29.7211L101.52 29.7173Z" fill="#2A3952"/>
<path d="M117.255 140.82L115.615 51.0586L115.864 51.0698L117.522 140.786L117.255 140.82Z" fill="#E0B707"/>
<path d="M101.722 20.4159C101.722 20.4159 101.635 14.3747 105.402 12.9097C109.399 11.3551 114.565 11.0904 119.086 14.9022C119.086 14.9022 120.191 16.194 120.592 17.5267C120.677 17.81 120.856 20.0412 120.856 20.0412C118.318 20.565 115.014 21.0179 111.504 21.1167C110.292 21.1521 109.126 21.1428 108.014 21.0999C105.66 21.0105 103.552 20.7737 101.72 20.4792" fill="#1227E2"/>
<path d="M126.451 21.1969L109.627 21.0366C109.627 21.0366 115.301 21.0758 120.855 20.0413C126.208 20.0021 127.014 19.0459 127.496 19.6834C127.98 20.3208 126.449 21.1969 126.449 21.1969H126.451Z" fill="#1227E2"/>
</g>
<defs>
<clipPath id="clip0_2025_6941">
<rect width="181" height="143" fill="white"/>
</clipPath>
</defs>
</svg>
