<svg width="10" height="16" viewBox="0 0 10 16" fill="none" xmlns="http://www.w3.org/2000/svg">
<path d="M8.73948 0.503287H6.07509C2.68169 0.474966 2.24828 2.22672 2.24828 4.12259V5.50117H0.750306C0.6826 5.49363 0.613721 5.4992 0.549019 5.51747C0.484316 5.53573 0.425532 5.56619 0.377231 5.60648C0.328931 5.64676 0.292415 5.6958 0.27052 5.74977C0.248624 5.80373 0.241939 5.86119 0.250983 5.91766V8.4166C0.241939 8.47308 0.248624 8.53053 0.27052 8.5845C0.292415 8.63847 0.328931 8.6875 0.377231 8.72779C0.425532 8.76808 0.484316 8.79853 0.549019 8.8168C0.613721 8.83506 0.6826 8.84064 0.750306 8.83309H2.24828V15.0804C2.23995 15.137 2.24725 15.1944 2.26959 15.2483C2.29194 15.3022 2.32875 15.3511 2.37722 15.3912C2.42568 15.4314 2.48452 15.4618 2.54923 15.4802C2.61394 15.4985 2.68282 15.5042 2.75059 15.4969H5.80146C6.09606 15.5253 6.33473 15.3262 6.24086 15.0804L6.24286 8.83309H8.73948C8.80718 8.84064 8.87606 8.83506 8.94076 8.8168C9.00546 8.79853 9.06425 8.76808 9.11255 8.72779C9.16085 8.6875 9.19737 8.63847 9.21926 8.5845C9.24116 8.53053 9.24784 8.47308 9.2388 8.4166V5.91766C9.24784 5.86119 9.24116 5.80373 9.21926 5.74977C9.19737 5.6958 9.16085 5.64676 9.11255 5.60648C9.06425 5.56619 9.00546 5.53573 8.94076 5.51747C8.87606 5.4992 8.80718 5.49363 8.73948 5.50117H6.23986L6.24286 4.2517C6.33973 3.71943 6.33973 3.80606 6.93193 3.83521H8.7185C8.85732 3.80939 9.00512 3.82355 9.10897 3.73942C9.21283 3.65529 9.27275 3.54033 9.2378 3.41872V0.919778C9.24702 0.863349 9.24049 0.805908 9.21872 0.75193C9.19695 0.697952 9.16053 0.648897 9.1123 0.608587C9.06407 0.568277 9.00533 0.537802 8.94067 0.519537C8.876 0.501272 8.80715 0.495711 8.73948 0.503287ZM8.2052 2.95558L6.9529 2.9156C5.402 2.9156 5.27218 3.6178 5.27218 4.33666L5.26818 5.916C5.26805 5.97448 5.28175 6.03241 5.30849 6.08647C5.33523 6.14054 5.37449 6.18967 5.42402 6.23106C5.47355 6.27246 5.53239 6.30529 5.59715 6.3277C5.66192 6.35011 5.73134 6.36164 5.80146 6.36164H8.24015V7.97096H5.80345C5.66193 7.97096 5.52619 8.0178 5.42602 8.10119C5.32585 8.18458 5.26944 8.29772 5.26918 8.41577L5.26818 14.664H3.24692V8.4166C3.24692 8.17087 3.04619 7.97179 2.75059 7.97179H1.24963V6.36247H2.75059C2.82067 6.36256 2.89007 6.35113 2.95484 6.32883C3.01961 6.30654 3.07848 6.27381 3.12808 6.23253C3.22795 6.1484 3.24592 6.03511 3.24592 5.91683V4.12175C3.24592 2.25421 3.69831 1.36459 6.07409 1.36459H8.2042V2.95558H8.2052Z" fill="black"/>
</svg>
