<svg width="17" height="16" viewBox="0 0 17 16" fill="none" xmlns="http://www.w3.org/2000/svg">
<path d="M5.17536 0.5C2.63467 0.5 0.546875 2.48682 0.546875 4.91068V11.0893C0.546875 13.5105 2.63181 15.5 5.17536 15.5H11.6591C14.1998 15.5 16.2876 13.5132 16.2876 11.0893V4.91136C16.2876 2.48955 14.2027 0.5 11.6591 0.5H5.17536ZM5.17536 1.86364H11.6591C12.0792 1.8631 12.4952 1.94154 12.8834 2.09448C13.2716 2.24742 13.6243 2.47184 13.9214 2.75489C14.2184 3.03795 14.4539 3.37406 14.6144 3.74399C14.7749 4.11392 14.8572 4.51039 14.8566 4.91068V11.0893C14.8572 11.4896 14.7749 11.8861 14.6144 12.256C14.4539 12.6259 14.2184 12.9621 13.9214 13.2451C13.6243 13.5282 13.2716 13.7526 12.8834 13.9055C12.4952 14.0585 12.0792 14.1369 11.6591 14.1364H5.17608C4.75596 14.137 4.33983 14.0586 3.95156 13.9057C3.56328 13.7528 3.21048 13.5284 2.91337 13.2453C2.61627 12.9623 2.3807 12.6261 2.22016 12.2562C2.05963 11.8862 1.97728 11.4897 1.97785 11.0893V4.91136C1.97719 4.51101 2.05944 4.11447 2.21989 3.74446C2.38034 3.37446 2.61583 3.03826 2.91287 2.75514C3.2099 2.47201 3.56265 2.24753 3.95089 2.09455C4.33914 1.94157 4.75524 1.8631 5.17536 1.86364ZM12.6429 3.35545C12.5577 3.35509 12.4732 3.37083 12.3944 3.40174C12.3156 3.43266 12.244 3.47814 12.1837 3.53558C12.1234 3.59301 12.0757 3.66125 12.0432 3.73636C12.0108 3.81147 11.9943 3.89196 11.9947 3.97318C11.9947 4.31682 12.2823 4.59091 12.6429 4.59091C12.7282 4.59136 12.8127 4.5757 12.8916 4.54482C12.9705 4.51394 13.0422 4.46847 13.1026 4.41103C13.1629 4.35359 13.2107 4.28532 13.2432 4.21016C13.2757 4.13501 13.2922 4.05446 13.2919 3.97318C13.2922 3.8919 13.2757 3.81136 13.2432 3.7362C13.2107 3.66105 13.1629 3.59278 13.1026 3.53533C13.0422 3.47789 12.9705 3.43242 12.8916 3.40154C12.8127 3.37067 12.7282 3.355 12.6429 3.35545ZM8.41724 3.90909C6.05613 3.90909 4.12431 5.75 4.12431 8C4.12431 10.25 6.05613 12.0909 8.41724 12.0909C10.7783 12.0909 12.7102 10.25 12.7102 8C12.7102 5.75 10.7783 3.90909 8.41724 3.90909ZM8.41724 5.27273C10.0078 5.27273 11.2792 6.48432 11.2792 8C11.2792 9.51568 10.0078 10.7273 8.41724 10.7273C6.82671 10.7273 5.55529 9.51568 5.55529 8C5.55529 6.48432 6.82671 5.27273 8.41724 5.27273Z" fill="black"/>
</svg>
