<svg width="16" height="16" viewBox="0 0 16 16" fill="none" xmlns="http://www.w3.org/2000/svg">
<path d="M7.64414 4.4645L8.88164 3.227C9.40558 2.74945 10.0934 2.49214 10.8021 2.50855C11.5108 2.52496 12.186 2.81382 12.6873 3.3151C13.1886 3.81638 13.4774 4.49154 13.4938 5.20027C13.5102 5.909 13.2529 6.5968 12.7754 7.12075L11.0066 8.88325C10.7517 9.13911 10.4488 9.34214 10.1152 9.48066C9.78169 9.61919 9.42407 9.6905 9.06289 9.6905C8.70171 9.6905 8.34409 9.61919 8.01053 9.48066C7.67698 9.34214 7.37405 9.13911 7.11914 8.88325" stroke="black" stroke-linecap="round" stroke-linejoin="round"/>
<path d="M8.35629 11.5385L7.11879 12.776C6.59485 13.2536 5.90705 13.5109 5.19832 13.4945C4.48959 13.478 3.81443 13.1892 3.31315 12.6879C2.81186 12.1866 2.52301 11.5115 2.5066 10.8027C2.49019 10.094 2.74749 9.4062 3.22504 8.88226L4.99379 7.11976C5.24871 6.86389 5.55163 6.66087 5.88518 6.52234C6.21874 6.38381 6.57636 6.3125 6.93754 6.3125C7.29872 6.3125 7.65634 6.38381 7.9899 6.52234C8.32346 6.66087 8.62638 6.86389 8.88129 7.11976" stroke="black" stroke-linecap="round" stroke-linejoin="round"/>
</svg>
