<svg width="18" height="16" viewBox="0 0 18 16" fill="none" xmlns="http://www.w3.org/2000/svg">
<path d="M5.67643 15.4919H5.59777C4.01325 15.4787 2.45165 15.1298 1.02602 14.4707C0.763782 14.3533 0.547862 14.159 0.409869 13.9162C0.271877 13.6734 0.219058 13.3949 0.259145 13.1215C0.302743 12.8462 0.436497 12.5911 0.641311 12.3925C0.846125 12.194 1.11153 12.0622 1.39963 12.016C2.28312 11.9036 3.13304 11.6198 3.89689 11.1821C2.57074 10.1941 1.54981 8.88255 0.942272 7.38653C0.334738 5.89051 0.163238 4.26573 0.445948 2.68438C0.48428 2.4339 0.597322 2.19919 0.771622 2.00818C0.945922 1.81717 1.17414 1.6779 1.42912 1.60694C1.67719 1.5327 1.94268 1.52953 2.19262 1.59782C2.44257 1.66611 2.66596 1.80285 2.83506 1.99107C3.40923 2.70854 4.13078 3.30701 4.95567 3.74998C5.78056 4.19296 6.69151 4.47114 7.63294 4.56756C7.67791 3.46375 8.17569 2.42085 9.01922 1.66315C9.44041 1.27881 9.93766 0.978194 10.482 0.778817C11.0263 0.579441 11.6069 0.485294 12.1898 0.501862C12.7727 0.51843 13.3463 0.645382 13.8772 0.87532C14.4081 1.10526 14.8856 1.43358 15.282 1.84117C15.3853 1.92818 15.5136 1.98363 15.6504 2.00033C15.7871 2.01703 15.9259 1.99423 16.0489 1.93486C16.2833 1.8295 16.5444 1.78984 16.8015 1.8205C17.0587 1.85117 17.3014 1.95089 17.5014 2.10804C17.7013 2.26519 17.8503 2.47328 17.9308 2.70804C18.0114 2.9428 18.0202 3.19455 17.9563 3.43391C17.7295 4.32407 17.2998 5.15575 16.6978 5.86986C16.5651 8.53512 15.332 11.0423 13.2675 12.8448C11.2029 14.6472 8.47421 15.5987 5.67643 15.4919ZM5.67643 13.6181H5.75508C6.89819 13.6555 8.03773 13.4764 9.10763 13.091C10.1775 12.7057 11.1565 12.1218 11.9878 11.3731C12.8192 10.6245 13.4863 9.72609 13.9505 8.72994C14.4147 7.73379 14.6668 6.65974 14.6921 5.57005C14.7084 5.27141 14.8376 4.9885 15.0559 4.77368C15.2957 4.48441 15.5002 4.17009 15.6655 3.83678C15.3113 3.83742 14.9609 3.76682 14.6373 3.62959C14.3137 3.49236 14.0242 3.29159 13.7876 3.04041C13.5601 2.82544 13.2899 2.65588 12.9927 2.54166C12.6956 2.42744 12.3776 2.37085 12.0572 2.3752C11.7337 2.36723 11.4116 2.42023 11.1096 2.53117C10.8076 2.64211 10.5316 2.8088 10.2973 3.02167C9.98133 3.30742 9.74962 3.66726 9.62539 4.06516C9.50116 4.46306 9.48877 4.88508 9.58946 5.28898L9.84508 6.35705L8.69477 6.432C7.51604 6.5236 6.3305 6.36995 5.22025 5.98169C4.11 5.59343 3.10158 4.97985 2.26482 4.18343C2.22893 5.41677 2.55269 6.63543 3.20011 7.70392C3.84752 8.77241 4.79322 9.64887 5.93205 10.2358L6.86607 10.7418L6.24667 11.585C5.57683 12.4221 4.65903 13.0487 3.61177 13.3838C4.28358 13.5443 4.97402 13.623 5.6666 13.6181H5.67643Z" fill="black"/>
</svg>
