<svg width="17" height="16" viewBox="0 0 17 16" fill="none" xmlns="http://www.w3.org/2000/svg">
<path d="M14.2945 2.68254C13.5693 1.98798 12.7055 1.43729 11.7536 1.06258C10.8016 0.68787 9.78041 0.49664 8.74966 0.500045C4.43085 0.500045 0.910936 3.83753 0.910936 7.93252C0.910936 9.24502 1.27479 10.52 1.95504 11.645L0.847656 15.5L5.00036 14.465C6.1473 15.0575 7.43661 15.3725 8.74966 15.3725C13.0685 15.3725 16.5884 12.035 16.5884 7.94002C16.5884 5.95253 15.7737 4.08503 14.2945 2.68254ZM8.74966 14.1125C7.57899 14.1125 6.43205 13.8125 5.42749 13.25L5.1902 13.115L2.72231 13.73L3.37883 11.45L3.22063 11.2175C2.57023 10.2327 2.22488 9.09445 2.22398 7.93252C2.22398 4.52753 5.15065 1.75254 8.74175 1.75254C10.4819 1.75254 12.1193 2.39754 13.3453 3.56754C13.9524 4.14051 14.4335 4.82203 14.7607 5.5726C15.0879 6.32317 15.2548 7.12786 15.2516 7.94002C15.2674 11.345 12.3408 14.1125 8.74966 14.1125ZM12.3249 9.49252C12.1272 9.40252 11.1622 8.95252 10.9882 8.88502C10.8062 8.82502 10.6797 8.79502 10.5452 8.97502C10.4107 9.16252 10.039 9.58252 9.92823 9.70252C9.81749 9.83002 9.69884 9.84502 9.5011 9.74752C9.30335 9.65752 8.67056 9.45502 7.92703 8.82502C7.34169 8.33002 6.95411 7.72252 6.83546 7.53502C6.72472 7.34752 6.81964 7.25002 6.92247 7.15252C7.00948 7.07002 7.12022 6.93502 7.21513 6.83003C7.31005 6.72503 7.3496 6.64253 7.41288 6.52253C7.47616 6.39503 7.44452 6.29003 7.39706 6.20003C7.3496 6.11003 6.95411 5.19503 6.79591 4.82003C6.63771 4.46003 6.4716 4.50503 6.35295 4.49753H5.97328C5.83881 4.49753 5.63315 4.54253 5.45122 4.73003C5.27721 4.91753 4.77097 5.36753 4.77097 6.28253C4.77097 7.19753 5.47495 8.08252 5.56987 8.20252C5.66479 8.33002 6.95411 10.205 8.91576 11.0075C9.38245 11.2025 9.74631 11.315 10.0311 11.3975C10.4977 11.54 10.9249 11.5175 11.265 11.4725C11.6447 11.42 12.4278 11.0225 12.586 10.5875C12.7521 10.1525 12.7521 9.78502 12.6967 9.70252C12.6413 9.62002 12.5227 9.58252 12.3249 9.49252Z" fill="black"/>
</svg>
