<svg width="132" height="45" viewBox="0 0 132 45" fill="none" xmlns="http://www.w3.org/2000/svg">
<path d="M22.4458 30.5353L20.5364 25.0906H8.19673L6.39461 30.5353H0L10.5139 0.287109H17.8525L28.4499 30.5344H22.4458V30.5353ZM10.1258 19.5165H18.5804L14.2458 7.15806L10.1258 19.5165Z" fill="#FFCD05"/>
<path d="M60.7634 0.287109V30.5344H54.8846V10.9167L46.4136 24.9496L45.7234 24.9735L37.2908 10.9909V30.5344H31.3687V0.287109H37.4628L46.0763 14.5698L54.6447 0.287109H60.7634Z" fill="#FFCD05"/>
<path d="M112.388 0.287109H118.31V30.5344H113.804L100.93 12.0404V30.5344H95.0078V0.287109H99.5094L112.388 18.7135V0.287109Z" fill="#FFCD05"/>
<path d="M129.811 0.361328V30.5353H123.889V0.361328" fill="#FFCD05"/>
<path fill-rule="evenodd" clip-rule="evenodd" d="M76.0518 1.05284C75.9699 1.14353 75.6883 1.40653 75.7251 1.54173C75.7267 1.54915 75.7308 1.55493 75.7366 1.55822C75.766 1.58708 75.8455 1.61099 75.9241 1.63572C76.0436 1.67117 74.8916 2.15677 73.3695 2.68607L71.2038 3.43796L67.7052 4.65238C66.1831 5.18085 65.1605 5.34574 65.425 5.01925C65.5609 4.85189 65.696 4.67711 65.7877 4.53448C65.8155 4.49326 65.8409 4.44874 65.8638 4.40174C66.0431 4.03569 66.351 3.98045 66.536 3.63666C66.762 3.21207 67.4432 3.26813 67.8059 2.94494C68.1613 2.62836 68.0065 2.13204 68.33 1.82452C68.4642 1.69508 68.5961 1.5912 68.7279 1.49557C68.9481 1.33892 69.1684 1.20454 69.4017 1.02563C69.59 0.880528 69.8496 0.0915312 70.1763 0.239932C70.3515 0.319079 70.2786 0.5862 70.5365 0.561466C70.6823 0.548275 70.828 0.535084 70.9754 0.531786C71.2538 0.521893 71.3856 0.668645 71.7295 0.533435C72.1127 0.382561 72.4361 0.166556 72.8537 0.119562C73.2721 0.0725689 73.7175 0.258894 74.1154 0.187167C74.533 0.110493 75.2224 -0.0799539 75.6391 0.0371176C75.644 0.0387665 75.7767 0.0931801 75.9077 0.133578C76.0575 0.180572 76.1582 0.268787 76.0567 0.366897C75.9838 0.43615 75.9093 0.498808 75.9314 0.579604C75.9797 0.743669 76.2524 0.826114 76.0526 1.05119L76.0518 1.05284Z" fill="#FFCD05"/>
<path fill-rule="evenodd" clip-rule="evenodd" d="M85.031 4.51354C85.031 4.68667 83.8061 5.25224 82.2897 5.77906L75.3867 8.17408L68.2527 10.6499C66.7494 11.1726 65.5213 11.5865 65.4894 11.5865C65.4869 11.5807 65.4836 11.5733 65.4803 11.5659C65.4239 11.4249 65.2298 11.2798 65.0505 11.1281C64.7877 10.9096 64.7033 10.8741 64.5617 10.8164C64.42 10.7604 64.4102 10.6359 64.4995 10.612C64.5863 10.5872 64.4151 10.3259 64.2735 9.89223C64.2301 9.75537 64.1875 9.61769 64.1539 9.49567C64.0909 9.27554 64.1539 8.95071 64.3177 8.80396C64.4028 8.72646 64.4823 8.6399 64.5396 8.47666C64.6198 8.24746 64.7205 8.02238 64.7942 7.79071C64.8933 7.48649 64.6591 7.25317 64.7213 7.01491C64.7238 7.00172 64.7304 6.98853 64.7361 6.97534V6.97369C64.7435 6.9605 64.7508 6.9473 64.7582 6.93247C64.7746 6.90443 64.7934 6.8764 64.8106 6.84672C64.8663 6.75686 66.1174 6.24323 67.6395 5.71476L72.0232 4.19365L74.861 3.21008C76.0278 2.80446 77.1372 2.52909 77.6989 2.48292C77.87 2.46973 77.9904 2.47633 78.0461 2.50765C78.2082 2.59834 78.3768 2.69233 78.4792 2.75581C78.6585 2.86794 79.23 3.27109 79.2947 2.81023C79.3315 2.55217 79.1972 2.31391 79.4421 2.11852C79.7507 1.87365 80.2019 1.83985 80.5032 2.09048C80.6825 2.23724 81.0935 2.21827 81.1959 2.37822C81.2777 2.5093 82.4674 2.7352 82.6836 2.73768C83.0889 2.7418 83.3148 2.40625 83.7914 2.46478C84.0403 2.49529 84.3031 2.47055 84.5463 2.53981C84.6388 2.56454 84.7125 2.66348 84.7723 2.80693C84.778 2.81847 84.7829 2.83084 84.787 2.8432C84.841 2.98171 84.882 3.15402 84.9155 3.34364C84.9213 3.3758 84.927 3.40795 84.9311 3.44175C84.936 3.47143 84.9401 3.50029 84.9442 3.52997C84.9516 3.57284 84.9557 3.61654 84.9614 3.66023C84.9614 3.66188 84.963 3.66271 84.9614 3.66435C84.9655 3.69816 84.9704 3.73361 84.9745 3.76906C84.9761 3.78802 84.977 3.80616 84.9802 3.82347C84.9827 3.86057 84.9876 3.8952 84.9909 3.93065C85.0007 4.03783 85.0081 4.14336 85.0154 4.24312C85.0179 4.27692 85.0204 4.30907 85.0212 4.34123C85.0253 4.39976 85.0285 4.45582 85.0318 4.50859L85.031 4.51354Z" fill="#FFCD05"/>
<path fill-rule="evenodd" clip-rule="evenodd" d="M87.6546 9.3287C87.6488 9.77968 86.803 10.3988 85.5192 10.8457C83.3658 11.5943 80.3732 12.6323 78.1445 13.4048C78.0405 13.441 77.939 13.4765 77.8383 13.5119C76.3162 14.0404 75.0635 14.3743 75.0078 14.2729C74.9742 14.2111 74.9317 14.1542 74.8825 14.1023C74.6042 13.8129 74.4772 13.8706 74.0711 13.8978C73.5913 13.9299 73.4096 13.9431 73.195 13.4955C73.0215 13.1344 72.7693 13.0082 72.3771 13.0288C71.7425 13.061 71.09 13.3594 70.525 13.6224C70.1238 13.8104 69.793 13.5268 69.3787 13.5078C68.9923 13.4889 68.6361 13.6224 68.2677 13.7115C68.2488 13.7156 68.23 13.7205 68.2112 13.723C67.9164 13.7741 67.5938 13.6884 67.2851 13.5408H67.2835C67.1771 13.4897 67.0706 13.4303 66.9691 13.3685C66.8496 13.2951 66.7791 13.2053 66.7529 13.103C66.644 12.6553 67.4096 11.9842 68.65 11.5539L75.9428 9.02366L82.7034 6.67728C84.2255 6.14881 85.4856 5.78605 85.5045 5.86932C85.5077 5.87674 85.5094 5.88581 85.511 5.89323C85.5118 5.90065 85.5135 5.90642 85.5151 5.91384C85.5176 5.92703 85.5208 5.94187 85.5225 5.95671C85.5266 5.97732 85.5298 6.00123 85.5323 6.02267C85.5413 6.09439 86.0105 6.34832 86.0956 6.57587C86.2135 6.9007 86.1759 7.21647 86.2749 7.538C86.3724 7.85212 86.7875 7.92384 86.9078 8.26599C86.9357 8.34266 87.2468 8.72273 87.5686 9.09538C87.6284 9.16464 87.6562 9.24213 87.6546 9.32788V9.3287Z" fill="#FFCD05"/>
<path fill-rule="evenodd" clip-rule="evenodd" d="M85.4396 25.4828C85.4044 26.3757 84.85 26.0434 84.3195 26.5488C84.1303 26.7294 84.1901 27.3526 84.0575 27.6255C83.8258 28.1012 83.4794 28.5225 83.111 28.896C82.6484 29.3659 81.9066 30.1079 81.1787 30.0197C80.8225 29.9752 80.346 29.967 80.0021 30.0783C79.6287 30.2003 79.3749 30.4188 78.9917 30.2291C78.9352 30.1995 78.8894 30.1821 78.855 30.1673H78.8534C78.7527 30.1277 78.7183 30.1071 78.6626 29.934C78.6388 29.8631 78.4947 29.6166 78.5062 29.5399C78.5209 29.4344 78.6831 29.4509 78.6773 29.3231C78.6741 29.2687 78.67 29.2159 78.661 29.1648C78.6593 29.1483 78.6569 29.1326 78.6519 29.1161C78.6487 29.0939 78.6438 29.0724 78.6388 29.0518C78.6331 29.0271 78.6274 29.0024 78.62 28.9768C78.6184 28.9743 78.6184 28.971 78.6167 28.9677C78.6126 28.9488 78.6061 28.9315 78.6004 28.9133C78.5946 28.8944 78.5889 28.877 78.5815 28.8589C78.5643 28.8061 78.5422 28.7534 78.5185 28.7006C78.4997 28.6594 78.4792 28.6165 78.4571 28.5753C78.4513 28.5638 78.444 28.5506 78.4382 28.539C78.4178 28.5011 78.3965 28.4624 78.3727 28.4244C78.3163 28.3263 78.2532 28.2274 78.1861 28.1309C77.8586 27.6198 78.5103 26.8679 79.6697 26.3353C79.8523 26.252 80.0463 26.1737 80.2518 26.102L82.5043 25.3212C82.9079 25.1819 83.2936 25.0656 83.6415 24.9791C84.6102 24.7334 85.3012 24.6987 85.3511 24.9246C85.3978 25.1407 85.4461 25.3492 85.4404 25.4836L85.4396 25.4828Z" fill="#FFCD05"/>
<path fill-rule="evenodd" clip-rule="evenodd" d="M87.7722 21.3828C87.7926 21.6368 87.7886 21.8173 87.7533 21.9789C87.6862 22.3021 86.2877 22.9567 84.7648 23.4852L84.5634 23.5544V23.5561L80.0135 25.1332C79.9406 25.158 79.8678 25.1835 79.7965 25.2066C78.3735 25.6741 77.2297 25.7804 77.1601 25.4457C77.156 25.4267 77.1519 25.4061 77.147 25.3872C77.1429 25.3682 77.138 25.3509 77.1339 25.3311C77.1265 25.3006 77.1191 25.2709 77.1101 25.2412C77.1028 25.2165 77.0954 25.1909 77.0864 25.1679C77.079 25.144 77.07 25.1209 77.0618 25.0978C77.052 25.0681 77.0414 25.0401 77.0283 25.0145C77.0192 24.9939 77.0102 24.9749 77.0004 24.956C76.998 24.9519 76.9963 24.9469 76.9939 24.9428C76.9922 24.9395 76.9906 24.937 76.9889 24.9337C76.9709 24.9016 76.9513 24.8711 76.93 24.8414C76.6827 24.5009 76.4854 24.1365 76.2594 23.7811C75.9491 23.298 75.9958 22.9724 75.9565 22.4274C75.9491 22.3243 75.9868 22.0894 76.0556 21.8412C76.1505 21.5238 77.499 20.8585 79.0146 20.3333L79.758 20.0744L84.7321 18.3489C85.8603 17.9581 86.7929 17.7099 87.1663 17.6942C87.2957 17.6885 87.3571 17.7107 87.3374 17.7635C87.2891 17.8839 87.2424 18.0075 87.1851 18.1353C87.0353 18.4742 87.3194 18.4453 87.4357 18.6943C87.4971 18.8246 87.4725 19.1626 87.4479 19.358C87.4275 19.522 87.416 19.6894 87.4185 19.7117C87.4627 20.0299 87.7689 20.0959 87.8107 20.4207C87.8516 20.748 87.7452 21.0605 87.7714 21.382L87.7722 21.3828Z" fill="#FFCD05"/>
<path fill-rule="evenodd" clip-rule="evenodd" d="M92.1183 11.4283C92.0676 11.566 92.0209 11.7086 92.0062 11.7441C91.8178 12.2157 91.5337 12.6518 91.3339 13.1275C91.1424 13.5843 90.656 14.1432 90.1508 14.6412C89.6481 15.1375 88.6344 15.7311 87.5643 16.2258C87.0239 16.4781 86.4663 16.7056 85.9546 16.8837L79.6345 19.0759L79.4478 19.1402C77.9413 19.6629 76.6722 19.9366 76.5879 19.7561C76.5838 19.7396 76.5797 19.7256 76.5739 19.7124C76.5617 19.6712 76.5502 19.6316 76.5387 19.5945C76.5314 19.5623 76.5232 19.5326 76.5158 19.5063C76.5158 19.503 76.5142 19.5005 76.5142 19.4972C76.5117 19.4881 76.5101 19.4782 76.5068 19.4692C76.5052 19.4601 76.5035 19.4535 76.5027 19.4444C76.4994 19.4279 76.497 19.4123 76.4953 19.3991C76.4618 19.0627 76.3103 18.8409 76.1572 18.5417C76.0417 18.3166 76.0958 18.066 75.9574 17.8335C75.774 17.5284 75.4473 17.277 75.1599 17.0041C75.1411 16.9851 75.1223 16.9661 75.1042 16.9464L75.1018 16.9439C75.087 16.9274 75.0723 16.9117 75.0592 16.8952C75.0453 16.8771 75.0305 16.8598 75.0191 16.8408C75.0043 16.8219 74.9896 16.8012 74.9765 16.7806C74.9585 16.7543 74.9429 16.7279 74.9282 16.6998C74.8979 16.6454 74.8733 16.5894 74.8512 16.5341C74.8414 16.5102 74.834 16.4871 74.825 16.4649C74.8209 16.4517 74.816 16.4385 74.8119 16.4253C74.8062 16.4047 74.7997 16.3841 74.7939 16.3635C74.685 15.9644 75.9975 15.1928 77.5196 14.6651L78.485 14.3304L86.1159 11.6831C86.9314 11.3995 87.6961 11.1925 88.2627 11.0854C88.754 10.993 89.0938 10.9732 89.1822 11.0458C89.3198 11.1554 89.4721 11.2428 89.5834 11.1983C90.1222 10.9856 90.6699 10.9015 91.2676 10.7754C91.5534 10.7135 92.332 10.1793 92.1437 10.8677C92.1372 10.9032 92.1625 10.9427 92.1961 11.0046C92.2371 11.0763 92.183 11.256 92.1191 11.4291L92.1183 11.4283Z" fill="#FFCD05"/>
<path fill-rule="evenodd" clip-rule="evenodd" d="M91.1957 23.5775C90.9377 24.3377 90.4997 25.0286 90.2418 25.7903C90.0641 26.313 89.7825 26.8679 89.1323 26.811C88.6042 26.7657 88.5453 26.2603 88.5928 25.867C88.6419 25.4952 88.3553 25.2957 88.619 24.9098C88.759 24.7045 89.1381 24.4424 89.0521 24.1093C88.985 23.8578 88.8302 23.3747 89.0112 23.1447C89.0243 23.1282 89.0349 23.1117 89.0447 23.0952C89.0611 23.0672 89.6555 22.8388 90.3769 22.589C91.0982 22.3384 91.7008 22.2625 91.6951 22.42C91.6902 22.5346 91.6722 22.6335 91.6312 22.6945C91.56 22.7943 91.2726 23.3525 91.1957 23.5784V23.5775Z" fill="#FFCD05"/>
<path d="M46.1295 44.8343L45.6031 43.3329H42.2002L41.7032 44.8343H39.9404L42.8397 36.4941H44.8629L47.7851 44.8343H46.1295ZM42.7324 41.7962H45.0635L43.8681 38.3887L42.7324 41.7962Z" fill="#FFCD05"/>
<path d="M55.9023 38.0664H52.5887V40.0442H55.8073V41.6173H52.5887V44.8343H50.9561V36.4941H55.9023V38.0672V38.0664Z" fill="#FFCD05"/>
<path d="M64.0077 44.8343L62.3333 41.9388H61.097V44.8343H59.4644V36.4941H62.7779C63.5427 36.4941 64.1936 36.7646 64.7307 37.3046C65.267 37.8446 65.5355 38.4959 65.5355 39.2585C65.5355 39.7746 65.3898 40.2536 65.0975 40.6939C64.806 41.135 64.4187 41.4664 63.9381 41.689L65.7722 44.8343H64.0094H64.0077ZM61.097 38.0309V40.4977H62.7771C63.085 40.4977 63.3486 40.3765 63.5697 40.1341C63.7907 39.8917 63.9013 39.5998 63.9013 39.2585C63.9013 38.9172 63.7907 38.627 63.5697 38.3887C63.3486 38.1505 63.085 38.0309 62.7771 38.0309H61.097Z" fill="#FFCD05"/>
<path d="M69.0952 36.4941H70.7278V44.8343H69.0952V36.4941Z" fill="#FFCD05"/>
<path d="M78.562 44.9994C77.3158 44.9994 76.2858 44.5822 75.4735 43.7487C74.6613 42.9143 74.2544 41.8862 74.2544 40.6628C74.2544 39.4393 74.6605 38.4013 75.4735 37.5711C76.2858 36.7409 77.315 36.3262 78.562 36.3262C79.3111 36.3262 80.0038 36.5034 80.6384 36.8563C81.2729 37.21 81.7683 37.6882 82.1236 38.2925L80.7153 39.1145C80.5098 38.741 80.2183 38.4491 79.8401 38.2389C79.4618 38.0287 79.0352 37.9231 78.562 37.9231C77.7571 37.9231 77.1086 38.1771 76.6157 38.6857C76.1228 39.1944 75.8764 39.8532 75.8764 40.6636C75.8764 41.474 76.1228 42.1212 76.6157 42.6299C77.1086 43.1386 77.7579 43.3925 78.562 43.3925C79.0352 43.3925 79.4634 43.287 79.8458 43.0767C80.2282 42.8665 80.518 42.5788 80.7153 42.2127L82.1236 43.0347C81.7683 43.6382 81.2754 44.1172 80.6449 44.4709C80.0136 44.8246 79.3193 45.001 78.562 45.001V44.9994Z" fill="#FFCD05"/>
<path d="M90.9039 44.8343L90.3775 43.3329H86.9747L86.4777 44.8343H84.7148L87.6141 36.4941H89.6373L92.5595 44.8343H90.9039ZM87.5069 41.7962H89.8379L88.6425 38.3887L87.5069 41.7962Z" fill="#FFCD05"/>
<path d="M132 40.2285H94.686V41.2409H132V40.2285Z" fill="#FFCD05"/>
<path d="M0.397949 41.2409V41.2401V40.2285H37.7127V41.2409H0.397949Z" fill="#FFCD05"/>
<path d="M132 40.2285H94.686V41.2409H132V40.2285Z" fill="#FFCD05"/>
</svg>
