<svg width="133" height="46" viewBox="0 0 133 46" fill="none" xmlns="http://www.w3.org/2000/svg">
<path d="M22.5376 30.8986L20.6282 25.4539H8.28853L6.48641 30.8986H0.0917969L10.6057 0.650391H17.9443L28.5417 30.8977H22.5376V30.8986ZM10.2176 19.8798H18.6722L14.3376 7.52134L10.2176 19.8798Z" fill="#B2B9F4"/>
<path d="M60.8552 0.650391V30.8977H54.9764V11.28L46.5054 25.3129L45.8152 25.3368L37.3826 11.3542V30.8977H31.4604V0.650391H37.5546L46.1681 14.9331L54.7365 0.650391H60.8552Z" fill="#B2B9F4"/>
<path d="M112.48 0.650391H118.402V30.8977H113.896L101.022 12.4037V30.8977H95.0996V0.650391H99.6012L112.48 19.0768V0.650391Z" fill="#B2B9F4"/>
<path d="M129.903 0.724609V30.8986H123.98V0.724609" fill="#B2B9F4"/>
<path fill-rule="evenodd" clip-rule="evenodd" d="M76.1436 1.41612C76.0617 1.50681 75.7801 1.76981 75.8169 1.90502C75.8185 1.91244 75.8226 1.91821 75.8284 1.9215C75.8578 1.95036 75.9373 1.97427 76.0159 1.999C76.1354 2.03445 74.9834 2.52005 73.4613 3.04935L71.2956 3.80125L67.797 5.01566C66.2749 5.54413 65.2523 5.70902 65.5167 5.38254C65.6527 5.21517 65.7878 5.04039 65.8795 4.89776C65.9073 4.85654 65.9327 4.81202 65.9556 4.76502C66.1349 4.39897 66.4428 4.34373 66.6278 3.99994C66.8538 3.57535 67.535 3.63141 67.8977 3.30823C68.2531 2.99164 68.0983 2.49532 68.4218 2.1878C68.556 2.05836 68.6879 1.95448 68.8197 1.85885C69.0399 1.7022 69.2602 1.56782 69.4935 1.38891C69.6818 1.24381 69.9414 0.454812 70.2681 0.603213C70.4433 0.68236 70.3704 0.949481 70.6283 0.924748C70.7741 0.911556 70.9198 0.898365 71.0672 0.895068C71.3456 0.885174 71.4774 1.03193 71.8213 0.896716C72.2045 0.745842 72.5279 0.529837 72.9455 0.482844C73.3639 0.43585 73.8093 0.622175 74.2072 0.550448C74.6248 0.473775 75.3142 0.283327 75.7309 0.400399C75.7358 0.402048 75.8685 0.456461 75.9995 0.496859C76.1493 0.543853 76.25 0.632069 76.1485 0.730178C76.0756 0.799432 76.0011 0.86209 76.0232 0.942885C76.0715 1.10695 76.3442 1.1894 76.1444 1.41447L76.1436 1.41612Z" fill="#B2B9F4"/>
<path fill-rule="evenodd" clip-rule="evenodd" d="M85.1228 4.87682C85.1228 5.04995 83.8979 5.61552 82.3815 6.14234L75.4785 8.53736L68.3445 11.0132C66.8412 11.5359 65.6131 11.9498 65.5812 11.9498C65.5787 11.944 65.5754 11.9366 65.5721 11.9291C65.5157 11.7882 65.3216 11.6431 65.1423 11.4914C64.8795 11.2729 64.7951 11.2374 64.6535 11.1797C64.5118 11.1237 64.502 10.9992 64.5913 10.9753C64.678 10.9505 64.5069 10.6892 64.3653 10.2555C64.3219 10.1187 64.2793 9.98097 64.2457 9.85895C64.1827 9.63883 64.2457 9.31399 64.4095 9.16724C64.4946 9.08974 64.5741 9.00318 64.6314 8.83994C64.7116 8.61074 64.8123 8.38567 64.886 8.154C64.9851 7.84977 64.7509 7.61646 64.8131 7.37819C64.8156 7.365 64.8222 7.35181 64.8279 7.33862V7.33697C64.8353 7.32378 64.8426 7.31059 64.85 7.29575C64.8664 7.26771 64.8852 7.23968 64.9024 7.21C64.9581 7.12014 66.2092 6.60651 67.7312 6.07804L72.115 4.55693L74.9528 3.57337C76.1196 3.16774 77.229 2.89237 77.7907 2.8462C77.9618 2.83301 78.0822 2.83961 78.1378 2.87094C78.3 2.96163 78.4686 3.05561 78.571 3.11909C78.7503 3.23122 79.3218 3.63437 79.3865 3.17351C79.4233 2.91546 79.289 2.67719 79.5339 2.4818C79.8425 2.23694 80.2937 2.20313 80.595 2.45377C80.7743 2.60052 81.1853 2.58155 81.2877 2.7415C81.3695 2.87258 82.5592 3.09848 82.7754 3.10096C83.1807 3.10508 83.4066 2.76953 83.8832 2.82806C84.1321 2.85857 84.3949 2.83384 84.6381 2.90309C84.7306 2.92782 84.8043 3.02676 84.8641 3.17021C84.8698 3.18175 84.8747 3.19412 84.8788 3.20649C84.9328 3.34499 84.9738 3.5173 85.0073 3.70693C85.0131 3.73908 85.0188 3.77123 85.0229 3.80504C85.0278 3.83472 85.0319 3.86357 85.036 3.89325C85.0434 3.93612 85.0475 3.97982 85.0532 4.02351C85.0532 4.02516 85.0548 4.02599 85.0532 4.02764C85.0573 4.06144 85.0622 4.09689 85.0663 4.13234C85.0679 4.1513 85.0688 4.16944 85.072 4.18675C85.0745 4.22385 85.0794 4.25848 85.0827 4.29393C85.0925 4.40111 85.0999 4.50664 85.1072 4.6064C85.1097 4.6402 85.1121 4.67235 85.113 4.70451C85.1171 4.76304 85.1203 4.81911 85.1236 4.87187L85.1228 4.87682Z" fill="#B2B9F4"/>
<path fill-rule="evenodd" clip-rule="evenodd" d="M87.7464 9.69198C87.7406 10.143 86.8948 10.7621 85.611 11.209C83.4576 11.9576 80.465 12.9955 78.2363 13.7681C78.1323 13.8043 78.0308 13.8398 77.9301 13.8752C76.408 14.4037 75.1553 14.7376 75.0996 14.6362C75.066 14.5744 75.0235 14.5175 74.9743 14.4655C74.6959 14.1762 74.569 14.2339 74.1629 14.2611C73.6831 14.2932 73.5014 14.3064 73.2868 13.8587C73.1133 13.4976 72.8611 13.3715 72.4689 13.3921C71.8343 13.4243 71.1818 13.7227 70.6168 13.9857C70.2156 14.1737 69.8848 13.8901 69.4705 13.8711C69.0841 13.8521 68.7279 13.9857 68.3595 14.0747C68.3406 14.0789 68.3218 14.0838 68.303 14.0863C68.0082 14.1374 67.6856 14.0517 67.3769 13.9041H67.3753C67.2689 13.853 67.1624 13.7936 67.0609 13.7318C66.9414 13.6584 66.8709 13.5685 66.8447 13.4663C66.7358 13.0186 67.5014 12.3475 68.7418 11.9172L76.0346 9.38694L82.7952 7.04056C84.3173 6.51209 85.5774 6.14933 85.5963 6.2326C85.5995 6.24002 85.6012 6.24909 85.6028 6.25651C85.6036 6.26393 85.6053 6.2697 85.6069 6.27712C85.6094 6.29031 85.6126 6.30515 85.6143 6.31999C85.6184 6.3406 85.6216 6.36451 85.6241 6.38595C85.6331 6.45768 86.1023 6.71161 86.1874 6.93915C86.3053 7.26399 86.2677 7.57975 86.3667 7.90128C86.4642 8.2154 86.8793 8.28712 86.9996 8.62927C87.0275 8.70594 87.3386 9.08601 87.6604 9.45866C87.7202 9.52792 87.748 9.60542 87.7464 9.69116V9.69198Z" fill="#B2B9F4"/>
<path fill-rule="evenodd" clip-rule="evenodd" d="M85.5314 25.8461C85.4962 26.739 84.9418 26.4067 84.4113 26.9121C84.2221 27.0926 84.2819 27.7159 84.1493 27.9888C83.9176 28.4645 83.5712 28.8858 83.2028 29.2593C82.7402 29.7292 81.9984 30.4712 81.2705 30.383C80.9143 30.3385 80.4378 30.3302 80.0939 30.4415C79.7205 30.5636 79.4667 30.782 79.0835 30.5924C79.027 30.5627 78.9812 30.5454 78.9468 30.5306H78.9452C78.8445 30.491 78.8101 30.4704 78.7544 30.2973C78.7306 30.2264 78.5865 29.9799 78.598 29.9032C78.6127 29.7977 78.7749 29.8141 78.7691 29.6864C78.7658 29.6319 78.7618 29.5792 78.7527 29.5281C78.7511 29.5116 78.7487 29.4959 78.7437 29.4794C78.7405 29.4572 78.7356 29.4357 78.7306 29.4151C78.7249 29.3904 78.7192 29.3656 78.7118 29.3401C78.7102 29.3376 78.7102 29.3343 78.7085 29.331C78.7044 29.3121 78.6979 29.2947 78.6922 29.2766C78.6864 29.2576 78.6807 29.2403 78.6733 29.2222C78.6561 29.1694 78.634 29.1167 78.6103 29.0639C78.5915 29.0227 78.571 28.9798 78.5489 28.9386C78.5431 28.927 78.5358 28.9138 78.53 28.9023C78.5096 28.8644 78.4883 28.8256 78.4645 28.7877C78.408 28.6896 78.345 28.5907 78.2779 28.4942C77.9504 27.983 78.6021 27.2312 79.7615 26.6986C79.9441 26.6153 80.1381 26.537 80.3436 26.4652L82.5961 25.6845C82.9997 25.5452 83.3854 25.4289 83.7333 25.3423C84.7019 25.0967 85.393 25.062 85.4429 25.2879C85.4896 25.5039 85.5379 25.7125 85.5322 25.8469L85.5314 25.8461Z" fill="#B2B9F4"/>
<path fill-rule="evenodd" clip-rule="evenodd" d="M87.864 21.7461C87.8844 22 87.8804 22.1806 87.8451 22.3422C87.778 22.6654 86.3795 23.32 84.8566 23.8484L84.6552 23.9177V23.9194L80.1053 25.4965C80.0324 25.5213 79.9596 25.5468 79.8883 25.5699C78.4653 26.0374 77.3215 26.1437 77.2519 25.809C77.2478 25.79 77.2437 25.7694 77.2388 25.7504C77.2347 25.7315 77.2298 25.7142 77.2257 25.6944C77.2183 25.6639 77.2109 25.6342 77.2019 25.6045C77.1946 25.5798 77.1872 25.5542 77.1782 25.5311C77.1708 25.5072 77.1618 25.4842 77.1536 25.4611C77.1438 25.4314 77.1332 25.4034 77.1201 25.3778C77.111 25.3572 77.102 25.3382 77.0922 25.3193C77.0898 25.3151 77.0881 25.3102 77.0857 25.3061C77.084 25.3028 77.0824 25.3003 77.0807 25.297C77.0627 25.2648 77.0431 25.2343 77.0218 25.2047C76.7745 24.8642 76.5772 24.4998 76.3512 24.1444C76.0409 23.6613 76.0876 23.3356 76.0483 22.7907C76.0409 22.6876 76.0786 22.4527 76.1473 22.2045C76.2423 21.8871 77.5908 21.2218 79.1064 20.6966L79.8498 20.4377L84.8239 18.7121C85.9521 18.3214 86.8847 18.0732 87.2581 18.0575C87.3874 18.0518 87.4489 18.074 87.4292 18.1268C87.3809 18.2472 87.3342 18.3708 87.2769 18.4986C87.1271 18.8375 87.4112 18.8086 87.5275 19.0576C87.5889 19.1878 87.5643 19.5259 87.5397 19.7213C87.5193 19.8853 87.5078 20.0527 87.5103 20.075C87.5545 20.3932 87.8607 20.4591 87.9025 20.784C87.9434 21.1113 87.837 21.4237 87.8632 21.7453L87.864 21.7461Z" fill="#B2B9F4"/>
<path fill-rule="evenodd" clip-rule="evenodd" d="M92.2101 11.7916C92.1594 11.9293 92.1127 12.0719 92.0979 12.1074C91.9096 12.579 91.6255 13.0151 91.4257 13.4908C91.2341 13.9475 90.7478 14.5065 90.2426 15.0045C89.7399 15.5008 88.7262 16.0944 87.6561 16.5891C87.1157 16.8413 86.5581 17.0689 86.0464 17.247L79.7263 19.4392L79.5396 19.5035C78.0331 20.0262 76.764 20.2999 76.6797 20.1194C76.6756 20.1029 76.6715 20.0888 76.6657 20.0757C76.6535 20.0344 76.642 19.9949 76.6305 19.9578C76.6232 19.9256 76.615 19.8959 76.6076 19.8695C76.6076 19.8662 76.606 19.8638 76.606 19.8605C76.6035 19.8514 76.6019 19.8415 76.5986 19.8324C76.597 19.8234 76.5953 19.8168 76.5945 19.8077C76.5912 19.7912 76.5888 19.7756 76.5871 19.7624C76.5536 19.426 76.4021 19.2042 76.249 18.9049C76.1335 18.6799 76.1876 18.4292 76.0492 18.1967C75.8658 17.8917 75.5391 17.6402 75.2517 17.3673C75.2329 17.3484 75.2141 17.3294 75.196 17.3096L75.1936 17.3072C75.1788 17.2907 75.1641 17.275 75.151 17.2585C75.1371 17.2404 75.1223 17.2231 75.1109 17.2041C75.0961 17.1851 75.0814 17.1645 75.0683 17.1439C75.0503 17.1175 75.0347 17.0912 75.02 17.0631C74.9897 17.0087 74.9651 16.9526 74.943 16.8974C74.9332 16.8735 74.9258 16.8504 74.9168 16.8282C74.9127 16.815 74.9078 16.8018 74.9037 16.7886C74.898 16.768 74.8915 16.7474 74.8857 16.7267C74.7768 16.3277 76.0893 15.556 77.6114 15.0284L78.5767 14.6937L86.2077 12.0464C87.0232 11.7628 87.7879 11.5558 88.3545 11.4486C88.8458 11.3563 89.1856 11.3365 89.274 11.4091C89.4116 11.5187 89.5639 11.6061 89.6752 11.5616C90.214 11.3489 90.7617 11.2648 91.3594 11.1386C91.6452 11.0768 92.4238 10.5426 92.2355 11.231C92.229 11.2664 92.2543 11.306 92.2879 11.3678C92.3288 11.4396 92.2748 11.6193 92.2109 11.7924L92.2101 11.7916Z" fill="#B2B9F4"/>
<path fill-rule="evenodd" clip-rule="evenodd" d="M91.2875 23.9408C91.0295 24.701 90.5915 25.3918 90.3336 26.1536C90.1559 26.6763 89.8742 27.2312 89.2241 27.1743C88.696 27.129 88.6371 26.6236 88.6846 26.2303C88.7337 25.8585 88.4471 25.659 88.7108 25.2731C88.8508 25.0678 89.2299 24.8057 89.1439 24.4726C89.0768 24.2211 88.922 23.738 89.103 23.508C89.1161 23.4915 89.1267 23.475 89.1365 23.4585C89.1529 23.4305 89.7473 23.2021 90.4687 22.9523C91.19 22.7017 91.7926 22.6258 91.7869 22.7833C91.782 22.8979 91.764 22.9968 91.723 23.0578C91.6518 23.1576 91.3644 23.7157 91.2875 23.9416V23.9408Z" fill="#B2B9F4"/>
<path d="M46.2213 45.1975L45.6949 43.6962H42.292L41.795 45.1975H40.0322L42.9315 36.8574H44.9547L47.8769 45.1975H46.2213ZM42.8242 42.1594H45.1553L43.9599 38.752L42.8242 42.1594Z" fill="#B2B9F4"/>
<path d="M55.9941 38.4296H52.6805V40.4075H55.8991V41.9805H52.6805V45.1975H51.0479V36.8574H55.9941V38.4305V38.4296Z" fill="#B2B9F4"/>
<path d="M64.0995 45.1975L62.4251 42.3021H61.1888V45.1975H59.5562V36.8574H62.8697C63.6345 36.8574 64.2854 37.1278 64.8225 37.6679C65.3588 38.2079 65.6273 38.8592 65.6273 39.6218C65.6273 40.1379 65.4816 40.6169 65.1893 41.0572C64.8978 41.4982 64.5105 41.8297 64.0299 42.0523L65.864 45.1975H64.1012H64.0995ZM61.1888 38.3942V40.8609H62.8689C63.1768 40.8609 63.4404 40.7397 63.6615 40.4974C63.8825 40.255 63.9931 39.9631 63.9931 39.6218C63.9931 39.2805 63.8825 38.9903 63.6615 38.752C63.4404 38.5137 63.1768 38.3942 62.8689 38.3942H61.1888Z" fill="#B2B9F4"/>
<path d="M69.187 36.8574H70.8196V45.1975H69.187V36.8574Z" fill="#B2B9F4"/>
<path d="M78.6538 45.3626C77.4076 45.3626 76.3776 44.9455 75.5653 44.112C74.7531 43.2776 74.3462 42.2495 74.3462 41.026C74.3462 39.8026 74.7523 38.7646 75.5653 37.9344C76.3776 37.1042 77.4068 36.6895 78.6538 36.6895C79.4029 36.6895 80.0956 36.8667 80.7302 37.2196C81.3647 37.5733 81.8601 38.0514 82.2154 38.6558L80.8071 39.4777C80.6016 39.1043 80.3101 38.8124 79.9319 38.6022C79.5536 38.3919 79.127 38.2864 78.6538 38.2864C77.8489 38.2864 77.2004 38.5403 76.7075 39.049C76.2146 39.5577 75.9682 40.2164 75.9682 41.0269C75.9682 41.8373 76.2146 42.4845 76.7075 42.9932C77.2004 43.5019 77.8497 43.7558 78.6538 43.7558C79.127 43.7558 79.5552 43.6503 79.9376 43.44C80.32 43.2298 80.6098 42.9421 80.8071 42.576L82.2154 43.398C81.8601 44.0015 81.3672 44.4805 80.7367 44.8342C80.1054 45.1879 79.4111 45.3643 78.6538 45.3643V45.3626Z" fill="#B2B9F4"/>
<path d="M90.9957 45.1975L90.4693 43.6962H87.0664L86.5694 45.1975H84.8066L87.7059 36.8574H89.7291L92.6513 45.1975H90.9957ZM87.5987 42.1594H89.9297L88.7343 38.752L87.5987 42.1594Z" fill="#B2B9F4"/>
<path d="M132.092 40.5918H94.7778V41.6042H132.092V40.5918Z" fill="#B2B9F4"/>
<path d="M0.489746 41.6042V41.6034V40.5918H37.8045V41.6042H0.489746Z" fill="#B2B9F4"/>
<path d="M132.092 40.5918H94.7778V41.6042H132.092V40.5918Z" fill="#B2B9F4"/>
</svg>
