<svg width="151" height="45" viewBox="0 0 151 45" fill="none" xmlns="http://www.w3.org/2000/svg">
<g clip-path="url(#clip0_7185_18211)">
<path d="M40.1667 21.6C42.3499 19.8 43.6988 16.52 43.6988 13.82C43.6988 6.04 37.4689 0 29.6954 0H0V45H10.2815V10.285H29.1958H29.9951C34.6213 10.285 34.6213 17.55 30.0601 17.55H29.2008L18.5496 17.555V27.125H29.3806C34.0068 27.125 34.0717 34.775 29.4456 34.775H27.4822H18.5496V44.995H31.5638C40.7462 44.995 45.5023 38.63 45.5672 30.79C45.5672 26.805 43.8337 23.46 40.1717 21.595L40.1667 21.6Z" fill="#B2B9F4"/>
<path d="M56.5181 11.8457H66.6447C71.021 11.8457 72.9295 13.9757 72.9295 16.5607C72.9295 18.6807 71.6056 19.9407 70.1967 20.4657C71.9653 21.0157 73.5989 22.3807 73.5989 24.7057C73.5989 28.1407 70.9661 30.1557 66.4798 30.1557H56.5181V11.8457ZM65.7154 19.0157C67.7038 19.0157 68.3383 18.2257 68.3383 17.1207C68.3383 15.7407 67.2891 15.1807 65.7554 15.1807H60.8894V19.0207H65.7154V19.0157ZM60.8894 26.8507H65.9053C67.6139 26.8507 68.9128 26.3507 68.9128 24.5357C68.9128 23.0757 67.9186 22.3207 65.9852 22.3207H60.8844V26.8507H60.8894Z" fill="#B2B9F4"/>
<path d="M77.0063 11.8457H92.0639V15.3807H81.4477V19.5457H91.3495V23.1057H81.4477V30.1557H77.0063V11.8457Z" fill="#B2B9F4"/>
<path d="M99.9071 23.1007V30.1557H95.5107V11.8457H105.477C109.699 11.8457 112.112 13.9307 112.112 17.0757C112.112 19.4407 110.738 20.8307 108.93 21.4057C109.679 21.7007 111.642 22.4207 111.642 25.7107V26.6257C111.642 27.8807 111.617 29.2907 111.872 30.1557H107.316C107.011 29.3507 106.976 28.2657 106.976 26.3207V25.7207C106.976 23.8707 106.297 23.0957 103.629 23.0957H99.9121L99.9071 23.1007ZM99.9071 19.7657H104.483C106.642 19.7657 107.571 18.9857 107.571 17.4457C107.571 16.0007 106.612 15.1757 104.518 15.1757H99.9021V19.7657H99.9071Z" fill="#B2B9F4"/>
<path d="M130.621 22.4307H120.41V26.6007H131.766L131.256 30.1607H115.974V11.8457H131.176V15.4057H120.415V18.8757H130.626V22.4357L130.621 22.4307Z" fill="#B2B9F4"/>
<path d="M149.606 22.4307H139.394V26.6007H150.75L150.24 30.1607H134.958V11.8457H150.16V15.4057H139.399V18.8757H149.611V22.4357L149.606 22.4307Z" fill="#B2B9F4"/>
</g>
<defs>
<clipPath id="clip0_7185_18211">
<rect width="150.75" height="45" fill="white"/>
</clipPath>
</defs>
</svg>
