<svg width="195" height="45" viewBox="0 0 195 45" fill="none" xmlns="http://www.w3.org/2000/svg">
<g clip-path="url(#clip0_7185_18230)">
<path d="M0.0561523 23.5594C0.241895 21.3447 0.428453 19.1308 0.614196 16.9169C1.12255 16.4664 1.71806 16.0815 2.12539 15.5549C6.18486 10.3015 9.92904 9.55944 16.127 10.5751C17.0989 10.7339 18.0227 11.1721 18.9694 11.4817C19.1934 11.8044 19.3482 12.2222 19.652 12.4367C23.9339 15.4656 25.4761 19.4429 24.5539 24.5996C23.4557 30.74 17.652 34.7369 12.1677 34.6534C11.4451 34.6427 10.7258 34.4814 10.0048 34.3896C9.99666 34.1537 9.9877 33.9179 9.97955 33.682C11.7596 31.6221 12.8806 29.3902 11.9519 26.5931C10.9482 23.5725 7.59585 21.8377 4.49443 22.8059C3.61949 23.0786 2.79993 23.5217 1.95513 23.887C1.32295 23.7781 0.68996 23.67 0.0577817 23.561L0.0561523 23.5594Z" fill="#0E3A99"/>
<path d="M18.9687 11.4816C18.0229 11.1728 17.0983 10.7346 16.1264 10.5749C9.92923 9.55929 6.18504 10.3013 2.12476 15.5547C1.71825 16.0813 1.12192 16.4663 0.613566 16.9168C0.409901 16.5335 0.0318974 16.151 0.0286388 15.766C-0.0120944 11.2473 0.00256956 6.72866 0.00256956 2.09778C0.475888 2.03471 0.876702 1.98066 1.27752 1.92742C2.47018 1.91677 3.66203 1.9053 4.8547 1.89466C5.27099 1.89138 5.68647 1.88892 6.10276 1.88565C6.22659 1.8881 6.35042 1.89056 6.47506 1.89302C6.78382 1.8881 7.09258 1.88401 7.40133 1.8791C8.16386 1.87746 8.92638 1.87582 9.68972 1.875C10.2144 1.88155 10.7382 1.8881 11.2628 1.89466C11.3826 1.91186 11.5015 1.92906 11.6213 1.94544C13.0641 2.18788 14.5899 2.21654 15.9341 2.71616C18.8099 3.78665 20.8775 7.68367 18.9695 11.4816H18.9687Z" fill="#0AB7FB"/>
<path d="M0.0561523 23.5605C0.68833 23.6695 1.32132 23.7776 1.9535 23.8865C1.37916 24.6966 0.805642 25.5058 0.0561523 26.5632V23.5605Z" fill="#093FA2"/>
<path d="M9.97902 33.6816C9.98716 33.9175 9.99613 34.1534 10.0043 34.3893C9.75906 34.4999 9.51303 34.6096 9.26782 34.7202C9.19205 34.6268 9.11629 34.5334 9.04053 34.4401C9.35336 34.187 9.66619 33.9347 9.97983 33.6816H9.97902Z" fill="#234EA4"/>
<path d="M9.68878 1.87305C8.92625 1.87468 8.16373 1.87632 7.40039 1.87714C8.16291 1.8755 8.92544 1.87387 9.68878 1.87305Z" fill="#ADDDFB"/>
<path d="M11.6202 1.94531C11.5004 1.92811 11.3815 1.91091 11.2617 1.89453C11.3815 1.91173 11.5004 1.92893 11.6202 1.94531Z" fill="#ADDDFB"/>
<path d="M6.47484 1.89214C6.35101 1.88968 6.22718 1.88722 6.10254 1.88477C6.22637 1.88722 6.3502 1.88968 6.47484 1.89214Z" fill="#ADDDFB"/>
<path d="M44.3354 11.1953H52.3028V35.3236H44.3354V32.9107C42.8959 34.9697 40.671 35.9993 37.6633 35.9993C35.071 35.9993 32.9513 35.1065 31.3032 33.321C29.6552 31.5355 28.8315 28.9702 28.8315 25.6244V11.1961H36.7989V24.6113C36.7989 25.8661 37.1264 26.8153 37.7831 27.4583C38.4389 28.1021 39.3105 28.4231 40.3989 28.4231C41.647 28.4231 42.614 28.0455 43.3032 27.2887C43.9908 26.5336 44.3354 25.4475 44.3354 24.0314V11.1953Z" fill="#0E3A99"/>
<path d="M64.1343 7.84236C63.2227 8.75887 62.1424 9.21754 60.8944 9.21754C59.6463 9.21754 58.566 8.75887 57.6544 7.84236C56.7428 6.92585 56.2866 5.83979 56.2866 4.58502C56.2866 3.33024 56.7428 2.25319 57.6544 1.35143C58.566 0.451294 59.6463 0 60.8944 0C62.1424 0 63.2227 0.450475 64.1343 1.35143C65.0459 2.25238 65.5021 3.33024 65.5021 4.58502C65.5021 5.83979 65.0459 6.92585 64.1343 7.84236ZM56.9107 35.3246V11.1964H64.8781V35.3246H56.9107Z" fill="#0E3A99"/>
<path d="M69.4858 35.3229V0.0957031H77.4532V35.3229H69.4858Z" fill="#0E3A99"/>
<path d="M98.9571 1.54297H106.924V35.322H98.9571V33.1024C97.3253 35.0329 95.0524 35.9978 92.1416 35.9978C88.9416 35.9978 86.2622 34.7839 84.1017 32.3546C81.9421 29.9262 80.8618 26.8941 80.8618 23.2583C80.8618 19.6226 81.9421 16.5913 84.1017 14.162C86.2614 11.7335 88.9416 10.5189 92.1416 10.5189C95.0532 10.5189 97.3253 11.4837 98.9571 13.4142V1.54297ZM90.2695 27.071C91.1974 28.0358 92.4129 28.5191 93.9176 28.5191C95.4223 28.5191 96.6369 28.0366 97.5657 27.071C98.4936 26.1061 98.9579 24.835 98.9579 23.2591C98.9579 21.6833 98.4936 20.4121 97.5657 19.4465C96.6369 18.4817 95.4215 17.9984 93.9176 17.9984C92.4137 17.9984 91.1974 18.4808 90.2695 19.4465C89.3408 20.4113 88.8773 21.6825 88.8773 23.2591C88.8773 24.8358 89.3408 26.1061 90.2695 27.071Z" fill="#0E3A99"/>
<path d="M125.644 10.6639C129.099 10.6639 132.035 11.8785 134.451 14.307C136.866 16.7363 138.075 19.72 138.075 23.2583C138.075 26.7966 136.866 29.7812 134.451 32.2097C132.035 34.639 129.099 35.8528 125.644 35.8528C123.372 35.8528 121.332 35.3065 119.524 34.2122C117.715 33.1188 116.316 31.6232 115.324 29.7247V35.322H112.924V1.54297H115.324V16.792C116.316 14.8942 117.716 13.3978 119.524 12.3044C121.332 11.211 123.372 10.6639 125.644 10.6639ZM118.276 30.5454C120.244 32.5406 122.651 33.5373 125.499 33.5373C128.348 33.5373 130.755 32.5406 132.723 30.5454C134.691 28.551 135.675 26.1225 135.675 23.2583C135.675 20.3941 134.691 17.9665 132.723 15.9713C130.755 13.9769 128.347 12.9793 125.499 12.9793C122.652 12.9793 120.244 13.9769 118.276 15.9713C116.308 17.9665 115.323 20.3949 115.323 23.2583C115.323 26.1217 116.308 28.551 118.276 30.5454Z" fill="#0E3A99"/>
<path d="M165.002 11.1959H167.45V35.3242H165.002V29.871C163.977 31.7368 162.569 33.2004 160.778 34.2627C158.986 35.3242 156.954 35.8549 154.682 35.8549C151.258 35.8549 148.33 34.6411 145.898 32.2118C143.466 29.7834 142.25 26.7996 142.25 23.2605C142.25 19.7214 143.465 16.7384 145.898 14.3091C148.33 11.8807 151.258 10.666 154.682 10.666C156.953 10.666 158.985 11.1968 160.778 12.2582C162.569 13.3197 163.977 14.7842 165.002 16.65V11.1968V11.1959ZM147.65 30.5467C149.619 32.5419 152.026 33.5387 154.874 33.5387C157.722 33.5387 160.121 32.5419 162.074 30.5467C164.025 28.5523 165.002 26.1239 165.002 23.2597C165.002 20.3955 164.025 17.9678 162.074 15.9726C160.122 13.9782 157.722 12.9806 154.874 12.9806C152.026 12.9806 149.618 13.9782 147.65 15.9726C145.682 17.9678 144.699 20.3963 144.699 23.2597C144.699 26.123 145.683 28.5523 147.65 30.5467Z" fill="#0E3A99"/>
<path d="M192.408 11.1953H195L184.633 37.5432C183.704 39.9233 182.392 41.7973 180.697 43.1651C179.001 44.5321 177.145 45.1349 175.13 44.9744V42.7064C176.665 42.8342 178.049 42.3928 179.281 41.3796C180.513 40.3664 181.513 38.9257 182.281 37.0608L182.809 35.7577L171.769 11.1953H174.361L184.057 32.669L192.409 11.1953H192.408Z" fill="#0E3A99"/>
</g>
<defs>
<clipPath id="clip0_7185_18230">
<rect width="195" height="45" fill="white"/>
</clipPath>
</defs>
</svg>
