<svg width="96" height="99" viewBox="0 0 96 99" fill="none" xmlns="http://www.w3.org/2000/svg">
<path d="M0.00547826 0H22.2723V63.4753C22.2723 68.5334 24.3368 72.4865 28.6866 75.0231C30.2337 75.9272 32.1224 76.319 33.9055 76.6907C35.1964 76.9569 36.5727 76.8213 37.9138 76.8213H89.565C90.7706 76.8213 91.9711 76.9318 93.2821 76.9971V98.7416C92.393 98.832 91.6044 98.9726 90.8158 98.9726C69.2672 98.9726 47.7187 99.0329 26.1752 98.9726C13.4218 98.9324 2.35623 89.218 0.507775 76.5903C0.196351 74.4555 0.0356161 72.3007 0.0255701 70.1408C0.00045529 47.9644 -0.00959065 25.798 0.0155242 3.64165V0H0.00547826Z" fill="#A6ADE5"/>
<path d="M39.5864 63.7653V41.5436H73.5015C73.3257 37.1033 71.633 32.8589 68.6945 29.5237C64.5757 24.7619 59.3769 22.1801 53.0028 22.17H42.4897C41.5856 22.17 40.6764 22.0897 39.6015 22.0344V0.194524C40.4906 0.124202 41.2792 0.00867399 42.0728 0.00365102C45.7697 -0.0114179 49.4967 0.00867399 53.2087 0.00867399C72.5924 -0.0315098 90.2682 13.8218 94.6432 33.3662C95.3565 36.7869 95.7483 40.2678 95.8186 43.7638C96.0095 49.3091 95.8688 54.8947 95.8688 60.4601V63.0118C95.6227 63.283 95.5524 63.3835 95.4821 63.4388C95.4117 63.494 95.3213 63.6146 95.241 63.6146C77.7208 63.6698 60.2057 63.72 42.6856 63.7703H39.5864V63.7653Z" fill="#A6ADE5"/>
</svg>
