<svg width="96" height="99" viewBox="0 0 96 99" fill="none" xmlns="http://www.w3.org/2000/svg">
<path d="M0.0045017 0H22.2713V63.4753C22.2713 68.5334 24.3358 72.4865 28.6857 75.0231C30.2327 75.9272 32.1214 76.319 33.9045 76.6907C35.1954 76.9569 36.5717 76.8213 37.9129 76.8213H89.5641C90.7696 76.8213 91.9701 76.9318 93.2811 76.9971V98.7416C92.392 98.832 91.6034 98.9726 90.8148 98.9726C69.2663 98.9726 47.7177 99.0329 26.1742 98.9726C13.4209 98.9324 2.35525 89.218 0.506799 76.5903C0.195375 74.4555 0.0346395 72.3007 0.0245936 70.1408C-0.000521272 47.9644 -0.0105672 25.798 0.0145476 3.64165V0H0.0045017Z" fill="#1227E2"/>
<path d="M39.5854 63.7653V41.5436H73.5006C73.3248 37.1033 71.632 32.8589 68.6936 29.5237C64.5747 24.7619 59.376 22.1801 53.0018 22.17H42.4887C41.5846 22.17 40.6754 22.0897 39.6005 22.0344V0.194524C40.4896 0.124202 41.2782 0.00867399 42.0718 0.00365102C45.7687 -0.0114179 49.4958 0.00867399 53.2077 0.00867399C72.5914 -0.0315098 90.2672 13.8218 94.6422 33.3662C95.3555 36.7869 95.7473 40.2678 95.8176 43.7638C96.0085 49.3091 95.8678 54.8947 95.8678 60.4601V63.0118C95.6217 63.283 95.5514 63.3835 95.4811 63.4388C95.4108 63.494 95.3203 63.6146 95.24 63.6146C77.7199 63.6698 60.2048 63.72 42.6846 63.7703H39.5854V63.7653Z" fill="#1227E2"/>
</svg>
