<svg width="210" height="45" viewBox="0 0 210 45" fill="none" xmlns="http://www.w3.org/2000/svg">
<path d="M34.9222 16.382V18.9886C34.9222 23.8398 33.3612 27.7498 30.2574 30.7546C27.1536 33.7595 23.1423 35.262 18.2053 35.262C12.9597 35.262 8.62163 33.5604 5.17298 30.1573C1.72433 26.7542 0 22.5908 0 17.6853C0 12.7797 1.70618 8.56207 5.11853 5.14086C8.53088 1.71965 12.76 0 17.8241 0C21.0005 0 23.9046 0.724064 26.5183 2.15409C29.1321 3.58412 31.1831 5.50289 32.6352 7.8923L26.8995 11.1868C26.0827 9.79297 24.8666 8.67067 23.233 7.80179C21.5995 6.93292 19.7844 6.49848 17.7696 6.49848C14.5388 6.49848 11.8706 7.54837 9.78329 9.66626C7.69595 11.7842 6.6432 14.4451 6.6432 17.6853C6.6432 20.9074 7.69594 23.514 9.81959 25.6138C11.9432 27.6955 14.7566 28.7454 18.2416 28.7454C20.8371 28.7454 22.9789 28.1661 24.667 27.0257C26.3731 25.8853 27.5166 24.3105 28.1338 22.3012H17.8422V16.4001H34.9222V16.382Z" fill="#B2B9F4"/>
<path d="M59.7525 13.3739C57.4292 10.9301 54.5069 9.69922 50.9312 9.69922C47.174 9.69922 44.1065 10.912 41.7106 13.3557C39.3147 15.7995 38.1167 18.8405 38.1167 22.479C38.1167 23.3659 38.1893 24.2348 38.3345 25.0494H62.9833C63.1467 24.1443 63.2193 23.2935 63.2193 22.479C63.2374 18.8586 62.0758 15.8176 59.7525 13.3739Z" fill="#B2B9F4"/>
<path d="M87.6679 13.3382C85.272 10.8944 82.2045 9.68164 78.4473 9.68164C74.8897 9.68164 71.9493 10.9125 69.626 13.3563C67.3027 15.8181 66.1592 18.8411 66.1592 22.4614C66.1592 23.276 66.2499 24.1267 66.3951 25.0318H91.0439C91.1892 24.2172 91.2617 23.3665 91.2617 22.4614C91.2436 18.823 90.0638 15.7819 87.6679 13.3382ZM72.4031 20.1987C72.7661 18.5514 73.4921 17.3205 74.6175 16.5241C75.7428 15.7095 77.0134 15.3112 78.4291 15.3112C80.1172 15.3112 81.4966 15.7457 82.6038 16.5965C83.711 17.4472 84.4371 18.66 84.7819 20.1987H72.4031Z" fill="#B2B9F4"/>
<path d="M114.024 10.3695H120.14V33.431C120.14 37.178 118.906 40.0381 116.419 42.0111C113.933 43.9842 110.956 44.9617 107.453 44.9617C104.821 44.9617 102.516 44.4548 100.538 43.4593C98.5409 42.4637 97.0163 40.9974 95.9454 39.0606L101.282 36.0014C102.516 38.2641 104.64 39.3864 107.634 39.3864C109.613 39.3864 111.156 38.8615 112.299 37.8297C113.425 36.7979 114.005 35.3316 114.005 33.4129V30.8062C112.154 33.2681 109.577 34.4809 106.237 34.4809C102.897 34.4809 99.9385 33.2861 97.6152 30.8786C95.2919 28.4711 94.1484 25.5387 94.1484 22.0813C94.1484 18.6238 95.3101 15.7457 97.6515 13.3201C99.993 10.8944 102.843 9.68164 106.255 9.68164C109.667 9.68164 112.172 10.9125 114.024 13.3563V10.3695ZM102.353 26.8601C103.623 28.1091 105.257 28.7245 107.235 28.7245C109.214 28.7245 110.829 28.1091 112.118 26.8601C113.388 25.6111 114.042 24.0181 114.042 22.0813C114.042 20.1444 113.406 18.6057 112.118 17.3567C110.847 16.1077 109.214 15.4923 107.235 15.4923C105.257 15.4923 103.641 16.1077 102.353 17.3567C101.082 18.6057 100.429 20.1806 100.429 22.0813C100.429 24 101.064 25.6111 102.353 26.8601Z" fill="#B2B9F4"/>
<path d="M139.96 9.68164C143.227 9.68164 146.023 10.9126 148.346 13.3925C150.669 15.8543 151.813 18.8954 151.813 22.4795C151.813 26.0636 150.651 29.0866 148.346 31.5665C146.023 34.0464 143.246 35.2773 139.96 35.2773C136.675 35.2773 133.934 34.1007 132.101 31.7475V44.2919H125.821V10.3695H132.083V13.2296C133.934 10.8763 136.566 9.68164 139.96 9.68164ZM133.989 27.385C135.259 28.6521 136.856 29.3038 138.799 29.3038C140.741 29.3038 142.356 28.6702 143.627 27.385C144.897 26.1179 145.551 24.4707 145.551 22.4614C145.551 20.4521 144.915 18.823 143.627 17.5377C142.356 16.2706 140.741 15.619 138.799 15.619C136.856 15.619 135.259 16.2525 133.989 17.5377C132.718 18.823 132.101 20.4521 132.101 22.4614C132.101 24.4707 132.736 26.1179 133.989 27.385Z" fill="#B2B9F4"/>
<path d="M174.683 10.372H180.945V34.5919H174.683V31.7319C172.814 34.0851 170.164 35.2617 166.77 35.2617C163.376 35.2617 160.762 34.0308 158.438 31.5509C156.115 29.071 154.972 26.048 154.972 22.4639C154.972 18.8797 156.133 15.8568 158.438 13.3768C160.744 10.8969 163.539 9.66602 166.77 9.66602C170.164 9.66602 172.814 10.8426 174.683 13.1958V10.372ZM163.121 27.3875C164.392 28.6546 165.989 29.3063 167.931 29.3063C169.873 29.3063 171.489 28.6727 172.759 27.3875C174.03 26.1204 174.683 24.4731 174.683 22.4639C174.683 20.4546 174.048 18.8254 172.759 17.5402C171.489 16.2731 169.873 15.6214 167.931 15.6214C165.989 15.6214 164.392 16.255 163.121 17.5402C161.851 18.8254 161.234 20.4546 161.234 22.4639C161.234 24.4731 161.869 26.1204 163.121 27.3875Z" fill="#B2B9F4"/>
<path d="M202.473 10.373H209.17L200.313 34.6292C199.042 38.0866 197.372 40.6027 195.285 42.1595C193.198 43.7162 190.602 44.4222 187.498 44.2774V38.4668C189.186 38.503 190.511 38.1409 191.509 37.3988C192.49 36.6566 193.288 35.4619 193.869 33.8146L183.904 10.373H190.747L197.082 26.6464L202.473 10.373Z" fill="#B2B9F4"/>
<path d="M82.9304 27.748C79.627 34.5362 72.6571 39.2064 64.58 39.2064C56.5028 39.2064 49.5329 34.5362 46.2295 27.748H39.9312C43.5795 37.8125 53.2357 44.9989 64.58 44.9989C75.9242 44.9989 85.5804 37.8125 89.2288 27.748H82.9304Z" fill="#B2B9F4"/>
</svg>
