<svg width="100" height="100" viewBox="0 0 100 100" fill="none" xmlns="http://www.w3.org/2000/svg">
<g opacity="0.3">
<path fill-rule="evenodd" clip-rule="evenodd" d="M50 99.7294C22.3857 99.7294 0 77.4042 0 49.8647C0 22.3251 22.3857 0 50 0C77.6143 0 100 22.3251 100 49.8647C100 77.4042 77.6143 99.7294 50 99.7294ZM50 96.1676C75.6418 96.1676 96.4286 75.4371 96.4286 49.8647C96.4286 24.2922 75.6418 3.56176 50 3.56176C24.3582 3.56176 3.57143 24.2922 3.57143 49.8647C3.57143 75.4371 24.3582 96.1676 50 96.1676Z" fill="#1227E2"/>
<path fill-rule="evenodd" clip-rule="evenodd" d="M11.308 32.8155C13.4478 27.712 16.5182 24.7455 17.3472 23.9065C18.1763 23.068 19.3534 23.477 20.1416 23.9065C20.9299 24.3364 40.6891 44.0742 41.5712 45.0654C42.4529 46.0566 43.3875 47.5352 40.8564 47.5352C38.3248 47.5352 13.4544 47.3185 11.308 47.1709C9.16102 47.0228 8.52734 45.7742 8.52734 44.7077C8.52734 43.6412 9.16765 37.9195 11.308 32.8155ZM35.212 10.8582C40.3442 8.75832 44.0029 8.89621 45.184 8.88807C46.3651 8.87993 46.9069 9.99883 47.16 10.8582C47.4125 11.7181 47.5962 39.7772 47.5171 41.0996C47.4375 42.4226 47.4595 43.8895 45.6697 42.104C43.8794 40.3191 26.4467 22.6273 25.034 21.0093C23.6207 19.3907 24.058 18.0606 24.8146 17.3065C25.5707 16.5525 30.0799 12.9587 35.2125 10.8582H35.212ZM66.5855 11.277C71.7029 13.411 74.6773 16.4731 75.5187 17.2999C76.3595 18.1268 75.9493 19.3006 75.5187 20.0868C75.0876 20.8729 55.2962 40.5786 54.3023 41.4583C53.3085 42.3376 51.8258 43.2698 51.8258 40.7455C51.8258 38.2207 52.0432 13.4176 52.1911 11.277C52.3396 9.13586 53.5916 8.50391 54.661 8.50391C55.7304 8.50391 61.4677 9.14248 66.5855 11.277ZM88.6023 35.1164C90.708 40.2346 90.5697 43.8834 90.5779 45.0613C90.586 46.2393 89.4641 46.7796 88.6023 47.032C87.7401 47.2839 59.6049 47.467 58.2789 47.3882C56.9523 47.3088 55.4814 47.3307 57.2717 45.5457C59.0615 43.7603 76.8013 26.3748 78.4238 24.9659C80.0467 23.5564 81.3804 23.9925 82.1365 24.7471C82.8926 25.5011 86.4962 29.9981 88.6023 35.1169V35.1164ZM88.1824 66.9138C86.0427 72.0173 82.9722 74.9837 82.1432 75.8227C81.3141 76.6613 80.137 76.2522 79.3488 75.8227C78.5605 75.3928 58.8013 55.655 57.9192 54.6638C57.0375 53.6727 56.1029 52.194 58.634 52.194C61.1656 52.194 86.036 52.4108 88.1824 52.5583C90.3294 52.7064 90.9631 53.955 90.9631 55.0215C90.9631 56.088 90.3228 61.8098 88.1824 66.9138ZM64.2784 88.871C59.1462 90.9709 55.4875 90.833 54.3064 90.8412C53.1253 90.8493 52.5835 89.7304 52.3304 88.871C52.0779 88.0111 51.8942 59.952 51.9733 58.6296C52.0529 57.3067 52.0309 55.8397 53.8207 57.6252C55.611 59.4101 73.0437 77.1019 74.4564 78.72C75.8697 80.3386 75.4324 81.6686 74.6758 82.4227C73.9197 83.1768 69.4105 86.7706 64.2779 88.871H64.2784ZM32.9049 88.4522C27.7875 86.3182 24.8131 83.2561 23.9717 82.4293C23.1309 81.6025 23.5411 80.4286 23.9717 79.6425C24.4029 78.8563 44.1942 59.1506 45.1881 58.2709C46.1819 57.3916 47.6646 56.4595 47.6646 58.9837C47.6646 61.5085 47.4472 86.3116 47.2993 88.4522C47.1508 90.5934 45.8988 91.2253 44.8294 91.2253C43.76 91.2253 38.0227 90.5868 32.9049 88.4522ZM10.8881 64.6129C8.78245 59.4946 8.92071 55.8458 8.91255 54.6679C8.90438 53.49 10.0263 52.9496 10.8881 52.6972C11.7503 52.4454 39.8855 52.2622 41.2115 52.3411C42.5381 52.4204 44.009 52.3986 42.2187 54.1835C40.4289 55.969 22.6891 73.3544 21.0666 74.7634C19.4437 76.1728 18.11 75.7368 17.3539 74.9822C16.5978 74.2281 12.9942 69.7311 10.8881 64.6124V64.6129Z" fill="#1227E2"/>
</g>
</svg>
