<svg width="98" height="98" viewBox="0 0 98 98" fill="none" xmlns="http://www.w3.org/2000/svg">
<path opacity="0.3" d="M54.616 52.8307H37.6594C37.6017 52.8307 37.5439 52.8596 37.5439 52.9174C37.5439 52.9462 37.5439 52.9751 37.5728 52.9751L65.9397 93.9884C65.9686 94.0462 65.9686 94.1039 65.9108 94.1328C65.9108 94.1328 65.8819 94.1328 65.8819 94.1617C40.8659 103.722 12.8167 91.1579 3.28406 66.1456C-6.24861 41.1333 6.28829 13.0883 31.3043 3.55702C56.3204 -5.97423 84.3695 6.56081 93.9022 31.5731C101.471 51.4155 95.2599 73.8572 78.5633 86.9988C78.5344 87.0277 78.4477 87.0277 78.4188 86.9988L64.0909 66.29C64.0621 66.2322 64.0621 66.1745 64.1198 66.1456C64.1198 66.1456 64.1487 66.1456 64.1487 66.1167C74.6058 62.7085 80.3254 51.4443 76.8878 40.9888C74.2013 32.7573 66.5174 27.2119 57.8514 27.2696H19.9518C19.894 27.2696 19.8362 27.3274 19.8362 27.3852C19.8362 27.414 19.8362 27.414 19.8651 27.4429L29.5711 41.451C29.6 41.4799 29.6289 41.5087 29.6578 41.5087H58.7758C61.9244 42.3174 63.831 45.5234 63.0221 48.6716C62.5022 50.6934 60.9712 52.2819 58.9491 52.8885H58.9202H54.2694" fill="#1227E2"/>
</svg>
