<svg width="97" height="98" viewBox="0 0 97 98" fill="none" xmlns="http://www.w3.org/2000/svg">
<path d="M54.5243 52.8307H37.5676C37.5099 52.8307 37.4521 52.8596 37.4521 52.9174C37.4521 52.9462 37.4521 52.9751 37.481 52.9751L65.8479 93.9884C65.8768 94.0462 65.8768 94.1039 65.819 94.1328C65.819 94.1328 65.7901 94.1328 65.7901 94.1617C40.7741 103.722 12.7249 91.1579 3.19226 66.1456C-6.34041 41.1333 6.1965 13.0883 31.2125 3.55702C56.2286 -5.97423 84.2777 6.56081 93.8104 31.5731C101.379 51.4155 95.1681 73.8572 78.4715 86.9988C78.4426 87.0277 78.3559 87.0277 78.327 86.9988L63.9991 66.29C63.9703 66.2322 63.9703 66.1745 64.028 66.1456C64.028 66.1456 64.0569 66.1456 64.0569 66.1167C74.514 62.7085 80.2336 51.4443 76.796 40.9888C74.1096 32.7573 66.4256 27.2119 57.7596 27.2696H19.86C19.8022 27.2696 19.7444 27.3274 19.7444 27.3852C19.7444 27.414 19.7444 27.414 19.7733 27.4429L29.4793 41.451C29.5082 41.4799 29.5371 41.5087 29.566 41.5087H58.684C61.8326 42.3174 63.7392 45.5234 62.9303 48.6716C62.4104 50.6934 60.8794 52.2819 58.8573 52.8885H58.8284H54.1776" fill="#1227E2"/>
</svg>
