<svg width="107" height="102" viewBox="0 0 107 102" fill="none" xmlns="http://www.w3.org/2000/svg">
<path opacity="0.3" d="M19.1417 9.5L19.3917 15.775H18.9167C18.1834 13.5583 17.5334 12.05 16.9667 11.25C16.4 10.4333 15.5834 10.025 14.5167 10.025H14.2167V26.475H16.3417V27H7.2167V26.475H9.3417V10.025H9.0167C7.95003 10.025 7.12503 10.45 6.5417 11.3C5.95837 12.1333 5.3167 13.625 4.6167 15.775H4.1417L4.3917 9.5H19.1417ZM20.0571 8.25H26.0821V17.4C26.3488 16.6333 26.7571 16.0167 27.3071 15.55C27.8571 15.0833 28.6905 14.85 29.8071 14.85C32.3905 14.85 33.6821 16.2417 33.6821 19.025V26.55H35.0821V27H28.0071V26.55H29.0321V18.425C29.0321 17.425 28.9655 16.7833 28.8321 16.5C28.6988 16.2 28.4571 16.05 28.1071 16.05C27.5738 16.05 27.0988 16.4 26.6821 17.1C26.2821 17.8 26.0821 18.65 26.0821 19.65V26.55H27.1571V27H20.0571V26.55H21.4321V8.7H20.0571V8.25ZM38.6374 13.375C37.7541 13.375 37.1207 13.15 36.7374 12.7C36.3707 12.25 36.1874 11.6917 36.1874 11.025C36.1874 10.3583 36.3874 9.80833 36.7874 9.375C37.2041 8.94167 37.8291 8.725 38.6624 8.725C39.4957 8.725 40.1291 8.925 40.5624 9.325C40.9957 9.70833 41.2124 10.2667 41.2124 11C41.2124 11.7167 41.0041 12.2917 40.5874 12.725C40.1707 13.1583 39.5207 13.375 38.6374 13.375ZM34.8624 15.1H40.9874V26.55H42.3874V27H34.9624V26.55H36.3374V15.55H34.8624V15.1ZM42.972 27.25V22.775H43.272C43.7053 24.225 44.2886 25.2417 45.022 25.825C45.7553 26.4083 46.672 26.7 47.772 26.7C49.472 26.7 50.322 26.1583 50.322 25.075C50.322 24.6083 50.1136 24.2583 49.697 24.025C49.047 23.6583 48.2136 23.375 47.197 23.175C46.0636 22.875 45.1136 22.475 44.347 21.975C43.4303 21.375 42.972 20.425 42.972 19.125C42.972 17.825 43.372 16.7917 44.172 16.025C44.972 15.2417 46.0386 14.85 47.372 14.85C48.1886 14.85 49.0303 15.0417 49.897 15.425C50.2136 15.5583 50.4553 15.625 50.622 15.625C50.7886 15.625 50.9303 15.5667 51.047 15.45C51.1636 15.3333 51.3053 15.1167 51.472 14.8H51.747V18.625H51.447C50.597 16.4583 49.2803 15.375 47.497 15.375C46.7136 15.375 46.1303 15.5167 45.747 15.8C45.3636 16.0667 45.172 16.4083 45.172 16.825C45.172 17.075 45.2303 17.275 45.347 17.425C45.4636 17.5583 45.5553 17.6583 45.622 17.725C45.6886 17.7917 45.797 17.8667 45.947 17.95C46.097 18.0167 46.222 18.075 46.322 18.125C46.422 18.1583 46.572 18.2083 46.772 18.275C46.9886 18.3417 47.147 18.3833 47.247 18.4C48.3803 18.6833 49.197 18.9333 49.697 19.15C50.197 19.35 50.672 19.6 51.122 19.9C52.0386 20.5333 52.497 21.5583 52.497 22.975C52.497 24.375 52.0803 25.4417 51.247 26.175C50.4136 26.8917 49.272 27.25 47.822 27.25C46.7886 27.25 45.7886 27.0083 44.822 26.525C44.622 26.3917 44.4636 26.325 44.347 26.325C43.9803 26.325 43.622 26.6333 43.272 27.25H42.972ZM57.304 27.25V22.775H57.604C58.0373 24.225 58.6207 25.2417 59.354 25.825C60.0873 26.4083 61.004 26.7 62.104 26.7C63.804 26.7 64.654 26.1583 64.654 25.075C64.654 24.6083 64.4457 24.2583 64.029 24.025C63.379 23.6583 62.5457 23.375 61.529 23.175C60.3957 22.875 59.4457 22.475 58.679 21.975C57.7623 21.375 57.304 20.425 57.304 19.125C57.304 17.825 57.704 16.7917 58.504 16.025C59.304 15.2417 60.3707 14.85 61.704 14.85C62.5207 14.85 63.3623 15.0417 64.229 15.425C64.5457 15.5583 64.7873 15.625 64.954 15.625C65.1207 15.625 65.2623 15.5667 65.379 15.45C65.4957 15.3333 65.6373 15.1167 65.804 14.8H66.079V18.625H65.779C64.929 16.4583 63.6123 15.375 61.829 15.375C61.0457 15.375 60.4623 15.5167 60.079 15.8C59.6957 16.0667 59.504 16.4083 59.504 16.825C59.504 17.075 59.5623 17.275 59.679 17.425C59.7957 17.5583 59.8873 17.6583 59.954 17.725C60.0207 17.7917 60.129 17.8667 60.279 17.95C60.429 18.0167 60.554 18.075 60.654 18.125C60.754 18.1583 60.904 18.2083 61.104 18.275C61.3207 18.3417 61.479 18.3833 61.579 18.4C62.7123 18.6833 63.529 18.9333 64.029 19.15C64.529 19.35 65.004 19.6 65.454 19.9C66.3707 20.5333 66.829 21.5583 66.829 22.975C66.829 24.375 66.4123 25.4417 65.579 26.175C64.7457 26.8917 63.604 27.25 62.154 27.25C61.1207 27.25 60.1207 27.0083 59.154 26.525C58.954 26.3917 58.7957 26.325 58.679 26.325C58.3123 26.325 57.954 26.6333 57.604 27.25H57.304ZM76.0229 20.275C76.0229 18.5583 75.9396 17.4083 75.7729 16.825C75.6063 16.225 75.2813 15.925 74.7979 15.925C74.3146 15.925 73.8813 16.2417 73.4979 16.875C73.1146 17.4917 72.9229 18.325 72.9229 19.375V23.95C72.9229 24.6667 73.0646 25.275 73.3479 25.775C73.6313 26.275 74.0479 26.525 74.5979 26.525C75.1479 26.525 75.5229 26.1583 75.7229 25.425C75.9229 24.6917 76.0229 23.4083 76.0229 21.575V20.275ZM72.8729 15.1V17.075C73.5229 15.5917 74.6729 14.85 76.3229 14.85C77.7563 14.85 78.8646 15.3667 79.648 16.4C80.4479 17.4333 80.8479 19 80.8479 21.1C80.8479 23.2 80.4146 24.75 79.548 25.75C78.698 26.75 77.4146 27.25 75.6979 27.25C74.8979 27.25 74.2979 27.15 73.8979 26.95C73.4979 26.75 73.1729 26.4417 72.9229 26.025V32.5H76.1479V32.95H66.8979V32.5H68.2729V15.55H66.9479V15.1H72.8729ZM89.1702 22.075V19.95C89.1702 18.3333 89.0785 17.1583 88.8952 16.425C88.7285 15.675 88.3285 15.3 87.6952 15.3C87.3285 15.3 87.0285 15.4083 86.7952 15.625C86.5785 15.825 86.4202 16.1667 86.3202 16.65C86.1702 17.4 86.0952 18.5417 86.0952 20.075V22.025C86.0952 23.8417 86.1452 24.9333 86.2452 25.3C86.3619 25.6667 86.4785 25.9667 86.5952 26.2C86.7785 26.6 87.1369 26.8 87.6702 26.8C88.3202 26.8 88.7452 26.425 88.9452 25.675C89.0952 25.1417 89.1702 23.9417 89.1702 22.075ZM87.6202 27.25C85.5369 27.25 83.9619 26.7167 82.8952 25.65C81.8285 24.5833 81.2952 23.0583 81.2952 21.075C81.2952 19.075 81.8619 17.5417 82.9952 16.475C84.1452 15.3917 85.7535 14.85 87.8202 14.85C89.8869 14.85 91.4285 15.35 92.4452 16.35C93.4619 17.3333 93.9702 18.8417 93.9702 20.875C93.9702 25.125 91.8535 27.25 87.6202 27.25ZM95.4194 23.425V15.55H94.0444V15.1H95.4194V11.875L100.069 10.725V15.1H103.319V15.55H100.069V23.975C100.069 24.7583 100.144 25.3333 100.294 25.7C100.461 26.0667 100.794 26.25 101.294 26.25C101.794 26.25 102.228 26 102.594 25.5C102.978 25 103.228 24.3167 103.344 23.45L103.769 23.5C103.636 24.65 103.269 25.5667 102.669 26.25C102.069 26.9167 101.078 27.25 99.6944 27.25C98.3111 27.25 97.2528 26.975 96.5194 26.425C95.7861 25.875 95.4194 24.875 95.4194 23.425ZM24.0796 55.125H24.8046V53.2C24.8046 51.6167 24.7129 50.5583 24.5296 50.025C24.3629 49.475 24.0296 49.2 23.5296 49.2C23.2296 49.2 22.9546 49.2833 22.7046 49.45C22.4713 49.6 22.3546 49.8167 22.3546 50.1C22.3546 50.3667 22.4046 50.6417 22.5046 50.925H23.1296C23.2629 51.275 23.3296 51.7 23.3296 52.2C23.3296 52.6833 23.1213 53.1083 22.7046 53.475C22.2879 53.825 21.7629 54 21.1296 54C19.6963 54 18.9796 53.3083 18.9796 51.925C18.9796 49.875 20.7213 48.85 24.2046 48.85C26.1879 48.85 27.5546 49.1917 28.3046 49.875C29.0713 50.5417 29.4546 51.775 29.4546 53.575V58.65C29.4546 59.5167 29.6963 59.95 30.1796 59.95C30.7463 59.95 31.0796 59.0917 31.1796 57.375L31.5546 57.4C31.4879 58.8667 31.2129 59.875 30.7296 60.425C30.2463 60.975 29.4546 61.25 28.3546 61.25C26.3546 61.25 25.2046 60.6333 24.9046 59.4C24.6879 60.0333 24.3629 60.5 23.9296 60.8C23.4963 61.1 22.8629 61.25 22.0296 61.25C19.5629 61.25 18.3296 60.2417 18.3296 58.225C18.3296 57.0417 18.7963 56.2333 19.7296 55.8C20.6796 55.35 22.1296 55.125 24.0796 55.125ZM23.0796 58.2C23.0796 59.0667 23.1213 59.625 23.2046 59.875C23.3046 60.125 23.4796 60.25 23.7296 60.25C23.9963 60.25 24.2379 60.0417 24.4546 59.625C24.6879 59.1917 24.8046 58.6 24.8046 57.85V55.525H24.6296C23.5963 55.525 23.0796 56.2833 23.0796 57.8V58.2ZM38.361 49.55V49.1H44.811V49.55H43.786L46.036 57.975L48.261 49.55H46.536V49.1H49.911V49.55H48.861L45.861 61H42.436L40.261 53.325L37.911 61H34.561L30.861 49.55H29.736V49.1H37.311V49.55H35.811L38.111 58.05L39.911 52.2L39.286 49.55H38.361ZM55.0864 55.125H55.8114V53.2C55.8114 51.6167 55.7198 50.5583 55.5364 50.025C55.3698 49.475 55.0364 49.2 54.5364 49.2C54.2364 49.2 53.9614 49.2833 53.7114 49.45C53.4781 49.6 53.3614 49.8167 53.3614 50.1C53.3614 50.3667 53.4114 50.6417 53.5114 50.925H54.1364C54.2698 51.275 54.3364 51.7 54.3364 52.2C54.3364 52.6833 54.1281 53.1083 53.7114 53.475C53.2948 53.825 52.7698 54 52.1364 54C50.7031 54 49.9864 53.3083 49.9864 51.925C49.9864 49.875 51.7281 48.85 55.2114 48.85C57.1948 48.85 58.5614 49.1917 59.3114 49.875C60.0781 50.5417 60.4614 51.775 60.4614 53.575V58.65C60.4614 59.5167 60.7031 59.95 61.1864 59.95C61.7531 59.95 62.0864 59.0917 62.1864 57.375L62.5614 57.4C62.4948 58.8667 62.2198 59.875 61.7364 60.425C61.2531 60.975 60.4614 61.25 59.3614 61.25C57.3614 61.25 56.2114 60.6333 55.9114 59.4C55.6948 60.0333 55.3698 60.5 54.9364 60.8C54.5031 61.1 53.8698 61.25 53.0364 61.25C50.5698 61.25 49.3364 60.2417 49.3364 58.225C49.3364 57.0417 49.8031 56.2333 50.7364 55.8C51.6864 55.35 53.1364 55.125 55.0864 55.125ZM54.0864 58.2C54.0864 59.0667 54.1281 59.625 54.2114 59.875C54.3114 60.125 54.4864 60.25 54.7364 60.25C55.0031 60.25 55.2448 60.0417 55.4614 59.625C55.6948 59.1917 55.8114 58.6 55.8114 57.85V55.525H55.6364C54.6031 55.525 54.0864 56.2833 54.0864 57.8V58.2ZM65.9821 47.375C65.0988 47.375 64.4655 47.15 64.0821 46.7C63.7155 46.25 63.5321 45.6917 63.5321 45.025C63.5321 44.3583 63.7321 43.8083 64.1321 43.375C64.5488 42.9417 65.1738 42.725 66.0071 42.725C66.8405 42.725 67.4738 42.925 67.9071 43.325C68.3405 43.7083 68.5571 44.2667 68.5571 45C68.5571 45.7167 68.3488 46.2917 67.9321 46.725C67.5155 47.1583 66.8655 47.375 65.9821 47.375ZM62.2071 49.1H68.3321V60.55H69.7321V61H62.3071V60.55H63.6821V49.55H62.2071V49.1ZM70.9917 57.425V49.55H69.6167V49.1H70.9917V45.875L75.6417 44.725V49.1H78.8917V49.55H75.6417V57.975C75.6417 58.7583 75.7167 59.3333 75.8667 59.7C76.0334 60.0667 76.3667 60.25 76.8667 60.25C77.3667 60.25 77.8 60 78.1667 59.5C78.55 59 78.8 58.3167 78.9167 57.45L79.3417 57.5C79.2084 58.65 78.8417 59.5667 78.2417 60.25C77.6417 60.9167 76.65 61.25 75.2667 61.25C73.8834 61.25 72.825 60.975 72.0917 60.425C71.3584 59.875 70.9917 58.875 70.9917 57.425ZM79.6556 61.25V56.775H79.9556C80.3889 58.225 80.9722 59.2417 81.7056 59.825C82.4389 60.4083 83.3556 60.7 84.4556 60.7C86.1556 60.7 87.0056 60.1583 87.0056 59.075C87.0056 58.6083 86.7972 58.2583 86.3806 58.025C85.7306 57.6583 84.8972 57.375 83.8806 57.175C82.7472 56.875 81.7972 56.475 81.0306 55.975C80.1139 55.375 79.6556 54.425 79.6556 53.125C79.6556 51.825 80.0556 50.7917 80.8556 50.025C81.6556 49.2417 82.7222 48.85 84.0556 48.85C84.8722 48.85 85.7139 49.0417 86.5806 49.425C86.8972 49.5583 87.1389 49.625 87.3056 49.625C87.4722 49.625 87.6139 49.5667 87.7306 49.45C87.8472 49.3333 87.9889 49.1167 88.1556 48.8H88.4306V52.625H88.1306C87.2806 50.4583 85.9639 49.375 84.1806 49.375C83.3972 49.375 82.8139 49.5167 82.4306 49.8C82.0472 50.0667 81.8556 50.4083 81.8556 50.825C81.8556 51.075 81.9139 51.275 82.0306 51.425C82.1472 51.5583 82.2389 51.6583 82.3056 51.725C82.3722 51.7917 82.4806 51.8667 82.6306 51.95C82.7806 52.0167 82.9056 52.075 83.0056 52.125C83.1056 52.1583 83.2556 52.2083 83.4556 52.275C83.6722 52.3417 83.8306 52.3833 83.9306 52.4C85.0639 52.6833 85.8806 52.9333 86.3806 53.15C86.8806 53.35 87.3556 53.6 87.8056 53.9C88.7222 54.5333 89.1806 55.5583 89.1806 56.975C89.1806 58.375 88.7639 59.4417 87.9306 60.175C87.0972 60.8917 85.9556 61.25 84.5056 61.25C83.4722 61.25 82.4722 61.0083 81.5056 60.525C81.3056 60.3917 81.1472 60.325 81.0306 60.325C80.6639 60.325 80.3056 60.6333 79.9556 61.25H79.6556ZM33.4341 83.55V83.1H40.6841V83.55H39.3341L42.0591 91.85L44.9591 83.55H43.2841V83.1H46.8091V83.55H45.5591L40.8841 97.025C40.3341 98.5917 39.7174 99.6833 39.0341 100.3C38.3507 100.933 37.5174 101.25 36.5341 101.25C35.5507 101.25 34.7757 101.025 34.2091 100.575C33.6424 100.125 33.3591 99.55 33.3591 98.85C33.3591 98.15 33.5424 97.6167 33.9091 97.25C34.2757 96.8833 34.7591 96.7 35.3591 96.7C36.7424 96.7 37.4341 97.275 37.4341 98.425C37.4341 98.675 37.3841 98.975 37.2841 99.325H36.4091C36.2757 99.7083 36.2591 100.025 36.3591 100.275C36.4591 100.525 36.6841 100.65 37.0341 100.65C37.7174 100.65 38.3257 100.308 38.8591 99.625C39.3924 98.9583 39.9007 97.9333 40.3841 96.55L40.9341 95H38.7341L34.4591 83.55H33.4341ZM53.805 90.075V87.95C53.805 86.3333 53.7133 85.1583 53.53 84.425C53.3633 83.675 52.9633 83.3 52.33 83.3C51.9633 83.3 51.6633 83.4083 51.43 83.625C51.2133 83.825 51.055 84.1667 50.955 84.65C50.805 85.4 50.73 86.5417 50.73 88.075V90.025C50.73 91.8417 50.78 92.9333 50.88 93.3C50.9966 93.6667 51.1133 93.9667 51.23 94.2C51.4133 94.6 51.7716 94.8 52.305 94.8C52.955 94.8 53.38 94.425 53.58 93.675C53.73 93.1417 53.805 91.9417 53.805 90.075ZM52.255 95.25C50.1716 95.25 48.5966 94.7167 47.53 93.65C46.4633 92.5833 45.93 91.0583 45.93 89.075C45.93 87.075 46.4966 85.5417 47.63 84.475C48.78 83.3917 50.3883 82.85 52.455 82.85C54.5216 82.85 56.0633 83.35 57.08 84.35C58.0966 85.3333 58.605 86.8417 58.605 88.875C58.605 93.125 56.4883 95.25 52.255 95.25ZM73.4292 95H67.7292L67.4542 93.175C67.1875 93.8417 66.7875 94.3583 66.2542 94.725C65.7375 95.075 64.9625 95.25 63.9292 95.25C61.3459 95.25 60.0542 93.8583 60.0542 91.075V83.55H58.6542V83.1H64.7042V91.675C64.7042 92.675 64.7709 93.3333 64.9042 93.65C65.0542 93.9667 65.3375 94.125 65.7542 94.125C66.1875 94.125 66.5709 93.8667 66.9042 93.35C67.2375 92.8333 67.4042 92.1167 67.4042 91.2V83.55H66.2542V83.1H72.0542V94.55H73.4292V95Z" fill="#1227E2"/>
</svg>
