<svg width="74" height="74" viewBox="0 0 74 74" fill="none" xmlns="http://www.w3.org/2000/svg">
<path d="M12.3337 61.666L61.667 61.666C63.3025 61.666 64.871 61.0163 66.0275 59.8598C67.184 58.7034 67.8337 57.1348 67.8337 55.4993L67.8337 18.4993C67.8337 16.8638 67.184 15.2953 66.0275 14.1389C64.871 12.9824 63.3025 12.3327 61.667 12.3327L25.7215 12.3327C24.9 12.3328 24.0867 12.497 23.3296 12.8158C22.5724 13.1345 21.8866 13.6014 21.3123 14.1888L7.92449 27.8788C6.79802 29.0309 6.16719 30.5781 6.16699 32.1893L6.16699 55.4993C6.16699 57.1349 6.81669 58.7034 7.97317 59.8598C9.12964 61.0163 10.6982 61.666 12.3337 61.666V61.666Z" stroke="#1328E1" stroke-width="5.5" stroke-linecap="round" stroke-linejoin="round"/>
<path d="M6.16699 30.832L18.5003 30.832C20.1358 30.832 21.7043 30.1823 22.8608 29.0259C24.0173 27.8694 24.667 26.3009 24.667 24.6654L24.667 12.332" stroke="#1328E1" stroke-width="5.5" stroke-linejoin="round"/>
</svg>
