<svg width="74" height="74" viewBox="0 0 74 74" fill="none" xmlns="http://www.w3.org/2000/svg">
<path d="M52.4173 40.4832V51.8823H45.8097V41.2448C45.8097 38.5746 44.8539 36.7524 42.4612 36.7524C40.6359 36.7524 39.5475 37.9796 39.0696 39.1697C38.8969 39.5952 38.8507 40.1872 38.8507 40.7792V51.8823H32.24C32.24 51.8823 32.3294 33.8695 32.24 32.0041H38.8507V34.8191L38.8075 34.8839H38.8507V34.8222C39.7294 33.4656 41.2957 31.5354 44.8077 31.5354C49.1552 31.5354 52.4173 34.3782 52.4173 40.4832ZM25.3241 22.418C23.064 22.418 21.584 23.9041 21.584 25.8528C21.584 27.7645 23.0208 29.2907 25.2377 29.2907H25.2809C27.5872 29.2907 29.021 27.7614 29.021 25.8528C28.9778 23.9041 27.5872 22.418 25.3241 22.418ZM21.9756 51.8823H28.5862V32.0041H21.9756V51.8823Z" fill="#1328E1"/>
<path d="M18.5003 12.3327C16.8648 12.3327 15.2963 12.9824 14.1398 14.1389C12.9834 15.2953 12.3337 16.8638 12.3337 18.4993V55.4994C12.3337 57.1349 12.9834 58.7034 14.1398 59.8598C15.2963 61.0163 16.8648 61.666 18.5003 61.666H55.5003C57.1358 61.666 58.7043 61.0163 59.8608 59.8598C61.0173 58.7034 61.667 57.1349 61.667 55.4994V18.4993C61.667 16.8638 61.0173 15.2953 59.8608 14.1389C58.7043 12.9824 57.1358 12.3327 55.5003 12.3327H18.5003ZM18.5003 6.16602H55.5003C58.7713 6.16602 61.9084 7.46542 64.2213 9.77837C66.5343 12.0913 67.8337 15.2283 67.8337 18.4993V55.4994C67.8337 58.7704 66.5343 61.9074 64.2213 64.2203C61.9084 66.5333 58.7713 67.8327 55.5003 67.8327H18.5003C15.2293 67.8327 12.0923 66.5333 9.77934 64.2203C7.46639 61.9074 6.16699 58.7704 6.16699 55.4994V18.4993C6.16699 15.2283 7.46639 12.0913 9.77934 9.77837C12.0923 7.46542 15.2293 6.16602 18.5003 6.16602V6.16602Z" fill="#1328E1"/>
</svg>
