<svg width="74" height="74" viewBox="0 0 74 74" fill="none" xmlns="http://www.w3.org/2000/svg">
<path d="M35.0115 41.975C34.2252 46.2177 33.2694 50.2877 30.4204 52.4152C29.5447 46.0019 31.7123 41.1795 32.7175 36.0643C31.0032 33.092 32.9241 27.1041 36.5408 28.581C40.9962 30.394 32.6867 39.6379 38.2675 40.791C44.0888 41.9997 46.4692 30.3879 42.8555 26.6077C37.6385 21.1564 27.6639 26.4844 28.8911 34.2914C29.1902 36.203 31.1049 36.7796 29.6557 39.4128C26.3165 38.6512 25.3206 35.9379 25.447 32.3211C25.6536 26.4011 30.6116 22.2602 35.5881 21.6836C41.8781 20.959 47.7796 24.064 48.5967 30.1566C49.5124 37.0325 45.7569 44.4818 39.0291 43.9453C37.2099 43.8004 36.4391 42.8661 35.0115 41.972V41.975Z" fill="#1328E1"/>
<path d="M18.5003 12.3327C16.8648 12.3327 15.2963 12.9824 14.1398 14.1389C12.9834 15.2953 12.3337 16.8638 12.3337 18.4993V55.4994C12.3337 57.1349 12.9834 58.7034 14.1398 59.8598C15.2963 61.0163 16.8648 61.666 18.5003 61.666H55.5003C57.1358 61.666 58.7043 61.0163 59.8608 59.8598C61.0173 58.7034 61.667 57.1349 61.667 55.4994V18.4993C61.667 16.8638 61.0173 15.2953 59.8608 14.1389C58.7043 12.9824 57.1358 12.3327 55.5003 12.3327H18.5003ZM18.5003 6.16602C18.5003 6.16602 18.5003 6.16602 18.5003 6.16602H55.5003C58.7713 6.16602 61.9084 7.46542 64.2213 9.77837C66.5343 12.0913 67.8337 15.2283 67.8337 18.4993V55.4994C67.8337 58.7704 66.5343 61.9074 64.2213 64.2203C61.9084 66.5333 58.7713 67.8327 55.5003 67.8327H18.5003C15.2293 67.8327 12.0923 66.5333 9.77934 64.2203C7.46639 61.9074 6.16699 58.7704 6.16699 55.4994V18.4993C6.16699 15.2283 7.46639 12.0913 9.77934 9.77837C12.0923 7.46542 15.2293 6.16602 18.5003 6.16602C18.5003 6.16602 18.5003 6.16602 18.5003 6.16602Z" fill="#1328E1"/>
</svg>
