<svg width="74" height="74" viewBox="0 0 74 74" fill="none" xmlns="http://www.w3.org/2000/svg">
<path d="M12.333 12.3327V61.666C12.333 63.3015 12.9827 64.87 14.1392 66.0265C15.2957 67.183 16.8642 67.8327 18.4997 67.8327H55.4997C57.1352 67.8327 58.7037 67.183 59.8602 66.0265C61.0166 64.87 61.6663 63.3015 61.6663 61.666V25.7205C61.6662 24.899 61.502 24.0858 61.1832 23.3286C60.8645 22.5714 60.3977 21.8856 59.8102 21.3114L46.1202 7.92352C44.9681 6.79704 43.4209 6.16622 41.8097 6.16602H18.4997C16.8642 6.16602 15.2957 6.81572 14.1392 7.97219C12.9827 9.12866 12.333 10.6972 12.333 12.3327V12.3327Z" stroke="#1328E1" stroke-width="5.5" stroke-linecap="round" stroke-linejoin="round"/>
<path d="M43.166 6.16602V18.4993C43.166 20.1349 43.8157 21.7034 44.9722 22.8598C46.1287 24.0163 47.6972 24.666 49.3327 24.666H61.666" stroke="#1328E1" stroke-width="5.5" stroke-linejoin="round"/>
</svg>
