<svg width="74" height="74" viewBox="0 0 74 74" fill="none" xmlns="http://www.w3.org/2000/svg">
<path d="M64.75 24.6667V49.3333C64.75 53.4221 63.1257 57.3434 60.2346 60.2346C57.3434 63.1257 53.4221 64.75 49.3333 64.75H24.6667C20.5779 64.75 16.6566 63.1257 13.7654 60.2346C10.8743 57.3434 9.25 53.4221 9.25 49.3333V24.6667C9.25 20.5779 10.8743 16.6566 13.7654 13.7654C16.6566 10.8743 20.5779 9.25 24.6667 9.25H49.3333C53.4221 9.25 57.3434 10.8743 60.2346 13.7654C63.1257 16.6566 64.75 20.5779 64.75 24.6667Z" stroke="#1328E1" stroke-width="5.5" stroke-linecap="round" stroke-linejoin="round"/>
<path d="M30.833 37C29.0035 37 27.2151 37.5425 25.694 38.5589C24.1728 39.5753 22.9872 41.02 22.2871 42.7102C21.587 44.4004 21.4038 46.2603 21.7607 48.0546C22.1177 49.8489 22.9986 51.4971 24.2923 52.7907C25.5859 54.0844 27.2341 54.9654 29.0284 55.3223C30.8228 55.6792 32.6826 55.496 34.3728 54.7959C36.063 54.0958 37.5077 52.9102 38.5241 51.389C39.5405 49.8679 40.083 48.0795 40.083 46.25V18.5C41.1098 21.5833 45.0163 27.75 52.4163 27.75" stroke="#1328E1" stroke-width="5.5" stroke-linecap="round" stroke-linejoin="round"/>
</svg>
