<svg width="74" height="74" viewBox="0 0 74 74" fill="none" xmlns="http://www.w3.org/2000/svg">
<path d="M10 7C8.34314 7 7 8.34315 7 10V64.88C7 66.5369 8.34315 67.88 10 67.88H64.88C66.5369 67.88 67.88 66.5369 67.88 64.88V10C67.88 8.34314 66.5369 7 64.88 7H10ZM12.5345 15.5345C12.5345 13.8777 13.8777 12.5345 15.5345 12.5345H59.3455C61.0023 12.5345 62.3455 13.8777 62.3455 15.5345V59.3455C62.3455 61.0023 61.0023 62.3455 59.3455 62.3455H15.5345C13.8777 62.3455 12.5345 61.0023 12.5345 59.3455V15.5345ZM44.884 22.577C41.2711 22.577 38.1079 25.0075 37.202 28.4792C36.7057 30.3811 35.2038 32.2379 33.2867 31.804C31.4806 31.3953 29.7269 30.7643 28.0666 29.9221C26.4999 29.1273 25.0358 28.1543 23.7022 27.0254C22.1504 25.7119 19.6781 26.0038 19.6879 28.0368V28.0368C19.687 29.3445 20.0093 30.6321 20.6264 31.7851C20.8427 32.1893 21.0929 32.5726 21.3736 32.9311C21.8195 33.5009 21.4281 34.4078 20.7496 34.1567C20.397 34.0262 20.0532 33.8704 19.7209 33.6901C19.6849 33.6706 19.6409 33.6965 19.6409 33.7374V33.7374C19.6372 35.5712 20.2682 37.3498 21.4269 38.7713C22.0297 39.5108 22.756 40.1299 23.5671 40.6053C24.1199 40.9294 24.0477 41.8293 23.4078 41.7948V41.7948C22.954 41.7703 22.5868 42.2004 22.7794 42.6121C23.3354 43.8006 24.1795 44.8378 25.2415 45.6258V45.6258C26.5657 46.6083 27.0948 49.0137 25.5487 49.5868C23.7801 50.2425 21.8966 50.5831 19.984 50.579V50.579C19.5045 50.5834 19.3018 51.2294 19.7261 51.4529C22.9652 53.159 26.5814 54.053 30.2617 54.0436C44.8618 54.0436 52.8537 41.9479 52.8537 31.4516C52.8537 31.3759 52.8537 31.2999 52.8534 31.2238C52.8514 30.7272 53.0738 30.2502 53.4607 29.9388C54.2209 29.3271 54.9252 28.6501 55.5658 27.9161C55.9516 27.4739 55.4608 26.8393 54.8978 27.005V27.005C54.2936 27.1827 53.8894 26.2676 54.2905 25.782C54.4862 25.5451 54.6681 25.2968 54.8351 25.0384C55.2267 24.4327 54.5381 23.8261 53.8748 24.1094C53.1365 24.4246 52.3744 24.6827 51.5953 24.881C51.0321 25.0244 50.4518 24.8162 50.0076 24.4415C49.4173 23.9436 48.7559 23.5337 48.0439 23.226C47.0454 22.7947 45.9688 22.5737 44.8812 22.577H44.884Z" fill="#1328E1"/>
</svg>
