<svg width="74" height="74" viewBox="0 0 74 74" fill="none" xmlns="http://www.w3.org/2000/svg">
<path d="M69.375 36.7982C69.375 36.6393 69.375 36.4586 69.3678 36.249C69.3605 35.6637 69.3461 35.0061 69.3316 34.3051C69.2738 32.2889 69.1727 30.2799 69.0137 28.3865C68.7969 25.7777 68.4789 23.6025 68.0453 21.9693C67.5877 20.2649 66.6908 18.7105 65.4443 17.4614C64.1977 16.2123 62.6451 15.3122 60.9416 14.8512C58.8965 14.302 54.893 13.9623 49.2562 13.7527C46.5752 13.6516 43.7062 13.5865 40.8373 13.5504C39.8328 13.5359 38.9006 13.5287 38.0623 13.5215H35.9377C35.0994 13.5287 34.1672 13.5359 33.1627 13.5504C30.2937 13.5865 27.4248 13.6516 24.7437 13.7527C19.107 13.9695 15.0963 14.3092 13.0584 14.8512C11.3544 15.3111 9.80117 16.2107 8.5544 17.46C7.30764 18.7093 6.41112 20.2644 5.95469 21.9693C5.51387 23.6025 5.20312 25.7777 4.98633 28.3865C4.82734 30.2799 4.72617 32.2889 4.66836 34.3051C4.64668 35.0061 4.63945 35.6637 4.63223 36.249C4.63223 36.4586 4.625 36.6393 4.625 36.7982V37.2029C4.625 37.3619 4.625 37.5426 4.63223 37.7521C4.63945 38.3375 4.65391 38.9951 4.66836 39.6961C4.72617 41.7123 4.82734 43.7213 4.98633 45.6146C5.20312 48.2234 5.52109 50.3986 5.95469 52.0318C6.87969 55.4934 9.59687 58.225 13.0584 59.15C15.0963 59.6992 19.107 60.0389 24.7437 60.2484C27.4248 60.3496 30.2937 60.4147 33.1627 60.4508C34.1672 60.4652 35.0994 60.4725 35.9377 60.4797H38.0623C38.9006 60.4725 39.8328 60.4652 40.8373 60.4508C43.7062 60.4147 46.5752 60.3496 49.2562 60.2484C54.893 60.0316 58.9037 59.692 60.9416 59.15C64.4031 58.225 67.1203 55.5006 68.0453 52.0318C68.4861 50.3986 68.7969 48.2234 69.0137 45.6146C69.1727 43.7213 69.2738 41.7123 69.3316 39.6961C69.3533 38.9951 69.3605 38.3375 69.3678 37.7521C69.3678 37.5426 69.375 37.3619 69.375 37.2029V36.7982V36.7982ZM64.1719 37.174C64.1719 37.3258 64.1719 37.492 64.1647 37.6871C64.1574 38.2508 64.143 38.8723 64.1285 39.5443C64.0779 41.4666 63.9768 43.3889 63.825 45.1738C63.6299 47.5008 63.3553 49.4086 63.0156 50.6877C62.5676 52.357 61.2523 53.6795 59.5902 54.1203C58.0727 54.525 54.2498 54.8502 49.0539 55.0453C46.4234 55.1465 43.5906 55.2115 40.765 55.2477C39.775 55.2621 38.8572 55.2693 38.0334 55.2693H35.9666L33.235 55.2477C30.4094 55.2115 27.5838 55.1465 24.9461 55.0453C19.7502 54.843 15.9201 54.525 14.4098 54.1203C12.7477 53.6723 11.4324 52.357 10.9844 50.6877C10.6447 49.4086 10.3701 47.5008 10.175 45.1738C10.0232 43.3889 9.9293 41.4666 9.87148 39.5443C9.84981 38.8723 9.84258 38.2436 9.83535 37.6871C9.83535 37.492 9.82812 37.3186 9.82812 37.174V36.8271C9.82812 36.6754 9.82813 36.5092 9.83535 36.3141C9.84258 35.7504 9.85703 35.1289 9.87148 34.4568C9.92207 32.5346 10.0232 30.6123 10.175 28.8273C10.3701 26.5004 10.6447 24.5926 10.9844 23.3135C11.4324 21.6441 12.7477 20.3217 14.4098 19.8809C15.9273 19.4762 19.7502 19.151 24.9461 18.9559C27.5766 18.8547 30.4094 18.7896 33.235 18.7535C34.225 18.7391 35.1428 18.7318 35.9666 18.7318H38.0334L40.765 18.7535C43.5906 18.7896 46.4162 18.8547 49.0539 18.9559C54.2498 19.1582 58.0799 19.4762 59.5902 19.8809C61.2523 20.3289 62.5676 21.6441 63.0156 23.3135C63.3553 24.5926 63.6299 26.5004 63.825 28.8273C63.9768 30.6123 64.0707 32.5346 64.1285 34.4568C64.1502 35.1289 64.1574 35.7576 64.1647 36.3141C64.1647 36.5092 64.1719 36.6826 64.1719 36.8271V37.174ZM30.5684 46.6842L47.334 36.9283L30.5684 27.317V46.6842Z" fill="#1328E1"/>
</svg>
