<svg width="990" height="241" viewBox="0 0 990 241" fill="none" xmlns="http://www.w3.org/2000/svg">
<path d="M35.844 43.7472V46.3538C35.844 51.2051 34.2831 55.115 31.1793 58.1199C28.0755 61.1248 24.0642 62.6272 19.1271 62.6272C13.8816 62.6272 9.54351 60.9256 6.09486 57.5225C2.6462 54.1194 0.921875 49.9561 0.921875 45.0505C0.921875 40.145 2.62805 35.9273 6.04041 32.5061C9.45276 29.0849 13.6819 27.3652 18.746 27.3652C21.9224 27.3652 24.8265 28.0893 27.4402 29.5193C30.0539 30.9494 32.105 32.8681 33.557 35.2575L27.8214 38.552C27.0046 37.1582 25.7885 36.0359 24.1549 35.167C22.5213 34.2982 20.7063 33.8637 18.6915 33.8637C15.4607 33.8637 12.7925 34.9136 10.7052 37.0315C8.61782 39.1494 7.56507 41.8103 7.56507 45.0505C7.56507 48.2726 8.61782 50.8792 10.7415 52.979C12.8651 55.0607 15.6785 56.1106 19.1634 56.1106C21.759 56.1106 23.9008 55.5314 25.5888 54.391C27.295 53.2505 28.4385 51.6757 29.0556 49.6664H18.7641V43.7653H35.844V43.7472Z" fill="#B2B9F4"/>
<path d="M60.6743 40.7391C58.351 38.2954 55.4288 37.0645 51.8531 37.0645C48.0958 37.0645 45.0283 38.2773 42.6324 40.721C40.2365 43.1647 39.0386 46.2058 39.0386 49.8442C39.0386 50.7312 39.1112 51.6001 39.2564 52.4146H63.9052C64.0685 51.5095 64.1411 50.6588 64.1411 49.8442C64.1593 46.2239 62.9976 43.1828 60.6743 40.7391Z" fill="#B2B9F4"/>
<path d="M88.5898 40.7034C86.1939 38.2597 83.1264 37.0469 79.3692 37.0469C75.8116 37.0469 72.8712 38.2778 70.5479 40.7215C68.2246 43.1833 67.0811 46.2063 67.0811 49.8266C67.0811 50.6412 67.1718 51.492 67.317 52.397H91.9658C92.111 51.5825 92.1836 50.7317 92.1836 49.8266C92.1655 46.1882 90.9857 43.1471 88.5898 40.7034ZM73.3249 47.5639C73.688 45.9167 74.414 44.6858 75.5393 43.8893C76.6647 43.0747 77.9352 42.6765 79.351 42.6765C81.039 42.6765 82.4185 43.1109 83.5257 43.9617C84.6329 44.8125 85.3589 46.0253 85.7038 47.5639H73.3249Z" fill="#B2B9F4"/>
<path d="M114.945 37.7347H121.062V60.7962C121.062 64.5432 119.828 67.4033 117.341 69.3764C114.855 71.3494 111.878 72.3269 108.375 72.3269C105.743 72.3269 103.438 71.8201 101.459 70.8245C99.4628 69.8289 97.9381 68.3627 96.8672 66.4258L102.204 63.3666C103.438 65.6293 105.561 66.7516 108.556 66.7516C110.535 66.7516 112.078 66.2267 113.221 65.1949C114.346 64.1631 114.927 62.6969 114.927 60.7781V58.1715C113.076 60.6333 110.498 61.8461 107.159 61.8461C103.819 61.8461 100.86 60.6514 98.5371 58.2439C96.2138 55.8364 95.0703 52.9039 95.0703 49.4465C95.0703 45.9891 96.232 43.1109 98.5734 40.6853C100.915 38.2597 103.765 37.0469 107.177 37.0469C110.589 37.0469 113.094 38.2778 114.945 40.7215V37.7347ZM103.274 54.2253C104.545 55.4743 106.179 56.0898 108.157 56.0898C110.135 56.0898 111.751 55.4743 113.04 54.2253C114.31 52.9763 114.964 51.3834 114.964 49.4465C114.964 47.5096 114.328 45.971 113.04 44.722C111.769 43.4729 110.135 42.8575 108.157 42.8575C106.179 42.8575 104.563 43.4729 103.274 44.722C102.004 45.971 101.35 47.5458 101.35 49.4465C101.35 51.3653 101.986 52.9763 103.274 54.2253Z" fill="#B2B9F4"/>
<path d="M140.882 37.0469C144.149 37.0469 146.945 38.2778 149.268 40.7577C151.591 43.2195 152.735 46.2606 152.735 49.8447C152.735 53.4288 151.573 56.4518 149.268 58.9317C146.945 61.4116 144.167 62.6426 140.882 62.6426C137.597 62.6426 134.856 61.466 133.023 59.1127V71.6572H126.743V37.7347H133.005V40.5948C134.856 38.2416 137.488 37.0469 140.882 37.0469ZM134.911 54.7503C136.181 56.0174 137.778 56.669 139.721 56.669C141.663 56.669 143.278 56.0355 144.549 54.7503C145.819 53.4831 146.473 51.8359 146.473 49.8266C146.473 47.8173 145.837 46.1882 144.549 44.903C143.278 43.6359 141.663 42.9842 139.721 42.9842C137.778 42.9842 136.181 43.6178 134.911 44.903C133.64 46.1882 133.023 47.8173 133.023 49.8266C133.023 51.8359 133.658 53.4831 134.911 54.7503Z" fill="#B2B9F4"/>
<path d="M175.605 37.7372H181.867V61.9572H175.605V59.0971C173.736 61.4503 171.086 62.6269 167.692 62.6269C164.297 62.6269 161.684 61.396 159.36 58.9161C157.037 56.4362 155.894 53.4132 155.894 49.8291C155.894 46.245 157.055 43.222 159.36 40.7421C161.666 38.2622 164.461 37.0312 167.692 37.0312C171.086 37.0312 173.736 38.2079 175.605 40.5611V37.7372ZM164.043 54.7527C165.314 56.0198 166.911 56.6715 168.853 56.6715C170.795 56.6715 172.411 56.038 173.681 54.7527C174.952 53.4856 175.605 51.8384 175.605 49.8291C175.605 47.8198 174.97 46.1907 173.681 44.9055C172.411 43.6383 170.795 42.9867 168.853 42.9867C166.911 42.9867 165.314 43.6202 164.043 44.9055C162.773 46.1907 162.156 47.8198 162.156 49.8291C162.156 51.8384 162.791 53.4856 164.043 54.7527Z" fill="#B2B9F4"/>
<path d="M203.394 37.7383H210.092L201.235 61.9945C199.964 65.4519 198.294 67.968 196.207 69.5247C194.119 71.0815 191.524 71.7874 188.42 71.6426V65.832C190.108 65.8682 191.433 65.5062 192.431 64.764C193.412 64.0218 194.21 62.8271 194.791 61.1799L184.826 37.7383H191.669L198.004 54.0116L203.394 37.7383Z" fill="#B2B9F4"/>
<path d="M83.8523 55.1133C80.5489 61.9014 73.5789 66.5716 65.5018 66.5716C57.4247 66.5716 50.4548 61.9014 47.1514 55.1133H40.853C44.5013 65.1778 54.1576 72.3641 65.5018 72.3641C76.8461 72.3641 86.5023 65.1778 90.1506 55.1133H83.8523Z" fill="#B2B9F4"/>
<g opacity="0.3">
<path fill-rule="evenodd" clip-rule="evenodd" d="M410.092 99.7294C382.478 99.7294 360.092 77.4042 360.092 49.8647C360.092 22.3251 382.478 0 410.092 0C437.707 0 460.092 22.3251 460.092 49.8647C460.092 77.4042 437.707 99.7294 410.092 99.7294ZM410.092 96.1676C435.734 96.1676 456.521 75.4371 456.521 49.8647C456.521 24.2922 435.734 3.56176 410.092 3.56176C384.45 3.56176 363.664 24.2922 363.664 49.8647C363.664 75.4371 384.45 96.1676 410.092 96.1676Z" fill="#1227E2"/>
<path fill-rule="evenodd" clip-rule="evenodd" d="M371.4 32.8155C373.54 27.712 376.61 24.7455 377.44 23.9065C378.269 23.068 379.446 23.477 380.234 23.9065C381.022 24.3364 400.781 44.0742 401.664 45.0654C402.545 46.0566 403.48 47.5352 400.949 47.5352C398.417 47.5352 373.547 47.3185 371.4 47.1709C369.253 47.0228 368.62 45.7742 368.62 44.7077C368.62 43.6412 369.26 37.9195 371.4 32.8155ZM395.304 10.8582C400.436 8.75832 404.095 8.89621 405.276 8.88807C406.457 8.87993 406.999 9.99883 407.252 10.8582C407.505 11.7181 407.689 39.7772 407.609 41.0996C407.53 42.4226 407.552 43.8895 405.762 42.104C403.972 40.3191 386.539 22.6273 385.126 21.0093C383.713 19.3907 384.15 18.0606 384.907 17.3065C385.663 16.5525 390.172 12.9587 395.305 10.8582H395.304ZM426.678 11.277C431.795 13.411 434.77 16.4731 435.611 17.2999C436.452 18.1268 436.042 19.3006 435.611 20.0868C435.18 20.8729 415.389 40.5786 414.395 41.4583C413.401 42.3376 411.918 43.2698 411.918 40.7455C411.918 38.2207 412.135 13.4176 412.283 11.277C412.432 9.13586 413.684 8.50391 414.753 8.50391C415.823 8.50391 421.56 9.14248 426.678 11.277ZM448.695 35.1164C450.8 40.2346 450.662 43.8834 450.67 45.0613C450.678 46.2393 449.556 46.7796 448.695 47.032C447.832 47.2839 419.697 47.467 418.371 47.3882C417.045 47.3088 415.574 47.3307 417.364 45.5457C419.154 43.7603 436.894 26.3748 438.516 24.9659C440.139 23.5564 441.473 23.9925 442.229 24.7471C442.985 25.5011 446.589 29.9981 448.695 35.1169V35.1164ZM448.275 66.9138C446.135 72.0173 443.065 74.9837 442.235 75.8227C441.406 76.6613 440.229 76.2522 439.441 75.8227C438.653 75.3928 418.894 55.655 418.011 54.6638C417.13 53.6727 416.195 52.194 418.726 52.194C421.258 52.194 446.128 52.4108 448.275 52.5583C450.422 52.7064 451.055 53.955 451.055 55.0215C451.055 56.088 450.415 61.8098 448.275 66.9138ZM424.371 88.871C419.239 90.9709 415.58 90.833 414.399 90.8412C413.218 90.8493 412.676 89.7304 412.423 88.871C412.17 88.0111 411.986 59.952 412.066 58.6296C412.145 57.3067 412.123 55.8397 413.913 57.6252C415.703 59.4101 433.136 77.1019 434.549 78.72C435.962 80.3386 435.525 81.6686 434.768 82.4227C434.012 83.1768 429.503 86.7706 424.37 88.871H424.371ZM392.997 88.4522C387.88 86.3182 384.905 83.2561 384.064 82.4293C383.223 81.6025 383.633 80.4286 384.064 79.6425C384.495 78.8563 404.286 59.1506 405.28 58.2709C406.274 57.3916 407.757 56.4595 407.757 58.9837C407.757 61.5085 407.54 86.3116 407.392 88.4522C407.243 90.5934 405.991 91.2253 404.922 91.2253C403.852 91.2253 398.115 90.5868 392.997 88.4522ZM370.98 64.6129C368.875 59.4946 369.013 55.8458 369.005 54.6679C368.997 53.49 370.119 52.9496 370.98 52.6972C371.843 52.4454 399.978 52.2622 401.304 52.3411C402.63 52.4204 404.101 52.3986 402.311 54.1835C400.521 55.969 382.781 73.3544 381.159 74.7634C379.536 76.1728 378.202 75.7368 377.446 74.9822C376.69 74.2281 373.086 69.7311 370.98 64.6124V64.6129Z" fill="#1227E2"/>
</g>
<path d="M632.538 57.8986L630.629 52.4539H618.289L616.487 57.8986H610.092L620.606 27.6504H627.945L638.542 57.8977H632.538V57.8986ZM620.218 46.8798H628.673L624.338 34.5213L620.218 46.8798Z" fill="#B2B9F4"/>
<path d="M670.856 27.6504V57.8977H664.977V38.28L656.506 52.3129L655.816 52.3368L647.383 38.3542V57.8977H641.461V27.6504H647.555L656.169 41.9331L664.737 27.6504H670.856Z" fill="#B2B9F4"/>
<path d="M722.48 27.6504H728.402V57.8977H723.897L711.022 39.4037V57.8977H705.1V27.6504H709.602L722.48 46.0768V27.6504Z" fill="#B2B9F4"/>
<path d="M739.903 27.7246V57.8986H733.981V27.7246" fill="#B2B9F4"/>
<path fill-rule="evenodd" clip-rule="evenodd" d="M686.144 28.4161C686.062 28.5068 685.781 28.7698 685.817 28.905C685.819 28.9124 685.823 28.9182 685.829 28.9215C685.858 28.9504 685.938 28.9743 686.016 28.999C686.136 29.0345 684.984 29.5201 683.462 30.0493L681.296 30.8012L677.798 32.0157C676.275 32.5441 675.253 32.709 675.517 32.3825C675.653 32.2152 675.788 32.0404 675.88 31.8978C675.908 31.8565 675.933 31.812 675.956 31.765C676.135 31.399 676.443 31.3437 676.628 30.9999C676.854 30.5753 677.536 30.6314 677.898 30.3082C678.254 29.9916 678.099 29.4953 678.422 29.1878C678.557 29.0584 678.688 28.9545 678.82 28.8588C679.04 28.7022 679.261 28.5678 679.494 28.3889C679.682 28.2438 679.942 27.4548 680.269 27.6032C680.444 27.6824 680.371 27.9495 680.629 27.9247C680.775 27.9116 680.92 27.8984 681.068 27.8951C681.346 27.8852 681.478 28.0319 681.822 27.8967C682.205 27.7458 682.528 27.5298 682.946 27.4828C683.364 27.4359 683.81 27.6222 684.208 27.5504C684.625 27.4738 685.315 27.2833 685.731 27.4004C685.736 27.402 685.869 27.4565 686 27.4969C686.15 27.5439 686.251 27.6321 686.149 27.7302C686.076 27.7994 686.002 27.8621 686.024 27.9429C686.072 28.107 686.345 28.1894 686.145 28.4145L686.144 28.4161Z" fill="#B2B9F4"/>
<path fill-rule="evenodd" clip-rule="evenodd" d="M695.123 31.8768C695.123 32.05 693.898 32.6155 692.382 33.1423L685.479 35.5374L678.345 38.0132C676.842 38.5359 675.614 38.9498 675.582 38.9498C675.579 38.944 675.576 38.9366 675.573 38.9291C675.516 38.7882 675.322 38.6431 675.143 38.4914C674.88 38.2729 674.796 38.2374 674.654 38.1797C674.512 38.1237 674.503 37.9992 674.592 37.9753C674.679 37.9505 674.507 37.6892 674.366 37.2555C674.322 37.1187 674.28 36.981 674.246 36.859C674.183 36.6388 674.246 36.314 674.41 36.1672C674.495 36.0897 674.575 36.0032 674.632 35.8399C674.712 35.6107 674.813 35.3857 674.887 35.154C674.986 34.8498 674.751 34.6165 674.814 34.3782C674.816 34.365 674.823 34.3518 674.828 34.3386V34.337C674.836 34.3238 674.843 34.3106 674.85 34.2957C674.867 34.2677 674.886 34.2397 674.903 34.21C674.959 34.1201 676.21 33.6065 677.732 33.078L682.115 31.5569L684.953 30.5734C686.12 30.1677 687.229 29.8924 687.791 29.8462C687.962 29.833 688.083 29.8396 688.138 29.8709C688.3 29.9616 688.469 30.0556 688.571 30.1191C688.751 30.2312 689.322 30.6344 689.387 30.1735C689.424 29.9155 689.29 29.6772 689.534 29.4818C689.843 29.2369 690.294 29.2031 690.595 29.4538C690.775 29.6005 691.186 29.5816 691.288 29.7415C691.37 29.8726 692.56 30.0985 692.776 30.101C693.181 30.1051 693.407 29.7695 693.884 29.8281C694.133 29.8586 694.395 29.8338 694.639 29.9031C694.731 29.9278 694.805 30.0268 694.865 30.1702C694.87 30.1818 694.875 30.1941 694.879 30.2065C694.933 30.345 694.974 30.5173 695.008 30.7069C695.014 30.7391 695.019 30.7712 695.023 30.805C695.028 30.8347 695.032 30.8636 695.036 30.8933C695.044 30.9361 695.048 30.9798 695.054 31.0235C695.054 31.0252 695.055 31.026 695.054 31.0276C695.058 31.0614 695.063 31.0969 695.067 31.1323C695.068 31.1513 695.069 31.1694 695.073 31.1868C695.075 31.2239 695.08 31.2585 695.083 31.2939C695.093 31.4011 695.1 31.5066 695.108 31.6064C695.11 31.6402 695.113 31.6724 695.113 31.7045C695.118 31.763 695.121 31.8191 695.124 31.8719L695.123 31.8768Z" fill="#B2B9F4"/>
<path fill-rule="evenodd" clip-rule="evenodd" d="M697.747 36.692C697.741 37.143 696.895 37.7621 695.611 38.209C693.458 38.9576 690.466 39.9955 688.237 40.7681C688.133 40.8043 688.031 40.8398 687.931 40.8752C686.408 41.4037 685.156 41.7376 685.1 41.6362C685.067 41.5744 685.024 41.5175 684.975 41.4655C684.696 41.1762 684.57 41.2339 684.163 41.2611C683.684 41.2932 683.502 41.3064 683.287 40.8587C683.114 40.4976 682.862 40.3715 682.469 40.3921C681.835 40.4243 681.182 40.7227 680.617 40.9857C680.216 41.1737 679.885 40.8901 679.471 40.8711C679.085 40.8521 678.728 40.9857 678.36 41.0747C678.341 41.0789 678.322 41.0838 678.303 41.0863C678.009 41.1374 677.686 41.0517 677.377 40.9041H677.376C677.269 40.853 677.163 40.7936 677.061 40.7318C676.942 40.6584 676.871 40.5685 676.845 40.4663C676.736 40.0186 677.502 39.3475 678.742 38.9172L686.035 36.3869L692.796 34.0406C694.318 33.5121 695.578 33.1493 695.597 33.2326C695.6 33.24 695.602 33.2491 695.603 33.2565C695.604 33.2639 695.606 33.2697 695.607 33.2771C695.61 33.2903 695.613 33.3052 695.615 33.32C695.619 33.3406 695.622 33.3645 695.625 33.3859C695.634 33.4577 696.103 33.7116 696.188 33.9392C696.306 34.264 696.268 34.5797 696.367 34.9013C696.465 35.2154 696.88 35.2871 697 35.6293C697.028 35.7059 697.339 36.086 697.661 36.4587C697.721 36.5279 697.748 36.6054 697.747 36.6912V36.692Z" fill="#B2B9F4"/>
<path fill-rule="evenodd" clip-rule="evenodd" d="M695.532 52.8461C695.497 53.739 694.942 53.4067 694.412 53.9121C694.223 54.0926 694.282 54.7159 694.15 54.9888C693.918 55.4645 693.572 55.8858 693.203 56.2593C692.741 56.7292 691.999 57.4712 691.271 57.383C690.915 57.3385 690.438 57.3302 690.094 57.4415C689.721 57.5636 689.467 57.782 689.084 57.5924C689.028 57.5627 688.982 57.5454 688.947 57.5306H688.946C688.845 57.491 688.811 57.4704 688.755 57.2973C688.731 57.2264 688.587 56.9799 688.598 56.9032C688.613 56.7977 688.775 56.8141 688.77 56.6864C688.766 56.6319 688.762 56.5792 688.753 56.5281C688.752 56.5116 688.749 56.4959 688.744 56.4794C688.741 56.4572 688.736 56.4357 688.731 56.4151C688.725 56.3904 688.72 56.3656 688.712 56.3401C688.711 56.3376 688.711 56.3343 688.709 56.331C688.705 56.3121 688.698 56.2947 688.693 56.2766C688.687 56.2576 688.681 56.2403 688.674 56.2222C688.657 56.1694 688.635 56.1167 688.611 56.0639C688.592 56.0227 688.571 55.9798 688.549 55.9386C688.544 55.927 688.536 55.9138 688.531 55.9023C688.51 55.8644 688.489 55.8256 688.465 55.7877C688.409 55.6896 688.345 55.5907 688.278 55.4942C687.951 54.983 688.603 54.2312 689.762 53.6986C689.945 53.6153 690.139 53.537 690.344 53.4652L692.597 52.6845C693 52.5452 693.386 52.4289 693.734 52.3423C694.702 52.0967 695.393 52.062 695.443 52.2879C695.49 52.5039 695.538 52.7125 695.533 52.8469L695.532 52.8461Z" fill="#B2B9F4"/>
<path fill-rule="evenodd" clip-rule="evenodd" d="M697.864 48.7461C697.885 49 697.881 49.1806 697.846 49.3422C697.778 49.6654 696.38 50.32 694.857 50.8484L694.656 50.9177V50.9194L690.106 52.4965C690.033 52.5213 689.96 52.5468 689.889 52.5699C688.466 53.0374 687.322 53.1437 687.252 52.809C687.248 52.79 687.244 52.7694 687.239 52.7504C687.235 52.7315 687.23 52.7142 687.226 52.6944C687.219 52.6639 687.211 52.6342 687.202 52.6045C687.195 52.5798 687.188 52.5542 687.179 52.5311C687.171 52.5072 687.162 52.4842 687.154 52.4611C687.144 52.4314 687.134 52.4034 687.121 52.3778C687.112 52.3572 687.103 52.3382 687.093 52.3193C687.09 52.3151 687.089 52.3102 687.086 52.3061C687.085 52.3028 687.083 52.3003 687.081 52.297C687.063 52.2648 687.044 52.2343 687.022 52.2047C686.775 51.8642 686.578 51.4998 686.352 51.1444C686.041 50.6613 686.088 50.3356 686.049 49.7907C686.041 49.6876 686.079 49.4527 686.148 49.2045C686.243 48.8871 687.591 48.2218 689.107 47.6966L689.85 47.4377L694.824 45.7121C695.953 45.3214 696.885 45.0732 697.259 45.0575C697.388 45.0518 697.449 45.074 697.43 45.1268C697.381 45.2472 697.335 45.3708 697.277 45.4986C697.128 45.8375 697.412 45.8086 697.528 46.0576C697.589 46.1878 697.565 46.5259 697.54 46.7213C697.52 46.8853 697.508 47.0527 697.511 47.075C697.555 47.3932 697.861 47.4591 697.903 47.784C697.944 48.1113 697.837 48.4237 697.864 48.7453L697.864 48.7461Z" fill="#B2B9F4"/>
<path fill-rule="evenodd" clip-rule="evenodd" d="M702.211 38.7916C702.16 38.9293 702.113 39.0719 702.098 39.1074C701.91 39.579 701.626 40.0151 701.426 40.4908C701.235 40.9475 700.748 41.5065 700.243 42.0045C699.74 42.5008 698.727 43.0944 697.657 43.5891C697.116 43.8413 696.559 44.0689 696.047 44.247L689.727 46.4392L689.54 46.5035C688.034 47.0262 686.764 47.2999 686.68 47.1194C686.676 47.1029 686.672 47.0888 686.666 47.0757C686.654 47.0344 686.642 46.9949 686.631 46.9578C686.624 46.9256 686.615 46.8959 686.608 46.8695C686.608 46.8662 686.606 46.8638 686.606 46.8605C686.604 46.8514 686.602 46.8415 686.599 46.8324C686.597 46.8234 686.596 46.8168 686.595 46.8077C686.592 46.7912 686.589 46.7756 686.588 46.7624C686.554 46.426 686.403 46.2042 686.249 45.9049C686.134 45.6799 686.188 45.4292 686.05 45.1967C685.866 44.8917 685.54 44.6402 685.252 44.3673C685.233 44.3484 685.215 44.3294 685.197 44.3096L685.194 44.3072C685.179 44.2907 685.165 44.275 685.151 44.2585C685.138 44.2404 685.123 44.2231 685.111 44.2041C685.097 44.1851 685.082 44.1645 685.069 44.1439C685.051 44.1175 685.035 44.0912 685.02 44.0631C684.99 44.0087 684.966 43.9526 684.944 43.8974C684.934 43.8735 684.926 43.8504 684.917 43.8282C684.913 43.815 684.908 43.8018 684.904 43.7886C684.898 43.768 684.892 43.7474 684.886 43.7267C684.777 43.3277 686.09 42.556 687.612 42.0284L688.577 41.6937L696.208 39.0464C697.024 38.7628 697.788 38.5558 698.355 38.4486C698.846 38.3563 699.186 38.3365 699.274 38.4091C699.412 38.5187 699.564 38.6061 699.676 38.5616C700.214 38.3489 700.762 38.2648 701.36 38.1386C701.646 38.0768 702.424 37.5426 702.236 38.231C702.229 38.2664 702.255 38.306 702.288 38.3678C702.329 38.4396 702.275 38.6193 702.211 38.7924L702.211 38.7916Z" fill="#B2B9F4"/>
<path fill-rule="evenodd" clip-rule="evenodd" d="M701.288 50.9408C701.03 51.701 700.592 52.3918 700.334 53.1536C700.156 53.6763 699.875 54.2312 699.225 54.1743C698.697 54.129 698.638 53.6236 698.685 53.2303C698.734 52.8585 698.448 52.659 698.711 52.2731C698.851 52.0678 699.23 51.8057 699.144 51.4726C699.077 51.2211 698.923 50.738 699.103 50.508C699.117 50.4915 699.127 50.475 699.137 50.4585C699.153 50.4305 699.748 50.2021 700.469 49.9523C701.191 49.7017 701.793 49.6258 701.787 49.7833C701.782 49.8979 701.764 49.9968 701.724 50.0578C701.652 50.1576 701.365 50.7157 701.288 50.9416V50.9408Z" fill="#B2B9F4"/>
<path d="M656.222 72.1975L655.695 70.6962H652.293L651.796 72.1975H650.033L652.932 63.8574H654.955L657.877 72.1975H656.222ZM652.825 69.1594H655.156L653.96 65.752L652.825 69.1594Z" fill="#B2B9F4"/>
<path d="M665.995 65.4296H662.681V67.4075H665.9V68.9805H662.681V72.1975H661.048V63.8574H665.995V65.4305V65.4296Z" fill="#B2B9F4"/>
<path d="M674.1 72.1975L672.426 69.3021H671.189V72.1975H669.557V63.8574H672.87C673.635 63.8574 674.286 64.1278 674.823 64.6679C675.359 65.2079 675.628 65.8592 675.628 66.6218C675.628 67.1379 675.482 67.6169 675.19 68.0572C674.898 68.4982 674.511 68.8297 674.03 69.0523L675.864 72.1975H674.102H674.1ZM671.189 65.3942V67.8609H672.869C673.177 67.8609 673.441 67.7397 673.662 67.4974C673.883 67.255 673.994 66.9631 673.994 66.6218C673.994 66.2805 673.883 65.9903 673.662 65.752C673.441 65.5137 673.177 65.3942 672.869 65.3942H671.189Z" fill="#B2B9F4"/>
<path d="M679.188 63.8574H680.82V72.1975H679.188V63.8574Z" fill="#B2B9F4"/>
<path d="M688.654 72.3626C687.408 72.3626 686.378 71.9455 685.566 71.112C684.754 70.2776 684.347 69.2495 684.347 68.026C684.347 66.8026 684.753 65.7646 685.566 64.9344C686.378 64.1042 687.407 63.6895 688.654 63.6895C689.403 63.6895 690.096 63.8667 690.731 64.2196C691.365 64.5733 691.861 65.0514 692.216 65.6558L690.808 66.4777C690.602 66.1043 690.311 65.8124 689.932 65.6022C689.554 65.3919 689.127 65.2864 688.654 65.2864C687.849 65.2864 687.201 65.5403 686.708 66.049C686.215 66.5577 685.969 67.2164 685.969 68.0269C685.969 68.8373 686.215 69.4845 686.708 69.9932C687.201 70.5019 687.85 70.7558 688.654 70.7558C689.127 70.7558 689.556 70.6503 689.938 70.44C690.32 70.2298 690.61 69.9421 690.808 69.576L692.216 70.398C691.861 71.0015 691.368 71.4805 690.737 71.8342C690.106 72.1879 689.412 72.3643 688.654 72.3643V72.3626Z" fill="#B2B9F4"/>
<path d="M700.996 72.1975L700.47 70.6962H697.067L696.57 72.1975H694.807L697.706 63.8574H699.73L702.652 72.1975H700.996ZM697.599 69.1594H699.93L698.735 65.752L697.599 69.1594Z" fill="#B2B9F4"/>
<path d="M742.092 67.5918H704.778V68.6042H742.092V67.5918Z" fill="#B2B9F4"/>
<path d="M610.49 68.6042V68.6034V67.5918H647.805V68.6042H610.49Z" fill="#B2B9F4"/>
<path d="M742.092 67.5918H704.778V68.6042H742.092V67.5918Z" fill="#B2B9F4"/>
<path opacity="0.3" d="M946.616 53.8307H929.659C929.602 53.8307 929.544 53.8596 929.544 53.9174C929.544 53.9462 929.544 53.9751 929.573 53.9751L957.94 94.9884C957.969 95.0462 957.969 95.1039 957.911 95.1328C957.911 95.1328 957.882 95.1328 957.882 95.1617C932.866 104.722 904.817 92.1579 895.284 67.1456C885.751 42.1333 898.288 14.0883 923.304 4.55702C948.32 -4.97423 976.37 7.56081 985.902 32.5731C993.471 52.4155 987.26 74.8572 970.563 87.9988C970.534 88.0277 970.448 88.0277 970.419 87.9988L956.091 67.29C956.062 67.2322 956.062 67.1745 956.12 67.1456C956.12 67.1456 956.149 67.1456 956.149 67.1167C966.606 63.7085 972.325 52.4443 968.888 41.9888C966.201 33.7573 958.517 28.2119 949.851 28.2696H911.952C911.894 28.2696 911.836 28.3274 911.836 28.3852C911.836 28.414 911.836 28.414 911.865 28.4429L921.571 42.451C921.6 42.4799 921.629 42.5087 921.658 42.5087H950.776C953.924 43.3174 955.831 46.5234 955.022 49.6716C954.502 51.6934 952.971 53.2819 950.949 53.8885H950.92H946.269" fill="#1227E2"/>
<g clip-path="url(#clip0_7158_12500)">
<path d="M12.6846 190.788C12.8703 188.573 13.0569 186.359 13.2426 184.145C13.751 183.695 14.3465 183.31 14.7538 182.783C18.8133 177.53 22.5575 176.788 28.7554 177.804C29.7273 177.962 30.6511 178.401 31.5978 178.71C31.8218 179.033 31.9766 179.451 32.2805 179.665C36.5623 182.694 38.1045 186.671 37.1823 191.828C36.0841 197.968 30.2805 201.965 24.7962 201.882C24.0735 201.871 23.3542 201.71 22.6332 201.618C22.6251 201.382 22.6161 201.146 22.608 200.91C24.388 198.851 25.509 196.619 24.5803 193.822C23.5766 190.801 20.2243 189.066 17.1229 190.034C16.2479 190.307 15.4284 190.75 14.5835 191.116C13.9514 191.007 13.3184 190.898 12.6862 190.79L12.6846 190.788Z" fill="#B2B9F4"/>
<path d="M31.5971 178.71C30.6513 178.401 29.7267 177.963 28.7548 177.803C22.5576 176.788 18.8135 177.53 14.7532 182.783C14.3467 183.31 13.7503 183.695 13.242 184.145C13.0383 183.762 12.6603 183.379 12.6571 182.995C12.6163 178.476 12.631 173.957 12.631 169.326C13.1043 169.263 13.5051 169.209 13.9059 169.156C15.0986 169.145 16.2905 169.134 17.4831 169.123C17.8994 169.12 18.3149 169.117 18.7312 169.114C18.855 169.117 18.9788 169.119 19.1035 169.122C19.4122 169.117 19.721 169.113 20.0298 169.108C20.7923 169.106 21.5548 169.104 22.3181 169.104C22.8428 169.11 23.3666 169.117 23.8913 169.123C24.011 169.14 24.1299 169.158 24.2497 169.174C25.6925 169.416 27.2183 169.445 28.5625 169.945C31.4383 171.015 33.5059 174.912 31.598 178.71H31.5971Z" fill="#B2B9F4"/>
<path d="M12.6846 190.789C13.3167 190.898 13.9497 191.006 14.5819 191.115C14.0076 191.925 13.4341 192.734 12.6846 193.792V190.789Z" fill="#093FA2"/>
<path d="M22.6074 200.91C22.6156 201.146 22.6245 201.382 22.6327 201.618C22.3875 201.728 22.1414 201.838 21.8962 201.949C21.8205 201.855 21.7447 201.762 21.6689 201.669C21.9818 201.416 22.2946 201.163 22.6083 200.91H22.6074Z" fill="#234EA4"/>
<path d="M22.3172 169.102C21.5547 169.103 20.7921 169.105 20.0288 169.106C20.7913 169.104 21.5539 169.102 22.3172 169.102Z" fill="#ADDDFB"/>
<path d="M24.2486 169.174C24.1288 169.157 24.0099 169.139 23.8901 169.123C24.0099 169.14 24.1288 169.157 24.2486 169.174Z" fill="#ADDDFB"/>
<path d="M19.1033 169.121C18.9794 169.118 18.8556 169.116 18.731 169.113C18.8548 169.116 18.9786 169.118 19.1033 169.121Z" fill="#ADDDFB"/>
<path d="M56.9638 178.424H64.9312V202.552H56.9638V200.139C55.5243 202.198 53.2994 203.228 50.2917 203.228C47.6995 203.228 45.5797 202.335 43.9316 200.55C42.2836 198.764 41.46 196.199 41.46 192.853V178.425H49.4274V191.84C49.4274 193.095 49.7549 194.044 50.4115 194.687C51.0673 195.331 51.939 195.652 53.0273 195.652C54.2754 195.652 55.2424 195.274 55.9316 194.517C56.6192 193.762 56.9638 192.676 56.9638 191.26V178.424Z" fill="#B2B9F4"/>
<path d="M76.7627 175.071C75.8511 175.987 74.7708 176.446 73.5228 176.446C72.2747 176.446 71.1945 175.987 70.2829 175.071C69.3713 174.154 68.915 173.068 68.915 171.814C68.915 170.559 69.3713 169.482 70.2829 168.58C71.1945 167.68 72.2747 167.229 73.5228 167.229C74.7708 167.229 75.8511 167.679 76.7627 168.58C77.6743 169.481 78.1305 170.559 78.1305 171.814C78.1305 173.068 77.6743 174.154 76.7627 175.071ZM69.5391 202.553V178.425H77.5065V202.553H69.5391Z" fill="#B2B9F4"/>
<path d="M82.1143 202.551V167.324H90.0817V202.551H82.1143Z" fill="#B2B9F4"/>
<path d="M111.586 168.771H119.553V202.551H111.586V200.331C109.954 202.261 107.681 203.226 104.77 203.226C101.57 203.226 98.8906 202.012 96.7301 199.583C94.5705 197.155 93.4902 194.123 93.4902 190.487C93.4902 186.851 94.5705 183.82 96.7301 181.391C98.8898 178.962 101.57 177.747 104.77 177.747C107.682 177.747 109.954 178.712 111.586 180.643V168.771ZM102.898 194.299C103.826 195.264 105.041 195.748 106.546 195.748C108.051 195.748 109.265 195.265 110.194 194.299C111.122 193.335 111.586 192.064 111.586 190.488C111.586 188.912 111.122 187.641 110.194 186.675C109.265 185.71 108.05 185.227 106.546 185.227C105.042 185.227 103.826 185.709 102.898 186.675C101.969 187.64 101.506 188.911 101.506 190.488C101.506 192.064 101.969 193.335 102.898 194.299Z" fill="#B2B9F4"/>
<path d="M138.272 177.892C141.728 177.892 144.663 179.107 147.079 181.535C149.495 183.965 150.703 186.949 150.703 190.487C150.703 194.025 149.495 197.01 147.079 199.438C144.663 201.867 141.728 203.081 138.272 203.081C136 203.081 133.96 202.535 132.152 201.441C130.344 200.347 128.944 198.852 127.953 196.953V202.551H125.553V168.771H127.953V184.02C128.944 182.123 130.345 180.626 132.152 179.533C133.96 178.439 136 177.892 138.272 177.892ZM130.904 197.774C132.872 199.769 135.28 200.766 138.128 200.766C140.976 200.766 143.383 199.769 145.351 197.774C147.32 195.78 148.304 193.351 148.304 190.487C148.304 187.623 147.32 185.195 145.351 183.2C143.383 181.205 140.975 180.208 138.128 180.208C135.281 180.208 132.872 181.205 130.904 183.2C128.936 185.195 127.952 187.623 127.952 190.487C127.952 193.35 128.936 195.78 130.904 197.774Z" fill="#B2B9F4"/>
<path d="M177.63 178.424H180.078V202.553H177.63V197.1C176.605 198.965 175.198 200.429 173.406 201.491C171.614 202.553 169.582 203.083 167.31 203.083C163.886 203.083 160.958 201.87 158.526 199.44C156.095 197.012 154.878 194.028 154.878 190.489C154.878 186.95 156.094 183.967 158.526 181.538C160.958 179.109 163.886 177.895 167.31 177.895C169.581 177.895 171.613 178.425 173.406 179.487C175.198 180.548 176.605 182.013 177.63 183.878V178.425V178.424ZM160.279 197.775C162.247 199.77 164.654 200.767 167.502 200.767C170.35 200.767 172.75 199.77 174.702 197.775C176.654 195.781 177.63 193.352 177.63 190.488C177.63 187.624 176.654 185.196 174.702 183.201C172.75 181.207 170.35 180.209 167.502 180.209C164.654 180.209 162.246 181.207 160.279 183.201C158.311 185.196 157.327 187.625 157.327 190.488C157.327 193.352 158.311 195.781 160.279 197.775Z" fill="#B2B9F4"/>
<path d="M205.036 178.424H207.628L197.261 204.772C196.332 207.152 195.021 209.026 193.325 210.394C191.629 211.761 189.773 212.363 187.758 212.203V209.935C189.294 210.063 190.678 209.621 191.909 208.608C193.141 207.595 194.142 206.154 194.909 204.289L195.437 202.986L184.397 178.424H186.99L196.685 199.898L205.037 178.424H205.036Z" fill="#B2B9F4"/>
</g>
<g clip-path="url(#clip1_7158_12500)">
<path d="M397.795 188.829C399.978 187.029 401.327 183.749 401.327 181.049C401.327 173.269 395.097 167.229 387.324 167.229H357.628V212.229H367.91V177.514H386.824H387.624C392.25 177.514 392.25 184.779 387.688 184.779H386.829L376.178 184.784V194.354H387.009C391.635 194.354 391.7 202.004 387.074 202.004H385.111H376.178V212.224H389.192C398.375 212.224 403.131 205.859 403.196 198.019C403.196 194.034 401.462 190.689 397.8 188.824L397.795 188.829Z" fill="#B2B9F4"/>
<path d="M414.146 179.074H424.273C428.649 179.074 430.558 181.204 430.558 183.789C430.558 185.909 429.234 187.169 427.825 187.694C429.594 188.244 431.227 189.609 431.227 191.934C431.227 195.369 428.595 197.384 424.108 197.384H414.146V179.074ZM423.344 186.244C425.332 186.244 425.967 185.454 425.967 184.349C425.967 182.969 424.918 182.409 423.384 182.409H418.518V186.249H423.344V186.244ZM418.518 194.079H423.534C425.242 194.079 426.541 193.579 426.541 191.764C426.541 190.304 425.547 189.549 423.614 189.549H418.513V194.079H418.518Z" fill="#B2B9F4"/>
<path d="M434.635 179.074H449.692V182.609H439.076V186.774H448.978V190.334H439.076V197.384H434.635V179.074Z" fill="#B2B9F4"/>
<path d="M457.536 190.329V197.384H453.139V179.074H463.106C467.327 179.074 469.74 181.159 469.74 184.304C469.74 186.669 468.367 188.059 466.558 188.634C467.307 188.929 469.271 189.649 469.271 192.939V193.854C469.271 195.109 469.246 196.519 469.501 197.384H464.944C464.64 196.579 464.605 195.494 464.605 193.549V192.949C464.605 191.099 463.925 190.324 461.257 190.324H457.541L457.536 190.329ZM457.536 186.994H462.112C464.27 186.994 465.199 186.214 465.199 184.674C465.199 183.229 464.24 182.404 462.147 182.404H457.531V186.994H457.536Z" fill="#B2B9F4"/>
<path d="M488.25 189.659H478.038V193.829H489.394L488.884 197.389H473.602V179.074H488.804V182.634H478.043V186.104H488.255V189.664L488.25 189.659Z" fill="#B2B9F4"/>
<path d="M507.234 189.659H497.023V193.829H508.378L507.869 197.389H492.586V179.074H507.789V182.634H497.028V186.104H507.239V189.664L507.234 189.659Z" fill="#B2B9F4"/>
</g>
<path d="M658.381 157.729H672.776V198.763C672.776 202.033 674.111 204.588 676.923 206.228C677.923 206.813 679.144 207.066 680.296 207.306C681.131 207.478 682.021 207.39 682.888 207.39H716.278C717.057 207.39 717.833 207.462 718.681 207.504V221.561C718.106 221.62 717.596 221.71 717.087 221.71C703.156 221.71 689.226 221.749 675.299 221.71C667.054 221.684 659.901 215.404 658.706 207.241C658.505 205.861 658.401 204.468 658.394 203.072C658.378 188.736 658.372 174.406 658.388 160.083V157.729H658.381Z" fill="#A6ADE5"/>
<path d="M683.969 198.952V184.586H705.894C705.78 181.716 704.686 178.972 702.786 176.816C700.123 173.737 696.763 172.068 692.642 172.062H685.846C685.261 172.062 684.673 172.01 683.978 171.974V157.856C684.553 157.81 685.063 157.735 685.576 157.732C687.966 157.722 690.375 157.735 692.775 157.735C705.306 157.709 716.733 166.665 719.561 179.3C720.022 181.511 720.275 183.761 720.321 186.021C720.444 189.606 720.353 193.217 720.353 196.815V198.464C720.194 198.64 720.149 198.705 720.103 198.74C720.058 198.776 719.999 198.854 719.947 198.854C708.621 198.89 697.298 198.922 685.972 198.955H683.969V198.952Z" fill="#A6ADE5"/>
<path opacity="0.3" d="M889.527 149.229L889.777 155.504H889.302C888.569 153.287 887.919 151.779 887.352 150.979C886.786 150.162 885.969 149.754 884.902 149.754H884.602V166.204H886.727V166.729H877.602V166.204H879.727V149.754H879.402C878.336 149.754 877.511 150.179 876.927 151.029C876.344 151.862 875.702 153.354 875.002 155.504H874.527L874.777 149.229H889.527ZM890.443 147.979H896.468V157.129C896.735 156.362 897.143 155.745 897.693 155.279C898.243 154.812 899.076 154.579 900.193 154.579C902.776 154.579 904.068 155.97 904.068 158.754V166.279H905.468V166.729H898.393V166.279H899.418V158.154C899.418 157.154 899.351 156.512 899.218 156.229C899.085 155.929 898.843 155.779 898.493 155.779C897.96 155.779 897.485 156.129 897.068 156.829C896.668 157.529 896.468 158.379 896.468 159.379V166.279H897.543V166.729H890.443V166.279H891.818V148.429H890.443V147.979ZM909.023 153.104C908.14 153.104 907.506 152.879 907.123 152.429C906.756 151.979 906.573 151.42 906.573 150.754C906.573 150.087 906.773 149.537 907.173 149.104C907.59 148.67 908.215 148.454 909.048 148.454C909.881 148.454 910.515 148.654 910.948 149.054C911.381 149.437 911.598 149.995 911.598 150.729C911.598 151.445 911.39 152.02 910.973 152.454C910.556 152.887 909.906 153.104 909.023 153.104ZM905.248 154.829H911.373V166.279H912.773V166.729H905.348V166.279H906.723V155.279H905.248V154.829ZM913.358 166.979V162.504H913.658C914.091 163.954 914.674 164.97 915.408 165.554C916.141 166.137 917.058 166.429 918.158 166.429C919.858 166.429 920.708 165.887 920.708 164.804C920.708 164.337 920.499 163.987 920.083 163.754C919.433 163.387 918.599 163.104 917.583 162.904C916.449 162.604 915.499 162.204 914.733 161.704C913.816 161.104 913.358 160.154 913.358 158.854C913.358 157.554 913.758 156.52 914.558 155.754C915.358 154.97 916.424 154.579 917.758 154.579C918.574 154.579 919.416 154.77 920.283 155.154C920.599 155.287 920.841 155.354 921.008 155.354C921.174 155.354 921.316 155.295 921.433 155.179C921.549 155.062 921.691 154.845 921.858 154.529H922.133V158.354H921.833C920.983 156.187 919.666 155.104 917.883 155.104C917.099 155.104 916.516 155.245 916.133 155.529C915.749 155.795 915.558 156.137 915.558 156.554C915.558 156.804 915.616 157.004 915.733 157.154C915.849 157.287 915.941 157.387 916.008 157.454C916.074 157.52 916.183 157.595 916.333 157.679C916.483 157.745 916.608 157.804 916.708 157.854C916.808 157.887 916.958 157.937 917.158 158.004C917.374 158.07 917.533 158.112 917.633 158.129C918.766 158.412 919.583 158.662 920.083 158.879C920.583 159.079 921.058 159.329 921.508 159.629C922.424 160.262 922.883 161.287 922.883 162.704C922.883 164.104 922.466 165.17 921.633 165.904C920.799 166.62 919.658 166.979 918.208 166.979C917.174 166.979 916.174 166.737 915.208 166.254C915.008 166.12 914.849 166.054 914.733 166.054C914.366 166.054 914.008 166.362 913.658 166.979H913.358ZM927.69 166.979V162.504H927.99C928.423 163.954 929.006 164.97 929.74 165.554C930.473 166.137 931.39 166.429 932.49 166.429C934.19 166.429 935.04 165.887 935.04 164.804C935.04 164.337 934.831 163.987 934.415 163.754C933.765 163.387 932.931 163.104 931.915 162.904C930.781 162.604 929.831 162.204 929.065 161.704C928.148 161.104 927.69 160.154 927.69 158.854C927.69 157.554 928.09 156.52 928.89 155.754C929.69 154.97 930.756 154.579 932.09 154.579C932.906 154.579 933.748 154.77 934.615 155.154C934.931 155.287 935.173 155.354 935.34 155.354C935.506 155.354 935.648 155.295 935.765 155.179C935.881 155.062 936.023 154.845 936.19 154.529H936.465V158.354H936.165C935.315 156.187 933.998 155.104 932.215 155.104C931.431 155.104 930.848 155.245 930.465 155.529C930.081 155.795 929.89 156.137 929.89 156.554C929.89 156.804 929.948 157.004 930.065 157.154C930.181 157.287 930.273 157.387 930.34 157.454C930.406 157.52 930.515 157.595 930.665 157.679C930.815 157.745 930.94 157.804 931.04 157.854C931.14 157.887 931.29 157.937 931.49 158.004C931.706 158.07 931.865 158.112 931.965 158.129C933.098 158.412 933.915 158.662 934.415 158.879C934.915 159.079 935.39 159.329 935.84 159.629C936.756 160.262 937.215 161.287 937.215 162.704C937.215 164.104 936.798 165.17 935.965 165.904C935.131 166.62 933.99 166.979 932.54 166.979C931.506 166.979 930.506 166.737 929.54 166.254C929.34 166.12 929.181 166.054 929.065 166.054C928.698 166.054 928.34 166.362 927.99 166.979H927.69ZM946.409 160.004C946.409 158.287 946.325 157.137 946.159 156.554C945.992 155.954 945.667 155.654 945.184 155.654C944.7 155.654 944.267 155.97 943.884 156.604C943.5 157.22 943.309 158.054 943.309 159.104V163.679C943.309 164.395 943.45 165.004 943.734 165.504C944.017 166.004 944.434 166.254 944.984 166.254C945.534 166.254 945.909 165.887 946.109 165.154C946.309 164.42 946.409 163.137 946.409 161.304V160.004ZM943.259 154.829V156.804C943.909 155.32 945.059 154.579 946.709 154.579C948.142 154.579 949.25 155.095 950.034 156.129C950.834 157.162 951.234 158.729 951.234 160.829C951.234 162.929 950.8 164.479 949.934 165.479C949.084 166.479 947.8 166.979 946.084 166.979C945.284 166.979 944.684 166.879 944.284 166.679C943.884 166.479 943.559 166.17 943.309 165.754V172.229H946.534V172.679H937.284V172.229H938.659V155.279H937.334V154.829H943.259ZM959.556 161.804V159.679C959.556 158.062 959.464 156.887 959.281 156.154C959.114 155.404 958.714 155.029 958.081 155.029C957.714 155.029 957.414 155.137 957.181 155.354C956.964 155.554 956.806 155.895 956.706 156.379C956.556 157.129 956.481 158.27 956.481 159.804V161.754C956.481 163.57 956.531 164.662 956.631 165.029C956.748 165.395 956.864 165.695 956.981 165.929C957.164 166.329 957.523 166.529 958.056 166.529C958.706 166.529 959.131 166.154 959.331 165.404C959.481 164.87 959.556 163.67 959.556 161.804ZM958.006 166.979C955.923 166.979 954.348 166.445 953.281 165.379C952.214 164.312 951.681 162.787 951.681 160.804C951.681 158.804 952.248 157.27 953.381 156.204C954.531 155.12 956.139 154.579 958.206 154.579C960.273 154.579 961.814 155.079 962.831 156.079C963.848 157.062 964.356 158.57 964.356 160.604C964.356 164.854 962.239 166.979 958.006 166.979ZM965.805 163.154V155.279H964.43V154.829H965.805V151.604L970.455 150.454V154.829H973.705V155.279H970.455V163.704C970.455 164.487 970.53 165.062 970.68 165.429C970.847 165.795 971.18 165.979 971.68 165.979C972.18 165.979 972.614 165.729 972.98 165.229C973.364 164.729 973.614 164.045 973.73 163.179L974.155 163.229C974.022 164.379 973.655 165.295 973.055 165.979C972.455 166.645 971.464 166.979 970.08 166.979C968.697 166.979 967.639 166.704 966.905 166.154C966.172 165.604 965.805 164.604 965.805 163.154ZM894.465 194.854H895.19V192.929C895.19 191.345 895.099 190.287 894.915 189.754C894.749 189.204 894.415 188.929 893.915 188.929C893.615 188.929 893.34 189.012 893.09 189.179C892.857 189.329 892.74 189.545 892.74 189.829C892.74 190.095 892.79 190.37 892.89 190.654H893.515C893.649 191.004 893.715 191.429 893.715 191.929C893.715 192.412 893.507 192.837 893.09 193.204C892.674 193.554 892.149 193.729 891.515 193.729C890.082 193.729 889.365 193.037 889.365 191.654C889.365 189.604 891.107 188.579 894.59 188.579C896.574 188.579 897.94 188.92 898.69 189.604C899.457 190.27 899.84 191.504 899.84 193.304V198.379C899.84 199.245 900.082 199.679 900.565 199.679C901.132 199.679 901.465 198.82 901.565 197.104L901.94 197.129C901.874 198.595 901.599 199.604 901.115 200.154C900.632 200.704 899.84 200.979 898.74 200.979C896.74 200.979 895.59 200.362 895.29 199.129C895.074 199.762 894.749 200.229 894.315 200.529C893.882 200.829 893.249 200.979 892.415 200.979C889.949 200.979 888.715 199.97 888.715 197.954C888.715 196.77 889.182 195.962 890.115 195.529C891.065 195.079 892.515 194.854 894.465 194.854ZM893.465 197.929C893.465 198.795 893.507 199.354 893.59 199.604C893.69 199.854 893.865 199.979 894.115 199.979C894.382 199.979 894.624 199.77 894.84 199.354C895.074 198.92 895.19 198.329 895.19 197.579V195.254H895.015C893.982 195.254 893.465 196.012 893.465 197.529V197.929ZM908.747 189.279V188.829H915.197V189.279H914.172L916.422 197.704L918.647 189.279H916.922V188.829H920.297V189.279H919.247L916.247 200.729H912.822L910.647 193.054L908.297 200.729H904.947L901.247 189.279H900.122V188.829H907.697V189.279H906.197L908.497 197.779L910.297 191.929L909.672 189.279H908.747ZM925.472 194.854H926.197V192.929C926.197 191.345 926.106 190.287 925.922 189.754C925.756 189.204 925.422 188.929 924.922 188.929C924.622 188.929 924.347 189.012 924.097 189.179C923.864 189.329 923.747 189.545 923.747 189.829C923.747 190.095 923.797 190.37 923.897 190.654H924.522C924.656 191.004 924.722 191.429 924.722 191.929C924.722 192.412 924.514 192.837 924.097 193.204C923.681 193.554 923.156 193.729 922.522 193.729C921.089 193.729 920.372 193.037 920.372 191.654C920.372 189.604 922.114 188.579 925.597 188.579C927.581 188.579 928.947 188.92 929.697 189.604C930.464 190.27 930.847 191.504 930.847 193.304V198.379C930.847 199.245 931.089 199.679 931.572 199.679C932.139 199.679 932.472 198.82 932.572 197.104L932.947 197.129C932.881 198.595 932.606 199.604 932.122 200.154C931.639 200.704 930.847 200.979 929.747 200.979C927.747 200.979 926.597 200.362 926.297 199.129C926.081 199.762 925.756 200.229 925.322 200.529C924.889 200.829 924.256 200.979 923.422 200.979C920.956 200.979 919.722 199.97 919.722 197.954C919.722 196.77 920.189 195.962 921.122 195.529C922.072 195.079 923.522 194.854 925.472 194.854ZM924.472 197.929C924.472 198.795 924.514 199.354 924.597 199.604C924.697 199.854 924.872 199.979 925.122 199.979C925.389 199.979 925.631 199.77 925.847 199.354C926.081 198.92 926.197 198.329 926.197 197.579V195.254H926.022C924.989 195.254 924.472 196.012 924.472 197.529V197.929ZM936.368 187.104C935.485 187.104 934.851 186.879 934.468 186.429C934.101 185.979 933.918 185.42 933.918 184.754C933.918 184.087 934.118 183.537 934.518 183.104C934.935 182.67 935.56 182.454 936.393 182.454C937.226 182.454 937.86 182.654 938.293 183.054C938.726 183.437 938.943 183.995 938.943 184.729C938.943 185.445 938.735 186.02 938.318 186.454C937.901 186.887 937.251 187.104 936.368 187.104ZM932.593 188.829H938.718V200.279H940.118V200.729H932.693V200.279H934.068V189.279H932.593V188.829ZM941.377 197.154V189.279H940.002V188.829H941.377V185.604L946.027 184.454V188.829H949.277V189.279H946.027V197.704C946.027 198.487 946.102 199.062 946.252 199.429C946.419 199.795 946.752 199.979 947.252 199.979C947.752 199.979 948.186 199.729 948.552 199.229C948.936 198.729 949.186 198.045 949.302 197.179L949.727 197.229C949.594 198.379 949.227 199.295 948.627 199.979C948.027 200.645 947.036 200.979 945.652 200.979C944.269 200.979 943.211 200.704 942.477 200.154C941.744 199.604 941.377 198.604 941.377 197.154ZM950.041 200.979V196.504H950.341C950.775 197.954 951.358 198.97 952.091 199.554C952.825 200.137 953.741 200.429 954.841 200.429C956.541 200.429 957.391 199.887 957.391 198.804C957.391 198.337 957.183 197.987 956.766 197.754C956.116 197.387 955.283 197.104 954.266 196.904C953.133 196.604 952.183 196.204 951.416 195.704C950.5 195.104 950.041 194.154 950.041 192.854C950.041 191.554 950.441 190.52 951.241 189.754C952.041 188.97 953.108 188.579 954.441 188.579C955.258 188.579 956.1 188.77 956.966 189.154C957.283 189.287 957.525 189.354 957.691 189.354C957.858 189.354 958 189.295 958.116 189.179C958.233 189.062 958.375 188.845 958.541 188.529H958.816V192.354H958.516C957.666 190.187 956.35 189.104 954.566 189.104C953.783 189.104 953.2 189.245 952.816 189.529C952.433 189.795 952.241 190.137 952.241 190.554C952.241 190.804 952.3 191.004 952.416 191.154C952.533 191.287 952.625 191.387 952.691 191.454C952.758 191.52 952.866 191.595 953.016 191.679C953.166 191.745 953.291 191.804 953.391 191.854C953.491 191.887 953.641 191.937 953.841 192.004C954.058 192.07 954.216 192.112 954.316 192.129C955.45 192.412 956.266 192.662 956.766 192.879C957.266 193.079 957.741 193.329 958.191 193.629C959.108 194.262 959.566 195.287 959.566 196.704C959.566 198.104 959.15 199.17 958.316 199.904C957.483 200.62 956.341 200.979 954.891 200.979C953.858 200.979 952.858 200.737 951.891 200.254C951.691 200.12 951.533 200.054 951.416 200.054C951.05 200.054 950.691 200.362 950.341 200.979H950.041ZM903.82 223.279V222.829H911.07V223.279H909.72L912.445 231.579L915.345 223.279H913.67V222.829H917.195V223.279H915.945L911.27 236.754C910.72 238.32 910.103 239.412 909.42 240.029C908.736 240.662 907.903 240.979 906.92 240.979C905.936 240.979 905.161 240.754 904.595 240.304C904.028 239.854 903.745 239.279 903.745 238.579C903.745 237.879 903.928 237.345 904.295 236.979C904.661 236.612 905.145 236.429 905.745 236.429C907.128 236.429 907.82 237.004 907.82 238.154C907.82 238.404 907.77 238.704 907.67 239.054H906.795C906.661 239.437 906.645 239.754 906.745 240.004C906.845 240.254 907.07 240.379 907.42 240.379C908.103 240.379 908.711 240.037 909.245 239.354C909.778 238.687 910.286 237.662 910.77 236.279L911.32 234.729H909.12L904.845 223.279H903.82ZM924.191 229.804V227.679C924.191 226.062 924.099 224.887 923.916 224.154C923.749 223.404 923.349 223.029 922.716 223.029C922.349 223.029 922.049 223.137 921.816 223.354C921.599 223.554 921.441 223.895 921.341 224.379C921.191 225.129 921.116 226.27 921.116 227.804V229.754C921.116 231.57 921.166 232.662 921.266 233.029C921.382 233.395 921.499 233.695 921.616 233.929C921.799 234.329 922.157 234.529 922.691 234.529C923.341 234.529 923.766 234.154 923.966 233.404C924.116 232.87 924.191 231.67 924.191 229.804ZM922.641 234.979C920.557 234.979 918.982 234.445 917.916 233.379C916.849 232.312 916.316 230.787 916.316 228.804C916.316 226.804 916.882 225.27 918.016 224.204C919.166 223.12 920.774 222.579 922.841 222.579C924.907 222.579 926.449 223.079 927.466 224.079C928.482 225.062 928.991 226.57 928.991 228.604C928.991 232.854 926.874 234.979 922.641 234.979ZM943.815 234.729H938.115L937.84 232.904C937.573 233.57 937.173 234.087 936.64 234.454C936.123 234.804 935.348 234.979 934.315 234.979C931.732 234.979 930.44 233.587 930.44 230.804V223.279H929.04V222.829H935.09V231.404C935.09 232.404 935.157 233.062 935.29 233.379C935.44 233.695 935.723 233.854 936.14 233.854C936.573 233.854 936.957 233.595 937.29 233.079C937.623 232.562 937.79 231.845 937.79 230.929V223.279H936.64V222.829H942.44V234.279H943.815V234.729Z" fill="#1227E2"/>
<defs>
<clipPath id="clip0_7158_12500">
<rect width="195" height="45" fill="white" transform="translate(12.6284 167.229)"/>
</clipPath>
<clipPath id="clip1_7158_12500">
<rect width="150.75" height="45" fill="white" transform="translate(357.628 167.229)"/>
</clipPath>
</defs>
</svg>
