<svg width="286" height="99" viewBox="0 0 286 99" fill="none" xmlns="http://www.w3.org/2000/svg">
<rect y="0.955078" width="286" height="98" rx="20" fill="white"/>
<path d="M103.48 68.3379L110.272 51.4659H112.936L119.704 68.3379H116.224L110.992 54.4899H112.192L106.888 68.3379H103.48ZM107.08 65.1939V62.4579H116.152V65.1939H107.08ZM127.98 68.5779C127.148 68.5779 126.396 68.4099 125.724 68.0739C125.052 67.7219 124.516 67.2499 124.116 66.6579C123.716 66.0659 123.5 65.3859 123.468 64.6179V60.5139C123.5 59.7459 123.716 59.0659 124.116 58.4739C124.532 57.8659 125.068 57.3859 125.724 57.0339C126.396 56.6819 127.148 56.5059 127.98 56.5059C129.052 56.5059 130.012 56.7699 130.86 57.2979C131.708 57.8259 132.372 58.5459 132.852 59.4579C133.348 60.3699 133.596 61.4019 133.596 62.5539C133.596 63.6899 133.348 64.7139 132.852 65.6259C132.372 66.5379 131.708 67.2579 130.86 67.7859C130.012 68.3139 129.052 68.5779 127.98 68.5779ZM127.428 65.6739C128.004 65.6739 128.516 65.5459 128.964 65.2899C129.412 65.0179 129.756 64.6499 129.996 64.1859C130.252 63.7059 130.38 63.1539 130.38 62.5299C130.38 61.9219 130.252 61.3859 129.996 60.9219C129.756 60.4419 129.412 60.0739 128.964 59.8179C128.516 59.5459 128.004 59.4099 127.428 59.4099C126.868 59.4099 126.364 59.5459 125.916 59.8179C125.468 60.0739 125.116 60.4419 124.86 60.9219C124.62 61.3859 124.5 61.9219 124.5 62.5299C124.5 63.1539 124.62 63.7059 124.86 64.1859C125.116 64.6499 125.46 65.0179 125.892 65.2899C126.34 65.5459 126.852 65.6739 127.428 65.6739ZM121.548 73.1859V56.7459H124.692V59.7939L124.164 62.6019L124.668 65.4099V73.1859H121.548ZM142.09 68.5779C141.258 68.5779 140.506 68.4099 139.834 68.0739C139.162 67.7219 138.626 67.2499 138.226 66.6579C137.826 66.0659 137.61 65.3859 137.578 64.6179V60.5139C137.61 59.7459 137.826 59.0659 138.226 58.4739C138.642 57.8659 139.178 57.3859 139.834 57.0339C140.506 56.6819 141.258 56.5059 142.09 56.5059C143.162 56.5059 144.122 56.7699 144.97 57.2979C145.818 57.8259 146.482 58.5459 146.962 59.4579C147.458 60.3699 147.706 61.4019 147.706 62.5539C147.706 63.6899 147.458 64.7139 146.962 65.6259C146.482 66.5379 145.818 67.2579 144.97 67.7859C144.122 68.3139 143.162 68.5779 142.09 68.5779ZM141.538 65.6739C142.114 65.6739 142.626 65.5459 143.074 65.2899C143.522 65.0179 143.866 64.6499 144.106 64.1859C144.362 63.7059 144.49 63.1539 144.49 62.5299C144.49 61.9219 144.362 61.3859 144.106 60.9219C143.866 60.4419 143.522 60.0739 143.074 59.8179C142.626 59.5459 142.114 59.4099 141.538 59.4099C140.978 59.4099 140.474 59.5459 140.026 59.8179C139.578 60.0739 139.226 60.4419 138.97 60.9219C138.73 61.3859 138.61 61.9219 138.61 62.5299C138.61 63.1539 138.73 63.7059 138.97 64.1859C139.226 64.6499 139.57 65.0179 140.002 65.2899C140.45 65.5459 140.962 65.6739 141.538 65.6739ZM135.658 73.1859V56.7459H138.802V59.7939L138.274 62.6019L138.778 65.4099V73.1859H135.658ZM149.767 68.3379V50.9859H152.911V68.3379H149.767ZM161.241 68.5779C160.025 68.5779 158.945 68.3219 158.001 67.8099C157.057 67.2819 156.305 66.5619 155.745 65.6499C155.201 64.7379 154.929 63.6979 154.929 62.5299C154.929 61.3779 155.193 60.3539 155.721 59.4579C156.265 58.5459 157.001 57.8259 157.929 57.2979C158.857 56.7539 159.889 56.4819 161.025 56.4819C162.145 56.4819 163.129 56.7379 163.977 57.2499C164.841 57.7459 165.513 58.4339 165.993 59.3139C166.489 60.1779 166.737 61.1619 166.737 62.2659C166.737 62.4739 166.721 62.6899 166.689 62.9139C166.673 63.1219 166.633 63.3619 166.569 63.6339L156.825 63.6579V61.3059L165.105 61.2819L163.833 62.2659C163.801 61.5779 163.673 61.0019 163.449 60.5379C163.241 60.0739 162.929 59.7219 162.513 59.4819C162.113 59.2259 161.617 59.0979 161.025 59.0979C160.401 59.0979 159.857 59.2419 159.393 59.5299C158.929 59.8019 158.569 60.1939 158.313 60.7059C158.073 61.2019 157.953 61.7939 157.953 62.4819C157.953 63.1859 158.081 63.8019 158.337 64.3299C158.609 64.8419 158.993 65.2419 159.489 65.5299C159.985 65.8019 160.561 65.9379 161.217 65.9379C161.809 65.9379 162.345 65.8419 162.825 65.6499C163.305 65.4419 163.721 65.1379 164.073 64.7379L165.921 66.5859C165.361 67.2419 164.673 67.7379 163.857 68.0739C163.057 68.4099 162.185 68.5779 161.241 68.5779ZM178.601 68.5779C177.241 68.5779 176.073 68.3459 175.097 67.8819C174.137 67.4179 173.265 66.7219 172.481 65.7939L174.641 63.6339C175.137 64.2899 175.713 64.8019 176.369 65.1699C177.025 65.5219 177.825 65.6979 178.769 65.6979C179.617 65.6979 180.289 65.5299 180.785 65.1939C181.297 64.8579 181.553 64.3939 181.553 63.8019C181.553 63.2899 181.409 62.8739 181.121 62.5539C180.833 62.2339 180.449 61.9619 179.969 61.7379C179.505 61.5139 178.985 61.3139 178.409 61.1379C177.849 60.9459 177.281 60.7299 176.705 60.4899C176.145 60.2499 175.625 59.9539 175.145 59.6019C174.681 59.2339 174.305 58.7699 174.017 58.2099C173.729 57.6339 173.585 56.9139 173.585 56.0499C173.585 55.0259 173.833 54.1539 174.329 53.4339C174.825 52.7139 175.505 52.1619 176.369 51.7779C177.233 51.3939 178.209 51.2019 179.297 51.2019C180.449 51.2019 181.489 51.4179 182.417 51.8499C183.345 52.2819 184.105 52.8419 184.697 53.5299L182.537 55.6899C182.041 55.1459 181.529 54.7459 181.001 54.4899C180.489 54.2339 179.905 54.1059 179.249 54.1059C178.497 54.1059 177.905 54.2499 177.473 54.5379C177.041 54.8259 176.825 55.2419 176.825 55.7859C176.825 56.2499 176.969 56.6259 177.257 56.9139C177.545 57.2019 177.921 57.4499 178.385 57.6579C178.865 57.8659 179.385 58.0659 179.945 58.2579C180.521 58.4499 181.089 58.6659 181.649 58.9059C182.225 59.1459 182.745 59.4579 183.209 59.8419C183.689 60.2259 184.073 60.7219 184.361 61.3299C184.649 61.9219 184.793 62.6579 184.793 63.5379C184.793 65.1059 184.241 66.3379 183.137 67.2339C182.033 68.1299 180.521 68.5779 178.601 68.5779ZM188.737 68.3379V51.9219H191.881V68.3379H188.737ZM186.025 59.5059V56.7459H194.593V59.5059H186.025ZM201.528 68.5779C200.36 68.5779 199.304 68.3139 198.36 67.7859C197.432 67.2419 196.688 66.5139 196.128 65.6019C195.584 64.6739 195.312 63.6419 195.312 62.5059C195.312 61.3699 195.584 60.3539 196.128 59.4579C196.672 58.5459 197.416 57.8259 198.36 57.2979C199.304 56.7539 200.352 56.4819 201.504 56.4819C202.688 56.4819 203.744 56.7539 204.672 57.2979C205.616 57.8259 206.36 58.5459 206.904 59.4579C207.448 60.3539 207.72 61.3699 207.72 62.5059C207.72 63.6419 207.448 64.6739 206.904 65.6019C206.36 66.5139 205.616 67.2419 204.672 67.7859C203.744 68.3139 202.696 68.5779 201.528 68.5779ZM201.504 65.6499C202.096 65.6499 202.616 65.5219 203.064 65.2659C203.528 64.9939 203.88 64.6259 204.12 64.1619C204.376 63.6819 204.504 63.1379 204.504 62.5299C204.504 61.9219 204.376 61.3859 204.12 60.9219C203.864 60.4579 203.512 60.0979 203.064 59.8419C202.616 59.5699 202.096 59.4339 201.504 59.4339C200.928 59.4339 200.416 59.5699 199.968 59.8419C199.52 60.0979 199.168 60.4579 198.912 60.9219C198.656 61.3859 198.528 61.9219 198.528 62.5299C198.528 63.1379 198.656 63.6819 198.912 64.1619C199.168 64.6259 199.52 64.9939 199.968 65.2659C200.416 65.5219 200.928 65.6499 201.504 65.6499ZM209.744 68.3379V56.7459H212.888V68.3379H209.744ZM212.888 61.9299L211.664 61.1139C211.808 59.6899 212.224 58.5699 212.912 57.7539C213.6 56.9219 214.592 56.5059 215.888 56.5059C216.448 56.5059 216.952 56.6019 217.4 56.7939C217.848 56.9699 218.256 57.2659 218.624 57.6819L216.656 59.9379C216.48 59.7459 216.264 59.6019 216.008 59.5059C215.768 59.4099 215.488 59.3619 215.168 59.3619C214.496 59.3619 213.944 59.5779 213.512 60.0099C213.096 60.4259 212.888 61.0659 212.888 61.9299ZM224.944 68.5779C223.728 68.5779 222.648 68.3219 221.704 67.8099C220.76 67.2819 220.008 66.5619 219.448 65.6499C218.904 64.7379 218.632 63.6979 218.632 62.5299C218.632 61.3779 218.896 60.3539 219.424 59.4579C219.968 58.5459 220.704 57.8259 221.632 57.2979C222.56 56.7539 223.592 56.4819 224.728 56.4819C225.848 56.4819 226.832 56.7379 227.68 57.2499C228.544 57.7459 229.216 58.4339 229.696 59.3139C230.192 60.1779 230.44 61.1619 230.44 62.2659C230.44 62.4739 230.424 62.6899 230.392 62.9139C230.376 63.1219 230.336 63.3619 230.272 63.6339L220.528 63.6579V61.3059L228.808 61.2819L227.536 62.2659C227.504 61.5779 227.376 61.0019 227.152 60.5379C226.944 60.0739 226.632 59.7219 226.216 59.4819C225.816 59.2259 225.32 59.0979 224.728 59.0979C224.104 59.0979 223.56 59.2419 223.096 59.5299C222.632 59.8019 222.272 60.1939 222.016 60.7059C221.776 61.2019 221.656 61.7939 221.656 62.4819C221.656 63.1859 221.784 63.8019 222.04 64.3299C222.312 64.8419 222.696 65.2419 223.192 65.5299C223.688 65.8019 224.264 65.9379 224.92 65.9379C225.512 65.9379 226.048 65.8419 226.528 65.6499C227.008 65.4419 227.424 65.1379 227.776 64.7379L229.624 66.5859C229.064 67.2419 228.376 67.7379 227.56 68.0739C226.76 68.4099 225.888 68.5779 224.944 68.5779Z" fill="#1E1E1E"/>
<path d="M105.394 37.9551V36.7311H109.03C110.002 36.7311 110.86 36.5211 111.604 36.1011C112.348 35.6691 112.93 35.0811 113.35 34.3371C113.77 33.5811 113.98 32.7171 113.98 31.7451C113.98 30.7731 113.77 29.9151 113.35 29.1711C112.93 28.4271 112.348 27.8451 111.604 27.4251C110.86 26.9931 110.002 26.7771 109.03 26.7771H105.43V25.5711H109.066C109.966 25.5711 110.794 25.7271 111.55 26.0391C112.318 26.3391 112.984 26.7711 113.548 27.3351C114.124 27.8871 114.568 28.5411 114.88 29.2971C115.192 30.0411 115.348 30.8631 115.348 31.7631C115.348 32.6391 115.192 33.4551 114.88 34.2111C114.568 34.9671 114.13 35.6271 113.566 36.1911C113.002 36.7431 112.336 37.1751 111.568 37.4871C110.812 37.7991 109.99 37.9551 109.102 37.9551H105.394ZM104.584 37.9551V25.5711H105.898V37.9551H104.584ZM121.419 38.1351C120.603 38.1351 119.859 37.9371 119.187 37.5411C118.527 37.1451 117.999 36.6111 117.603 35.9391C117.219 35.2671 117.027 34.5171 117.027 33.6891C117.027 32.8731 117.219 32.1351 117.603 31.4751C117.999 30.8151 118.527 30.2931 119.187 29.9091C119.859 29.5131 120.603 29.3151 121.419 29.3151C122.247 29.3151 122.991 29.5071 123.651 29.8911C124.311 30.2751 124.833 30.8031 125.217 31.4751C125.613 32.1351 125.811 32.8731 125.811 33.6891C125.811 34.5291 125.613 35.2851 125.217 35.9571C124.833 36.6171 124.311 37.1451 123.651 37.5411C122.991 37.9371 122.247 38.1351 121.419 38.1351ZM121.419 36.9111C122.019 36.9111 122.547 36.7731 123.003 36.4971C123.471 36.2211 123.837 35.8371 124.101 35.3451C124.377 34.8531 124.515 34.3011 124.515 33.6891C124.515 33.0771 124.377 32.5371 124.101 32.0691C123.837 31.5891 123.471 31.2111 123.003 30.9351C122.547 30.6591 122.019 30.5211 121.419 30.5211C120.831 30.5211 120.303 30.6591 119.835 30.9351C119.367 31.2111 119.001 31.5891 118.737 32.0691C118.473 32.5371 118.341 33.0771 118.341 33.6891C118.341 34.3131 118.473 34.8711 118.737 35.3631C119.001 35.8431 119.367 36.2211 119.835 36.4971C120.303 36.7731 120.831 36.9111 121.419 36.9111ZM129.892 37.9551L126.634 29.4951H127.948L130.522 36.5151L130.054 36.5331L132.61 29.4951H133.348L135.904 36.5331L135.436 36.5151L137.992 29.4951H139.324L136.048 37.9551H135.31L132.7 31.0251H133.24L130.648 37.9551H129.892ZM147.12 37.9551V32.9871C147.12 32.2431 146.898 31.6431 146.454 31.1871C146.022 30.7191 145.446 30.4851 144.726 30.4851C144.234 30.4851 143.802 30.5931 143.43 30.8091C143.058 31.0251 142.764 31.3191 142.548 31.6911C142.332 32.0631 142.224 32.4891 142.224 32.9691L141.648 32.6451C141.648 32.0091 141.798 31.4391 142.098 30.9351C142.398 30.4311 142.8 30.0351 143.304 29.7471C143.82 29.4591 144.408 29.3151 145.068 29.3151C145.716 29.3151 146.292 29.4711 146.796 29.7831C147.3 30.0951 147.69 30.5151 147.966 31.0431C148.254 31.5711 148.398 32.1471 148.398 32.7711V37.9551H147.12ZM140.964 37.9551V29.4951H142.224V37.9551H140.964ZM150.755 37.9551V25.2111H152.015V37.9551H150.755ZM158.403 38.1351C157.587 38.1351 156.843 37.9371 156.171 37.5411C155.511 37.1451 154.983 36.6111 154.587 35.9391C154.203 35.2671 154.011 34.5171 154.011 33.6891C154.011 32.8731 154.203 32.1351 154.587 31.4751C154.983 30.8151 155.511 30.2931 156.171 29.9091C156.843 29.5131 157.587 29.3151 158.403 29.3151C159.231 29.3151 159.975 29.5071 160.635 29.8911C161.295 30.2751 161.817 30.8031 162.201 31.4751C162.597 32.1351 162.795 32.8731 162.795 33.6891C162.795 34.5291 162.597 35.2851 162.201 35.9571C161.817 36.6171 161.295 37.1451 160.635 37.5411C159.975 37.9371 159.231 38.1351 158.403 38.1351ZM158.403 36.9111C159.003 36.9111 159.531 36.7731 159.987 36.4971C160.455 36.2211 160.821 35.8371 161.085 35.3451C161.361 34.8531 161.499 34.3011 161.499 33.6891C161.499 33.0771 161.361 32.5371 161.085 32.0691C160.821 31.5891 160.455 31.2111 159.987 30.9351C159.531 30.6591 159.003 30.5211 158.403 30.5211C157.815 30.5211 157.287 30.6591 156.819 30.9351C156.351 31.2111 155.985 31.5891 155.721 32.0691C155.457 32.5371 155.325 33.0771 155.325 33.6891C155.325 34.3131 155.457 34.8711 155.721 35.3631C155.985 35.8431 156.351 36.2211 156.819 36.4971C157.287 36.7731 157.815 36.9111 158.403 36.9111ZM168.471 38.1351C167.667 38.1351 166.947 37.9431 166.311 37.5591C165.675 37.1631 165.171 36.6351 164.799 35.9751C164.439 35.3151 164.259 34.5711 164.259 33.7431C164.259 32.9031 164.439 32.1531 164.799 31.4931C165.171 30.8211 165.675 30.2931 166.311 29.9091C166.947 29.5131 167.661 29.3151 168.453 29.3151C169.101 29.3151 169.677 29.4471 170.181 29.7111C170.697 29.9631 171.111 30.3231 171.423 30.7911C171.747 31.2471 171.945 31.7811 172.017 32.3931V35.0391C171.945 35.6511 171.747 36.1911 171.423 36.6591C171.111 37.1271 170.697 37.4931 170.181 37.7571C169.677 38.0091 169.107 38.1351 168.471 38.1351ZM168.669 36.9291C169.545 36.9291 170.247 36.6351 170.775 36.0471C171.315 35.4591 171.585 34.6851 171.585 33.7251C171.585 33.0891 171.459 32.5311 171.207 32.0511C170.967 31.5591 170.625 31.1811 170.181 30.9171C169.749 30.6411 169.239 30.5031 168.651 30.5031C168.051 30.5031 167.517 30.6411 167.049 30.9171C166.593 31.1931 166.227 31.5771 165.951 32.0691C165.687 32.5491 165.555 33.1011 165.555 33.7251C165.555 34.3491 165.687 34.9011 165.951 35.3811C166.227 35.8611 166.599 36.2391 167.067 36.5151C167.535 36.7911 168.069 36.9291 168.669 36.9291ZM171.513 37.9551V35.6871L171.765 33.5991L171.513 31.5651V29.4951H172.773V37.9551H171.513ZM178.929 38.1351C178.149 38.1351 177.447 37.9431 176.823 37.5591C176.199 37.1751 175.701 36.6531 175.329 35.9931C174.969 35.3211 174.789 34.5711 174.789 33.7431C174.789 32.9031 174.969 32.1531 175.329 31.4931C175.701 30.8211 176.199 30.2931 176.823 29.9091C177.447 29.5131 178.149 29.3151 178.929 29.3151C179.565 29.3151 180.141 29.4411 180.657 29.6931C181.173 29.9451 181.599 30.3051 181.935 30.7731C182.283 31.2291 182.487 31.7691 182.547 32.3931V35.0391C182.475 35.6511 182.271 36.1911 181.935 36.6591C181.611 37.1151 181.191 37.4751 180.675 37.7391C180.159 38.0031 179.577 38.1351 178.929 38.1351ZM179.145 36.9291C179.733 36.9291 180.249 36.7971 180.693 36.5331C181.137 36.2571 181.485 35.8791 181.737 35.3991C181.989 34.9071 182.115 34.3491 182.115 33.7251C182.115 33.0891 181.983 32.5311 181.719 32.0511C181.467 31.5711 181.119 31.1931 180.675 30.9171C180.231 30.6411 179.715 30.5031 179.127 30.5031C178.539 30.5031 178.017 30.6411 177.561 30.9171C177.105 31.1931 176.745 31.5771 176.481 32.0691C176.229 32.5491 176.103 33.1011 176.103 33.7251C176.103 34.3491 176.229 34.9071 176.481 35.3991C176.745 35.8791 177.105 36.2571 177.561 36.5331C178.029 36.7971 178.557 36.9291 179.145 36.9291ZM183.303 37.9551H182.043V35.6871L182.295 33.5991L182.043 31.5651V25.2111H183.303V37.9551ZM193.559 38.1351C192.743 38.1351 191.999 37.9371 191.327 37.5411C190.667 37.1451 190.139 36.6111 189.743 35.9391C189.359 35.2671 189.167 34.5171 189.167 33.6891C189.167 32.8731 189.359 32.1351 189.743 31.4751C190.139 30.8151 190.667 30.2931 191.327 29.9091C191.999 29.5131 192.743 29.3151 193.559 29.3151C194.387 29.3151 195.131 29.5071 195.791 29.8911C196.451 30.2751 196.973 30.8031 197.357 31.4751C197.753 32.1351 197.951 32.8731 197.951 33.6891C197.951 34.5291 197.753 35.2851 197.357 35.9571C196.973 36.6171 196.451 37.1451 195.791 37.5411C195.131 37.9371 194.387 38.1351 193.559 38.1351ZM193.559 36.9111C194.159 36.9111 194.687 36.7731 195.143 36.4971C195.611 36.2211 195.977 35.8371 196.241 35.3451C196.517 34.8531 196.655 34.3011 196.655 33.6891C196.655 33.0771 196.517 32.5371 196.241 32.0691C195.977 31.5891 195.611 31.2111 195.143 30.9351C194.687 30.6591 194.159 30.5211 193.559 30.5211C192.971 30.5211 192.443 30.6591 191.975 30.9351C191.507 31.2111 191.141 31.5891 190.877 32.0691C190.613 32.5371 190.481 33.0771 190.481 33.6891C190.481 34.3131 190.613 34.8711 190.877 35.3631C191.141 35.8431 191.507 36.2211 191.975 36.4971C192.443 36.7731 192.971 36.9111 193.559 36.9111ZM206.112 37.9551V32.9871C206.112 32.2431 205.89 31.6431 205.446 31.1871C205.014 30.7191 204.438 30.4851 203.718 30.4851C203.226 30.4851 202.794 30.5931 202.422 30.8091C202.05 31.0251 201.756 31.3191 201.54 31.6911C201.324 32.0631 201.216 32.4891 201.216 32.9691L200.64 32.6451C200.64 32.0091 200.79 31.4391 201.09 30.9351C201.39 30.4311 201.792 30.0351 202.296 29.7471C202.812 29.4591 203.4 29.3151 204.06 29.3151C204.708 29.3151 205.284 29.4711 205.788 29.7831C206.292 30.0951 206.682 30.5151 206.958 31.0431C207.246 31.5711 207.39 32.1471 207.39 32.7711V37.9551H206.112ZM199.956 37.9551V29.4951H201.216V37.9551H199.956ZM214.928 37.9551V25.9311H216.188V37.9551H214.928ZM212.786 30.6291V29.4951H218.312V30.6291H212.786ZM226.204 37.9551V32.9871C226.204 32.2431 225.982 31.6431 225.538 31.1871C225.106 30.7191 224.53 30.4851 223.81 30.4851C223.318 30.4851 222.886 30.5931 222.514 30.8091C222.142 31.0251 221.848 31.3191 221.632 31.6911C221.416 32.0631 221.308 32.4891 221.308 32.9691L220.732 32.6451C220.732 32.0091 220.882 31.4391 221.182 30.9351C221.482 30.4311 221.884 30.0351 222.388 29.7471C222.904 29.4591 223.492 29.3151 224.152 29.3151C224.8 29.3151 225.376 29.4651 225.88 29.7651C226.384 30.0531 226.774 30.4551 227.05 30.9711C227.338 31.4871 227.482 32.0871 227.482 32.7711V37.9551H226.204ZM220.048 37.9551V25.2111H221.308V37.9551H220.048ZM233.745 38.1351C232.893 38.1351 232.131 37.9431 231.459 37.5591C230.787 37.1751 230.253 36.6471 229.857 35.9751C229.473 35.3031 229.281 34.5471 229.281 33.7071C229.281 32.8791 229.473 32.1351 229.857 31.4751C230.241 30.8031 230.763 30.2751 231.423 29.8911C232.083 29.5071 232.821 29.3151 233.637 29.3151C234.405 29.3151 235.083 29.4891 235.671 29.8371C236.271 30.1851 236.739 30.6711 237.075 31.2951C237.423 31.9071 237.597 32.6151 237.597 33.4191C237.597 33.5151 237.591 33.6291 237.579 33.7611C237.567 33.8811 237.543 34.0251 237.507 34.1931H230.181V33.1131H236.823L236.373 33.5091C236.385 32.8851 236.277 32.3511 236.049 31.9071C235.833 31.4511 235.515 31.1031 235.095 30.8631C234.687 30.6111 234.189 30.4851 233.601 30.4851C232.989 30.4851 232.455 30.6171 231.999 30.8811C231.543 31.1451 231.183 31.5171 230.919 31.9971C230.667 32.4651 230.541 33.0231 230.541 33.6711C230.541 34.3191 230.673 34.8891 230.937 35.3811C231.213 35.8731 231.591 36.2571 232.071 36.5331C232.563 36.8091 233.127 36.9471 233.763 36.9471C234.279 36.9471 234.753 36.8571 235.185 36.6771C235.617 36.4851 235.983 36.2031 236.283 35.8311L237.093 36.6591C236.697 37.1271 236.205 37.4931 235.617 37.7571C235.041 38.0091 234.417 38.1351 233.745 38.1351Z" fill="#7E7E7E"/>
<path d="M71.7074 30.4435C72.7628 29.2271 73.5675 27.8142 74.0753 26.286C74.5831 24.7577 74.7841 23.1442 74.6666 21.5381C71.4265 21.7996 68.4188 23.3235 66.2916 25.7814C65.2729 26.9594 64.5009 28.3299 64.0214 29.8116C63.5419 31.2933 63.3646 32.8562 63.4999 34.4077C65.0804 34.4208 66.6427 34.0701 68.0659 33.3827C69.4892 32.6953 70.7351 31.6896 71.7074 30.4435ZM78.7424 51.2135C78.7611 49.0744 79.3246 46.9752 80.3796 45.1143C81.4347 43.2533 82.9465 41.6918 84.7724 40.5773C83.6201 38.9169 82.0967 37.5478 80.3232 36.5787C78.5496 35.6095 76.5747 35.0669 74.5549 34.9939C70.1999 34.5473 66.1799 37.5343 63.8628 37.5343C61.5457 37.5343 58.2795 35.0498 54.6503 35.1056C52.2778 35.1837 49.966 35.8755 47.9404 37.1133C45.9148 38.3512 44.2447 40.0928 43.0928 42.1685C38.1795 50.711 41.8366 63.4131 46.7499 70.3085C48.9832 73.6864 51.7749 77.511 55.4599 77.3714C59.1449 77.2318 60.3453 75.0822 64.6166 75.0822C68.8878 75.0822 70.1999 77.3714 73.8291 77.2877C77.4582 77.2039 80.0266 73.826 82.3716 70.4481C84.0327 67.9957 85.3303 65.3158 86.2241 62.4918C84.0116 61.5483 82.124 59.9773 80.7944 57.973C79.4648 55.9687 78.7514 53.6187 78.7424 51.2135Z" fill="#1E1E1E"/>
</svg>
