<svg width="313" height="309" viewBox="0 0 313 309" fill="none" xmlns="http://www.w3.org/2000/svg">
<path d="M153.691 26.6911V24.5591H159.151C160.191 24.5591 161.006 24.2558 161.595 23.6491C162.185 23.0251 162.479 22.2798 162.479 21.4131C162.479 20.8238 162.349 20.2951 162.089 19.8271C161.829 19.3418 161.448 18.9604 160.945 18.6831C160.46 18.4058 159.888 18.2671 159.229 18.2671H153.691V16.1351H158.865C159.732 16.1351 160.417 15.9098 160.919 15.4591C161.439 14.9911 161.699 14.3238 161.699 13.4571C161.699 12.5904 161.431 11.9318 160.893 11.4811C160.356 11.0131 159.645 10.7791 158.761 10.7791H153.691V8.6471H158.813C159.992 8.6471 160.971 8.86377 161.751 9.2971C162.549 9.7131 163.147 10.2678 163.545 10.9611C163.961 11.6544 164.169 12.4171 164.169 13.2491C164.169 14.2198 163.901 15.0691 163.363 15.7971C162.843 16.5251 162.072 17.0971 161.049 17.5131L161.257 16.7331C162.419 17.1491 163.32 17.7818 163.961 18.6311C164.62 19.4631 164.949 20.4511 164.949 21.5951C164.949 22.5484 164.715 23.4064 164.247 24.1691C163.779 24.9318 163.103 25.5471 162.219 26.0151C161.353 26.4658 160.287 26.6911 159.021 26.6911H153.691ZM152.053 26.6911V8.6471H154.497V26.6911H152.053Z" fill="white"/>
<path d="M170.211 26.8774C169.005 26.7526 167.948 26.3559 167.041 25.6871C166.134 25.0183 165.446 24.1718 164.977 23.1474C164.51 22.1058 164.339 20.9816 164.463 19.7747C164.586 18.585 164.981 17.5455 165.648 16.656C166.317 15.7493 167.164 15.0614 168.188 14.5922C169.212 14.123 170.328 13.9508 171.535 14.0756C172.724 14.1986 173.773 14.5944 174.679 15.2632C175.605 15.9165 176.302 16.7553 176.772 17.7797C177.241 18.804 177.414 19.911 177.291 21.1007C177.166 22.3076 176.769 23.373 176.098 24.297C175.429 25.2037 174.574 25.8907 173.532 26.3581C172.508 26.8273 171.401 27.0004 170.211 26.8774ZM170.444 24.6274C171.22 24.7076 171.928 24.5978 172.569 24.2981C173.21 23.9984 173.735 23.5561 174.144 22.971C174.555 22.3687 174.802 21.6624 174.886 20.8521C174.968 20.0589 174.86 19.3333 174.562 18.6752C174.281 18.0189 173.857 17.4871 173.289 17.0799C172.74 16.6572 172.078 16.4058 171.302 16.3256C170.526 16.2454 169.818 16.3551 169.177 16.6548C168.538 16.9373 168.014 17.371 167.605 17.9561C167.196 18.5411 166.95 19.2302 166.868 20.0233C166.785 20.8337 166.882 21.5756 167.161 22.2492C167.442 22.9055 167.865 23.4459 168.431 23.8704C168.997 24.2948 169.668 24.5472 170.444 24.6274Z" fill="white"/>
<path d="M183.083 28.1337C181.895 27.8855 180.885 27.3822 180.051 26.6237C179.218 25.8653 178.621 24.9525 178.26 23.8853C177.902 22.8012 177.847 21.6653 178.095 20.4776C178.34 19.3069 178.84 18.3135 179.595 17.4973C180.353 16.6642 181.266 16.0669 182.333 15.7056C183.4 15.3442 184.527 15.2876 185.715 15.5358C186.886 15.7805 187.888 16.282 188.721 17.0405C189.575 17.7855 190.182 18.6916 190.543 19.7588C190.905 20.8259 190.963 21.9448 190.719 23.1155C190.47 24.3032 189.965 25.3221 189.203 26.1722C188.445 27.0054 187.523 27.6008 186.439 27.9586C185.372 28.32 184.253 28.3783 183.083 28.1337ZM183.545 25.9195C184.309 26.0791 185.025 26.0428 185.693 25.8105C186.361 25.5783 186.929 25.1923 187.396 24.6524C187.866 24.0955 188.185 23.4184 188.352 22.6209C188.515 21.8405 188.482 21.1076 188.253 20.4223C188.042 19.7406 187.674 19.168 187.151 18.7046C186.649 18.2278 186.016 17.9096 185.252 17.75C184.489 17.5905 183.773 17.6268 183.105 17.859C182.44 18.0742 181.874 18.4518 181.407 18.9917C180.94 19.5316 180.625 20.1918 180.462 20.9722C180.295 21.7697 180.316 22.5177 180.524 23.2164C180.736 23.8982 181.102 24.4792 181.621 24.9596C182.14 25.44 182.782 25.76 183.545 25.9195Z" fill="white"/>
<path d="M197.99 31.147L194.412 23.3729L201.696 19.3661L204.396 20.228L196.303 24.6315L196.813 23.3752L200.863 32.0642L197.99 31.147ZM190.46 28.7433L196.106 11.0585L198.335 11.7702L192.689 29.4549L190.46 28.7433Z" fill="white"/>
<path d="M228.908 43.7264L230.143 41.9887L234.593 45.1524C235.441 45.7549 236.281 45.9798 237.113 45.8268C237.955 45.6597 238.627 45.2229 239.129 44.5166C239.47 44.0363 239.671 43.5301 239.73 42.998C239.799 42.4518 239.709 41.92 239.46 41.4027C239.225 40.8955 238.84 40.451 238.303 40.0694L233.789 36.8606L235.024 35.1229L239.241 38.1208C239.948 38.623 240.636 38.8361 241.307 38.76C242.002 38.6799 242.601 38.2866 243.103 37.5803C243.605 36.8739 243.768 36.1814 243.591 35.5028C243.424 34.81 242.981 34.2075 242.26 33.6953L238.128 30.7576L239.363 29.02L243.538 31.9878C244.498 32.6707 245.171 33.4148 245.556 34.2199C245.964 35.0209 246.13 35.8195 246.054 36.6156C245.991 37.4217 245.719 38.1638 245.237 38.8419C244.674 39.633 243.963 40.1696 243.103 40.4516C242.258 40.7436 241.298 40.7629 240.223 40.5094L240.844 39.9942C241.55 41.0062 241.918 42.044 241.949 43.1079C242.003 44.1676 241.699 45.1637 241.036 46.0961C240.484 46.8731 239.796 47.4368 238.973 47.7872C238.149 48.1376 237.242 48.2475 236.25 48.1167C235.283 47.9818 234.283 47.5478 233.252 46.8147L228.908 43.7264ZM227.573 42.7773L238.028 28.0709L240.02 29.487L229.565 44.1934L227.573 42.7773Z" fill="white"/>
<path d="M241.756 53.0038C241.001 52.3402 240.466 51.5702 240.151 50.6939C239.861 49.816 239.816 48.9223 240.015 48.0129C240.215 47.1034 240.669 46.2451 241.379 45.4379L246.116 40.0478L247.873 41.5925L243.205 46.9045C242.759 47.4123 242.454 47.9294 242.292 48.4557C242.153 48.9804 242.168 49.4892 242.335 49.982C242.502 50.4748 242.813 50.9215 243.269 51.3219C243.959 51.9284 244.688 52.1885 245.456 52.1021C246.236 52.0027 246.963 51.5689 247.638 50.8008L252.307 45.4888L254.064 47.0335L249.327 52.4236C248.618 53.2309 247.825 53.7917 246.948 54.1061C246.072 54.4205 245.18 54.4903 244.272 54.3155C243.389 54.139 242.55 53.7018 241.756 53.0038Z" fill="white"/>
<path d="M251.063 60.6618L256.565 48.2715L258.331 50.1796L253.878 59.7219L253.313 59.1113L263.311 55.5604L265.078 57.4685L252.017 61.6922L251.063 60.6618ZM244.941 61.5107L252.889 59.1133L252.017 61.6922L246.707 63.4188L244.941 61.5107Z" fill="white"/>
<path d="M269.519 88.3131L271.45 87.4093L273.764 92.3545C274.205 93.2964 274.825 93.9056 275.624 94.1822C276.439 94.4515 277.239 94.4024 278.024 94.035C278.558 93.7852 278.982 93.4433 279.295 93.0094C279.625 92.5682 279.808 92.0612 279.847 91.4884C279.892 90.9312 279.775 90.3544 279.496 89.7578L277.148 84.742L279.079 83.8383L281.273 88.5244C281.64 89.3093 282.134 89.8339 282.756 90.0981C283.4 90.3707 284.114 90.3233 284.899 89.9559C285.684 89.5885 286.167 89.0659 286.347 88.3882C286.543 87.7032 286.454 86.9603 286.079 86.1597L283.93 81.5678L285.861 80.664L288.032 85.303C288.532 86.3705 288.751 87.3494 288.689 88.2395C288.65 89.138 288.402 89.9147 287.943 90.5697C287.491 91.2404 286.888 91.7521 286.135 92.1048C285.256 92.5163 284.373 92.633 283.485 92.4549C282.606 92.2926 281.761 91.8365 280.95 91.0866L281.745 90.9443C281.861 92.1725 281.67 93.257 281.172 94.1979C280.698 95.1472 279.943 95.8643 278.907 96.3492C278.043 96.7534 277.167 96.9051 276.278 96.8046C275.389 96.704 274.545 96.3526 273.746 95.7504C272.97 95.1565 272.315 94.2865 271.778 93.1405L269.519 88.3131ZM268.824 86.8296L285.167 79.1805L286.203 81.394L269.86 89.0431L268.824 86.8296Z" fill="white"/>
<path d="M276.378 103.428C275.974 102.265 275.871 101.127 276.07 100.011C276.286 98.8902 276.758 97.9 277.487 97.0409C278.216 96.1817 279.162 95.55 280.324 95.1457C281.47 94.747 282.593 94.6502 283.692 94.8552C284.796 95.0765 285.767 95.5463 286.604 96.2645C287.463 96.9933 288.089 97.9226 288.482 99.0522C288.858 100.133 288.943 101.168 288.737 102.157C288.536 103.163 288.081 104.046 287.373 104.806C286.671 105.583 285.771 106.162 284.674 106.543C284.51 106.6 284.327 106.655 284.125 106.707C283.94 106.753 283.715 106.794 283.453 106.83L280.027 96.9832L281.869 96.3425L284.884 105.011L283.89 104.448C284.676 104.175 285.291 103.805 285.734 103.339C286.194 102.867 286.483 102.326 286.601 101.716C286.736 101.1 286.678 100.432 286.427 99.712C286.165 98.959 285.771 98.3529 285.244 97.8938C284.717 97.4347 284.105 97.1521 283.408 97.0461C282.71 96.94 281.96 97.0265 281.158 97.3056C280.339 97.5903 279.676 98.0046 279.168 98.5484C278.676 99.0866 278.364 99.7183 278.23 100.444C278.114 101.163 278.192 101.916 278.465 102.702C278.693 103.357 279.016 103.914 279.433 104.375C279.856 104.852 280.365 105.207 280.96 105.44L280.006 107.369C279.158 107.04 278.419 106.526 277.791 105.827C277.168 105.144 276.697 104.345 276.378 103.428Z" fill="white"/>
<path d="M280.582 115.164C280.323 114.068 280.358 113.009 280.687 111.987C281.032 110.962 281.616 110.076 282.437 109.33C283.262 108.601 284.266 108.097 285.446 107.819C286.627 107.54 287.75 107.542 288.814 107.825C289.882 108.125 290.798 108.648 291.562 109.394C292.33 110.157 292.845 111.095 293.108 112.208C293.323 113.119 293.32 113.975 293.099 114.775C292.899 115.588 292.513 116.293 291.942 116.891C291.388 117.485 290.678 117.911 289.812 118.168L286.194 119.022C285.321 119.175 284.496 119.111 283.718 118.832C282.944 118.57 282.277 118.121 281.718 117.488C281.179 116.867 280.801 116.092 280.582 115.164ZM282.822 115.036C283.089 116.167 283.683 116.988 284.606 117.501C285.545 118.009 286.614 118.122 287.811 117.839C288.638 117.644 289.317 117.315 289.849 116.851C290.401 116.4 290.779 115.848 290.981 115.195C291.199 114.537 291.219 113.829 291.04 113.07C290.861 112.311 290.525 111.678 290.031 111.171C289.541 110.681 288.945 110.341 288.241 110.151C287.558 109.974 286.82 109.979 286.027 110.166C285.217 110.357 284.538 110.687 283.99 111.154C283.462 111.635 283.091 112.212 282.876 112.887C282.661 113.561 282.643 114.277 282.822 115.036ZM281.778 119.103L285.017 118.338L288.054 118.076L290.863 116.959L293.798 116.266L294.341 118.569L282.322 121.406L281.778 119.103Z" fill="white"/>
<path d="M283.626 131.443C283.497 130.446 283.603 129.514 283.946 128.649C284.307 127.798 284.863 127.097 285.613 126.545C286.364 125.993 287.271 125.649 288.337 125.511L295.454 124.589L295.754 126.91L288.741 127.818C288.07 127.905 287.5 128.092 287.031 128.38C286.581 128.683 286.256 129.075 286.056 129.555C285.856 130.035 285.795 130.576 285.872 131.178C285.99 132.089 286.366 132.766 287 133.208C287.652 133.648 288.484 133.802 289.499 133.671L296.512 132.763L296.813 135.084L289.696 136.005C288.63 136.143 287.664 136.041 286.799 135.699C285.933 135.356 285.217 134.82 284.65 134.089C284.103 133.373 283.762 132.491 283.626 131.443Z" fill="white"/>
<path d="M285.61 142.179L303.129 141.728L303.189 144.067L285.671 144.518L285.61 142.179ZM295.747 138.875L297.878 138.82L298.095 147.241L295.964 147.296L295.747 138.875Z" fill="white"/>
<path d="M286.546 152.275L298.859 153.228L298.678 155.561L286.365 154.608L286.546 152.275ZM301.231 154.585C301.265 154.153 301.43 153.81 301.728 153.555C302.043 153.301 302.417 153.191 302.849 153.224C303.264 153.256 303.599 153.421 303.854 153.719C304.126 154.018 304.246 154.384 304.212 154.816C304.179 155.248 304.004 155.591 303.689 155.845C303.391 156.1 303.035 156.211 302.62 156.179C302.188 156.146 301.836 155.98 301.564 155.68C301.309 155.382 301.198 155.017 301.231 154.585Z" fill="white"/>
<path d="M285.879 162.989L299.845 165.534C300.748 165.698 301.497 166.037 302.091 166.551C302.701 167.067 303.141 167.702 303.409 168.456C303.673 169.227 303.722 170.072 303.554 170.993C303.427 171.692 303.197 172.276 302.865 172.744C302.533 173.212 302.098 173.617 301.56 173.96L300.351 172.18C300.63 172.002 300.855 171.787 301.024 171.536C301.21 171.288 301.339 170.968 301.41 170.576C301.544 169.843 301.435 169.233 301.083 168.746C300.728 168.276 300.175 167.973 299.425 167.836L285.459 165.291L285.879 162.989ZM296.476 161.828L298.574 162.21L296.905 171.367L294.808 170.985L296.476 161.828Z" fill="white"/>
<path d="M283.276 178.01L296.731 176.348L296.004 178.844L285.531 179.939L285.763 179.14L293.955 185.884L293.228 188.38L282.884 179.358L283.276 178.01ZM279.396 173.198L285.544 178.778L282.884 179.358L278.67 175.694L279.396 173.198Z" fill="white"/>
<path d="M267.542 222.551L269.31 223.741L266.262 228.271C265.682 229.134 265.479 229.979 265.653 230.807C265.842 231.644 266.296 232.304 267.015 232.788C267.504 233.117 268.015 233.304 268.548 233.35C269.096 233.405 269.625 233.302 270.136 233.039C270.637 232.792 271.072 232.394 271.439 231.848L274.531 227.253L276.3 228.443L273.411 232.736C272.927 233.455 272.732 234.149 272.826 234.818C272.924 235.51 273.332 236.099 274.051 236.582C274.77 237.066 275.467 237.211 276.141 237.017C276.829 236.832 277.42 236.373 277.913 235.64L280.743 231.433L282.512 232.624L279.653 236.873C278.995 237.851 278.269 238.543 277.474 238.948C276.683 239.377 275.889 239.564 275.091 239.507C274.284 239.465 273.535 239.212 272.845 238.748C272.039 238.206 271.485 237.509 271.181 236.657C270.867 235.819 270.823 234.86 271.049 233.779L271.58 234.387C270.586 235.118 269.558 235.513 268.496 235.571C267.438 235.653 266.434 235.375 265.485 234.736C264.694 234.204 264.113 233.531 263.741 232.717C263.37 231.902 263.237 230.998 263.342 230.003C263.452 229.033 263.86 228.023 264.566 226.973L267.542 222.551ZM268.456 221.192L283.427 231.264L282.062 233.292L267.092 223.219L268.456 221.192Z" fill="white"/>
<path d="M258.165 236.153C258.942 235.221 259.861 234.566 260.922 234.187C261.983 233.808 263.07 233.71 264.182 233.892C265.307 234.086 266.335 234.571 267.267 235.349C268.185 236.115 268.827 237.023 269.193 238.073C269.572 239.134 269.67 240.22 269.487 241.332C269.305 242.444 268.825 243.465 268.048 244.397C267.281 245.316 266.368 245.964 265.307 246.343C264.248 246.747 263.163 246.857 262.051 246.674C260.939 246.492 259.924 246.017 259.006 245.251C258.074 244.474 257.412 243.549 257.02 242.477C256.641 241.416 256.548 240.323 256.742 239.198C256.924 238.086 257.399 237.071 258.165 236.153ZM259.902 237.602C259.402 238.201 259.098 238.85 258.989 239.549C258.88 240.248 258.954 240.93 259.211 241.596C259.481 242.273 259.929 242.873 260.555 243.394C261.167 243.905 261.829 244.221 262.541 244.341C263.243 244.475 263.921 244.419 264.576 244.176C265.233 243.956 265.811 243.547 266.311 242.948C266.81 242.349 267.115 241.7 267.224 241.001C267.346 240.313 267.279 239.636 267.022 238.97C266.765 238.304 266.33 237.716 265.718 237.205C265.092 236.684 264.422 236.35 263.708 236.206C263.006 236.072 262.322 236.122 261.654 236.354C260.985 236.587 260.402 237.003 259.902 237.602Z" fill="white"/>
<path d="M249.938 246.13C250.807 245.283 251.788 244.726 252.883 244.458C253.977 244.19 255.068 244.204 256.155 244.5C257.254 244.809 258.227 245.397 259.074 246.266C259.909 247.123 260.454 248.092 260.71 249.174C260.977 250.268 260.963 251.359 260.668 252.446C260.372 253.533 259.789 254.5 258.92 255.347C258.064 256.182 257.088 256.733 255.994 257.001C254.899 257.293 253.808 257.291 252.721 256.996C251.634 256.7 250.673 256.123 249.838 255.267C248.992 254.398 248.428 253.41 248.148 252.303C247.88 251.209 247.901 250.112 248.209 249.013C248.505 247.926 249.081 246.965 249.938 246.13ZM251.516 247.75C250.958 248.294 250.588 248.909 250.408 249.593C250.228 250.277 250.231 250.963 250.418 251.652C250.618 252.353 251.001 252.996 251.57 253.579C252.127 254.15 252.753 254.532 253.449 254.725C254.133 254.93 254.813 254.945 255.489 254.77C256.166 254.619 256.783 254.271 257.341 253.727C257.9 253.183 258.27 252.568 258.45 251.884C258.643 251.213 258.645 250.532 258.458 249.844C258.271 249.155 257.899 248.525 257.342 247.954C256.774 247.37 256.141 246.97 255.446 246.753C254.762 246.548 254.076 246.527 253.387 246.689C252.699 246.852 252.075 247.206 251.516 247.75Z" fill="white"/>
<path d="M239.116 256.816L247.563 258.188L246.821 266.468L244.599 268.227L245.463 259.054L246.221 260.179L236.751 258.688L239.116 256.816ZM245.314 251.911L256.835 266.467L255 267.92L243.479 253.363L245.314 251.911Z" fill="white"/>
<path d="M211.676 271.12L212.428 273.115L207.319 275.041C206.346 275.408 205.69 275.979 205.353 276.755C205.022 277.547 205.009 278.348 205.315 279.159C205.522 279.71 205.831 280.159 206.239 280.505C206.653 280.868 207.145 281.09 207.713 281.172C208.265 281.261 208.849 281.189 209.465 280.956L214.647 279.003L215.399 280.998L210.558 282.823C209.747 283.129 209.186 283.581 208.875 284.18C208.553 284.801 208.545 285.517 208.851 286.328C209.157 287.139 209.64 287.661 210.302 287.893C210.97 288.141 211.718 288.11 212.545 287.798L217.289 286.009L218.041 288.004L213.248 289.811C212.145 290.227 211.152 290.37 210.27 290.239C209.377 290.131 208.622 289.823 208.004 289.315C207.37 288.813 206.907 288.173 206.613 287.394C206.271 286.486 206.222 285.597 206.468 284.726C206.698 283.861 207.218 283.054 208.028 282.304L208.109 283.107C206.875 283.127 205.809 282.853 204.909 282.285C203.999 281.739 203.343 280.93 202.939 279.86C202.603 278.968 202.519 278.083 202.688 277.204C202.857 276.325 203.272 275.511 203.934 274.761C204.586 274.034 205.504 273.447 206.688 273L211.676 271.12ZM213.208 270.542L219.574 287.427L217.287 288.289L210.922 271.405L213.208 270.542Z" fill="white"/>
<path d="M196.807 276.601C197.779 276.345 198.716 276.331 199.619 276.56C200.509 276.809 201.276 277.271 201.919 277.944C202.562 278.617 203.021 279.473 203.295 280.512L205.122 287.451L202.859 288.047L201.058 281.208C200.886 280.555 200.627 280.014 200.281 279.585C199.923 279.177 199.493 278.905 198.991 278.769C198.489 278.632 197.944 278.641 197.358 278.795C196.469 279.029 195.846 279.489 195.489 280.175C195.137 280.877 195.09 281.723 195.351 282.712L197.152 289.55L194.889 290.146L193.061 283.207C192.788 282.168 192.765 281.197 192.993 280.294C193.222 279.392 193.662 278.612 194.314 277.957C194.953 277.322 195.784 276.871 196.807 276.601Z" fill="white"/>
<path d="M185.257 280.048L192.466 291.53L189.897 291.93L184.466 282.908L185.288 282.78L182.652 293.058L180.083 293.458L183.87 280.264L185.257 280.048ZM187.971 274.494L185.522 282.428L183.87 280.264L185.402 274.894L187.971 274.494Z" fill="white"/>
<path d="M143.575 277.157L143.247 279.264L137.852 278.424C136.824 278.264 135.973 278.438 135.297 278.947C134.619 279.473 134.213 280.164 134.08 281.02C133.989 281.602 134.036 282.145 134.221 282.647C134.403 283.167 134.721 283.602 135.175 283.954C135.612 284.302 136.156 284.527 136.807 284.629L142.279 285.481L141.951 287.588L136.838 286.791C135.982 286.658 135.271 286.775 134.705 287.143C134.119 287.526 133.759 288.145 133.626 289.001C133.493 289.858 133.657 290.55 134.118 291.078C134.577 291.623 135.243 291.964 136.117 292.1L141.126 292.88L140.798 294.986L135.737 294.198C134.573 294.017 133.638 293.652 132.934 293.104C132.211 292.57 131.705 291.93 131.418 291.183C131.113 290.434 131.025 289.649 131.153 288.827C131.303 287.868 131.699 287.07 132.342 286.433C132.968 285.794 133.818 285.347 134.892 285.094L134.567 285.832C133.483 285.243 132.69 284.479 132.187 283.541C131.664 282.617 131.491 281.59 131.667 280.46C131.814 279.518 132.177 278.706 132.757 278.025C133.337 277.343 134.099 276.839 135.045 276.513C135.97 276.201 137.058 276.142 138.309 276.337L143.575 277.157ZM145.194 277.409L142.417 295.238L140.002 294.862L142.779 277.033L145.194 277.409Z" fill="white"/>
<path d="M127.205 274.411C128.395 274.725 129.397 275.275 130.211 276.063C131.021 276.868 131.579 277.813 131.885 278.897C132.191 279.981 132.187 281.118 131.874 282.309C131.565 283.482 131.019 284.467 130.235 285.265C129.435 286.058 128.503 286.601 127.44 286.895C126.355 287.2 125.235 287.201 124.078 286.897C122.972 286.605 122.066 286.098 121.36 285.374C120.638 284.646 120.159 283.776 119.924 282.764C119.672 281.748 119.693 280.678 119.989 279.555C120.033 279.387 120.09 279.205 120.16 279.009C120.225 278.829 120.316 278.62 120.433 278.381L130.515 281.037L130.018 282.922L121.143 280.585L122.165 280.074C121.953 280.879 121.916 281.595 122.056 282.223C122.191 282.868 122.478 283.41 122.918 283.849C123.354 284.304 123.941 284.629 124.678 284.823C125.449 285.026 126.172 285.037 126.847 284.856C127.522 284.676 128.098 284.326 128.576 283.806C129.053 283.286 129.4 282.616 129.616 281.795C129.837 280.957 129.864 280.175 129.696 279.45C129.524 278.741 129.174 278.129 128.647 277.614C128.115 277.115 127.447 276.76 126.642 276.548C125.972 276.372 125.329 276.328 124.714 276.417C124.082 276.502 123.504 276.726 122.978 277.089L121.91 275.221C122.657 274.701 123.495 274.375 124.426 274.244C125.34 274.108 126.266 274.164 127.205 274.411Z" fill="white"/>
<path d="M115.121 271.347C116.175 271.744 117.034 272.364 117.698 273.207C118.356 274.067 118.765 275.045 118.926 276.143C119.07 277.235 118.928 278.348 118.5 279.484C118.072 280.619 117.443 281.549 116.615 282.274C115.769 282.993 114.824 283.461 113.779 283.678C112.718 283.889 111.652 283.793 110.581 283.389C109.705 283.059 108.997 282.579 108.457 281.949C107.894 281.329 107.524 280.616 107.347 279.808C107.163 279.016 107.206 278.19 107.476 277.328L108.787 273.849C109.148 273.04 109.661 272.391 110.327 271.901C110.977 271.405 111.721 271.102 112.559 270.992C113.375 270.892 114.229 271.01 115.121 271.347ZM113.977 273.277C112.89 272.867 111.877 272.902 110.936 273.381C109.99 273.877 109.3 274.7 108.866 275.852C108.566 276.646 108.46 277.394 108.549 278.094C108.614 278.804 108.862 279.425 109.291 279.957C109.714 280.506 110.29 280.918 111.02 281.193C111.75 281.468 112.463 281.542 113.159 281.416C113.839 281.283 114.454 280.978 115.005 280.5C115.533 280.032 115.941 279.417 116.228 278.655C116.522 277.876 116.628 277.129 116.546 276.413C116.441 275.707 116.17 275.076 115.73 274.522C115.291 273.967 114.706 273.552 113.977 273.277ZM111.185 270.141L110.012 273.255L108.534 275.921L107.893 278.875L106.829 281.697L104.615 280.862L108.972 269.306L111.185 270.141Z" fill="white"/>
<path d="M103.234 267.018C104.134 267.468 104.847 268.076 105.374 268.844C105.878 269.619 106.15 270.471 106.188 271.402C106.227 272.332 106.006 273.278 105.526 274.239L102.318 280.658L100.225 279.611L103.386 273.286C103.689 272.681 103.851 272.103 103.875 271.553C103.874 271.01 103.731 270.522 103.444 270.088C103.157 269.654 102.742 269.301 102.2 269.03C101.378 268.619 100.607 268.554 99.8859 268.833C99.1573 269.127 98.5644 269.732 98.1072 270.647L94.9453 276.973L92.8522 275.927L96.0606 269.508C96.541 268.546 97.1649 267.802 97.9323 267.275C98.6996 266.748 99.5445 266.453 100.467 266.391C101.366 266.337 102.289 266.546 103.234 267.018Z" fill="white"/>
<path d="M94.0487 263.229L84.6437 278.016L82.6692 276.76L92.0743 261.973L94.0487 263.229ZM91.1315 273.484L89.9873 275.282L82.8793 270.761L84.0236 268.962L91.1315 273.484Z" fill="white"/>
<path d="M84.3204 257.811L76.6559 267.495L74.8211 266.043L82.4856 256.359L84.3204 257.811ZM74.2056 268.706C74.5454 268.975 74.7379 269.304 74.7833 269.694C74.8179 270.097 74.7007 270.468 74.4318 270.808C74.1736 271.134 73.8497 271.32 73.4602 271.365C73.0598 271.424 72.6898 271.319 72.35 271.05C72.0102 270.781 71.823 270.445 71.7884 270.042C71.7431 269.653 71.8495 269.295 72.1076 268.969C72.3766 268.629 72.7112 268.429 73.1115 268.371C73.5011 268.325 73.8658 268.437 74.2056 268.706Z" fill="white"/>
<path d="M72.4855 249.044L62.5774 259.211C61.9363 259.869 61.237 260.301 60.4797 260.506C59.7103 260.725 58.9382 260.735 58.1634 260.536C57.3762 260.326 56.6475 259.894 55.9771 259.241C55.4682 258.745 55.1122 258.228 54.9092 257.692C54.7061 257.155 54.6128 256.568 54.6291 255.93L56.7802 255.921C56.7722 256.252 56.8251 256.558 56.9391 256.838C57.0409 257.131 57.2346 257.416 57.5201 257.695C58.0538 258.215 58.6209 258.465 59.2213 258.445C59.8092 258.413 60.3693 258.124 60.9016 257.578L70.8097 247.411L72.4855 249.044ZM67.5324 258.485L66.0444 260.012L59.3784 253.515L60.8665 251.989L67.5324 258.485Z" fill="white"/>
<path d="M61.4759 238.499L55.3437 250.59L53.6782 248.593L58.6168 239.293L59.1497 239.932L48.9814 242.963L47.3158 240.967L60.5765 237.421L61.4759 238.499ZM67.6342 237.967L59.5725 239.952L60.5765 237.421L65.9687 235.97L67.6342 237.967Z" fill="white"/>
<path d="M39.9266 208.652L37.9517 209.455L35.8948 204.397C35.503 203.434 34.9151 202.794 34.1311 202.476C33.331 202.165 32.5296 202.173 31.7268 202.5C31.1809 202.722 30.7401 203.041 30.4046 203.458C30.0529 203.882 29.8434 204.379 29.7758 204.949C29.7018 205.503 29.7888 206.085 30.0369 206.695L32.1233 211.825L30.1483 212.629L28.1991 207.836C27.8726 207.033 27.406 206.484 26.7992 206.188C26.1697 205.882 25.4536 205.893 24.6508 206.219C23.848 206.546 23.3391 207.043 23.124 207.71C22.8929 208.384 22.9439 209.131 23.2769 209.95L25.1869 214.646L23.212 215.449L21.2824 210.705C20.8384 209.613 20.6701 208.624 20.7777 207.738C20.8627 206.843 21.1512 206.08 21.6433 205.45C22.1288 204.803 22.7569 204.323 23.5276 204.01C24.4268 203.644 25.3147 203.573 26.1915 203.796C27.0618 204.004 27.8822 204.503 28.6528 205.294L27.852 205.395C27.7998 204.162 28.0463 203.089 28.5914 202.175C29.114 201.251 29.9051 200.574 30.9649 200.143C31.848 199.784 32.7309 199.677 33.6137 199.824C34.4965 199.97 35.3211 200.364 36.0877 201.007C36.8316 201.64 37.442 202.542 37.9187 203.714L39.9266 208.652ZM40.5437 210.169L23.8291 216.967L22.9084 214.703L39.623 207.905L40.5437 210.169Z" fill="white"/>
<path d="M33.8756 193.279C34.2147 194.444 34.2453 195.572 33.9674 196.664C33.6895 197.756 33.1644 198.712 32.3923 199.533C31.6036 200.358 30.6267 200.94 29.4617 201.279C28.3134 201.614 27.2016 201.639 26.1264 201.357C25.0345 201.079 24.0784 200.554 23.2579 199.782C22.4374 199.009 21.8576 198.041 21.5185 196.876C21.1842 195.728 21.156 194.607 21.4339 193.516C21.6904 192.412 22.2046 191.45 22.9768 190.629C23.7489 189.809 24.7091 189.231 25.8575 188.897C27.0224 188.558 28.1592 188.525 29.2677 188.798C30.3595 189.076 31.3181 189.609 32.1434 190.398C32.9639 191.17 33.5413 192.131 33.8756 193.279ZM31.7037 193.911C31.4857 193.162 31.1172 192.547 30.5982 192.067C30.0791 191.586 29.4716 191.266 28.7755 191.108C28.0629 190.954 27.3155 190.991 26.5332 191.219C25.7677 191.442 25.1362 191.815 24.6388 192.339C24.1366 192.846 23.8038 193.44 23.6405 194.119C23.4557 194.786 23.4723 195.495 23.6903 196.244C23.9083 196.993 24.2768 197.607 24.7959 198.088C25.2983 198.574 25.8975 198.896 26.5935 199.054C27.2896 199.213 28.0203 199.181 28.7859 198.958C29.5681 198.73 30.2187 198.36 30.7375 197.848C31.2398 197.341 31.5809 196.745 31.7608 196.061C31.9408 195.377 31.9217 194.66 31.7037 193.911Z" fill="white"/>
<path d="M30.1904 180.883C30.408 182.077 30.3224 183.202 29.9337 184.26C29.545 185.317 28.9244 186.214 28.072 186.951C27.2026 187.691 26.171 188.17 24.9773 188.387C23.8007 188.602 22.6922 188.513 21.6517 188.121C20.5943 187.732 19.6971 187.112 18.9604 186.259C18.2236 185.407 17.7465 184.384 17.529 183.19C17.3145 182.014 17.4017 180.897 17.7904 179.839C18.1589 178.768 18.7694 177.864 19.6218 177.127C20.4742 176.39 21.4887 175.914 22.6653 175.7C23.859 175.483 24.9931 175.567 26.0676 175.952C27.1251 176.341 28.0238 176.97 28.7637 177.839C29.5004 178.692 29.976 179.706 30.1904 180.883ZM27.9651 181.288C27.8252 180.521 27.5219 179.872 27.055 179.34C26.5882 178.808 26.0167 178.428 25.3407 178.199C24.6476 177.973 23.9003 177.933 23.0988 178.079C22.3144 178.222 21.6479 178.528 21.0993 178.998C20.5475 179.451 20.1555 180.007 19.9232 180.666C19.6708 181.311 19.6145 182.017 19.7543 182.785C19.8941 183.552 20.1975 184.202 20.6644 184.733C21.1142 185.268 21.6771 185.65 22.3531 185.879C23.0292 186.108 23.7594 186.151 24.5438 186.008C25.3453 185.862 26.0304 185.561 26.5992 185.105C27.151 184.652 27.5515 184.095 27.8008 183.433C28.0502 182.771 28.1049 182.056 27.9651 181.288Z" fill="white"/>
<path d="M27.3656 165.939L21.5119 172.181L15.0564 166.944L14.8377 164.118L21.9655 169.955L20.6095 169.956L27.1328 162.932L27.3656 165.939ZM27.9756 173.819L9.46694 175.252L9.28634 172.919L27.795 171.486L27.9756 173.819Z" fill="white"/>
<path d="M29.1856 160.863L26.1341 159.172L25.9476 158.335C26.136 158.427 26.289 158.543 26.4067 158.685C26.5249 158.809 26.5815 158.967 26.5766 159.158C26.5672 159.521 26.4113 159.855 26.1087 160.16C25.7892 160.446 25.4042 160.584 24.9537 160.572C24.4512 160.559 24.0395 160.384 23.7188 160.046C23.3807 159.708 23.2181 159.288 23.2311 158.785C23.2427 158.335 23.4262 157.941 23.7817 157.603C24.1199 157.265 24.5402 157.102 25.0427 157.115C25.2333 157.12 25.4661 157.17 25.7411 157.263C25.9992 157.339 26.3333 157.495 26.7434 157.731L29.9481 159.53L29.1856 160.863Z" fill="white"/>
<path d="M27.4975 132.955L25.4225 132.465L26.6766 127.151C26.9154 126.139 26.8073 125.276 26.3522 124.563C25.8803 123.846 25.2226 123.388 24.3791 123.189C23.8055 123.054 23.2611 123.059 22.7459 123.205C22.2138 123.346 21.7551 123.63 21.3697 124.055C20.9883 124.464 20.722 124.989 20.5707 125.63L19.2987 131.02L17.2237 130.53L18.4121 125.494C18.6111 124.651 18.5491 123.933 18.2259 123.34C17.8899 122.726 17.3001 122.32 16.4566 122.121C15.6131 121.922 14.9104 122.032 14.3483 122.452C13.7694 122.867 13.3784 123.505 13.1754 124.365L12.0109 129.3L9.93587 128.81L11.1123 123.825C11.3831 122.678 11.8189 121.775 12.4198 121.115C13.0078 120.435 13.685 119.98 14.4514 119.751C15.2217 119.506 16.0117 119.478 16.8215 119.669C17.7662 119.892 18.5311 120.349 19.1163 121.039C19.7054 121.712 20.0849 122.594 20.2549 123.685L19.5435 123.304C20.2151 122.269 21.0379 121.537 22.0118 121.108C22.9729 120.658 24.0101 120.564 25.1235 120.827C26.0514 121.046 26.8327 121.471 27.4675 122.102C28.1023 122.732 28.5459 123.532 28.7983 124.499C29.0379 125.446 29.0123 126.536 28.7217 127.767L27.4975 132.955ZM27.1212 134.549L9.55965 130.404L10.121 128.026L27.6826 132.17L27.1212 134.549Z" fill="white"/>
<path d="M31.2513 117.558C30.921 118.507 30.4092 119.293 29.7159 119.914C29.0119 120.513 28.2012 120.892 27.2836 121.05C26.3661 121.208 25.3999 121.11 24.3849 120.757L17.6072 118.4L18.376 116.19L25.0554 118.513C25.6939 118.735 26.2875 118.822 26.8363 118.775C27.3745 118.705 27.8403 118.5 28.234 118.16C28.6276 117.82 28.9241 117.363 29.1234 116.79C29.4252 115.922 29.3914 115.149 29.022 114.47C28.6362 113.785 27.9604 113.275 26.9945 112.939L20.3151 110.615L21.0838 108.405L27.8615 110.763C28.8765 111.116 29.6947 111.639 30.3161 112.332C30.9375 113.026 31.3382 113.826 31.5183 114.733C31.6876 115.617 31.5986 116.559 31.2513 117.558Z" fill="white"/>
<path d="M34.8388 106.051L21.2887 105.623L22.3909 103.268L32.9078 103.798L32.5551 104.552L25.499 96.6274L26.6012 94.2725L35.434 104.78L34.8388 106.051ZM37.9317 111.403L32.7164 104.943L35.434 104.78L39.0339 109.048L37.9317 111.403Z" fill="white"/>
<path d="M143.575 277.157L143.247 279.264L137.852 278.424C136.824 278.264 135.973 278.438 135.297 278.947C134.619 279.473 134.213 280.164 134.08 281.02C133.989 281.602 134.036 282.145 134.221 282.647C134.403 283.167 134.721 283.602 135.175 283.954C135.612 284.302 136.156 284.527 136.807 284.629L142.279 285.481L141.951 287.588L136.838 286.791C135.982 286.658 135.271 286.775 134.705 287.143C134.119 287.526 133.759 288.145 133.626 289.001C133.493 289.858 133.657 290.55 134.118 291.078C134.577 291.623 135.243 291.964 136.117 292.1L141.126 292.88L140.798 294.986L135.737 294.198C134.573 294.017 133.638 293.652 132.934 293.104C132.211 292.57 131.705 291.93 131.418 291.183C131.113 290.434 131.025 289.649 131.153 288.827C131.303 287.868 131.699 287.07 132.342 286.433C132.968 285.794 133.818 285.347 134.892 285.094L134.567 285.832C133.483 285.243 132.69 284.479 132.187 283.541C131.664 282.617 131.491 281.59 131.667 280.46C131.814 279.518 132.177 278.706 132.757 278.025C133.337 277.343 134.099 276.839 135.045 276.513C135.97 276.201 137.058 276.142 138.309 276.337L143.575 277.157ZM145.194 277.409L142.417 295.238L140.002 294.862L142.779 277.033L145.194 277.409Z" fill="white"/>
<path d="M47.6897 78.9129L46.1251 77.4647L49.8339 73.4577C50.5404 72.6944 50.8711 71.8905 50.8262 71.0459C50.7686 70.1896 50.4218 69.467 49.7857 68.8783C49.3532 68.478 48.8769 68.2143 48.3569 68.0872C47.8241 67.9483 47.2852 67.9692 46.7402 68.1497C46.207 68.3175 45.7167 68.6431 45.2693 69.1265L41.5075 73.1907L39.9428 71.7425L43.4574 67.9454C44.0461 67.3093 44.3458 66.6538 44.3565 65.9788C44.3663 65.2793 44.0531 64.6352 43.4171 64.0465C42.7811 63.4578 42.1152 63.2075 41.4195 63.2957C40.711 63.3722 40.0565 63.7348 39.4561 64.3835L36.0121 68.1043L34.4475 66.6561L37.9267 62.8971C38.7274 62.0321 39.5516 61.4606 40.3995 61.1825C41.2464 60.8799 42.0596 60.8178 42.8393 60.9962C43.6307 61.1619 44.3317 61.5273 44.9423 62.0925C45.6546 62.7518 46.0954 63.5259 46.2647 64.4148C46.4458 65.2909 46.3416 66.2455 45.9522 67.2786L45.5211 66.5961C46.6152 66.0264 47.6918 65.7947 48.7508 65.901C49.8088 65.9827 50.7575 66.4122 51.5971 67.1893C52.2967 67.8368 52.7675 68.5914 53.0093 69.4529C53.2511 70.3144 53.2435 71.2285 52.9865 72.1952C52.7285 73.1373 52.1698 74.0727 51.3103 75.0013L47.6897 78.9129ZM46.5771 80.115L33.3349 67.8582L34.995 66.0646L48.2372 78.3214L46.5771 80.115Z" fill="white"/>
<path d="M127.205 274.411C128.395 274.725 129.397 275.275 130.211 276.063C131.021 276.868 131.579 277.813 131.885 278.897C132.191 279.981 132.187 281.118 131.874 282.309C131.565 283.482 131.019 284.467 130.235 285.265C129.435 286.058 128.503 286.601 127.44 286.895C126.355 287.2 125.235 287.201 124.078 286.897C122.972 286.605 122.066 286.098 121.36 285.374C120.638 284.646 120.159 283.776 119.924 282.764C119.672 281.748 119.693 280.678 119.989 279.555C120.033 279.387 120.09 279.205 120.16 279.009C120.225 278.829 120.316 278.62 120.433 278.381L130.515 281.037L130.018 282.922L121.143 280.585L122.165 280.074C121.953 280.879 121.916 281.595 122.056 282.223C122.191 282.868 122.478 283.41 122.918 283.849C123.354 284.304 123.941 284.629 124.678 284.823C125.449 285.026 126.172 285.037 126.847 284.856C127.522 284.676 128.098 284.326 128.576 283.806C129.053 283.286 129.4 282.616 129.616 281.795C129.837 280.957 129.864 280.175 129.696 279.45C129.524 278.741 129.174 278.129 128.647 277.614C128.115 277.115 127.447 276.76 126.642 276.548C125.972 276.372 125.329 276.328 124.714 276.417C124.082 276.502 123.504 276.726 122.978 277.089L121.91 275.221C122.657 274.701 123.495 274.375 124.426 274.244C125.34 274.108 126.266 274.164 127.205 274.411Z" fill="white"/>
<path d="M61.1063 63.8642C60.1819 64.6767 59.1656 65.2007 58.0573 65.4363C56.9376 65.6589 55.8425 65.5944 54.7721 65.2429C53.7016 64.8914 52.7602 64.2535 51.9478 63.3291C51.1468 62.4177 50.6342 61.4144 50.41 60.3191C50.1989 59.2124 50.2683 58.1361 50.6182 57.0901C50.9697 56.0197 51.5946 55.0897 52.493 54.3001C53.3523 53.5449 54.2791 53.0766 55.2733 52.895C56.2806 52.702 57.2697 52.7904 58.2407 53.16C59.2248 53.5182 60.1001 54.1335 60.8668 55.0058C60.9812 55.136 61.1006 55.2849 61.2249 55.4526C61.3377 55.6073 61.4604 55.7994 61.593 56.029L53.7617 62.9118L52.4744 61.4471L59.3683 55.3882L59.2216 56.5209C58.6723 55.896 58.0982 55.466 57.4993 55.2308C56.8889 54.9827 56.2789 54.9188 55.6694 55.0392C55.0483 55.1465 54.4514 55.4519 53.8785 55.9554C53.2796 56.4818 52.8668 57.0754 52.6399 57.7363C52.4131 58.3972 52.382 59.0707 52.5465 59.7568C52.7111 60.4429 53.0737 61.1049 53.6344 61.7429C54.2065 62.3939 54.8402 62.8523 55.5354 63.1182C56.2192 63.3711 56.9221 63.4225 57.6441 63.2726C58.3547 63.1096 59.0224 62.7535 59.6474 62.2042C60.1682 61.7465 60.5633 61.2377 60.8327 60.6779C61.1152 60.1065 61.2525 59.5013 61.2446 58.8621L63.3899 59.0188C63.405 59.9287 63.2071 60.8064 62.7965 61.6519C62.3988 62.486 61.8354 63.2234 61.1063 63.8642Z" fill="white"/>
<path d="M115.121 271.347C116.175 271.744 117.034 272.364 117.698 273.207C118.356 274.067 118.765 275.045 118.926 276.143C119.07 277.235 118.928 278.348 118.5 279.484C118.072 280.619 117.443 281.549 116.615 282.274C115.769 282.993 114.824 283.461 113.779 283.678C112.718 283.889 111.652 283.793 110.581 283.389C109.705 283.059 108.997 282.579 108.457 281.949C107.894 281.329 107.524 280.616 107.347 279.808C107.163 279.016 107.206 278.19 107.476 277.328L108.787 273.849C109.148 273.04 109.661 272.391 110.327 271.901C110.977 271.405 111.721 271.102 112.559 270.992C113.375 270.892 114.229 271.01 115.121 271.347ZM113.977 273.277C112.89 272.867 111.877 272.902 110.936 273.381C109.99 273.877 109.3 274.7 108.866 275.852C108.566 276.646 108.46 277.394 108.549 278.094C108.614 278.804 108.862 279.425 109.291 279.957C109.714 280.506 110.29 280.918 111.02 281.193C111.75 281.468 112.463 281.542 113.159 281.416C113.839 281.283 114.454 280.978 115.005 280.5C115.533 280.032 115.941 279.417 116.228 278.655C116.522 277.876 116.628 277.129 116.546 276.413C116.441 275.707 116.17 275.076 115.73 274.522C115.291 273.967 114.706 273.552 113.977 273.277ZM111.185 270.141L110.012 273.255L108.534 275.921L107.893 278.875L106.829 281.697L104.615 280.862L108.972 269.306L111.185 270.141Z" fill="white"/>
<path d="M71.3947 54.5493C70.4765 55.2021 69.4823 55.5687 68.4121 55.6489C67.332 55.715 66.2917 55.5081 65.2913 55.0284C64.3051 54.5385 63.4605 53.7992 62.7574 52.8103C62.0544 51.8214 61.6336 50.7807 61.495 49.6883C61.3705 48.5858 61.5098 47.5404 61.913 46.5519C62.3303 45.5534 63.0052 44.7228 63.9376 44.0599C64.7004 43.5176 65.494 43.198 66.3184 43.1011C67.1468 42.98 67.9455 43.0714 68.7146 43.3754C69.4736 43.6652 70.1354 44.1624 70.7 44.8669L72.8543 47.8971C73.3241 48.6478 73.5762 49.4362 73.6107 50.2624C73.6592 51.0786 73.4953 51.865 73.1188 52.6218C72.7464 53.3544 72.1717 53.9969 71.3947 54.5493ZM70.4321 52.5221C71.3786 51.8492 71.9155 50.989 72.0427 49.9415C72.16 48.8799 71.862 47.8476 71.149 46.8446C70.6568 46.1523 70.0958 45.6473 69.4658 45.3296C68.8399 44.9877 68.1864 44.8462 67.5052 44.9051C66.814 44.9499 66.1505 45.1983 65.5148 45.6502C64.879 46.1022 64.4194 46.6522 64.1359 47.3004C63.8664 47.9386 63.7763 48.6194 63.8653 49.343C63.9585 50.0424 64.2411 50.7241 64.7131 51.388C65.1952 52.0661 65.7562 52.5711 66.3962 52.903C67.0403 53.2107 67.7151 53.3372 68.4204 53.2823C69.1258 53.2275 69.7963 52.9741 70.4321 52.5221ZM74.5922 51.9572L72.6639 49.2447L71.2766 46.5305L69.1839 44.3497L67.4364 41.8915L69.3647 40.5206L76.5206 50.5862L74.5922 51.9572Z" fill="white"/>
<path d="M103.234 267.018C104.134 267.468 104.847 268.076 105.374 268.844C105.878 269.619 106.15 270.471 106.188 271.402C106.227 272.332 106.006 273.278 105.526 274.239L102.318 280.658L100.225 279.611L103.386 273.286C103.689 272.681 103.851 272.103 103.875 271.553C103.874 271.01 103.731 270.522 103.444 270.088C103.157 269.654 102.742 269.301 102.2 269.03C101.378 268.619 100.607 268.554 99.8859 268.833C99.1573 269.127 98.5644 269.732 98.1072 270.647L94.9453 276.973L92.8522 275.927L96.0606 269.508C96.541 268.546 97.1649 267.802 97.9323 267.275C98.6996 266.748 99.5445 266.453 100.467 266.391C101.366 266.337 102.289 266.546 103.234 267.018Z" fill="white"/>
<path d="M84.6216 47.1031C83.7467 47.5983 82.8438 47.8504 81.9128 47.8595C80.9884 47.8449 80.1294 47.5941 79.336 47.1071C78.5425 46.6201 77.8811 45.9089 77.3518 44.9737L73.8172 38.7285L75.8537 37.5759L79.337 43.7306C79.67 44.3189 80.0583 44.7763 80.502 45.1028C80.9522 45.4056 81.4375 45.5592 81.9577 45.5635C82.478 45.5678 83.0021 45.4206 83.5301 45.1217C84.3296 44.6693 84.8148 44.066 84.9856 43.3121C85.1479 42.5431 84.9771 41.7136 84.4734 40.8236L80.9901 34.6689L83.0266 33.5164L86.5611 39.7615C87.0904 40.6968 87.3596 41.6299 87.3687 42.5609C87.3777 43.4918 87.1506 44.3573 86.6872 45.1574C86.2303 45.9338 85.5418 46.5823 84.6216 47.1031Z" fill="white"/>
<path d="M94.0487 263.229L84.6437 278.016L82.6692 276.76L92.0743 261.973L94.0487 263.229ZM91.1315 273.484L89.9873 275.282L82.8793 270.761L84.0236 268.962L91.1315 273.484Z" fill="white"/>
<path d="M93.8923 41.5976L86.8748 25.54L89.0189 24.603L96.0365 40.6605L93.8923 41.5976ZM87.013 33.4528L86.1593 31.4992L93.8783 28.1258L94.7321 30.0794L87.013 33.4528Z" fill="white"/>
<path d="M84.3204 257.811L76.6559 267.495L74.8211 266.043L82.4856 256.359L84.3204 257.811ZM74.2056 268.706C74.5454 268.975 74.7379 269.304 74.7833 269.694C74.8179 270.097 74.7007 270.468 74.4318 270.808C74.1736 271.134 73.8497 271.32 73.4602 271.365C73.0598 271.424 72.6898 271.319 72.35 271.05C72.0102 270.781 71.823 270.445 71.7884 270.042C71.7431 269.653 71.8495 269.295 72.1076 268.969C72.3766 268.629 72.7112 268.429 73.1115 268.371C73.5011 268.325 73.8658 268.437 74.2056 268.706Z" fill="white"/>
<path d="M102.818 37.5505L99.0626 25.7855L101.292 25.0738L105.048 36.8389L102.818 37.5505ZM99.426 23.0766C99.0132 23.2084 98.6325 23.1844 98.284 23.0045C97.9302 22.8082 97.6874 22.5036 97.5556 22.0908C97.4291 21.6945 97.4558 21.3221 97.6356 20.9735C97.8102 20.6085 98.1039 20.3601 98.5167 20.2283C98.9295 20.0965 99.3128 20.1288 99.6667 20.3251C100.015 20.505 100.253 20.7931 100.379 21.1894C100.511 21.6022 100.49 21.9911 100.315 22.3562C100.135 22.7047 99.8388 22.9449 99.426 23.0766Z" fill="white"/>
<path d="M72.4855 249.044L62.5774 259.211C61.9363 259.869 61.237 260.301 60.4797 260.506C59.7103 260.725 58.9382 260.735 58.1634 260.536C57.3762 260.326 56.6475 259.894 55.9771 259.241C55.4682 258.745 55.1122 258.228 54.9092 257.692C54.7061 257.155 54.6128 256.568 54.6291 255.93L56.7802 255.921C56.7722 256.252 56.8251 256.558 56.9391 256.838C57.0409 257.131 57.2346 257.416 57.5201 257.695C58.0538 258.215 58.6209 258.465 59.2213 258.445C59.8092 258.413 60.3693 258.124 60.9016 257.578L70.8097 247.411L72.4855 249.044ZM67.5324 258.485L66.0444 260.012L59.3784 253.515L60.8665 251.989L67.5324 258.485Z" fill="white"/>
<path d="M112.7 32.6252L109.796 18.7294C109.608 17.8301 109.64 17.0089 109.892 16.2656C110.141 15.5054 110.563 14.8592 111.16 14.3272C111.775 13.7916 112.54 13.4281 113.456 13.2366C114.152 13.0912 114.779 13.0841 115.337 13.2153C115.896 13.3465 116.435 13.5968 116.955 13.9662L115.762 15.7561C115.492 15.5647 115.209 15.438 114.912 15.3759C114.612 15.2969 114.267 15.2982 113.877 15.3797C113.148 15.5322 112.624 15.8631 112.305 16.3723C112.003 16.878 111.931 17.5042 112.087 18.2507L114.99 32.1465L112.7 32.6252ZM107.632 23.2455L107.196 21.1586L116.307 19.2546L116.743 21.3415L107.632 23.2455Z" fill="white"/>
<path d="M61.4759 238.499L55.3437 250.59L53.6782 248.593L58.6168 239.293L59.1497 239.932L48.9814 242.963L47.3158 240.967L60.5765 237.421L61.4759 238.499ZM67.6342 237.967L59.5725 239.952L60.5765 237.421L65.9687 235.97L67.6342 237.967Z" fill="white"/>
<path d="M127.594 29.3777L120.986 17.5405L123.572 17.2731L128.532 26.5624L127.704 26.648L130.866 16.5192L133.452 16.2519L128.991 29.2334L127.594 29.3777ZM124.598 34.7845L127.452 26.9877L128.991 29.2334L127.185 34.5171L124.598 34.7845Z" fill="white"/>
<path d="M39.9266 208.652L37.9517 209.455L35.8948 204.397C35.503 203.434 34.9151 202.794 34.1311 202.476C33.331 202.165 32.5296 202.173 31.7268 202.5C31.1809 202.722 30.7401 203.041 30.4046 203.458C30.0529 203.882 29.8434 204.379 29.7758 204.949C29.7018 205.503 29.7888 206.085 30.0369 206.695L32.1233 211.825L30.1483 212.629L28.1991 207.836C27.8726 207.033 27.406 206.484 26.7992 206.188C26.1697 205.882 25.4536 205.893 24.6508 206.219C23.848 206.546 23.3391 207.043 23.124 207.71C22.8929 208.384 22.9439 209.131 23.2769 209.95L25.1869 214.646L23.212 215.449L21.2824 210.705C20.8384 209.613 20.6701 208.624 20.7777 207.738C20.8627 206.843 21.1512 206.08 21.6433 205.45C22.1288 204.803 22.7569 204.323 23.5276 204.01C24.4268 203.644 25.3147 203.573 26.1915 203.796C27.0618 204.004 27.8822 204.503 28.6528 205.294L27.852 205.395C27.7998 204.162 28.0463 203.089 28.5914 202.175C29.114 201.251 29.9051 200.574 30.9649 200.143C31.848 199.784 32.7309 199.677 33.6137 199.824C34.4965 199.97 35.3211 200.364 36.0877 201.007C36.8316 201.64 37.442 202.542 37.9187 203.714L39.9266 208.652ZM40.5437 210.169L23.8291 216.967L22.9084 214.703L39.623 207.905L40.5437 210.169Z" fill="white"/>
<path d="M33.8756 193.279C34.2147 194.444 34.2453 195.572 33.9674 196.664C33.6895 197.756 33.1644 198.712 32.3923 199.533C31.6036 200.358 30.6267 200.94 29.4617 201.279C28.3134 201.614 27.2016 201.639 26.1264 201.357C25.0345 201.079 24.0784 200.554 23.2579 199.782C22.4374 199.009 21.8576 198.041 21.5185 196.876C21.1842 195.728 21.156 194.607 21.4339 193.516C21.6904 192.412 22.2046 191.45 22.9768 190.629C23.7489 189.809 24.7091 189.231 25.8575 188.897C27.0224 188.558 28.1592 188.525 29.2677 188.798C30.3595 189.076 31.3181 189.609 32.1434 190.398C32.9639 191.17 33.5413 192.131 33.8756 193.279ZM31.7037 193.911C31.4857 193.162 31.1172 192.547 30.5982 192.067C30.0791 191.586 29.4716 191.266 28.7755 191.108C28.0629 190.954 27.3155 190.991 26.5332 191.219C25.7677 191.442 25.1362 191.815 24.6388 192.339C24.1366 192.846 23.8038 193.44 23.6405 194.119C23.4557 194.786 23.4723 195.495 23.6903 196.244C23.9083 196.993 24.2768 197.607 24.7959 198.088C25.2983 198.574 25.8975 198.896 26.5935 199.054C27.2896 199.213 28.0203 199.181 28.7859 198.958C29.5681 198.73 30.2187 198.36 30.7375 197.848C31.2398 197.341 31.5809 196.745 31.7608 196.061C31.9408 195.377 31.9217 194.66 31.7037 193.911Z" fill="white"/>
<path d="M30.1904 180.883C30.408 182.077 30.3224 183.202 29.9337 184.26C29.545 185.317 28.9244 186.214 28.072 186.951C27.2026 187.691 26.171 188.17 24.9773 188.387C23.8007 188.602 22.6922 188.513 21.6517 188.121C20.5943 187.732 19.6971 187.112 18.9604 186.259C18.2236 185.407 17.7465 184.384 17.529 183.19C17.3145 182.014 17.4017 180.897 17.7904 179.839C18.1589 178.768 18.7694 177.864 19.6218 177.127C20.4742 176.39 21.4887 175.914 22.6653 175.7C23.859 175.483 24.9931 175.567 26.0676 175.952C27.1251 176.341 28.0238 176.97 28.7637 177.839C29.5004 178.692 29.976 179.706 30.1904 180.883ZM27.9651 181.288C27.8252 180.521 27.5219 179.872 27.055 179.34C26.5882 178.808 26.0167 178.428 25.3407 178.199C24.6476 177.973 23.9003 177.933 23.0988 178.079C22.3144 178.222 21.6479 178.528 21.0993 178.998C20.5475 179.451 20.1555 180.007 19.9232 180.666C19.6708 181.311 19.6145 182.017 19.7543 182.785C19.8941 183.552 20.1975 184.202 20.6644 184.733C21.1142 185.268 21.6771 185.65 22.3531 185.879C23.0292 186.108 23.7594 186.151 24.5438 186.008C25.3453 185.862 26.0304 185.561 26.5992 185.105C27.151 184.652 27.5515 184.095 27.8008 183.433C28.0502 182.771 28.1049 182.056 27.9651 181.288Z" fill="white"/>
<path d="M27.3656 165.939L21.5119 172.181L15.0564 166.944L14.8377 164.118L21.9655 169.955L20.6095 169.956L27.1328 162.932L27.3656 165.939ZM27.9756 173.819L9.46694 175.252L9.28634 172.919L27.795 171.486L27.9756 173.819Z" fill="white"/>
<path d="M29.1856 160.863L26.1341 159.172L25.9476 158.335C26.136 158.427 26.289 158.543 26.4067 158.685C26.5249 158.809 26.5815 158.967 26.5766 159.158C26.5672 159.521 26.4113 159.855 26.1087 160.16C25.7892 160.446 25.4042 160.584 24.9537 160.572C24.4512 160.559 24.0395 160.384 23.7188 160.046C23.3807 159.708 23.2181 159.288 23.2311 158.785C23.2427 158.335 23.4262 157.941 23.7817 157.603C24.1199 157.265 24.5402 157.102 25.0427 157.115C25.2333 157.12 25.4661 157.17 25.7411 157.263C25.9992 157.339 26.3333 157.495 26.7434 157.731L29.9481 159.53L29.1856 160.863Z" fill="white"/>
<path d="M27.4975 132.955L25.4225 132.465L26.6766 127.151C26.9154 126.139 26.8073 125.276 26.3522 124.563C25.8803 123.846 25.2226 123.388 24.3791 123.189C23.8055 123.054 23.2611 123.059 22.7459 123.205C22.2138 123.346 21.7551 123.63 21.3697 124.055C20.9883 124.464 20.722 124.989 20.5707 125.63L19.2987 131.02L17.2237 130.53L18.4121 125.494C18.6111 124.651 18.5491 123.933 18.2259 123.34C17.8899 122.726 17.3001 122.32 16.4566 122.121C15.6131 121.922 14.9104 122.032 14.3483 122.452C13.7694 122.867 13.3784 123.505 13.1754 124.365L12.0109 129.3L9.93587 128.81L11.1123 123.825C11.3831 122.678 11.8189 121.775 12.4198 121.115C13.0078 120.435 13.685 119.98 14.4514 119.751C15.2217 119.506 16.0117 119.478 16.8215 119.669C17.7662 119.892 18.5311 120.349 19.1163 121.039C19.7054 121.712 20.0849 122.594 20.2549 123.685L19.5435 123.304C20.2151 122.269 21.0379 121.537 22.0118 121.108C22.9729 120.658 24.0101 120.564 25.1235 120.827C26.0514 121.046 26.8327 121.471 27.4675 122.102C28.1023 122.732 28.5459 123.532 28.7983 124.499C29.0379 125.446 29.0123 126.536 28.7217 127.767L27.4975 132.955ZM27.1212 134.549L9.55965 130.404L10.121 128.026L27.6826 132.17L27.1212 134.549Z" fill="white"/>
<path d="M31.2513 117.558C30.921 118.507 30.4092 119.293 29.7159 119.914C29.0119 120.513 28.2012 120.892 27.2836 121.05C26.3661 121.208 25.3999 121.11 24.3849 120.757L17.6072 118.4L18.376 116.19L25.0554 118.513C25.6939 118.735 26.2875 118.822 26.8363 118.775C27.3745 118.705 27.8403 118.5 28.234 118.16C28.6276 117.82 28.9241 117.363 29.1234 116.79C29.4252 115.922 29.3914 115.149 29.022 114.47C28.6362 113.785 27.9604 113.275 26.9945 112.939L20.3151 110.615L21.0838 108.405L27.8615 110.763C28.8765 111.116 29.6947 111.639 30.3161 112.332C30.9375 113.026 31.3382 113.826 31.5183 114.733C31.6876 115.617 31.5986 116.559 31.2513 117.558Z" fill="white"/>
<path d="M34.8388 106.051L21.2887 105.623L22.3909 103.268L32.9078 103.798L32.5551 104.552L25.499 96.6274L26.6012 94.2725L35.434 104.78L34.8388 106.051ZM37.9317 111.403L32.7164 104.943L35.434 104.78L39.0339 109.048L37.9317 111.403Z" fill="white"/>
<circle cx="35.5" cy="91.5" r="2.5" fill="#1E1E1E"/>
<circle cx="281.5" cy="198.5" r="2.5" fill="#1E1E1E"/>
<circle cx="235.5" cy="267.5" r="2.5" fill="#1E1E1E"/>
<circle cx="163.5" cy="286.5" r="2.5" fill="#1E1E1E"/>
<circle cx="42.5" cy="228.5" r="2.5" fill="#1E1E1E"/>
<circle cx="16.5" cy="147.5" r="2.5" fill="#1E1E1E"/>
<circle cx="213.5" cy="29.5" r="2.5" fill="#1E1E1E"/>
<circle cx="141.5" cy="20.5" r="2.5" fill="#1E1E1E"/>
<circle cx="270.5" cy="73.5" r="2.5" fill="#1E1E1E"/>
</svg>
