<svg width="66" height="59" viewBox="0 0 66 59" fill="none" xmlns="http://www.w3.org/2000/svg">
<path d="M25.1798 17.417H22.5083C22.2182 17.417 21.94 17.5322 21.7349 17.7373C21.5298 17.9425 21.4146 18.2207 21.4146 18.5107C21.4146 18.8008 21.5298 19.079 21.7349 19.2841C21.94 19.4893 22.2182 19.6045 22.5083 19.6045H25.1798C25.4699 19.6045 25.7481 19.4893 25.9532 19.2841C26.1583 19.079 26.2735 18.8008 26.2735 18.5107C26.2735 18.2207 26.1583 17.9425 25.9532 17.7373C25.7481 17.5322 25.4699 17.417 25.1798 17.417Z" fill="#FBB8B8"/>
<path d="M33.1179 19.6045H35.7891C36.0792 19.6045 36.3574 19.4893 36.5625 19.2841C36.7676 19.079 36.8829 18.8008 36.8829 18.5107C36.8829 18.2207 36.7676 17.9425 36.5625 17.7373C36.3574 17.5322 36.0792 17.417 35.7891 17.417H33.1179C32.8278 17.417 32.5496 17.5322 32.3445 17.7373C32.1394 17.9425 32.0242 18.2207 32.0242 18.5107C32.0242 18.8008 32.1394 19.079 32.3445 19.2841C32.5496 19.4893 32.8278 19.6045 33.1179 19.6045Z" fill="#FBB8B8"/>
<path d="M43.8035 19.6045H46.475C46.765 19.6045 47.0432 19.4893 47.2484 19.2841C47.4535 19.079 47.5687 18.8008 47.5687 18.5107C47.5687 18.2207 47.4535 17.9425 47.2484 17.7373C47.0432 17.5322 46.765 17.417 46.475 17.417H43.8035C43.5134 17.417 43.2352 17.5322 43.0301 17.7373C42.825 17.9425 42.7097 18.2207 42.7097 18.5107C42.7097 18.8008 42.825 19.079 43.0301 19.2841C43.2352 19.4893 43.5134 19.6045 43.8035 19.6045Z" fill="#FBB8B8"/>
<path d="M25.1798 27.9443H22.5083C22.2182 27.9443 21.94 28.0596 21.7349 28.2647C21.5298 28.4698 21.4146 28.748 21.4146 29.0381C21.4146 29.3282 21.5298 29.6064 21.7349 29.8115C21.94 30.0166 22.2182 30.1318 22.5083 30.1318H25.1798C25.4699 30.1318 25.7481 30.0166 25.9532 29.8115C26.1583 29.6064 26.2735 29.3282 26.2735 29.0381C26.2735 28.748 26.1583 28.4698 25.9532 28.2647C25.7481 28.0596 25.4699 27.9443 25.1798 27.9443Z" fill="#FBB8B8"/>
<path d="M14.4943 27.9443H11.8223C11.5322 27.9443 11.254 28.0596 11.0489 28.2647C10.8437 28.4698 10.7285 28.748 10.7285 29.0381C10.7285 29.3282 10.8437 29.6064 11.0489 29.8115C11.254 30.0166 11.5322 30.1318 11.8223 30.1318H14.4938C14.7838 30.1318 15.062 30.0166 15.2671 29.8115C15.4723 29.6064 15.5875 29.3282 15.5875 29.0381C15.5875 28.748 15.4723 28.4698 15.2671 28.2647C15.062 28.0596 14.7838 27.9443 14.4938 27.9443H14.4943Z" fill="#FBB8B8"/>
<path d="M33.1179 30.1318H35.7891C36.0792 30.1318 36.3574 30.0166 36.5625 29.8115C36.7676 29.6064 36.8829 29.3282 36.8829 29.0381C36.8829 28.748 36.7676 28.4698 36.5625 28.2647C36.3574 28.0596 36.0792 27.9443 35.7891 27.9443H33.1179C32.8278 27.9443 32.5496 28.0596 32.3445 28.2647C32.1394 28.4698 32.0242 28.748 32.0242 29.0381C32.0242 29.3282 32.1394 29.6064 32.3445 29.8115C32.5496 30.0166 32.8278 30.1318 33.1179 30.1318Z" fill="#FBB8B8"/>
<path d="M25.1798 38.335H22.5083C22.2182 38.335 21.94 38.4502 21.7349 38.6553C21.5298 38.8604 21.4146 39.1386 21.4146 39.4287C21.4146 39.7188 21.5298 39.997 21.7349 40.2021C21.94 40.4072 22.2182 40.5225 22.5083 40.5225H25.1798C25.4699 40.5225 25.7481 40.4072 25.9532 40.2021C26.1583 39.997 26.2735 39.7188 26.2735 39.4287C26.2735 39.1386 26.1583 38.8604 25.9532 38.6553C25.7481 38.4502 25.4699 38.335 25.1798 38.335Z" fill="#FBB8B8"/>
<path d="M14.4943 38.335H11.8223C11.5322 38.335 11.254 38.4502 11.0489 38.6553C10.8437 38.8604 10.7285 39.1386 10.7285 39.4287C10.7285 39.7188 10.8437 39.997 11.0489 40.2021C11.254 40.4072 11.5322 40.5225 11.8223 40.5225H14.4938C14.7838 40.5225 15.062 40.4072 15.2671 40.2021C15.4723 39.997 15.5875 39.7188 15.5875 39.4287C15.5875 39.1386 15.4723 38.8604 15.2671 38.6553C15.062 38.4502 14.7838 38.335 14.4938 38.335H14.4943Z" fill="#FF5859"/>
<path d="M36.8829 39.4287C36.8829 39.1386 36.7676 38.8604 36.5625 38.6553C36.3574 38.4502 36.0792 38.335 35.7891 38.335H33.1179C32.8278 38.335 32.5496 38.4502 32.3445 38.6553C32.1394 38.8604 32.0242 39.1386 32.0242 39.4287C32.0242 39.7188 32.1394 39.997 32.3445 40.2021C32.5496 40.4072 32.8278 40.5225 33.1179 40.5225H35.7891C36.0792 40.5225 36.3574 40.4072 36.5625 40.2021C36.7676 39.997 36.8829 39.7188 36.8829 39.4287Z" fill="#FF5859"/>
<path d="M58.0195 30.6289V10.2168C58.0189 9.4735 57.8718 8.73758 57.5865 8.05115C57.3013 7.36472 56.8835 6.74125 56.3572 6.21638C55.8308 5.69151 55.2061 5.27555 54.5189 4.99226C53.8317 4.70898 53.0953 4.56394 52.352 4.56543H48.3125V1.13379C48.3125 0.843709 48.1973 0.565509 47.9921 0.360391C47.787 0.155273 47.5088 0.0400391 47.2188 0.0400391C46.9287 0.0400391 46.6505 0.155273 46.4454 0.360391C46.2402 0.565509 46.125 0.843709 46.125 1.13379V4.56543H30.2656V1.13379C30.2656 0.843709 30.1504 0.565509 29.9453 0.360391C29.7402 0.155273 29.462 0.0400391 29.1719 0.0400391C28.8818 0.0400391 28.6036 0.155273 28.3985 0.360391C28.1934 0.565509 28.0781 0.843709 28.0781 1.13379V4.56543H12.2188V1.13379C12.2188 0.843709 12.1035 0.565509 11.8984 0.360391C11.6933 0.155273 11.4151 0.0400391 11.125 0.0400391C10.8349 0.0400391 10.5567 0.155273 10.3516 0.360391C10.1465 0.565509 10.0312 0.843709 10.0312 1.13379V4.56543H6.02197C4.51756 4.56128 3.0729 5.15391 2.0048 6.21335C0.936692 7.27279 0.332321 8.71258 0.324219 10.217V45.6323C0.330743 47.1408 0.933351 48.5856 2.00067 49.6516C3.06799 50.7177 4.51347 51.3185 6.02197 51.3232H38.7753C41.3716 55.2881 45.9091 58.0446 51.062 58.0446C54.9302 58.0391 58.6382 56.4996 61.3727 53.7638C64.1072 51.0279 65.6449 47.3191 65.6484 43.451C65.6484 37.9263 62.5312 33.1049 58.0195 30.6289ZM6.02197 49.1357C5.09342 49.1317 4.20396 48.7615 3.54673 48.1055C2.88951 47.4496 2.51758 46.5609 2.51172 45.6323V10.217C2.51916 9.29254 2.89285 8.40877 3.55086 7.75942C4.20888 7.11007 5.09752 6.74812 6.02197 6.75293H10.0312V9.30109C10.0312 9.59117 10.1465 9.86937 10.3516 10.0745C10.5567 10.2796 10.8349 10.3948 11.125 10.3948C11.4151 10.3948 11.6933 10.2796 11.8984 10.0745C12.1035 9.86937 12.2188 9.59117 12.2188 9.30109V6.75293H28.0781V9.30109C28.0781 9.59117 28.1934 9.86937 28.3985 10.0745C28.6036 10.2796 28.8818 10.3948 29.1719 10.3948C29.462 10.3948 29.7402 10.2796 29.9453 10.0745C30.1504 9.86937 30.2656 9.59117 30.2656 9.30109V6.75293H46.125V9.30109C46.125 9.59117 46.2402 9.86937 46.4454 10.0745C46.6505 10.2796 46.9287 10.3948 47.2188 10.3948C47.5088 10.3948 47.787 10.2796 47.9921 10.0745C48.1973 9.86937 48.3125 9.59117 48.3125 9.30109V6.75293H52.352C52.8082 6.75111 53.2602 6.83935 53.6822 7.0126C54.1042 7.18584 54.4878 7.44068 54.8111 7.7625C55.1344 8.08432 55.3911 8.46679 55.5662 8.88798C55.7414 9.30917 55.8317 9.7608 55.832 10.217V29.6608C53.1575 28.7345 50.2712 28.6063 47.525 29.2917C47.553 29.2025 47.5675 29.1096 47.5679 29.0161C47.5676 28.8736 47.539 28.7327 47.4837 28.6014C47.4284 28.4701 47.3475 28.3511 47.2458 28.2514C47.1441 28.1517 47.0236 28.0732 46.8913 28.0204C46.7589 27.9677 46.6174 27.9419 46.475 27.9443H43.8035C43.5134 27.9443 43.2352 28.0596 43.0301 28.2647C42.825 28.4698 42.7098 28.748 42.7098 29.0381C42.7098 29.3282 42.825 29.6064 43.0301 29.8115C43.2352 30.0166 43.5134 30.1318 43.8035 30.1318H45.2027C40.0674 32.3193 36.4728 37.5162 36.4728 43.4778C36.4742 45.4215 36.8646 47.3453 37.6211 49.1357H6.02197ZM51.062 55.8486C48.6092 55.8487 46.2114 55.1213 44.1719 53.7586C42.1324 52.3959 40.5428 50.459 39.6041 48.1928C38.6654 45.9266 38.4198 43.433 38.8983 41.0273C39.3768 38.6215 40.558 36.4117 42.2925 34.6773C44.0269 32.9428 46.2367 31.7617 48.6425 31.2831C51.0482 30.8046 53.5418 31.0502 55.808 31.9889C58.0741 32.9276 60.011 34.5172 61.3738 36.5567C62.7365 38.5962 63.4638 40.994 63.4638 43.4469C63.4601 46.7349 62.1523 49.8872 59.8273 52.2121C57.5023 54.5371 54.3501 55.8449 51.062 55.8486Z" fill="#FF5859"/>
<path d="M51.2 38.8604C50.0967 38.8604 49.0182 39.1875 48.1009 39.8004C47.1836 40.4134 46.4686 41.2846 46.0464 42.3038C45.6242 43.3231 45.5138 44.4447 45.729 45.5267C45.9442 46.6088 46.4755 47.6027 47.2556 48.3828C48.0357 49.1629 49.0297 49.6942 50.1117 49.9094C51.1938 50.1247 52.3153 50.0142 53.3346 49.592C54.3539 49.1698 55.2251 48.4548 55.838 47.5375C56.4509 46.6202 56.7781 45.5417 56.7781 44.4385C56.7763 42.9596 56.1881 41.5418 55.1424 40.4961C54.0966 39.4503 52.6788 38.8621 51.2 38.8604ZM51.2 49.3604C50.2265 49.3604 49.2749 49.0717 48.4655 48.5309C47.6561 47.99 47.0253 47.2214 46.6527 46.322C46.2802 45.4226 46.1827 44.433 46.3727 43.4783C46.5626 42.5235 47.0313 41.6465 47.7197 40.9582C48.408 40.2698 49.285 39.8011 50.2397 39.6112C51.1945 39.4213 52.1841 39.5187 53.0835 39.8913C53.9828 40.2638 54.7515 40.8946 55.2923 41.704C55.8332 42.5134 56.1218 43.465 56.1218 44.4385C56.1204 45.7434 55.6014 46.9945 54.6786 47.9172C53.7559 48.8399 52.5049 49.3589 51.2 49.3604ZM54.5906 44.4385C54.5906 44.5255 54.556 44.609 54.4945 44.6705C54.4329 44.732 54.3495 44.7666 54.2625 44.7666H51.2C51.1129 44.7666 51.0295 44.732 50.9679 44.6705C50.9064 44.609 50.8718 44.5255 50.8718 44.4385V41.376C50.8718 41.289 50.9064 41.2055 50.9679 41.144C51.0295 41.0824 51.1129 41.0479 51.2 41.0479C51.287 41.0479 51.3704 41.0824 51.432 41.144C51.4935 41.2055 51.5281 41.289 51.5281 41.376V44.1104H54.2625C54.3495 44.1104 54.4329 44.1449 54.4945 44.2065C54.556 44.268 54.5906 44.3515 54.5906 44.4385Z" fill="#FF5859"/>
</svg>
