<svg width="130" height="130" viewBox="0 0 130 130" fill="none" xmlns="http://www.w3.org/2000/svg">
<circle cx="65" cy="65" r="65" fill="#FF5859"/>
<path d="M89 76.7867V86.216C89.0003 86.8911 88.7445 87.5413 88.2842 88.0352C87.824 88.5291 87.1935 88.8301 86.52 88.8773C85.3547 88.9573 84.4027 89 83.6667 89C60.1013 89 41 69.8987 41 46.3333C41 45.5973 41.04 44.6453 41.1227 43.48C41.1699 42.8065 41.4709 42.176 41.9648 41.7158C42.4587 41.2555 43.1089 40.9997 43.784 41H53.2133C53.5441 40.9997 53.8632 41.1223 54.1086 41.3441C54.354 41.5658 54.5083 41.8709 54.5413 42.2C54.6027 42.8133 54.6587 43.3013 54.712 43.672C55.242 47.3705 56.328 50.9676 57.9333 54.3413C58.1867 54.8747 58.0213 55.512 57.5413 55.8533L51.7867 59.9653C55.3052 68.1639 61.8388 74.6975 70.0373 78.216L74.144 72.472C74.3119 72.2373 74.5568 72.069 74.836 71.9964C75.1152 71.9238 75.4111 71.9515 75.672 72.0747C79.0453 73.6771 82.6415 74.7605 86.3387 75.288C86.7093 75.3413 87.1973 75.3973 87.8053 75.4587C88.134 75.4924 88.4384 75.6469 88.6596 75.8922C88.8808 76.1376 89.0004 76.4563 89 76.7867Z" fill="white"/>
</svg>
