<svg width="70" height="71" viewBox="0 0 70 71" fill="none" xmlns="http://www.w3.org/2000/svg">
<g clip-path="url(#clip0_1039_2336)">
<path d="M35 0.0380859C54.3305 0.0380859 70 15.7076 70 35.0381C70 54.3686 54.3305 70.0381 35 70.0381C15.6695 70.0381 0 54.3686 0 35.0381C0 15.7076 15.6695 0.0380859 35 0.0380859ZM35 4.92059C27.0123 4.92059 19.3518 8.09367 13.7037 13.7418C8.05558 19.3899 4.8825 27.0504 4.8825 35.0381C4.8825 43.0257 8.05558 50.6862 13.7037 56.3344C19.3518 61.9825 27.0123 65.1556 35 65.1556C42.9877 65.1556 50.6482 61.9825 56.2963 56.3344C61.9444 50.6862 65.1175 43.0257 65.1175 35.0381C65.1175 27.0504 61.9444 19.3899 56.2963 13.7418C50.6482 8.09367 42.9877 4.92059 35 4.92059ZM27.104 42.0381C27.3408 43.9605 28.2708 45.7305 29.7196 47.016C31.1684 48.3016 33.0364 49.0145 34.9734 49.0209C36.9103 49.0274 38.783 48.327 40.2403 47.051C41.6976 45.7751 42.6394 44.0114 42.889 42.0906C42.9249 41.7766 43.0227 41.4729 43.1769 41.197C43.331 40.9211 43.5384 40.6786 43.787 40.4835C44.0357 40.2884 44.3206 40.1446 44.6252 40.0605C44.9298 39.9764 45.2481 39.9536 45.5616 39.9934C45.8751 40.0333 46.1776 40.135 46.4515 40.2927C46.7254 40.4503 46.9652 40.6608 47.1571 40.9119C47.349 41.163 47.4892 41.4497 47.5694 41.7554C47.6496 42.0611 47.6684 42.3796 47.6245 42.6926C47.227 45.7677 45.7207 48.592 43.3885 50.6353C41.0563 52.6786 38.0584 53.8004 34.9577 53.7901C31.857 53.7798 28.8667 52.6381 26.5481 50.5793C24.2295 48.5206 22.742 45.6863 22.365 42.6086C22.3214 42.2945 22.3408 41.9749 22.4221 41.6684C22.5034 41.3619 22.645 41.0746 22.8386 40.8234C23.0321 40.5722 23.2738 40.3621 23.5494 40.2054C23.8251 40.0487 24.1292 39.9484 24.444 39.9105C24.7589 39.8726 25.0781 39.8978 25.3831 39.9847C25.6881 40.0715 25.9727 40.2183 26.2203 40.4163C26.4679 40.6144 26.6736 40.8598 26.8254 41.1383C26.9771 41.4167 27.0718 41.7226 27.104 42.0381ZM20.349 22.0181C21.6439 22.0181 22.8858 22.5325 23.8014 23.4481C24.7171 24.3638 25.2315 25.6057 25.2315 26.9006C25.2315 28.1955 24.7171 29.4374 23.8014 30.353C22.8858 31.2687 21.6439 31.7831 20.349 31.7831C19.0541 31.7831 17.8122 31.2687 16.8966 30.353C15.9809 29.4374 15.4665 28.1955 15.4665 26.9006C15.4665 25.6057 15.9809 24.3638 16.8966 23.4481C17.8122 22.5325 19.0541 22.0181 20.349 22.0181ZM49.651 22.0181C50.9459 22.0181 52.1878 22.5325 53.1034 23.4481C54.0191 24.3638 54.5335 25.6057 54.5335 26.9006C54.5335 28.1955 54.0191 29.4374 53.1034 30.353C52.1878 31.2687 50.9459 31.7831 49.651 31.7831C48.3561 31.7831 47.1142 31.2687 46.1986 30.353C45.2829 29.4374 44.7685 28.1955 44.7685 26.9006C44.7685 25.6057 45.2829 24.3638 46.1986 23.4481C47.1142 22.5325 48.3561 22.0181 49.651 22.0181Z" fill="#FF5859"/>
</g>
<defs>
<clipPath id="clip0_1039_2336">
<rect width="70" height="70" fill="white" transform="translate(0 0.0380859)"/>
</clipPath>
</defs>
</svg>
