<svg width="70" height="71" viewBox="0 0 70 71" fill="none" xmlns="http://www.w3.org/2000/svg">
<path d="M14 63.2309C14 66.3401 16.6192 68.8717 19.8333 68.8717H50.1667C53.3808 68.8717 56 66.3401 56 63.2309V6.84591C56 3.73674 53.3808 1.20508 50.1667 1.20508H19.8333C16.6192 1.20508 14 3.73674 14 6.84591V63.2367V63.2309ZM35 66.6142C33.7108 66.6142 32.6667 65.6051 32.6667 64.3567C32.6667 63.1084 33.7108 62.0992 35 62.0992C36.2892 62.0992 37.3333 63.1084 37.3333 64.3567C37.3333 65.6051 36.2892 66.6142 35 66.6142ZM53.6667 63.2309C53.6667 65.0976 52.0975 66.6142 50.1667 66.6142H39.0367C39.4333 65.9492 39.6667 65.1792 39.6667 64.3567C39.6667 63.5342 39.4333 62.7642 39.0367 62.0992H53.6667V63.2251V63.2309ZM16.3333 6.84591C16.3333 4.97924 17.9025 3.46258 19.8333 3.46258H50.1667C52.0975 3.46258 53.6667 4.97924 53.6667 6.84591V10.2292H16.3333V6.84591ZM16.3333 12.4867H53.6667V59.8534H16.3333V12.4809V12.4867ZM16.3333 62.1109H30.9633C30.5667 62.7759 30.3333 63.5459 30.3333 64.3684C30.3333 65.1909 30.5667 65.9609 30.9633 66.6259H19.8333C17.9025 66.6259 16.3333 65.1092 16.3333 63.2426V62.1167V62.1109ZM31.5 5.87174C31.5 6.51341 30.975 7.03841 30.3333 7.03841H29.1667C28.525 7.03841 28 6.51341 28 5.87174C28 5.23008 28.525 4.70508 29.1667 4.70508H30.3333C30.975 4.70508 31.5 5.23008 31.5 5.87174ZM42 5.87174C42 6.51341 41.475 7.03841 40.8333 7.03841H35C34.3583 7.03841 33.8333 6.51341 33.8333 5.87174C33.8333 5.23008 34.3583 4.70508 35 4.70508H40.8333C41.475 4.70508 42 5.23008 42 5.87174Z" fill="#FF5859"/>
<g clip-path="url(#clip0_1039_2328)">
<path d="M46.0834 39.7048H39.0834V40.2881C39.0633 40.7895 38.9059 41.2758 38.6284 41.6939C38.2412 42.306 37.7055 42.8101 37.0712 43.1595C36.4368 43.5089 35.7243 43.6921 35.0001 43.6921C34.2759 43.6921 33.5634 43.5089 32.929 43.1595C32.2946 42.8101 31.7589 42.306 31.3717 41.6939C31.0943 41.2758 30.9369 40.7895 30.9167 40.2881V39.7048H23.9167M46.0834 39.7048V47.2881H23.9167V39.7048M46.0834 39.7048L43.7501 30.3714H38.5001M46.0834 39.7048H39.6667M23.9167 39.7048L26.2501 30.3714H31.5001M35.0001 39.1214V22.7881M35.0001 39.1214L32.6667 36.2048M35.0001 39.1214L37.3334 36.2048" stroke="#FF5859" stroke-width="2.51034" stroke-linecap="round" stroke-linejoin="round"/>
</g>
<defs>
<clipPath id="clip0_1039_2328">
<rect width="28" height="28" fill="white" transform="translate(21 21.0381)"/>
</clipPath>
</defs>
</svg>
