<svg width="130" height="130" viewBox="0 0 130 130" fill="none" xmlns="http://www.w3.org/2000/svg">
<circle cx="65" cy="65" r="65" fill="#FF5859"/>
<path d="M96.5879 48.25H35.6738V89.2188H96.5879V48.25Z" fill="#FFC970"/>
<path d="M93.0435 89.2187L66.1308 57.5623L39.2181 89.2187H93.0435Z" fill="#FFB233"/>
<path d="M66.1309 61.7266L90.5234 89.2188H41.7383L66.1309 61.7266Z" fill="#FFC970"/>
<path d="M66.1309 79.2461L35.6738 51.7539V48.25H96.5879V51.7539L66.1309 79.2461Z" fill="#FFB233"/>
<path d="M66.1309 75.7422L35.6738 48.25H96.5879L66.1309 75.7422Z" fill="#FFDCA3"/>
<path d="M81.7637 51.2148C81.7637 57.9127 87.1947 63.3438 93.8926 63.3438C94.8225 63.3438 95.7254 63.2359 96.5879 63.0473V48.25H82.1275C81.885 49.1934 81.7637 50.1906 81.7637 51.2148Z" fill="#FFB233"/>
<path d="M82.1275 48.25C81.885 49.1934 81.7637 50.1906 81.7637 51.2148C81.7637 54.1932 82.8418 56.9289 84.6342 59.0447L96.5879 48.25H82.1275Z" fill="#FFC970"/>
<path d="M93.8926 60.6484C99.1026 60.6484 103.326 56.4249 103.326 51.2148C103.326 46.0048 99.1026 41.7812 93.8926 41.7812C88.6825 41.7812 84.459 46.0048 84.459 51.2148C84.459 56.4249 88.6825 60.6484 93.8926 60.6484Z" fill="#FF5859"/>
<path d="M98.6632 43.075C99.4853 44.4766 99.957 46.1072 99.957 47.8457C99.957 53.0611 95.7388 57.2793 90.5234 57.2793C88.7849 57.2793 87.1542 56.8076 85.7527 55.9855C87.3968 58.7752 90.4156 60.6484 93.8925 60.6484C99.108 60.6484 103.326 56.4303 103.326 51.2148C103.326 47.7514 101.453 44.7191 98.6632 43.075Z" fill="#FF5859"/>
<path d="M90.5234 52.5625C93.1285 52.5625 95.2402 50.4507 95.2402 47.8457C95.2402 45.2407 93.1285 43.1289 90.5234 43.1289C87.9184 43.1289 85.8066 45.2407 85.8066 47.8457C85.8066 50.4507 87.9184 52.5625 90.5234 52.5625Z" fill="#FF5859"/>
<path d="M93.8926 58.6269C89.8092 58.6269 86.4805 55.2982 86.4805 51.2148C86.4805 49.2068 87.2621 47.3336 88.7041 45.932C90.1326 44.5304 92.0193 43.7758 94.0273 43.8027C96.0084 43.8431 97.8682 44.6517 99.2428 46.1072C100.631 47.5627 101.359 49.4629 101.291 51.4574C101.237 53.1959 100.577 54.867 99.4314 56.1472C98.8654 56.7806 98.0029 56.9963 97.2078 56.6863C96.4127 56.3898 95.9006 55.6486 95.9006 54.7996V54.584H93.8791C92.0193 54.584 90.51 53.0746 90.51 51.2148C90.51 49.3551 92.0193 47.8457 93.8791 47.8457C95.7389 47.8457 97.2482 49.3551 97.2482 51.2148V54.7996C97.2482 55.2308 97.5852 55.3926 97.6795 55.433C97.7873 55.4734 98.1377 55.5678 98.4207 55.2578C99.3506 54.2066 99.8896 52.8455 99.9436 51.417C99.9975 49.7863 99.391 48.2365 98.259 47.0371C97.127 45.8512 95.6041 45.1773 93.9869 45.1504C92.3428 45.1234 90.793 45.7433 89.634 46.8888C88.4615 48.0344 87.8146 49.5707 87.8146 51.2148C87.8146 54.557 90.5369 57.2793 93.8791 57.2793V58.6269H93.8926ZM93.8926 49.1933C92.774 49.1933 91.8711 50.0963 91.8711 51.2148C91.8711 52.3334 92.774 53.2363 93.8926 53.2363H95.9141V51.2148C95.9141 50.0963 95.0111 49.1933 93.8926 49.1933Z" fill="#FFC970"/>
</svg>
