<svg width="286" height="99" viewBox="0 0 286 99" fill="none" xmlns="http://www.w3.org/2000/svg">
<rect y="0.955078" width="286" height="98" rx="20" fill="white"/>
<path d="M116.116 71.3279C114.916 71.3279 113.788 71.1119 112.732 70.6799C111.692 70.2319 110.772 69.6079 109.972 68.8079C109.188 68.0079 108.572 67.0879 108.124 66.0479C107.692 64.9919 107.476 63.8559 107.476 62.6399C107.476 61.4079 107.7 60.2719 108.148 59.2319C108.596 58.1759 109.22 57.2559 110.02 56.4719C110.82 55.6719 111.756 55.0559 112.828 54.6239C113.9 54.1759 115.06 53.9519 116.308 53.9519C117.7 53.9519 118.98 54.2159 120.148 54.7439C121.316 55.2559 122.284 55.9839 123.052 56.9279L120.844 59.1359C120.316 58.4479 119.66 57.9199 118.876 57.5519C118.092 57.1839 117.228 56.9999 116.284 56.9999C115.212 56.9999 114.26 57.2399 113.428 57.7199C112.612 58.1839 111.972 58.8399 111.508 59.6879C111.044 60.5199 110.812 61.4959 110.812 62.6159C110.812 63.7359 111.036 64.7279 111.484 65.5919C111.948 66.4399 112.572 67.1039 113.356 67.5839C114.156 68.0639 115.068 68.3039 116.092 68.3039C117.148 68.3039 118.052 68.1119 118.804 67.7279C119.556 67.3279 120.132 66.7519 120.532 65.9999C120.932 65.2319 121.132 64.2959 121.132 63.1919L123.268 64.6559L115.9 64.5839V61.7519H124.492V62.2079C124.492 64.2239 124.132 65.9119 123.412 67.2719C122.692 68.6159 121.7 69.6319 120.436 70.3199C119.188 70.9919 117.748 71.3279 116.116 71.3279ZM132.108 71.3279C130.94 71.3279 129.884 71.0639 128.94 70.5359C128.012 69.9919 127.268 69.2639 126.708 68.3519C126.164 67.4239 125.892 66.3919 125.892 65.2559C125.892 64.1199 126.164 63.1039 126.708 62.2079C127.252 61.2959 127.996 60.5759 128.94 60.0479C129.884 59.5039 130.932 59.2319 132.084 59.2319C133.268 59.2319 134.324 59.5039 135.252 60.0479C136.196 60.5759 136.94 61.2959 137.484 62.2079C138.028 63.1039 138.3 64.1199 138.3 65.2559C138.3 66.3919 138.028 67.4239 137.484 68.3519C136.94 69.2639 136.196 69.9919 135.252 70.5359C134.324 71.0639 133.276 71.3279 132.108 71.3279ZM132.084 68.3999C132.676 68.3999 133.196 68.2719 133.644 68.0159C134.108 67.7439 134.46 67.3759 134.7 66.9119C134.956 66.4319 135.084 65.8879 135.084 65.2799C135.084 64.6719 134.956 64.1359 134.7 63.6719C134.444 63.2079 134.092 62.8479 133.644 62.5919C133.196 62.3199 132.676 62.1839 132.084 62.1839C131.508 62.1839 130.996 62.3199 130.548 62.5919C130.1 62.8479 129.748 63.2079 129.492 63.6719C129.236 64.1359 129.108 64.6719 129.108 65.2799C129.108 65.8879 129.236 66.4319 129.492 66.9119C129.748 67.3759 130.1 67.7439 130.548 68.0159C130.996 68.2719 131.508 68.3999 132.084 68.3999ZM145.772 71.3279C144.604 71.3279 143.548 71.0639 142.604 70.5359C141.676 69.9919 140.932 69.2639 140.372 68.3519C139.828 67.4239 139.556 66.3919 139.556 65.2559C139.556 64.1199 139.828 63.1039 140.372 62.2079C140.916 61.2959 141.66 60.5759 142.604 60.0479C143.548 59.5039 144.596 59.2319 145.748 59.2319C146.932 59.2319 147.988 59.5039 148.916 60.0479C149.86 60.5759 150.604 61.2959 151.148 62.2079C151.692 63.1039 151.964 64.1199 151.964 65.2559C151.964 66.3919 151.692 67.4239 151.148 68.3519C150.604 69.2639 149.86 69.9919 148.916 70.5359C147.988 71.0639 146.94 71.3279 145.772 71.3279ZM145.748 68.3999C146.34 68.3999 146.86 68.2719 147.308 68.0159C147.772 67.7439 148.124 67.3759 148.364 66.9119C148.62 66.4319 148.748 65.8879 148.748 65.2799C148.748 64.6719 148.62 64.1359 148.364 63.6719C148.108 63.2079 147.756 62.8479 147.308 62.5919C146.86 62.3199 146.34 62.1839 145.748 62.1839C145.172 62.1839 144.66 62.3199 144.212 62.5919C143.764 62.8479 143.412 63.2079 143.156 63.6719C142.9 64.1359 142.772 64.6719 142.772 65.2799C142.772 65.8879 142.9 66.4319 143.156 66.9119C143.412 67.3759 143.764 67.7439 144.212 68.0159C144.66 68.2719 145.172 68.3999 145.748 68.3999ZM158.836 76.2239C157.604 76.2239 156.516 75.9999 155.572 75.5519C154.628 75.1199 153.876 74.5039 153.316 73.7039L155.308 71.7119C155.756 72.2399 156.252 72.6399 156.796 72.9119C157.356 73.1999 158.028 73.3439 158.812 73.3439C159.788 73.3439 160.556 73.0959 161.116 72.5999C161.692 72.1039 161.98 71.4159 161.98 70.5359V67.6319L162.508 65.0879L162.004 62.5439V59.4959H165.124V70.4879C165.124 71.6399 164.852 72.6399 164.308 73.4879C163.78 74.3519 163.044 75.0239 162.1 75.5039C161.156 75.9839 160.068 76.2239 158.836 76.2239ZM158.692 70.7759C157.652 70.7759 156.716 70.5279 155.884 70.0319C155.052 69.5199 154.396 68.8239 153.916 67.9439C153.452 67.0639 153.22 66.0799 153.22 64.9919C153.22 63.9039 153.452 62.9279 153.916 62.0639C154.396 61.1999 155.052 60.5199 155.884 60.0239C156.716 59.5119 157.652 59.2559 158.692 59.2559C159.556 59.2559 160.316 59.4239 160.972 59.7599C161.644 60.0959 162.172 60.5599 162.556 61.1519C162.94 61.7279 163.148 62.4079 163.18 63.1919V66.8399C163.148 67.6079 162.932 68.2959 162.532 68.9039C162.148 69.4959 161.62 69.9599 160.948 70.2959C160.292 70.6159 159.54 70.7759 158.692 70.7759ZM159.316 67.9199C159.892 67.9199 160.388 67.7999 160.804 67.5599C161.236 67.3039 161.572 66.9599 161.812 66.5279C162.052 66.0799 162.172 65.5759 162.172 65.0159C162.172 64.4399 162.052 63.9359 161.812 63.5039C161.572 63.0719 161.236 62.7359 160.804 62.4959C160.388 62.2399 159.892 62.1119 159.316 62.1119C158.74 62.1119 158.236 62.2399 157.804 62.4959C157.372 62.7359 157.036 63.0799 156.796 63.5279C156.556 63.9599 156.436 64.4559 156.436 65.0159C156.436 65.5599 156.556 66.0559 156.796 66.5039C157.036 66.9359 157.372 67.2799 157.804 67.5359C158.236 67.7919 158.74 67.9199 159.316 67.9199ZM167.887 71.0879V53.7359H171.031V71.0879H167.887ZM179.36 71.3279C178.144 71.3279 177.064 71.0719 176.12 70.5599C175.176 70.0319 174.424 69.3119 173.864 68.3999C173.32 67.4879 173.048 66.4479 173.048 65.2799C173.048 64.1279 173.312 63.1039 173.84 62.2079C174.384 61.2959 175.12 60.5759 176.048 60.0479C176.976 59.5039 178.008 59.2319 179.144 59.2319C180.264 59.2319 181.248 59.4879 182.096 59.9999C182.96 60.4959 183.632 61.1839 184.112 62.0639C184.608 62.9279 184.856 63.9119 184.856 65.0159C184.856 65.2239 184.84 65.4399 184.808 65.6639C184.792 65.8719 184.752 66.1119 184.688 66.3839L174.944 66.4079V64.0559L183.224 64.0319L181.952 65.0159C181.92 64.3279 181.792 63.7519 181.568 63.2879C181.36 62.8239 181.048 62.4719 180.632 62.2319C180.232 61.9759 179.736 61.8479 179.144 61.8479C178.52 61.8479 177.976 61.9919 177.512 62.2799C177.048 62.5519 176.688 62.9439 176.432 63.4559C176.192 63.9519 176.072 64.5439 176.072 65.2319C176.072 65.9359 176.2 66.5519 176.456 67.0799C176.728 67.5919 177.112 67.9919 177.608 68.2799C178.104 68.5519 178.68 68.6879 179.336 68.6879C179.928 68.6879 180.464 68.5919 180.944 68.3999C181.424 68.1919 181.84 67.8879 182.192 67.4879L184.04 69.3359C183.48 69.9919 182.792 70.4879 181.976 70.8239C181.176 71.1599 180.304 71.3279 179.36 71.3279ZM194.224 64.8239V62.1599H198.136C198.648 62.1599 199.112 62.0559 199.528 61.8479C199.944 61.6399 200.272 61.3439 200.512 60.9599C200.752 60.5599 200.872 60.0799 200.872 59.5199C200.872 58.9759 200.752 58.5039 200.512 58.1039C200.272 57.7039 199.944 57.3999 199.528 57.1919C199.112 56.9839 198.648 56.8799 198.136 56.8799H194.224V54.2159H198.472C199.544 54.2159 200.504 54.4319 201.352 54.8639C202.216 55.2959 202.896 55.9119 203.392 56.7119C203.888 57.4959 204.136 58.4319 204.136 59.5199C204.136 60.6079 203.888 61.5519 203.392 62.3519C202.896 63.1359 202.216 63.7439 201.352 64.1759C200.504 64.6079 199.544 64.8239 198.472 64.8239H194.224ZM191.824 71.0879V54.2159H195.088V71.0879H191.824ZM206.277 71.0879V53.7359H209.421V71.0879H206.277ZM217.055 71.3279C215.999 71.3279 215.047 71.0639 214.199 70.5359C213.351 70.0079 212.687 69.2879 212.207 68.3759C211.727 67.4639 211.487 66.4399 211.487 65.3039C211.487 64.1519 211.727 63.1199 212.207 62.2079C212.687 61.2959 213.351 60.5759 214.199 60.0479C215.047 59.5199 215.999 59.2559 217.055 59.2559C217.887 59.2559 218.631 59.4239 219.287 59.7599C219.943 60.0959 220.463 60.5679 220.847 61.1759C221.247 61.7679 221.463 62.4399 221.495 63.1919V67.3679C221.463 68.1359 221.247 68.8159 220.847 69.4079C220.463 69.9999 219.943 70.4719 219.287 70.8239C218.631 71.1599 217.887 71.3279 217.055 71.3279ZM217.631 68.4239C218.511 68.4239 219.223 68.1359 219.767 67.5599C220.311 66.9679 220.583 66.2079 220.583 65.2799C220.583 64.6719 220.455 64.1359 220.199 63.6719C219.959 63.1919 219.615 62.8239 219.167 62.5679C218.735 62.2959 218.223 62.1599 217.631 62.1599C217.055 62.1599 216.543 62.2959 216.095 62.5679C215.663 62.8239 215.319 63.1919 215.063 63.6719C214.823 64.1359 214.703 64.6719 214.703 65.2799C214.703 65.9039 214.823 66.4559 215.063 66.9359C215.319 67.3999 215.663 67.7679 216.095 68.0399C216.543 68.2959 217.055 68.4239 217.631 68.4239ZM220.415 71.0879V67.9679L220.919 65.1359L220.415 62.3519V59.4959H223.535V71.0879H220.415ZM229.964 71.1839L225.116 59.4959H228.524L231.74 68.4239H230.588L233.924 59.4959H237.356L232.196 71.1599L229.964 71.1839ZM226.748 75.9359L230.276 68.4719L232.196 71.1599L230.084 75.9359H226.748Z" fill="#1E1E1E"/>
<path d="M108.982 36.9551V35.7311H112.618C113.59 35.7311 114.448 35.5211 115.192 35.1011C115.936 34.6691 116.518 34.0811 116.938 33.3371C117.358 32.5811 117.568 31.7171 117.568 30.7451C117.568 29.7731 117.358 28.9151 116.938 28.1711C116.518 27.4271 115.936 26.8451 115.192 26.4251C114.448 25.9931 113.59 25.7771 112.618 25.7771H109.018V24.5711H112.654C113.554 24.5711 114.382 24.7271 115.138 25.0391C115.906 25.3391 116.572 25.7711 117.136 26.3351C117.712 26.8871 118.156 27.5411 118.468 28.2971C118.78 29.0411 118.936 29.8631 118.936 30.7631C118.936 31.6391 118.78 32.4551 118.468 33.2111C118.156 33.9671 117.718 34.6271 117.154 35.1911C116.59 35.7431 115.924 36.1751 115.156 36.4871C114.4 36.7991 113.578 36.9551 112.69 36.9551H108.982ZM108.172 36.9551V24.5711H109.486V36.9551H108.172ZM125.007 37.1351C124.191 37.1351 123.447 36.9371 122.775 36.5411C122.115 36.1451 121.587 35.6111 121.191 34.9391C120.807 34.2671 120.615 33.5171 120.615 32.6891C120.615 31.8731 120.807 31.1351 121.191 30.4751C121.587 29.8151 122.115 29.2931 122.775 28.9091C123.447 28.5131 124.191 28.3151 125.007 28.3151C125.835 28.3151 126.579 28.5071 127.239 28.8911C127.899 29.2751 128.421 29.8031 128.805 30.4751C129.201 31.1351 129.399 31.8731 129.399 32.6891C129.399 33.5291 129.201 34.2851 128.805 34.9571C128.421 35.6171 127.899 36.1451 127.239 36.5411C126.579 36.9371 125.835 37.1351 125.007 37.1351ZM125.007 35.9111C125.607 35.9111 126.135 35.7731 126.591 35.4971C127.059 35.2211 127.425 34.8371 127.689 34.3451C127.965 33.8531 128.103 33.3011 128.103 32.6891C128.103 32.0771 127.965 31.5371 127.689 31.0691C127.425 30.5891 127.059 30.2111 126.591 29.9351C126.135 29.6591 125.607 29.5211 125.007 29.5211C124.419 29.5211 123.891 29.6591 123.423 29.9351C122.955 30.2111 122.589 30.5891 122.325 31.0691C122.061 31.5371 121.929 32.0771 121.929 32.6891C121.929 33.3131 122.061 33.8711 122.325 34.3631C122.589 34.8431 122.955 35.2211 123.423 35.4971C123.891 35.7731 124.419 35.9111 125.007 35.9111ZM133.48 36.9551L130.222 28.4951H131.536L134.11 35.5151L133.642 35.5331L136.198 28.4951H136.936L139.492 35.5331L139.024 35.5151L141.58 28.4951H142.912L139.636 36.9551H138.898L136.288 30.0251H136.828L134.236 36.9551H133.48ZM150.708 36.9551V31.9871C150.708 31.2431 150.486 30.6431 150.042 30.1871C149.61 29.7191 149.034 29.4851 148.314 29.4851C147.822 29.4851 147.39 29.5931 147.018 29.8091C146.646 30.0251 146.352 30.3191 146.136 30.6911C145.92 31.0631 145.812 31.4891 145.812 31.9691L145.236 31.6451C145.236 31.0091 145.386 30.4391 145.686 29.9351C145.986 29.4311 146.388 29.0351 146.892 28.7471C147.408 28.4591 147.996 28.3151 148.656 28.3151C149.304 28.3151 149.88 28.4711 150.384 28.7831C150.888 29.0951 151.278 29.5151 151.554 30.0431C151.842 30.5711 151.986 31.1471 151.986 31.7711V36.9551H150.708ZM144.552 36.9551V28.4951H145.812V36.9551H144.552ZM154.343 36.9551V24.2111H155.603V36.9551H154.343ZM161.991 37.1351C161.175 37.1351 160.431 36.9371 159.759 36.5411C159.099 36.1451 158.571 35.6111 158.175 34.9391C157.791 34.2671 157.599 33.5171 157.599 32.6891C157.599 31.8731 157.791 31.1351 158.175 30.4751C158.571 29.8151 159.099 29.2931 159.759 28.9091C160.431 28.5131 161.175 28.3151 161.991 28.3151C162.819 28.3151 163.563 28.5071 164.223 28.8911C164.883 29.2751 165.405 29.8031 165.789 30.4751C166.185 31.1351 166.383 31.8731 166.383 32.6891C166.383 33.5291 166.185 34.2851 165.789 34.9571C165.405 35.6171 164.883 36.1451 164.223 36.5411C163.563 36.9371 162.819 37.1351 161.991 37.1351ZM161.991 35.9111C162.591 35.9111 163.119 35.7731 163.575 35.4971C164.043 35.2211 164.409 34.8371 164.673 34.3451C164.949 33.8531 165.087 33.3011 165.087 32.6891C165.087 32.0771 164.949 31.5371 164.673 31.0691C164.409 30.5891 164.043 30.2111 163.575 29.9351C163.119 29.6591 162.591 29.5211 161.991 29.5211C161.403 29.5211 160.875 29.6591 160.407 29.9351C159.939 30.2111 159.573 30.5891 159.309 31.0691C159.045 31.5371 158.913 32.0771 158.913 32.6891C158.913 33.3131 159.045 33.8711 159.309 34.3631C159.573 34.8431 159.939 35.2211 160.407 35.4971C160.875 35.7731 161.403 35.9111 161.991 35.9111ZM172.06 37.1351C171.256 37.1351 170.536 36.9431 169.9 36.5591C169.264 36.1631 168.76 35.6351 168.388 34.9751C168.028 34.3151 167.848 33.5711 167.848 32.7431C167.848 31.9031 168.028 31.1531 168.388 30.4931C168.76 29.8211 169.264 29.2931 169.9 28.9091C170.536 28.5131 171.25 28.3151 172.042 28.3151C172.69 28.3151 173.266 28.4471 173.77 28.7111C174.286 28.9631 174.7 29.3231 175.012 29.7911C175.336 30.2471 175.534 30.7811 175.606 31.3931V34.0391C175.534 34.6511 175.336 35.1911 175.012 35.6591C174.7 36.1271 174.286 36.4931 173.77 36.7571C173.266 37.0091 172.696 37.1351 172.06 37.1351ZM172.258 35.9291C173.134 35.9291 173.836 35.6351 174.364 35.0471C174.904 34.4591 175.174 33.6851 175.174 32.7251C175.174 32.0891 175.048 31.5311 174.796 31.0511C174.556 30.5591 174.214 30.1811 173.77 29.9171C173.338 29.6411 172.828 29.5031 172.24 29.5031C171.64 29.5031 171.106 29.6411 170.638 29.9171C170.182 30.1931 169.816 30.5771 169.54 31.0691C169.276 31.5491 169.144 32.1011 169.144 32.7251C169.144 33.3491 169.276 33.9011 169.54 34.3811C169.816 34.8611 170.188 35.2391 170.656 35.5151C171.124 35.7911 171.658 35.9291 172.258 35.9291ZM175.102 36.9551V34.6871L175.354 32.5991L175.102 30.5651V28.4951H176.362V36.9551H175.102ZM182.517 37.1351C181.737 37.1351 181.035 36.9431 180.411 36.5591C179.787 36.1751 179.289 35.6531 178.917 34.9931C178.557 34.3211 178.377 33.5711 178.377 32.7431C178.377 31.9031 178.557 31.1531 178.917 30.4931C179.289 29.8211 179.787 29.2931 180.411 28.9091C181.035 28.5131 181.737 28.3151 182.517 28.3151C183.153 28.3151 183.729 28.4411 184.245 28.6931C184.761 28.9451 185.187 29.3051 185.523 29.7731C185.871 30.2291 186.075 30.7691 186.135 31.3931V34.0391C186.063 34.6511 185.859 35.1911 185.523 35.6591C185.199 36.1151 184.779 36.4751 184.263 36.7391C183.747 37.0031 183.165 37.1351 182.517 37.1351ZM182.733 35.9291C183.321 35.9291 183.837 35.7971 184.281 35.5331C184.725 35.2571 185.073 34.8791 185.325 34.3991C185.577 33.9071 185.703 33.3491 185.703 32.7251C185.703 32.0891 185.571 31.5311 185.307 31.0511C185.055 30.5711 184.707 30.1931 184.263 29.9171C183.819 29.6411 183.303 29.5031 182.715 29.5031C182.127 29.5031 181.605 29.6411 181.149 29.9171C180.693 30.1931 180.333 30.5771 180.069 31.0691C179.817 31.5491 179.691 32.1011 179.691 32.7251C179.691 33.3491 179.817 33.9071 180.069 34.3991C180.333 34.8791 180.693 35.2571 181.149 35.5331C181.617 35.7971 182.145 35.9291 182.733 35.9291ZM186.891 36.9551H185.631V34.6871L185.883 32.5991L185.631 30.5651V24.2111H186.891V36.9551ZM194.556 36.9551V27.0551C194.556 26.4671 194.682 25.9451 194.934 25.4891C195.198 25.0331 195.558 24.6791 196.014 24.4271C196.482 24.1631 197.01 24.0311 197.598 24.0311C198.054 24.0311 198.456 24.1151 198.804 24.2831C199.152 24.4391 199.47 24.6611 199.758 24.9491L198.93 25.7771C198.738 25.5851 198.534 25.4471 198.318 25.3631C198.114 25.2671 197.874 25.2191 197.598 25.2191C197.034 25.2191 196.596 25.3871 196.284 25.7231C195.984 26.0471 195.834 26.5031 195.834 27.0911V36.9551H194.556ZM192.432 29.6291V28.4951H198.66V29.6291H192.432ZM200.099 36.9551V28.4951H201.359V36.9551H200.099ZM201.359 32.0231L200.837 31.7891C200.837 30.7211 201.095 29.8751 201.611 29.2511C202.139 28.6271 202.859 28.3151 203.771 28.3151C204.191 28.3151 204.575 28.3931 204.923 28.5491C205.271 28.6931 205.595 28.9271 205.895 29.2511L205.067 30.1331C204.863 29.9051 204.635 29.7431 204.383 29.6471C204.143 29.5511 203.867 29.5031 203.555 29.5031C202.907 29.5031 202.379 29.7191 201.971 30.1511C201.563 30.5711 201.359 31.1951 201.359 32.0231ZM210.771 37.1351C209.955 37.1351 209.211 36.9371 208.539 36.5411C207.879 36.1451 207.351 35.6111 206.955 34.9391C206.571 34.2671 206.379 33.5171 206.379 32.6891C206.379 31.8731 206.571 31.1351 206.955 30.4751C207.351 29.8151 207.879 29.2931 208.539 28.9091C209.211 28.5131 209.955 28.3151 210.771 28.3151C211.599 28.3151 212.343 28.5071 213.003 28.8911C213.663 29.2751 214.185 29.8031 214.569 30.4751C214.965 31.1351 215.163 31.8731 215.163 32.6891C215.163 33.5291 214.965 34.2851 214.569 34.9571C214.185 35.6171 213.663 36.1451 213.003 36.5411C212.343 36.9371 211.599 37.1351 210.771 37.1351ZM210.771 35.9111C211.371 35.9111 211.899 35.7731 212.355 35.4971C212.823 35.2211 213.189 34.8371 213.453 34.3451C213.729 33.8531 213.867 33.3011 213.867 32.6891C213.867 32.0771 213.729 31.5371 213.453 31.0691C213.189 30.5891 212.823 30.2111 212.355 29.9351C211.899 29.6591 211.371 29.5211 210.771 29.5211C210.183 29.5211 209.655 29.6591 209.187 29.9351C208.719 30.2111 208.353 30.5891 208.089 31.0691C207.825 31.5371 207.693 32.0771 207.693 32.6891C207.693 33.3131 207.825 33.8711 208.089 34.3631C208.353 34.8431 208.719 35.2211 209.187 35.4971C209.655 35.7731 210.183 35.9111 210.771 35.9111ZM217.167 36.9551V28.4951H218.427V36.9551H217.167ZM222.981 36.9551V31.7711C222.981 31.0751 222.771 30.5231 222.351 30.1151C221.931 29.6951 221.403 29.4851 220.767 29.4851C220.335 29.4851 219.939 29.5811 219.579 29.7731C219.231 29.9531 218.949 30.2111 218.733 30.5471C218.529 30.8831 218.427 31.2851 218.427 31.7531L217.851 31.5191C217.851 30.8711 217.995 30.3071 218.283 29.8271C218.571 29.3471 218.955 28.9751 219.435 28.7111C219.927 28.4471 220.479 28.3151 221.091 28.3151C221.691 28.3151 222.225 28.4471 222.693 28.7111C223.173 28.9751 223.551 29.3471 223.827 29.8271C224.115 30.3071 224.259 30.8771 224.259 31.5371V36.9551H222.981ZM228.813 36.9551V31.7711C228.813 31.0751 228.603 30.5231 228.183 30.1151C227.763 29.6951 227.229 29.4851 226.581 29.4851C226.161 29.4851 225.771 29.5811 225.411 29.7731C225.063 29.9531 224.781 30.2111 224.565 30.5471C224.361 30.8831 224.259 31.2851 224.259 31.7531L223.503 31.5191C223.539 30.8711 223.707 30.3071 224.007 29.8271C224.319 29.3471 224.721 28.9751 225.213 28.7111C225.717 28.4471 226.269 28.3151 226.869 28.3151C227.469 28.3151 228.009 28.4471 228.489 28.7111C228.981 28.9751 229.365 29.3471 229.641 29.8271C229.929 30.3071 230.073 30.8771 230.073 31.5371V36.9551H228.813Z" fill="#7E7E7E"/>
<g clip-path="url(#clip0_1596_8250)">
<path d="M64.8399 48.1148L32.4286 80.5261C30.8792 79.0604 30.0417 77.0504 30.0417 74.8729V24.0367C30.0417 21.8173 30.9211 19.8073 32.5124 18.2998L64.8399 48.1148Z" fill="#2196F3"/>
<path d="M92.8542 49.4546C92.8542 52.3858 91.263 54.9821 88.6248 56.4477L79.4123 61.5564L67.9805 51.0039L64.8398 48.1146L76.9417 36.0127L88.6248 42.4614C91.263 43.9271 92.8542 46.5233 92.8542 49.4546Z" fill="#FFC107"/>
<path d="M64.84 48.1147L32.5125 18.2997C32.9312 17.8809 33.4756 17.5041 34.02 17.1691C36.6581 15.5778 39.8406 15.5359 42.5625 17.0434L76.9418 36.0128L64.84 48.1147Z" fill="#4CAF50"/>
<path d="M79.4125 61.5571L42.5625 81.8665C41.2643 82.6202 39.7987 82.9552 38.375 82.9552C36.8675 82.9552 35.36 82.5784 34.02 81.7409C33.4385 81.4078 32.9034 80.9995 32.4287 80.5265L64.84 48.1152L67.9806 51.0046L79.4125 61.5571Z" fill="#F44336"/>
</g>
<defs>
<clipPath id="clip0_1596_8250">
<rect width="67" height="67" fill="white" transform="translate(30 15.9551)"/>
</clipPath>
</defs>
</svg>
