<svg width="82" height="73" viewBox="0 0 82 73" fill="none" xmlns="http://www.w3.org/2000/svg">
<path d="M35.2208 5.77678C21.3182 14.6755 14.3687 25.3999 14.3687 37.9359C14.3687 41.8379 15.0503 43.7871 16.4063 43.7871L17.8046 43.4093C18.9064 42.9856 19.7927 42.7737 20.4743 42.7737C24.454 42.7737 27.7839 44.2215 30.45 47.1171C33.1197 50.0127 34.4545 53.5793 34.4545 57.838C34.4545 61.9236 33.0067 65.3949 30.1287 68.2446C27.2472 71.0943 23.7724 72.5174 19.7044 72.5174C14.0262 72.5174 9.34023 70.1868 5.65007 65.5149C1.96698 60.8537 0.127197 54.9918 0.127197 47.9399C0.127197 39.9593 1.68801 32.6602 4.82376 26.0356C7.96657 19.4145 12.7479 13.429 19.1889 8.07915C25.6299 2.73284 29.7403 0.0561523 31.52 0.0561523C32.7065 0.0561523 33.6811 0.628215 34.4439 1.77234C35.2066 2.91293 35.588 3.90875 35.588 4.75625L35.2102 5.77325L35.2208 5.77678ZM80.9858 5.77678C67.0832 14.6755 60.1373 25.3964 60.1373 37.9394C60.1373 41.8414 60.8188 43.7907 62.1748 43.7907L63.5732 43.4128C64.6749 42.9891 65.5613 42.7772 66.2428 42.7772C70.1378 42.7772 73.4465 44.225 76.155 47.1206C78.8741 50.0163 80.223 53.5828 80.223 57.8415C80.223 61.9272 78.7752 65.3984 75.8972 68.2481C73.0157 71.0978 69.541 72.5209 65.473 72.5209C59.7947 72.5209 55.1088 70.1903 51.4186 65.5185C47.7355 60.8572 45.8957 54.9953 45.8957 47.9434C45.8957 39.8781 47.4777 32.5119 50.6629 25.8519C53.841 19.1885 58.6259 13.2207 65.0245 7.95909C71.4337 2.694 75.5194 0.059685 77.2956 0.059685C78.4856 0.059685 79.4603 0.631746 80.2265 1.77587C80.9858 2.92 81.3671 3.91581 81.3671 4.76331L80.9858 5.77678Z" fill="#FF5859"/>
</svg>
