<svg width="66" height="50" viewBox="0 0 66 50" fill="none" xmlns="http://www.w3.org/2000/svg">
<path d="M4.20714 35.7842C4.09399 35.9886 3.95527 36.2181 3.78898 36.4588C3.2778 37.1986 2.45579 38.1158 1.2476 38.6776V41.5308C1.45726 41.1622 1.70423 40.8243 1.99591 40.5335L1.99707 40.5323C2.57073 39.9619 3.61217 39.3656 5.63926 38.4365C7.47195 37.5964 10.2426 36.4294 14.4667 34.7342C14.3044 34.3613 14.251 33.9478 14.251 33.5386C14.251 33.1461 14.2858 32.3909 14.9724 31.9332C15.0939 31.8521 15.2054 31.8027 15.2652 31.7774C15.2817 31.7704 15.2978 31.7638 15.3115 31.7583C15.3502 31.6996 15.4268 31.5651 15.5261 31.2986C15.7076 30.812 15.9279 29.9885 16.1581 28.6073L16.2894 27.8194L17.0051 27.6196C17.021 27.6115 17.0491 27.5958 17.0862 27.5702C17.1882 27.5 17.378 27.3417 17.5789 27.0206C17.9225 26.4713 18.3484 25.3604 18.3078 23.2482H17.2634L17.6423 21.6958L17.6423 21.6958L17.6424 21.6957L17.6424 21.6955L17.6424 21.6954L17.6427 21.6943L17.6447 21.686L17.6537 21.648C17.6618 21.6134 17.6739 21.5608 17.6893 21.492C17.7201 21.3542 17.7638 21.1519 17.8139 20.8998C17.9106 20.4126 18.03 19.7452 18.1264 19.0016C18.1199 18.2625 18.1488 17.5235 18.2129 16.7871L18.2132 16.7846L18.2888 15.9363C18.241 14.9526 18.0611 14.3167 17.8438 14.0136L17.843 14.0124C17.6117 13.6889 17.411 13.3984 17.228 13.1335C16.7271 12.4085 16.3587 11.8751 15.8578 11.3821C15.2443 10.7782 14.4127 10.2375 12.8344 9.7586L4.20714 35.7842ZM4.20714 35.7842C4.66092 35.677 5.06853 35.3875 5.32838 34.9267C5.56479 34.5075 5.63792 34.0219 5.63792 33.543C5.63792 33.1486 5.60228 32.3959 4.91804 31.9381C4.7968 31.857 4.68559 31.8074 4.62581 31.7819C4.6086 31.7746 4.59189 31.7677 4.57785 31.7621C4.53921 31.7036 4.46253 31.569 4.363 31.3017C4.18191 30.8154 3.96228 29.9925 3.73316 28.6124L3.60236 27.8246L2.88685 27.6243C2.87089 27.6161 2.84273 27.6004 2.80538 27.5746C2.70324 27.5042 2.51324 27.3456 2.31227 27.0243C1.9509 26.4464 1.4988 25.2481 1.59328 22.9191L2.78515 22.5191L2.14484 21.2293C2.14484 21.2293 2.1421 21.2237 2.13694 21.2112C2.13156 21.1983 2.12453 21.1802 2.11603 21.1565C2.09879 21.1084 2.07845 21.0452 2.05558 20.9652C2.00957 20.8043 1.96024 20.6002 1.90909 20.3575C1.80686 19.8722 1.70687 19.278 1.6156 18.6531C1.4368 17.4291 1.30027 16.1489 1.2476 15.4559V14.9796C1.30353 14.6451 1.51277 13.9288 1.81199 13.1564C1.96467 12.7622 2.12565 12.393 2.27508 12.0994C2.42703 11.8008 2.51976 11.6761 2.53407 11.6569C2.53512 11.6555 2.53574 11.6546 2.53595 11.6543C2.53608 11.6542 2.53629 11.6541 2.53657 11.6538C2.5438 11.6481 2.59949 11.6041 2.74058 11.5454C2.88692 11.4846 3.06666 11.432 3.25805 11.3897C3.44596 11.3481 3.62194 11.3215 3.75152 11.3055C3.81547 11.2976 3.86601 11.2925 3.89851 11.2896L3.93261 11.2866L3.93668 11.2863L3.93764 11.2863L3.93767 11.2863L3.93806 11.2862L5.10854 11.2098V10.2797C5.23641 10.1551 5.4673 9.98205 5.80724 9.80145C6.4934 9.43693 7.46664 9.12471 8.52717 9.07857C8.52738 9.07856 8.52759 9.07855 8.5278 9.07854L8.47337 7.82455C9.57907 7.77744 9.95621 7.71046 10.3259 7.73935L4.20714 35.7842ZM63.8297 40.5348C63.2596 39.9647 62.2242 39.3717 60.2202 38.452C58.4104 37.6214 55.6772 36.4693 51.5159 34.7977C51.7 34.409 51.7592 33.9722 51.7592 33.5408C51.7592 33.1481 51.7245 32.3954 51.0415 31.937C50.9202 31.8556 50.809 31.8058 50.7492 31.7802C50.732 31.7729 50.7154 31.7661 50.7014 31.7604C50.6627 31.7019 50.5858 31.5671 50.486 31.2992C50.3046 30.8126 50.0845 29.9895 49.8543 28.6093L49.723 27.8223L49.0081 27.6221C48.9921 27.6139 48.964 27.5982 48.9266 27.5725C48.8245 27.502 48.6345 27.3435 48.4335 27.0221C48.0723 26.4445 47.6204 25.2469 47.7144 22.9198L48.9124 22.5218L48.2645 21.2261C48.2645 21.2261 48.2611 21.2191 48.2547 21.2034C48.248 21.1871 48.2394 21.1644 48.2291 21.1347C48.2081 21.0745 48.1838 20.9958 48.1569 20.897C48.1028 20.6986 48.0457 20.448 47.9876 20.1541C47.8751 19.5858 47.7676 18.9018 47.6731 18.2099C47.6723 18.1709 47.6714 18.1315 47.6705 18.0916C47.6621 17.7018 47.6526 17.2668 47.6113 16.7918L47.6113 16.791L47.4363 14.7917L47.4286 14.7047C47.5212 14.3309 47.6979 13.769 47.9309 13.1679C48.0844 12.772 48.2466 12.4002 48.3972 12.104C48.5538 11.7961 48.6486 11.6695 48.6612 11.6529C48.6722 11.6443 48.729 11.6016 48.864 11.5454C49.0104 11.4846 49.1901 11.432 49.3815 11.3897C49.5694 11.3481 49.7454 11.3215 49.875 11.3055C49.9389 11.2976 49.9895 11.2925 50.022 11.2896L50.056 11.2866L50.0586 11.2864L50.059 11.2864L50.0594 11.2864L50.0601 11.2863L50.0611 11.2863L50.0615 11.2862L51.232 11.2098V10.2796C51.3598 10.1549 51.5907 9.98191 51.9304 9.80129C52.6162 9.43673 53.5884 9.12463 54.6465 9.07856C55.1381 9.05766 55.5029 9.0322 55.7665 9.01381C55.8498 9.008 55.923 9.00289 55.9869 8.99886C56.2571 8.9818 56.3352 8.98611 56.4149 8.99814C56.5249 9.01474 56.6853 9.05501 57.102 9.18392C57.2223 9.22115 57.3624 9.26517 57.524 9.31598C57.8853 9.4295 58.3544 9.57697 58.9532 9.75853C60.5335 10.2377 61.3661 10.7781 61.9796 11.3816C62.4828 11.8766 62.8528 12.4134 63.357 13.1451C63.537 13.4064 63.7342 13.6926 63.9607 14.0106L63.9617 14.0119C64.1269 14.2432 64.2841 14.6972 64.3666 15.4204V17.8739C64.286 18.8622 64.1361 19.8152 64.0039 20.5299C63.9371 20.8915 63.8754 21.1883 63.8308 21.3932C63.8086 21.4955 63.7906 21.5747 63.7785 21.6272L63.7649 21.6856L63.7617 21.6989L63.7611 21.7013L63.7611 21.7015L63.761 21.7016L63.761 21.7018L63.3846 23.2525H64.3666V24.7293C64.2076 26.2439 63.7669 26.9792 63.4834 27.3113C63.3358 27.4843 63.2115 27.571 63.1497 27.6081C63.136 27.6163 63.125 27.6223 63.1171 27.6264L62.4073 27.8294L62.2771 28.612C62.0474 29.992 61.8274 30.8153 61.646 31.302C61.5459 31.5707 61.4688 31.7056 61.4301 31.764C61.4163 31.7697 61.3998 31.7764 61.3828 31.7836C61.3234 31.8088 61.2125 31.8582 61.0916 31.9389C60.4063 32.3959 60.3701 33.1484 60.3701 33.543C60.3701 34.0217 60.4436 34.5073 60.6809 34.9265C60.942 35.3878 61.3505 35.676 61.8032 35.7829C61.9167 35.9875 62.0559 36.2175 62.2228 36.4587C62.6762 37.1139 63.3735 37.9082 64.3666 38.472V41.1912C64.207 40.954 64.0288 40.7335 63.8297 40.5348ZM63.8297 40.5348L62.9421 41.4224L63.8283 40.5335C63.8288 40.5339 63.8292 40.5344 63.8297 40.5348ZM42.0182 35.7988L41.8151 36.002L43.5832 36.708C43.8898 36.8305 44.3624 37.0167 44.9581 37.2515C46.8005 37.9775 49.8208 39.1677 52.7527 40.3704C54.6915 41.1658 56.5758 41.9601 58.0398 42.6224C58.7733 42.9542 59.3873 43.2465 59.8447 43.4851C60.074 43.6046 60.2507 43.7039 60.3775 43.7823C60.4447 43.8238 60.4844 43.8513 60.504 43.8654C60.5184 43.8875 60.5511 43.942 60.5941 44.0454C60.661 44.2063 60.7286 44.4265 60.7915 44.7056C60.9174 45.2645 61.0002 45.9504 61.0517 46.6422C61.0886 47.1387 61.1082 47.6203 61.1181 48.0334H4.69182C4.70207 47.6202 4.72206 47.1387 4.75938 46.6423C4.81142 45.9503 4.89471 45.2643 5.02095 44.7055C5.08399 44.4264 5.15179 44.2062 5.21875 44.0455C5.26172 43.9423 5.29436 43.888 5.30867 43.8659C5.32835 43.8519 5.36821 43.8243 5.43581 43.7825C5.56283 43.704 5.73972 43.6047 5.96908 43.4851C6.42666 43.2465 7.04082 42.9542 7.77436 42.6224C9.23852 41.9601 11.1228 41.1658 13.0614 40.3704C15.9954 39.1668 19.0178 37.9756 20.8596 37.2498C21.4532 37.0158 21.9242 36.8302 22.2301 36.708L22.231 36.7077C23.7816 36.0872 24.823 34.9455 25.4579 34.0277C25.6751 33.7138 25.8514 33.4165 25.9903 33.1592C26.0138 33.1549 26.0374 33.1501 26.0612 33.1448C26.5459 33.0365 26.9845 32.7311 27.2647 32.2333C27.5164 31.7861 27.6004 31.2575 27.6004 30.7124C27.6004 30.2537 27.5548 29.4757 26.8485 29.0061C26.7223 28.9222 26.6057 28.8704 26.5406 28.8429C26.5084 28.8293 26.4776 28.8171 26.4591 28.8098L26.4573 28.8091C26.4457 28.8045 26.4372 28.8011 26.4304 28.7984C26.3893 28.7486 26.2702 28.5804 26.1093 28.1492C25.8878 27.5557 25.6249 26.5682 25.3521 24.9321L25.2209 24.1457L24.4969 23.9424C24.4747 23.9321 24.424 23.9065 24.3538 23.858C24.2093 23.7582 23.9636 23.5488 23.71 23.1422C23.245 22.3972 22.6963 20.8927 22.8372 18.0094L24.1473 17.5662L23.5016 16.2771C23.4341 16.1423 23.3049 15.7101 23.156 14.9571C23.0178 14.2582 22.8863 13.4144 22.772 12.5678C22.5388 10.8402 22.3964 9.24644 22.3964 8.90955C22.3964 8.91284 22.3964 8.9124 22.3968 8.90786C22.3983 8.89291 22.4042 8.83342 22.4273 8.71605C22.4546 8.57778 22.4972 8.40123 22.5554 8.19263C22.6715 7.77603 22.8372 7.27414 23.0277 6.76895C23.2185 6.26277 23.4264 5.77393 23.6231 5.37914C23.7215 5.18168 23.811 5.01999 23.888 4.89711C23.9619 4.77905 24.0039 4.73001 24.01 4.72286C24.0108 4.72197 24.011 4.72173 24.0106 4.7221L24.0132 4.71947C24.1054 4.62674 24.431 4.4678 24.9715 4.34792C25.2017 4.29685 25.4166 4.26428 25.5746 4.24465C25.6527 4.23494 25.7148 4.22865 25.7553 4.22493C25.7755 4.22308 25.7901 4.22187 25.7986 4.22121L25.8043 4.22076L25.8048 4.22073L25.8052 4.22071L25.8058 4.22066L25.8064 4.22062L25.8067 4.2206L26.977 4.1435V3.16874C26.9929 3.15108 27.0126 3.13038 27.0366 3.10664C27.2058 2.93978 27.5 2.72058 27.9206 2.49715C28.7578 2.05243 29.9388 1.67413 31.2265 1.61921L31.2266 1.61921C31.8021 1.59465 32.2275 1.56491 32.5379 1.54321C32.6373 1.53626 32.725 1.53013 32.802 1.52526C33.1234 1.50494 33.2344 1.50871 33.3523 1.52659C33.5009 1.54913 33.7052 1.60191 34.1958 1.75392C34.3373 1.79775 34.5005 1.8491 34.688 1.90812C35.1152 2.04251 35.6687 2.2167 36.3802 2.43255C38.2734 3.00688 39.2893 3.66048 40.044 4.40269C40.6506 4.9993 41.1005 5.65027 41.6962 6.51229C41.9107 6.82259 42.1441 7.16024 42.4104 7.53255C42.6741 7.90164 42.8834 8.59035 42.9651 9.60805C43.0437 10.5877 42.9927 11.7075 42.8806 12.7905C42.7691 13.8671 42.6012 14.8711 42.4604 15.6084C42.3902 15.976 42.3272 16.2747 42.2821 16.4801C42.2596 16.5827 42.2416 16.6618 42.2294 16.7143L42.2157 16.7727L42.2125 16.7862L42.2119 16.7888L42.2119 16.7889L42.2118 16.7891L42.2118 16.7892L41.8364 18.3394H42.9936C43.0771 21.0056 42.5533 22.4222 42.1068 23.1381C41.8532 23.5447 41.6076 23.754 41.4632 23.8538C41.3932 23.9022 41.3427 23.9278 41.3205 23.9381L40.5967 24.1415L40.4656 24.9278C40.1928 26.5638 39.9298 27.5514 39.7084 28.1448C39.5475 28.576 39.4284 28.7443 39.3873 28.794C39.3805 28.7968 39.372 28.8001 39.3604 28.8047C39.3514 28.8083 39.339 28.8132 39.3247 28.8189C39.3103 28.8248 39.2939 28.8315 39.2771 28.8385C39.2119 28.866 39.0954 28.9178 38.9692 29.0017C38.2629 29.4714 38.2173 30.2493 38.2173 30.708C38.2173 31.2531 38.3013 31.7818 38.553 32.2289C38.8332 32.7267 39.2717 33.0321 39.7564 33.1404C39.7803 33.1458 39.8039 33.1506 39.8274 33.1548C39.9662 33.4121 40.1426 33.7094 40.3597 34.0233C40.7506 34.5882 41.2954 35.238 42.0182 35.7988ZM5.02181 10.3784C5.02098 10.3785 5.02507 10.3713 5.03656 10.357C5.02839 10.3712 5.02264 10.3784 5.02181 10.3784ZM51.1453 10.3784C51.1445 10.3784 51.1485 10.3713 51.16 10.3569C51.1519 10.3712 51.1461 10.3783 51.1453 10.3784ZM26.9168 3.24611C26.9164 3.24611 26.9188 3.24149 26.9252 3.23221C26.9205 3.24146 26.9172 3.2461 26.9168 3.24611Z" stroke="#FF5859" stroke-width="2.51034"/>
</svg>
