<svg width="1440" height="169" viewBox="0 0 1440 169" fill="none" xmlns="http://www.w3.org/2000/svg">
<g clip-path="url(#clip0_1443_3551)">
<path d="M1432.56 69.5194C1432.56 69.5194 1420.02 62.9387 1409.85 63.9686C1408.06 64.1499 1406.49 64.1658 1405.1 64.0599C1407.11 66.9714 1408.92 69.9921 1410.68 72.9678C1413.7 78.11 1416.61 83.1848 1419.82 87.9919C1420.65 89.2464 1421.5 90.4813 1422.37 91.6985L1430.13 88.1114L1425.13 95.3956C1430.25 102.002 1436.11 107.998 1442.59 113.266L1435.92 120.958C1427 112.784 1419.38 103.124 1413.34 92.6224C1410.29 87.3932 1407.6 81.9891 1404.92 76.7172C1404.18 75.2784 1403.44 73.8514 1402.69 72.4423L1394.75 74.2318L1400.6 68.7058C1399.2 66.3253 1397.71 64.0505 1396.04 61.9679C1392.59 57.6023 1388.18 54.2557 1382.93 52.2206C1380.33 51.1806 1377.59 50.441 1374.78 50.2936C1371.97 50.1312 1369.07 50.5872 1366.48 51.9084C1363.8 53.2742 1361.64 55.4682 1360.31 58.1632C1359.21 60.3595 1358.69 62.8071 1358.65 65.2373L1358.65 65.2357C1380.96 56.9419 1389.45 81.8439 1389.45 81.8439C1389.45 81.8439 1386.99 80.0191 1383.34 77.9244C1384.31 79.9202 1384.97 82.0538 1385.3 84.2502C1387.24 97.3218 1394.9 106.292 1394.98 106.382L1397.16 108.893L1394.15 108.663C1393.94 108.648 1391.6 108.452 1388.03 107.736C1387.2 111.504 1385.57 114.388 1385.49 114.525L1384.73 115.847L1383.61 114.664C1382.82 113.837 1381.74 113.174 1380.47 112.628C1378.24 117.118 1375.13 119.715 1374.99 119.832L1373.65 120.931L1373.01 119.071C1373 119.044 1371.95 116.153 1368.89 113.173C1366.84 116.465 1366.41 118.428 1366.41 118.452L1366.17 119.628L1365.05 119.387C1364.93 119.361 1362.28 118.723 1359.27 116.508C1356.18 119.14 1353.89 120.711 1353.64 120.877L1351.66 122.217L1351.66 119.548C1351.66 119.46 1351.6 110.607 1346.87 98.1644C1346.21 96.4017 1345.69 94.5876 1345.31 92.7402C1343.98 95.8561 1343.24 98.0557 1343.24 98.0557C1343.24 98.0557 1337.53 73.0526 1355.67 66.3081L1357.05 65.8074C1356.84 63.0875 1357.16 60.203 1358.31 57.4326C1359.63 54.1491 1362.18 51.1667 1365.3 49.309C1368.43 47.4165 1371.95 46.607 1375.27 46.525C1378.61 46.4282 1381.81 47.0133 1384.82 47.9247C1388.89 49.1605 1392.66 51.2383 1395.95 53.8672C1398.27 50.8619 1403.85 45.6493 1414.21 46.8501C1430.95 48.7899 1432.56 69.5194 1432.56 69.5194ZM1367.74 110.018L1367.02 109.936L1366.2 109.84C1364.62 111.559 1362.97 113.206 1361.24 114.774C1362.21 115.416 1363.25 115.95 1364.33 116.365C1364.79 115.089 1365.77 112.884 1367.74 110.018ZM1377.92 111.743C1375.76 111.132 1373.29 110.724 1370.81 110.395C1370.64 110.62 1370.47 110.84 1370.32 111.057C1371.98 112.637 1373.39 114.464 1374.49 116.473C1375.42 115.493 1376.77 113.866 1377.92 111.743ZM1385.52 107.185C1380.86 106.081 1376.32 104.526 1371.96 102.541C1370.85 104.205 1369.66 105.808 1368.38 107.344C1374.11 108.016 1380.24 108.896 1383.97 111.643C1384.62 110.209 1385.14 108.716 1385.52 107.185ZM1376.01 74.3042C1378.18 78.237 1379.76 84.7132 1376.24 94.263C1375.47 96.3571 1374.48 98.3701 1373.35 100.295C1380.67 103.555 1387.55 104.97 1391.26 105.547C1388.66 101.78 1384.28 94.2426 1382.83 84.4343C1382.35 81.2119 1381.02 78.174 1378.99 75.6298C1378.03 75.1675 1377.03 74.7207 1376.01 74.3042ZM1360.65 72.5695C1355.08 74.6373 1350.35 82.1942 1347.24 88.5465C1347.44 91.5483 1348.09 94.503 1349.17 97.3139C1352.61 106.35 1353.68 113.493 1354.01 117.15C1358.45 113.777 1369.72 104.364 1373.9 93.0171C1376.88 84.9503 1376.33 77.9508 1372.34 73.3051C1372.22 73.1575 1372.08 73.0203 1371.95 72.8791C1368 71.7283 1363.99 71.326 1360.65 72.5695Z" fill="#FF5859" fill-opacity="0.5"/>
<path d="M1399.37 120.389C1399.16 129.153 1392.27 140.8 1392.27 140.8C1392.27 140.8 1409.91 137.178 1413.32 122.367C1416.26 109.663 1407.82 106.247 1407.82 106.247C1407.82 106.247 1399.68 107.671 1399.37 120.389Z" fill="#FF5859" fill-opacity="0.5"/>
</g>
<g clip-path="url(#clip1_1443_3551)">
<path d="M-9.42339 53.5573C-9.42339 53.5573 3.11943 46.9767 13.2887 48.0065C15.0754 48.1878 16.6514 48.2037 18.0437 48.0979C16.0288 51.0094 14.2225 54.03 12.4575 57.0058C9.44373 62.1479 6.52548 67.2227 3.3191 72.0298C2.49077 73.2844 1.63873 74.5193 0.771229 75.7364L-6.98647 72.1493L-1.99462 79.4336C-7.1106 86.0395 -12.9686 92.0357 -19.4533 97.3043L-12.7781 104.996C-3.85643 96.8218 3.75796 87.1624 9.79741 76.6604C12.8473 71.4312 15.5355 66.0271 18.2179 60.7552C18.9577 59.3163 19.6967 57.8894 20.4511 56.4802L28.3873 58.2698L22.5423 52.7437C23.9401 50.3633 25.4297 48.0885 27.1016 46.0059C30.5527 41.6403 34.9642 38.2936 40.2149 36.2586C42.8095 35.2186 45.5466 34.479 48.3625 34.3316C51.1675 34.1691 54.0674 34.6251 56.6648 35.9463C59.3404 37.3121 61.5029 39.5061 62.8299 42.2012C63.9303 44.3975 64.4454 46.8451 64.4946 49.2753L64.4888 49.2737C42.181 40.9798 33.6882 65.8818 33.6882 65.8818C33.6882 65.8818 36.1507 64.057 39.7986 61.9624C38.8262 63.9582 38.1667 66.0918 37.8433 68.2882C35.902 81.3598 28.2384 90.3299 28.1627 90.4202L25.9827 92.9305L28.9884 92.7009C29.1962 92.6858 31.5351 92.4903 35.107 91.7739C35.9398 95.5416 37.5686 98.4264 37.6474 98.5634L38.4058 99.8848L39.5326 98.7016C40.3235 97.8745 41.4003 97.2123 42.6672 96.6662C44.8971 101.156 48.0147 103.753 48.1535 103.87L49.4916 104.969L50.1274 103.109C50.1389 103.082 51.1857 100.191 54.2497 97.2105C56.2967 100.502 56.7265 102.466 56.7296 102.49L56.9714 103.666L58.0878 103.425C58.2079 103.399 60.8566 102.761 63.8713 100.546C66.9566 103.178 69.2507 104.749 69.5018 104.915L71.4777 106.255L71.4824 103.586C71.4792 103.498 71.5364 94.6454 76.2662 82.2023C76.9327 80.4397 77.4542 78.6256 77.8256 76.7781C79.1573 79.8941 79.899 82.0936 79.899 82.0936C79.899 82.0936 85.6103 57.0905 67.4705 50.346L66.0852 49.8454C66.2979 47.1255 65.975 44.241 64.8315 41.4705C63.5128 38.187 60.9601 35.2046 57.8391 33.347C54.7146 31.4544 51.1933 30.645 47.8703 30.5629C44.5257 30.4662 41.3263 31.0512 38.3166 31.9627C34.2492 33.1985 30.4819 35.2763 27.1906 37.9052C24.8724 34.8999 19.286 29.6872 8.93026 30.8881C-7.80561 32.8278 -9.42339 53.5573 -9.42339 53.5573ZM55.4024 94.0564L56.1167 93.9743L56.9372 93.8782C58.5155 95.597 60.1708 97.2435 61.8981 98.8124C60.9295 99.4543 59.8933 99.9876 58.8081 100.403C58.3523 99.1268 57.3719 96.9223 55.4024 94.0564ZM45.2175 95.7808C47.3815 95.1703 49.8479 94.7617 52.3349 94.4333C52.503 94.6579 52.6691 94.8775 52.8222 95.0951C51.1604 96.6752 49.752 98.502 48.6467 100.511C47.7159 99.5312 46.3661 97.904 45.2175 95.7808ZM37.624 91.2231C42.2837 90.1192 46.8248 88.5639 51.1829 86.5794C52.2888 88.243 53.4829 89.8462 54.7599 91.3823C49.0333 92.0539 42.8989 92.9344 39.1715 95.6806C38.5166 94.2468 37.9985 92.7543 37.624 91.2231ZM47.1328 58.3421C44.9621 62.275 43.3761 68.7511 46.8994 78.3009C47.6701 80.395 48.6629 82.4081 49.7885 84.3325C42.4701 87.593 35.5858 89.0083 31.884 89.5853C34.4839 85.8178 38.856 78.2805 40.3108 68.4722C40.7904 65.2498 42.1151 62.212 44.15 59.6677C45.1146 59.2055 46.1128 58.7587 47.1328 58.3421ZM62.4933 56.6075C68.0619 58.6753 72.786 66.2321 75.9021 72.5844C75.6963 75.5863 75.046 78.541 73.9725 81.3519C70.5328 90.3878 69.4636 97.5314 69.1286 101.188C64.6929 97.8153 53.421 88.4021 49.235 77.055C46.2556 68.9882 46.8116 61.9888 50.7964 57.3431C50.9227 57.1955 51.0602 57.0582 51.1921 56.917C55.1436 55.7663 59.1532 55.364 62.4933 56.6075Z" fill="#FF5859" fill-opacity="0.5"/>
<path d="M23.7678 104.427C23.9844 113.191 30.8675 124.838 30.8675 124.838C30.8675 124.838 13.2332 121.216 9.81683 106.405C6.88346 93.7006 15.3216 90.2851 15.3216 90.2851C15.3216 90.2851 23.4557 91.7087 23.7678 104.427Z" fill="#FF5859" fill-opacity="0.5"/>
</g>
<defs>
<clipPath id="clip0_1443_3551">
<rect width="107.875" height="107.875" fill="white" transform="matrix(-0.655461 0.755229 0.755229 0.655461 1388.67 15.962)"/>
</clipPath>
<clipPath id="clip1_1443_3551">
<rect width="107.875" height="107.875" fill="white" transform="translate(34.4702) rotate(49.0454)"/>
</clipPath>
</defs>
</svg>
