<svg width="1440" height="1121" viewBox="0 0 1440 1121" fill="none" xmlns="http://www.w3.org/2000/svg">
<g clip-path="url(#clip0_1255_3402)">
<rect width="1440" height="1120" transform="translate(0 0.0380859)" fill="#FFF4F4"/>
<g clip-path="url(#clip1_1255_3402)">
<path d="M1438.81 888.353C1438.81 888.353 1407.1 879.511 1384.5 886.805C1380.53 888.087 1376.95 888.891 1373.74 889.329C1379.73 894.963 1385.31 900.947 1390.77 906.849C1400.12 917.066 1409.23 927.175 1418.86 936.536C1421.35 938.984 1423.89 941.375 1426.45 943.718L1442.33 931.787L1434.54 950.771C1449.38 963.29 1465.61 974.061 1482.92 982.874L1471.49 1003.6C1447.24 989.376 1425.23 971.136 1406.39 950.215C1396.91 939.818 1388.17 928.848 1379.51 918.175C1377.13 915.266 1374.75 912.384 1372.35 909.549L1355.19 917.482L1365.78 902.078C1361.44 897.35 1356.95 892.906 1352.14 888.988C1342.17 880.75 1330.51 875.294 1317.59 873.228C1311.19 872.129 1304.61 871.782 1298.14 872.819C1291.68 873.816 1285.32 876.265 1280.06 880.532C1274.64 884.939 1270.8 890.978 1269.1 897.749C1267.67 903.276 1267.69 909.088 1268.76 914.635L1268.77 914.628C1315.42 884.914 1346.85 937.361 1346.85 937.361C1346.85 937.361 1340.37 934.415 1331.06 931.432C1334.24 935.494 1336.78 940.02 1338.58 944.854C1349.36 973.611 1371.15 990.26 1371.36 990.428L1377.54 995.07L1370.6 996.013C1370.12 996.08 1364.71 996.775 1356.24 996.888C1356.19 1005.85 1353.89 1013.2 1353.78 1013.55L1352.7 1016.93L1349.56 1014.79C1347.36 1013.29 1344.59 1012.31 1341.45 1011.69C1338.57 1022.98 1332.75 1030.4 1332.49 1030.73L1329.98 1033.88L1327.63 1029.96C1327.59 1029.91 1323.81 1023.85 1315.39 1018.57C1312.35 1027.04 1312.33 1031.72 1312.33 1031.77L1312.35 1034.56L1309.7 1034.56C1309.41 1034.56 1303.08 1034.4 1295.16 1030.83C1289.43 1038.32 1284.98 1043 1284.49 1043.5L1280.65 1047.51L1279.34 1041.45C1279.31 1041.25 1274.86 1021.16 1258.05 995.19C1255.68 991.509 1253.61 987.641 1251.87 983.624C1250.36 991.353 1249.75 996.713 1249.75 996.713C1249.75 996.713 1224.59 942.68 1262.52 918.517L1265.42 916.705C1263.62 910.628 1262.94 903.916 1264.19 897.064C1265.59 888.96 1269.94 880.94 1276.12 875.198C1282.3 869.375 1289.91 865.821 1297.42 864.015C1304.97 862.166 1312.53 861.937 1319.81 862.542C1329.66 863.368 1339.23 866.254 1347.99 870.624C1351.79 862.666 1361.95 848.1 1386.06 845.783C1425.04 842.038 1438.81 888.353 1438.81 888.353ZM1311.24 1011.96L1309.57 1012.12L1307.66 1012.3C1304.91 1016.98 1301.95 1021.53 1298.79 1025.93C1301.31 1026.92 1303.92 1027.63 1306.59 1028.04C1307 1024.92 1308.16 1019.43 1311.24 1011.96ZM1335.22 1010.92C1330.01 1010.59 1324.2 1010.86 1318.39 1011.32C1318.12 1011.92 1317.85 1012.5 1317.61 1013.06C1322.15 1015.85 1326.24 1019.31 1329.73 1023.34C1331.37 1020.66 1333.64 1016.3 1335.22 1010.92ZM1350.25 996.862C1339.13 996.624 1328.05 995.302 1317.18 992.916C1315.48 997.235 1313.55 1001.46 1311.39 1005.57C1324.73 1004.31 1339.1 1003.32 1348.91 1007.74C1349.7 1004.17 1350.15 1000.52 1350.25 996.862ZM1312.63 926.779C1319.48 934.658 1326.24 948.601 1322.88 972.018C1322.15 977.152 1320.88 982.21 1319.26 987.131C1337.47 990.974 1353.81 990.836 1362.5 990.344C1354.76 983.05 1341.15 968.053 1333.07 946.474C1330.41 939.385 1325.92 933.128 1320.05 928.338C1317.64 927.757 1315.15 927.229 1312.63 926.779ZM1276.88 930.32C1265.23 937.732 1258.18 957.205 1254.19 973.158C1256.13 979.878 1259.04 986.276 1262.85 992.14C1275.07 1011 1280.98 1026.71 1283.52 1034.85C1291.96 1025.03 1312.99 998.148 1316.97 970.324C1319.81 950.543 1315.14 934.909 1303.82 926.294C1303.46 926.02 1303.08 925.775 1302.71 925.518C1293.17 924.828 1283.86 925.868 1276.88 930.32Z" fill="#FF5859" fill-opacity="0.5"/>
<path d="M1388.17 1020.11C1391.95 1040.13 1381.98 1069.95 1381.98 1069.95C1381.98 1069.95 1420.29 1053.13 1420.84 1017.81C1421.31 987.515 1400.48 983.865 1400.48 983.865C1400.48 983.865 1382.69 991.063 1388.17 1020.11Z" fill="#FF5859" fill-opacity="0.5"/>
</g>
</g>
<defs>
<clipPath id="clip0_1255_3402">
<rect width="1440" height="1120" fill="white" transform="translate(0 0.0380859)"/>
</clipPath>
<clipPath id="clip1_1255_3402">
<rect width="250.696" height="250.696" fill="white" transform="matrix(-0.482575 0.875854 0.875854 0.482575 1312.98 788.038)"/>
</clipPath>
</defs>
</svg>
